<svg width="58" height="58" viewBox="0 0 58 58" fill="none" xmlns="http://www.w3.org/2000/svg">
<g clip-path="url(#clip0)">
<path d="M37 3.08301H29V55.083H37V3.08301Z" fill="#B5C3C6"/>
<path d="M29 6.08301H0.944C0.422 6.08301 0 6.50601 0 7.02701V51.14C0 51.661 0.422 52.084 0.944 52.084H29V6.08301Z" fill="#B6C8CC"/>
<path d="M45.8887 6.08301L52.9997 10.083V48.083L45.8887 52.083H57.0567C57.5777 52.083 58.0007 51.661 58.0007 51.139V7.02701C58.0007 6.50601 57.5787 6.08301 57.0567 6.08301H45.8887Z" fill="#B6C8CC"/>
<path d="M37 1.20118V56.7992C37 56.8892 37.097 56.9452 37.175 56.9012L53 48.0002V10.0002L37.175 1.09818C37.097 1.05418 37 1.11118 37 1.20118Z" fill="#E3E9EC"/>
<path d="M52 16.083H55C55.553 16.083 56 15.636 56 15.083C56 14.53 55.553 14.083 55 14.083H52C51.447 14.083 51 14.53 51 15.083C51 15.636 51.447 16.083 52 16.083Z" fill="#A3B8BE"/>
<path d="M55 17.083H52C51.447 17.083 51 17.53 51 18.083C51 18.636 51.447 19.083 52 19.083H55C55.553 19.083 56 18.636 56 18.083C56 17.53 55.553 17.083 55 17.083Z" fill="#A3B8BE"/>
<path d="M55 39.083H52C51.447 39.083 51 39.53 51 40.083C51 40.636 51.447 41.083 52 41.083H55C55.553 41.083 56 40.636 56 40.083C56 39.53 55.553 39.083 55 39.083Z" fill="#A3B8BE"/>
<path d="M55 42.083H52C51.447 42.083 51 42.53 51 43.083C51 43.636 51.447 44.083 52 44.083H55C55.553 44.083 56 43.636 56 43.083C56 42.53 55.553 42.083 55 42.083Z" fill="#A3B8BE"/>
<path d="M10 52.083H2V56.083H10V52.083Z" fill="#556080"/>
<path d="M56 52.083H48V56.083H56V52.083Z" fill="#556080"/>
<path d="M33 7C33.5523 7 34 6.55228 34 6C34 5.44772 33.5523 5 33 5C32.4477 5 32 5.44772 32 6C32 6.55228 32.4477 7 33 7Z" fill="#556080"/>
<path d="M33 13C33.5523 13 34 12.5523 34 12C34 11.4477 33.5523 11 33 11C32.4477 11 32 11.4477 32 12C32 12.5523 32.4477 13 33 13Z" fill="#556080"/>
<path d="M33 47C33.5523 47 34 46.5523 34 46C34 45.4477 33.5523 45 33 45C32.4477 45 32 45.4477 32 46C32 46.5523 32.4477 47 33 47Z" fill="#556080"/>
<path d="M33 41C33.5523 41 34 40.5523 34 40C34 39.4477 33.5523 39 33 39C32.4477 39 32 39.4477 32 40C32 40.5523 32.4477 41 33 41Z" fill="#556080"/>
<path d="M33 19C33.5523 19 34 18.5523 34 18C34 17.4477 33.5523 17 33 17C32.4477 17 32 17.4477 32 18C32 18.5523 32.4477 19 33 19Z" fill="#556080"/>
<path d="M33 53C33.5523 53 34 52.5523 34 52C34 51.4477 33.5523 51 33 51C32.4477 51 32 51.4477 32 52C32 52.5523 32.4477 53 33 53Z" fill="#556080"/>
<path d="M40 19V23C41.66 23 43.011 24.351 43.011 26.011V31.99C43.011 33.649 41.66 35 40 35V39C43.866 39 47.011 35.855 47.011 31.989V26.01C47.011 22.144 43.866 19 40 19Z" fill="#B5C3C6"/>
<path d="M41.063 20.5837H40.225V20.5557H40V21.5837H41.063C42.683 21.5837 45 23.4717 45 25.0907V32.9087C45 34.5287 42.682 36.5647 41.063 36.5647H40V37.5517H41.195C43.304 37.4807 46 35.0357 46 32.9097V25.0917C46 22.9207 43.234 20.5837 41.063 20.5837Z" fill="#CFE1E5"/>
<path d="M29 10.083H5.345C4.602 10.083 4 10.686 4 11.429V46.738C4 47.481 4.602 48.083 5.345 48.083H29V10.083Z" fill="#556080"/>
<path d="M25 11.083H7V21.083H25V11.083Z" fill="#EF5350"/>
<path d="M13 17.083H7V19.083H13V17.083Z" fill="#B7092B"/>
<path d="M13 13.083H7V15.083H13V13.083Z" fill="#B7092B"/>
<path d="M25 17.083H19V19.083H25V17.083Z" fill="#B7092B"/>
<path d="M25 13.083H19V15.083H25V13.083Z" fill="#B7092B"/>
<path d="M19 11.083H13V21.083H19V11.083Z" fill="#B5C3C6"/>
<path d="M25 24.083H7V34.083H25V24.083Z" fill="#EF5350"/>
<path d="M13 30.083H7V32.083H13V30.083Z" fill="#B7092B"/>
<path d="M13 26.083H7V28.083H13V26.083Z" fill="#B7092B"/>
<path d="M25 30.083H19V32.083H25V30.083Z" fill="#B7092B"/>
<path d="M25 26.083H19V28.083H25V26.083Z" fill="#B7092B"/>
<path d="M19 24.083H13V34.083H19V24.083Z" fill="#B5C3C6"/>
<path d="M25 38.083H7V48.083H25V38.083Z" fill="#EF5350"/>
<path d="M13 44.083H7V46.083H13V44.083Z" fill="#B7092B"/>
<path d="M13 40.083H7V42.083H13V40.083Z" fill="#B7092B"/>
<path d="M25 44.083H19V46.083H25V44.083Z" fill="#B7092B"/>
<path d="M25 40.083H19V42.083H25V40.083Z" fill="#B7092B"/>
<path d="M19 38.083H13V48.083H19V38.083Z" fill="#B5C3C6"/>
<path d="M29 34.083H4V36.083H29V34.083Z" fill="#B6C8CC"/>
<path d="M29 21.083H4V23.083H29V21.083Z" fill="#B6C8CC"/>
</g>
<defs>
<clipPath id="clip0">
<rect width="58" height="58" fill="white"/>
</clipPath>
</defs>
</svg>
