<svg width="58" height="58" viewBox="0 0 58 58" fill="none" xmlns="http://www.w3.org/2000/svg">
<g clip-path="url(#clip0)">
<path d="M14.0192 29.5736C14.3287 29.5736 14.5795 29.3228 14.5795 29.0134V26.6849H15.1424C15.4518 26.6849 15.7027 26.4341 15.7027 26.1246V23.0889H5.69434V26.1246C5.69434 26.4339 5.94514 26.6849 6.25462 26.6849H6.81752V29.0134C6.81752 29.3227 7.06832 29.5736 7.37781 29.5736H8.34987V48.4557H7.37781C7.06844 48.4557 6.81752 48.7065 6.81752 49.016V51.3444H6.25462C5.94525 51.3444 5.69434 51.5952 5.69434 51.9047V54.9404H15.7026V51.9047C15.7026 51.5954 15.4518 51.3444 15.1423 51.3444H14.5794V49.016C14.5794 48.7066 14.3286 48.4557 14.0191 48.4557H13.0471V29.5736H14.0192Z" fill="#FFCA28"/>
<path d="M10.6982 54.9403H15.7024V51.9046C15.7024 51.5952 15.4516 51.3443 15.1421 51.3443H14.5793V49.0158C14.5793 48.7065 14.3284 48.4556 14.019 48.4556H13.0469V29.5736H14.019C14.3284 29.5736 14.5793 29.3228 14.5793 29.0134V26.6849H15.1421C15.4515 26.6849 15.7024 26.4341 15.7024 26.1246V23.0889H10.6982V54.9403Z" fill="#FFA000"/>
<path d="M56.9605 17.7678L29.635 0.186659C29.2483 -0.0622196 28.7519 -0.0622196 28.365 0.186659L1.03973 17.7678C0.138463 18.3476 0.54922 19.745 1.62086 19.745H56.3793C57.451 19.7449 57.8617 18.3476 56.9605 17.7678Z" fill="#EF5350"/>
<path d="M29.6344 2.7599C29.2476 2.51102 28.7512 2.51102 28.3644 2.7599L1.96582 19.7446H56.0329L29.6344 2.7599Z" fill="#D32F2F"/>
<path d="M28.2127 5.25691L5.69434 19.7451H52.3068L29.7884 5.25691C29.3086 4.94822 28.6925 4.94822 28.2127 5.25691Z" fill="#FFCA28"/>
<path d="M32.3209 29.5746C32.6303 29.5746 32.8812 29.3238 32.8812 29.0143V26.6858H33.4441C33.7534 26.6858 34.0043 26.435 34.0043 26.1255V23.0898H23.9961V26.1255C23.9961 26.4349 24.2469 26.6858 24.5564 26.6858H25.1193V29.0143C25.1193 29.3237 25.3701 29.5746 25.6796 29.5746H26.6516V48.4566H25.6796C25.3701 48.4566 25.1193 48.7074 25.1193 49.0169V51.3454H24.5564C24.247 51.3454 23.9961 51.5962 23.9961 51.9057V54.9414H34.0043V51.9057C34.0043 51.5963 33.7535 51.3454 33.4441 51.3454H32.8812V49.0169C32.8812 48.7076 32.6304 48.4566 32.3209 48.4566H31.3488V29.5746H32.3209Z" fill="#FFCA28"/>
<path d="M50.6236 29.5746C50.933 29.5746 51.1839 29.3238 51.1839 29.0143V26.6858H51.7468C52.0563 26.6858 52.3071 26.435 52.3071 26.1255V23.0898H42.2988V26.1255C42.2988 26.4349 42.5496 26.6858 42.8591 26.6858H43.422V29.0143C43.422 29.3237 43.6728 29.5746 43.9823 29.5746H44.9544V48.4566H43.9823C43.6729 48.4566 43.422 48.7074 43.422 49.0169V51.3454H42.8591C42.5497 51.3454 42.2988 51.5962 42.2988 51.9057V54.9414H52.3071V51.9057C52.3071 51.5963 52.0563 51.3454 51.7468 51.3454H51.1839V49.0169C51.1839 48.7076 50.9331 48.4566 50.6236 48.4566H49.6516V29.5746H50.6236Z" fill="#FFCA28"/>
<path d="M29 54.9403H34.0042V51.9046C34.0042 51.5952 33.7534 51.3443 33.4439 51.3443H32.881V49.0158C32.881 48.7065 32.6302 48.4556 32.3207 48.4556H31.3487V29.5736H32.3207C32.6301 29.5736 32.881 29.3228 32.881 29.0134V26.6849H33.4439C33.7533 26.6849 34.0042 26.4341 34.0042 26.1246V23.0889H29V54.9403Z" fill="#FFA000"/>
<path d="M47.3291 54.9403H52.3063V51.9046C52.3063 51.5952 52.0555 51.3443 51.746 51.3443H51.1831V49.0158C51.1831 48.7065 50.9323 48.4556 50.6229 48.4556H49.6508V29.5736H50.6229C50.9322 29.5736 51.1831 29.3228 51.1831 29.0134V26.6849H51.746C52.0555 26.6849 52.3063 26.4341 52.3063 26.1246V23.0889H47.3291V54.9403Z" fill="#FFA000"/>
<path d="M55.2893 58.0002H2.71057C1.73998 58.0002 0.953125 57.2134 0.953125 56.2428C0.953125 55.2722 1.73998 54.4854 2.71057 54.4854H55.2893C56.2599 54.4854 57.0467 55.2722 57.0467 56.2428C57.0467 57.2134 56.2599 58.0002 55.2893 58.0002Z" fill="#FF6D3A"/>
<path d="M55.2893 58.0002H2.71057C1.73998 58.0002 0.953125 57.2134 0.953125 56.2428C0.953125 55.2722 1.73998 54.4854 2.71057 54.4854H55.2893C56.2599 54.4854 57.0467 55.2722 57.0467 56.2428C57.0467 57.2134 56.2599 58.0002 55.2893 58.0002Z" fill="#EF5350"/>
<path d="M55.2893 56.4058H2.71057C2.02714 56.4058 1.43627 56.015 1.14559 55.4453C1.02336 55.6848 0.953125 55.9551 0.953125 56.2424C0.953125 57.2129 1.73998 57.9998 2.71057 57.9998H55.2893C56.2599 57.9998 57.0467 57.2129 57.0467 56.2424C57.0467 55.9551 56.9764 55.6848 56.8543 55.4453C56.5636 56.015 55.9726 56.4058 55.2893 56.4058Z" fill="#D32F2F"/>
<path d="M52.3062 19.7451H5.69336V23.5455H52.3062V19.7451Z" fill="#EF5350"/>
<path d="M52.3062 21.6445H5.69336V23.5447H52.3062V21.6445Z" fill="#D32F2F"/>
<path d="M29.0576 19.745H52.3058L29.7875 5.25685C29.5645 5.11344 29.312 5.03743 29.0576 5.02734V19.745Z" fill="#FFA000"/>
<path d="M28.6003 17.621C27.0291 17.5956 25.9648 16.7467 25.9648 16.1258C25.9648 15.8216 26.2309 15.4035 26.5477 15.4035C26.9658 15.4035 27.3079 16.2905 28.6003 16.3917V13.4142C27.46 13.0087 26.1929 12.5525 26.1929 10.9307C26.1929 9.33422 27.3966 8.70064 28.6003 8.574V8.20651C28.6003 8.05449 28.7524 7.91504 28.9678 7.91504C29.1579 7.91504 29.3479 8.05437 29.3479 8.20651V8.54862C30.2095 8.57399 31.4259 8.84009 31.4259 9.46087C31.4259 9.70159 31.2485 10.183 30.8683 10.183C30.5643 10.183 30.2349 9.77761 29.3479 9.71428V12.2864C30.4502 12.6919 31.6539 13.2494 31.6539 14.9727C31.6539 16.5312 30.7163 17.3928 29.3479 17.5828V18.0136C29.3479 18.1656 29.1578 18.3051 28.9678 18.3051C28.7524 18.3051 28.6003 18.1657 28.6003 18.0136V17.621ZM28.6765 12.0458V9.73977C27.9669 9.82847 27.46 10.1452 27.46 10.804C27.46 11.5263 28.0048 11.7924 28.6765 12.0458ZM29.272 13.6931V16.3666C29.9562 16.24 30.387 15.8344 30.387 15.1122C30.3869 14.3138 29.8928 13.959 29.272 13.6931Z" fill="#DD7219"/>
</g>
<defs>
<clipPath id="clip0">
<rect width="58" height="58" fill="white"/>
</clipPath>
</defs>
</svg>
