<svg width="58" height="58" viewBox="0 0 58 58" fill="none" xmlns="http://www.w3.org/2000/svg">
<g clip-path="url(#clip0)">
<path d="M51.2266 15.4471C51.204 16.4671 51.7589 17.3592 52.5868 17.8198L49.3552 28.6705C48.5127 31.4994 44.4797 31.4215 43.7478 28.5621L42.5699 23.9618C43.5553 23.4932 44.2058 22.4338 44.0615 21.2413C43.916 20.0385 42.9416 19.0757 41.7375 18.9425C40.1414 18.7659 38.7904 20.0111 38.7904 21.5714C38.7904 22.6263 39.4086 23.537 40.302 23.9618L39.1785 28.3506C38.4422 31.2255 34.3791 31.283 33.5622 28.4302L30.8802 19.0673C32.1617 18.3893 33.0334 17.0406 33.0259 15.4883C33.0157 13.2315 31.2015 11.4513 28.9451 11.4818C26.7472 11.5115 24.975 13.3023 24.975 15.5073C24.975 17.0516 25.8449 18.392 27.1207 19.0673L24.4391 28.4302C23.6218 31.283 19.5592 31.2255 18.8228 28.3506L17.6989 23.9618C18.6848 23.4932 19.3348 22.4338 19.1906 21.2413C19.0454 20.0385 18.071 19.0757 16.8665 18.9425C15.2708 18.7659 13.9199 20.0111 13.9199 21.5714C13.9199 22.6263 14.5376 23.537 15.4315 23.9618L14.2535 28.5621C13.5216 31.4215 9.48819 31.4994 8.6461 28.6705L5.41449 17.8198C6.24242 17.3587 6.79732 16.4671 6.77475 15.4471C6.74245 13.9997 5.51582 12.862 4.0675 12.862C3.63562 12.862 3.28516 13.2125 3.28516 13.6444V47.6243H54.7162V13.6444C54.7162 13.2125 54.3661 12.862 53.9338 12.862C52.4855 12.862 51.2589 13.9997 51.2266 15.4471Z" fill="#FFCA28"/>
<path d="M53.9333 12.8623C52.485 12.8623 51.2583 14 51.226 15.4474C51.2035 16.4674 51.7579 17.3595 52.5859 17.8201L50.1844 25.8852V37.9063C50.1844 42.0225 46.8479 45.359 42.7317 45.359H3.28418V47.6246H54.7156V13.6447C54.7156 13.2128 54.3652 12.8623 53.9333 12.8623Z" fill="#FFA000"/>
<path d="M30.6507 15.508C30.6507 16.4195 29.9117 17.1585 29.0002 17.1585C28.0886 17.1585 27.3496 16.4195 27.3496 15.508C27.3496 14.5964 28.0886 13.8574 29.0002 13.8574C29.9117 13.8574 30.6507 14.5964 30.6507 15.508Z" fill="#EF5350"/>
<path d="M29 31.8896L34.518 37.4077L29 42.9253L23.4824 37.4077L29 31.8896Z" fill="#EF5350"/>
<path d="M29.0005 31.8906L23.4824 37.4082H29.0005V31.8906Z" fill="#D32F2F"/>
<path d="M29 37.4092V42.9272L34.518 37.4092H29Z" fill="#D32F2F"/>
<path d="M3.28418 42.9263V31.8906L8.80221 37.4082L3.28418 42.9263Z" fill="#EF5350"/>
<path d="M3.28418 37.4092H8.80221L3.28418 42.9272V37.4092Z" fill="#D32F2F"/>
<path d="M54.7153 42.9263V31.8906L49.1973 37.4082L54.7153 42.9263Z" fill="#EF5350"/>
<path d="M54.7153 37.4092H49.1973L54.7153 42.9272V37.4092Z" fill="#D32F2F"/>
<path d="M54.7764 47.625H3.22365C1.44611 47.625 0 49.0711 0 50.8486C0 52.6262 1.44611 54.0723 3.22365 54.0723H54.7764C56.5539 54.0723 58 52.6262 58 50.8486C58 49.0711 56.5539 47.625 54.7764 47.625Z" fill="#FFCA28"/>
<path d="M54.7767 47.625H53.324C53.4182 47.9277 53.4691 48.2494 53.4691 48.583C53.4691 50.3606 52.023 51.8067 50.2455 51.8067H0.145508C0.554825 53.1178 1.78012 54.0723 3.22401 54.0723H54.7767C56.5543 54.0723 58.0004 52.6262 58.0004 50.8486C58.0004 49.0711 56.5543 47.625 54.7767 47.625Z" fill="#FFA000"/>
<path d="M18.5937 37.4091C18.5937 38.6999 17.5476 39.746 16.2568 39.746C14.966 39.746 13.9199 38.6999 13.9199 37.4091C13.9199 36.1183 14.966 35.0723 16.2568 35.0723C17.5476 35.0723 18.5937 36.1183 18.5937 37.4091Z" fill="#66BB6A"/>
<path d="M44.08 37.4091C44.08 38.6999 43.0339 39.746 41.7431 39.746C40.4523 39.746 39.4062 38.6999 39.4062 37.4091C39.4062 36.1183 40.4523 35.0723 41.7431 35.0723C43.0339 35.0723 44.08 36.1183 44.08 37.4091Z" fill="#66BB6A"/>
<path d="M13.2991 12.9551H11.6162C11.1472 12.9551 10.7666 12.575 10.7666 12.1055C10.7666 11.6364 11.1472 11.2559 11.6162 11.2559H13.2991C13.7686 11.2559 14.1487 11.6364 14.1487 12.1055C14.1487 12.575 13.7686 12.9551 13.2991 12.9551Z" fill="#FFCA28"/>
<path d="M18.3806 12.9551H16.6973C16.2282 12.9551 15.8477 12.575 15.8477 12.1055C15.8477 11.6364 16.2282 11.2559 16.6973 11.2559H18.3806C18.8496 11.2559 19.2302 11.6364 19.2302 12.1055C19.2302 12.575 18.8496 12.9551 18.3806 12.9551Z" fill="#FFCA28"/>
<path d="M14.998 11.2551C14.529 11.2551 14.1484 10.875 14.1484 10.4055V8.72266C14.1484 8.25316 14.529 7.87305 14.998 7.87305C15.4675 7.87305 15.8477 8.25316 15.8477 8.72266V10.4055C15.8477 10.875 15.4675 11.2551 14.998 11.2551Z" fill="#FFCA28"/>
<path d="M14.998 16.3376C14.529 16.3376 14.1484 15.957 14.1484 15.488V13.918C14.1484 13.4489 14.529 13.0684 14.998 13.0684C15.4675 13.0684 15.8477 13.4489 15.8477 13.918V15.488C15.8477 15.957 15.4675 16.3376 14.998 16.3376Z" fill="#FFCA28"/>
<path d="M24.5554 8.43945H23.335C22.8659 8.43945 22.4854 8.0589 22.4854 7.58984C22.4854 7.12035 22.8659 6.74023 23.335 6.74023H24.5554C25.0244 6.74023 25.405 7.12035 25.405 7.58984C25.405 8.0589 25.0244 8.43945 24.5554 8.43945Z" fill="#FFCA28"/>
<path d="M20.2229 8.43945H19.0029C18.5334 8.43945 18.1533 8.0589 18.1533 7.58984C18.1533 7.12035 18.5334 6.74023 19.0029 6.74023H20.2229C20.6924 6.74023 21.0725 7.12035 21.0725 7.58984C21.0725 8.0589 20.6924 8.43945 20.2229 8.43945Z" fill="#FFCA28"/>
<path d="M21.7793 6.88405C21.3098 6.88405 20.9297 6.50394 20.9297 6.03444V4.81445C20.9297 4.3454 21.3098 3.96484 21.7793 3.96484C22.2484 3.96484 22.6289 4.3454 22.6289 4.81445V6.03444C22.6289 6.50394 22.2484 6.88405 21.7793 6.88405Z" fill="#FFCA28"/>
<path d="M21.7793 11.2155C21.3098 11.2155 20.9297 10.8349 20.9297 10.3659V9.23437C20.9297 8.76488 21.3098 8.38477 21.7793 8.38477C22.2484 8.38477 22.6289 8.76488 22.6289 9.23437V10.3659C22.6289 10.8349 22.2484 11.2155 21.7793 11.2155Z" fill="#FFCA28"/>
</g>
<defs>
<clipPath id="clip0">
<rect width="58" height="58" fill="white"/>
</clipPath>
</defs>
</svg>
