<svg width="58" height="58" viewBox="0 0 58 58" fill="none" xmlns="http://www.w3.org/2000/svg">
<g clip-path="url(#clip0)">
<path d="M20 0C17.7909 0 16 1.79086 16 4V13H21V5H37V13H42V4C42 1.79086 40.2091 0 38 0H20Z" fill="#CF976A"/>
<path d="M16 9V13H7V9C7.00329 7.8968 7.8968 7.00329 9 7H14C15.1032 7.00329 15.9967 7.8968 16 9Z" fill="#BDC3C7"/>
<path d="M44 7H49C50.1046 7 51 7.89543 51 9V13H42V9C42 7.89543 42.8954 7 44 7Z" fill="#BDC3C7"/>
<path d="M51.001 47L57.001 41V17L51.001 11H7.00098L1.00098 17V41L7.00098 47H51.001Z" fill="#A56A43"/>
<path d="M29.0005 15V58.04C28.8781 58.0398 28.7577 58.0089 28.6504 57.95C27.2505 57.21 24.6904 55.73 23.5905 55C18.5404 51.65 14.0204 46.68 12.1404 40.78C10.7064 36.307 11.0004 34.314 11.0004 21.75C11.0007 21.5245 11.1018 21.311 11.2759 21.1678C11.4501 21.0246 11.6792 20.9667 11.9004 21.01C20.3104 22.95 26.6504 17.06 28.4704 15.23C28.6095 15.0859 28.8002 15.0031 29.0005 15Z" fill="#F3D55B"/>
<path d="M47 21.75C47 34.318 47.294 36.307 45.86 40.78C43.98 46.68 39.46 51.65 34.41 55C33.31 55.73 30.75 57.21 29.35 57.95C29.2427 58.0089 29.1224 58.0398 29 58.04V15C29.2002 15.0031 29.3909 15.0859 29.53 15.23C31.35 17.06 37.69 22.95 46.1 21.01C46.3213 20.9667 46.5503 21.0246 46.7245 21.1678C46.8987 21.311 46.9997 21.5245 47 21.75Z" fill="#F0C419"/>
<path d="M5 23C4.44771 23 4 22.5523 4 22V21C4 20.4477 4.44771 20 5 20C5.55228 20 6 20.4477 6 21V22C6 22.5523 5.55228 23 5 23Z" fill="#CF976A"/>
<path d="M5 38C4.44771 38 4 37.5523 4 37V26C4 25.4477 4.44771 25 5 25C5.55228 25 6 25.4477 6 26V37C6 37.5523 5.55228 38 5 38Z" fill="#CF976A"/>
<path d="M7 43.001V47.001C7 47.5533 6.55228 48.001 6 48.001H3C1.34315 48.001 0 46.6578 0 45.001V42.001C0 41.4487 0.447715 41.001 1 41.001H5C6.1032 41.0043 6.99671 41.8978 7 43.001Z" fill="#F3D55B"/>
<path d="M58 42.001V45.001C58 46.6578 56.6569 48.001 55 48.001H52C51.4477 48.001 51 47.5533 51 47.001V43.001C51.0033 41.8978 51.8968 41.0043 53 41.001H57C57.5523 41.001 58 41.4487 58 42.001Z" fill="#F3D55B"/>
<path d="M7 11.001V15.001C6.99671 16.1042 6.1032 16.9977 5 17.001H1C0.447715 17.001 0 16.5533 0 16.001V13.001C0 11.3441 1.34315 10.001 3 10.001H6C6.55228 10.001 7 10.4487 7 11.001Z" fill="#F3D55B"/>
<path d="M58 13.001V16.001C58 16.5533 57.5523 17.001 57 17.001H53C51.8968 16.9977 51.0033 16.1042 51 15.001V11.001C51 10.4487 51.4477 10.001 52 10.001H55C56.6569 10.001 58 11.3441 58 13.001Z" fill="#F3D55B"/>
<path d="M28.9951 47.0059C35.0702 47.0059 39.9951 42.081 39.9951 36.0059C39.9951 29.9307 35.0702 25.0059 28.9951 25.0059C22.92 25.0059 17.9951 29.9307 17.9951 36.0059C17.9951 42.081 22.92 47.0059 28.9951 47.0059Z" fill="#F29C1F"/>
<path d="M29.0003 43.0049C24.1333 43.0049 22.8483 38.0049 25.0003 38.0049C25.5526 38.0049 26.0003 38.4526 26.0003 39.0049C26.0003 40.0889 27.3743 41.0049 29.0003 41.0049C30.6263 41.0049 32.0003 40.0889 32.0003 39.0049C32.0003 37.9209 30.6263 37.0049 29.0003 37.0049C26.2433 37.0049 24.0003 35.2109 24.0003 33.0049C24.0003 30.7989 26.2433 29.0049 29.0003 29.0049C33.8673 29.0049 35.1513 34.0049 33.0003 34.0049C32.448 34.0049 32.0003 33.5572 32.0003 33.0049C32.0003 31.9209 30.6263 31.0049 29.0003 31.0049C27.3743 31.0049 26.0003 31.9209 26.0003 33.0049C26.0003 34.0889 27.3743 35.0049 29.0003 35.0049C31.7563 35.0049 34.0003 36.7999 34.0003 39.0049C34.0003 41.2099 31.7513 43.0049 29.0003 43.0049Z" fill="#F9EAB0"/>
<path d="M28.999 44.0049C28.4467 44.0049 27.999 43.5572 27.999 43.0049V29.0049C27.999 28.4526 28.4467 28.0049 28.999 28.0049C29.5513 28.0049 29.999 28.4526 29.999 29.0049V43.0049C29.999 43.5572 29.5513 44.0049 28.999 44.0049Z" fill="#F9EAB0"/>
</g>
<defs>
<clipPath id="clip0">
<rect width="58" height="58" fill="white"/>
</clipPath>
</defs>
</svg>
