<svg width="58" height="58" viewBox="0 0 58 58" fill="none" xmlns="http://www.w3.org/2000/svg">
<g clip-path="url(#clip0)">
<path d="M53.1851 7.021L42.6734 10.4066C44.0899 15.3065 44.9032 21.4374 44.9032 27.1293C44.9032 35.9126 37.7833 43.0325 29 43.0325C20.2167 43.0325 13.0968 35.9126 13.0968 27.1293C13.0968 21.3927 13.923 15.2184 15.3602 10.2907L4.81445 7.02188C1.77223 14.463 0 22.4339 0 29.0002C0 45.0162 12.9835 58.0002 29 58.0002C45.0165 58.0002 58 45.0167 58 29.0002C58 22.4334 56.2278 14.4626 53.1851 7.021V7.021ZM6.32384 17.3066C6.57651 16.3052 7.59604 15.7069 8.59698 15.9596C9.59793 16.2211 10.1966 17.2406 9.94397 18.242C9.72891 19.0841 8.97134 19.6452 8.12926 19.6452C7.97969 19.6452 7.82039 19.6266 7.66153 19.589C6.66988 19.3271 6.06187 18.3075 6.32384 17.3066ZM4.81755 25.904C4.90163 24.8747 5.8092 24.1079 6.83847 24.192C7.86729 24.276 8.6346 25.1836 8.54079 26.2124C8.45671 27.1948 7.64294 27.924 6.67917 27.924C6.63271 27.924 6.57651 27.924 6.52031 27.924C5.49104 27.84 4.72418 26.9328 4.81755 25.904ZM7.66153 36.2316C7.51152 36.2692 7.35266 36.2878 7.20309 36.2878C6.37074 36.2878 5.60344 35.717 5.39767 34.8656C5.14545 33.8647 5.75301 32.854 6.75395 32.6018C7.75534 32.3491 8.77487 32.9664 9.02754 33.9678C9.27048 34.9687 8.66248 35.979 7.66153 36.2316V36.2316ZM11.8056 43.5378C11.4688 43.7715 11.0949 43.8834 10.7206 43.8834C10.1307 43.8834 9.56032 43.6122 9.19525 43.1068C8.59698 42.2652 8.78372 41.0956 9.62625 40.4974C10.4679 39.8889 11.6374 40.0854 12.2357 40.9275C12.8349 41.7696 12.6477 42.9387 11.8056 43.5378ZM49.403 15.9596C50.4044 15.7069 51.4239 16.3052 51.6766 17.3066C51.9381 18.3075 51.3301 19.3271 50.3385 19.589C50.1796 19.6266 50.0208 19.6452 49.8707 19.6452C49.0291 19.6452 48.2711 19.0841 48.056 18.242C47.8034 17.2411 48.4021 16.2216 49.403 15.9596ZM48.8043 43.1068C48.4397 43.6122 47.8689 43.8834 47.2794 43.8834C46.9051 43.8834 46.5312 43.7715 46.1944 43.5378C45.3523 42.9391 45.1651 41.7696 45.7643 40.9279C46.3626 40.0854 47.5321 39.8889 48.3737 40.4974C49.2163 41.0956 49.403 42.2652 48.8043 43.1068V43.1068ZM52.6023 34.8656C52.3966 35.7166 51.6293 36.2878 50.7973 36.2878C50.6473 36.2878 50.4885 36.2688 50.3385 36.2316C49.3375 35.979 48.73 34.9683 48.9729 33.9678C49.2256 32.9664 50.2451 32.3486 51.2465 32.6013C52.247 32.854 52.8546 33.8647 52.6023 34.8656V34.8656ZM51.4797 27.924C51.4235 27.924 51.3673 27.924 51.3208 27.924C50.3571 27.924 49.5433 27.1944 49.4592 26.2124C49.3654 25.1832 50.1331 24.2756 51.1615 24.1915C52.1908 24.1074 53.0984 24.8747 53.1824 25.9036C53.2758 26.9328 52.509 27.84 51.4797 27.924Z" fill="#FFE07D"/>
<path d="M42.6731 10.4066C44.0895 15.3065 44.9028 21.4374 44.9028 27.1293C44.9028 35.5373 38.3732 42.4214 30.1104 42.9935C30.479 43.0192 30.8462 43.0325 31.2215 43.0325C40.0043 43.0325 47.1247 35.9126 47.1247 27.1293C47.1247 22.9401 46.6835 18.5133 45.8861 14.5144C45.625 13.2032 46.3242 11.8961 47.5588 11.3837L53.8578 8.72995C53.6419 8.15823 53.4166 7.5874 53.1848 7.021L42.6731 10.4066Z" fill="#FFD064"/>
<path d="M2.22182 28.9998C2.22182 24.0088 3.26082 18.2102 5.09367 12.4475C5.59016 10.8854 7.33054 10.092 8.84435 10.7204L13.1203 12.4957C13.6261 12.7059 14.1619 12.8015 14.7093 12.7794C14.9084 11.928 15.1288 11.0837 15.3602 10.2903L4.81445 7.02148C1.77223 14.4626 0 22.4335 0 28.9998C0 45.0163 12.9835 57.9998 29 57.9998C29.3726 57.9998 29.7416 57.9857 30.1107 57.9719C14.6102 57.3869 2.22182 44.6437 2.22182 28.9998V28.9998Z" fill="#FFD064"/>
<path d="M13.8377 10.768L4.89604 7.05535C3.942 6.65887 3.48932 5.56411 3.88581 4.61007L5.32041 1.15411C5.71689 0.199625 6.81165 -0.252615 7.76613 0.143427L16.7078 3.85648C17.6619 4.25253 18.1146 5.34773 17.7181 6.30177L16.283 9.75773C15.887 10.7118 14.7922 11.1645 13.8377 10.768Z" fill="#FFE07D"/>
<path d="M54.1146 4.61007L52.68 1.15411C52.2835 0.199625 51.1887 -0.252615 50.2342 0.143427L41.2925 3.85648C40.3385 4.25253 39.8858 5.34773 40.2823 6.30177L41.7173 9.75773C42.1134 10.7118 43.2081 11.1645 44.1626 10.768L53.1043 7.05535C54.0584 6.65887 54.511 5.56411 54.1146 4.61007V4.61007Z" fill="#FFE07D"/>
<path d="M16.7085 3.85626L9.03188 0.668457L8.04553 3.04427C7.45081 4.47577 8.12961 6.1179 9.56111 6.71219L16.3735 9.54112L17.7187 6.30154C18.1152 5.3475 17.6625 4.2523 16.7085 3.85626Z" fill="#FFEAA8"/>
<path d="M52.6796 1.15411C52.2831 0.199625 51.1883 -0.252615 50.2339 0.143427L43.1299 3.09316L44.106 5.44419C44.7003 6.87525 46.3425 7.55406 47.774 6.95977L54.0142 4.36891L52.6796 1.15411Z" fill="#FFEAA8"/>
<path d="M41.7689 51.9233C41.1361 50.5577 39.5347 49.9241 38.151 50.5157C35.3389 51.7184 32.2467 52.3871 28.9996 52.3871C25.7525 52.3871 22.6602 51.7184 19.8481 50.5157C18.464 49.9241 16.863 50.5577 16.2302 51.9233L15.0664 54.4363C19.2016 56.7064 23.9492 57.9998 28.9996 57.9998C34.0503 57.9998 38.7988 56.709 42.934 54.439L41.7689 51.9233Z" fill="#FFD064"/>
<path d="M30.0451 57.9809C24.7222 57.7659 19.7555 56.1047 15.5478 53.3975L15.0654 54.4391C19.2006 56.7092 23.9496 58 28.9999 58C29.3468 58 29.7013 57.9929 30.0451 57.9809Z" fill="#FFC250"/>
</g>
<defs>
<clipPath id="clip0">
<rect width="58" height="58" fill="white"/>
</clipPath>
</defs>
</svg>
