<svg width="12" height="12" viewBox="0 0 12 12" fill="none" xmlns="http://www.w3.org/2000/svg">
<path d="M12 0.747355C12 0.384218 11.7056 0.0898438 11.3425 0.0898438H0.657563C0.522165 0.0898438 0.390034 0.131668 0.279293 0.209554C-0.0177317 0.418461 -0.0891447 0.82863 0.119762 1.12566L3.99385 6.63348L4.00473 10.6405C4.0054 10.8906 4.07978 11.135 4.2185 11.3431C4.60845 11.9281 5.39877 12.0861 5.98373 11.6962L7.36742 10.7737C7.73506 10.5286 7.95506 10.1152 7.953 9.67342L7.93894 6.65771L11.878 1.12889C11.9574 1.01747 12 0.884109 12 0.747355ZM6.62198 6.23987L6.63801 9.67949L5.31959 10.5585L5.30779 6.2157L1.92395 1.40487H10.0667L6.62198 6.23987Z" fill="#A6B1BA"/>
</svg>
