<?xml version="1.0" standalone="no"?>
<!DOCTYPE svg PUBLIC "-//W3C//DTD SVG 1.1//EN" "http://www.w3.org/Graphics/SVG/1.1/DTD/svg11.dtd" >
<svg xmlns="http://www.w3.org/2000/svg">
<metadata>Generated by IcoMoon</metadata>
<defs>
<font id="inventoryicons" horiz-adv-x="1024">
<font-face units-per-em="1024" ascent="960" descent="-64" />
<missing-glyph horiz-adv-x="1024" />
<glyph unicode="&#x20;" horiz-adv-x="512" d="" />
<glyph unicode="&#xe900;" glyph-name="delivery-box" d="M687.787 877.696l-464.683-237.909-184.704 90.88 456.491 225.408c10.24 5.205 22.528 5.205 33.28 0zM985.088 730.667l-472.832-234.24-177.067 87.253-25.6 13.013 465.195 237.867 25.6-12.971zM474.368 428.928l-0.512-492.928-452.864 236.331c-12.8 6.741-20.992 20.267-20.992 34.816v456.021l191.915-94.549v-166.229c0-21.291 17.408-38.955 38.4-38.955s38.4 17.664 38.4 38.955v127.787l25.6-12.459zM1023.488 662.656l-472.32-233.216-0.512-492.928 473.344 247.168z" />
<glyph unicode="&#xe901;" glyph-name="box" d="M1018.958 434.618l-110.907 163.359 110.907 163.359c5.184 7.792 6.444 17.518 3.426 26.366-3.046 8.848-10.020 15.792-18.896 18.72l-361.997 119.999c-12.95 4.366-26.954-0.556-34.454-11.806l-95.039-142.557-95.039 142.557c-7.558 11.308-21.68 16.202-34.454 11.806l-361.997-119.999c-8.876-2.93-15.85-9.874-18.896-18.72-3.018-8.848-1.758-18.574 3.428-26.368l110.907-163.359-110.905-163.357c-5.186-7.792-6.446-17.52-3.428-26.368 3.046-8.848 10.020-15.792 18.896-18.72l361.997-119.999c12.74-4.284 26.912 0.498 34.454 11.806l95.039 142.557 95.039-142.557c7.548-11.32 21.728-16.088 34.454-11.806l361.997 119.999c8.876 2.93 15.85 9.874 18.896 18.72 3.018 8.848 1.758 18.574-3.428 26.368zM512 509.588l-265.164 88.387 265.164 88.387 265.164-88.387-265.164-88.387zM660.475 212.608c-37.76-12.668-80.451 1.070-103.359 35.45l-45.114 67.671-45.12-67.671c-22.862-34.314-65.503-48.178-103.505-35.39l-241.374 80.451v-175.139c0-12.92 8.262-24.376 20.508-28.448l359.821-119.941c1.084-0.38 2.168-0.674 3.252-0.908 0 0 0.030 0 0.030-0.030h0.030c2.11-0.44 4.248-0.674 6.358-0.674 2.256 0 4.482 0.264 6.708 0.762 0.996 0.234 1.962 0.498 2.93 0.82l359.851 119.969c12.244 4.074 20.506 15.53 20.506 28.45v175.135l-241.522-80.507z" />
<glyph unicode="&#xe902;" glyph-name="drop" d="M683.836 413.639l340.164-198.409-145.218-41.521 103.8-179.801-84.603-48.848-103.8 179.757-108.584-105.023-1.758 393.845zM586.147 755.558h97.689v-97.692h244.234c12.954 0 25.373-5.146 34.539-14.307 9.159-9.16 14.302-21.584 14.302-34.539v-195.383h-97.689v146.537h-488.457v-488.457h195.383v-97.689h-244.229c-12.955 0-25.378 5.144-34.539 14.302-9.161 9.165-14.307 21.584-14.307 34.539v244.234h-97.692v97.689h97.692v244.229c0 12.955 5.146 25.378 14.307 34.539s21.584 14.307 34.539 14.307h244.229v97.692zM97.691 364.793v-97.689h-97.691v97.689h97.691zM97.691 560.175v-97.691h-97.691v97.691h97.691zM97.691 755.558v-97.692h-97.691v97.692h97.691zM97.691 950.94v-97.691h-97.691v97.691h97.691zM293.074 950.94v-97.691h-97.692v97.691h97.692zM488.455 950.94v-97.691h-97.691v97.691h97.691zM683.836 950.94v-97.691h-97.689v97.691h97.689z" />
<glyph unicode="&#xe903;" glyph-name="near" d="M102.399 908.798h819.198l102.403-204.799v-665.602c0-13.578-5.398-26.594-15-36.197s-22.627-15-36.205-15h-921.595c-13.579 0-26.603 5.398-36.204 15s-14.996 22.619-14.996 36.197v665.396l102.401 205.005zM921.596 601.599h-819.198v-511.996h819.198v511.996zM909.51 703.999l-51.197 102.399h-692.581l-51.199-102.399h794.978zM563.198 345.598h153.6l-204.799-204.799-204.8 204.799h153.6v204.8h102.401v-204.8z" />
<glyph unicode="&#xe904;" glyph-name="open-box" d="M347.972 221.876l165.987-105.799 165.985 105.749 91.017-57.992-257.001-163.732-257.005 163.732 91.018 58.042zM305.056 627.053l117.1 75.995-118.665 77.024-120.232-74.234 121.799-78.784zM395.096 568.82l117.002-75.799 116.954 75.701-116.954 75.996-117.002-75.897zM602.137 434.74l118.617-76.73 119.89 73.5-121.603 78.882-116.905-75.652zM512.098 761.426l207.335 134.472 304.523-188.103-214.92-139.122 214.963-139.463-304.662-186.881-207.238 134.178-207.238-134.080-304.861 186.782 215.116 139.511-214.92 139.072 304.569 188.055 207.335-134.424zM601.99 703.097l117.101-76.044 121.798 78.784-120.183 74.234-118.716-76.973zM422.058 434.74l-116.954 75.652-121.652-78.932 119.938-73.499 118.667 76.778z" />
<glyph unicode="&#xe905;" glyph-name="razdel" d="M388.92 398.049h-110.242c-20.58-58.243-76.075-99.902-141.312-99.902-82.769 0-149.853 67.084-149.853 149.853s67.084 149.853 149.853 149.853c65.237 0 120.782-41.71 141.362-99.902h110.191l173.031 299.706h158.345c20.583 58.192 76.125 99.902 141.364 99.902 82.763 0 149.853-67.084 149.853-149.853s-67.090-149.853-149.853-149.853c-65.239 0-120.737 41.659-141.312 99.902h-100.754l-144.159-249.705 144.209-249.803h100.704c20.53 58.188 76.073 99.899 141.312 99.899 82.763 0 149.853-67.082 149.853-149.853s-67.090-149.853-149.853-149.853c-65.239 0-120.737 41.659-141.312 99.899h-158.397l-173.031 299.709zM861.66 198.247c-27.573 0-49.954-22.381-49.954-49.954s22.381-49.954 49.954-49.954c27.573 0 49.946 22.381 49.946 49.954s-22.373 49.954-49.946 49.954zM137.367 497.951c-27.573 0-49.951-22.378-49.951-49.951s22.378-49.951 49.951-49.951c27.573 0 49.951 22.378 49.951 49.951s-22.378 49.951-49.951 49.951zM861.66 797.658c-27.573 0-49.954-22.378-49.954-49.951s22.381-49.951 49.954-49.951c27.573 0 49.946 22.378 49.946 49.951s-22.373 49.951-49.946 49.951z" />
<glyph unicode="&#xe906;" glyph-name="top" d="M512 920.615l511.622-886.154h-1023.243l511.621 886.154z" />
<glyph unicode="&#xe907;" glyph-name="user" d="M129.536 875.008l382.465 84.992 382.46-84.992c10.341-2.299 19.581-8.051 26.211-16.31 6.623-8.258 10.237-18.53 10.237-29.119v-464.85c0-45.974-11.354-91.237-33.050-131.771-21.696-40.537-53.062-75.087-91.322-100.581l-294.537-196.377-294.539 196.377c-38.247 25.493-69.611 60.036-91.306 100.56s-33.052 85.778-33.063 131.745v464.896c0.001 10.588 3.614 20.86 10.239 29.119s15.869 14.013 26.206 16.31zM186.183 792.25v-427.521c0-30.648 7.567-60.823 22.029-87.845s35.368-50.056 60.868-67.059l242.922-161.98 242.92 161.98c25.493 16.999 46.4 40.024 60.858 67.039 14.467 27.014 22.031 57.178 22.039 87.818v427.567l-325.816 72.332-325.818-72.332zM512.001 494.545c-30.861 0-60.459 12.26-82.282 34.082s-34.082 51.42-34.082 82.281c0 30.862 12.26 60.459 34.082 82.282s51.42 34.082 82.282 34.082c30.861 0 60.459-12.26 82.282-34.082s34.082-51.42 34.082-82.282c0-30.861-12.26-60.458-34.082-82.281s-51.42-34.082-82.282-34.082zM303.803 261.816c5.642 51.275 30.008 98.664 68.426 133.087s88.188 53.458 139.772 53.458c51.584 0 101.354-19.035 139.772-53.458s62.784-81.813 68.426-133.087h-416.396z" />
<glyph unicode="&#xe908;" glyph-name="folder" d="M1012.594 584.083c-12.237 17.246-32.853 27.139-56.566 27.139h-90.254v98.152c0 37.826-30.773 68.599-68.599 68.599h-316.377c-13.46 0-34.466 10.664-42.405 21.529l-23.68 32.39c-18.473 25.267-56.006 44.326-87.309 44.326h-109.628c-34.459 0-69.114-24.503-80.605-57l-7.538-21.329c-3.552-10.049-17.506-19.916-28.166-19.916h-32.868c-37.826 0-68.599-30.773-68.599-68.599v-619.502c0-3.282 0.597-6.415 1.643-9.341 0.564-12.259 4.375-23.82 11.321-33.61 12.237-17.25 32.853-27.139 56.566-27.139h698.913c42.253 0 86.286 31.236 100.247 71.116l150.832 430.829c7.831 22.378 5.31 45.105-6.927 62.354zM68.599 722.352h32.868c34.466 0 69.118 24.503 80.605 57l7.535 21.321c3.556 10.052 17.509 19.92 28.17 19.92h109.624c13.46 0 34.466-10.664 42.409-21.529l23.68-32.386c18.473-25.27 56.006-44.326 87.309-44.326h316.377c7.038 0 12.978-5.944 12.978-12.978v-98.152h-553.039c-42.253 0-86.286-31.236-100.247-71.116l-101.248-289.201v458.469c0 7.034 5.944 12.978 12.978 12.978zM967.022 540.105l-150.832-430.829c-6.207-17.728-28.967-33.873-47.748-33.873h-698.913c-5.369 0-9.556 1.383-11.198 3.701s-1.568 6.726 0.208 11.795l150.832 430.829c6.207 17.728 28.967 33.873 47.748 33.873h698.913c5.369 0 9.556-1.383 11.202-3.701 1.639-2.318 1.565-6.726-0.211-11.795z" />
<glyph unicode="&#xe909;" glyph-name="maintenance" d="M869.486 502.767l-8.836 0.008v56.298c0 43.746 17.332 85.565 40.368 111.355 30.752 34.402 47.688 78.783 47.688 124.967 0 64.032-33.274 125.033-86.837 159.199-22.844 14.57-52.834-2.042-52.834-29.122v-118.181c0-26.426-21.498-47.924-47.924-47.924s-47.926 21.498-47.926 47.924v118.179c0 27.144-30.050 43.66-52.834 29.122-53.564-34.164-86.837-95.165-86.837-159.199 0-46.184 16.936-90.565 47.682-124.957 19.756-22.154 36.222-57.722 39.646-95.743-41.504-3.764-77.955-22.414-101.633-52.48l-25.6-32.51c-12.814-16.274-32.046-25.608-52.762-25.608h-22.732c-0.854 31.536-26.756 56.932-58.492 56.932-27.056 0-49.874-18.458-56.55-43.44h-219.523c-26.61 0-48.256-21.648-48.256-48.256v-252.294c0-26.61 21.648-48.256 48.256-48.256h224.364c9.842-18.512 29.324-31.15 51.712-31.15 28.896 0 52.954 21.054 57.676 48.626h57.226c8.548 0 16.91-1.604 24.852-4.768 44.98-16.368 67.234-31.366 122.193-41.064v-64.886c0-54.886 44.654-99.539 99.539-99.539s99.537 44.654 99.537 99.539v86.789c7.236 10.93 10.822 23.816 10.19 37.25-0.57 12.118-4.844 23.63-11.894 33.236 22.954 8.61 39.32 30.472 39.354 56.016 0.022 18.158-6.678 34.296-17.788 45.908 15.964 10.928 26.746 28.81 27.418 48.974 0.496 14.84-4.364 28.802-12.87 39.908 21.69 9.772 36.822 31.57 36.822 56.832 0 34.364-27.996 62.316-62.396 62.316zM428.159 156.169c0-15.734-12.8-28.534-28.534-28.534s-28.532 12.8-28.532 28.534v36.566c0 8.284-6.716 15-15 15s-15-6.716-15-15v-33.952h-217.543c-10.066 0-18.256 8.19-18.256 18.256v252.294c0 10.066 8.19 18.256 18.256 18.256h217.543v-184.685c0-8.284 6.716-15 15-15s15 6.716 15 15v199.539c0 0.024 0 0.048 0 0.072 0.010 15.724 12.806 28.514 28.532 28.514 15.734 0 28.532-12.8 28.532-28.534v-306.326zM643.571 690.421c-25.83 28.896-40.056 66.176-40.056 104.973 0 53.888 27.96 105.197 72.97 133.905 2.9 1.852 6.702-0.36 6.702-3.83v-118.181c0-42.968 34.956-77.923 77.923-77.923s77.923 34.956 77.923 77.923v118.181c0 3.464 3.794 5.686 6.702 3.83 45.010-28.71 72.97-80.019 72.97-133.905 0-38.798-14.226-76.077-40.060-104.977-27.756-31.090-47.998-79.953-47.998-131.345v-56.274l-26.284 0.020v30.952c0 8.284-6.716 15-15 15s-15-6.716-15-15v-30.928l-26.512 0.022v111.757c0 7.31 5.948 13.256 13.256 13.256 7.31 0 13.256-5.946 13.256-13.256v-10.68c0-8.284 6.716-15 15-15s15 6.716 15 15v10.68c0 23.852-19.404 43.256-43.256 43.256s-43.256-19.404-43.256-43.256v-111.733l-11.006 0.008c-9.39 0-15.294 7.32-15.292 16.39 0.016 35.57 6.722 109.837-47.984 171.135zM830.65 35.546c0-38.344-31.196-69.54-69.54-69.54s-69.54 31.196-69.54 69.54v60.888c8.73-0.79 17.494-1.268 26.284-1.416v-55.076c0-23.852 19.406-43.256 43.256-43.256 23.852 0 43.256 19.404 43.256 43.256v54.376c1.738 0.12 13.102-1.014 26.284 3.958zM747.854 39.942v54.824l26.512-0.21v-54.614c0-7.31-5.946-13.256-13.256-13.256-7.308 0-13.256 5.946-13.256 13.256zM869.474 408.145h-18.466c-8.284 0-15-6.716-15-15v-0.308c0-7.634 5.734-14.050 13.32-14.906 16.608-1.872 29.178-16.46 28.618-33.216-0.574-17.198-15.616-31.192-33.54-31.192l-6.424-0.004c-8.282-0.004-14.992-6.772-14.992-15.052 0-8.058 6.366-14.676 14.418-14.988 17.924-0.696 30.916-15.25 30.892-34.608-0.022-16.526-13.948-29.97-31.042-29.97h-10.090c-9.38 0-17.012-7.63-17.012-17.010 0-6.864 4.1-13.020 10.446-15.68 11.926-5 19.694-15.746 20.272-28.040 0.872-18.532-13.894-33.892-32.154-33.892-80.995 1.224-96.807-0.834-130.345 3.854-0.11 0.014-0.218 0.034-0.33 0.044-58.512 8.238-86.271 26.42-127.563 41.182-11.49 4.576-23.586 6.898-35.954 6.898h-56.37v257.838h22.692c29.97 0 57.792 13.504 76.331 37.048l25.598 32.508c18.154 23.052 46.33 37.566 78.779 40.98v-25.346c-0.008-25.68 19.326-46.394 45.28-46.394 19.508-0.016 119.447-0.096 138.801-0.112l23.836-0.020c17.87 0 32.408-14.494 32.408-32.312-0.002-17.81-14.54-32.304-32.41-32.304z" />
<glyph unicode="&#xe90a;" glyph-name="hand" d="M993.571 567.992c-88.219 55.111-203.728 35.428-268.717-45.79l-28.932-36.124-148.922-59.588h-161.093l110.064 61.15c54.019 29.969 73.515 98.053 43.548 152.072-0.954 1.721-1.955 3.415-2.998 5.083-29.951 47.665-90.586 65.761-141.762 42.307l-153.315-70.783-92.197-92.197h-149.247v-65.088h176.194l103.067 103.067 142.771 65.869c23.599 10.585 51.31 0.033 61.895-23.566 9.877-22.024 1.397-47.95-19.587-59.877l-110.064-61.15c-31.417-17.468-42.726-57.097-25.258-88.516 11.488-20.666 33.28-33.474 56.924-33.459h173.558l176.519 70.588 39.671 49.532c35.75 44.787 95.22 63.209 150.028 46.473l-133.431-173.362-181.629-90.863h-350.305v-65.088h365.665l208.803 104.401 189.179 245.903-30.429 19.006zM130.176 263.77h65.088v-65.088h-65.088v65.088zM0 263.77h65.088v-65.088h-65.088v65.088z" />
<glyph unicode="&#xe90b;" glyph-name="backpack" d="M256.007 806.385v153.6c0 13.579 5.394 26.602 14.996 36.204s22.625 14.996 36.204 14.996h409.6c13.578 0 26.602-5.394 36.203-14.996s14.996-22.625 14.996-36.204v-153.6h204.801c13.578 0 26.604-5.394 36.205-14.995s14.992-22.625 14.992-36.204v-716.796c0-13.578-5.389-26.604-14.992-36.205s-22.627-15-36.205-15h-921.599c-13.579 0-26.602 5.398-36.204 15s-14.995 22.627-14.995 36.205v716.796c0 13.579 5.394 26.602 14.995 36.204s22.625 14.995 36.204 14.995h204.799zM102.407 243.186v-153.6h819.194v153.6h-819.194zM102.407 345.586h819.194v358.398h-819.194v-358.398zM358.408 908.785v-102.401h307.199v102.401h-307.199zM460.807 499.186h102.401v-102.401h-102.401v102.401z" />
<glyph unicode="&#xe90c;" glyph-name="bottom" d="M512 4.923l-511.621 886.154h1023.243l-511.622-886.154z" />
<glyph unicode="&#xe90d;" glyph-name="car" d="M810.665 149.336h-597.331v-42.672c0-11.315-4.495-22.162-12.497-30.164s-18.854-12.5-30.17-12.5h-42.666c-11.316 0-22.168 4.498-30.17 12.5s-12.496 18.849-12.496 30.164v320.003l-53.035 13.226c-9.227 2.311-17.416 7.639-23.268 15.138s-9.030 16.737-9.031 26.249v30.72c0 5.658 2.248 11.085 6.248 15.085s9.427 6.249 15.085 6.249h64l105.813 246.954c6.585 15.36 17.535 28.449 31.491 37.642s30.304 14.086 47.016 14.070h484.691c16.699-0.001 33.031-4.902 46.972-14.094 13.934-9.192 24.876-22.271 31.451-37.618l105.896-246.954h64c5.661 0 11.088-2.248 15.089-6.249s6.246-9.427 6.246-15.085v-30.72c0-9.511-3.182-18.75-9.033-26.249s-14.036-12.826-23.267-15.138l-53.036-13.226v-320.003c0-11.315-4.491-22.162-12.493-30.164s-18.856-12.5-30.171-12.5h-42.664c-11.315 0-22.17 4.498-30.171 12.5s-12.5 18.849-12.5 30.164v42.672zM853.337 234.664v213.336h-682.669v-213.336h682.669zM233.687 533.334h556.63c6.971 0.004 13.831 1.716 19.983 4.984 6.159 3.269 11.418 7.995 15.323 13.766s6.341 12.411 7.088 19.34c0.746 6.929-0.212 13.934-2.801 20.406l-61.908 154.838h-512l-61.91-154.838c-2.585-6.472-3.546-13.477-2.798-20.406s3.181-13.569 7.087-19.34c3.907-5.771 9.167-10.497 15.321-13.766s13.017-4.98 19.986-4.984zM213.335 405.334c98.858 0 165.504-32.214 199.936-96.598 1.74-3.25 2.608-6.897 2.52-10.584s-1.132-7.287-3.027-10.45c-1.896-3.163-4.579-5.781-7.788-7.599s-6.834-2.771-10.521-2.77h-138.454c-11.316 0-22.168 4.495-30.17 12.496s-12.496 18.854-12.496 30.17v85.334zM810.665 405.334v-85.334c0-11.316-4.491-22.168-12.493-30.17s-18.856-12.496-30.171-12.496h-138.454c-3.683 0.006-7.303 0.965-10.506 2.786s-5.88 4.439-7.77 7.601c-1.891 3.162-2.93 6.759-3.017 10.443s0.781 7.325 2.521 10.573c34.346 64.427 100.992 96.598 199.891 96.598z" />
<glyph unicode="&#xe90e;" glyph-name="back" d="M146.286 448l713.143 443.405v-886.812l-713.143 443.407z" />
<glyph unicode="&#xe90f;" glyph-name="forum" d="M972.799 755.199h-102.399v-460.799h-665.599v-102.399c0-28.16 23.040-51.2 51.2-51.2h563.199l204.8-204.8v767.999c0 28.16-23.040 51.2-51.2 51.2zM767.999 448v460.799c0 28.16-23.040 51.2-51.2 51.2h-665.599c-28.16 0-51.2-23.040-51.2-51.2v-716.798l204.8 204.8h511.999c28.16 0 51.2 23.040 51.2 51.2z" />
<glyph unicode="&#xe910;" glyph-name="news" d="M921.6 908.8h-819.201c-56.832 0-102.4-45.568-102.4-102.4v-716.8c0-56.832 45.568-102.4 102.4-102.4h819.201c56.832 0 102.4 45.568 102.4 102.4v716.8c0 56.832-45.568 102.4-102.4 102.4zM153.599 704h256v-307.2h-256v307.2zM870.401 192h-716.8v102.4h716.8v-102.4zM870.401 396.8h-358.401v102.4h358.401v-102.4zM870.401 601.6h-358.401v102.4h358.401v-102.4z" />
<glyph unicode="&#xe911;" glyph-name="online" d="M285.209 518.337h-32.884c-44.877 1.621-89.608-5.997-131.417-22.382s-79.805-41.188-111.63-72.868l-9.071-10.583v-312.974h154.219v177.653l20.789 23.436 9.45 10.96c49.211 50.553 110.478 87.757 178.032 108.106-33.822 25.737-60.498 59.694-77.487 98.654zM1016.266 424.168c-31.824 31.687-69.82 56.49-111.626 72.875-41.813 16.385-86.544 24.003-131.418 22.381-13.762-0.039-27.518-0.796-41.2-2.268-17.312-36.548-43.253-68.333-75.597-92.605 72.114-19.954 137.449-59.156 188.991-113.4l9.451-10.583 20.411-23.436v-178.031h148.929v314.484l-7.941 10.583zM251.164 592.011h11.718c-5.444 46.748 2.759 94.072 23.618 136.262s53.484 77.438 93.936 101.493c-14.664 22.401-34.893 40.61-58.709 52.845s-50.4 18.074-77.15 16.947c-26.75-1.128-52.749-9.182-75.45-23.376s-41.328-34.042-54.054-57.597c-12.727-23.555-19.118-50.013-18.548-76.781s8.083-52.929 21.803-75.921c13.719-22.992 33.174-42.027 56.46-55.241s49.604-20.154 76.378-20.142v1.512zM755.019 620.38c0.457-8.688 0.457-17.394 0-26.082 7.256-1.149 14.579-1.782 21.926-1.89h7.181c26.652 1.422 52.488 9.721 74.984 24.091s40.891 34.319 53.385 57.907c12.501 23.587 18.68 50.009 17.932 76.693-0.743 26.684-8.381 52.72-22.175 75.574s-33.271 41.748-56.534 54.84c-23.263 13.092-49.519 19.938-76.214 19.872s-52.915-7.046-76.116-20.255c-23.195-13.21-42.573-32.201-56.255-55.124 34.21-22.337 62.341-52.817 81.869-88.706 19.533-35.889 29.844-76.063 30.018-116.92zM507.058 451.055c93.317 0 168.963 75.644 168.963 168.959s-75.646 168.961-168.963 168.961c-93.312 0-168.957-75.647-168.957-168.961s75.647-168.959 168.957-168.959zM516.15 361.042c-49.365 1.997-98.619-6.018-144.805-23.559-46.186-17.536-88.346-44.237-123.945-78.497l-9.45-10.583v-239.265c0.148-7.794 1.829-15.481 4.949-22.625s7.616-13.601 13.232-19.007c5.616-5.406 12.243-9.656 19.5-12.501 7.258-2.838 15.004-4.231 22.798-4.076h434.311c7.794-0.154 15.537 1.237 22.799 4.076 7.256 2.845 13.88 7.095 19.496 12.501s10.113 11.863 13.237 19.007c3.118 7.144 4.8 14.833 4.949 22.625v238.51l-9.073 11.338c-35.368 34.366-77.384 61.141-123.464 78.689s-95.265 25.502-144.531 23.368z" />
<glyph unicode="&#xe912;" glyph-name="settings" d="M512.575 586.933c-34.22 0-66.265-13.276-90.528-37.539-24.148-24.263-37.539-56.308-37.539-90.528s13.39-66.265 37.539-90.525c24.263-24.148 56.308-37.541 90.528-37.541s66.265 13.393 90.53 37.541c24.148 24.26 37.534 56.306 37.534 90.525s-13.386 66.265-37.534 90.528c-11.856 11.943-25.959 21.41-41.5 27.854s-32.207 9.736-49.030 9.685zM984.441 317.407l-74.847 63.982c3.548 21.742 5.378 43.945 5.378 66.033s-1.83 44.405-5.378 66.036l74.847 63.976c5.651 4.84 9.701 11.287 11.603 18.483s1.569 14.8-0.957 21.802l-1.036 2.976c-20.594 57.602-51.461 110.997-91.099 157.594l-2.058 2.403c-4.811 5.659-11.231 9.728-18.4 11.669s-14.76 1.664-21.772-0.795l-92.929-33.075c-34.338 28.154-72.563 50.357-113.99 65.807l-17.969 97.166c-1.354 7.32-4.909 14.054-10.182 19.307s-12.019 8.778-19.344 10.106l-3.092 0.572c-59.511 10.758-122.228 10.758-181.741 0l-3.090-0.572c-7.326-1.326-14.074-4.851-19.347-10.106s-8.825-11.987-10.181-19.307l-18.083-97.623c-41.037-15.574-79.267-37.723-113.188-65.578l-93.618 33.304c-7.009 2.479-14.605 2.766-21.779 0.824s-13.589-6.021-18.391-11.696l-2.060-2.403c-39.566-46.647-70.423-100.028-91.1-157.594l-1.030-2.976c-5.15-14.306-0.916-30.328 10.644-40.285l75.764-64.663c-3.548-21.516-5.265-43.49-5.265-65.235 0-21.974 1.717-43.948 5.265-65.236l-75.535-64.658c-5.654-4.845-9.701-11.29-11.603-18.484-1.901-7.201-1.567-14.806 0.958-21.804l1.031-2.976c20.715-57.568 51.272-110.787 91.1-157.594l2.060-2.402c4.814-5.658 11.227-9.727 18.399-11.667s14.763-1.666 21.772 0.794l93.618 33.303c34.105-28.042 72.102-50.243 113.188-65.576l18.083-97.622c1.355-7.325 4.906-14.056 10.18-19.311s12.023-8.777 19.347-10.105l3.091-0.573c60.097-10.814 121.644-10.814 181.74 0l3.092 0.573c7.325 1.329 14.070 4.85 19.344 10.105s8.828 11.986 10.182 19.311l17.969 97.167c41.428 15.56 79.653 37.652 113.99 65.805l92.929-33.075c7.005-2.48 14.603-2.767 21.778-0.826 7.175 1.947 13.594 6.022 18.393 11.7l2.058 2.402c39.833 47.040 70.388 100.024 91.106 157.594l1.029 2.976c4.922 14.194 0.683 30.1-10.872 40.054zM512.575 257.671c-111.128 0-201.198 90.070-201.198 201.195 0 111.128 90.070 201.198 201.198 201.198 111.13 0 201.2-90.070 201.2-201.198 0-111.125-90.070-201.195-201.2-201.195z" />
<glyph unicode="&#xe913;" glyph-name="smoking" d="M678.292 878.362c-12.538 46.954-55.44 81.638-106.292 81.638-25.928 0-50.534-9.252-69.918-25.418-26.070 21.876-61.336 30.666-96.59 22.266-39.714-9.462-71.316-41.262-80.51-81.010-11.934-51.598 13.2-102.334 58.582-124.382 8.84-51.856 54.102-91.456 108.436-91.456 10.894 0 21.602 1.59 31.846 4.686 20.354-27.572 52.848-44.686 88.154-44.686 41.824 0 79.242 23.768 97.702 60h10.188c35.1 0 67.68-17.436 87.15-46.64 5.668-8.502 15.12-13.364 24.962-13.362 2.89 0 5.818 0.42 8.692 1.29 12.652 3.832 21.306 15.492 21.306 28.712v20c0 106.888-80.28 195.382-183.708 208.362zM267.814 213.592l-199.186-115c-23.914-13.808-32.108-44.386-18.302-68.302l40-69.282c13.808-23.914 44.386-32.108 68.302-18.302l199.186 115zM319.767 243.606l458.98 265 90-155.88-458.98-265zM865.372 558.592l-34.642-20 90-155.884 34.642 20c23.914 13.808 32.108 44.386 18.302 68.302l-40 69.282c-13.808 23.914-44.388 32.106-68.302 18.3z" />
<glyph unicode="&#xe914;" glyph-name="open-padlock" d="M818.81 549.621h-460.216v148.292c0 76.703 51.135 143.178 122.724 158.519 97.157 15.341 184.086-56.249 184.086-153.405 0-30.681 25.568-51.135 51.135-51.135s51.135 20.454 51.135 51.135c0 148.292-127.838 271.016-281.243 255.675-132.951-15.341-230.108-132.951-230.108-265.902v-143.178h-51.135c-25.568 0-51.135-20.454-51.135-51.135v-511.351c0-25.568 25.568-51.135 51.135-51.135h613.621c30.681 0 51.135 25.568 51.135 51.135v511.351c0 30.681-20.454 51.135-51.135 51.135zM563.135 207.016v-66.476c0-30.681-20.454-51.135-51.135-51.135s-51.135 20.454-51.135 51.135v66.476c-30.681 20.454-51.135 51.135-51.135 86.93 0 66.476 61.362 112.497 127.838 97.157 35.795-10.227 66.476-40.908 76.703-76.703 10.227-46.022-15.341-86.93-51.135-107.384z" />
<glyph unicode="&#xe915;" glyph-name="restaurant" d="M997.364 89.348l-870.65 870.652h-36.662l-7.486-19.022c-19.758-50.208-28.2-101.56-24.41-148.498 4.32-53.504 24.646-99.826 58.784-133.964l366.22-366.22 48.304 48.304 338.57-378.586c33.68-33.68 91.65-35.68 127.33 0 35.108 35.108 35.108 92.228 0 127.334zM313.456 377.116l-286.822-286.822c-35.104-35.104-35.104-92.226 0-127.33 33.348-33.348 91.038-36.292 127.33 0l286.824 286.824-127.332 127.328zM980.506 789.502l-162.702-162.7-42.446 42.444 162.702 162.702-42.444 42.444-162.7-162.7-42.444 42.444 162.702 162.7-42.442 42.442-212.22-212.22c-25.962-25.962-41.464-60.434-43.656-97.070-0.554-9.282-2.658-18.412-6.148-27.096l137.858-137.858c8.684 3.494 17.816 5.596 27.096 6.15 36.636 2.186 71.108 17.692 97.070 43.654l212.22 212.218-42.446 42.446z" />
<glyph unicode="&#xe916;" glyph-name="padlock" d="M800 576h-32v128c0 141.184-114.816 256-256 256s-256-114.816-256-256v-128h-32c-52.907 0-96-43.051-96-96v-448c0-52.949 43.093-96 96-96h576c52.907 0 96 43.051 96 96v448c0 52.949-43.093 96-96 96zM341.333 704c0 94.123 76.544 170.667 170.667 170.667s170.667-76.544 170.667-170.667v-128h-341.333zM554.667 246.528v-97.195c0-23.552-19.072-42.667-42.667-42.667s-42.667 19.115-42.667 42.667v97.195c-25.387 14.805-42.667 42.027-42.667 73.472 0 47.061 38.272 85.333 85.333 85.333s85.333-38.272 85.333-85.333c0-31.445-17.28-58.667-42.667-73.472z" />
<glyph unicode="&#xe917;" glyph-name="soft-drink" d="M545.982 751.575v90.619l215.221 53.239-16.991 64.566-266.195-64.566v-143.858h-295.646v-147.257h659.257v147.257zM227.681 547.681l78.159-552.779c4.531-33.982 33.982-58.903 66.832-58.903h275.257c33.982 0 62.301 24.92 66.832 58.903l78.159 552.779h-565.239z" />
<glyph unicode="&#xe918;" glyph-name="shop-cart" d="M1024 806.957h-755.2l-21.612 125.704h-191.351c-30.887 0-55.838-24.997-55.838-55.861v-55.838h153.090l98.504-572.962c2.18-12.614 14.307-22.841 27.13-22.841h661.496c30.887 0 55.884 24.974 55.884 55.907v55.791h-646.47l-13.612 79.165h511.119c61.681 0 119.93 49.345 130.11 110.145l46.748 280.788zM548.058 59.896c0-53.34-43.24-96.58-96.58-96.58s-96.58 43.24-96.58 96.58c0 53.34 43.24 96.58 96.58 96.58s96.58-43.24 96.58-96.58zM690.133 59.919c0-53.31 43.2-96.557 96.51-96.557 53.357 0 96.649 43.246 96.649 96.557s-43.293 96.603-96.649 96.603c-53.31 0-96.51-43.316-96.51-96.603z" />
<glyph unicode="&#xe919;" glyph-name="rifle" d="M989.158 943.932c-12.13 11.040-31.024 9.974-42.622-1.624l-9.182-9.182-20.588 20.586c-7.65 7.648-20.1 8.556-28.226 1.416-8.904-7.822-9.232-21.398-0.986-29.644l21.078-21.078-34.378-34.378-12.214 12.214c-11.896 11.898-31.184 11.898-43.080 0l-217.328-217.328c-8.618-8.618-10.958-21.104-7.092-31.858l-21.658-21.658c-3.334 1.226-6.876 1.902-10.496 1.902-8.078 0-15.828-3.21-21.54-8.922l-34.1-34.1-32.132 32.132c-17.608 17.61-45.442 19.026-64.744 3.296l-124.288-101.26c-10.588-8.626-17.058-21.396-17.752-35.036-0.694-13.638 4.446-27 14.102-36.656l43.646-43.646-34.1-34.1c-5.712-5.712-8.922-13.462-8.922-21.54 0-3.688 0.7-7.294 1.968-10.68l-21.080-20.828c-10.756 3.866-23.242 1.526-31.858-7.092l-197.808-197.808c-12.106-12.106-11.862-31.808 0.542-43.61l114.624-109.056c13.416-12.764 35.020-10.706 45.784 4.362l162.878 227.992c8.294 12.098 6.788 28.392-3.586 38.764l-16.594 16.594 16.92 16.954 26.786-26.786 50.972-151.854c4.254-12.672 16.082-20.774 28.866-20.774 2.648 0 5.338 0.348 8.012 1.074l130.786 35.588c9.906 2.696 18.178 9.9 21.502 19.612 4.726 13.812-0.88 28.594-12.87 35.944l-12.626 7.742-39.306 144.454 35.564 30.182c53.818-38.164 118.546-59.040 185.11-59.040 11.32 0 22.698 0.604 34.080 1.828 11.234 1.208 20.82 8.682 24.92 19.208l34.71 89.108c3.86 9.91 2.272 21.114-4.188 29.562s-16.854 12.918-27.434 11.784c-51.576-5.506-102.938 4.748-147.738 28.252 0.21 2.028 0.376 4.062 0.46 6.11 1.13 27.656-9.448 54.744-29.020 74.316l-16.12 16.12 17.58 17.58 30.156-30.156c5.73-5.73 13.486-8.922 21.538-8.922 0.632 0 1.266 0.020 1.9 0.060 8.724 0.544 16.792 4.81 22.154 11.712l190.068 244.59c9.424 12.128 8.346 29.372-2.514 40.232l-10.362 10.362 72.89 72.89c12.242 12.24 11.886 32.308-1.064 44.094zM453.866 341.492l-15.604-15.602c-3.966-3.964-9.162-5.948-14.36-5.948s-10.396 1.982-14.36 5.948c-7.93 7.93-7.93 20.79 0.002 28.72l15.604 15.602c7.932 7.93 20.792 7.93 28.72 0 7.93-7.93 7.93-20.79-0.002-28.72zM368.658 432.188l-33.81 33.81 104.708 85.308 24.11-24.11-95.008-95.008z" />
<glyph unicode="&#xe91a;" glyph-name="shipment" d="M571.328 233.304c-22.75-27.351-56.193-43.050-91.767-43.050h-404.684c-9.411 0-17.041-7.63-17.041-17.041v-185.303c0-28.246 22.916-51.143 51.162-51.143 501.203 0 483.911-0.013 484.377 0.021 9.219 0.709 15.505 8.972 16.125 18.234 0 2.767 0.040-33.577 0.043 300.691 0 7.975-9.98 11.588-15.075 5.451zM402.919 130.61h-161.891c-9.415 0-17.041 7.626-17.041 17.041s7.626 17.041 17.041 17.041h161.891c9.415 0 17.041-7.626 17.041-17.041s-7.626-17.041-17.041-17.041zM609.065 908.423c13.946 2.058 24.262-12.755 17.422-25.080-22.341-40.262-65.317-66.976-113.869-66.976-48.542 0-91.524 26.708-113.867 66.974-6.84 12.327 3.476 27.14 17.422 25.082 60.611-8.942 132.28-8.944 192.891 0zM608.477 557.703c0-52.352-42.44-94.791-94.791-94.791s-94.791 42.44-94.791 94.791c0 52.352 42.44 94.791 94.791 94.791s94.791-42.44 94.791-94.791zM1012.288 692.435l-61.391-75.79c-17.552-21.664-48.865-25.668-71.275-9.096l-46.416 34.274v-193.822c0-9.411-7.63-17.041-17.041-17.041h-206.37c-15.81 0-22.976 19.518-11.102 29.96 28.616 25.166 46.026 62.797 43.651 104.317-3.743 65.412-57.081 118.148-122.53 121.197-73.835 3.438-135.002-55.637-135.002-128.731 0-38.577 17.041-73.253 43.985-96.89 11.831-10.378 4.531-29.854-11.207-29.854h-208.515c-9.411 0-17.041 7.63-17.041 17.041v193.822l-46.416-34.274c-22.43-16.573-53.722-12.568-71.275 9.096l-61.391 75.79c-17.148 21.152-15.273 51.336 4.367 70.188l189.455 182.106c9.735 9.351 22.516 14.506 36.021 14.506h57.216c25.072 0 46.565-17.936 51.123-42.645 14.336-77.814 82.245-134.305 161.486-134.305s147.15 56.491 161.486 134.305c4.559 24.71 26.052 42.645 51.123 42.645h57.216c13.505 0 26.286-5.155 36.021-14.506l189.455-182.106c19.64-18.852 21.514-49.036 4.367-70.188zM965.042 173.213v-185.344c0-28.222-22.88-51.102-51.102-51.102h-253.34c-9.584 0-17.403 7.901-17.022 17.476 0.070 1.781 0.045-16.462 0.045 301.383 0 7.977 9.982 11.579 15.077 5.443l23.031-27.743c22.729-27.372 56.151-43.071 91.724-43.071h174.544c9.413 0 17.043-7.628 17.043-17.041zM1009.573 309.714l-54.664 63.487c-12.958 15.047-31.773 23.677-51.624 23.677h-783.673c-19.857 0-38.679-8.629-51.643-23.672l-55.463-64.377c-28.503-33.085-5.364-84.492 39.902-84.492h427.157c25.332 0 49.351 11.273 65.538 30.757l68.335 82.255c6.814 8.203 19.406 8.201 26.218-0.004l68.29-82.249c16.232-19.548 40.111-30.761 65.513-30.761h198.159c43.427 0.002 67.662 50.881 37.955 85.38z" />
<glyph unicode="&#xe91b;" glyph-name="fashion" d="M1019.163 591.805l-165.16 165.16c-2.376 2.37-5.417 3.96-8.72 4.558l-181.676 33.032c-8.974 1.633-17.573-4.319-19.206-13.293-0.178-0.97-0.266-1.955-0.266-2.942-0.047-5.248-0.518-10.484-1.404-15.657l-114.208 28.54v5.285c44.686 9.121 73.517 52.742 64.396 97.428s-52.742 73.517-97.428 64.396c-38.443-7.847-66.056-41.66-66.064-80.895h33.032c0 27.365 22.183 49.548 49.548 49.548s49.548-22.183 49.548-49.548-22.183-49.548-49.548-49.548c-9.121 0-16.516-7.395-16.516-16.516v-20.133l-114.208-28.556c-0.886 5.174-1.356 10.409-1.404 15.657 0.002 4.899-2.17 9.544-5.929 12.684-3.739 3.183-8.725 4.49-13.543 3.551l-181.676-33.032c-3.303-0.599-6.344-2.188-8.72-4.558l-165.16-165.16c-6.447-6.449-6.447-16.904 0-23.354l132.128-132.128c6.449-6.447 16.904-6.447 23.354 0l37.871 37.871v-108.774h-115.612c-45.471 0.132-82.438-36.624-82.57-82.095-0.076-26.262 12.381-50.985 33.534-66.549-36.486-26.659-44.453-77.848-17.792-114.334 4.978-6.813 10.979-12.814 17.792-17.792-36.622-26.95-44.463-78.488-17.513-115.11 15.566-21.151 40.289-33.608 66.549-33.534h594.576c4.381 0 8.58 1.742 11.677 4.839l132.128 132.128c3.058 3.111 4.746 7.315 4.691 11.677h0.149v389.544l37.871-37.871c6.449-6.447 16.904-6.447 23.354 0l132.128 132.128c6.447 6.449 6.447 16.906 0 23.354zM512.006 761.308l120.104-30.026c-24.894-42.432-70.93-67.924-120.104-66.51-49.174-1.414-95.211 24.078-120.104 66.51l120.104 30.026zM33.042 282.84c0 27.365 22.183 49.548 49.548 49.548h363.352c27.365 0 49.548-22.183 49.548-49.548s-22.183-49.548-49.548-49.548h-363.352c-27.365 0-49.548 22.185-49.548 49.548zM33.042 150.712c0 27.365 22.183 49.548 49.548 49.548h363.352c27.365 0 49.548-22.183 49.548-49.548s-22.183-49.548-49.548-49.548h-363.352c-27.365 0-49.548 22.185-49.548 49.548zM445.942-30.964h-363.352c-27.365 0-49.548 22.183-49.548 49.548s22.183 49.548 49.548 49.548h363.352c27.365 0 49.548-22.183 49.548-49.548s-22.183-49.548-49.548-49.548zM693.682-7.61v75.742h75.742l-75.742-75.742zM875.358 471.354l-103.935 103.935-23.354-23.354 44.709-44.709v-406.062h-115.612c-9.121 0-16.516-7.395-16.516-16.516v-115.612h-149.073c27.489 35.613 20.905 86.765-14.705 114.256-0.597 0.46-1.199 0.913-1.811 1.356 36.486 26.659 44.453 77.848 17.794 114.336-4.978 6.813-10.979 12.814-17.794 17.792 36.624 26.95 44.465 78.488 17.513 115.11-15.583 21.176-40.342 33.635-66.632 33.534h-214.708v141.806l44.709 44.709-23.354 23.354-103.935-103.935-108.774 108.774 149.833 149.833 158.554 28.82c10.801-71.613 80.103-127.041 163.707-127.041s152.905 55.428 163.707 127.041l158.554-28.82 149.899-149.833-108.774-108.774zM66.074 299.356h396.384v-33.032h-396.384v33.032zM66.074 167.228h379.868v-33.032h-379.868v33.032zM66.074 35.1h379.868v-33.032h-379.868v33.032z" />
</font>
</defs>
</svg>
