<svg width="45" height="45" viewBox="0 0 45 45" fill="none" xmlns="http://www.w3.org/2000/svg">
<path d="M37.5 41.25H7.5C7.00272 41.25 6.52581 41.0525 6.17417 40.7008C5.82254 40.3492 5.625 39.8723 5.625 39.375V5.625C5.625 5.12772 5.82254 4.65081 6.17417 4.29917C6.52581 3.94754 7.00272 3.75 7.5 3.75H37.5C37.9973 3.75 38.4742 3.94754 38.8258 4.29917C39.1775 4.65081 39.375 5.12772 39.375 5.625V39.375C39.375 39.8723 39.1775 40.3492 38.8258 40.7008C38.4742 41.0525 37.9973 41.25 37.5 41.25ZM13.125 11.25V18.75H20.625V11.25H13.125ZM13.125 22.5V26.25H31.875V22.5H13.125ZM13.125 30V33.75H31.875V30H13.125ZM24.375 13.125V16.875H31.875V13.125H24.375Z" fill="white"/>
</svg>
