<svg width="100" height="60" viewBox="0 0 100 60" fill="none" xmlns="http://www.w3.org/2000/svg">
<path d="M29.166 51.6668H70.8327V55.8334H29.166V51.6668ZM33.3327 35.0001H37.4993V49.5834H33.3327V35.0001ZM43.7493 35.0001H47.916V49.5834H43.7493V35.0001ZM52.0827 35.0001H56.2494V49.5834H52.0827V35.0001ZM62.4994 35.0001H66.666V49.5834H62.4994V35.0001ZM29.166 24.5834L49.9994 14.1667L70.8327 24.5834V32.9167H29.166V24.5834ZM49.9994 26.6667C50.5519 26.6667 51.0818 26.4473 51.4725 26.0566C51.8632 25.6659 52.0827 25.136 52.0827 24.5834C52.0827 24.0309 51.8632 23.501 51.4725 23.1103C51.0818 22.7196 50.5519 22.5001 49.9994 22.5001C49.4468 22.5001 48.9169 22.7196 48.5262 23.1103C48.1355 23.501 47.916 24.0309 47.916 24.5834C47.916 25.136 48.1355 25.6659 48.5262 26.0566C48.9169 26.4473 49.4468 26.6667 49.9994 26.6667Z" fill="white"/>
<path d="M29.168 24.5832L50.0013 14.1665L70.8346 24.5832V32.9165H29.168V24.5832ZM50.0013 26.6665C50.5538 26.6665 51.0837 26.447 51.4744 26.0563C51.8651 25.6656 52.0846 25.1357 52.0846 24.5832C52.0846 24.0306 51.8651 23.5007 51.4744 23.11C51.0837 22.7193 50.5538 22.4998 50.0013 22.4998C49.4488 22.4998 48.9189 22.7193 48.5282 23.11C48.1375 23.5007 47.918 24.0306 47.918 24.5832C47.918 25.1357 48.1375 25.6656 48.5282 26.0563C48.9189 26.447 49.4488 26.6665 50.0013 26.6665Z" fill="#FF5959"/>
<rect width="7.07107" height="7.07107" rx="1" transform="matrix(-0.707107 0.707107 0.707107 0.707107 84 12)" fill="#FF5959" fill-opacity="0.4"/>
<rect width="4.24264" height="4.24264" rx="1" transform="matrix(-0.707107 0.707107 0.707107 0.707107 84 14)" fill="#FF5959"/>
<rect width="6.36396" height="6.36396" rx="1" transform="matrix(-0.707107 0.707107 0.707107 0.707107 15.5 45)" fill="#FF5959" fill-opacity="0.4"/>
<rect width="3.81838" height="3.81838" rx="1" transform="matrix(-0.707107 0.707107 0.707107 0.707107 15.5 46.8)" fill="#FF5959"/>
</svg>
