<svg width="100" height="60" viewBox="0 0 100 60" fill="none" xmlns="http://www.w3.org/2000/svg">
<path d="M47.9173 39.2959V51.6667H52.084V39.2959C60.3048 40.3209 66.6673 47.3334 66.6673 55.8334H33.334C33.3341 51.7738 34.8156 47.8538 37.5007 44.8089C40.1857 41.7641 43.8896 39.8038 47.9173 39.2959Z" fill="white"/>
<path d="M37.5 24.5835C37.5 31.4897 43.0937 37.0835 50 37.0835C56.9062 37.0835 62.5 31.4897 62.5 24.5835C62.5 17.6772 56.9062 12.0835 50 12.0835C43.0937 12.0835 37.5 17.6772 37.5 24.5835Z" fill="#FF5959"/>
<rect width="9.8995" height="9.8995" rx="1" transform="matrix(-0.707107 0.707107 0.707107 0.707107 79 6)" fill="#FF5959" fill-opacity="0.4"/>
<rect width="5.9397" height="5.9397" rx="1" transform="matrix(-0.707107 0.707107 0.707107 0.707107 79 8.80029)" fill="#FF5959"/>
<rect width="5.65685" height="5.65685" rx="1" transform="matrix(-0.707107 0.707107 0.707107 0.707107 18 34)" fill="#FF5959" fill-opacity="0.4"/>
<rect width="3.39411" height="3.39411" rx="1" transform="matrix(-0.707107 0.707107 0.707107 0.707107 18 35.6001)" fill="#FF5959"/>
<rect width="3.53553" height="3.53553" rx="1" transform="matrix(-0.707107 0.707107 0.707107 0.707107 74.5 45.5)" fill="#FF5959" fill-opacity="0.4"/>
<rect width="2.12132" height="2.12132" rx="1" transform="matrix(-0.707107 0.707107 0.707107 0.707107 74.5 46.5)" fill="#FF5959"/>
</svg>
