<svg width="19" height="17" viewBox="0 0 19 17" fill="none" xmlns="http://www.w3.org/2000/svg">
<path d="M18.0671 4.90252H0.9375V1.4766C0.9375 1.24945 1.02774 1.0316 1.18836 0.870975C1.34898 0.710353 1.56683 0.620117 1.79398 0.620117H17.2107C17.4378 0.620117 17.6557 0.710353 17.8163 0.870975C17.9769 1.0316 18.0671 1.24945 18.0671 1.4766V4.90252Z" fill="#FF5959"/>
<path d="M18.0632 6.61572V15.1805C18.0632 15.4077 17.973 15.6255 17.8124 15.7862C17.6517 15.9468 17.4339 16.037 17.2067 16.037H1.79008C1.56292 16.037 1.34507 15.9468 1.18445 15.7862C1.02383 15.6255 0.933594 15.4077 0.933594 15.1805V6.61572H18.0632ZM12.0679 11.7546V13.4676H15.4938V11.7546H12.0679Z" fill="#FF5959"/>
</svg>
