<svg width="149" height="175" viewBox="0 0 149 175" fill="none" xmlns="http://www.w3.org/2000/svg">
<g clip-path="url(#clip0)">
<path opacity="0.47" d="M86.3453 128.793C71.8163 128.793 60.0383 126.317 60.0383 123.263C60.0383 120.209 71.8163 117.733 86.3453 117.733C100.874 117.733 112.652 120.209 112.652 123.263C112.652 126.317 100.874 128.793 86.3453 128.793Z" fill="#481C23"/>
<path d="M144.489 130.672C140.355 139.53 124.624 139.369 122.853 139.369C121.725 139.369 104.062 139.047 101.217 130.672C100.304 127.934 100.841 124.122 103.096 121.921C106.263 118.807 110.558 120.901 122.853 121.974C136.651 123.209 143.523 121.598 145.133 125.41C145.992 127.45 144.918 129.652 144.489 130.672Z" fill="#481C23"/>
<path d="M70.2408 50.2469C70.2408 50.2469 68.5765 48.0994 75.7707 46.2203C82.9648 44.3413 77.0592 44.0728 76.3076 43.7507C75.5559 43.4285 75.2338 41.8179 83.7702 43.3749C92.3065 44.9318 95.0983 41.3884 97.9975 42.7306C100.897 44.0728 96.6015 44.6097 94.9372 45.415C93.2729 46.2203 97.0848 46.0056 99.3397 45.6297C101.595 45.2539 108.305 45.6298 105.353 46.3277C104.118 46.5962 104.44 47.1867 105.084 47.2404C107.178 47.5088 106.91 48.0994 105.621 48.3678C104.333 48.5826 101.487 54.3809 101.487 54.3809L76.6833 57.4411L70.2408 50.2469Z" fill="#C56B29"/>
<path d="M80.8689 64.5285C80.8689 64.5285 55.8503 74.9977 58.32 98.2982C59.9306 113.653 72.1714 119.988 72.1714 119.988C72.1714 119.988 77.2718 124.82 91.338 123.585C111.041 121.813 120.276 104.311 117.001 88.1512C117.001 88.1512 113.457 70.5952 96.8678 64.797C96.8678 64.797 106.156 58.6766 106.639 47.9927C106.639 47.9927 100.358 48.9054 100.358 51.7508C100.358 54.5426 93.2707 54.5963 91.3917 51.5361C89.5126 48.5295 88.1167 50.2476 83.7143 52.9856C79.3119 55.7237 72.9231 54.811 77.057 50.6771C81.191 46.4894 75.6612 49.0127 72.762 50.5697C71.6346 51.1603 70.9366 51.1066 70.6145 50.7307L80.8689 64.5285Z" fill="#EC8922"/>
<path d="M78.4027 64.7964C78.4027 64.7964 78.4027 64.9038 78.4027 65.0648C78.4027 65.2259 78.4563 65.4943 78.6174 65.7628C78.7248 66.0312 78.9395 66.3533 79.2617 66.6218C79.5838 66.8902 80.0133 67.105 80.4965 67.266C80.9796 67.4271 81.5165 67.5345 82.1071 67.5882C82.6977 67.6418 83.3419 67.6418 83.9862 67.6418C84.6304 67.6418 85.3284 67.5882 86.0263 67.5345C86.4021 67.5345 86.7243 67.4808 87.1001 67.4271C87.4759 67.3734 87.798 67.3197 88.1738 67.266C88.8718 67.1587 89.6234 67.0513 90.3214 66.9439C91.0193 66.8365 91.7173 66.7291 92.3615 66.5681C93.7037 66.2996 94.9385 66.0849 96.0123 65.8701C96.5491 65.7628 97.0324 65.6554 97.4619 65.6017C97.8914 65.4943 98.2672 65.4407 98.5893 65.387C99.2335 65.2796 99.6094 65.2259 99.6094 65.2259C99.6094 65.2259 99.2872 65.387 98.6966 65.6554C98.1061 65.9239 97.2471 66.246 96.227 66.6218C95.6901 66.8365 95.1533 66.9976 94.509 67.2123C93.9185 67.4271 93.2742 67.5882 92.5762 67.7492C91.932 67.9103 91.2341 68.0714 90.4824 68.2324C89.7845 68.3935 89.0328 68.5009 88.2812 68.6082C87.9054 68.6619 87.5296 68.7156 87.1538 68.7156C86.7779 68.7693 86.4021 68.7693 86.0263 68.823C85.6505 68.8767 85.2747 68.8767 84.9526 68.8767C84.5768 68.8767 84.2546 68.8767 83.8788 68.8767C83.1809 68.8767 82.4829 68.7693 81.8386 68.6082C81.1944 68.5009 80.6039 68.2861 80.067 68.0177C79.5301 67.7492 79.1006 67.4271 78.7785 66.9976C78.4563 66.6218 78.2953 66.1923 78.2416 65.8701C78.1879 65.548 78.1879 65.2796 78.2416 65.1185C78.349 64.8501 78.4027 64.7964 78.4027 64.7964Z" fill="#213047"/>
<path d="M79.527 63.4004C79.527 63.4004 79.527 63.5077 79.527 63.6151C79.527 63.7762 79.5807 63.991 79.7418 64.2057C80.0639 64.6352 80.7618 64.9573 81.6745 65.1184C82.1577 65.1721 82.6408 65.2258 83.1777 65.2258C83.7146 65.2258 84.3052 65.2258 84.8958 65.1721C85.4863 65.1184 86.1306 65.1184 86.7748 65.0647C87.4191 65.011 88.0633 64.9573 88.7076 64.85C89.3518 64.7963 89.9961 64.6889 90.6403 64.6352C91.2846 64.5278 91.9289 64.4741 92.5194 64.4204C93.11 64.3668 93.7006 64.2594 94.2911 64.2057C94.828 64.152 95.3649 64.0983 95.8481 63.9909C96.3313 63.9373 96.8145 63.8836 97.1903 63.8299C97.5661 63.7762 97.9419 63.7762 98.2103 63.7225C98.8009 63.6688 99.123 63.6688 99.123 63.6688C99.123 63.6688 98.8009 63.7762 98.2641 63.9909C97.7272 64.2057 96.9218 64.4741 95.9555 64.7426C95.4723 64.9037 94.9354 65.011 94.3985 65.1721C93.8616 65.3331 93.2711 65.4405 92.6268 65.6016C92.0363 65.7626 91.392 65.87 90.7478 65.9774C90.1035 66.0848 89.4592 66.1922 88.7613 66.2458C87.4191 66.4069 86.0769 66.4606 84.8421 66.4069C83.5536 66.3532 82.3724 66.1922 81.4061 65.8163C80.9229 65.6553 80.4397 65.4405 80.1175 65.1721C79.7417 64.9036 79.5269 64.5815 79.4196 64.2594C79.3122 63.9373 79.3122 63.7225 79.3659 63.5614C79.4733 63.4541 79.527 63.4004 79.527 63.4004Z" fill="#213047"/>
<path d="M79.8999 82.2442V84.9823C82.4232 86.5392 84.7318 88.633 86.8793 91.21L84.3023 96.5788C82.1548 93.787 80.2757 91.9617 78.7188 91.049C77.9135 90.6195 77.3229 90.4047 76.8397 90.4584C76.4102 90.5121 76.1417 90.8342 76.1417 91.3174C76.1417 92.069 77.1618 93.2502 79.2557 94.8071C79.3093 94.8608 79.363 94.9145 79.4167 94.9145L79.5241 95.0219L81.779 96.7936C83.7117 98.2968 85.215 100.015 86.2887 101.84C87.3625 103.666 87.8457 105.491 87.8457 107.316C87.8457 110.054 87.1477 111.826 85.7519 112.685C84.356 113.544 82.3159 113.383 79.5241 112.202V115.262L75.6585 113.061V110.001C74.1016 109.088 72.652 107.961 71.2025 106.618C69.8066 105.276 68.4644 103.719 67.1759 102.001L69.8603 96.364C71.0951 98.1357 72.3299 99.6927 73.5648 100.981C74.8533 102.27 76.0881 103.29 77.3766 103.988C78.1282 104.417 78.7188 104.632 79.202 104.578C79.6315 104.525 79.8462 104.256 79.8462 103.719C79.8462 103.343 79.6315 102.914 79.2557 102.377C78.9335 101.948 78.0745 101.142 76.6249 100.015L74.209 98.0821C72.3299 96.5788 70.8804 94.8071 69.8066 92.8207C68.7865 90.8342 68.2496 88.8478 68.2496 86.8613C68.2496 84.6064 68.9476 83.1032 70.3435 82.4052C71.7394 81.6536 73.6184 81.8147 75.9807 82.8884V80.043L79.8999 82.2442Z" fill="#213047"/>
<path d="M145.402 121.865V125.248C145.402 128.469 143.255 131.69 138.96 134.16C130.37 139.099 116.357 139.099 107.714 134.16C103.365 131.69 101.164 128.361 101.217 125.14V121.758C101.217 125.033 103.365 128.308 107.714 130.777C116.357 135.717 130.37 135.717 138.96 130.777C143.309 128.308 145.402 125.086 145.402 121.865Z" fill="#EC8926"/>
<path d="M138.905 112.792C147.549 117.732 147.603 125.785 139.013 130.778C130.423 135.717 116.41 135.717 107.766 130.778C99.1227 125.838 99.069 117.785 107.659 112.792C116.249 107.853 130.262 107.853 138.905 112.792Z" fill="#F8B617"/>
<path d="M132.945 118.376C134.663 119.343 135.522 120.416 135.576 121.597C135.629 122.725 134.77 123.96 133.106 125.248L135.039 126.322L132.301 127.933L130.368 126.859C129.241 127.503 128.006 127.986 126.664 128.362C125.321 128.738 123.872 129.006 122.315 129.167L119.684 125.517C121.241 125.409 122.637 125.195 123.925 124.872C125.16 124.55 126.288 124.121 127.147 123.638C127.684 123.315 128.006 123.047 128.167 122.725C128.274 122.456 128.167 122.188 127.845 122.027C127.63 121.866 127.254 121.866 126.825 121.92C126.449 121.973 125.643 122.242 124.409 122.725L122.315 123.53C120.704 124.174 119.094 124.443 117.483 124.336C115.872 124.282 114.423 123.852 113.188 123.154C111.792 122.349 111.094 121.383 111.148 120.255C111.148 119.128 111.899 118.054 113.403 116.927L111.631 115.907L114.369 114.35L116.087 115.316C117.966 114.35 120.06 113.652 122.476 113.222L124.946 116.712C122.422 117.034 120.651 117.517 119.523 118.161C118.986 118.484 118.61 118.806 118.503 119.074C118.396 119.396 118.503 119.611 118.825 119.826C119.308 120.094 120.382 119.879 122.1 119.182C122.154 119.182 122.207 119.128 122.207 119.128L122.315 119.074L124.194 118.323C125.858 117.678 127.415 117.356 128.972 117.356C130.475 117.356 131.764 117.732 132.945 118.376Z" fill="#EC8923"/>
<path d="M112.276 122.509C112.544 122.724 112.866 122.885 113.135 123.046C113.296 123.099 113.457 123.207 113.618 123.261C113.779 123.314 113.94 123.368 114.101 123.422C114.423 123.529 114.745 123.636 115.067 123.69C115.389 123.744 115.712 123.851 116.034 123.851C116.356 123.905 116.678 123.905 117 123.958C117.322 123.958 117.644 123.958 117.966 123.958L118.933 123.851L119.899 123.69L120.866 123.475C121.188 123.368 121.51 123.261 121.832 123.153L123.765 122.509C124.087 122.402 124.409 122.294 124.731 122.187C125.053 122.079 125.375 121.972 125.751 121.918C126.073 121.811 126.449 121.757 126.771 121.704C126.932 121.65 127.147 121.65 127.308 121.65C127.415 121.65 127.469 121.65 127.63 121.65H127.791C127.845 121.65 127.899 121.65 127.899 121.704H127.952L128.006 121.757C128.06 121.811 128.06 121.811 128.06 121.865L127.899 121.704C128.06 121.757 128.167 121.865 128.221 121.972C128.328 122.079 128.382 122.24 128.436 122.402C128.436 122.563 128.382 122.724 128.328 122.831C128.275 122.992 128.167 123.046 128.113 123.153C128.006 123.261 127.952 123.314 127.845 123.368C127.738 123.422 127.684 123.475 127.577 123.529C127.415 123.636 127.201 123.744 126.986 123.851C126.771 123.958 126.61 124.012 126.395 124.12C126.181 124.173 126.02 124.281 125.805 124.334C125.429 124.495 125 124.549 124.624 124.656C125 124.495 125.375 124.281 125.751 124.12C125.912 124.012 126.127 123.958 126.288 123.851C126.449 123.744 126.664 123.636 126.825 123.529C126.986 123.422 127.147 123.314 127.308 123.207C127.362 123.153 127.469 123.099 127.523 123.046C127.577 122.992 127.684 122.938 127.738 122.831C127.791 122.777 127.845 122.67 127.845 122.616C127.899 122.563 127.899 122.509 127.845 122.455C127.845 122.402 127.845 122.402 127.791 122.348C127.738 122.294 127.684 122.24 127.63 122.24L127.469 122.079C127.469 122.133 127.523 122.133 127.523 122.187L127.577 122.24H127.469C127.415 122.24 127.362 122.24 127.254 122.24C127.093 122.24 126.932 122.294 126.771 122.348C126.449 122.402 126.127 122.509 125.805 122.616C125.483 122.724 125.161 122.831 124.838 122.938C124.516 123.046 124.194 123.153 123.872 123.261L122.906 123.583C122.584 123.69 122.261 123.797 121.939 123.905C121.617 124.012 121.295 124.12 120.919 124.227L119.899 124.442L118.879 124.549L117.805 124.603C117.43 124.603 117.107 124.549 116.732 124.549C116.409 124.495 116.034 124.442 115.712 124.388C115.389 124.334 115.014 124.227 114.691 124.066C114.369 123.958 114.047 123.797 113.725 123.636C113.403 123.475 113.135 123.314 112.866 123.099C112.759 122.938 112.544 122.724 112.276 122.509Z" fill="#FFD37D"/>
<path d="M111.201 120.953C110.933 120.577 110.879 120.147 110.933 119.718L110.987 119.396C110.987 119.288 111.04 119.181 111.094 119.074C111.148 118.966 111.201 118.859 111.201 118.751C111.255 118.644 111.309 118.537 111.362 118.429C111.416 118.322 111.47 118.215 111.524 118.161L111.738 117.892C111.792 117.785 111.899 117.731 111.953 117.624L112.168 117.356C112.329 117.194 112.49 117.033 112.651 116.926C112.812 116.819 112.973 116.658 113.188 116.55L113.242 117.248C112.651 116.872 112.114 116.497 111.577 116.121L111.201 115.852L111.577 115.691C112.007 115.53 112.436 115.369 112.866 115.208C112.544 115.53 112.168 115.799 111.792 116.121V115.691C112.436 115.96 113.027 116.228 113.617 116.55L114.154 116.819L113.671 117.194C113.51 117.302 113.349 117.463 113.188 117.57L112.758 117.946L112.544 118.161C112.49 118.215 112.383 118.268 112.329 118.376L112.114 118.59C112.06 118.644 112.007 118.751 111.953 118.805C111.846 118.966 111.738 119.127 111.631 119.288C111.577 119.396 111.524 119.449 111.524 119.557L111.416 119.825C111.363 119.986 111.309 120.201 111.255 120.362C111.201 120.577 111.201 120.738 111.201 120.953Z" fill="#FFD37D"/>
<path d="M120.704 126.912C121.348 127.61 121.939 128.308 122.529 129.006L122.261 128.898C122.583 128.845 122.959 128.791 123.281 128.737L124.301 128.523C124.999 128.361 125.643 128.2 126.287 128.039L126.771 127.878C126.932 127.825 127.093 127.771 127.254 127.717C127.576 127.61 127.898 127.502 128.22 127.341C128.542 127.18 128.864 127.073 129.186 126.912C129.509 126.751 129.831 126.643 130.153 126.482L130.314 126.429L130.421 126.536C131.065 126.912 131.656 127.341 132.247 127.771H132.086C132.569 127.556 133.052 127.341 133.535 127.127C133.106 127.449 132.676 127.771 132.247 128.093L132.193 128.147L132.086 128.093C131.441 127.771 130.743 127.449 130.099 127.127H130.421C130.099 127.288 129.777 127.449 129.509 127.61C129.186 127.771 128.864 127.932 128.542 128.093C128.22 128.254 127.898 128.361 127.522 128.523C127.361 128.576 127.2 128.63 126.985 128.684L126.448 128.845C126.126 128.952 125.75 129.006 125.428 129.113C125.052 129.167 124.73 129.221 124.355 129.274C123.979 129.328 123.657 129.382 123.281 129.382C122.905 129.435 122.583 129.435 122.207 129.435H122.046L121.992 129.328C121.616 128.523 121.133 127.717 120.704 126.912Z" fill="#FFD37D"/>
<path d="M145.506 117.788V121.17C145.506 124.391 143.358 127.666 139.117 130.136C130.527 135.129 116.568 135.129 107.924 130.136C103.576 127.612 101.428 124.337 101.428 121.063V117.68C101.428 120.955 103.576 124.284 107.924 126.753C116.568 131.746 130.527 131.746 139.117 126.753C143.358 124.284 145.506 121.009 145.506 117.788Z" fill="#EC8926"/>
<path d="M139.011 108.66C147.655 113.653 147.708 121.706 139.118 126.699C130.528 131.692 116.569 131.692 107.926 126.699C99.2819 121.706 99.2281 113.653 107.818 108.66C116.408 103.721 130.367 103.721 139.011 108.66Z" fill="#F8B617"/>
<path d="M133.052 114.244C134.77 115.21 135.629 116.284 135.683 117.465C135.737 118.646 134.878 119.827 133.214 121.116L135.093 122.19L132.355 123.8L130.422 122.673C129.294 123.317 128.06 123.8 126.717 124.176C125.375 124.552 123.926 124.82 122.369 125.035L119.738 121.384C121.295 121.277 122.691 121.062 123.926 120.74C125.16 120.418 126.234 119.988 127.147 119.505C127.684 119.183 128.006 118.861 128.167 118.593C128.274 118.324 128.167 118.056 127.845 117.895C127.63 117.734 127.254 117.734 126.825 117.787C126.449 117.841 125.644 118.109 124.409 118.593L122.315 119.398C120.704 120.042 119.094 120.311 117.483 120.203C115.872 120.15 114.423 119.72 113.188 119.022C111.792 118.217 111.094 117.25 111.148 116.123C111.148 114.995 111.899 113.868 113.403 112.794L111.631 111.774L114.369 110.164L116.087 111.13C117.966 110.164 120.06 109.466 122.422 109.036L124.892 112.58C122.369 112.902 120.597 113.385 119.469 114.029C118.933 114.351 118.557 114.673 118.449 114.942C118.342 115.264 118.449 115.479 118.772 115.693C119.255 115.962 120.328 115.747 122.046 114.995C122.1 114.995 122.154 114.942 122.154 114.942L122.261 114.888L124.14 114.136C125.805 113.492 127.362 113.17 128.865 113.17C130.583 113.277 131.871 113.6 133.052 114.244Z" fill="#EC8923"/>
<path d="M112.436 118.378C112.704 118.592 113.026 118.753 113.295 118.914C113.456 118.968 113.617 119.076 113.778 119.129C113.939 119.183 114.1 119.237 114.261 119.29C114.583 119.398 114.905 119.505 115.227 119.559C115.55 119.612 115.872 119.72 116.194 119.72C116.516 119.773 116.838 119.773 117.16 119.827C117.482 119.827 117.804 119.827 118.127 119.827L119.093 119.72L120.059 119.559L121.026 119.344C121.348 119.237 121.67 119.129 121.992 119.022L123.925 118.378C124.247 118.27 124.569 118.163 124.891 118.055C125.213 117.948 125.535 117.841 125.911 117.787C126.233 117.68 126.556 117.626 126.931 117.572C127.092 117.519 127.307 117.519 127.468 117.519C127.576 117.519 127.629 117.519 127.79 117.519H127.951C128.005 117.519 128.059 117.519 128.059 117.572H128.112L128.166 117.626C128.22 117.68 128.22 117.68 128.22 117.733L128.059 117.572C128.22 117.626 128.274 117.733 128.381 117.841C128.488 117.948 128.542 118.109 128.596 118.27C128.596 118.431 128.542 118.592 128.488 118.7C128.435 118.861 128.327 118.914 128.274 119.022C128.166 119.129 128.112 119.183 128.005 119.237C127.898 119.29 127.844 119.344 127.737 119.398C127.576 119.505 127.361 119.612 127.146 119.72C126.931 119.827 126.77 119.881 126.556 119.988C126.341 120.096 126.18 120.149 125.965 120.203C125.589 120.364 125.16 120.418 124.784 120.525C125.16 120.364 125.535 120.149 125.911 119.988C126.072 119.881 126.287 119.827 126.448 119.72C126.609 119.612 126.824 119.505 126.985 119.398C127.146 119.29 127.307 119.183 127.468 119.076C127.522 119.022 127.629 118.968 127.683 118.914C127.737 118.861 127.844 118.807 127.898 118.7C127.951 118.646 128.005 118.539 128.005 118.485C128.059 118.431 128.059 118.378 128.005 118.324C128.005 118.27 128.005 118.27 127.951 118.216C127.898 118.163 127.844 118.109 127.79 118.109L127.629 117.948C127.629 118.002 127.683 118.002 127.683 118.055L127.737 118.109H127.629C127.576 118.109 127.522 118.109 127.415 118.109C127.253 118.109 127.092 118.163 126.931 118.216C126.609 118.27 126.287 118.378 125.965 118.485C125.643 118.592 125.321 118.7 124.999 118.807C124.676 118.914 124.354 119.022 124.032 119.129L123.066 119.505C122.744 119.612 122.422 119.72 122.099 119.827C121.777 119.935 121.455 120.042 121.079 120.149L120.059 120.364L119.039 120.471L117.965 120.525C117.59 120.525 117.268 120.471 116.892 120.471C116.57 120.418 116.194 120.364 115.872 120.31C115.55 120.257 115.174 120.149 114.852 119.988C114.529 119.881 114.207 119.72 113.885 119.559C113.563 119.398 113.295 119.237 113.026 119.022C112.919 118.861 112.65 118.646 112.436 118.378Z" fill="#FFD37D"/>
<path d="M111.361 116.874C111.146 116.499 111.038 116.069 111.092 115.586L111.146 115.264C111.146 115.156 111.2 115.049 111.253 114.942C111.307 114.834 111.361 114.727 111.361 114.62C111.414 114.512 111.468 114.405 111.522 114.297C111.575 114.19 111.629 114.083 111.683 114.029L111.897 113.761C111.951 113.653 112.059 113.599 112.112 113.492L112.327 113.224C112.488 113.063 112.649 112.902 112.81 112.794C112.971 112.687 113.132 112.526 113.347 112.418L113.401 113.116C112.81 112.74 112.273 112.365 111.736 111.935L111.361 111.667L111.736 111.506C112.166 111.345 112.595 111.184 113.025 111.022C112.703 111.345 112.327 111.667 112.005 111.935V111.506C112.649 111.774 113.24 112.096 113.83 112.365L114.367 112.633L113.884 113.063C113.723 113.17 113.562 113.331 113.401 113.438L112.971 113.814L112.757 114.029C112.703 114.083 112.595 114.136 112.542 114.244L112.327 114.458C112.273 114.512 112.22 114.62 112.166 114.673C112.059 114.834 111.951 114.995 111.844 115.156C111.79 115.264 111.736 115.317 111.736 115.425L111.629 115.693C111.575 115.854 111.522 116.069 111.468 116.23C111.361 116.445 111.361 116.66 111.361 116.874Z" fill="#FFD37D"/>
<path d="M120.809 122.834C121.454 123.532 122.044 124.23 122.635 124.928L122.366 124.82C122.688 124.766 123.064 124.713 123.386 124.605L124.406 124.391C125.104 124.23 125.749 124.069 126.393 123.908L126.876 123.746C127.037 123.693 127.198 123.639 127.359 123.585C127.681 123.478 128.003 123.371 128.326 123.21C128.648 123.048 128.97 122.941 129.292 122.78C129.614 122.619 129.936 122.512 130.258 122.351L130.419 122.297L130.527 122.404C131.171 122.78 131.762 123.21 132.352 123.639H132.191C132.674 123.424 133.157 123.21 133.641 122.995C133.211 123.317 132.782 123.639 132.352 123.961L132.298 124.015L132.191 123.961C131.547 123.639 130.849 123.317 130.205 122.995H130.527C130.205 123.156 129.882 123.317 129.614 123.478C129.292 123.639 128.97 123.8 128.648 123.961C128.326 124.122 128.003 124.23 127.628 124.391C127.467 124.444 127.305 124.498 127.091 124.552L126.554 124.713C126.232 124.82 125.856 124.874 125.534 124.981C125.212 125.035 124.836 125.089 124.46 125.142C124.084 125.196 123.762 125.25 123.386 125.25C123.01 125.303 122.688 125.303 122.313 125.303H122.151L122.098 125.196C121.722 124.498 121.239 123.693 120.809 122.834Z" fill="#FFD37D"/>
<path d="M145.506 113.277V116.659C145.506 119.88 143.358 123.155 139.117 125.625C130.527 130.618 116.568 130.618 107.924 125.625C103.576 123.102 101.428 119.827 101.428 116.552V113.169C101.428 116.444 103.576 119.773 107.924 122.243C116.568 127.236 130.527 127.236 139.117 122.243C143.358 119.773 145.506 116.552 145.506 113.277Z" fill="#EC8926"/>
<path d="M139.011 104.203C147.655 109.196 147.708 117.249 139.118 122.242C130.528 127.235 116.569 127.235 107.926 122.242C99.2819 117.249 99.2281 109.196 107.818 104.203C116.408 99.2103 130.367 99.2103 139.011 104.203Z" fill="#F8B617"/>
<path d="M133.052 109.786C134.77 110.753 135.629 111.826 135.683 113.008C135.737 114.189 134.878 115.37 133.214 116.658L135.093 117.732L132.355 119.343L130.422 118.215C129.294 118.86 128.06 119.343 126.717 119.719C125.375 120.094 123.926 120.363 122.369 120.578L119.738 116.927C121.295 116.819 122.691 116.605 123.926 116.283C125.16 115.96 126.234 115.531 127.147 115.048C127.684 114.726 128.006 114.403 128.167 114.135C128.274 113.867 128.167 113.598 127.845 113.437C127.63 113.276 127.254 113.276 126.825 113.33C126.449 113.383 125.644 113.652 124.409 114.135L122.315 114.94C120.704 115.585 119.094 115.853 117.483 115.746C115.872 115.692 114.423 115.262 113.188 114.565C111.792 113.759 111.094 112.793 111.148 111.665C111.148 110.538 111.899 109.411 113.403 108.337L111.631 107.317L114.369 105.706L116.087 106.672C117.966 105.706 120.06 105.008 122.422 104.579L124.892 108.122C122.369 108.444 120.597 108.927 119.469 109.572C118.933 109.894 118.557 110.216 118.449 110.484C118.342 110.806 118.449 111.021 118.772 111.236C119.255 111.504 120.328 111.29 122.046 110.538C122.1 110.538 122.154 110.484 122.154 110.484L122.261 110.431L124.14 109.679C125.805 109.035 127.362 108.713 128.865 108.713C130.583 108.766 131.871 109.088 133.052 109.786Z" fill="#EC8923"/>
<path d="M112.436 113.921C112.704 114.136 113.026 114.297 113.295 114.458C113.456 114.512 113.617 114.619 113.778 114.673C113.939 114.726 114.1 114.78 114.261 114.834C114.583 114.941 114.905 115.048 115.227 115.102C115.55 115.156 115.872 115.263 116.194 115.263C116.516 115.317 116.838 115.317 117.16 115.371C117.482 115.371 117.804 115.371 118.127 115.371L119.093 115.263L120.059 115.102L121.026 114.887C121.348 114.78 121.67 114.673 121.992 114.565L123.925 113.921C124.247 113.814 124.569 113.706 124.891 113.599C125.213 113.492 125.535 113.384 125.911 113.33C126.233 113.223 126.556 113.169 126.931 113.116C127.092 113.062 127.307 113.062 127.468 113.062C127.576 113.062 127.629 113.062 127.79 113.062H127.951C128.005 113.062 128.059 113.062 128.059 113.116H128.112L128.166 113.169C128.22 113.223 128.22 113.223 128.22 113.277L128.059 113.116C128.22 113.169 128.274 113.277 128.381 113.384C128.488 113.492 128.542 113.653 128.596 113.814C128.596 113.975 128.542 114.136 128.488 114.243C128.435 114.404 128.327 114.458 128.274 114.565C128.166 114.673 128.112 114.726 128.005 114.78C127.898 114.834 127.844 114.887 127.737 114.941C127.576 115.048 127.361 115.156 127.146 115.263C126.931 115.371 126.77 115.424 126.556 115.532C126.341 115.639 126.18 115.693 125.965 115.746C125.589 115.907 125.16 115.961 124.784 116.069C125.16 115.907 125.535 115.693 125.911 115.532C126.072 115.424 126.287 115.371 126.448 115.263C126.609 115.156 126.824 115.048 126.985 114.941C127.146 114.834 127.307 114.726 127.468 114.619C127.522 114.565 127.629 114.512 127.683 114.458C127.737 114.404 127.844 114.351 127.898 114.243C127.951 114.189 128.005 114.082 128.005 114.028C128.059 113.975 128.059 113.921 128.005 113.867C128.005 113.814 128.005 113.814 127.951 113.76C127.898 113.706 127.844 113.653 127.79 113.653L127.629 113.492C127.629 113.545 127.683 113.545 127.683 113.599L127.737 113.653H127.629C127.576 113.653 127.522 113.653 127.415 113.653C127.253 113.653 127.092 113.706 126.931 113.76C126.609 113.814 126.287 113.921 125.965 114.028C125.643 114.136 125.321 114.243 124.999 114.351C124.676 114.458 124.354 114.565 124.032 114.673L123.066 115.048C122.744 115.156 122.422 115.263 122.099 115.371C121.777 115.478 121.455 115.585 121.079 115.693L120.059 115.907L119.039 116.015L117.965 116.069C117.59 116.069 117.268 116.015 116.892 116.015C116.57 115.961 116.194 115.907 115.872 115.854C115.55 115.8 115.174 115.693 114.852 115.532C114.529 115.424 114.207 115.263 113.885 115.102C113.563 114.941 113.295 114.78 113.026 114.565C112.919 114.404 112.65 114.189 112.436 113.921Z" fill="#FFD37D"/>
<path d="M111.361 112.364C111.146 111.988 111.038 111.559 111.092 111.076L111.146 110.754C111.146 110.646 111.2 110.539 111.253 110.431C111.307 110.324 111.361 110.217 111.361 110.109C111.414 110.002 111.468 109.895 111.522 109.787C111.575 109.68 111.629 109.572 111.683 109.519L111.897 109.25C111.951 109.143 112.059 109.089 112.112 108.982L112.327 108.713C112.488 108.552 112.649 108.391 112.81 108.284C112.971 108.177 113.132 108.015 113.347 107.908L113.401 108.606C112.81 108.23 112.273 107.854 111.736 107.425L111.361 107.156L111.736 106.995C112.166 106.834 112.595 106.673 113.025 106.512C112.703 106.834 112.327 107.103 112.005 107.425V106.995C112.649 107.264 113.24 107.586 113.83 107.854L114.367 108.123L113.884 108.552C113.723 108.66 113.562 108.821 113.401 108.928L112.971 109.304L112.757 109.519C112.703 109.572 112.595 109.626 112.542 109.733L112.327 109.948C112.273 110.002 112.22 110.109 112.166 110.163C112.059 110.324 111.951 110.485 111.844 110.646C111.79 110.754 111.736 110.807 111.736 110.915L111.629 111.183C111.575 111.344 111.522 111.559 111.468 111.72C111.361 111.988 111.361 112.203 111.361 112.364Z" fill="#FFD37D"/>
<path d="M120.809 118.377C121.454 119.075 122.044 119.773 122.635 120.471L122.366 120.363C122.688 120.309 123.064 120.256 123.386 120.202L124.406 119.987C125.104 119.826 125.749 119.665 126.393 119.504L126.876 119.343C127.037 119.289 127.198 119.236 127.359 119.182C127.681 119.075 128.003 118.967 128.326 118.806C128.648 118.645 128.97 118.538 129.292 118.377C129.614 118.216 129.936 118.108 130.258 117.947L130.419 117.894L130.527 118.001C131.171 118.377 131.762 118.806 132.352 119.236H132.191C132.674 119.021 133.157 118.806 133.641 118.591C133.211 118.914 132.782 119.236 132.352 119.558L132.298 119.612L132.191 119.558C131.547 119.236 130.849 118.914 130.205 118.591H130.527C130.205 118.753 129.882 118.914 129.614 119.075C129.292 119.236 128.97 119.397 128.648 119.558C128.326 119.719 128.003 119.826 127.628 119.987C127.467 120.041 127.305 120.095 127.091 120.148L126.554 120.31C126.232 120.417 125.856 120.471 125.534 120.578C125.212 120.632 124.836 120.685 124.46 120.739C124.084 120.793 123.762 120.846 123.386 120.846C123.01 120.9 122.688 120.9 122.313 120.9H122.151L122.098 120.793C121.722 119.987 121.239 119.182 120.809 118.377Z" fill="#FFD37D"/>
<path d="M144.328 108.391V111.773C144.328 114.994 142.181 118.215 137.886 120.685C129.296 125.624 115.283 125.624 106.639 120.685C102.291 118.215 100.089 114.887 100.143 111.666V108.283C100.143 111.558 102.291 114.833 106.639 117.303C115.283 122.242 129.296 122.242 137.886 117.303C142.181 114.887 144.328 111.666 144.328 108.391Z" fill="#EC8926"/>
<path d="M137.773 99.371C146.416 104.31 146.47 112.363 137.88 117.356C129.29 122.296 115.277 122.296 106.634 117.356C97.9899 112.417 97.9362 104.364 106.526 99.371C115.17 94.4317 129.129 94.4317 137.773 99.371Z" fill="#F8B617"/>
<path d="M131.816 104.901C133.534 105.867 134.393 106.941 134.447 108.122C134.501 109.249 133.642 110.484 131.977 111.773L133.91 112.846L131.172 114.457L129.239 113.383C128.112 114.028 126.877 114.511 125.535 114.887C124.192 115.262 122.743 115.531 121.186 115.692L118.555 112.041C120.112 111.934 121.508 111.719 122.797 111.397C124.031 111.075 125.105 110.645 126.018 110.162C126.555 109.84 126.877 109.571 127.038 109.249C127.145 108.981 127.038 108.712 126.716 108.551C126.501 108.39 126.125 108.39 125.696 108.444C125.32 108.498 124.515 108.766 123.28 109.249L121.186 110.055C119.575 110.699 117.965 110.967 116.354 110.86C114.743 110.806 113.294 110.377 112.059 109.679C110.663 108.874 109.965 107.907 110.019 106.78C110.019 105.652 110.771 104.578 112.274 103.451L110.502 102.431L113.24 100.874L114.958 101.84C116.837 100.874 118.931 100.176 121.347 99.7466L123.817 103.236C121.293 103.558 119.522 104.042 118.394 104.686C117.857 105.008 117.482 105.33 117.374 105.599C117.267 105.921 117.374 106.135 117.696 106.35C118.179 106.619 119.253 106.404 120.971 105.706C121.025 105.706 121.079 105.652 121.079 105.652L121.186 105.599L123.065 104.847C124.729 104.203 126.286 103.881 127.843 103.881C129.347 103.934 130.689 104.256 131.816 104.901Z" fill="#EC8923"/>
<path d="M111.149 109.035C111.417 109.25 111.739 109.411 112.008 109.572C112.169 109.625 112.33 109.733 112.491 109.786C112.652 109.84 112.813 109.894 112.974 109.948C113.296 110.055 113.618 110.162 113.94 110.216C114.262 110.27 114.585 110.377 114.907 110.377C115.229 110.431 115.551 110.431 115.873 110.484C116.195 110.484 116.517 110.484 116.839 110.484L117.806 110.377L118.772 110.216L119.739 110.001C120.061 109.894 120.383 109.786 120.705 109.679L122.638 109.035C122.96 108.927 123.282 108.82 123.604 108.713C123.926 108.605 124.248 108.498 124.624 108.444C124.946 108.337 125.268 108.283 125.644 108.229C125.805 108.176 126.02 108.176 126.181 108.176C126.289 108.176 126.342 108.176 126.503 108.176H126.664C126.718 108.176 126.772 108.176 126.772 108.229H126.825L126.879 108.283C126.933 108.337 126.933 108.337 126.933 108.391L126.772 108.229C126.933 108.283 127.04 108.391 127.094 108.498C127.201 108.605 127.255 108.766 127.309 108.927C127.309 109.088 127.255 109.25 127.201 109.357C127.147 109.518 127.04 109.572 126.986 109.679C126.879 109.786 126.825 109.84 126.718 109.894C126.611 109.947 126.557 110.001 126.45 110.055C126.289 110.162 126.074 110.27 125.859 110.377C125.644 110.484 125.483 110.538 125.268 110.645C125.054 110.753 124.893 110.806 124.678 110.86C124.302 111.021 123.873 111.075 123.497 111.182C123.873 111.021 124.248 110.807 124.624 110.645C124.785 110.538 125 110.484 125.161 110.377C125.322 110.27 125.537 110.162 125.698 110.055C125.859 109.947 126.02 109.84 126.181 109.733C126.235 109.679 126.342 109.625 126.396 109.572C126.45 109.518 126.557 109.464 126.611 109.357C126.664 109.303 126.718 109.196 126.718 109.142C126.772 109.089 126.772 109.035 126.718 108.981C126.718 108.927 126.718 108.927 126.664 108.874C126.611 108.82 126.557 108.766 126.503 108.766L126.342 108.605C126.342 108.659 126.396 108.659 126.396 108.713L126.45 108.766H126.342C126.288 108.766 126.235 108.766 126.127 108.766C125.966 108.766 125.805 108.82 125.644 108.874C125.322 108.927 125 109.035 124.678 109.142C124.356 109.25 124.034 109.357 123.711 109.464C123.389 109.572 123.067 109.679 122.745 109.786L121.779 110.109C121.457 110.216 121.135 110.323 120.812 110.431C120.49 110.538 120.168 110.645 119.792 110.753L118.772 110.968L117.752 111.075L116.678 111.129C116.303 111.129 115.98 111.075 115.605 111.075C115.282 111.021 114.907 110.968 114.585 110.914C114.262 110.86 113.887 110.753 113.565 110.592C113.242 110.484 112.92 110.323 112.598 110.162C112.276 110.001 112.008 109.84 111.739 109.625C111.685 109.518 111.417 109.303 111.149 109.035Z" fill="#FFD37D"/>
<path d="M110.073 107.532C109.858 107.156 109.75 106.726 109.804 106.243L109.858 105.921C109.858 105.814 109.911 105.706 109.965 105.599C110.019 105.492 110.073 105.384 110.073 105.277C110.126 105.169 110.18 105.062 110.234 104.955C110.287 104.847 110.341 104.74 110.395 104.686L110.609 104.418C110.663 104.31 110.77 104.257 110.824 104.149L111.039 103.881C111.2 103.72 111.361 103.559 111.522 103.451C111.683 103.344 111.844 103.183 112.059 103.076L112.113 103.774C111.522 103.398 110.985 103.022 110.448 102.646L110.073 102.378L110.448 102.217C110.878 102.056 111.307 101.894 111.737 101.733C111.415 102.056 111.039 102.324 110.663 102.646V102.217C111.307 102.485 111.898 102.753 112.489 103.076L113.025 103.344L112.542 103.72C112.381 103.827 112.22 103.988 112.059 104.096L111.629 104.471L111.415 104.686C111.361 104.74 111.254 104.794 111.2 104.901L110.985 105.116C110.932 105.169 110.878 105.277 110.824 105.33C110.717 105.492 110.609 105.653 110.502 105.814C110.448 105.921 110.395 105.975 110.395 106.082L110.287 106.351C110.234 106.512 110.18 106.726 110.126 106.887C110.073 107.102 110.073 107.317 110.073 107.532Z" fill="#FFD37D"/>
<path d="M119.576 113.437C120.22 114.135 120.811 114.833 121.401 115.531L121.133 115.424C121.455 115.37 121.831 115.316 122.153 115.263L123.173 115.048C123.871 114.887 124.515 114.726 125.159 114.565L125.643 114.404C125.804 114.35 125.965 114.296 126.126 114.243C126.448 114.135 126.77 114.028 127.038 113.867C127.361 113.706 127.683 113.598 128.005 113.437C128.327 113.276 128.649 113.169 128.971 113.008L129.132 112.954L129.24 113.061C129.884 113.437 130.474 113.867 131.065 114.296H130.904C131.387 114.082 131.87 113.867 132.354 113.652C131.924 113.974 131.494 114.296 131.065 114.618L131.011 114.672L130.904 114.618C130.26 114.296 129.562 113.974 128.917 113.652H129.24C128.917 113.813 128.595 113.974 128.327 114.135C128.005 114.296 127.683 114.457 127.361 114.618C127.038 114.779 126.716 114.887 126.34 115.048C126.179 115.102 126.018 115.155 125.804 115.209L125.267 115.37C124.945 115.477 124.569 115.531 124.193 115.638C123.871 115.692 123.495 115.746 123.119 115.8C122.743 115.853 122.421 115.907 122.045 115.907C121.67 115.961 121.347 115.961 120.972 115.961H120.811L120.757 115.853C120.488 115.102 120.005 114.296 119.576 113.437Z" fill="#FFD37D"/>
<path d="M141.588 114.243H142.018V117.625H141.588V114.243Z" fill="#FFD37D"/>
<path d="M139.817 115.961H140.246V119.343H139.817V115.961Z" fill="#FFD37D"/>
<path d="M138.045 117.625H138.475V121.008H138.045V117.625Z" fill="#FFD37D"/>
<path d="M136.274 118.431H136.703V121.813H136.274V118.431Z" fill="#FFD37D"/>
<path d="M102.504 114.296H102.934V117.678H102.504V114.296Z" fill="#FFD37D"/>
<path d="M101.43 112.793H101.859V116.176H101.43V112.793Z" fill="#FFD37D"/>
<path d="M133.856 119.29H134.285V122.672H133.856V119.29Z" fill="#FFD37D"/>
<path d="M131.654 120.147H132.084V123.53H131.654V120.147Z" fill="#FFD37D"/>
<path d="M46.009 19.2598L45.5832 21.8998L45.0723 25.8173L48.053 27.6057V19.5152L46.009 19.2598Z" fill="#B0BFDE"/>
<path d="M44.5624 7.42222C45.6696 11.2545 41.5817 15.7682 35.5352 17.5566C29.4035 19.345 23.6124 17.6417 22.5053 13.8094C21.3982 9.9771 25.486 5.46349 31.5325 3.67507C37.5791 1.97182 43.4553 3.5899 44.5624 7.42222Z" fill="#3F0205"/>
<path d="M43.2864 5.46368C39.5393 6.5708 37.325 10.4883 38.4322 14.3206C38.6025 14.8316 38.7728 15.2574 39.0283 15.6832C39.5393 15.3425 40.1354 15.0871 40.8167 14.9167C44.138 13.9799 47.5446 15.5129 49.0775 18.4936C51.7175 16.8755 53.0801 13.5541 52.1433 10.4031C51.0362 6.5708 47.1188 4.35657 43.2864 5.46368Z" fill="#3F0205"/>
<path d="M55.7196 7.76275C53.4202 8.44405 51.0357 7.84791 49.3324 6.40015C46.6072 8.01824 45.2446 11.3396 46.1814 14.4906C47.2885 18.3229 51.206 20.5371 55.0383 19.43C58.7855 18.3229 60.9997 14.4054 59.8926 10.5731C59.4668 9.12534 58.6151 7.84791 57.508 6.99628C56.9119 7.33693 56.3158 7.59243 55.7196 7.76275Z" fill="#3F0205"/>
<path d="M6.23828 168.294C6.23828 168.294 25.3147 150.665 48.4789 144.704L58.8688 149.558C58.8688 149.558 31.4464 159.352 15.6062 174L6.23828 168.294Z" fill="#592D2D"/>
<path d="M48.0531 144.789C25.0592 150.921 6.23828 168.294 6.23828 168.294L9.13378 169.997C10.9222 168.549 12.7958 167.272 14.5842 165.909C18.672 162.929 22.7598 160.033 27.1031 157.393C33.5755 153.561 40.644 149.728 48.0531 147.429V144.789Z" fill="#351E1E"/>
<path d="M67.8943 126.82L70.0233 142.064L60.3148 144.533L55.2051 144.704L65.1691 139.764L62.529 126.734L67.8943 126.82Z" fill="#EDEEF0"/>
<path d="M72.7499 52.3029C72.7499 52.3029 53.418 88.2415 53.418 90.7112C53.418 93.1809 62.1046 128.779 62.1046 128.779L69.5137 129.716C69.5137 129.716 64.9149 98.3759 65.7665 95.1397C66.7885 90.8815 91.3154 61.7559 87.5682 52.8138C83.8211 43.8718 72.7499 52.3029 72.7499 52.3029Z" fill="#8B5F32"/>
<path d="M70.1091 144.533L68.0652 144.704L66.9581 143.341L58.3566 145.896L52.9062 146.322C52.9062 146.322 53.332 145.47 53.6727 145.215C54.6946 144.363 58.6122 142.915 58.6122 142.915C58.6122 142.915 58.527 144.193 59.1231 144.363C59.7192 144.533 65.6806 142.915 67.0432 142.319C69.4278 141.382 70.0239 140.616 70.1943 140.786C70.7052 141.042 70.1091 144.533 70.1091 144.533Z" fill="#161711"/>
<path d="M19.6041 76.6596C19.6041 76.6596 19.1783 76.2338 18.8376 76.5745C18.3267 77.0854 17.7305 78.5332 17.5602 79.0442C17.3899 79.6403 16.8789 82.4507 16.8789 82.4507C16.8789 82.4507 17.7305 81.7694 17.9008 80.5771C18.1563 78.959 19.6041 76.6596 19.6041 76.6596Z" fill="white"/>
<path d="M19.4373 77.0008C18.6708 77.7673 18.5856 79.0448 18.7559 80.5777C18.9262 82.0254 18.245 82.7067 18.245 82.7067C18.245 82.7067 17.9895 81.7699 17.9043 79.4706C17.9043 78.8744 17.9043 78.108 18.0746 77.5118C18.8411 75.7234 21.396 74.9569 19.4373 77.0008Z" fill="white"/>
<path d="M42.6834 52.3883C40.8098 58.2645 25.6509 70.4427 25.6509 70.4427C25.6509 70.4427 18.7527 73.4234 35.7001 53.836C40.8098 47.9598 43.1092 50.9405 42.6834 52.3883Z" fill="white"/>
<path d="M19.0946 78.1929L18.7539 77.7671L19.0094 75.8935C19.0094 75.8935 20.7978 72.998 21.8198 72.1463C22.9269 71.2947 25.4818 66.6959 25.9927 66.2701C26.4185 65.8443 29.3141 66.6959 29.3141 66.6959C29.3141 66.6959 25.5669 70.6134 24.2043 72.3167C22.8417 74.0199 21.7346 77.0858 21.2236 77.7671C20.372 78.9593 20.0313 79.5555 20.0313 79.5555C20.0313 79.5555 19.4352 79.0445 20.7127 77.0858C21.0533 76.5748 20.2869 76.4896 20.2869 76.4896L19.0946 78.1929Z" fill="white"/>
<path d="M19.688 75.8076C19.688 75.8076 18.666 77.2554 18.666 78.107C18.666 78.7032 19.177 81.5987 19.177 81.5987C19.177 81.5987 19.688 80.6619 19.5176 79.4696C19.2622 77.8515 19.688 75.8076 19.688 75.8076Z" fill="white"/>
<path d="M29.3184 59.3712L35.3649 50.855C35.3649 50.855 42.5185 29.0533 45.1586 27.9462C48.3096 26.5836 53.6748 26.3281 53.6748 26.3281L44.5625 52.6434L39.1121 63.2036L29.3184 59.3712Z" fill="#E79B4E"/>
<path d="M44.0478 63.5446C46.3472 64.9072 48.6466 66.2697 51.0311 67.5472C46.6027 64.9923 40.471 65.333 33.7431 69.2504L26.7598 65.2478C33.5728 61.3303 39.7045 60.9897 44.0478 63.5446Z" fill="#EC8922"/>
<path d="M16.6265 126.82C14.3272 125.457 12.0278 124.095 9.64325 122.817C5.29996 120.262 2.57471 114.897 2.57471 107.233C2.48955 91.8181 13.3904 73.0823 26.7609 65.3325L33.7443 69.3351C20.2886 77.0849 9.4729 95.8207 9.55806 111.235C9.55806 118.815 12.2833 124.265 16.6265 126.82Z" fill="#EC8922"/>
<path d="M33.7433 69.251C47.199 61.5012 58.0998 67.7181 58.0998 83.1325C58.185 98.547 47.2842 117.283 33.9137 125.033C20.458 132.782 9.55714 126.565 9.55714 111.151C9.47197 95.8218 20.3728 77.0008 33.7433 69.251Z" fill="#F9B616"/>
<path d="M37.5748 77.937V80.8325C40.2148 79.4699 42.6846 78.7886 44.984 78.8738L42.3439 87.7307C40.0445 87.3901 38.0857 87.7307 36.3825 88.6675C35.5309 89.1785 34.9347 89.6895 34.4238 90.2856C33.9128 90.8817 33.7425 91.4779 33.7425 92.074C33.7425 92.8405 34.8496 92.8405 37.0638 91.9888C37.1489 91.9888 37.149 91.9888 37.2341 91.9037C37.3193 91.9037 37.3193 91.9037 37.4045 91.9037L39.789 91.0521C41.8329 90.2856 43.451 90.2856 44.5581 90.8817C45.6653 91.563 46.2614 92.8405 46.2614 94.7992C46.2614 97.6947 45.5801 100.42 44.1323 103.06C42.6846 105.615 40.4703 107.999 37.5748 110.128V113.365L33.487 115.749V112.513C31.8689 113.45 30.2508 114.046 28.8031 114.301C27.2701 114.557 25.9075 114.557 24.5449 114.301L27.2701 105.104C28.5475 105.53 29.9102 105.615 31.1876 105.445C32.5502 105.274 33.8276 104.763 35.1902 103.997C36.0419 103.486 36.638 102.975 37.0638 102.379C37.4896 101.783 37.7451 101.186 37.7451 100.675C37.7451 100.25 37.4896 100.079 37.0638 99.9941C36.7231 99.909 35.7864 100.164 34.2534 100.761L31.6986 101.612C29.7398 102.294 28.1217 102.208 27.0146 101.357C25.9075 100.505 25.3965 99.0573 25.3114 96.9283C25.3114 94.5437 26.0778 92.074 27.5256 89.6043C28.9734 87.1346 30.9321 85.0055 33.487 83.2171V80.2364L37.5748 77.937Z" fill="#EC8922"/>
<path d="M32.635 83.9834C31.7834 84.6647 31.0169 85.5163 30.3356 86.2828C29.9949 86.7086 29.6543 87.1344 29.3136 87.5602C28.973 87.986 28.6323 88.4118 28.3768 88.9228C28.1214 89.3486 27.7807 89.8596 27.5252 90.2854C27.2697 90.7112 27.0994 91.2222 26.8439 91.7332C26.6736 92.2442 26.4181 92.7551 26.3329 93.2661C26.1626 93.7771 26.0774 94.2881 25.9923 94.799L25.822 95.5655V96.332V96.7578V97.0133V97.1836C25.822 97.4391 25.8219 97.6946 25.9071 97.9501C25.9923 98.461 26.0775 98.972 26.2478 99.3978C26.4181 99.8237 26.6736 100.335 27.0142 100.675L27.2697 100.931C27.3549 101.016 27.44 101.101 27.6104 101.101C27.7807 101.271 28.0362 101.357 28.2917 101.442C28.5471 101.527 28.8026 101.527 29.0581 101.612C29.3136 101.697 29.5691 101.697 29.8246 101.612C30.3355 101.612 30.8466 101.527 31.3575 101.442C31.8685 101.357 32.3795 101.101 32.8905 101.016C33.4014 100.76 33.9124 100.59 34.5085 100.335C35.0195 100.164 35.6156 99.994 36.1266 99.9088C36.3821 99.9088 36.7228 99.8236 36.9783 99.9088C37.1486 99.9088 37.3189 99.994 37.4041 100.079C37.5744 100.164 37.6596 100.249 37.7447 100.42C37.9151 100.675 37.8299 101.016 37.7447 101.271C37.6596 101.527 37.5744 101.782 37.4041 102.038C37.4892 101.782 37.5744 101.527 37.6595 101.271C37.7447 101.016 37.7447 100.675 37.5744 100.505C37.4892 100.249 37.2337 100.249 36.9783 100.164C36.7228 100.164 36.4673 100.164 36.2118 100.249C35.1898 100.505 34.0827 100.931 33.1459 101.442C32.635 101.612 32.124 101.868 31.5278 102.038C31.0168 102.123 30.4207 102.293 29.8246 102.293C29.5691 102.293 29.2284 102.293 28.9729 102.293C28.7175 102.293 28.3768 102.208 28.1213 102.123C27.8658 102.038 27.5252 101.953 27.2697 101.782C27.0994 101.697 27.0142 101.612 26.9291 101.527L26.5884 101.186C26.1626 100.76 25.822 100.249 25.6516 99.6533C25.3961 99.1423 25.311 98.5462 25.2258 97.9501C25.2258 97.6946 25.1406 97.3539 25.1406 97.0984V96.843V96.6726V96.2468L25.2258 95.3952L25.3962 94.5436C25.4813 93.9474 25.6516 93.4364 25.822 92.9255C25.9923 92.4145 26.2477 91.9035 26.4181 91.3925C26.6736 90.8816 26.9291 90.3706 27.1845 89.9448C27.44 89.4338 27.7807 89.008 28.1213 88.5822C28.462 88.1564 28.8026 87.7305 29.1433 87.3047C29.4839 86.8789 29.9097 86.4531 30.2504 86.1125C30.8465 85.346 31.6982 84.5795 32.635 83.9834Z" fill="#FFD37D"/>
<path d="M25.3985 110.98C25.3134 111.577 25.143 112.173 25.0579 112.684C24.9727 113.28 24.8024 113.876 24.632 114.387L24.4617 114.046C24.632 114.046 24.8024 114.131 24.9727 114.131H25.5688C25.7391 114.131 25.9946 114.131 26.165 114.131H26.7611H27.3573L27.9534 114.046L29.1457 113.876L29.7418 113.791L30.338 113.706C30.7638 113.621 31.1044 113.535 31.4451 113.45C31.6154 113.365 31.7857 113.365 31.956 113.28L32.467 113.11C32.6373 113.024 32.8077 112.939 32.8928 112.854C32.978 112.769 33.0632 112.769 33.0632 112.684L33.1483 112.599C33.1483 112.599 33.1483 112.599 33.1483 112.684H33.8296C33.8296 113.791 33.7444 114.813 33.6593 115.92L33.4038 115.75C34.0851 115.409 34.6812 115.068 35.3625 114.813C34.7664 115.239 34.1703 115.664 33.5741 116.09L33.3186 116.261V115.92C33.2335 114.813 33.2335 113.791 33.1483 112.684H33.8296C33.7444 113.024 33.6593 113.024 33.5741 113.195C33.489 113.28 33.4038 113.365 33.3186 113.45C33.1483 113.621 32.978 113.706 32.7225 113.791L32.1263 114.046C31.956 114.131 31.7005 114.217 31.5302 114.217C31.1044 114.387 30.7638 114.472 30.338 114.557C30.1676 114.642 29.9973 114.642 29.7418 114.642L29.1457 114.728L27.9534 114.898L27.3573 114.983H26.7611H26.165C25.9946 114.983 25.7391 114.983 25.5688 114.983C25.143 114.898 24.8024 114.898 24.3766 114.813L24.1211 114.728L24.2062 114.472C24.3766 113.876 24.6321 113.365 24.8024 112.769C24.9727 112.088 25.143 111.491 25.3985 110.98Z" fill="#FFD37D"/>
<path d="M35.2754 79.299C35.616 79.0435 36.0418 78.788 36.3825 78.5325C36.7231 78.277 37.1489 78.0215 37.4896 77.766L37.8303 77.5957V78.0215C37.9154 78.9583 37.9154 79.9803 38.0006 80.917L37.4896 80.5764C38.0857 80.3209 38.6819 80.0654 39.278 79.8099C39.8742 79.5544 40.4703 79.3841 41.1516 79.2138C41.4923 79.1286 41.7478 79.0435 42.0884 78.9583C42.4291 78.8731 42.6845 78.788 43.0252 78.788L43.5362 78.7028C43.7065 78.7028 43.8768 78.6176 44.0471 78.6176H45.0691H45.4949L45.3246 79.0435C45.0691 79.8951 44.7284 80.7467 44.4729 81.5132C44.1323 82.3648 43.8768 83.1313 43.451 83.9829C43.6213 83.1313 43.7916 82.2796 44.0471 81.3429C44.2175 80.4912 44.4729 79.6396 44.7284 78.788L44.984 79.2138H44.0471C43.8768 79.2138 43.7065 79.299 43.6213 79.299L43.1955 79.3841C42.8549 79.3841 42.5994 79.5544 42.2587 79.5544C41.9181 79.6396 41.6626 79.7248 41.3219 79.8099C40.7258 79.9803 40.1297 80.1506 39.5335 80.4061C38.9374 80.6615 38.3413 80.8319 37.7451 81.0874L37.2341 81.2577V80.7467C37.2341 79.8099 37.3193 78.788 37.3193 77.8512L37.6599 78.0215C37.2341 78.1918 36.8083 78.4473 36.4677 78.6176C36.127 78.9583 35.7012 79.1286 35.2754 79.299Z" fill="#FFD37D"/>
<path d="M13.9863 77.937L20.3735 81.599" stroke="#FFD37D" stroke-width="0.8907" stroke-miterlimit="10"/>
<path d="M16.3711 74.3599L22.8435 77.9367" stroke="#FFD37D" stroke-width="0.8907" stroke-miterlimit="10"/>
<path d="M19.6074 71.124L26.0798 74.786" stroke="#FFD37D" stroke-width="0.8907" stroke-miterlimit="10"/>
<path d="M23.6113 68.3989L29.9985 72.0609" stroke="#FFD37D" stroke-width="0.8907" stroke-miterlimit="10"/>
<path d="M38.0879 61.9268L44.5603 65.5036" stroke="#FFD37D" stroke-width="0.8907" stroke-miterlimit="10"/>
<path d="M6.32227 90.2002L12.7946 93.8622" stroke="#FFD37D" stroke-width="0.8907" stroke-miterlimit="10"/>
<path d="M4.70312 94.2026L11.1755 97.7795" stroke="#FFD37D" stroke-width="0.8907" stroke-miterlimit="10"/>
<path d="M3.08789 99.0576L9.56023 102.634" stroke="#FFD37D" stroke-width="0.8907" stroke-miterlimit="10"/>
<path d="M3.08789 106.041L9.56023 109.618" stroke="#FFD37D" stroke-width="0.8907" stroke-miterlimit="10"/>
<path d="M3.84961 115.068L10.322 118.73" stroke="#FFD37D" stroke-width="0.8907" stroke-miterlimit="10"/>
<path d="M25.5688 24.284C29.4011 29.0531 37.1509 29.6492 42.7717 25.5614C48.3924 21.4736 49.8402 14.32 45.9227 9.55085C42.0904 4.78175 34.3406 4.18561 28.7198 8.27341C23.1843 12.3612 21.7365 19.5149 25.5688 24.284Z" fill="#3F0205"/>
<path d="M38.6002 23.0913C40.8996 26.072 45.7538 26.1572 49.4158 23.3468C53.0778 20.5365 54.1849 15.8525 51.9707 12.8718C49.6713 9.89114 44.817 9.80597 41.155 12.6163C37.4931 15.4267 36.3859 20.1107 38.6002 23.0913Z" fill="#3F0205"/>
<path d="M34.8524 30.842C37.9183 34.5892 43.9648 35.1002 48.3081 32.0343C52.6514 28.9685 53.6734 23.4329 50.5223 19.6857C47.4565 15.9386 41.4099 15.4276 37.0666 18.4934C32.8085 21.5593 31.7865 27.0949 34.8524 30.842Z" fill="#3F0205"/>
<path d="M45.9219 21.9847C48.2213 24.9653 53.0756 25.0505 56.7376 22.2401C60.3996 19.4298 61.5918 14.7458 59.2925 11.7651C56.9931 8.78445 52.1388 8.69928 48.4768 11.5096C44.7296 14.32 43.6225 19.004 45.9219 21.9847Z" fill="#3F0205"/>
<path d="M26.5927 14.9163C27.1036 15.4272 27.6146 15.8531 28.2959 16.2789C32.3837 19.1744 37.1528 19.6854 39.7077 17.7266C41.3258 19.2596 43.1142 20.2815 44.7323 21.1331C46.5207 22.0699 49.5866 21.8996 49.5866 21.8996C52.3969 23.9435 47.7982 35.7811 47.5427 35.185C47.3724 34.5888 46.5207 29.6494 44.4768 26.4132C43.1142 24.1138 40.9851 23.177 39.1967 22.9215C36.3863 22.7512 34.5128 24.6248 34.5128 24.6248C34.3424 24.7951 34.087 24.8803 33.8315 24.8803C33.3205 24.6248 32.8947 24.2842 32.554 23.9435L28.0404 19.515C26.9333 18.2376 26.4223 16.5343 26.5927 14.9163Z" fill="white"/>
<path d="M102.299 132.441L106.387 148.622L96.6781 151.091L91.5684 151.262L101.532 146.322L96.3375 131.504L102.299 132.441Z" fill="#EDEEF0"/>
<path d="M106.474 151.092L104.43 151.262L103.323 149.9L95.5732 152.114L89.0156 152.455C89.0156 152.455 89.0157 151.944 89.2712 151.688C90.2931 150.837 95.0622 149.389 95.0622 149.389C95.0622 149.389 94.8919 150.837 95.488 151.007C96.0842 151.177 102.046 149.389 103.493 148.793C105.878 147.856 106.474 147.089 106.644 147.26C107.07 147.6 106.474 151.092 106.474 151.092Z" fill="#161711"/>
<path d="M92.3363 52.9838C96.339 63.7994 89.6963 98.8013 89.6963 98.8013C89.6963 98.8013 95.1467 108.68 96.5945 113.705C99.1494 122.476 103.918 133.718 103.918 133.718L95.828 134.059C95.828 134.059 77.9439 102.378 77.1774 98.12C76.4109 93.8619 73.0896 58.349 77.8587 49.7476C82.6278 41.2313 90.7183 48.6405 92.3363 52.9838Z" fill="#8B5F32"/>
<path d="M76.7525 64.9913C76.7525 64.9913 68.3214 66.6946 66.3626 64.9913C63.8078 62.7771 65.2555 57.4119 61.1677 52.3873C57.0799 47.2775 55.4618 46.0001 53.6734 44.9781C51.9701 43.9562 49.5856 43.0194 48.8192 40.6348C48.0527 38.1651 46.6049 34.2476 46.9456 33.4812C47.4565 32.2037 47.9675 30.756 47.8823 29.3082C47.7972 28.3714 76.7525 64.9913 76.7525 64.9913Z" fill="#AD5C49"/>
<path d="M77.3465 68.228C77.3465 68.228 67.7231 55.8794 62.6985 49.7477C57.7591 43.6159 48.9873 31.2674 47.795 29.7344C46.6028 28.2867 45.4956 25.817 45.4956 25.817C45.4956 25.817 44.7292 22.155 46.8582 20.5369C48.9873 18.9188 50.1796 18.8336 58.8662 21.133C74.7064 25.3912 95.0603 50.1735 94.0383 54.2613C94.0383 54.4316 89.6099 55.2832 89.6099 55.2832C89.6099 55.2832 78.5388 60.1375 77.3465 68.228Z" fill="#E79B4E"/>
<path d="M44.8993 73.5927C42.9405 78.1915 40.045 79.2134 38.5973 80.7464C37.1495 82.2793 35.3611 83.6419 35.4462 83.6419C37.6605 83.3864 38.3417 81.9386 39.1934 81.4277C40.045 80.9167 39.7044 81.0019 39.1082 82.7051C38.7676 83.6419 36.6385 84.6638 35.2759 85.4303C34.1688 86.1116 33.8281 86.7077 33.8281 86.7077C33.8281 86.7077 35.7869 86.1968 37.6604 85.1748C39.8747 83.9825 42.0889 82.2793 42.5147 81.8535C43.2812 81.0019 44.7289 78.0212 45.3251 75.7218C46.1767 73.1669 46.347 70.2714 44.8993 73.5927Z" fill="white"/>
<path d="M56.6549 46.0001C56.6549 46.0001 54.7813 45.3188 50.949 55.0273C47.1167 64.7358 43.625 79.8096 43.625 79.8096L54.4407 58.1783C54.4407 58.1783 58.1878 49.7472 56.6549 46.0001Z" fill="white"/>
<path d="M50.0124 51.5369C50.0124 51.5369 53.6744 42.5097 58.4435 44.8091C61.1687 46.0865 61.4241 48.5562 60.2319 51.1963C58.1028 56.2208 55.4628 61.8416 55.4628 61.8416L46.8613 61.9267L50.0124 51.5369Z" fill="#E79B4E"/>
<path d="M51.2873 46.2561L49.1582 25.3061C49.1582 25.3061 49.7544 22.6661 51.7983 22.2403C54.6938 21.6441 56.1416 22.3254 56.908 23.8584C58.441 26.9242 58.1854 25.221 59.6332 37.2289C60.9958 48.2149 61.6771 52.7285 56.4822 53.5801C51.7131 54.5169 51.2873 46.2561 51.2873 46.2561Z" fill="#E79B4E"/>
<path d="M41.1552 82.9609C41.1552 82.9609 38.6854 85.9416 38.0041 86.3674C37.4932 86.6229 35.0234 87.5597 35.0234 87.5597C35.0234 87.5597 35.875 86.3674 36.8118 85.9416C37.7486 85.4307 41.1552 82.9609 41.1552 82.9609Z" fill="white"/>
<path d="M26.6739 140.445L26.9294 140.786C27.1849 141.127 27.6107 141.297 27.9513 141.382H28.3771L28.0365 141.638C27.6958 141.893 27.5255 142.319 27.5255 142.745V143.171L27.27 142.83C27.0145 142.489 26.5887 142.319 26.2481 142.234H25.8223L26.1629 141.978C26.5035 141.723 26.6739 141.297 26.6739 140.871V140.445Z" fill="#0093D0"/>
<path d="M8.96062 146.748L9.30129 147.173C9.64194 147.599 10.1529 147.855 10.6639 147.94H11.1749L10.7491 148.281C10.3233 148.621 10.0678 149.132 10.0678 149.643V150.154L9.7271 149.728C9.38645 149.302 8.8755 149.047 8.36452 148.962H7.85352L8.27933 148.621C8.70514 148.28 8.96062 147.77 8.96062 147.259V146.748Z" fill="#E79B4E"/>
<path d="M32.4667 126.565C31.6151 126.82 31.1892 127.757 31.4447 128.608C31.7002 129.46 32.637 129.971 33.4035 129.716C34.2551 129.46 34.6809 128.523 34.4254 127.672C34.1699 126.82 33.3183 126.309 32.4667 126.565ZM33.2331 129.205C32.637 129.375 32.0409 129.034 31.8705 128.438C31.7002 127.842 31.9557 127.246 32.5518 127.076C33.148 126.905 33.7441 127.246 33.9145 127.842C34.17 128.438 33.8293 129.034 33.2331 129.205Z" fill="#FF6100"/>
<path d="M13.6492 140.446C12.9679 140.701 12.5421 141.468 12.7976 142.149C13.0531 142.916 13.8196 143.256 14.5009 143.086C15.1822 142.83 15.608 142.064 15.3525 141.383C15.097 140.616 14.3305 140.19 13.6492 140.446ZM14.3306 142.66C13.8196 142.83 13.3086 142.49 13.2234 142.064C13.0531 141.553 13.3086 141.042 13.8196 140.872C14.3305 140.701 14.8415 141.042 14.9267 141.468C15.0118 141.894 14.8415 142.49 14.3306 142.66Z" fill="#FF4D4D"/>
<path d="M9.72962 153.901C9.89994 154.412 9.64445 154.923 9.13347 155.094C8.6225 155.264 8.11155 154.923 7.94123 154.497C7.7709 153.986 8.02635 153.475 8.53732 153.305C9.0483 153.05 9.55929 153.39 9.72962 153.901Z" fill="#FF6100"/>
<path d="M29.5726 133.037C29.6577 133.463 29.4874 133.889 29.0616 133.974C28.6358 134.059 28.2951 133.889 28.1248 133.463C28.0396 133.037 28.21 132.611 28.6358 132.526C29.0616 132.441 29.4874 132.697 29.5726 133.037Z" fill="#F9B616"/>
<path d="M18.4978 147.429C18.7532 148.111 18.3274 148.877 17.6461 149.133C16.9648 149.303 16.1984 148.962 16.0281 148.281C15.7726 147.6 16.1984 146.833 16.8797 146.578C17.561 146.322 18.2423 146.748 18.4978 147.429Z" fill="#FFB202"/>
<path d="M53.4182 122.391C53.5885 122.988 53.2479 123.669 52.6518 123.839C52.0556 124.01 51.3743 123.669 51.204 123.073C51.0337 122.477 51.3743 121.795 51.9704 121.625C52.5666 121.369 53.2479 121.795 53.4182 122.391Z" fill="#F9B616"/>
<path d="M52.055 133.548C52.2253 134.144 51.8846 134.826 51.2885 134.996C50.6924 135.166 50.0962 134.826 49.8407 134.229C49.6704 133.633 50.0111 132.952 50.6072 132.782C51.2033 132.611 51.8847 132.952 52.055 133.548Z" fill="#E79B4E"/>
<path d="M46.6895 119.752C46.6895 120.092 46.4341 120.433 46.0934 120.433C45.7527 120.433 45.4121 120.177 45.4121 119.752C45.4121 119.411 45.6676 119.07 46.0082 119.07C46.434 119.07 46.6895 119.326 46.6895 119.752Z" fill="#0093D0"/>
<path d="M32.5521 149.388C32.5521 149.984 32.0411 150.495 31.445 150.495C30.8489 150.495 30.3379 149.984 30.3379 149.388C30.3379 148.792 30.8489 148.281 31.445 148.281C32.0411 148.281 32.5521 148.792 32.5521 149.388Z" fill="#FF4D4D"/>
<path d="M3.76767 147.003C3.76767 147.344 3.51218 147.684 3.17153 147.684C2.83087 147.684 2.49023 147.429 2.49023 147.003C2.49023 146.662 2.74573 146.322 3.08638 146.322C3.42703 146.322 3.76767 146.577 3.76767 147.003Z" fill="#89EAEF"/>
<path d="M28.6342 125.031C28.6342 125.627 28.1232 126.138 27.5271 126.138C26.9309 126.138 26.4199 125.627 26.4199 125.031C26.4199 124.435 26.9309 123.924 27.5271 123.924C28.1232 123.924 28.6342 124.435 28.6342 125.031Z" fill="#48939B"/>
<path d="M24.2048 108.85L24.3751 109.276C24.5455 109.702 24.8861 110.042 25.3119 110.213L25.7377 110.383L25.3119 110.553C24.8861 110.724 24.5455 111.064 24.3751 111.49L24.2048 111.916L24.0345 111.49C23.8641 111.064 23.5235 110.724 23.0977 110.553L22.6719 110.383L23.0977 110.213C23.5235 110.042 23.8641 109.702 24.0345 109.276L24.2048 108.85Z" fill="#0093D0"/>
<path d="M2.99854 109.616L3.16887 110.127C3.3392 110.723 3.85019 111.149 4.36117 111.319L4.87212 111.49L4.36117 111.66C3.76503 111.83 3.3392 112.341 3.16887 112.852L2.99854 113.363L2.82825 112.852C2.65793 112.256 2.14693 111.83 1.63595 111.66L1.125 111.49L1.63595 111.319C2.23209 111.149 2.65793 110.638 2.82825 110.127L2.99854 109.616Z" fill="#2D6872"/>
<path d="M35.1927 96.3315C34.256 96.3315 33.4043 97.098 33.4043 98.12C33.4043 99.0568 34.1708 99.9084 35.1927 99.9084C36.1295 99.9084 36.9811 99.1419 36.9811 98.12C36.9811 97.098 36.1295 96.3315 35.1927 96.3315ZM35.1927 99.3122C34.5114 99.3122 34.0004 98.8013 34.0004 98.12C34.0004 97.4387 34.5114 96.9277 35.1927 96.9277C35.874 96.9277 36.385 97.4387 36.385 98.12C36.385 98.7161 35.874 99.3122 35.1927 99.3122Z" fill="#FF6100"/>
<path d="M10.238 104.592C9.38637 104.592 8.70508 105.274 8.70508 106.125C8.70508 106.977 9.38637 107.658 10.238 107.658C11.0896 107.658 11.771 106.977 11.771 106.125C11.771 105.274 11.0896 104.592 10.238 104.592ZM10.238 107.147C9.64186 107.147 9.21609 106.721 9.21609 106.125C9.21609 105.529 9.64186 105.103 10.238 105.103C10.8341 105.103 11.26 105.529 11.26 106.125C11.26 106.721 10.8341 107.147 10.238 107.147Z" fill="#E79B4E"/>
<path d="M1.46965 117.367C1.46965 117.963 1.04383 118.389 0.447691 118.389C-0.148447 118.389 -0.574219 117.963 -0.574219 117.367C-0.574219 116.771 -0.148447 116.345 0.447691 116.345C1.04383 116.345 1.46965 116.771 1.46965 117.367Z" fill="#FF6100"/>
<path d="M29.9103 102.123C29.9103 102.548 29.5696 102.974 29.0587 102.974C28.6328 102.974 28.207 102.634 28.207 102.123C28.207 101.697 28.5477 101.271 29.0587 101.271C29.4845 101.356 29.9103 101.697 29.9103 102.123Z" fill="#ADF7F7"/>
<path d="M13.1319 113.449C13.1319 114.215 12.4506 114.897 11.6841 114.897C10.9176 114.897 10.2363 114.215 10.2363 113.449C10.2363 112.682 10.9176 112.001 11.6841 112.001C12.4506 112.001 13.1319 112.682 13.1319 113.449Z" fill="#FFB202"/>
<path d="M59.2072 98.8012C59.2072 99.4825 58.6111 100.079 57.9298 100.079C57.2485 100.079 56.6523 99.4825 56.6523 98.8012C56.6523 98.1199 57.2485 97.5237 57.9298 97.5237C58.6111 97.4386 59.2072 98.0347 59.2072 98.8012Z" fill="#F9B616"/>
<path d="M53.926 109.957C53.926 110.638 53.3298 111.235 52.6485 111.235C51.9672 111.235 51.3711 110.638 51.3711 109.957C51.3711 109.276 51.9672 108.68 52.6485 108.68C53.415 108.68 53.926 109.191 53.926 109.957Z" fill="#F9B616"/>
<path d="M52.8224 93.7763C52.7373 94.117 52.3115 94.3725 51.9708 94.2873C51.6302 94.2022 51.3747 93.7763 51.4599 93.4357C51.545 93.095 51.9708 92.8395 52.3115 92.9247C52.7373 93.0099 52.9076 93.4357 52.8224 93.7763Z" fill="#FF4D4D"/>
<path d="M27.6115 120.091C27.4412 120.773 26.6748 121.113 26.0786 120.943C25.3973 120.773 25.0567 120.006 25.227 119.41C25.3973 118.729 26.1638 118.388 26.7599 118.559C27.4412 118.729 27.7819 119.41 27.6115 120.091Z" fill="#FF4D4D"/>
<path d="M31.6174 93.5211C31.4471 94.2024 30.6806 94.5431 30.0845 94.3728C29.4032 94.2024 29.0625 93.436 29.2329 92.8399C29.4032 92.1586 30.1696 91.8179 30.7658 91.9882C31.4471 92.1586 31.7877 92.8398 31.6174 93.5211Z" fill="#FF4D4D"/>
<path opacity="0.15" d="M106.388 150.58C106.559 153.56 100.682 156.2 97.5314 157.222C95.743 157.819 92.4217 158.5 79.988 155.775C68.8317 153.305 63.2109 150.92 59.1231 148.706C54.6095 146.322 52.2249 145.044 52.3953 143.767C52.9062 140.616 68.7465 140.19 81.5209 141.808C84.1609 142.149 106.048 144.959 106.388 150.58Z" fill="#481C23"/>
</g>
<defs>
<clipPath id="clip0">
<rect width="149" height="175" fill="white"/>
</clipPath>
</defs>
</svg>
