<svg width="45" height="45" viewBox="0 0 45 45" fill="none" xmlns="http://www.w3.org/2000/svg">
<path d="M26.25 26.7225V41.25H7.5C7.49942 38.9604 8.02298 36.7011 9.03056 34.6451C10.0381 32.5891 11.503 30.7911 13.3129 29.3888C15.1228 27.9865 17.2297 27.0171 19.4722 26.555C21.7146 26.0928 24.0331 26.1501 26.25 26.7225ZM22.5 24.375C16.2844 24.375 11.25 19.3406 11.25 13.125C11.25 6.90937 16.2844 1.875 22.5 1.875C28.7156 1.875 33.75 6.90937 33.75 13.125C33.75 19.3406 28.7156 24.375 22.5 24.375ZM36.4087 31.875H43.1325V35.625H36.4087L39.8381 39.0525L37.1869 41.7056L29.2313 33.75L37.1869 25.7944L39.8381 28.4475L36.4087 31.875Z" fill="black"/>
<path d="M26.25 26.7225V41.25H7.5C7.49942 38.9604 8.02298 36.7011 9.03056 34.6451C10.0381 32.5891 11.503 30.7911 13.3129 29.3888C15.1228 27.9865 17.2297 27.0171 19.4722 26.555C21.7146 26.0928 24.0331 26.1501 26.25 26.7225ZM22.5 24.375C16.2844 24.375 11.25 19.3406 11.25 13.125C11.25 6.90937 16.2844 1.875 22.5 1.875C28.7156 1.875 33.75 6.90937 33.75 13.125C33.75 19.3406 28.7156 24.375 22.5 24.375ZM36.4087 31.875H43.1325V35.625H36.4087L39.8381 39.0525L37.1869 41.7056L29.2313 33.75L37.1869 25.7944L39.8381 28.4475L36.4087 31.875Z" fill="white"/>
</svg>
