<svg width="1647" height="398" viewBox="0 0 1647 398" fill="none" xmlns="http://www.w3.org/2000/svg">
<path d="M441.819 289.295C433.645 283.869 416.127 289.213 410.679 286.171C410.706 285.925 410.733 285.705 410.788 285.459C412.041 280.691 414.438 275.758 415.038 275.621C411.85 276.279 408.881 275.649 406.429 274.004C404.304 271.949 403.023 269.181 402.996 265.893C402.996 266.496 398.719 269.949 394.36 272.196C394.142 272.305 393.896 272.388 393.678 272.442C389.537 267.757 390.954 249.397 383.925 242.546C377.523 236.325 363.955 231.174 356 235.75C359.705 238.381 363.492 243.779 364.773 250.054C366.135 256.85 362.865 260.687 358.425 264.057C365.971 268.99 374.635 280.17 367.442 292.063C375.044 296.091 376.896 306.367 375.997 311.93C375.806 312.067 376.079 312.286 376.188 312.067C381.391 309.984 391.771 309.573 397.329 316.178C407.3 306.532 420.051 312.643 426.453 319C428.769 313.93 431.793 309.875 438.685 309.765C445.033 309.656 451.082 312.204 454.46 315.273C457.157 306.449 449.256 294.255 441.819 289.295Z" fill="black"/>
<path opacity="0.47" d="M605.029 58.4029C599.487 63.1864 599.781 76.9378 596.485 80.2349C596.326 80.1617 596.148 80.0988 595.988 80.0256C592.811 78.1491 589.762 75.395 589.808 74.9435C589.639 77.3809 588.566 79.3944 586.901 80.8287C585.006 81.9466 582.761 82.2969 580.392 81.656C580.838 81.7766 582.433 85.5589 583.178 89.1707C583.199 89.371 583.218 89.5256 583.229 89.7082C579.033 91.7293 566.165 86.9626 559.824 90.6475C554.065 93.9961 547.652 102.733 549.317 109.406C551.962 107.264 556.576 105.64 561.322 105.996C566.473 106.402 568.568 109.541 570.078 113.42C575.129 108.968 584.907 105.001 591.967 112.624C596.402 107.96 604.133 108.72 607.934 110.496C607.999 110.648 608.2 110.508 608.083 110.386C607.641 106.198 609.456 98.6267 615.303 95.9599C610.415 86.7995 617.351 78.8478 623.211 75.5116C620.029 72.811 617.75 69.8013 619.048 64.7974C620.243 60.1842 623.294 56.3426 626.19 54.5528C620.44 50.8289 610.086 54.0416 605.029 58.4029Z" fill="black"/>
<path opacity="0.47" d="M137.103 334.887C123.858 332.223 104.272 348.133 95.7545 347.082C95.6795 346.782 95.5669 346.444 95.5294 346.106C94.6664 339.39 95.1917 331.885 95.8671 331.435C92.1525 333.949 88.0251 334.662 84.0478 333.837C80.2957 332.336 77.219 329.484 75.493 325.319C75.8307 326.107 72.1536 332.673 67.726 337.814C67.5009 338.077 67.2383 338.264 67.0131 338.489C59.3213 334.7 51.6294 310.685 39.1348 305.657C27.7283 301.08 7.76692 301.605 0 311.511C6.11598 312.899 13.6953 317.777 18.5356 325.094C23.7885 333.011 21.6123 339.578 17.6726 346.144C29.8295 348.47 46.6766 358.151 43.6373 376.95C55.419 378.113 63.0734 390.158 64.8369 397.7C64.6868 398 65.1371 398.112 65.1371 397.812C70.7278 392.447 83.7477 386.556 94.2161 392.071C101.946 374.661 121.382 375.787 132.826 380.514C133.126 372.86 134.927 366.181 143.632 362.429C151.661 358.977 160.704 359.052 166.595 361.228C165.544 348.658 149.147 337.289 137.103 334.887Z" fill="black"/>
<path opacity="0.47" d="M1607.45 106.076C1596.01 113.205 1592.59 138.195 1585.69 143.26C1585.43 143.11 1585.13 142.923 1584.86 142.735C1579.65 138.458 1574.88 132.604 1575.07 131.779C1574.06 136.169 1571.54 139.508 1568.13 141.647C1564.34 143.148 1560.18 143.148 1556.05 141.309C1556.84 141.647 1558.64 148.964 1558.94 155.718C1558.94 156.056 1558.9 156.393 1558.86 156.693C1550.65 159.207 1528.62 146.975 1516.05 151.853C1504.61 156.318 1490.46 170.389 1491.55 182.922C1496.95 179.77 1505.84 178.119 1514.36 180.107C1523.59 182.284 1526.52 188.55 1528.17 196.017C1538.64 189.376 1557.55 184.91 1568.21 200.707C1577.59 193.503 1591.43 197.03 1597.85 201.308C1597.92 201.608 1598.33 201.42 1598.15 201.158C1598.56 193.428 1604 180.22 1615.41 177.031C1609.14 159.057 1624.04 146.562 1635.63 142.172C1630.64 136.394 1627.34 130.278 1631.13 121.61C1634.62 113.58 1641.26 107.464 1647.04 105.025C1637.62 96.6577 1617.88 99.6219 1607.45 106.076Z" fill="black"/>
<path d="M1401.12 251.4C1389.45 258.154 1385.25 283.031 1378.16 287.872C1377.9 287.684 1377.6 287.534 1377.33 287.309C1372.27 282.844 1367.69 276.878 1367.88 276.052C1366.75 280.405 1364.13 283.669 1360.6 285.696C1356.77 287.046 1352.61 286.934 1348.55 284.983C1349.31 285.358 1350.92 292.712 1350.99 299.466C1350.96 299.804 1350.92 300.142 1350.88 300.442C1342.59 302.656 1320.98 289.748 1308.26 294.213C1296.7 298.303 1282.07 311.886 1282.78 324.494C1288.3 321.529 1297.23 320.141 1305.67 322.43C1314.82 324.906 1317.52 331.285 1318.95 338.79C1329.61 332.486 1348.67 328.621 1358.8 344.756C1368.4 337.852 1382.14 341.829 1388.4 346.332C1388.48 346.632 1388.89 346.444 1388.7 346.182C1389.34 338.49 1395.23 325.469 1406.71 322.618C1401.01 304.457 1416.32 292.45 1428.06 288.435C1423.26 282.506 1420.15 276.277 1424.24 267.722C1427.99 259.805 1434.85 253.914 1440.67 251.663C1431.59 242.958 1411.74 245.246 1401.12 251.4Z" fill="black"/>
<path d="M1025.25 74.7172C1013.31 68.4377 990.027 78.0949 982.16 74.6868C982.155 74.3774 982.177 74.0221 982.208 73.703C983.261 67.0503 985.909 59.9703 986.696 59.7204C982.396 61.067 978.264 60.5813 974.682 58.6665C971.482 56.1446 969.391 52.5483 968.888 48.0606C968.993 48.887 963.602 54.1384 957.912 57.8384C957.605 57.9983 957.335 58.1484 957.018 58.272C950.722 52.462 950.18 27.2416 939.581 18.8554C929.969 11.2535 910.677 6.08988 900.397 13.3894C905.846 16.4742 911.759 23.3192 914.348 31.6763C917.131 40.7584 913.176 46.4406 907.565 51.5955C918.565 57.2718 931.972 71.3538 923.714 88.5218C934.702 92.9969 938.61 106.711 938.157 114.446C937.943 114.659 938.32 114.907 938.433 114.605C945.291 111.058 959.447 109.091 967.951 117.339C980.304 102.842 998.618 109.433 1008.24 117.225C1010.73 109.993 1014.31 104.063 1023.73 102.976C1032.43 101.965 1041.06 104.586 1046.07 108.334C1048.59 96.0043 1036.1 80.4323 1025.25 74.7172Z" fill="black"/>
</svg>
