<svg width="60" height="60" viewBox="0 0 60 60" fill="none" xmlns="http://www.w3.org/2000/svg">
<rect opacity="0.8" x="1" y="1" width="58" height="58" rx="5" fill="url(#paint0_radial)" stroke="#FFAF36" stroke-width="2"/>
<path d="M15.125 29.042V41.792C15.125 42.965 16.0791 43.917 17.25 43.917H27.875V29.042H15.125Z" fill="white"/>
<path d="M44.875 20.5421H38.1515C38.6339 20.2127 39.0483 19.8855 39.3373 19.5922C41.0521 17.8689 41.0521 15.0639 39.3373 13.3405C37.6713 11.6617 34.7685 11.666 33.1046 13.3405C32.1824 14.2649 29.7386 18.0282 30.0765 20.5421H29.9235C30.2593 18.0282 27.8155 14.2649 26.8954 13.3405C25.2294 11.666 22.3266 11.666 20.6627 13.3405C18.95 15.0639 18.95 17.8689 20.6606 19.5922C20.9518 19.8855 21.3661 20.2127 21.8485 20.5421H15.125C13.9541 20.5421 13 21.4962 13 22.6671V25.8546C13 26.4411 13.476 26.9171 14.0625 26.9171H27.875V22.6671H32.125V26.9171H45.9375C46.524 26.9171 47 26.4411 47 25.8546V22.6671C47 21.4962 46.048 20.5421 44.875 20.5421ZM27.7496 20.472C27.7496 20.472 27.6604 20.5421 27.3565 20.5421C25.8881 20.5421 23.0853 19.0164 22.1694 18.0941C21.279 17.1974 21.279 15.7354 22.1694 14.8386C22.6008 14.4051 23.1724 14.1671 23.7801 14.1671C24.3857 14.1671 24.9574 14.4051 25.3887 14.8386C26.821 16.2794 28.2447 19.9599 27.7496 20.472ZM32.6414 20.5421C32.3396 20.5421 32.2504 20.4741 32.2504 20.472C31.7553 19.9599 33.179 16.2794 34.6113 14.8386C35.4676 13.9737 36.9658 13.9695 37.8306 14.8386C38.7231 15.7354 38.7231 17.1974 37.8306 18.0941C36.9148 19.0164 34.1119 20.5421 32.6414 20.5421Z" fill="white"/>
<path d="M32.125 29.042V43.917H42.75C43.923 43.917 44.875 42.965 44.875 41.792V29.042H32.125Z" fill="white"/>
<defs>
<radialGradient id="paint0_radial" cx="0" cy="0" r="1" gradientUnits="userSpaceOnUse" gradientTransform="translate(30 30) rotate(90) scale(30)">
<stop offset="0.65625" stop-color="#FFAD31" stop-opacity="0.15"/>
<stop offset="0.989583" stop-color="#D29334" stop-opacity="0"/>
</radialGradient>
</defs>
</svg>
