<svg width="422" height="920" viewBox="0 0 422 920" fill="none" xmlns="http://www.w3.org/2000/svg">
<path d="M315.873 513.157L167.597 462.297L127.458 473.962L185.578 419.423L200.009 423.206L206.817 454.73L295.302 488.658L213.458 451.971L205.961 423.478L262.473 434.766L308.898 474.422L266.211 429.687L215.547 420.259L242.09 392.08L312.615 401.466L332.684 439.574L315.831 395.069L299.688 392.791L326.962 374.855L421.503 378.179L320.613 368.897L288.933 392.185L237.099 385.579L208.049 417.123L183.218 411.814L107.013 480.087L54.2187 489.097L-7.88996 448.835L32.4577 456.674L116.014 395.32L160.288 393.669L223.169 333.987L283.231 307.522L219.034 328.28L160.267 384.471L121.444 386.875L149.47 341.262L147.089 328.949L178.394 275.016L245.64 233.48L173.737 269.895L135.415 332.942L138.235 343.603L109.122 389.279L30.3693 441.477L-5.23771 434.474L54.5111 389.969L61.9457 370.005L107.243 349.874L148.05 265.484L101.521 344.753L63.1361 362.835L67.8768 273.156L77.5251 254.133L120.964 247.653L156.591 195.329L233.068 181.428L263.245 212.136L335.9 227.668L266.294 207.328L234.3 174.383L218.178 176.85L239.125 151.807L330.617 127.725L231.335 147.939L207.694 179.379L161.29 188.431L169.101 176.954L225.341 123.628L160.204 173.171L116.557 237.619L80.8039 245.792L165.801 114.848L191.405 108.932L232.17 59.2844L190.361 100.884L170.709 106.967L202.515 52.4488L53.7384 271.86L50.1046 309.466L17.4631 236.72L25.7122 224.282L57.7063 228.086L118.52 155.339L57.2677 220.895L27.905 218.742L56.9336 168.906L109.498 137.843L205.439 32.2343L107.702 132.178L53.3625 163.722L28.0094 208.624L10.0075 174.341L41.7928 110.625L84.3124 104.02L139.321 54.0375L82.1822 98.7307L36.7807 105.504L29.3878 120.053L21.3057 88.4041L55.1794 0L13.6204 92.5013L25.3154 130.066L2.23872 176.996L22.6005 214.749L9.50632 236.511L49.2483 330.852L40.6024 383.76L-105 498.002L-89.3789 511.82C-74.8854 499.402 -39.7796 466.269 -25.3907 452.64C-24.9103 452.89 -24.6388 453.037 -24.6388 453.037L-17.3504 505.088L67.7723 564.247L83.7276 605.617L160.559 645.753L205.084 694L164.611 639.963L92.4362 602.586L77.546 566.61L129.756 578.316L140.615 572.066L201.763 584.169L262.87 634.339L205.105 578.107L133.076 562.324L123.929 568.47L71.3017 555.76L-3.60877 498.169L-8.55824 462.172L52.9239 504.273L74.2046 504.817L107.953 541.148L200.886 552.374L110.877 534.083L81.2842 503.625L167.556 478.979L184.325 481.09L208.906 520.934L283.19 541.002L354.195 589.082L292.003 533.894L216.925 513.513L197.587 482.324L315.873 513.157Z" fill="#E27440"/>
<path d="M225.941 777.723L109.349 737.709L77.7866 746.886L123.487 703.978L134.835 706.955L140.188 731.756L209.765 758.448L145.41 729.585L139.515 707.169L183.951 716.05L220.456 747.248L186.89 712.053L147.052 704.636L167.924 682.466L223.379 689.851L239.16 719.832L225.908 684.818L213.214 683.026L234.66 668.915L309 671.53L229.668 664.227L204.757 682.549L163.999 677.352L141.157 702.169L121.632 697.992L61.7101 751.705L20.1968 758.794L-28.6405 727.118L3.08568 733.285L68.7877 685.016L103.601 683.716L153.046 636.762L200.274 615.941L149.795 632.272L103.585 676.48L73.0573 678.371L95.0948 642.486L93.2228 632.799L117.838 590.367L170.715 557.688L114.176 586.338L84.0432 635.94L86.2601 644.327L63.3687 680.263L1.44354 721.329L-26.555 715.819L20.4267 680.805L26.2727 665.099L61.8907 649.261L93.9781 582.868L57.3913 645.232L27.2087 659.458L30.9364 588.904L38.5231 573.937L72.6796 568.839L100.695 527.674L160.83 516.737L184.559 540.897L241.689 553.116L186.956 537.114L161.799 511.195L149.121 513.136L165.592 493.433L237.534 474.487L159.467 490.39L140.878 515.126L104.389 522.247L110.531 513.218L154.754 471.263L103.535 510.241L69.2147 560.945L41.1012 567.375L107.936 464.356L128.069 459.702L160.124 420.642L127.248 453.37L111.795 458.156L136.805 415.264L19.8191 587.884L16.9618 617.471L-8.70489 560.238L-2.21843 550.452L22.9392 553.445L70.7583 496.212L22.5943 547.788L-0.494187 546.094L22.3316 506.886L63.6642 482.447L139.104 399.36L62.252 477.99L19.5235 502.807L-0.412081 538.134L-14.5673 511.162L10.426 461.034L43.86 455.837L87.114 416.514L42.185 451.676L6.48491 457.004L0.671731 468.451L-5.68335 443.551L20.9522 374L-11.7264 446.775L-2.53044 476.329L-20.6761 513.251L-4.66522 542.953L-14.9614 560.073L16.2885 634.295L9.49003 675.921L-105 765.8L-92.7168 776.671C-81.3203 766.902 -53.716 740.834 -42.4016 730.111C-42.0239 730.309 -41.8104 730.424 -41.8104 730.424L-36.0794 771.375L30.8543 817.918L43.4002 850.465L103.815 882.042L138.825 920L107 877.486L50.248 848.08L38.5395 819.776L79.593 828.986L88.1321 824.069L136.214 833.591L184.263 873.062L138.841 828.822L82.204 816.405L75.0114 821.24L33.6295 811.241L-25.2741 765.931L-29.166 737.611L19.1787 770.734L35.9121 771.161L62.4491 799.745L135.524 808.576L64.7481 794.186L41.4789 770.224L109.316 750.834L122.502 752.495L141.83 783.841L200.241 799.63L256.074 837.456L207.171 794.038L148.136 778.003L132.93 753.465L225.941 777.723Z" fill="#E27440"/>
</svg>
