<svg width="363" height="164" viewBox="0 0 363 164" fill="none" xmlns="http://www.w3.org/2000/svg">
<g clip-path="url(#clip0)">
<path d="M35.08 102.42C35.08 102.23 35.08 101.87 34.99 101.41V100.4C34.99 98.6599 35.72 94.8999 35.72 93.1599C35.72 91.2399 34.71 90.2299 32.7 90.2299C31.69 90.2299 29.59 91.1499 28.49 91.1499C27.3 91.1499 23.18 88.8599 21.35 88.6799C20.62 89.4099 20.25 91.1499 20.25 93.9899C20.25 99.0299 22.26 102.6 22.26 104.06C22.26 106.26 20.98 111.48 20.98 115.78C20.98 117.25 23.09 119.35 23.09 121.09C23.09 121.3 23.09 121.5 23.08 121.69C22.99 124.44 22.23 124.84 19.15 124.84C17.96 124.84 14.94 125.94 13.75 125.94C12.92 125.94 12.47 125.76 12.47 125.3C12.47 124.21 12.88 122.28 13.36 120.3C14 117.62 14.76 114.84 14.76 113.94C14.76 107.89 13.39 103.41 13.39 98.2799C13.39 97.4499 13.39 96.5399 13.48 95.5299V92.6899C13.48 91.5899 12.93 91.4999 7.53 90.9499C6.7 90.9499 3.5 89.3999 1.94 89.3999C0.64 89.4199 0 90.0599 0 91.3399C0 93.1699 2.57 100.22 2.57 102.61C2.57 105.18 0.28 113.79 0.28 116.35C0.28 117.05 0.44 118.15 0.68 119.42C1.34 122.94 2.57 127.85 2.57 129.73C2.57 131.2 2.02 135.04 2.02 136.5C2.02 138.79 4.49 145.48 4.49 147.68V148.69C4.4 149.24 4.4 149.6 4.4 149.88C4.4 152.72 7.24 160.69 7.42 162.79C10.35 157.11 8.33 153.91 10.81 145.48C11.54 142.91 12 140.99 12 139.34C12 138.88 11.73 137.33 11.73 136.69C11.73 135.68 12.46 135.13 14.02 134.86L18.51 134.13C20.98 133.31 22.17 132.94 22.26 132.94C24.37 132.94 22.81 137.06 24.83 145.94C27.3 156.75 25.2 157.02 28.22 162.79C28.41 160.32 31.24 154.27 31.24 151.71V150.52C31.15 150.06 31.15 149.69 31.15 149.42C31.15 146.85 33.62 138.24 33.62 135.68C33.62 134.49 33.07 131.1 33.07 129.73C33.07 128.59 33.44 126.39 33.88 123.96C34.54 120.33 35.36 116.23 35.36 114.52C35.36 113.05 34.53 108.02 34.53 106.55C34.53 105.54 35.08 103.43 35.08 102.42Z" fill="url(#paint0_linear)"/>
<path d="M73.36 114.51C73.36 112.31 71.81 107.55 71.71 107.55C71.25 105.72 70.98 103.34 70.98 100.41C70.98 98.6701 71.99 94.9101 71.99 93.1701C71.99 91.2501 70.89 90.2401 68.78 90.2401C67.77 90.2401 65.67 91.1601 64.57 91.1601C63.38 91.1601 58.52 89.3301 55.96 89.3301C53.85 89.3301 52.84 91.1601 50 91.1601C49.45 91.1601 48.63 91.0701 47.44 90.9701C46.34 90.8801 43.41 89.4201 41.67 89.4201C40.48 89.4201 39.84 90.2401 39.84 91.8001C39.84 93.3601 40.67 99.5901 40.67 101.42C40.67 104.35 38.29 113.42 38.29 116.35C38.29 118.09 39.27 122.2 39.95 125.54C40.31 127.29 40.58 128.84 40.58 129.72C40.58 131.19 40.03 135.03 40.03 136.49C40.03 138.78 42.5 145.47 42.5 147.67C42.5 147.85 42.5 148.22 42.41 148.68V149.87C42.41 152.62 45.25 160.58 45.52 162.78C48.36 157.01 46.07 153.99 48.73 145.47C49.46 142.9 49.92 140.89 49.92 139.33V138.05C49.83 137.41 49.83 136.95 49.83 136.68C49.83 134.39 56.88 134.02 56.88 134.02H56.79C58.99 133.29 60.18 132.92 60.27 132.92C62.38 132.92 60.82 137.04 62.84 145.92C63.67 149.58 64.12 152.15 64.31 153.52L64.58 158.19C64.76 159.47 65.31 161.03 66.14 162.77C66.32 160.39 69.25 154.25 69.25 151.69C69.25 151.42 69.25 150.96 69.16 150.5V149.4C69.16 146.86 71.57 138.42 71.63 135.75C71.63 135.72 71.63 135.69 71.63 135.66C71.63 134.47 71.17 131.08 71.17 129.71C71.16 126.88 73.36 117.35 73.36 114.51ZM52.66 113.96V105.63C52.66 103.7 54.4 101.51 56.14 101.51C58.43 101.51 58.89 103.43 58.89 111.04V115.8C58.89 117.27 61.09 119.37 61.09 121.11C61.09 124.41 60.45 124.86 57.15 124.86C55.78 124.86 53.03 125.96 51.66 125.96C50.83 125.96 50.47 125.78 50.47 125.32C50.47 122.85 52.66 115.52 52.66 113.96Z" fill="url(#paint1_linear)"/>
<path d="M106.43 152.06C100.84 152.06 95.62 153.62 89.49 153.62C86.28 153.62 84.63 152.98 84.63 151.69C84.63 150.14 87.2 141.71 87.2 139.33C87.2 139.15 87.2 138.97 87.2 138.78C87.23 131.69 87.77 122.3 88.84 118.82C89.48 116.62 89.94 114.97 89.94 113.96C89.94 109.38 89.94 107.09 89.85 107.09C89.94 104.52 90.49 102.51 91.4 100.77C91.4 96.4801 92.18 91.3201 92.23 91.3201C92.22 89.9501 90.85 89.3201 88.11 89.3201C86.74 89.3201 85.46 91.1501 83.9 91.1501C83.17 91.1501 80.69 89.3201 79.96 89.3201C77.94 89.3201 77.03 90.1501 77.03 91.7901C77.03 93.3501 77.85 99.5801 77.85 101.41C77.85 104.34 75.47 113.41 75.47 116.34C75.47 119 77.76 127.15 77.76 129.72C77.76 131.19 77.21 135.03 77.21 136.49C77.21 136.67 77.22 136.87 77.25 137.09C77.57 139.78 79.68 145.63 79.68 147.66C79.68 148.03 79.68 148.57 79.59 149.31V151.05C79.59 154.07 81.05 161.58 81.14 162.77C82.15 160.76 84.99 159.75 89.48 159.75C91.49 159.75 93.51 163.23 94.43 163.23C96.72 163.23 100.02 158.19 102.4 158.19C103.87 158.19 104.87 160.48 106.8 160.48C108.91 160.48 109.45 157.73 109.45 153.06C109.45 152.43 108.44 152.06 106.43 152.06Z" fill="url(#paint2_linear)"/>
<path d="M138.21 152.06C132.62 152.06 127.4 153.62 121.27 153.62C118.06 153.62 116.41 152.98 116.41 151.69C116.41 150.14 118.98 141.71 118.98 139.33C118.98 138.86 118.98 138.39 118.99 137.9C119.06 130.94 119.6 122.15 120.63 118.82C121.27 116.62 121.73 114.97 121.73 113.96C121.73 109.38 121.73 107.09 121.64 107.09C121.73 104.52 122.28 102.51 123.19 100.77C123.19 96.4801 123.97 91.3201 124.02 91.3201C124.01 89.9501 122.64 89.3201 119.9 89.3201C118.52 89.3201 117.24 91.1501 115.69 91.1501C114.96 91.1501 112.48 89.3201 111.75 89.3201C109.73 89.3201 108.82 90.1501 108.82 91.7901C108.82 93.3501 109.65 99.5801 109.65 101.41C109.65 104.34 107.27 113.41 107.27 116.34C107.27 119 109.56 127.15 109.56 129.72C109.56 131.19 109.01 135.03 109.01 136.49C109.01 137.12 109.2 138.07 109.46 139.17C110.17 142.1 111.48 146.07 111.48 147.67C111.48 148.04 111.48 148.58 111.39 149.32V151.06C111.39 154.08 112.86 161.59 112.95 162.78C113.96 160.77 116.8 159.76 121.29 159.76C123.3 159.76 125.32 163.24 126.24 163.24C128.53 163.24 131.83 158.2 134.21 158.2C135.68 158.2 136.68 160.49 138.61 160.49C140.72 160.49 141.26 157.74 141.26 153.07C141.23 152.43 140.22 152.06 138.21 152.06Z" fill="url(#paint3_linear)"/>
<path d="M170.81 120.37C170.81 116.98 174.38 116.16 174.38 113.41C174.38 111.03 171.63 105.07 171.63 103.43C171.63 101.96 173.19 98.12 173.19 97.11C173.19 94.36 171.82 96.65 167.24 88.68C165.86 86.39 164.12 85.2 162.2 85.2C159.36 85.2 150.02 86.39 147.09 86.39C142.51 86.39 140.04 91.43 137.29 95.46C135.83 96.74 133.35 102.05 133.35 103.89C133.35 105.36 135.64 106.36 135.64 107.18C135.64 109.01 133.53 114.6 133.53 116.52C133.53 119.45 137.47 119.54 137.47 122.29C137.47 124.12 136.55 130.26 136.55 132.09C136.55 132.69 136.62 133.25 136.73 133.77C137.53 137.36 140.69 138.99 140.85 139.24C141.77 145.93 143.6 147.67 143.6 149.59C143.6 150.6 143.14 152.89 143.14 153.71C143.14 159.11 148.82 153.16 150.74 160.03C151.38 162.32 152.3 163.42 153.49 163.42C154.87 163.42 155.78 161.59 156.88 161.59C158.07 161.59 160.63 162.14 161.73 162.14C162.83 162.14 163.38 161.77 163.38 161.13C163.38 160.3 162.19 158.02 162.19 156.92C162.19 155.09 166.4 154.9 166.4 151.88C166.4 151.05 165.94 149.22 165.94 148.4C165.94 146.47 169.88 143.27 169.88 141.07C169.88 140.43 169.61 138.6 169.61 137.96C169.61 136.13 169.88 133.29 172.45 132.37C173.46 131.91 174 131.36 174 130.63C174 129.43 172.76 126.54 171.82 124.03C171.27 122.51 170.81 121.13 170.81 120.37ZM160.56 132.65L159.18 143.55C158.54 148.77 156.8 151.43 154.51 151.43C153.23 151.43 150.94 144.38 150.94 143.37L151.03 143.28C150.21 141.91 148.56 134.67 148.56 133.11C148.56 132.39 148.84 131.11 149 130.14C149.07 129.75 149.11 129.41 149.11 129.17C149.11 127.62 147.92 121.84 147.92 120.2C147.92 120.11 148.93 117.45 148.93 113.24C148.93 107.93 150.58 105.27 153.14 105.27C154.06 105.27 154.7 105.64 155.16 106.37L155.71 108.57C156.08 108.48 156.81 106.28 157.91 106.28C161.21 106.28 159.1 109.67 161.3 115.9C161.85 117.46 162.13 118.55 162.13 119.19C162.13 120.29 160.48 120.29 160.48 121.76C160.48 122.65 161.32 124.82 161.83 126.4C162.06 127.1 162.22 127.68 162.22 127.99C162.21 130.82 160.74 132.19 160.56 132.65Z" fill="url(#paint4_linear)"/>
<path d="M244.09 92.81C244.09 90.7 243.26 89.7 241.52 89.7C240.97 89.7 238.13 91.63 237.31 91.63L228.15 91.08C225.58 91.08 224.67 92.36 224.67 97.86C224.67 99.78 225.86 103.08 225.86 103.54C225.86 104.91 223.48 111.42 223.48 112.42C223.48 114.71 225.77 117.45 225.77 120.66C225.77 123.8 224.61 123.8 224.24 128.39C224.17 129.28 224.12 130.35 224.12 131.65V132.48C224.12 138.98 224.03 148.69 222.01 153.64C219.17 149.7 217.8 144.76 217.8 138.89C217.8 135.68 217.62 132.75 216.98 129.55L216.52 126.26L216.25 124.33V113.71C216.25 111.06 214.69 105.19 214.69 103.73C214.69 102.63 214.51 100.89 214.51 98.6C215.24 96.59 215.61 94.93 215.61 93.65C215.61 91.36 214.69 90.26 212.77 90.26L209.56 90.54C208.46 90.54 205.71 88.98 204.43 88.98C202.69 88.98 201.59 91.73 201.59 97.13C201.59 100.06 202.69 103.36 202.78 103.36C202.69 104.83 201.13 109.32 201.13 110.23L201.95 120.12C201.95 121.07 201.71 122.1 201.38 123.14C200.98 124.41 200.47 125.69 200.11 126.9C198.37 132.3 198.56 145.67 196.08 152.18C194.34 149.71 193.88 147.6 193.88 144.76V138.99C193.88 133.32 192.23 124.52 192.14 124.43C192.14 123.9 192.19 123.16 192.27 122.31C192.54 119.34 193.15 115.03 193.15 113.54C193.15 111.07 190.95 107.49 190.95 105.2L192.05 97.05C192.05 91.65 191.41 91.1 189.12 91.1H185.73C184.63 91.1 183.44 91.1 182.71 91.01C181.98 91.01 178.5 89.46 177.12 89.46C175.74 89.46 175.01 90.1 175.01 91.29C175.01 92.75 177.58 99.72 177.58 102.46V116.38C177.58 117.74 178.87 120.23 180.21 122.76C181.66 125.49 183.16 128.28 183.16 129.75L182.7 136.52C182.7 138.9 183.25 140.92 184.44 142.66C187.19 146.87 185.45 148.8 187.73 151.64C192.68 157.96 193.13 161.35 195.24 163.82L199.82 157.13C201.29 153.92 204.22 153.83 204.22 151.64C204.22 151.36 204.22 151.09 204.13 150.26C204.22 150.26 208.89 129.29 208.8 129.84C208.89 132.5 209.26 134.7 209.99 136.62H209.9C209.9 136.81 213.19 142.02 213.19 144.59V145.5C213.19 149.71 219.97 161.16 221.62 163.36C222.17 161.71 225.56 157.87 226.11 156.59C227.48 153.38 230.5 153.29 230.5 151.19C230.5 150.92 230.5 150.55 230.41 149.91V148.63C230.41 146.07 232.15 140.02 232.15 139.93C232.15 139.86 233.5 134.76 233.99 131.35C234.1 130.59 234.17 129.91 234.17 129.4C234.17 126.19 239.02 120.52 239.02 117.77L238.38 111.45C238.41 109.2 244.09 94.64 244.09 92.81Z" fill="url(#paint5_linear)"/>
<path d="M280.54 89.4201C277.42 89.4201 266.34 89.8801 263.32 89.8801C262.77 89.5201 261.58 89.3301 259.75 89.3301C258.56 89.3301 257 91.1601 255.63 91.1601C254.62 91.1601 252.42 89.3301 251.69 89.3301C250.59 89.3301 248.85 90.1601 248.76 90.9801V91.8101C248.76 93.3701 249.58 99.6001 249.58 101.43C249.58 104.36 247.2 113.43 247.2 116.36C247.2 119.02 249.49 127.17 249.49 129.74C249.49 130.69 249.26 132.64 249.09 134.29C249 135.19 248.93 136 248.93 136.51C248.93 138.8 251.4 145.49 251.4 147.69C251.4 148.06 251.4 148.6 251.31 149.34V151.08C251.31 154.1 252.78 161.61 252.87 162.8C253.88 160.79 256.72 159.78 261.2 159.78C263.22 159.78 264.96 163.26 266.06 163.26C268.17 163.26 271.74 158.22 274.12 158.22C275.49 158.22 276.59 160.51 278.43 160.51C280.72 160.51 281.08 157.86 281.08 153.09C281.08 152.45 280.07 152.08 278.06 152.08C272.75 152.08 267.71 153.64 261.2 153.64C257.99 153.64 256.35 153 256.35 151.71C256.35 150.16 258.82 141.73 258.82 139.35C258.82 138.44 258.71 136.34 258.66 134.88C258.65 134.43 258.63 134.04 258.63 133.77C258.63 130.56 259.36 129.01 260.74 129.01C262.29 129.01 266.42 132.4 268.07 132.4C269.54 132.4 269.54 129.83 271 129.83C272.37 129.83 273.65 131.94 275.12 131.94C277.05 131.94 278.05 130.11 278.05 126.54C278.05 123.33 277.77 121.68 277.13 121.68C277.13 121.59 273.19 123.06 268.98 123.06C263.21 123.06 260.28 122.05 260.28 120.04C260.28 118.57 261.56 115.37 261.56 113.99V106.57C261.56 104.56 262.02 103.55 262.84 103.55C263.66 103.55 266.59 104.19 267.79 104.19C268.16 104.19 269.53 102.72 270.54 102.72C271.37 102.72 272.55 103.82 273.93 103.82C274.66 103.82 276.5 102.72 277.32 102.72C278.87 102.72 279.88 106.48 281.63 106.48C282.82 106.48 283.37 104.28 283.37 99.8801C283.38 93.8101 283.19 89.4201 280.54 89.4201Z" fill="url(#paint6_linear)"/>
<path d="M317.63 89.4201C314.51 89.4201 303.43 89.8801 300.41 89.8801C299.86 89.5201 298.67 89.3301 296.84 89.3301C295.65 89.3301 294.09 91.1601 292.72 91.1601C291.71 91.1601 289.51 89.3301 288.78 89.3301C287.68 89.3301 285.94 90.1601 285.85 90.9801V91.8101C285.85 93.3701 286.67 99.6001 286.67 101.43C286.67 104.36 284.29 113.43 284.29 116.36C284.29 119.02 286.58 127.17 286.58 129.74C286.58 130.21 286.52 130.94 286.44 131.75C286.28 133.45 286.03 135.52 286.03 136.51C286.03 138.8 288.5 145.49 288.5 147.69C288.5 148.06 288.5 148.6 288.41 149.34V151.08C288.41 154.1 289.88 161.61 289.97 162.8C290.98 160.79 293.82 159.78 298.3 159.78C300.32 159.78 302.06 163.26 303.16 163.26C305.27 163.26 308.84 158.22 311.22 158.22C312.59 158.22 313.69 160.51 315.53 160.51C317.82 160.51 318.18 157.86 318.18 153.09C318.18 152.45 317.17 152.08 315.16 152.08C309.85 152.08 304.81 153.64 298.3 153.64C295.09 153.64 293.45 153 293.45 151.71C293.45 150.16 295.92 141.73 295.92 139.35C295.92 138.16 295.74 134.96 295.74 133.76C295.74 131.95 295.97 130.66 296.43 129.88C296.77 129.29 297.25 129 297.85 129C298.19 129 298.65 129.16 299.18 129.41C301.08 130.31 303.89 132.39 305.18 132.39C306.65 132.39 306.65 129.82 308.11 129.82C309.48 129.82 310.76 131.93 312.23 131.93C313.99 131.93 314.98 130.4 315.14 127.41C315.15 127.13 315.16 126.84 315.16 126.53C315.16 123.32 314.88 121.67 314.24 121.67C314.24 121.58 310.3 123.05 306.09 123.05C300.32 123.05 297.39 122.04 297.39 120.03C297.39 118.56 298.67 115.36 298.67 113.98V106.56C298.67 104.55 299.13 103.54 299.95 103.54C300.77 103.54 303.7 104.18 304.9 104.18C305.27 104.18 306.64 102.71 307.65 102.71C308.48 102.71 309.66 103.81 311.04 103.81C311.77 103.81 313.61 102.71 314.43 102.71C315.98 102.71 316.99 106.47 318.74 106.47C319.93 106.47 320.48 104.27 320.48 99.8701C320.47 93.8101 320.29 89.4201 317.63 89.4201Z" fill="url(#paint7_linear)"/>
<path d="M361.69 106.54C361.69 105.53 362.24 103.43 362.24 102.42C362.24 102.23 362.24 101.87 362.15 101.41V100.4C362.15 98.6601 362.97 94.9001 362.97 93.1601C362.97 91.2401 361.96 90.2301 359.86 90.2301C358.85 90.2301 356.75 91.1501 355.74 91.1501C354.46 91.1501 350.89 88.5801 349.15 88.5801C347.32 88.5801 346.4 89.9501 346.4 92.6101C346.4 95.9001 347.23 99.2001 348.97 102.59C349.24 102.87 349.34 103.23 349.34 103.51C349.34 104.61 348.15 107.26 348.15 108.36C348.15 110.1 350.08 115.6 350.08 117.15C350.08 119.72 351.36 127.88 351.53 131.11C351.54 131.34 351.55 131.54 351.55 131.71C351.55 132.99 351.46 134.18 351.28 135.19C350.77 132.64 350.4 131.43 350.04 130.82C349.69 130.22 349.35 130.2 348.89 130.06C345.6 121.91 345.32 118.06 344.31 116.5C343.12 114.57 342.94 109.72 342.84 109.08C341.1 104.77 340.28 105.78 340.28 99.1901C340.28 94.8001 339.09 92.4101 336.62 92.1401C336.62 91.5901 335.98 91.2301 334.7 91.1301L331.95 90.9401C331.13 90.9401 327.92 89.3901 326.36 89.3901C325.08 89.3901 324.44 90.0301 324.44 91.3101C324.44 93.1401 327 100.19 327 102.58C327 105.15 324.71 113.76 324.71 116.32C324.71 118.4 326.11 123.86 326.72 127.36C326.89 128.33 327 129.14 327 129.7C327 131.17 326.45 135.01 326.45 136.47C326.45 138.76 328.92 145.45 328.92 147.65V148.66C328.83 149.21 328.83 149.57 328.83 149.85C328.83 152.69 331.67 160.66 331.85 162.76C334.78 157.08 332.86 153.88 335.24 145.45C336.98 139.99 336.53 137.33 336.79 128.48C336.83 127.1 336.89 125.56 336.97 123.84C336.97 121.19 337.16 119.81 337.52 119.81C337.7 119.81 338.25 120.45 339.26 121.82C340.36 123.38 342.01 124.84 342.37 127.5L342.66 129.45L342.92 131.26C345.58 136.21 346.95 136.48 347.59 141.15C348.23 145.55 351.62 148.02 352.9 148.84L353.81 158.18C353.9 159.46 354.45 161.02 355.37 162.76C355.55 160.29 358.39 154.24 358.39 151.68V150.49C358.3 150.03 358.3 149.66 358.3 149.39C358.3 146.82 360.77 138.21 360.77 135.65C360.77 135.05 360.65 133.89 360.54 132.71C360.43 131.55 360.31 130.38 360.31 129.7C360.31 126.86 362.51 117.34 362.51 114.5C362.51 113.05 361.69 108.01 361.69 106.54Z" fill="url(#paint8_linear)"/>
<path d="M126.86 14.5301C126.86 14.3601 126.86 14.0001 126.77 13.5601V12.5901C126.77 10.9201 127.47 7.31007 127.47 5.64007C127.47 3.79007 126.5 2.82007 124.57 2.82007C123.6 2.82007 121.58 3.70007 120.52 3.70007C119.37 3.70007 115.41 1.50007 113.65 1.32007C112.95 2.02007 112.59 3.70007 112.59 6.43007C112.59 11.2701 114.53 14.7001 114.53 16.1101C114.53 18.2201 113.3 23.2401 113.3 27.3801C113.3 28.6601 114.96 30.4401 115.27 32.0201C115.31 32.1801 115.32 32.3401 115.32 32.4901C115.32 35.6601 114.7 36.1001 111.54 36.1001C110.39 36.1001 107.49 37.1601 106.34 37.1601C105.55 37.1601 105.11 36.9801 105.11 36.5401C105.11 35.2601 105.71 32.7501 106.28 30.4401C106.81 28.3101 107.31 26.3401 107.31 25.6201C107.31 19.8101 105.99 15.5001 105.99 10.5701C105.99 9.78007 105.99 8.90007 106.08 7.93007V5.20007C106.08 4.14007 105.56 4.05007 100.36 3.53007C99.5699 3.53007 96.4899 2.03007 94.9899 2.03007C93.7599 2.03007 93.1399 2.65007 93.1399 3.88007C93.1399 5.64007 95.6099 12.4201 95.6099 14.7101C95.6099 17.1801 93.4099 25.4501 93.4099 27.9201C93.4099 28.5301 93.5299 29.4401 93.7199 30.4901C94.3299 33.8901 95.6099 38.8901 95.6099 40.7701C95.6099 42.1801 95.0799 45.8801 95.0799 47.2901C95.0799 49.4901 97.4599 55.9201 97.4599 58.0301V59.0001C97.3699 59.5301 97.3699 59.8801 97.3699 60.1501C97.3699 62.8801 100.1 70.5401 100.27 72.5601C103.09 67.1001 101.15 64.0201 103.53 55.9201C104.23 53.4501 104.67 51.6001 104.67 50.0201C104.67 49.5801 104.41 48.0801 104.41 47.4701C104.41 46.5001 105.11 45.9701 106.61 45.7101L110.93 45.0101C113.3 44.2201 114.45 43.8701 114.54 43.8701C116.56 43.8701 115.07 47.8301 117.01 56.3701C119.38 66.7601 117.36 67.0201 120.27 72.5701C120.44 70.2001 123.17 64.3801 123.17 61.9201V60.7801C123.08 60.3401 123.08 59.9901 123.08 59.7201C123.08 57.2501 125.45 48.9801 125.45 46.5101C125.45 45.3701 124.93 42.1101 124.93 40.7901C124.93 39.6901 125.29 37.5401 125.72 35.1901C126.35 31.7201 127.13 27.8101 127.13 26.1801C127.13 24.7701 126.34 19.9301 126.34 18.5201C126.33 17.5201 126.86 15.4901 126.86 14.5301Z" fill="url(#paint9_linear)"/>
<path d="M161.98 46.4799C161.98 45.3399 161.54 42.0799 161.54 40.7599C161.54 40.0299 161.69 38.8299 161.92 37.4199C162.53 33.5799 163.66 28.1399 163.66 26.1499C163.66 24.0399 162.16 19.4599 162.08 19.4599C161.64 17.6999 161.37 15.4099 161.37 12.5899C161.37 10.9199 162.34 7.30994 162.34 5.63994C162.34 3.78994 161.28 2.81994 159.26 2.81994C158.29 2.81994 156.27 3.69994 155.21 3.69994C154.07 3.69994 149.4 1.93994 146.94 1.93994C144.92 1.93994 143.95 3.69994 141.22 3.69994C140.7 3.69994 139.9 3.60994 138.76 3.52994C137.7 3.43994 134.88 2.02994 133.21 2.02994C132.06 2.02994 131.45 2.82994 131.45 4.31994C131.45 5.81994 132.24 11.7999 132.24 13.5699C132.24 16.3899 129.95 25.0999 129.95 27.9199C129.95 29.5899 130.89 33.4899 131.53 36.6899C131.88 38.3999 132.15 39.9199 132.15 40.7799C132.15 42.1899 131.62 45.8899 131.62 47.2999C131.62 49.4999 134 55.9299 134 58.0399C134 58.2099 134 58.5599 133.91 59.0099V60.1599C133.91 62.7999 136.64 70.4599 136.9 72.5699C139.63 67.0299 137.43 64.1199 139.98 55.9299C140.68 53.4599 141.12 51.5299 141.12 50.0299V48.7999C141.03 48.1799 141.03 47.7399 141.03 47.4799C141.03 45.2799 147.81 44.9299 147.81 44.9299H147.72C149.83 44.2299 150.98 43.8799 151.07 43.8799C153.09 43.8799 151.6 47.8399 153.54 56.3799C154.33 59.8999 154.77 62.3699 154.95 63.6899L155.21 68.1799C155.39 69.4099 155.91 70.9099 156.71 72.5799C156.88 70.2899 159.7 64.3899 159.7 61.9299C159.7 61.6699 159.7 61.2299 159.61 60.7899V59.7299C159.61 57.2199 161.98 48.9499 161.98 46.4799ZM143.76 25.6199V17.6099C143.76 15.7599 145.44 13.6499 147.11 13.6499C149.31 13.6499 149.75 15.4899 149.75 22.7999V27.3799C149.75 28.7899 151.86 30.8099 151.86 32.4899C151.86 35.6599 151.24 36.0999 148.08 36.0999C146.76 36.0999 144.12 37.1599 142.8 37.1599C142.01 37.1599 141.65 36.9799 141.65 36.5399C141.65 34.1599 143.76 27.1199 143.76 25.6199Z" fill="url(#paint10_linear)"/>
<path d="M198.17 8.1C198.17 7.58 198.34 3.17 195.18 3.17C194.74 3.17 193.42 3.43 192.8 3.43C191.04 3.43 187.78 0 186.02 0C184.87 0 183.12 2.02 182.06 2.02C180.48 2.02 175.9 0.26 174.31 0.26C173.7 0.26 172.47 1.84 171.41 1.84C170.62 1.84 168.59 1.14 167.8 1.14C165.86 1.14 164.19 4.31 164.01 4.13C164.45 9.33 166.3 15.49 168.59 16.1C168.5 17.25 166.48 25.08 166.48 27.9C166.48 29.4 166.92 31.69 167.71 34.85C166.59 35.5 165.75 36.19 165.15 36.89C164.86 37.23 164.63 37.58 164.45 37.93L166.21 43.21H167.09C167.62 43.21 168.06 43.21 168.5 43.38C168.23 45.4 168.15 46.64 168.15 47.26C168.15 49.46 170.53 55.89 170.53 58V58.97C170.44 59.5 170.44 59.85 170.44 60.12C170.44 62.85 173.26 70.42 173.43 72.53C176.07 67.07 174.4 64.08 176.69 55.89C178.27 50.25 177.66 50.61 178.19 40.83C181.19 40.48 184.35 37.14 185.85 37.14C186.55 37.14 188.31 37.58 189.1 37.58C192.25 37.58 191.12 32.55 192.48 32.23C192.53 32.22 192.58 32.22 192.62 32.21C193.24 32.21 194.64 32.74 195.08 32.74C195.56 32.74 195.87 32.4 196.07 31.91C196.37 31.14 196.4 29.99 196.4 29.13V28.43C196.4 27.81 200.98 22.79 200.98 20.06C200.98 16.99 200.02 13.03 198.17 8.1ZM180.39 25.62V18.49C180.39 17.34 180.91 16.2 181.89 15.06C182.15 15.15 182.41 15.15 182.59 15.15C183.73 15.15 186.28 13.92 187.43 13.92C188.49 13.92 189.45 14.8 190.25 16.65C189.99 17.09 189.9 17.71 189.9 18.5C189.9 19.29 190.25 21.23 190.25 22.02C190.25 22.81 187.88 27.65 187.7 29.5C186.82 29.77 183.13 31.97 181.01 31.97C180.49 31.97 179.78 31.88 178.99 31.71C179.94 28.26 180.39 26.23 180.39 25.62Z" fill="url(#paint11_linear)"/>
<path d="M235.4 8.1C235.4 7.58 235.57 3.17 232.41 3.17C231.97 3.17 230.65 3.43 230.03 3.43C228.27 3.43 225.01 0 223.25 0C222.1 0 220.35 2.02 219.29 2.02C217.71 2.02 213.13 0.26 211.55 0.26C210.93 0.26 209.7 1.84 208.64 1.84C207.85 1.84 205.82 1.14 205.03 1.14C203.09 1.14 201.42 4.31 201.24 4.13C201.68 9.33 203.53 15.49 205.82 16.1C205.73 17.25 203.71 25.08 203.71 27.9C203.71 28.9 203.91 30.24 204.27 31.97C204.46 32.84 204.68 33.8 204.94 34.86C203.26 35.83 202.21 36.88 201.68 37.94L203.44 43.22H204.32C204.85 43.22 205.29 43.22 205.73 43.39C205.46 45.41 205.38 46.65 205.38 47.27C205.38 49.47 207.76 55.9 207.76 58.01V58.98C207.67 59.51 207.67 59.86 207.67 60.13C207.67 62.86 210.49 70.43 210.66 72.54C213.3 67.08 211.63 64.09 213.92 55.9C215.5 50.26 214.89 50.62 215.42 40.84C218.16 40.52 221.05 37.69 222.67 37.22C222.82 37.17 222.96 37.15 223.09 37.15C223.79 37.15 225.55 37.59 226.34 37.59C229.6 37.59 228.28 32.22 229.87 32.22C230.49 32.22 231.89 32.75 232.33 32.75C233.56 32.75 233.65 30.55 233.65 29.14V28.44C233.65 27.82 238.23 22.8 238.23 20.07C238.22 16.99 237.25 13.03 235.4 8.1ZM227.48 22.01C227.48 22.8 225.11 27.64 224.93 29.49C224.05 29.76 220.36 31.96 218.24 31.96C217.72 31.96 217.01 31.87 216.22 31.7C217.19 28.26 217.63 26.24 217.63 25.62V18.49C217.63 17.34 218.15 16.2 219.13 15.06C219.39 15.15 219.66 15.15 219.83 15.15C220.98 15.15 223.53 13.92 224.67 13.92C225.73 13.92 226.69 14.8 227.49 16.65C227.23 17.09 227.14 17.71 227.14 18.5C227.13 19.28 227.48 21.22 227.48 22.01Z" fill="url(#paint12_linear)"/>
<path d="M275.46 1.06006C275.02 1.06006 272.2 3.70006 271.24 3.70006C269.83 3.70006 266.49 2.38006 265.08 2.38006C263.32 2.38006 259.53 3.88006 259.53 12.5001C259.53 13.1201 259.88 14.5201 259.88 15.1401C259.88 16.1101 257.41 21.8301 257.33 22.5401C255.57 20.5201 253.55 19.1101 253.55 15.5901C253.55 14.7901 253.72 12.7701 253.72 11.8001C253.72 7.31006 251.78 4.41006 250.55 3.96006L243.95 3.61006C243.16 3.52006 240.69 2.64006 239.38 2.64006C238.15 2.64006 237.53 3.08006 237.53 4.05006C237.53 5.28006 242.2 13.3001 242.55 15.8501C242.99 19.2801 243.7 23.2401 244.75 27.9101C245.36 30.6401 251.17 37.7701 251.88 39.8001C251.81 40.0601 251.8 40.4701 251.8 40.9901C251.79 41.1601 251.79 41.3601 251.79 41.5601C251.79 49.6601 251.88 49.4001 253.55 53.9801C254.07 55.5601 254.25 56.8801 254.34 58.0301V59.0001C254.25 59.5301 254.17 59.8801 254.17 60.1501C254.17 62.8801 256.99 70.4501 257.16 72.5601C259.89 67.1001 258.13 64.0201 260.42 55.9201C261.12 53.4501 261.47 51.5201 261.47 50.0201C261.47 47.4701 261.38 45.5301 261.38 44.0301C261.38 39.8901 261.82 38.8301 264.73 35.1401C265.23 34.5001 265.62 33.9401 265.94 33.4401C267.64 30.7701 267.22 29.7001 269.75 26.0701C270.89 24.4001 271.42 23.0801 271.42 22.1101C271.42 17.9701 271.77 15.2401 272.57 14.0101C276 8.81006 277.77 5.29006 277.77 3.54006C277.75 1.85006 276.95 1.06006 275.46 1.06006Z" fill="url(#paint13_linear)"/>
<path d="M192.62 32.2199C193.81 32.0899 194.96 31.9899 196.07 31.9199C195.87 32.4099 195.57 32.7499 195.08 32.7499C194.65 32.7499 193.24 32.2199 192.62 32.2199Z" fill="url(#paint14_linear)"/>
</g>
<defs>
<linearGradient id="paint0_linear" x1="17.86" y1="88.6799" x2="17.86" y2="162.79" gradientUnits="userSpaceOnUse">
<stop stop-color="#FF8E3C"/>
<stop offset="1" stop-color="#6C2B35"/>
</linearGradient>
<linearGradient id="paint1_linear" x1="55.825" y1="89.3301" x2="55.825" y2="162.78" gradientUnits="userSpaceOnUse">
<stop stop-color="#FF8E3C"/>
<stop offset="1" stop-color="#6C2B35"/>
</linearGradient>
<linearGradient id="paint2_linear" x1="92.46" y1="89.3201" x2="92.46" y2="163.23" gradientUnits="userSpaceOnUse">
<stop stop-color="#FF8E3C"/>
<stop offset="1" stop-color="#6C2B35"/>
</linearGradient>
<linearGradient id="paint3_linear" x1="124.265" y1="89.3201" x2="124.265" y2="163.24" gradientUnits="userSpaceOnUse">
<stop stop-color="#FF8E3C"/>
<stop offset="1" stop-color="#6C2B35"/>
</linearGradient>
<linearGradient id="paint4_linear" x1="153.865" y1="85.2" x2="153.865" y2="163.42" gradientUnits="userSpaceOnUse">
<stop stop-color="#FF8E3C"/>
<stop offset="1" stop-color="#6C2B35"/>
</linearGradient>
<linearGradient id="paint5_linear" x1="209.55" y1="88.98" x2="209.55" y2="163.82" gradientUnits="userSpaceOnUse">
<stop stop-color="#FF8E3C"/>
<stop offset="1" stop-color="#6C2B35"/>
</linearGradient>
<linearGradient id="paint6_linear" x1="265.285" y1="89.3301" x2="265.285" y2="163.26" gradientUnits="userSpaceOnUse">
<stop stop-color="#FF8E3C"/>
<stop offset="1" stop-color="#6C2B35"/>
</linearGradient>
<linearGradient id="paint7_linear" x1="302.385" y1="89.3301" x2="302.385" y2="163.26" gradientUnits="userSpaceOnUse">
<stop stop-color="#FF8E3C"/>
<stop offset="1" stop-color="#6C2B35"/>
</linearGradient>
<linearGradient id="paint8_linear" x1="343.705" y1="88.5801" x2="343.705" y2="162.76" gradientUnits="userSpaceOnUse">
<stop stop-color="#FF8E3C"/>
<stop offset="1" stop-color="#6C2B35"/>
</linearGradient>
<linearGradient id="paint9_linear" x1="110.305" y1="1.32007" x2="110.305" y2="72.5701" gradientUnits="userSpaceOnUse">
<stop stop-color="#FF8E3C"/>
<stop offset="1" stop-color="#6C2B35"/>
</linearGradient>
<linearGradient id="paint10_linear" x1="146.805" y1="1.93994" x2="146.805" y2="72.5799" gradientUnits="userSpaceOnUse">
<stop stop-color="#FF8E3C"/>
<stop offset="1" stop-color="#6C2B35"/>
</linearGradient>
<linearGradient id="paint11_linear" x1="182.495" y1="0" x2="182.495" y2="72.53" gradientUnits="userSpaceOnUse">
<stop stop-color="#FF8E3C"/>
<stop offset="1" stop-color="#6C2B35"/>
</linearGradient>
<linearGradient id="paint12_linear" x1="219.735" y1="0" x2="219.735" y2="72.54" gradientUnits="userSpaceOnUse">
<stop stop-color="#FF8E3C"/>
<stop offset="1" stop-color="#6C2B35"/>
</linearGradient>
<linearGradient id="paint13_linear" x1="257.65" y1="1.06006" x2="257.65" y2="72.5601" gradientUnits="userSpaceOnUse">
<stop stop-color="#FF8E3C"/>
<stop offset="1" stop-color="#6C2B35"/>
</linearGradient>
<linearGradient id="paint14_linear" x1="194.345" y1="31.9199" x2="194.345" y2="32.7499" gradientUnits="userSpaceOnUse">
<stop stop-color="#FF8E3C"/>
<stop offset="1" stop-color="#6C2B35"/>
</linearGradient>
<clipPath id="clip0">
<rect width="362.97" height="163.79" fill="white"/>
</clipPath>
</defs>
</svg>
