<svg width="388" height="960" viewBox="0 0 388 960" fill="none" xmlns="http://www.w3.org/2000/svg">
<path d="M105.631 513.157L253.906 462.297L294.045 473.962L235.925 419.423L221.494 423.206L214.686 454.73L126.201 488.658L208.045 451.971L215.543 423.478L159.031 434.766L112.606 474.422L155.293 429.687L205.957 420.259L179.413 392.08L108.889 401.466L88.8192 439.574L105.672 395.069L121.816 392.791L94.5414 374.855L0 378.179L100.89 368.897L132.571 392.185L184.405 385.579L213.454 417.123L238.264 411.793L314.469 480.066L367.264 489.076L429.352 448.814L389.004 456.653L305.448 395.299L261.174 393.648L198.292 333.966L138.23 307.501L202.427 328.259L261.195 384.45L300.018 386.854L271.992 341.241L274.372 328.928L243.067 274.995L175.821 233.459L247.725 269.874L286.047 332.921L283.227 343.582L312.339 389.258L391.092 441.456L426.699 434.453L366.951 389.948L359.516 369.984L314.219 349.853L273.453 265.484L319.983 344.753L358.367 362.835L353.627 273.156L343.978 254.133L300.54 247.653L264.933 195.329L188.456 181.428L158.279 212.136L85.6239 227.668L155.23 207.328L187.224 174.383L203.346 176.85L182.4 151.807L90.9076 127.725L190.189 147.939L213.83 179.379L260.234 188.431L252.423 176.954L196.183 123.628L261.32 173.171L304.967 237.619L340.721 245.792L255.723 114.848L230.119 108.932L189.354 59.2844L231.164 100.884L250.815 106.967L218.947 52.4697L367.765 271.86L371.399 309.466L404.04 236.72L395.791 224.282L363.797 228.086L302.983 155.339L364.236 220.895L393.599 218.742L364.57 168.906L312.005 137.843L216.065 32.2343L313.801 132.178L368.141 163.701L393.515 208.603L411.517 174.321L379.732 110.604L337.212 103.999L282.204 54.0166L339.342 98.7307L384.744 105.504L392.137 120.053L400.219 88.4041L366.324 0L407.883 92.5013L396.188 130.066L419.265 176.996L398.903 214.749L411.997 236.511L372.255 330.852L380.901 383.76L526.524 498.044L510.903 511.861C496.41 499.444 461.304 466.311 446.915 452.681C446.435 452.932 446.163 453.079 446.163 453.079L438.875 505.13L353.752 564.289L337.797 605.659L260.965 645.795L216.441 694.042L256.913 640.004L329.088 602.628L343.978 566.651L291.769 578.358L280.909 572.107L219.761 584.211L158.655 634.381L216.42 578.149L288.448 562.366L297.595 568.512L350.223 555.802L425.133 498.211L430.083 462.214L368.6 504.315L347.32 504.858L313.571 541.19L220.638 552.416L310.648 534.124L340.219 503.667L253.948 479.021L237.178 481.132L212.598 520.976L138.314 541.044L67.3088 589.123L129.48 533.915L204.558 513.534L223.896 482.345L105.631 513.157Z" fill="#E27440"/>
<path d="M206.359 826.22L322.665 786.355L354.149 795.498L308.561 752.75L297.241 755.715L291.901 780.424L222.494 807.017L286.692 778.261L292.573 755.928L248.245 764.776L211.83 795.859L245.313 760.795L285.054 753.405L264.233 731.318L208.914 738.675L193.172 768.545L206.392 733.661L219.054 731.875L197.661 717.817L123.503 720.422L202.64 713.147L227.491 731.4L268.149 726.222L290.935 750.947L310.395 746.769L370.17 800.283L411.581 807.345L460.282 775.787L428.634 781.931L363.093 733.841L328.365 732.547L279.042 685.768L231.93 665.024L282.285 681.294L328.382 725.337L358.834 727.222L336.851 691.47L338.718 681.819L314.163 639.545L261.416 606.988L317.816 635.531L347.875 684.948L345.664 693.305L368.499 729.106L430.272 770.019L458.202 764.53L411.336 729.647L405.504 713.999L369.973 698.22L337.997 632.09L374.495 694.222L404.603 708.395L400.884 638.103L393.316 623.193L359.244 618.114L331.314 577.102L271.326 566.206L247.656 590.275L190.666 602.45L245.264 586.507L270.36 560.684L283.006 562.618L266.576 542.988L194.81 524.113L272.686 539.957L291.229 564.6L327.628 571.695L321.502 562.699L277.387 520.901L328.48 559.734L362.717 610.249L390.761 616.655L324.09 514.019L304.007 509.382L272.031 470.468L304.826 503.074L320.24 507.842L295.243 465.126L411.974 637.088L414.825 666.564L440.428 609.544L433.958 599.795L408.862 602.777L361.16 545.757L409.206 597.141L432.238 595.453L409.468 556.391L368.237 532.043L292.982 449.266L369.646 527.603L412.269 552.311L432.172 587.506L446.293 560.635L421.361 510.693L388.009 505.516L344.861 466.339L389.68 501.387L425.292 506.695L431.091 518.099L437.431 493.292L410.844 424L443.442 496.504L434.269 525.948L452.37 562.732L436.399 592.324L446.67 609.38L415.496 683.326L422.278 724.797L536.503 814.374L524.25 825.204C512.882 815.472 485.345 789.501 474.059 778.818C473.682 779.015 473.469 779.13 473.469 779.13L467.752 819.928L400.983 866.298L388.468 898.724L328.202 930.183L293.277 968L325.024 925.645L381.637 896.348L393.316 868.15L352.364 877.325L343.845 872.426L295.882 881.913L247.951 921.237L293.261 877.161L349.759 864.791L356.934 869.608L398.214 859.646L456.973 814.505L460.856 786.29L412.63 819.289L395.937 819.715L369.466 848.193L296.57 856.991L367.172 842.654L390.368 818.781L322.698 799.463L309.543 801.118L290.263 832.348L231.995 848.078L176.3 885.763L225.066 842.491L283.956 826.515L299.125 802.069L206.359 826.22Z" fill="#E27440"/>
</svg>
