<svg width="50" height="50" viewBox="0 0 50 50" fill="none" xmlns="http://www.w3.org/2000/svg">
<g clip-path="url(#clip0)">
<path d="M45.6576 10.9461C43.4044 8.09092 40.0245 4.6875 36.7187 4.6875C35.7158 4.6875 34.7049 5.37441 33.3404 6.65928C31.4083 5.79785 27.1576 4.6875 25 4.6875C22.8405 4.6875 18.5898 5.79863 16.6596 6.65928C15.2951 5.37441 14.2842 4.6875 13.2812 4.6875C9.97549 4.6875 6.5956 8.09092 4.34238 10.9461C2.66348 13.0735 0 17.0733 0 18.75C0 21.8991 0.101856 23.3129 2.65625 26.7188C4.60605 29.3185 4.8127 33.1055 6.1206 35.1619C6.97637 36.5075 8.2668 37.0438 9.754 36.6721C11.236 36.3016 12.1983 35.0521 12.6247 32.9526C14.2741 35.2244 13.9965 36.5598 14.1054 37.3324C14.215 40.276 19.2513 45.3125 25 45.3125C30.7393 45.3125 35.7848 40.2812 35.8946 37.3325C36.0029 36.5637 35.7161 35.2264 37.3739 32.9465C37.8098 35.0992 38.9385 36.7872 41.1423 36.7872C45.2728 36.7872 44.5838 30.3987 47.3437 26.7188C49.898 23.313 49.9999 21.8992 49.9999 18.7501C50 17.0733 47.3365 13.0735 45.6576 10.9461ZM25 33.5938C24.1865 33.5938 23.223 32.3657 22.8254 31.5902C23.9807 31.1365 26.0186 31.1363 27.1745 31.5902C26.777 32.3657 25.8135 33.5938 25 33.5938ZM24.9999 39.84C26.0151 40.6068 27.3415 41.0696 28.7044 41.2405C26.2406 42.5012 23.7621 42.5025 21.2955 41.2405C22.6583 41.0696 23.9848 40.6068 24.9999 39.84ZM44.8437 24.8438C42.3835 28.1239 42.0061 32.8746 41.1126 33.6603C40.5549 33.6095 40.3487 31.9058 40.299 31.3476C40.043 28.467 40.625 24.3515 40.625 21.875C40.625 17.6485 37.4694 11.2887 37.3351 11.02C36.9491 10.2481 36.0104 9.93545 35.2388 10.3212C34.4669 10.7071 34.1541 11.6457 34.5399 12.4175C35.3633 14.0642 37.5 18.9731 37.5 21.875C37.5 23.5051 37.202 26.1132 37.1269 28.6167C36.282 29.3448 32.8125 32.587 32.8125 36.7188C32.8125 38.6556 27.3782 38.6613 26.3804 36.7708C26.3384 36.6911 26.2805 36.5998 26.2185 36.5224C28.566 35.7733 30.4687 32.8184 30.4687 31.25C30.4687 27.0559 19.5312 27.0559 19.5312 31.25C19.5312 32.8178 21.4275 35.7712 23.7815 36.5224C23.7203 36.5987 23.6624 36.6897 23.6196 36.7707C22.6184 38.667 17.1875 38.6521 17.1875 36.7188C17.1875 32.587 13.718 29.3448 12.8731 28.6167C12.8008 26.204 12.5 23.465 12.5 21.875C12.5 18.9803 14.6369 14.0663 15.4601 12.4175C15.846 11.6457 15.5331 10.7071 14.7612 10.3212C13.9895 9.93525 13.0508 10.2481 12.6649 11.02C12.5306 11.2887 9.375 17.6485 9.375 21.875C9.375 24.3527 9.95683 28.469 9.70088 31.3476C9.65127 31.9058 9.44512 33.6094 8.8873 33.6603C7.98447 32.8664 7.6251 28.1356 5.15615 24.8438C3.14658 22.1644 3.1252 21.434 3.1249 18.8351C3.30615 18.1152 4.78682 15.3683 7.01436 12.6077C9.36289 9.69707 11.6362 7.92354 13.1408 7.81758C13.6024 8.04951 14.5587 8.95606 15.3014 9.69863C15.8931 10.2904 16.8475 10.3109 17.4641 9.74375C18.2404 9.21377 22.9109 7.8125 25 7.8125C27.0891 7.8125 31.7596 9.21377 32.5359 9.74375C33.1519 10.3103 34.1062 10.291 34.6986 9.69863C35.9878 8.40947 36.5841 7.95664 36.8594 7.81758C38.364 7.92373 40.6372 9.69736 42.9855 12.6077C45.2131 15.3683 46.6937 18.1152 46.875 18.8351C46.8748 21.434 46.8533 22.1644 44.8437 24.8438Z" fill="white"/>
<path d="M17.5781 22.6562C18.6568 22.6562 19.5312 21.7818 19.5312 20.7031C19.5312 19.6244 18.6568 18.75 17.5781 18.75C16.4994 18.75 15.625 19.6244 15.625 20.7031C15.625 21.7818 16.4994 22.6562 17.5781 22.6562Z" fill="white"/>
<path d="M32.4219 22.6562C33.5006 22.6562 34.375 21.7818 34.375 20.7031C34.375 19.6244 33.5006 18.75 32.4219 18.75C31.3432 18.75 30.4688 19.6244 30.4688 20.7031C30.4688 21.7818 31.3432 22.6562 32.4219 22.6562Z" fill="white"/>
</g>
<defs>
<clipPath id="clip0">
<rect width="50" height="50" fill="white"/>
</clipPath>
</defs>
</svg>
