<svg width="58" height="58" viewBox="0 0 58 58" fill="none" xmlns="http://www.w3.org/2000/svg">
<rect x="6.91016" y="12.0684" width="49.3906" height="37.4961" rx="5" fill="#E3E7EA"/>
<path d="M7.20435 32.791L9.35874 35.5967V23.8037H7.66206C7.59394 23.8037 7.53865 23.8589 7.53865 23.9271V29.3489C7.53865 29.6665 7.28012 29.9251 6.96248 29.9251H6.91016V32.6399C7.02492 32.6449 7.13413 32.6996 7.20435 32.791Z" fill="#C3DDF4"/>
<path d="M9.35874 21.4408V13.4434H6.91016V18.2519L9.35874 21.4408Z" fill="#C3DDF4"/>
<path d="M9.35875 48.9831V37.8721H8.59216C8.52404 37.8721 8.46875 37.9272 8.46875 37.9955V41.9798C8.46875 42.1952 8.29352 42.3704 8.07805 42.3704H6.91016V48.9831C6.91016 49.3225 7.18782 49.6002 7.52718 49.6002H9.97577C9.63641 49.6002 9.35875 49.3225 9.35875 48.9831Z" fill="#C3DDF4"/>
<path d="M58 12.9219C58 13.2624 57.7225 13.541 57.3833 13.541H5.82763C5.48845 13.541 5.21094 13.2624 5.21094 12.9219V8.83589C5.21094 8.49539 5.48845 8.2168 5.82763 8.2168H57.3833C57.7225 8.2168 58 8.49539 58 8.83589V12.9219Z" fill="#EF5350"/>
<path d="M7.65392 12.9219V8.83589C7.65392 8.49539 7.93095 8.2168 8.26953 8.2168H5.82655C5.48796 8.2168 5.21094 8.49539 5.21094 8.83589V12.9219C5.21094 13.2624 5.48796 13.541 5.82655 13.541H8.26953C7.93095 13.541 7.65392 13.2624 7.65392 12.9219Z" fill="#D32F2F"/>
<path d="M17.7944 25.624C20.2136 25.624 22.1748 23.6628 22.1748 21.2436C22.1748 18.8244 20.2136 16.8633 17.7944 16.8633C15.3752 16.8633 13.4141 18.8244 13.4141 21.2436C13.4141 23.6628 15.3752 25.624 17.7944 25.624Z" fill="#91E0E8"/>
<path d="M17.1446 24.3405C15.4341 22.63 15.434 19.8565 17.1446 18.1457C17.6851 17.6052 18.332 17.236 19.0178 17.037C17.5333 16.6066 15.866 16.9757 14.696 18.1457C12.9854 19.8565 12.9855 22.63 14.696 24.3405C15.8661 25.5106 17.5333 25.8799 19.0176 25.4491C18.3319 25.2503 17.6851 24.8811 17.1446 24.3405Z" fill="#91E0E8"/>
<path d="M25.6694 27.8154L22.1434 24.29C23.5949 22.2156 23.3966 19.3298 21.5453 17.4786C20.5399 16.4736 19.2032 15.9199 17.7813 15.9199C16.3595 15.9199 15.0228 16.4736 14.0174 17.4788C11.9421 19.5539 11.9421 22.9301 14.0174 25.005C15.0228 26.0103 16.3595 26.5639 17.7813 26.5639C18.8885 26.5639 19.9432 26.2269 20.8308 25.6037L24.3563 29.1286C24.5376 29.3098 24.7753 29.4004 25.0128 29.4004C25.2504 29.4004 25.4881 29.3098 25.6694 29.1286C26.0321 28.7657 26.0321 28.178 25.6694 27.8154ZM15.3306 23.692C13.9793 22.3409 13.9793 20.1425 15.3306 18.7914C15.9852 18.1369 16.8556 17.7764 17.7813 17.7764C18.7071 17.7764 19.5776 18.1369 20.2321 18.7913C21.5835 20.1425 21.5835 22.3409 20.2322 23.692C19.5776 24.3465 18.7071 24.707 17.7813 24.707C16.8556 24.707 15.9852 24.3466 15.3306 23.692Z" fill="#293D7C"/>
<path d="M33.0528 29.0492C33.0528 29.2528 32.8862 29.4194 32.6826 29.4194H30.6466C30.443 29.4194 30.2764 29.2528 30.2764 29.0492V17.2345C30.2764 17.0309 30.443 16.8643 30.6466 16.8643H32.6826C32.8862 16.8643 33.0528 17.0309 33.0528 17.2345V29.0492Z" fill="#5DC1D8"/>
<path d="M36.7549 29.0488C36.7549 29.2524 36.5883 29.419 36.3847 29.419H34.3487C34.1451 29.419 33.9785 29.2524 33.9785 29.0488V21.4864C33.9785 21.2828 34.1451 21.1162 34.3487 21.1162H36.3847C36.5883 21.1162 36.7549 21.2828 36.7549 21.4864V29.0488Z" fill="#5DC1D8"/>
<path d="M40.4571 29.0486C40.4571 29.2522 40.2905 29.4188 40.0869 29.4188H38.0509C37.8473 29.4188 37.6807 29.2522 37.6807 29.0486V23.714C37.6807 23.5105 37.8473 23.3438 38.0509 23.3438H40.0869C40.2905 23.3438 40.4571 23.5105 40.4571 23.714V29.0486Z" fill="#5DC1D8"/>
<path d="M51.5831 29.0489C51.5831 29.2525 51.4165 29.4191 51.2129 29.4191H49.1769C48.9732 29.4191 48.8066 29.2525 48.8066 29.0489V26.2022C48.8066 25.9986 48.9732 25.832 49.1769 25.832H51.2129C51.4165 25.832 51.5831 25.9986 51.5831 26.2022V29.0489Z" fill="#5DC1D8"/>
<path d="M44.1594 29.0492C44.1594 29.2528 43.9928 29.4194 43.7892 29.4194H41.753C41.5494 29.4194 41.3828 29.2528 41.3828 29.0492V19.462C41.3828 19.2584 41.5494 19.0918 41.753 19.0918H43.7892C43.9928 19.0918 44.1594 19.2584 44.1594 19.462V29.0492Z" fill="#5DC1D8"/>
<path d="M47.8614 29.0489C47.8614 29.2525 47.6948 29.4191 47.4912 29.4191H45.4552C45.2516 29.4191 45.085 29.2525 45.085 29.0489V22.4991C45.085 22.2955 45.2516 22.1289 45.4552 22.1289H47.4912C47.6948 22.1289 47.8614 22.2955 47.8614 22.4991V29.0489Z" fill="#5DC1D8"/>
<path d="M31.4281 29.0492V17.2345C31.4281 17.0309 31.5947 16.8643 31.7983 16.8643H30.6466C30.443 16.8643 30.2764 17.0309 30.2764 17.2345V29.0492C30.2764 29.2528 30.443 29.4194 30.6466 29.4194H31.7983C31.5948 29.4194 31.4281 29.2528 31.4281 29.0492Z" fill="#28A5A5"/>
<path d="M35.1302 29.0488V21.4864C35.1302 21.2828 35.2968 21.1162 35.5005 21.1162H34.3487C34.1451 21.1162 33.9785 21.2828 33.9785 21.4864V29.0488C33.9785 29.2524 34.1451 29.419 34.3487 29.419H35.5005C35.297 29.419 35.1302 29.2524 35.1302 29.0488Z" fill="#28A5A5"/>
<path d="M38.8324 29.0486V23.714C38.8324 23.5105 38.999 23.3438 39.2026 23.3438H38.0509C37.8473 23.3438 37.6807 23.5105 37.6807 23.714V29.0486C37.6807 29.2522 37.8473 29.4188 38.0509 29.4188H39.2026C38.999 29.4188 38.8324 29.2522 38.8324 29.0486Z" fill="#28A5A5"/>
<path d="M49.9584 29.0489V26.2022C49.9584 25.9986 50.125 25.832 50.3286 25.832H49.1769C48.9732 25.832 48.8066 25.9986 48.8066 26.2022V29.0489C48.8066 29.2525 48.9732 29.4191 49.1769 29.4191H50.3286C50.1248 29.4191 49.9584 29.2525 49.9584 29.0489Z" fill="#28A5A5"/>
<path d="M42.5336 29.0492V19.462C42.5336 19.2584 42.7002 19.0918 42.9038 19.0918H41.752C41.5484 19.0918 41.3818 19.2584 41.3818 19.462V29.0492C41.3818 29.2528 41.5484 29.4194 41.752 29.4194H42.9038C42.7002 29.4194 42.5336 29.2528 42.5336 29.0492Z" fill="#28A5A5"/>
<path d="M46.2357 29.0489V22.4991C46.2357 22.2955 46.4023 22.1289 46.6059 22.1289H45.4542C45.2506 22.1289 45.084 22.2955 45.084 22.4991V29.0489C45.084 29.2525 45.2506 29.4191 45.4542 29.4191H46.6059C46.4022 29.4191 46.2357 29.2525 46.2357 29.0489Z" fill="#28A5A5"/>
<path d="M15.9727 39.4824C18.4126 39.4824 20.3906 37.5044 20.3906 35.0645C20.3906 32.6245 18.4126 30.6465 15.9727 30.6465C13.5327 30.6465 11.5547 32.6245 11.5547 35.0645C11.5547 37.5044 13.5327 39.4824 15.9727 39.4824Z" fill="#EF8318"/>
<path d="M13.3406 35.0643C13.3406 32.9295 14.8595 31.1482 16.8789 30.7362C16.5905 30.6773 16.2918 30.6465 15.986 30.6465C13.5386 30.6465 11.5547 32.6245 11.5547 35.0643C11.5547 37.5044 13.5386 39.4824 15.986 39.4824C16.2919 39.4824 16.5905 39.4515 16.8789 39.3927C14.8595 38.9807 13.3406 37.1994 13.3406 35.0643Z" fill="#DB722C"/>
<path d="M15.3884 37.4434C15.1442 37.4434 14.91 37.3471 14.7374 37.1756L13.0704 35.5208C12.7109 35.1639 12.7109 34.5853 13.0704 34.2284C13.43 33.8716 14.0129 33.8715 14.3723 34.2285L15.3882 35.237L17.3463 33.2931C17.7059 32.9361 18.2886 32.9362 18.6483 33.293C19.0078 33.6499 19.0078 34.2286 18.6484 34.5854L16.0394 37.1756C15.8667 37.3471 15.6326 37.4434 15.3884 37.4434Z" fill="#FFD00D"/>
<path d="M29.3699 34.6724H22.5447C22.0335 34.6724 21.6191 34.2581 21.6191 33.7468C21.6191 33.2356 22.0335 32.8213 22.5447 32.8213H29.3699C29.8811 32.8213 30.2955 33.2356 30.2955 33.7468C30.2955 34.2581 29.8811 34.6724 29.3699 34.6724Z" fill="#FF9F60"/>
<path d="M27.272 37.6343H22.5447C22.0335 37.6343 21.6191 37.2199 21.6191 36.7087C21.6191 36.1975 22.0335 35.7832 22.5447 35.7832H27.272C27.7832 35.7832 28.1976 36.1975 28.1976 36.7087C28.1976 37.22 27.7832 37.6343 27.272 37.6343Z" fill="#FF9F60"/>
<path d="M3.72183 30.0801C3.33749 30.0801 3.02594 29.7666 3.02594 29.3798V23.9524H0.69595C0.430802 23.9524 0.188854 23.8009 0.0718694 23.5617C-0.0454833 23.3225 -0.0174954 23.0371 0.143926 22.8256L4.77224 16.7601C4.90395 16.5875 5.10785 16.4863 5.32426 16.4863C5.54068 16.4863 5.74445 16.5874 5.87629 16.7601L10.5046 22.8256C10.6659 23.0371 10.6939 23.3225 10.5767 23.5617C10.4595 23.801 10.2177 23.9524 9.95258 23.9524H7.62222V29.3798C7.62222 29.7666 7.31079 30.0801 6.92632 30.0801H3.72183Z" fill="#52BBEF"/>
<path d="M4.53125 22.8639C4.53125 22.6575 4.36525 22.4902 4.16044 22.4902H0.354768L0.144887 22.7656C-0.0175299 22.9789 -0.0458354 23.2667 0.0723307 23.5078C0.190126 23.7491 0.433751 23.9018 0.700737 23.9018H3.04688V29.374C3.04688 29.764 3.36071 30.0801 3.7476 30.0801H4.53113L4.53125 22.8639Z" fill="#1E99D6"/>
<path d="M5.71693 42.541C5.43069 42.541 5.19869 42.3085 5.19869 42.0217V37.9963H3.46361C3.26619 37.9963 3.08594 37.8841 2.99886 37.7066C2.91141 37.5292 2.93231 37.3176 3.05248 37.1608L6.49914 32.6621C6.59729 32.5342 6.74905 32.459 6.91014 32.459C7.07124 32.459 7.22313 32.5342 7.32115 32.6621L10.7678 37.1608C10.888 37.3176 10.9089 37.5292 10.8215 37.7066C10.7345 37.8841 10.5543 37.9963 10.3568 37.9963H8.62159V42.0217C8.62159 42.3085 8.38972 42.541 8.10336 42.541H5.71693Z" fill="#52BBEF"/>
<path d="M6.45703 37.2508C6.45703 37.0443 6.28933 36.877 6.08243 36.877H3.27328L3.05288 37.1634C2.93226 37.3202 2.91128 37.5317 2.99907 37.709C3.08647 37.8864 3.26728 37.9986 3.46557 37.9986H5.20723V42.022C5.20723 42.3086 5.44011 42.541 5.72743 42.541H6.45703V37.2508Z" fill="#1E99D6"/>
<path d="M19.4844 45.5571C19.4844 45.7674 19.3175 45.9395 19.1136 45.9395H11.6989C11.495 45.9395 11.3281 45.7674 11.3281 45.5571V43.2632C11.3281 43.0529 11.495 42.8809 11.6989 42.8809H19.1136C19.3175 42.8809 19.4844 43.0529 19.4844 43.2632V45.5571Z" fill="#EF8318"/>
<path d="M13.7882 45.5571V43.2632C13.7882 43.0529 13.9556 42.8809 14.1602 42.8809H11.7001C11.4955 42.8809 11.3281 43.0529 11.3281 43.2632V45.5571C11.3281 45.7674 11.4955 45.9395 11.7001 45.9395H14.16C13.9556 45.9395 13.7882 45.7674 13.7882 45.5571Z" fill="#DB722C"/>
<path d="M24.1268 45.528C24.1268 45.7316 23.9602 45.8982 23.7566 45.8982H21.1651C20.9615 45.8982 20.7949 45.7316 20.7949 45.528V43.3067C20.7949 43.1031 20.9615 42.9365 21.1651 42.9365H23.7566C23.9602 42.9365 24.1268 43.1031 24.1268 43.3067V45.528Z" fill="#EF8318"/>
<path d="M28.4462 45.528C28.4462 45.7316 28.2796 45.8982 28.076 45.8982H25.4845C25.2809 45.8982 25.1143 45.7316 25.1143 45.528V43.3067C25.1143 43.1031 25.2809 42.9365 25.4845 42.9365H28.076C28.2796 42.9365 28.4462 43.1031 28.4462 43.3067V45.528Z" fill="#EF8318"/>
<path d="M22.029 45.528V43.3067C22.029 43.1031 22.1956 42.9365 22.3992 42.9365H21.1651C20.9615 42.9365 20.7949 43.1031 20.7949 43.3067V45.528C20.7949 45.7316 20.9615 45.8982 21.1651 45.8982H22.3992C22.1956 45.8982 22.029 45.7316 22.029 45.528Z" fill="#DB722C"/>
<path d="M26.3483 45.528V43.3067C26.3483 43.1031 26.5149 42.9365 26.7185 42.9365H25.4845C25.2809 42.9365 25.1143 43.1031 25.1143 43.3067V45.528C25.1143 45.7316 25.2809 45.8982 25.4845 45.8982H26.7185C26.5149 45.8982 26.3483 45.7316 26.3483 45.528Z" fill="#DB722C"/>
<path d="M39.4219 45.5571C39.4219 45.7674 39.255 45.9395 39.0511 45.9395H31.6364C31.4325 45.9395 31.2656 45.7674 31.2656 45.5571V43.2632C31.2656 43.0529 31.4325 42.8809 31.6364 42.8809H39.0511C39.255 42.8809 39.4219 43.0529 39.4219 43.2632V45.5571Z" fill="#EF5350"/>
<path d="M33.7257 45.5571V43.2632C33.7257 43.0529 33.8931 42.8809 34.0977 42.8809H31.6376C31.433 42.8809 31.2656 43.0529 31.2656 43.2632V45.5571C31.2656 45.7674 31.433 45.9395 31.6376 45.9395H34.0977C33.8931 45.9395 33.7257 45.7674 33.7257 45.5571Z" fill="#D32F2F"/>
<path d="M51.3164 45.5571C51.3164 45.7674 51.1496 45.9395 50.9457 45.9395H43.5309C43.327 45.9395 43.1602 45.7674 43.1602 45.5571V43.2632C43.1602 43.0529 43.327 42.8809 43.5309 42.8809H50.9457C51.1496 42.8809 51.3164 43.0529 51.3164 43.2632V45.5571Z" fill="#EF5350"/>
<path d="M45.6202 45.5571V43.2632C45.6202 43.0529 45.7876 42.8809 45.9922 42.8809H43.5321C43.3275 42.8809 43.1602 43.0529 43.1602 43.2632V45.5571C43.1602 45.7674 43.3275 45.9395 43.5321 45.9395H45.9922C45.7876 45.9395 45.6202 45.7674 45.6202 45.5571Z" fill="#D32F2F"/>
<path d="M50.4637 34.6724H32.2175C31.7064 34.6724 31.292 34.2581 31.292 33.7468C31.292 33.2356 31.7064 32.8213 32.2175 32.8213H50.4637C50.9748 32.8213 51.3892 33.2356 51.3892 33.7468C51.3892 34.2581 50.975 34.6724 50.4637 34.6724Z" fill="#FF9F60"/>
<path d="M50.4637 37.6304H32.2175C31.7064 37.6304 31.292 37.2161 31.292 36.7048C31.292 36.1936 31.7064 35.7793 32.2175 35.7793H50.4637C50.9748 35.7793 51.3892 36.1936 51.3892 36.7048C51.3892 37.2161 50.975 37.6304 50.4637 37.6304Z" fill="#FF9F60"/>
<path d="M50.4637 40.5874H32.2175C31.7064 40.5874 31.292 40.1731 31.292 39.6619C31.292 39.1506 31.7064 38.7363 32.2175 38.7363H50.4637C50.9748 38.7363 51.3892 39.1506 51.3892 39.6619C51.3892 40.1731 50.975 40.5874 50.4637 40.5874Z" fill="#FF9F60"/>
</svg>
