<svg width="58" height="58" viewBox="0 0 58 58" fill="none" xmlns="http://www.w3.org/2000/svg">
<path d="M49.9999 58H7.99998C6.89538 58 6 57.1046 6 56V1.99998C6 0.895375 6.89538 0 7.99998 0H50C51.1046 0 52 0.895375 52 1.99998V56C51.9999 57.1045 51.1044 58 49.9999 58Z" fill="#C7CFE2"/>
<path d="M51.9999 20H6V1.99998C6 0.895375 6.89538 0 7.99998 0H50C51.1046 0 52 0.895375 52 1.99998V20H51.9999Z" fill="#707487"/>
<path d="M15 30.0001H11C10.4478 30.0001 10 29.5523 10 29V25C10 24.4478 10.4478 24 11 24H15C15.5522 24 16 24.4478 16 25V29C15.9999 29.5523 15.5522 30.0001 15 30.0001Z" fill="#5B5D6E"/>
<path d="M15 46.0001H11C10.4478 46.0001 10 45.5523 10 45V41C10 40.4478 10.4478 40 11 40H15C15.5522 40 16 40.4478 16 41V45C15.9999 45.5523 15.5522 46.0001 15 46.0001Z" fill="#5B5D6E"/>
<path d="M15 38.0001H11C10.4478 38.0001 10 37.5523 10 37V33C10 32.4478 10.4478 32 11 32H15C15.5522 32 16 32.4478 16 33V37C15.9999 37.5524 15.5522 38.0001 15 38.0001Z" fill="#5B5D6E"/>
<path d="M15 54H11C10.4478 54 10 53.5522 10 53V49C10 48.4478 10.4478 48 11 48H15C15.5522 48 16 48.4478 16 49V53C15.9999 53.5522 15.5522 54 15 54Z" fill="#FF6464"/>
<path d="M23 30.0001H19C18.4478 30.0001 18 29.5523 18 29V25C18 24.4478 18.4478 24 19 24H23C23.5523 24 24.0001 24.4478 24.0001 25V29C24.0001 29.5523 23.5524 30.0001 23 30.0001Z" fill="#8F96AC"/>
<path d="M23 46.0001H19C18.4478 46.0001 18 45.5523 18 45V41C18 40.4478 18.4478 40 19 40H23C23.5523 40 24.0001 40.4478 24.0001 41V45C24.0001 45.5523 23.5524 46.0001 23 46.0001Z" fill="#8F96AC"/>
<path d="M23 38.0001H19C18.4478 38.0001 18 37.5523 18 37V33C18 32.4478 18.4478 32 19 32H23C23.5523 32 24.0001 32.4478 24.0001 33V37C24.0001 37.5524 23.5524 38.0001 23 38.0001Z" fill="#8F96AC"/>
<path d="M23 54H19C18.4478 54 18 53.5522 18 53V49C18 48.4478 18.4478 48 19 48H23C23.5523 48 24.0001 48.4478 24.0001 49V53C24.0001 53.5522 23.5524 54 23 54Z" fill="#8F96AC"/>
<path d="M31 30.0001H27C26.4478 30.0001 26 29.5523 26 29V25C26 24.4478 26.4478 24 27 24H31C31.5523 24 32.0001 24.4478 32.0001 25V29C32.0001 29.5523 31.5523 30.0001 31 30.0001Z" fill="#8F96AC"/>
<path d="M31 46.0001H27C26.4478 46.0001 26 45.5523 26 45V41C26 40.4478 26.4478 40 27 40H31C31.5523 40 32.0001 40.4478 32.0001 41V45C32.0001 45.5523 31.5523 46.0001 31 46.0001Z" fill="#8F96AC"/>
<path d="M31 38.0001H27C26.4478 38.0001 26 37.5523 26 37V33C26 32.4478 26.4478 32 27 32H31C31.5523 32 32.0001 32.4478 32.0001 33V37C32.0001 37.5524 31.5523 38.0001 31 38.0001Z" fill="#8F96AC"/>
<path d="M31 54H27C26.4478 54 26 53.5522 26 53V49C26 48.4478 26.4478 48 27 48H31C31.5523 48 32.0001 48.4478 32.0001 49V53C32.0001 53.5522 31.5523 54 31 54Z" fill="#8F96AC"/>
<path d="M39 30.0001H35C34.4478 30.0001 34 29.5523 34 29V25C34 24.4478 34.4478 24 35 24H39C39.5523 24 40.0001 24.4478 40.0001 25V29C39.9999 29.5523 39.5523 30.0001 39 30.0001Z" fill="#8F96AC"/>
<path d="M39 46.0001H35C34.4478 46.0001 34 45.5523 34 45V41C34 40.4478 34.4478 40 35 40H39C39.5523 40 40.0001 40.4478 40.0001 41V45C39.9999 45.5523 39.5523 46.0001 39 46.0001Z" fill="#8F96AC"/>
<path d="M39 38.0001H35C34.4478 38.0001 34 37.5523 34 37V33C34 32.4478 34.4478 32 35 32H39C39.5523 32 40.0001 32.4478 40.0001 33V37C39.9999 37.5524 39.5523 38.0001 39 38.0001Z" fill="#8F96AC"/>
<path d="M39 54H35C34.4478 54 34 53.5522 34 53V49C34 48.4478 34.4478 48 35 48H39C39.5523 48 40.0001 48.4478 40.0001 49V53C39.9999 53.5522 39.5523 54 39 54Z" fill="#5B5D6E"/>
<path d="M47 30.0001H43C42.4478 30.0001 42 29.5523 42 29V25C42 24.4478 42.4478 24 43 24H47C47.5523 24 48.0001 24.4478 48.0001 25V29C47.9999 29.5523 47.5523 30.0001 47 30.0001Z" fill="#5B5D6E"/>
<path d="M47 38.0001H43C42.4478 38.0001 42 37.5523 42 37V33C42 32.4478 42.4478 32 43 32H47C47.5523 32 48.0001 32.4478 48.0001 33V37C47.9999 37.5524 47.5523 38.0001 47 38.0001Z" fill="#5B5D6E"/>
<path d="M47 54.0001H43C42.4478 54.0001 42 53.5523 42 53V41C42 40.4478 42.4478 40 43 40H47C47.5523 40 48.0001 40.4478 48.0001 41V53C47.9999 53.5523 47.5523 54.0001 47 54.0001Z" fill="#5B5D6E"/>
<path d="M47.0001 14H11C10.4478 14 10 13.5522 10 13V5.00005C10 4.4478 10.4478 4 11 4H47C47.5523 4 48.0001 4.4478 48.0001 5.00005V13.0001C48.0001 13.5523 47.5524 14 47.0001 14Z" fill="#D7DEED"/>
<path d="M15 12.0001H13C12.4473 12.0001 12 11.5528 12 11V7.00005C12 6.44735 12.4472 6 13 6H15C15.5527 6 16.0001 6.44723 16.0001 7.00005V11C16 11.5528 15.5527 12.0001 15 12.0001Z" fill="#C7CFE2"/>
<path d="M21 12.0001H19C18.4473 12.0001 18 11.5528 18 11V7.00005C18 6.44735 18.4472 6 19 6H21C21.5527 6 22.0001 6.44723 22.0001 7.00005V11C22.0001 11.5528 21.5528 12.0001 21 12.0001Z" fill="#C7CFE2"/>
<path d="M27 12.0001H25C24.4473 12.0001 24 11.5528 24 11V7.00005C24 6.44735 24.4472 6 25 6H27C27.5527 6 28.0001 6.44723 28.0001 7.00005V11C28 11.5528 27.5527 12.0001 27 12.0001Z" fill="#C7CFE2"/>
<path d="M33 12.0001H31C30.4473 12.0001 30 11.5528 30 11V7.00005C30 6.44735 30.4472 6 31 6H33C33.5527 6 34.0001 6.44723 34.0001 7.00005V11C34.0001 11.5528 33.5528 12.0001 33 12.0001Z" fill="#C7CFE2"/>
<path d="M39 12.0001H37C36.4473 12.0001 36 11.5528 36 11V7.00005C36 6.44735 36.4472 6 37 6H39C39.5527 6 40.0001 6.44723 40.0001 7.00005V11C40 11.5528 39.5527 12.0001 39 12.0001Z" fill="#8F96AC"/>
<path d="M45 12.0001H43C42.4473 12.0001 42 11.5528 42 11V7.00005C42 6.44735 42.4472 6 43 6H45C45.5527 6 46.0001 6.44723 46.0001 7.00005V11C46.0001 11.5528 45.5528 12.0001 45 12.0001Z" fill="#8F96AC"/>
<path d="M52 17H6V20H52V17Z" fill="#5B5D6E"/>
</svg>
