<svg width="58" height="37" viewBox="0 0 58 37" fill="none" xmlns="http://www.w3.org/2000/svg">
<path d="M0 0H58V36.9091H0V0Z" fill="#EBEBEB"/>
<path d="M5.27246 10.5455H28.9997V31.6364H5.27246V10.5455Z" fill="#FF4346"/>
<path d="M35.5908 22.4091H54.0454V25.0454H35.5908V22.4091Z" fill="#848484"/>
<path d="M35.5908 14.5H54.0454V17.1364H35.5908V14.5Z" fill="#848484"/>
<path d="M51.4093 30.3182H54.0457V32.9546H51.4093V30.3182Z" fill="#848484"/>
<path d="M46.1361 30.3182H48.7725V32.9546H46.1361V30.3182Z" fill="#848484"/>
<path d="M40.8634 30.3182H43.4998V32.9546H40.8634V30.3182Z" fill="#848484"/>
<path d="M35.5908 30.3182H38.2272V32.9546H35.5908V30.3182Z" fill="#848484"/>
<path d="M10.5449 31.6364H23.7267C23.7255 28.6228 22.0307 25.8655 19.3422 24.5035C21.3948 23.4801 22.4729 21.1791 21.9471 18.9469C21.4212 16.7148 19.4291 15.1372 17.1358 15.1372C14.8425 15.1372 12.8505 16.7148 12.3246 18.9469C11.7987 21.1791 12.8768 23.4801 14.9294 24.5035C12.2409 25.8655 10.5462 28.6228 10.5449 31.6364Z" fill="#672728"/>
<path d="M21.0908 3.95453H36.909V6.59089H21.0908V3.95453Z" fill="#848484"/>
</svg>
