<svg width="58" height="58" viewBox="0 0 58 58" fill="none" xmlns="http://www.w3.org/2000/svg">
<g clip-path="url(#clip0)">
<path d="M58 10.9998V11.9998H2.02531e-06V10.9998C-0.00176799 8.08235 1.15671 5.28351 3.22011 3.22011C5.28351 1.15671 8.08235 -0.00176799 10.9998 2.02531e-06H47.0002C49.9181 -0.00176799 52.7165 1.15671 54.7799 3.22011C56.8433 5.28351 58.0018 8.08235 58 10.9998Z" fill="#E57E25"/>
<path d="M6.99998 27.9997L0 11.9996L28.9659 10.5L58 11.9996L51 27.9997H6.99998Z" fill="#805333"/>
<path d="M11.2188 28.188L14.4689 25.6201L16.4368 27.0799L17.2501 29.9058L11.2188 28.188Z" fill="#802F34"/>
<path d="M34.9996 28H55.8598C56.4129 28.0004 56.9412 28.2297 57.32 28.6328C57.6988 29.0363 57.894 29.578 57.8599 30.1302L56.1195 56.13C56.0514 57.1797 55.1814 57.997 54.1296 58.0001H3.86987C2.81803 57.997 1.94807 57.1797 1.87992 56.13L0.139553 30.1302C0.10548 29.578 0.301067 29.0363 0.679409 28.6328C1.05819 28.2297 1.58654 28.0004 2.13968 28H34.9996Z" fill="#F29C1F"/>
<path d="M24.0426 29.2923L23.0602 23.6924L21.4004 19.7103C23.5682 19.2341 25.7812 18.9961 28.0004 19.0001C29.3111 18.9974 30.62 19.0775 31.9205 19.2403L34.7202 29.2923H24.0426Z" fill="#F3D55B"/>
<path d="M21.1801 24.78L20.58 28.0001H15.7399L14.6699 27.0903V27.0801L15.3 23.6901L18.56 22.54L21.1699 24.78H21.1801Z" fill="#CC4B4C"/>
<path d="M36.25 20.0598L36.2602 20.0195L36.3699 20.0899L36.25 20.0598Z" fill="#804537"/>
<path d="M31.0002 33.9997C31.0002 35.1042 30.1046 35.9998 29.0001 35.9998C27.8956 35.9998 27 35.1042 27 33.9997C27 32.8952 27.8956 32 29.0001 32C30.1046 32 31.0002 32.8952 31.0002 33.9997Z" fill="#2C2F38"/>
<path d="M23 28V36C23 39.314 25.686 42 28.9999 42C32.3138 42 34.9998 39.314 34.9998 36V28H23ZM28.9999 36C27.8954 36 26.9998 35.1044 26.9998 33.9999C26.9998 32.8954 27.8954 32.0002 28.9999 32.0002C30.1044 32.0002 31 32.8954 31 33.9999C30.9965 35.1031 30.1031 35.9969 28.9999 36Z" fill="#F0C419"/>
<path d="M24.5399 39.9999H6.8101L6.48 35.07C6.46053 34.793 6.55743 34.5204 6.74683 34.3173C6.93666 34.1142 7.20216 33.9996 7.48006 34H23V36.0001C22.9965 37.479 23.5461 38.9056 24.5399 39.9999Z" fill="#AF8066"/>
<path d="M51.1902 40L50.7902 46.0004H7.21057L6.81055 40H24.5404C25.6736 41.2726 27.2963 42.0001 29.0004 42.0001C30.7045 42.0001 32.3271 41.2726 33.4604 40H51.1902Z" fill="#805333"/>
<path d="M50.7896 46L50.4498 51.0698C50.413 51.5946 49.9758 52.0012 49.4497 51.9999H8.54987C8.02373 52.0012 7.58653 51.5946 7.5498 51.0698L7.20996 46H50.7896Z" fill="#AF8066"/>
<path d="M51.5199 35.07L51.1898 39.9999H33.46C34.4538 38.9056 35.0034 37.479 34.9999 36.0001V34H50.5198C50.7977 33.9996 51.0632 34.1142 51.2531 34.3173C51.4425 34.5204 51.5394 34.793 51.5199 35.07Z" fill="#AF8066"/>
<path d="M17.0002 2.02531e-06C12.8101 2.02531e-06 9.13021 1.33991 6.98981 3.9998C6.05258 5.15563 5.42954 6.53314 5.17996 8.00005C5.05739 8.65938 4.99721 9.32933 4.99987 10.0002V11.9998H2.02531e-06V10.9998C-0.00176799 8.08235 1.15671 5.28351 3.22011 3.22011C5.28351 1.15671 8.08235 -0.00176799 10.9998 2.02531e-06H17.0002Z" fill="#F0C419"/>
<path d="M58.0002 10.9998V11.9998H53.0003V10.0002C53.003 9.32933 52.9428 8.65938 52.8202 8.00005C52.5706 6.53314 51.9476 5.15563 51.0104 3.9998C48.87 1.33991 45.1901 2.02531e-06 41 2.02531e-06H47.0004C49.9183 -0.00176799 52.7167 1.15671 54.7801 3.22011C56.8435 5.28351 58.0019 8.08235 58.0002 10.9998Z" fill="#F0C419"/>
<path d="M53.0004 10.0001V11.9998H5.00008V10.0001C4.99743 9.32928 5.05761 8.65933 5.18018 8H52.8203C52.9428 8.65933 53.003 9.32928 53.0004 10.0001Z" fill="#CB8252"/>
<path d="M52.8198 8.00024H5.17969C5.42926 6.53334 6.05231 5.15582 6.98953 4H51.0099C51.9471 5.15582 52.5702 6.53334 52.8198 8.00024Z" fill="#AF8066"/>
<path d="M29.0001 39.0002C28.4478 39.0002 28 38.5524 28 38.0002V36.0001C28 35.4478 28.4478 35 29.0001 35C29.5523 35 30.0001 35.4478 30.0001 36.0001V38.0002C30.0001 38.5524 29.5523 39.0002 29.0001 39.0002Z" fill="#2C2F38"/>
<path d="M48.5101 27.2602L43.9102 24.5401L42.6602 19.6699L43.4301 20.1199L47.2498 22.3803L48.5101 27.2602Z" fill="#E64C3C"/>
<path d="M41.1205 18.7597L36.2604 20.0195L31.6602 17.2999L36.5304 16.0498L40.3602 18.3097L41.1205 18.7597Z" fill="#CC4B4C"/>
<path d="M43.9098 24.5398L36.3894 20.0997L36.3695 20.0899L36.2598 20.0196L41.1198 18.7598H41.1295L42.6597 19.6696L43.9098 24.5398Z" fill="#FB7B76"/>
<path d="M36.2604 20.0194L36.2503 20.0597L34.7201 27.9996H33.0802L31.9203 19.2397L31.6602 17.2998L36.2604 20.0194Z" fill="#FF5364"/>
<path d="M43.9101 24.5405L39.7501 28.0004H34.7197L36.2499 20.0605L36.3698 20.0906L36.3897 20.1004L43.9101 24.5405Z" fill="#CC4B4C"/>
<path d="M48.5098 27.2601L46.6097 28H39.75L43.91 24.54L48.5098 27.2601Z" fill="#802F34"/>
<path d="M25.5401 23.2402L24.66 28.0003H20.5801L21.1801 24.7802L25.5401 23.2402Z" fill="#802F34"/>
<path d="M25.5396 23.2397L21.1796 24.7796H21.1695L18.5596 22.5397L19.3994 18L21.3996 19.7098L25.5396 23.2397Z" fill="#E64C3C"/>
<path d="M19.3998 18L18.5599 22.5397L15.3 23.6897L11.79 20.69L19.3998 18Z" fill="#FB7B76"/>
<path d="M15.3005 23.6902L14.6703 27.0802L12.0706 28.0002H10.4404L11.1303 24.2601L11.7905 20.6904L15.3005 23.6902Z" fill="#FF5364"/>
</g>
<defs>
<clipPath id="clip0">
<rect width="58" height="58" fill="white"/>
</clipPath>
</defs>
</svg>
