<svg width="58" height="58" viewBox="0 0 58 58" fill="none" xmlns="http://www.w3.org/2000/svg">
<path d="M53.1478 25.7959H4.85327C4.34735 25.7959 3.9375 26.206 3.9375 26.7117V55.1263C3.9375 55.6321 4.34735 56.0421 4.85327 56.0421H53.1479C53.6538 56.0421 54.0637 55.632 54.0637 55.1263V26.7118C54.0635 26.2059 53.6536 25.7959 53.1478 25.7959Z" fill="#F7434C"/>
<path d="M53.1478 25.7959H4.85327C4.34735 25.7959 3.9375 26.206 3.9375 26.7117V30.3748H54.0637V26.7117C54.0635 26.2059 53.6536 25.7959 53.1478 25.7959Z" fill="#DB2E37"/>
<path d="M33.6788 25.7959H24.322C23.8161 25.7959 23.4062 26.206 23.4062 26.7117V55.1263C23.4062 55.6321 23.8161 56.0421 24.322 56.0421H33.6788C34.1846 56.0421 34.5946 55.632 34.5946 55.1263V26.7118C34.5946 26.2059 34.1845 25.7959 33.6788 25.7959Z" fill="#FFDB57"/>
<path d="M33.6788 25.7959H24.322C23.8161 25.7959 23.4062 26.206 23.4062 26.7117V30.3552H34.5946V26.7117C34.5946 26.2059 34.1845 25.7959 33.6788 25.7959Z" fill="#F5BA3D"/>
<path d="M51.3633 8.87905C50.4653 6.53855 49.0485 4.25265 47.5732 2.76402C47.0319 2.21789 46.3029 1.94103 45.4731 1.95881C42.7236 2.02282 38.2431 5.4737 32.1561 12.2155C32.0041 12.3837 31.9199 12.6025 31.9199 12.8293V17.6733C31.9199 18.1791 32.3298 18.5891 32.8357 18.5891H46.9226C50.0614 18.5891 51.3568 17.062 51.8907 15.7809C52.6031 14.0732 52.4156 11.6219 51.3633 8.87905Z" fill="#FFDB57"/>
<path d="M51.8877 10.4748C51.8621 10.3808 51.8216 10.2914 51.7678 10.2102C50.385 8.11932 47.397 8.90164 45.134 9.92605C38.5593 12.9022 35.8441 17.0017 35.7318 17.1747C35.5488 17.4564 35.5348 17.8154 35.6951 18.1105C35.8552 18.4056 36.164 18.5892 36.4998 18.5892H46.923C48.9203 18.5892 50.4014 17.9762 51.3254 16.7671C52.4229 15.3307 52.6173 13.1548 51.8877 10.4748Z" fill="#EF9325"/>
<path d="M25.8443 12.2155C19.7573 5.47371 15.2768 2.02283 12.5273 1.95882C11.6953 1.94092 10.9684 2.2179 10.4272 2.76403C8.95201 4.25254 7.53509 6.53856 6.63722 8.87906C5.58495 11.6219 5.39747 14.0731 6.10933 15.7811C6.64334 17.0622 7.93871 18.5892 11.0776 18.5892H25.1645C25.6704 18.5892 26.0803 18.1791 26.0803 17.6734V12.8293C26.0804 12.6025 25.9964 12.3838 25.8443 12.2155Z" fill="#FFDB57"/>
<path d="M22.2682 17.1746C22.1558 17.0016 19.4407 12.9019 12.8659 9.92593C10.6027 8.90153 7.61477 8.11954 6.23195 10.2099C6.17825 10.2913 6.13781 10.3805 6.11221 10.4747C5.38234 13.1547 5.57696 15.3306 6.67454 16.7669C7.59835 17.9759 9.0795 18.589 11.0769 18.589H21.5001C21.8359 18.589 22.1447 18.4054 22.3049 18.1103C22.465 17.8153 22.451 17.4563 22.2682 17.1746Z" fill="#EF9325"/>
<path d="M32.8354 11.0078H25.1638C24.6579 11.0078 24.248 11.4179 24.248 11.9236V17.6729C24.248 18.1787 24.6579 18.5887 25.1638 18.5887H32.8354C33.3414 18.5887 33.7512 18.1786 33.7512 17.6729V11.9236C33.7512 11.4178 33.3414 11.0078 32.8354 11.0078Z" fill="#F5BA3D"/>
<path d="M57.0842 16.7588H0.915766C0.409852 16.7588 0 17.1689 0 17.6746V26.7113C0 27.2171 0.409852 27.6271 0.915766 27.6271H57.0842C57.5901 27.6271 58 27.217 58 26.7113V17.6746C58 17.1688 57.5901 16.7588 57.0842 16.7588Z" fill="#F7434C"/>
<path d="M36.0348 16.7588H21.9658V27.6273H36.0348V16.7588Z" fill="#FFDB57"/>
</svg>
