<svg width="58" height="58" viewBox="0 0 58 58" fill="none" xmlns="http://www.w3.org/2000/svg">
<g clip-path="url(#clip0)">
<path d="M30.3181 56.682H1.31814C0.527324 56.682 0 56.1546 0 55.3637V52.7273C0 51.9364 0.527324 51.4092 1.31814 51.4092H30.3181C31.1091 51.4092 31.6363 51.9365 31.6363 52.7273V55.3637C31.6364 56.1546 31.1091 56.682 30.3181 56.682Z" fill="#F6B545"/>
<path d="M25.0455 52.7273H0C0 51.9364 0.527324 51.4092 1.31814 51.4092H25.0455V52.7273Z" fill="#FFCB5B"/>
<path d="M25.0455 52.7276V54.0458C25.0455 54.8367 24.5181 55.3639 23.7273 55.3639H0C0 56.1549 0.527324 56.6821 1.31814 56.6821H23.7272H30.3181C31.1091 56.6821 31.6363 56.1547 31.6363 55.3639V52.7275H25.0455V52.7276Z" fill="#F19920"/>
<path d="M3.95388 55.3639V53.3866C3.95388 52.9911 3.69028 52.7275 3.29481 52.7275C2.89935 52.7275 2.63574 52.9911 2.63574 53.3866V55.3639" fill="#F19920"/>
<path d="M7.90896 55.3639V53.3866C7.90896 52.9911 7.64536 52.7275 7.24989 52.7275C6.85443 52.7275 6.59082 52.9911 6.59082 53.3866V55.3639" fill="#F19920"/>
<path d="M11.864 55.3639V53.3866C11.864 52.9911 11.6004 52.7275 11.205 52.7275C10.8095 52.7275 10.5459 52.9911 10.5459 53.3866V55.3639" fill="#F19920"/>
<path d="M15.8181 55.3639V53.3866C15.8181 52.9911 15.5545 52.7275 15.1591 52.7275C14.7636 52.7275 14.5 52.9911 14.5 53.3866V55.3639" fill="#F19920"/>
<path d="M19.7722 55.3639V53.3866C19.7722 52.9911 19.5086 52.7275 19.1132 52.7275C18.7177 52.7275 18.4541 52.9911 18.4541 53.3866V55.3639" fill="#F19920"/>
<path d="M23.7273 55.3639V53.3866C23.7273 52.9911 23.4637 52.7275 23.0682 52.7275C22.6728 52.7275 22.4092 52.9911 22.4092 53.3866V55.3639" fill="#F19920"/>
<path d="M32.9539 51.4084H3.95388C3.16295 51.4084 2.63574 50.8811 2.63574 50.0903V47.4539C2.63574 46.663 3.16307 46.1357 3.95388 46.1357H32.9539C33.7448 46.1357 34.272 46.6631 34.272 47.4539V50.0903C34.272 50.8812 33.7448 51.4084 32.9539 51.4084Z" fill="#F6B545"/>
<path d="M27.6812 47.4539H2.63574C2.63574 46.663 3.16307 46.1357 3.95388 46.1357H27.6812V47.4539Z" fill="#FFCB5B"/>
<path d="M27.6812 47.4542V48.7724C27.6812 49.5633 27.1539 50.0905 26.3631 50.0905H2.63574C2.63574 50.8814 3.16307 51.4086 3.95388 51.4086H26.363H32.9539C33.7448 51.4086 34.272 50.8813 34.272 50.0905V47.4541H27.6812V47.4542Z" fill="#F19920"/>
<path d="M6.58962 50.0905V48.1132C6.58962 47.7177 6.32602 47.4541 5.93055 47.4541C5.53509 47.4541 5.27148 47.7177 5.27148 48.1132V50.0905" fill="#F19920"/>
<path d="M10.5447 50.0905V48.1132C10.5447 47.7177 10.2811 47.4541 9.88563 47.4541C9.49017 47.4541 9.22656 47.7177 9.22656 48.1132V50.0905" fill="#F19920"/>
<path d="M14.4998 50.0905V48.1132C14.4998 47.7177 14.2362 47.4541 13.8407 47.4541C13.4452 47.4541 13.1816 47.7177 13.1816 48.1132V50.0905" fill="#F19920"/>
<path d="M18.4539 50.0905V48.1132C18.4539 47.7177 18.1903 47.4541 17.7948 47.4541C17.3993 47.4541 17.1357 47.7177 17.1357 48.1132V50.0905" fill="#F19920"/>
<path d="M22.408 50.0905V48.1132C22.408 47.7177 22.1444 47.4541 21.7489 47.4541C21.3534 47.4541 21.0898 47.7177 21.0898 48.1132V50.0905" fill="#F19920"/>
<path d="M26.3631 50.0905V48.1132C26.3631 47.7177 26.0995 47.4541 25.704 47.4541C25.3085 47.4541 25.0449 47.7177 25.0449 48.1132V50.0905" fill="#F19920"/>
<path d="M35.5906 40.8635H6.5906C5.79967 40.8635 5.27246 40.3362 5.27246 39.5454V36.909C5.27246 36.118 5.79978 35.5908 6.5906 35.5908H35.5906C36.3815 35.5908 36.9087 36.1181 36.9087 36.909V39.5454C36.9087 40.3363 36.3815 40.8635 35.5906 40.8635Z" fill="#F6B545"/>
<path d="M30.3179 36.909H5.27246C5.27246 36.118 5.79979 35.5908 6.5906 35.5908H30.3179V36.909Z" fill="#FFCB5B"/>
<path d="M30.3179 36.9083V38.2265C30.3179 39.0174 29.7906 39.5446 28.9998 39.5446H5.27246C5.27246 40.3355 5.79979 40.8627 6.5906 40.8627H28.9998H35.5907C36.3816 40.8627 36.9089 40.3354 36.9089 39.5446V36.9082H30.3179V36.9083Z" fill="#F19920"/>
<path d="M9.22634 39.5446V37.5673C9.22634 37.1718 8.96274 36.9082 8.56727 36.9082C8.17181 36.9082 7.9082 37.1718 7.9082 37.5673V39.5446" fill="#F19920"/>
<path d="M13.1824 39.5446V37.5673C13.1824 37.1718 12.9188 36.9082 12.5233 36.9082C12.1279 36.9082 11.8643 37.1718 11.8643 37.5673V39.5446" fill="#F19920"/>
<path d="M17.1365 39.5446V37.5673C17.1365 37.1718 16.8729 36.9082 16.4774 36.9082C16.082 36.9082 15.8184 37.1718 15.8184 37.5673V39.5446" fill="#F19920"/>
<path d="M21.0906 39.5446V37.5673C21.0906 37.1718 20.827 36.9082 20.4315 36.9082C20.0361 36.9082 19.7725 37.1718 19.7725 37.5673V39.5446" fill="#F19920"/>
<path d="M25.0447 39.5446V37.5673C25.0447 37.1718 24.7811 36.9082 24.3856 36.9082C23.9902 36.9082 23.7266 37.1718 23.7266 37.5673V39.5446" fill="#F19920"/>
<path d="M28.9998 39.5446V37.5673C28.9998 37.1718 28.7362 36.9082 28.3407 36.9082C27.9452 36.9082 27.6816 37.1718 27.6816 37.5673V39.5446" fill="#F19920"/>
<path d="M32.9539 35.591H3.95388C3.16295 35.591 2.63574 35.0637 2.63574 34.2729V31.6365C2.63574 30.8456 3.16307 30.3184 3.95388 30.3184H32.9539C33.7448 30.3184 34.272 30.8457 34.272 31.6365V34.2729C34.272 35.0637 33.7448 35.591 32.9539 35.591Z" fill="#F6B545"/>
<path d="M27.6812 31.6365H2.63574C2.63574 30.8456 3.16307 30.3184 3.95388 30.3184H27.6812V31.6365Z" fill="#FFCB5B"/>
<path d="M27.6812 31.6359V32.954C27.6812 33.7449 27.1539 34.2721 26.3631 34.2721H2.63574C2.63574 35.0631 3.16307 35.5903 3.95388 35.5903H26.363H32.9539C33.7448 35.5903 34.272 35.063 34.272 34.2721V31.6357H27.6812V31.6359Z" fill="#F19920"/>
<path d="M6.58962 34.2721V32.2948C6.58962 31.8993 6.32602 31.6357 5.93055 31.6357C5.53509 31.6357 5.27148 31.8993 5.27148 32.2948V34.2721" fill="#F19920"/>
<path d="M10.5447 34.2721V32.2948C10.5447 31.8993 10.2811 31.6357 9.88563 31.6357C9.49017 31.6357 9.22656 31.8993 9.22656 32.2948V34.2721" fill="#F19920"/>
<path d="M14.4998 34.2721V32.2948C14.4998 31.8993 14.2362 31.6357 13.8407 31.6357C13.4452 31.6357 13.1816 31.8993 13.1816 32.2948V34.2721" fill="#F19920"/>
<path d="M18.4539 34.2721V32.2948C18.4539 31.8993 18.1903 31.6357 17.7948 31.6357C17.3993 31.6357 17.1357 31.8993 17.1357 32.2948V34.2721" fill="#F19920"/>
<path d="M22.408 34.2721V32.2948C22.408 31.8993 22.1444 31.6357 21.7489 31.6357C21.3534 31.6357 21.0898 31.8993 21.0898 32.2948V34.2721" fill="#F19920"/>
<path d="M26.3631 34.2721V32.2948C26.3631 31.8993 26.0995 31.6357 25.704 31.6357C25.3085 31.6357 25.0449 31.8993 25.0449 32.2948V34.2721" fill="#F19920"/>
<path d="M30.3181 46.1371H1.31814C0.527324 46.1371 0 45.6097 0 44.8188V42.1824C0 41.3915 0.527324 40.8643 1.31814 40.8643H30.3181C31.1091 40.8643 31.6363 41.3916 31.6363 42.1824V44.8188C31.6364 45.6097 31.1091 46.1371 30.3181 46.1371Z" fill="#F6B545"/>
<path d="M25.0455 42.1824H0C0 41.3915 0.527324 40.8643 1.31814 40.8643H25.0455V42.1824Z" fill="#FFCB5B"/>
<path d="M25.0455 42.1818V43.4999C25.0455 44.2908 24.5181 44.818 23.7273 44.818H0C0 45.609 0.527324 46.1362 1.31814 46.1362H23.7272H30.3181C31.1091 46.1362 31.6363 45.6089 31.6363 44.818V42.1816H25.0455V42.1818Z" fill="#F19920"/>
<path d="M3.95388 44.818V42.8407C3.95388 42.4452 3.69028 42.1816 3.29481 42.1816C2.89935 42.1816 2.63574 42.4452 2.63574 42.8407V44.818" fill="#F19920"/>
<path d="M7.90896 44.818V42.8407C7.90896 42.4452 7.64536 42.1816 7.24989 42.1816C6.85443 42.1816 6.59082 42.4452 6.59082 42.8407V44.818" fill="#F19920"/>
<path d="M11.864 44.818V42.8407C11.864 42.4452 11.6004 42.1816 11.205 42.1816C10.8095 42.1816 10.5459 42.4452 10.5459 42.8407V44.818" fill="#F19920"/>
<path d="M15.8181 44.818V42.8407C15.8181 42.4452 15.5545 42.1816 15.1591 42.1816C14.7636 42.1816 14.5 42.4452 14.5 42.8407V44.818" fill="#F19920"/>
<path d="M19.7722 44.818V42.8407C19.7722 42.4452 19.5086 42.1816 19.1132 42.1816C18.7177 42.1816 18.4541 42.4452 18.4541 42.8407V44.818" fill="#F19920"/>
<path d="M23.7273 44.818V42.8407C23.7273 42.4452 23.4637 42.1816 23.0682 42.1816C22.6728 42.1816 22.4092 42.4452 22.4092 42.8407V44.818" fill="#F19920"/>
<path d="M55.3629 48.1138C53.6492 46.9274 52.7265 44.9502 52.7265 42.8412C52.7265 34.8002 49.5628 27.1548 43.8946 21.4866L38.2265 15.8185V11.8639L42.8401 6.06394C43.2356 5.53661 43.4992 4.87754 43.4992 4.21836C43.4992 2.6365 42.1811 1.31836 40.5992 1.31836H35.5902L34.272 3.95475L31.6356 1.31836H25.3083C23.7265 1.31836 22.4083 2.6365 22.4083 4.21836C22.4083 4.87743 22.6719 5.5365 23.0674 6.06382L27.681 11.8638V15.8184L22.0129 21.4865C16.3447 27.1546 13.181 34.8001 13.181 42.841C13.181 44.9501 12.2583 46.9274 10.5446 48.1137C8.83088 49.3 7.9082 51.2773 7.9082 53.3864C7.9082 55.2319 9.3582 56.6819 11.2037 56.6819H54.7037C56.5491 56.6819 57.9991 55.2319 57.9991 53.3864C57.9992 51.2775 57.0766 49.3002 55.3629 48.1138Z" fill="#C97629"/>
<path d="M55.3637 48.1138C53.6501 46.7957 52.7273 44.8184 52.7273 42.7093C52.8592 34.4048 49.0364 26.6274 43.2364 20.6957L38.2273 15.8184V11.8638L42.8409 6.06382C43.6318 5.14115 43.7636 3.82289 43.1045 2.6365C42.5772 1.71382 41.5226 1.31836 40.4681 1.31836C39.5454 1.31836 39.0181 2.37289 39.2817 3.16382C39.4136 3.42743 39.5453 3.82289 39.5453 4.21836C39.5453 4.87743 39.2817 5.5365 38.8863 6.06382L34.2726 11.8638V15.8184H27.6817L26.3636 17.1365H35.5909L40.4682 22.0138C45.8728 27.4184 47.9818 34.8002 47.4546 42.3138C47.3228 44.5548 48.2456 46.6638 49.9592 47.982C50.091 48.1138 50.2228 48.2456 50.3546 48.2456C52.3319 50.3546 50.6182 53.9137 47.5865 53.9137H8.04102C8.30462 55.3637 9.62287 56.5501 11.2046 56.5501H49.4319H52.7274H54.7047C56.5501 56.5502 58.0001 55.1002 58.0001 53.2548V52.9912C58.0001 51.0138 56.9455 49.3002 55.3637 48.1138Z" fill="#B06328"/>
<path d="M38.8869 15.8189H27.0232C25.9687 15.8189 25.0459 14.8962 25.0459 13.8416C25.0459 12.787 25.9686 11.8643 27.0232 11.8643H38.8868C39.9414 11.8643 40.8642 12.7869 40.8642 13.8416C40.8642 14.8962 39.9415 15.8189 38.8869 15.8189Z" fill="#FFCB5B"/>
<path d="M27.0233 11.8643H33.6143C34.0097 11.8643 34.2733 12.1279 34.2733 12.5233C34.2733 12.9188 34.0097 13.1824 33.6143 13.1824H27.0233C26.6279 13.1824 26.3643 12.9188 26.3643 12.5233C26.3643 12.128 26.628 11.8643 27.0233 11.8643Z" fill="#FFE278"/>
<path d="M38.8868 11.8643H38.2277V13.1824C38.2277 13.9733 37.7004 14.5005 36.9096 14.5005H25.1777C25.4413 15.2915 26.2323 15.8187 27.0232 15.8187H38.8868C39.9413 15.8187 40.8641 14.896 40.8641 13.8414C40.8641 12.7867 39.9413 11.8643 38.8868 11.8643Z" fill="#F6B545"/>
<path d="M34.9315 14.5H38.8861C39.2815 14.5 39.5451 14.7636 39.5451 15.1591C39.5451 15.5545 39.2815 15.8181 38.8861 15.8181H34.9315C34.5361 15.8181 34.2725 15.5545 34.2725 15.1591C34.2723 14.7636 34.5361 14.5 34.9315 14.5Z" fill="#F19920"/>
<path d="M34.2721 15.8184H31.6357V26.3638H34.2721V15.8184Z" fill="#F6B545"/>
<path d="M31.6357 15.8184V17.1366H32.9539V26.3638H34.272V17.1366V15.8184H31.6357Z" fill="#F19920"/>
<path d="M32.9546 46.1368C38.7787 46.1368 43.5001 41.4155 43.5001 35.5914C43.5001 29.7673 38.7787 25.0459 32.9546 25.0459C27.1305 25.0459 22.4092 29.7673 22.4092 35.5914C22.4092 41.4155 27.1305 46.1368 32.9546 46.1368Z" fill="#F6B545"/>
<path d="M40.9951 28.8682C42.5769 30.7136 43.4996 32.9546 43.4996 35.591C43.4996 41.391 38.7541 46.1364 32.9541 46.1364C30.3177 46.1364 28.0768 45.2137 26.2314 43.6319C28.2088 46.0046 31.1088 47.4546 34.2724 47.4546C40.0724 47.4546 44.8178 42.7091 44.8178 36.9091C44.8177 33.6136 43.3677 30.7136 40.9951 28.8682Z" fill="#B06328"/>
<path d="M32.9549 44.8189C38.051 44.8189 42.1822 40.6877 42.1822 35.5916C42.1822 30.4955 38.051 26.3643 32.9549 26.3643C27.8587 26.3643 23.7275 30.4955 23.7275 35.5916C23.7275 40.6877 27.8587 44.8189 32.9549 44.8189Z" fill="#FFCB5B"/>
<path d="M42.1814 35.5908C42.1814 40.7317 38.095 44.8181 32.9541 44.8181V46.1363C38.7541 46.1363 43.4996 41.3908 43.4996 35.5908H42.1814Z" fill="#F19920"/>
<path d="M32.9546 26.364V25.0459C27.1546 25.0459 22.4092 29.7914 22.4092 35.5914H23.7273C23.7274 30.4504 27.8137 26.364 32.9546 26.364Z" fill="#FFE27A"/>
<path d="M34.2724 34.2723H31.6361C30.8451 34.2723 30.3179 33.745 30.3179 32.9542C30.3179 32.1633 30.8452 31.6361 31.6361 31.6361H35.5906C36.3815 31.6361 36.9087 31.1087 36.9087 30.3179C36.9087 29.527 36.3814 28.9998 35.5906 28.9998H34.2724C34.2724 28.2089 33.7451 27.6816 32.9543 27.6816C32.1634 27.6816 31.6362 28.209 31.6362 28.9998C29.3952 28.9998 27.6816 30.7134 27.6816 32.9543C27.6816 35.1953 29.3952 36.9089 31.6362 36.9089H34.2726C35.0635 36.9089 35.5907 37.4362 35.5907 38.227C35.5907 39.0178 35.0634 39.5451 34.2726 39.5451H30.318C29.5271 39.5451 28.9999 40.0725 28.9999 40.8633C28.9999 41.6542 29.5272 42.1814 30.318 42.1814H31.6362C31.6362 42.9724 32.1635 43.4996 32.9543 43.4996C33.7452 43.4996 34.2724 42.9722 34.2724 42.1814C36.5134 42.1814 38.227 40.4678 38.227 38.2269C38.227 35.986 36.5134 34.2723 34.2724 34.2723Z" fill="#E78825"/>
<path d="M13.9061 23.9999C14.0414 23.8646 14.0414 23.6451 13.9061 23.5098C13.7707 23.3745 13.7707 23.1551 13.9061 23.0197C14.0414 22.8844 14.0414 22.665 13.9061 22.5296C13.7707 22.3943 13.7707 22.1749 13.9061 22.0396L14.1037 21.842C14.1686 21.777 14.2052 21.6888 14.2052 21.5969L14.2052 14.8397L9.49235 14.8397L9.49238 21.5969C9.49238 21.6888 9.52889 21.7769 9.59387 21.8419L9.79145 22.0395C9.92679 22.1748 9.92678 22.3942 9.79145 22.5296C9.65612 22.6649 9.65612 22.8843 9.79145 23.0196C9.92679 23.155 9.92678 23.3744 9.79145 23.5097C9.65612 23.645 9.65612 23.8645 9.79145 23.9998C9.92679 24.1351 9.92678 24.3545 9.79145 24.4899L9.59387 24.6875C9.52889 24.7524 9.49238 24.8406 9.49238 24.9325L9.49238 26.5128C9.49238 26.8758 9.62299 27.2266 9.8604 27.5013L11.1702 29.0164C11.5279 29.4302 12.1696 29.4302 12.5273 29.0164L13.8371 27.5013C14.0745 27.2267 14.2051 26.8758 14.2052 26.5128V24.9325C14.2052 24.8406 14.1686 24.7524 14.1037 24.6874L13.9061 24.4898C13.7707 24.3546 13.7707 24.1352 13.9061 23.9999Z" fill="#F6B545"/>
<path d="M13.0135 27.5015L12.2464 29.0167C12.0368 29.4305 11.661 29.4305 11.4515 29.0167L10.6844 27.5015C10.5453 27.2269 10.4688 26.8761 10.4688 26.5131L10.4688 14.8398L13.2291 14.8398L13.2291 26.5131C13.229 26.8761 13.1525 27.2269 13.0135 27.5015Z" fill="url(#paint0_linear)"/>
<path d="M12.2707 26.9793L11.9932 28.4126C11.9174 28.8041 11.7815 28.8041 11.7057 28.4126L11.4282 26.9793C11.3779 26.7196 11.3503 26.3876 11.3503 26.0442L11.3503 14.8402L12.3486 14.8402L12.3487 26.0442C12.3487 26.3876 12.321 26.7195 12.2707 26.9793Z" fill="#F19920"/>
<path d="M9.49269 16.8569L14.2055 21.5698L14.2055 14.8403L9.49269 14.8403L9.49269 16.8569Z" fill="#FFCB5B"/>
<path d="M13.6585 3.42545L10.0407 3.42545C7.88533 3.42545 6.13858 5.1722 6.13855 7.32756L6.13855 12.9538C6.13855 15.1087 7.88527 16.856 10.0407 16.856L13.6585 16.856C15.8138 16.856 17.5606 15.1087 17.5606 12.9538L17.5606 7.32756C17.5606 5.17223 15.8138 3.42548 13.6585 3.42545ZM12.8232 4.79768C12.7575 4.86337 12.6673 4.90346 12.5675 4.90349L11.1316 4.90349C10.932 4.90349 10.7701 4.74204 10.7701 4.54251C10.7701 4.44276 10.8107 4.35247 10.8758 4.28731C10.9415 4.22162 11.0318 4.18153 11.1315 4.18153H12.5674C12.767 4.18153 12.9289 4.34298 12.929 4.54251C12.929 4.64226 12.8884 4.73249 12.8232 4.79768Z" fill="#4F4A72"/>
<path d="M10.7608 5.55602L12.9369 5.55602C14.233 5.55602 15.2838 6.60675 15.2838 7.9029V9.92331C15.2838 11.2194 14.2331 12.2702 12.9369 12.2702L10.7608 12.2702C9.46472 12.2702 8.41399 11.2195 8.41396 9.92331L8.41396 7.9029C8.41393 6.60675 9.46466 5.55602 10.7608 5.55602Z" fill="url(#paint1_linear)"/>
<path d="M15.5773 16.3508C16.7608 15.6807 17.5601 14.411 17.5601 12.9538L17.5601 10.9137L13.8113 7.16499C13.5161 6.82483 13.081 6.6094 12.5952 6.60943L11.1024 6.60943C10.2132 6.60943 9.49237 7.33025 9.4924 8.21942L9.4924 9.60545C9.4924 10.0912 9.7078 10.5263 10.048 10.8215L15.5773 16.3508Z" fill="#3B395F"/>
<path d="M12.5955 11.2161L11.1027 11.2161C10.2135 11.2161 9.4927 10.4953 9.49273 9.6061L9.49273 8.22007C9.49273 7.33087 10.2135 6.61005 11.1027 6.61008L12.5955 6.61008C13.4847 6.61008 14.2056 7.3309 14.2055 8.22007L14.2055 9.6061C14.2055 10.4953 13.4847 11.2161 12.5955 11.2161Z" fill="#4F4A72"/>
<path d="M10.9678 15.2106C11.4639 14.7146 11.4639 13.9104 10.9678 13.4144C10.4718 12.9183 9.6676 12.9183 9.17158 13.4144C8.67555 13.9104 8.67555 14.7146 9.17157 15.2106C9.6676 15.7067 10.4718 15.7067 10.9678 15.2106Z" fill="#4F4A72"/>
<path d="M10.7723 15.0149C11.1602 14.627 11.1602 13.998 10.7723 13.6101C10.3844 13.2221 9.7554 13.2221 9.36746 13.6101C8.97952 13.998 8.97952 14.627 9.36746 15.0149C9.75539 15.4029 10.3844 15.4029 10.7723 15.0149Z" fill="#FF4974"/>
<path d="M14.5274 15.2106C15.0234 14.7146 15.0234 13.9104 14.5274 13.4144C14.0314 12.9183 13.2272 12.9183 12.7311 13.4144C12.2351 13.9104 12.2351 14.7146 12.7311 15.2106C13.2272 15.7067 14.0314 15.7067 14.5274 15.2106Z" fill="#4F4A72"/>
<path d="M14.3309 15.0149C14.7188 14.627 14.7188 13.998 14.3309 13.6101C13.943 13.2221 13.314 13.2221 12.9261 13.6101C12.5381 13.998 12.5381 14.627 12.9261 15.0149C13.314 15.4029 13.943 15.4029 14.3309 15.0149Z" fill="#C4F8B6"/>
<path d="M12.5055 8.73578L11.4125 8.73578L11.4126 8.33247C11.4126 8.0915 11.6086 7.89547 11.8496 7.89547C12.0905 7.89547 12.2866 8.0915 12.2866 8.33247C12.2866 8.39542 12.3376 8.44643 12.4005 8.44643C12.4635 8.44643 12.5145 8.39542 12.5145 8.33247C12.5145 7.96584 12.2162 7.66758 11.8496 7.66758C11.483 7.66758 11.1847 7.96584 11.1847 8.33247L11.1847 8.73601C11.0629 8.74073 10.9655 8.84095 10.9655 8.96393L10.9655 9.92959C10.9655 10.0556 11.0676 10.1577 11.1936 10.1577L12.5055 10.1577C12.6315 10.1577 12.7337 10.0556 12.7337 9.92959L12.7337 8.96393C12.7336 8.83792 12.6315 8.73578 12.5055 8.73578ZM11.9556 9.48997C11.9249 9.51291 11.9078 9.54977 11.9078 9.58809L11.9078 9.66455C11.9078 9.6971 11.8811 9.72336 11.8484 9.72278C11.8164 9.7222 11.7913 9.69468 11.7913 9.6626V9.59004C11.7913 9.55073 11.7738 9.513 11.7425 9.48921C11.6966 9.45445 11.6683 9.3979 11.6727 9.33499C11.679 9.24775 11.7497 9.17721 11.8369 9.17115C11.9405 9.16399 12.0268 9.24592 12.0268 9.348C12.0268 9.40609 11.9988 9.45765 11.9556 9.48997Z" fill="#D4F7FF"/>
</g>
<defs>
<linearGradient id="paint0_linear" x1="13.4913" y1="22.0808" x2="8.73484" y2="22.0808" gradientUnits="userSpaceOnUse">
<stop stop-color="#FFE548"/>
<stop offset="0.1758" stop-color="#FFDE50"/>
<stop offset="0.4446" stop-color="#FFCA65"/>
<stop offset="0.7709" stop-color="#FFAA87"/>
<stop offset="1" stop-color="#FF90A4"/>
</linearGradient>
<linearGradient id="paint1_linear" x1="14.0358" y1="10.7678" x2="10.1162" y2="7.4421" gradientUnits="userSpaceOnUse">
<stop stop-color="#4F4A72"/>
<stop offset="1" stop-color="#3B395F"/>
</linearGradient>
<clipPath id="clip0">
<rect width="58" height="58" fill="white"/>
</clipPath>
</defs>
</svg>
