<svg width="58" height="58" viewBox="0 0 58 58" fill="none" xmlns="http://www.w3.org/2000/svg">
<path d="M25.8357 53.124H14.0225V57.9996H25.8357V53.124Z" fill="#3A556A"/>
<path d="M51.7009 53.124H39.8877V57.9996H51.7009V53.124Z" fill="#3A556A"/>
<path d="M54.9863 0H10.7311C9.06712 0 7.71777 1.34392 7.71777 3.00172V51.5172C7.71777 53.175 9.067 54.5191 10.7311 54.5191H54.9861C56.6504 54.5191 57.9994 53.175 57.9994 51.5172V3.00172C57.9995 1.34392 56.6506 0 54.9863 0Z" fill="#64798A"/>
<path d="M53.5526 4.42871H12.1611V50.0917H53.5526V4.42871Z" fill="#3A556A"/>
<path d="M4.10397 0.000976562H0V54.5201H4.10397L12.1631 50.0915V4.42957L4.10397 0.000976562Z" fill="#2F4859"/>
<path d="M4.10409 0H0V54.52H4.10409V0Z" fill="#64798A"/>
<path d="M2.05199 7.96421C2.7991 7.96421 3.40475 7.36099 3.40475 6.61687C3.40475 5.87276 2.7991 5.26953 2.05199 5.26953C1.30487 5.26953 0.699219 5.87276 0.699219 6.61687C0.699219 7.36099 1.30487 7.96421 2.05199 7.96421Z" fill="#2F4859"/>
<path d="M2.05199 21.7259C2.7991 21.7259 3.40475 21.1227 3.40475 20.3786C3.40475 19.6345 2.7991 19.0312 2.05199 19.0312C1.30487 19.0312 0.699219 19.6345 0.699219 20.3786C0.699219 21.1227 1.30487 21.7259 2.05199 21.7259Z" fill="#2F4859"/>
<path d="M2.05199 35.4886C2.7991 35.4886 3.40475 34.8854 3.40475 34.1413C3.40475 33.3972 2.7991 32.7939 2.05199 32.7939C1.30487 32.7939 0.699219 33.3972 0.699219 34.1413C0.699219 34.8854 1.30487 35.4886 2.05199 35.4886Z" fill="#2F4859"/>
<path d="M2.05199 49.2523C2.7991 49.2523 3.40475 48.6491 3.40475 47.905C3.40475 47.1608 2.7991 46.5576 2.05199 46.5576C1.30487 46.5576 0.699219 47.1608 0.699219 47.905C0.699219 48.6491 1.30487 49.2523 2.05199 49.2523Z" fill="#2F4859"/>
<path d="M30.5015 33.5488H13.1377V36.206H30.5015V33.5488Z" fill="#B7092B"/>
<path d="M30.5015 35.96H13.1377V36.2028H30.5015V35.96Z" fill="#EF5350"/>
<path d="M30.5015 35.4277H13.1377V35.6706H30.5015V35.4277Z" fill="#EF5350"/>
<path d="M30.5015 34.9004H13.1377V35.1432H30.5015V34.9004Z" fill="#EF5350"/>
<path d="M30.5015 34.3711H13.1377V34.6139H30.5015V34.3711Z" fill="#EF5350"/>
<path d="M30.5015 33.8389H13.1377V34.0817H30.5015V33.8389Z" fill="#EF5350"/>
<path d="M23.5873 33.5488H20.0469V36.206H23.5873V33.5488Z" fill="white"/>
<path d="M20.5007 33.5488H20.2832V36.206H20.5007V33.5488Z" fill="#FCD462"/>
<path d="M23.3571 33.5488H23.1396V36.206H23.3571V33.5488Z" fill="#FCD462"/>
<path d="M31.3979 30.8906H14.0342V33.5478H31.3979V30.8906Z" fill="#B7092B"/>
<path d="M31.3979 33.3018H14.0342V33.5446H31.3979V33.3018Z" fill="#EF5350"/>
<path d="M31.3979 32.7764H14.0342V33.0192H31.3979V32.7764Z" fill="#EF5350"/>
<path d="M31.3979 32.2441H14.0342V32.487H31.3979V32.2441Z" fill="#EF5350"/>
<path d="M31.3979 31.7139H14.0342V31.9567H31.3979V31.7139Z" fill="#EF5350"/>
<path d="M31.3979 31.1846H14.0342V31.4274H31.3979V31.1846Z" fill="#EF5350"/>
<path d="M24.4847 30.8906H20.9443V33.5478H24.4847V30.8906Z" fill="white"/>
<path d="M21.3933 30.8906H21.1758V33.5478H21.3933V30.8906Z" fill="#FCD462"/>
<path d="M24.2507 30.8906H24.0332V33.5478H24.2507V30.8906Z" fill="#FCD462"/>
<path d="M29.8599 28.2334H12.4961V30.8906H29.8599V28.2334Z" fill="#B7092B"/>
<path d="M29.8599 30.6484H12.4961V30.8913H29.8599V30.6484Z" fill="#EF5350"/>
<path d="M29.8599 30.1182H12.4961V30.361H29.8599V30.1182Z" fill="#EF5350"/>
<path d="M29.8599 29.5879H12.4961V29.8307H29.8599V29.5879Z" fill="#EF5350"/>
<path d="M29.8599 29.0547H12.4961V29.2976H29.8599V29.0547Z" fill="#EF5350"/>
<path d="M29.8599 28.5293H12.4961V28.7721H29.8599V28.5293Z" fill="#EF5350"/>
<path d="M22.9457 28.2334H19.4053V30.8906H22.9457V28.2334Z" fill="white"/>
<path d="M19.8581 28.2334H19.6406V30.8906H19.8581V28.2334Z" fill="#FCD462"/>
<path d="M22.7165 28.2334H22.499V30.8906H22.7165V28.2334Z" fill="#FCD462"/>
<path d="M31.3979 25.5742H14.0342V28.2314H31.3979V25.5742Z" fill="#B7092B"/>
<path d="M31.3979 27.9912H14.0342V28.2341H31.3979V27.9912Z" fill="#EF5350"/>
<path d="M31.3979 27.459H14.0342V27.7018H31.3979V27.459Z" fill="#EF5350"/>
<path d="M31.3979 26.9297H14.0342V27.1725H31.3979V26.9297Z" fill="#EF5350"/>
<path d="M31.3979 26.3984H14.0342V26.6413H31.3979V26.3984Z" fill="#EF5350"/>
<path d="M31.3979 25.8691H14.0342V26.112H31.3979V25.8691Z" fill="#EF5350"/>
<path d="M24.4847 25.5742H20.9443V28.2314H24.4847V25.5742Z" fill="white"/>
<path d="M21.3933 25.5742H21.1758V28.2314H21.3933V25.5742Z" fill="#FCD462"/>
<path d="M24.2507 25.5742H24.0332V28.2314H24.2507V25.5742Z" fill="#FCD462"/>
<path d="M30.2495 22.9189H12.8857V25.5761H30.2495V22.9189Z" fill="#B7092B"/>
<path d="M30.2495 25.334H12.8857V25.5768H30.2495V25.334Z" fill="#EF5350"/>
<path d="M30.2495 24.8008H12.8857V25.0436H30.2495V24.8008Z" fill="#EF5350"/>
<path d="M30.2495 24.2754H12.8857V24.5182H30.2495V24.2754Z" fill="#EF5350"/>
<path d="M30.2495 23.7441H12.8857V23.987H30.2495V23.7441Z" fill="#EF5350"/>
<path d="M30.2495 23.2119H12.8857V23.4548H30.2495V23.2119Z" fill="#EF5350"/>
<path d="M23.3373 22.9189H19.7969V25.5761H23.3373V22.9189Z" fill="white"/>
<path d="M20.2458 22.9189H20.0283V25.5761H20.2458V22.9189Z" fill="#FCD462"/>
<path d="M23.1052 22.9189H22.8877V25.5761H23.1052V22.9189Z" fill="#FCD462"/>
<path d="M32.7153 20.2627H15.3516V22.9198H32.7153V20.2627Z" fill="#B7092B"/>
<path d="M32.7153 22.6758H15.3516V22.9186H32.7153V22.6758Z" fill="#EF5350"/>
<path d="M32.7153 22.1465H15.3516V22.3893H32.7153V22.1465Z" fill="#EF5350"/>
<path d="M32.7153 21.6162H15.3516V21.8591H32.7153V21.6162Z" fill="#EF5350"/>
<path d="M32.7153 21.0859H15.3516V21.3288H32.7153V21.0859Z" fill="#EF5350"/>
<path d="M32.7153 20.5537H15.3516V20.7966H32.7153V20.5537Z" fill="#EF5350"/>
<path d="M25.8031 20.2627H22.2627V22.9198H25.8031V20.2627Z" fill="white"/>
<path d="M22.7165 20.2627H22.499V22.9198H22.7165V20.2627Z" fill="#FCD462"/>
<path d="M25.57 20.2627H25.3525V22.9198H25.57V20.2627Z" fill="#FCD462"/>
<path d="M50.3511 33.3018H32.9873V35.9589H50.3511V33.3018Z" fill="#B7092B"/>
<path d="M50.3511 35.7188H32.9873V35.9616H50.3511V35.7188Z" fill="#EF5350"/>
<path d="M50.3511 35.1865H32.9873V35.4294H50.3511V35.1865Z" fill="#EF5350"/>
<path d="M50.3511 34.6553H32.9873V34.8981H50.3511V34.6553Z" fill="#EF5350"/>
<path d="M50.3511 34.1299H32.9873V34.3727H50.3511V34.1299Z" fill="#EF5350"/>
<path d="M50.3511 33.5977H32.9873V33.8405H50.3511V33.5977Z" fill="#EF5350"/>
<path d="M43.4398 33.3018H39.8994V35.9589H43.4398V33.3018Z" fill="white"/>
<path d="M40.3464 33.3018H40.1289V35.9589H40.3464V33.3018Z" fill="#FCD462"/>
<path d="M43.2048 33.3018H42.9873V35.9589H43.2048V33.3018Z" fill="#FCD462"/>
<path d="M51.2456 30.6475H33.8818V33.3046H51.2456V30.6475Z" fill="#B7092B"/>
<path d="M51.2456 33.0605H33.8818V33.3034H51.2456V33.0605Z" fill="#EF5350"/>
<path d="M51.2456 32.5312H33.8818V32.7741H51.2456V32.5312Z" fill="#EF5350"/>
<path d="M51.2456 32.001H33.8818V32.2438H51.2456V32.001Z" fill="#EF5350"/>
<path d="M51.2456 31.4717H33.8818V31.7145H51.2456V31.4717Z" fill="#EF5350"/>
<path d="M51.2456 30.9395H33.8818V31.1823H51.2456V30.9395Z" fill="#EF5350"/>
<path d="M44.3334 30.6475H40.793V33.3046H44.3334V30.6475Z" fill="white"/>
<path d="M41.2438 30.6475H41.0264V33.3046H41.2438V30.6475Z" fill="#FCD462"/>
<path d="M44.0983 30.6475H43.8809V33.3046H44.0983V30.6475Z" fill="#FCD462"/>
<path d="M49.7105 27.9912H32.3467V30.6483H49.7105V27.9912Z" fill="#B7092B"/>
<path d="M49.7105 30.4014H32.3467V30.6442H49.7105V30.4014Z" fill="#EF5350"/>
<path d="M49.7105 29.876H32.3467V30.1188H49.7105V29.876Z" fill="#EF5350"/>
<path d="M49.7105 29.3428H32.3467V29.5856H49.7105V29.3428Z" fill="#EF5350"/>
<path d="M49.7105 28.8135H32.3467V29.0563H49.7105V28.8135Z" fill="#EF5350"/>
<path d="M49.7105 28.2832H32.3467V28.526H49.7105V28.2832Z" fill="#EF5350"/>
<path d="M42.7962 27.9912H39.2559V30.6483H42.7962V27.9912Z" fill="white"/>
<path d="M39.7058 27.9912H39.4883V30.6483H39.7058V27.9912Z" fill="#FCD462"/>
<path d="M42.5642 27.9912H42.3467V30.6483H42.5642V27.9912Z" fill="#FCD462"/>
<path d="M51.2456 25.334H33.8818V27.9911H51.2456V25.334Z" fill="#B7092B"/>
<path d="M51.2456 27.7461H33.8818V27.9889H51.2456V27.7461Z" fill="#EF5350"/>
<path d="M51.2456 27.2168H33.8818V27.4596H51.2456V27.2168Z" fill="#EF5350"/>
<path d="M51.2456 26.6855H33.8818V26.9284H51.2456V26.6855Z" fill="#EF5350"/>
<path d="M51.2456 26.1533H33.8818V26.3962H51.2456V26.1533Z" fill="#EF5350"/>
<path d="M51.2456 25.6279H33.8818V25.8708H51.2456V25.6279Z" fill="#EF5350"/>
<path d="M44.3334 25.334H40.793V27.9911H44.3334V25.334Z" fill="white"/>
<path d="M41.2438 25.334H41.0264V27.9911H41.2438V25.334Z" fill="#FCD462"/>
<path d="M44.0983 25.334H43.8809V27.9911H44.0983V25.334Z" fill="#FCD462"/>
<path d="M50.0972 22.6758H32.7334V25.3329H50.0972V22.6758Z" fill="#B7092B"/>
<path d="M50.0972 25.0908H32.7334V25.3337H50.0972V25.0908Z" fill="#EF5350"/>
<path d="M50.0972 24.5605H32.7334V24.8034H50.0972V24.5605Z" fill="#EF5350"/>
<path d="M50.0972 24.0303H32.7334V24.2731H50.0972V24.0303Z" fill="#EF5350"/>
<path d="M50.0972 23.5H32.7334V23.7428H50.0972V23.5Z" fill="#EF5350"/>
<path d="M50.0972 22.9707H32.7334V23.2135H50.0972V22.9707Z" fill="#EF5350"/>
<path d="M43.1859 22.6758H39.6455V25.3329H43.1859V22.6758Z" fill="white"/>
<path d="M40.0983 22.6758H39.8809V25.3329H40.0983V22.6758Z" fill="#FCD462"/>
<path d="M42.9499 22.6758H42.7324V25.3329H42.9499V22.6758Z" fill="#FCD462"/>
<path d="M52.562 20.0225H35.1982V22.6796H52.562V20.0225Z" fill="#B7092B"/>
<path d="M52.562 22.4336H35.1982V22.6764H52.562V22.4336Z" fill="#EF5350"/>
<path d="M52.562 21.9014H35.1982V22.1442H52.562V21.9014Z" fill="#EF5350"/>
<path d="M52.562 21.376H35.1982V21.6188H52.562V21.376Z" fill="#EF5350"/>
<path d="M52.562 20.8428H35.1982V21.0856H52.562V20.8428Z" fill="#EF5350"/>
<path d="M52.562 20.3135H35.1982V20.5563H52.562V20.3135Z" fill="#EF5350"/>
<path d="M45.6507 20.0225H42.1104V22.6796H45.6507V20.0225Z" fill="white"/>
<path d="M42.5632 20.0225H42.3457V22.6796H42.5632V20.0225Z" fill="#FCD462"/>
<path d="M45.4206 20.0225H45.2031V22.6796H45.4206V20.0225Z" fill="#FCD462"/>
<path d="M48.2788 17.3633H30.915V20.0204H48.2788V17.3633Z" fill="#B7092B"/>
<path d="M48.2788 19.7754H30.915V20.0182H48.2788V19.7754Z" fill="#EF5350"/>
<path d="M48.2788 19.2451H30.915V19.488H48.2788V19.2451Z" fill="#EF5350"/>
<path d="M48.2788 18.7158H30.915V18.9587H48.2788V18.7158Z" fill="#EF5350"/>
<path d="M48.2788 18.1855H30.915V18.4284H48.2788V18.1855Z" fill="#EF5350"/>
<path d="M48.2788 17.6533H30.915V17.8962H48.2788V17.6533Z" fill="#EF5350"/>
<path d="M41.3675 17.3633H37.8271V20.0204H41.3675V17.3633Z" fill="white"/>
<path d="M38.2751 17.3633H38.0576V20.0204H38.2751V17.3633Z" fill="#FCD462"/>
<path d="M41.1306 17.3633H40.9131V20.0204H41.1306V17.3633Z" fill="#FCD462"/>
<path d="M50.3511 14.7051H32.9873V17.3622H50.3511V14.7051Z" fill="#B7092B"/>
<path d="M50.3511 17.1201H32.9873V17.363H50.3511V17.1201Z" fill="#EF5350"/>
<path d="M50.3511 16.5898H32.9873V16.8327H50.3511V16.5898Z" fill="#EF5350"/>
<path d="M50.3511 16.0596H32.9873V16.3024H50.3511V16.0596Z" fill="#EF5350"/>
<path d="M50.3511 15.5293H32.9873V15.7721H50.3511V15.5293Z" fill="#EF5350"/>
<path d="M50.3511 14.999H32.9873V15.2419H50.3511V14.999Z" fill="#EF5350"/>
<path d="M43.4398 14.7051H39.8994V17.3622H43.4398V14.7051Z" fill="white"/>
<path d="M40.3464 14.7051H40.1289V17.3622H40.3464V14.7051Z" fill="#FCD462"/>
<path d="M43.2048 14.7051H42.9873V17.3622H43.2048V14.7051Z" fill="#FCD462"/>
<path d="M22.3693 20.2084L37.7275 12.1064L36.4877 9.75619L21.1295 17.8581L22.3693 20.2084Z" fill="#B7092B"/>
<path d="M22.3673 20.2084L37.7256 12.1064L37.6123 11.8916L22.254 19.9936L22.3673 20.2084Z" fill="#EF5350"/>
<path d="M22.1203 19.7416L37.4785 11.6396L37.3652 11.4249L22.0069 19.5268L22.1203 19.7416Z" fill="#EF5350"/>
<path d="M21.8732 19.2709L37.2314 11.1689L37.1181 10.9541L21.7599 19.0561L21.8732 19.2709Z" fill="#EF5350"/>
<path d="M21.6251 18.8041L36.9834 10.7021L36.8701 10.4873L21.5118 18.5893L21.6251 18.8041Z" fill="#EF5350"/>
<path d="M21.3781 18.3295L36.7363 10.2275L36.623 10.0127L21.2648 18.1147L21.3781 18.3295Z" fill="#EF5350"/>
<path d="M28.4818 16.984L31.6133 15.332L30.3735 12.9818L27.242 14.6337L28.4818 16.984Z" fill="white"/>
<path d="M28.6905 16.8739L28.8828 16.7725L27.643 14.4222L27.4506 14.5237L28.6905 16.8739Z" fill="#FCD462"/>
<path d="M31.2139 15.5429L31.4062 15.4414L30.1664 13.0912L29.9741 13.1926L31.2139 15.5429Z" fill="#FCD462"/>
<path d="M13.3425 18.8665L29.793 13.3066L28.9421 10.7893L12.4917 16.3491L13.3425 18.8665Z" fill="#B7092B"/>
<path d="M13.3425 18.8626L29.793 13.3027L29.7152 13.0727L13.2648 18.6325L13.3425 18.8626Z" fill="#EF5350"/>
<path d="M13.1726 18.3616L29.623 12.8018L29.5453 12.5717L13.0948 18.1316L13.1726 18.3616Z" fill="#EF5350"/>
<path d="M13.0037 17.8607L29.4541 12.3008L29.3763 12.0707L12.9259 17.6306L13.0037 17.8607Z" fill="#EF5350"/>
<path d="M12.8337 17.3568L29.2842 11.7969L29.2064 11.5668L12.756 17.1267L12.8337 17.3568Z" fill="#EF5350"/>
<path d="M12.6619 16.8548L29.1123 11.2949L29.0345 11.0648L12.5841 16.6247L12.6619 16.8548Z" fill="#EF5350"/>
<path d="M19.8929 16.6522L23.2471 15.5186L22.3963 13.0012L19.0421 14.1348L19.8929 16.6522Z" fill="white"/>
<path d="M20.1123 16.5784L20.3184 16.5088L19.4675 13.9914L19.2615 14.061L20.1123 16.5784Z" fill="#FCD462"/>
<path d="M22.8194 15.6624L23.0254 15.5928L22.1746 13.0754L21.9685 13.145L22.8194 15.6624Z" fill="#FCD462"/>
<path d="M42.4783 48.8149L41.2541 43.5885C41.2002 43.3582 40.9946 43.1953 40.7582 43.1953H34.431C34.1946 43.1953 33.989 43.3582 33.9351 43.5885L32.7109 48.8149C32.636 49.1346 32.8786 49.4404 33.2069 49.4404H41.9823C42.3105 49.4404 42.5531 49.1344 42.4783 48.8149Z" fill="#F6C358"/>
<path d="M40.7572 43.1953H34.4301C34.1936 43.1953 33.988 43.3582 33.9341 43.5885L32.71 48.8149C32.635 49.1346 32.8776 49.4404 33.2059 49.4404C37.7568 49.2084 40.8149 47.6034 41.2531 43.5885C41.1992 43.3582 40.9938 43.1953 40.7572 43.1953Z" fill="#FCD462"/>
<path d="M52.9197 48.8149L51.6955 43.5885C51.6416 43.3582 51.436 43.1953 51.1996 43.1953H44.8724C44.636 43.1953 44.4304 43.3582 44.3765 43.5885L43.1523 48.8149C43.0774 49.1346 43.32 49.4404 43.6483 49.4404H52.4237C52.752 49.4404 52.9945 49.1344 52.9197 48.8149Z" fill="#F6C358"/>
<path d="M51.1996 43.1953H44.8724C44.636 43.1953 44.4304 43.3582 44.3765 43.5885L43.1523 48.8149C43.0774 49.1346 43.32 49.4404 43.6483 49.4404C48.1991 49.2084 51.2573 47.6034 51.6955 43.5885C51.6416 43.3582 51.436 43.1953 51.1996 43.1953Z" fill="#FCD462"/>
<path d="M47.699 42.5698L46.4748 37.3434C46.4209 37.113 46.2153 36.9502 45.9789 36.9502H39.6517C39.4153 36.9502 39.2097 37.113 39.1558 37.3434L37.9316 42.5698C37.8567 42.8894 38.0993 43.1953 38.4276 43.1953H47.203C47.5312 43.1953 47.7738 42.8893 47.699 42.5698Z" fill="#F6C358"/>
<path d="M45.9788 36.9502H39.6517C39.4153 36.9502 39.2097 37.113 39.1558 37.3434L37.9316 42.5698C37.8567 42.8894 38.0993 43.1953 38.4276 43.1953C42.9784 42.9633 46.0366 41.3583 46.4748 37.3434C46.4208 37.113 46.2153 36.9502 45.9788 36.9502Z" fill="#FCD462"/>
<path d="M37.4226 42.5698L36.1984 37.3434C36.1445 37.113 35.939 36.9502 35.7025 36.9502H29.3754C29.1389 36.9502 28.9333 37.113 28.8794 37.3434L27.6553 42.5698C27.5803 42.8894 27.8229 43.1953 28.1512 43.1953H36.9266C37.2549 43.1953 37.4974 42.8893 37.4226 42.5698Z" fill="#F6C358"/>
<path d="M35.7025 36.9502H29.3754C29.1389 36.9502 28.9333 37.113 28.8794 37.3434L27.6553 42.5698C27.5803 42.8894 27.8229 43.1953 28.1512 43.1953C32.7021 42.9633 35.7602 41.3583 36.1985 37.3434C36.1445 37.113 35.939 36.9502 35.7025 36.9502Z" fill="#FCD462"/>
<path d="M21.9441 48.8149L20.7199 43.5885C20.666 43.3582 20.4604 43.1953 20.224 43.1953H13.8969C13.6604 43.1953 13.4548 43.3582 13.4009 43.5885L12.1768 48.8149C12.1018 49.1346 12.3444 49.4404 12.6727 49.4404H21.4481C21.7764 49.4404 22.0189 49.1344 21.9441 48.8149Z" fill="#F6C358"/>
<path d="M20.224 43.1953H13.8969C13.6604 43.1953 13.4548 43.3582 13.4009 43.5885L12.1768 48.8149C12.1018 49.1346 12.3444 49.4404 12.6727 49.4404C17.2236 49.2084 20.2817 47.6034 20.7199 43.5885C20.666 43.3582 20.4605 43.1953 20.224 43.1953Z" fill="#FCD462"/>
<path d="M32.3865 48.8149L31.1623 43.5885C31.1084 43.3582 30.9028 43.1953 30.6664 43.1953H24.3392C24.1028 43.1953 23.8972 43.3582 23.8433 43.5885L22.6191 48.8149C22.5442 49.1346 22.7868 49.4404 23.1151 49.4404H31.8905C32.2188 49.4404 32.4613 49.1344 32.3865 48.8149Z" fill="#F6C358"/>
<path d="M30.6663 43.1953H24.3392C24.1028 43.1953 23.8972 43.3582 23.8433 43.5885L22.6191 48.8149C22.5442 49.1346 22.7868 49.4404 23.1151 49.4404C27.6659 49.2084 30.724 47.6034 31.1623 43.5885C31.1084 43.3582 30.9028 43.1953 30.6663 43.1953Z" fill="#FCD462"/>
<path d="M27.1648 42.5698L25.9406 37.3434C25.8867 37.113 25.6811 36.9502 25.4447 36.9502H19.1176C18.8811 36.9502 18.6755 37.113 18.6216 37.3434L17.3975 42.5698C17.3225 42.8894 17.5651 43.1953 17.8934 43.1953H26.6688C26.9971 43.1953 27.2396 42.8893 27.1648 42.5698Z" fill="#F6C358"/>
<path d="M25.4447 36.9502H19.1176C18.8811 36.9502 18.6755 37.113 18.6216 37.3434L17.3975 42.5698C17.3225 42.8894 17.5651 43.1953 17.8934 43.1953C22.4443 42.9633 25.5024 41.3583 25.9406 37.3434C25.8867 37.113 25.6812 36.9502 25.4447 36.9502Z" fill="#FCD462"/>
<path d="M16.7437 14.4825C16.8245 14.5004 16.9046 14.4494 16.9225 14.3685C16.9404 14.2877 17.0204 14.2366 17.1013 14.2545C17.1821 14.2724 17.2622 14.2214 17.2801 14.1405C17.298 14.0597 17.378 14.0086 17.4589 14.0265L17.5769 14.0526C17.6157 14.0612 17.6564 14.054 17.6899 14.0327L20.1551 12.4609L19.0589 10.7415L16.5937 12.3133C16.5602 12.3347 16.5365 12.3685 16.5279 12.4073L16.5018 12.5254C16.4839 12.6062 16.4038 12.6573 16.323 12.6394C16.2421 12.6215 16.1621 12.6725 16.1442 12.7534C16.1263 12.8342 16.0463 12.8853 15.9654 12.8674C15.8846 12.8495 15.8045 12.9005 15.7866 12.9814C15.7687 13.0622 15.6887 13.1133 15.6078 13.0954L15.4898 13.0693C15.451 13.0607 15.4103 13.0679 15.3768 13.0892L14.8003 13.4568C14.6678 13.5413 14.5702 13.6705 14.5252 13.821L14.2772 14.6513C14.2094 14.8781 14.3587 15.1121 14.5929 15.1464L15.4503 15.2718C15.6057 15.2945 15.7641 15.2606 15.8965 15.1762L16.473 14.8085C16.5066 14.7872 16.5302 14.7533 16.5388 14.7145L16.5649 14.5965C16.5828 14.5157 16.6628 14.4646 16.7437 14.4825Z" fill="#F6B545"/>
<path d="M15.2588 14.9712L14.5276 15.0438C14.3279 15.0636 14.2405 14.9265 14.3427 14.7538L14.717 14.1215C14.7848 14.0069 14.895 13.8974 15.0275 13.8129L19.2862 11.0976L19.9282 12.1046L15.6695 14.8199C15.5371 14.9044 15.3913 14.9581 15.2588 14.9712Z" fill="url(#paint0_linear)"/>
<path d="M15.2759 14.5787L14.6885 14.8109C14.528 14.8743 14.4964 14.8247 14.6216 14.706L15.0799 14.2714C15.163 14.1926 15.2777 14.1053 15.4029 14.0254L19.4904 11.4192L19.7227 11.7834L15.6352 14.3897C15.5099 14.4695 15.3824 14.5366 15.2759 14.5787Z" fill="#F19920"/>
<path d="M18.3227 11.2108L17.6997 14.0264L20.1547 12.4611L19.0585 10.7417L18.3227 11.2108Z" fill="#FFCB5B"/>
<path d="M24.1923 9.607L23.3508 8.28713C22.8494 7.50082 21.8059 7.26988 21.0195 7.77123L18.9669 9.07997C18.1808 9.58121 17.9497 10.6249 18.451 11.4112L19.2926 12.7311C19.7939 13.5174 20.8377 13.7482 21.6238 13.247L23.6764 11.9383C24.4627 11.4369 24.6937 10.3933 24.1923 9.607ZM23.4974 9.62147C23.4582 9.61278 23.4226 9.58919 23.3993 9.55279L23.0653 9.02893C23.0189 8.95613 23.0401 8.8595 23.1129 8.81308C23.1493 8.78988 23.1917 8.78369 23.2306 8.79231C23.2699 8.80099 23.3055 8.82458 23.3287 8.86097L23.6627 9.38484C23.7091 9.45764 23.6879 9.55427 23.6151 9.60069C23.5787 9.62391 23.5364 9.63008 23.4974 9.62147Z" fill="#4F4A72"/>
<path d="M22.7405 9.0446L23.2467 9.83847C23.5482 10.3113 23.4093 10.9391 22.9364 11.2406L22.1993 11.7106C21.7265 12.012 21.0987 11.8731 20.7972 11.4003L20.2911 10.6064C19.9896 10.1335 20.1285 9.50579 20.6013 9.20428L21.3384 8.73431C21.8113 8.4328 22.439 8.57172 22.7405 9.0446Z" fill="url(#paint1_linear)"/>
<path d="M19.9231 13.3134C20.4429 13.5893 21.092 13.5856 21.6237 13.2466L22.3679 12.7721L22.8635 10.5324C22.919 10.3456 22.8964 10.1368 22.7834 9.95955L22.4361 9.41493C22.2293 9.09053 21.7986 8.99523 21.4742 9.20207L20.9686 9.52448C20.7914 9.63746 20.6827 9.81726 20.6542 10.01L19.9231 13.3134Z" fill="#3B395F"/>
<path d="M21.1032 11.031L20.7559 10.4864C20.5491 10.162 20.6444 9.73134 20.9688 9.52452L21.4744 9.20211C21.7988 8.99527 22.2295 9.09058 22.4363 9.41497L22.7835 9.95959C22.9904 10.284 22.8951 10.7146 22.5707 10.9215L22.065 11.2439C21.7406 11.4507 21.31 11.3554 21.1032 11.031Z" fill="#4F4A72"/>
<path d="M19.2669 11.3667C19.5632 11.4323 19.8566 11.2452 19.9222 10.9489C19.9878 10.6525 19.8007 10.3591 19.5044 10.2935C19.208 10.228 18.9146 10.415 18.849 10.7114C18.7834 11.0077 18.9705 11.3011 19.2669 11.3667Z" fill="#4F4A72"/>
<path d="M19.2925 11.2496C19.5243 11.3008 19.7537 11.1545 19.805 10.9228C19.8563 10.691 19.71 10.4615 19.4782 10.4103C19.2465 10.359 19.017 10.5053 18.9657 10.737C18.9144 10.9688 19.0607 11.1983 19.2925 11.2496Z" fill="#FF4974"/>
<path d="M20.095 12.6646C20.3913 12.7301 20.6847 12.5431 20.7503 12.2467C20.8159 11.9504 20.6288 11.657 20.3325 11.5914C20.0361 11.5258 19.7427 11.7129 19.6772 12.0092C19.6116 12.3056 19.7986 12.599 20.095 12.6646Z" fill="#4F4A72"/>
<path d="M20.1206 12.5474C20.3524 12.5987 20.5819 12.4524 20.6332 12.2206C20.6844 11.9889 20.5381 11.7594 20.3064 11.7081C20.0746 11.6568 19.8451 11.8031 19.7939 12.0349C19.7426 12.2667 19.8889 12.4961 20.1206 12.5474Z" fill="#C4F8B6"/>
<path d="M21.9862 10.4209L21.7319 10.0221L21.8791 9.9283C21.967 9.87225 22.0841 9.89817 22.1401 9.98608C22.1962 10.074 22.1703 10.1911 22.0824 10.2472C22.0594 10.2618 22.0526 10.2923 22.0673 10.3152C22.0819 10.3382 22.1124 10.345 22.1354 10.3303C22.2691 10.245 22.3086 10.0668 22.2233 9.93308C22.138 9.79933 21.9598 9.75989 21.8261 9.84517L21.6788 9.93904C21.6488 9.8957 21.5896 9.88349 21.5447 9.9121L21.1924 10.1367C21.1464 10.166 21.1329 10.2271 21.1622 10.273L21.4674 10.7516C21.4967 10.7976 21.5577 10.8111 21.6037 10.7818L21.956 10.5572C22.0019 10.5278 22.0155 10.4668 21.9862 10.4209ZM21.5831 10.3957C21.5676 10.3898 21.5502 10.3921 21.5362 10.401L21.5083 10.4188C21.4964 10.4264 21.4806 10.4228 21.4732 10.4107C21.466 10.3989 21.4702 10.3833 21.4819 10.3759L21.5084 10.359C21.5227 10.3499 21.5324 10.3347 21.5338 10.3177C21.5358 10.2929 21.5498 10.2694 21.5738 10.2564C21.6071 10.2384 21.6493 10.2478 21.6718 10.2782C21.6985 10.3143 21.6887 10.3649 21.6515 10.3886C21.6303 10.4021 21.6049 10.4039 21.5831 10.3957Z" fill="#D4F7FF"/>
<defs>
<linearGradient id="paint0_linear" x1="17.3475" y1="13.8846" x2="16.2411" y2="12.1493" gradientUnits="userSpaceOnUse">
<stop stop-color="#FFE548"/>
<stop offset="0.1758" stop-color="#FFDE50"/>
<stop offset="0.4446" stop-color="#FFCA65"/>
<stop offset="0.7709" stop-color="#FFAA87"/>
<stop offset="1" stop-color="#FF90A4"/>
</linearGradient>
<linearGradient id="paint1_linear" x1="21.601" y1="11.4517" x2="21.9025" y2="9.24815" gradientUnits="userSpaceOnUse">
<stop stop-color="#4F4A72"/>
<stop offset="1" stop-color="#3B395F"/>
</linearGradient>
</defs>
</svg>
