<svg width="58" height="58" viewBox="0 0 58 58" fill="none" xmlns="http://www.w3.org/2000/svg">
<g clip-path="url(#clip0)">
<path d="M43.6133 22.9961C48.4278 15.0098 41.3477 7.25 41.3477 7.25C41.3477 7.25 39.252 4.92773 35.1738 4.70117V23.5059L43.6133 22.9961Z" fill="#AE4D4D"/>
<path d="M16.8706 22.5596H16.2936C14.42 22.5596 12.9014 24.0778 12.9014 25.9509C12.9014 27.8241 14.42 29.3427 16.2936 29.3427H41.7067C43.5803 29.3427 45.0989 27.8241 45.0989 25.9509C45.0989 24.0778 43.5803 22.5596 41.7067 22.5596H16.8706Z" fill="#FFE4C2"/>
<path d="M41.7066 22.5596H36.7227C38.5958 22.5596 40.1145 24.0778 40.1145 25.9509C40.1145 27.8245 38.5958 29.3427 36.7227 29.3427H41.7066C43.5802 29.3427 45.0988 27.8241 45.0988 25.9509C45.0988 24.0778 43.5802 22.5596 41.7066 22.5596Z" fill="#FFDBAD"/>
<path d="M32.8249 38.5218V38.5369C32.8249 41.0207 34.417 43.2212 36.7729 44.008C37.2119 44.1549 37.6871 44.3067 38.1858 44.4943C40.1802 45.2457 40.7842 45.5922 41.8113 46.3431C43.8114 47.806 44.9938 50.2217 44.9938 52.8895V57.2637H13.0068V52.8895C13.0068 49.0822 15.5088 45.8179 18.9815 44.801C19.6462 44.6067 20.3405 44.3943 21.014 44.1837C23.4898 43.4089 25.1757 41.1162 25.1757 38.5218V35.7402H32.8249V38.5218Z" fill="#FFE4C2"/>
<path d="M41.8116 46.3431C40.7845 45.5917 40.1805 45.2452 38.1862 44.4939C37.6875 44.3063 37.2122 44.1545 36.7728 44.008C34.4173 43.2208 32.8252 41.0202 32.8252 38.5364V38.5214C32.8252 37.3828 32.8252 35.7402 32.8252 35.7402H27.8408V38.5214V38.5364C27.8408 41.0202 29.433 43.2208 31.7889 44.008C32.2278 44.1545 32.7031 44.3063 33.2018 44.4939C35.1961 45.2452 35.8002 45.5917 36.8272 46.3431C38.8273 47.806 40.0097 50.2212 40.0097 52.8891V57.2632H44.9941C44.9941 57.2632 44.9941 54.275 44.9941 52.8891C44.9941 50.2212 43.8117 47.8056 41.8116 46.3431Z" fill="#FFDBAD"/>
<path d="M17.1216 18.8047C17.0548 18.8051 17.1176 19.31 17.1176 19.3773V26.9645C17.1176 33.5264 22.437 38.8458 28.9989 38.8458H29.0015C35.5634 38.8458 40.8828 33.5264 40.8828 26.9645V19.3773C40.8828 19.31 40.8788 19.2432 40.8788 19.1764C40.8788 16.301 39.6832 13.5433 37.383 12.3477C37.383 12.3477 29.6799 18.6914 17.1216 18.8047Z" fill="#FFE4C2"/>
<path d="M40.8786 19.1768C40.8786 16.301 39.683 13.5433 37.3828 12.3477C37.3828 12.3477 36.3739 13.1782 34.4924 14.2429C35.4194 15.6001 35.8942 17.3648 35.8942 19.1768C35.8942 19.2432 35.8982 19.31 35.8982 19.3773V26.9645C35.8982 32.6719 31.8736 37.439 26.5078 38.5838C27.311 38.755 28.1442 38.8458 28.9982 38.8458H29.0013C35.5632 38.8458 40.8826 33.5264 40.8826 26.9645V19.3773C40.8826 19.31 40.8786 19.2432 40.8786 19.1768Z" fill="#FFDBAD"/>
<path d="M13.6504 23.5062C13.6504 23.5062 10.4507 16.6855 14.67 9.57263C22.5997 -3.79456 42.5372 2.77575 42.5372 2.77575C40.7247 18.6351 17.1719 18.8471 17.1719 18.8471V24.016L14.2735 23.6762" fill="#FF4C4C"/>
<path d="M19.2891 24.2062C19.2891 26.44 21.0998 28.2507 23.3336 28.2507C25.5673 28.2507 27.3781 26.44 27.3781 24.2062V22.1592H19.2891V24.2062Z" fill="#484753"/>
<path d="M30.6221 24.2062C30.6221 26.44 32.4328 28.2507 34.6666 28.2507C36.9003 28.2507 38.7111 26.44 38.7111 24.2062V22.1592H30.6221V24.2062Z" fill="#484753"/>
<path d="M34.9722 22.1592V24.2067C34.9722 25.7656 34.0894 27.1179 32.7969 27.7932C33.3562 28.0852 33.9912 28.2512 34.666 28.2512C36.8998 28.2512 38.7105 26.4404 38.7105 24.2067V22.1592H34.9722Z" fill="#30303A"/>
<path d="M31.5488 22.8262H26.3945C25.9255 22.8262 25.5449 23.2063 25.5449 23.6758C25.5449 24.1448 25.9255 24.5254 26.3945 24.5254H31.5488C32.0179 24.5254 32.3984 24.1448 32.3984 23.6758C32.3984 23.2063 32.0179 22.8262 31.5488 22.8262Z" fill="#484753"/>
<path d="M21.0144 44.1829C20.3409 44.3935 19.6466 44.6059 18.982 44.8006C17.9199 45.1113 16.9491 45.6334 16.1123 46.3162L20.8445 50.7497L19.4851 54.9406L28.2644 57.2629L22.7539 43.3027C22.2361 43.6828 21.6516 43.9833 21.0144 44.1829Z" fill="#D3D1ED"/>
<path d="M20.844 50.7494L16.1119 46.3164C14.2131 47.8656 13.0068 50.2463 13.0068 52.8889V57.2631H28.264L19.4847 54.9408L20.844 50.7494Z" fill="#8986AD"/>
<path d="M41.8309 46.3584L37.1563 50.7503L38.5156 54.9412L29.7363 57.2635H44.9935C44.9935 57.2635 44.9935 54.2757 44.9935 52.8893C44.9935 50.2308 43.8191 47.8226 41.8309 46.3584Z" fill="#8986AD"/>
<path d="M41.8309 46.3584L39.0635 48.9586C39.6755 50.1277 40.0091 51.4729 40.0091 52.8893V57.2635H44.9935C44.9935 57.2635 44.9935 54.2757 44.9935 52.8893C44.9935 50.2308 43.8191 47.8226 41.8309 46.3584Z" fill="#7E7AA3"/>
<path d="M37.1563 50.7502L41.8309 46.3588C41.8242 46.3539 41.8176 46.3486 41.811 46.3433C40.7839 45.5924 40.1799 45.2459 38.1855 44.4945C37.6868 44.3069 37.2116 44.1551 36.7722 44.0082C36.1841 43.8117 35.6438 43.5272 35.1637 43.1719L29.7363 57.2639L38.5156 54.9416L37.1563 50.7502Z" fill="#D3D1ED"/>
<path d="M36.3828 43.8617C36.3687 43.856 36.3545 43.8507 36.3403 43.8449C35.9222 43.667 35.5319 43.4431 35.1752 43.1803C35.1712 43.1776 35.1673 43.175 35.1637 43.1719L34.4619 44.9937C35.523 45.4437 36.0554 45.7796 36.8267 46.3438C37.7648 47.0296 38.5232 47.9253 39.064 48.9585L41.8314 46.3588C41.8243 46.3539 41.8177 46.3486 41.811 46.3438C40.784 45.5924 40.18 45.2459 38.1856 44.4945C37.6869 44.3069 37.2116 44.1551 36.7727 44.0087C36.6992 43.9839 36.6262 43.9578 36.5541 43.9308C36.4961 43.9086 36.4395 43.8852 36.3828 43.8617Z" fill="#CAC7ED"/>
<path d="M22.7695 43.2734L28.8867 48.0313L35.1172 43.1602L29.793 57.207H28.3203L22.7695 43.2734Z" fill="#F3F2FF"/>
<path d="M29.9062 44.6325L35.1981 41.5332V49.8846L29.5663 46.6716L28.5468 46.5583L22.8018 49.8846V41.5332L27.9804 44.5192L29.9062 44.6325Z" fill="#FF4C4C"/>
<path d="M31.2831 45.7082C31.2831 47.0056 30.2317 48.057 28.9343 48.057C27.6373 48.057 26.5859 47.0056 26.5859 45.7082C26.5859 44.4112 27.6373 43.3594 28.9343 43.3594C30.2317 43.3594 31.2831 44.4112 31.2831 45.7082Z" fill="#AE4D4D"/>
<path d="M46.6934 37.089C47.1624 37.089 47.543 36.7084 47.543 36.2394V35.0557C47.543 34.5866 47.1624 34.2061 46.6934 34.2061C46.2239 34.2061 45.8438 34.5866 45.8438 35.0557V36.2394C45.8438 36.7084 46.2239 37.089 46.6934 37.089Z" fill="#DCA3A3"/>
<path d="M43.0978 37.6735L44.1227 38.2652C44.2563 38.3426 44.4023 38.3789 44.5466 38.3789C44.84 38.3789 45.1258 38.2267 45.2829 37.9541C45.5179 37.5479 45.3785 37.0279 44.9723 36.7938L43.9474 36.2018C43.5408 35.9672 43.0213 36.1066 42.7867 36.5128C42.5522 36.9191 42.6916 37.439 43.0978 37.6735Z" fill="#DCA3A3"/>
<path d="M44.1686 39.2976L43.1438 39.8892C42.7371 40.1237 42.5982 40.6432 42.8327 41.0495C42.9898 41.322 43.2757 41.4747 43.5691 41.4747C43.7133 41.4747 43.8593 41.438 43.9934 41.3605L45.0183 40.7689C45.4245 40.5344 45.5634 40.0149 45.3289 39.6082C45.0944 39.202 44.5749 39.0631 44.1686 39.2976Z" fill="#DCA3A3"/>
<path d="M46.7842 40.3955C46.3151 40.3955 45.9346 40.7761 45.9346 41.2451V42.4288C45.9346 42.8983 46.3151 43.2784 46.7842 43.2784C47.2537 43.2784 47.6338 42.8983 47.6338 42.4288V41.2451C47.6338 40.7761 47.2537 40.3955 46.7842 40.3955Z" fill="#DCA3A3"/>
<path d="M50.6896 40.9709C50.9241 40.5642 50.7847 40.0447 50.3785 39.8102L49.3537 39.2186C48.947 38.9836 48.4275 39.1234 48.193 39.5296C47.9584 39.9359 48.0978 40.4558 48.5041 40.6903L49.5289 41.282C49.663 41.3594 49.809 41.3957 49.9528 41.3957C50.2466 41.3957 50.5321 41.2435 50.6896 40.9709Z" fill="#DCA3A3"/>
<path d="M48.8848 38.3008C49.0286 38.3008 49.1751 38.2641 49.3088 38.1871L50.3336 37.5951C50.7398 37.361 50.8792 36.841 50.6447 36.4348C50.4102 36.0282 49.8907 35.8892 49.484 36.1237L48.4591 36.7154C48.0529 36.9499 47.9135 37.4694 48.1481 37.876C48.3056 38.1486 48.591 38.3008 48.8848 38.3008Z" fill="#DCA3A3"/>
<path d="M4.02051 19.9879C4.48956 19.9879 4.87012 19.6078 4.87012 19.1383V17.9551C4.87012 17.4856 4.48956 17.1055 4.02051 17.1055C3.55145 17.1055 3.1709 17.4856 3.1709 17.9551V19.1383C3.1709 19.6074 3.55145 19.9879 4.02051 19.9879Z" fill="#DCA3A3"/>
<path d="M0.424821 20.5736L1.44966 21.1657C1.58374 21.2426 1.72977 21.2794 1.87358 21.2794C2.16741 21.2794 2.45282 21.1272 2.61035 20.8546C2.84488 20.4484 2.70594 19.9284 2.29927 19.6939L1.27443 19.1023C0.868211 18.8677 0.34871 19.0067 0.114182 19.4133C-0.120788 19.8196 0.0186008 20.3391 0.424821 20.5736Z" fill="#DCA3A3"/>
<path d="M1.49569 22.197L0.470853 22.7886C0.0646328 23.0236 -0.0747564 23.5431 0.159771 23.9493C0.317303 24.2219 0.602719 24.3741 0.896543 24.3741C1.0408 24.3741 1.18683 24.3374 1.32046 24.2604L2.34531 23.6683C2.75153 23.4338 2.89091 22.9143 2.65639 22.5081C2.42186 22.1014 1.90191 21.9624 1.49569 22.197Z" fill="#DCA3A3"/>
<path d="M4.11035 23.2949C3.64085 23.2949 3.26074 23.6755 3.26074 24.1445V25.3278C3.26074 25.7973 3.64085 26.1774 4.11035 26.1774C4.57941 26.1774 4.95996 25.7973 4.95996 25.3278V24.1445C4.95996 23.6755 4.57941 23.2949 4.11035 23.2949Z" fill="#DCA3A3"/>
<path d="M7.28006 24.2952C7.57345 24.2952 7.8593 24.143 8.01639 23.8704C8.25092 23.4637 8.11197 22.9442 7.70575 22.7097L6.68091 22.1181C6.27425 21.8831 5.75475 22.0225 5.52022 22.4287C5.28569 22.8354 5.42464 23.3549 5.8313 23.5894L6.85614 24.1811C6.98978 24.2585 7.13581 24.2952 7.28006 24.2952Z" fill="#DCA3A3"/>
<path d="M6.21065 21.2003C6.35491 21.2003 6.50138 21.1636 6.63501 21.0861L7.65985 20.4945C8.06607 20.26 8.20546 19.74 7.97049 19.3338C7.73596 18.9276 7.21602 18.7886 6.81024 19.0232L5.7854 19.6148C5.37874 19.8493 5.23979 20.3688 5.47432 20.7755C5.63141 21.0476 5.91727 21.2003 6.21065 21.2003Z" fill="#DCA3A3"/>
<path d="M10.1367 35.7341C10.6058 35.7341 10.9863 35.3539 10.9863 34.8844V33.7012C10.9863 33.2317 10.6058 32.8516 10.1367 32.8516C9.66766 32.8516 9.28711 33.2317 9.28711 33.7012V34.8844C9.28711 35.3535 9.66766 35.7341 10.1367 35.7341Z" fill="#DCA3A3"/>
<path d="M6.54214 36.3197L7.56698 36.9113C7.70106 36.9888 7.84709 37.0255 7.9909 37.0255C8.28473 37.0255 8.57014 36.8733 8.72767 36.6007C8.9622 36.1945 8.82281 35.6745 8.41659 35.44L7.39175 34.8484C6.98553 34.6138 6.46603 34.7528 6.23106 35.159C5.99653 35.5652 6.13592 36.0852 6.54214 36.3197Z" fill="#DCA3A3"/>
<path d="M7.61288 37.9431L6.58804 38.5347C6.18182 38.7692 6.04243 39.2892 6.27696 39.6954C6.43449 39.968 6.71991 40.1202 7.01373 40.1202C7.15799 40.1202 7.30401 40.0835 7.43765 40.0065L8.46249 39.4144C8.86871 39.1799 9.0081 38.6604 8.77357 38.2542C8.53904 37.8475 8.0191 37.7085 7.61288 37.9431Z" fill="#DCA3A3"/>
<path d="M10.2275 39.041C9.75804 39.041 9.37793 39.4211 9.37793 39.8906V41.0739C9.37793 41.5434 9.75804 41.9235 10.2275 41.9235C10.6966 41.9235 11.0771 41.5434 11.0771 41.0739V39.8906C11.0771 39.4211 10.6966 39.041 10.2275 39.041Z" fill="#DCA3A3"/>
<path d="M13.8225 38.4559L12.7977 37.8639C12.3915 37.6293 11.872 37.7687 11.6374 38.175C11.4029 38.5812 11.5418 39.1011 11.9481 39.3356L12.9729 39.9273C13.107 40.0047 13.253 40.0414 13.3973 40.0414C13.6906 40.0414 13.9765 39.8888 14.1336 39.6162C14.3681 39.21 14.2292 38.6905 13.8225 38.4559Z" fill="#DCA3A3"/>
<path d="M12.3278 36.9468C12.4721 36.9468 12.6181 36.9101 12.7522 36.8326L13.777 36.241C14.1833 36.0065 14.3222 35.4865 14.0877 35.0803C13.8532 34.6737 13.3332 34.5347 12.9274 34.7692L11.9026 35.3613C11.4959 35.5958 11.357 36.1153 11.5915 36.5216C11.7486 36.7941 12.0345 36.9468 12.3278 36.9468Z" fill="#DCA3A3"/>
<path d="M6.96582 2.99576C7.43488 2.99576 7.81543 2.61565 7.81543 2.14615V0.962891C7.81543 0.493393 7.43488 0.113281 6.96582 0.113281C6.49677 0.113281 6.11621 0.493393 6.11621 0.962891V2.14615C6.11621 2.61565 6.49677 2.99576 6.96582 2.99576Z" fill="#DCA3A3"/>
<path d="M3.37013 3.58184L4.39498 4.17347C4.52906 4.25091 4.67508 4.28719 4.8189 4.28719C5.11272 4.28719 5.39814 4.13497 5.55567 3.86239C5.7902 3.45617 5.65081 2.93666 5.24459 2.70214L4.21974 2.11006C3.81352 1.87554 3.29402 2.01448 3.05949 2.42114C2.82452 2.82736 2.96391 3.34687 3.37013 3.58184Z" fill="#DCA3A3"/>
<path d="M5.6017 5.51587C5.36717 5.10921 4.84723 4.97026 4.44101 5.20479L3.41617 5.79686C3.00995 6.03139 2.87056 6.55089 3.10508 6.95711C3.26262 7.2297 3.54803 7.38236 3.84186 7.38236C3.98611 7.38236 4.13214 7.34563 4.26578 7.26819L5.29062 6.67656C5.69684 6.44204 5.83623 5.92209 5.6017 5.51587Z" fill="#DCA3A3"/>
<path d="M7.05566 6.30273C6.58617 6.30273 6.20605 6.68329 6.20605 7.15235V8.33605C6.20605 8.8051 6.58617 9.18566 7.05566 9.18566C7.52472 9.18566 7.90527 8.8051 7.90527 8.33605V7.15235C7.90527 6.68329 7.52472 6.30273 7.05566 6.30273Z" fill="#DCA3A3"/>
<path d="M10.6511 5.71732L9.6258 5.12569C9.21958 4.89116 8.70008 5.03011 8.46555 5.43677C8.23102 5.84299 8.36997 6.36249 8.77619 6.59702L9.80147 7.18909C9.93511 7.26609 10.0811 7.30282 10.2254 7.30282C10.5188 7.30282 10.8046 7.15059 10.9617 6.87801C11.1963 6.47179 11.0573 5.95185 10.6511 5.71732Z" fill="#DCA3A3"/>
<path d="M9.15596 4.2081C9.30022 4.2081 9.44625 4.17138 9.58033 4.09394L10.6052 3.50231C11.0114 3.26778 11.1503 2.74828 10.9158 2.34162C10.6813 1.9354 10.1613 1.79645 9.75556 2.03098L8.73071 2.62261C8.32405 2.85713 8.18511 3.37708 8.41963 3.7833C8.57672 4.05588 8.86258 4.2081 9.15596 4.2081Z" fill="#DCA3A3"/>
<path d="M49.8994 2.99576C50.3685 2.99576 50.7486 2.61565 50.7486 2.14615V0.962891C50.7486 0.493393 50.3685 0.113281 49.8994 0.113281C49.4299 0.113281 49.0498 0.493393 49.0498 0.962891V2.14615C49.0498 2.61565 49.4299 2.99576 49.8994 2.99576Z" fill="#DCA3A3"/>
<path d="M46.304 3.58184L47.3288 4.17347C47.4624 4.25091 47.6085 4.28719 47.7527 4.28719C48.0461 4.28719 48.332 4.13497 48.4891 3.86239C48.724 3.45617 48.5846 2.93666 48.1784 2.70214L47.1536 2.11006C46.7473 1.87554 46.2274 2.01448 45.9929 2.42114C45.7583 2.82736 45.8973 3.34687 46.304 3.58184Z" fill="#DCA3A3"/>
<path d="M47.3747 5.20479L46.3499 5.79686C45.9432 6.03139 45.8042 6.55089 46.0388 6.95711C46.1963 7.2297 46.4817 7.38236 46.7751 7.38236C46.9194 7.38236 47.0654 7.34563 47.1995 7.26819L48.2243 6.67656C48.6305 6.44204 48.7695 5.92209 48.535 5.51587C48.3004 5.10921 47.7809 4.97026 47.3747 5.20479Z" fill="#DCA3A3"/>
<path d="M49.9893 6.30273C49.5198 6.30273 49.1396 6.68329 49.1396 7.15235V8.33605C49.1396 8.8051 49.5198 9.18566 49.9893 9.18566C50.4588 9.18566 50.8389 8.8051 50.8389 8.33605V7.15235C50.8389 6.68329 50.4588 6.30273 49.9893 6.30273Z" fill="#DCA3A3"/>
<path d="M53.8956 6.87801C54.1302 6.47179 53.9908 5.95185 53.5846 5.71732L52.5597 5.12569C52.1535 4.89116 51.634 5.03011 51.399 5.43677C51.1645 5.84299 51.3039 6.36249 51.7101 6.59702L52.735 7.18909C52.8686 7.26609 53.0151 7.30282 53.1589 7.30282C53.4527 7.30282 53.7381 7.15059 53.8956 6.87801Z" fill="#DCA3A3"/>
<path d="M52.0899 4.2081C52.2337 4.2081 52.3802 4.17138 52.5138 4.09394L53.5387 3.50231C53.9449 3.26778 54.0843 2.74828 53.8498 2.34162C53.6152 1.9354 53.0953 1.79645 52.6891 2.03098L51.6642 2.62261C51.258 2.85713 51.1186 3.37708 51.3531 3.7833C51.5107 4.05588 51.7965 4.2081 52.0899 4.2081Z" fill="#DCA3A3"/>
<path d="M53.8897 51.9225C54.3592 51.9225 54.7393 51.5424 54.7393 51.0729V49.8896C54.7393 49.4202 54.3592 49.04 53.8897 49.04C53.4202 49.04 53.04 49.4202 53.04 49.8896V51.0729C53.04 51.542 53.4206 51.9225 53.8897 51.9225Z" fill="#DCA3A3"/>
<path d="M50.294 52.5082L51.3188 53.0998C51.4529 53.1772 51.5989 53.214 51.7432 53.214C52.0365 53.214 52.322 53.0617 52.4795 52.7892C52.714 52.3829 52.5751 51.863 52.1684 51.6285L51.1436 51.0368C50.7374 50.8023 50.2179 50.9413 49.9833 51.3475C49.7484 51.7537 49.8877 52.2736 50.294 52.5082Z" fill="#DCA3A3"/>
<path d="M51.3648 54.1325L50.34 54.7242C49.9338 54.9587 49.7944 55.4786 50.0289 55.8849C50.1864 56.1574 50.4719 56.3097 50.7657 56.3097C50.9099 56.3097 51.056 56.2729 51.1896 56.1959L52.2144 55.6039C52.6207 55.3693 52.7601 54.8498 52.5255 54.4436C52.291 54.0369 51.7711 53.898 51.3648 54.1325Z" fill="#DCA3A3"/>
<path d="M53.9805 55.2305C53.511 55.2305 53.1309 55.6106 53.1309 56.0801V57.2633C53.1309 57.7328 53.511 58.113 53.9805 58.113C54.45 58.113 54.8301 57.7328 54.8301 57.2633V56.0801C54.8301 55.6106 54.45 55.2305 53.9805 55.2305Z" fill="#DCA3A3"/>
<path d="M57.5749 54.6454L56.5496 54.0533C56.1434 53.8188 55.6239 53.9582 55.3894 54.3644C55.1548 54.7706 55.2938 55.2906 55.7 55.5251L56.7253 56.1167C56.8589 56.1942 57.005 56.2309 57.1492 56.2309C57.4426 56.2309 57.728 56.0782 57.8855 55.8057C58.1205 55.3994 57.9811 54.8799 57.5749 54.6454Z" fill="#DCA3A3"/>
<path d="M56.0811 53.1353C56.2249 53.1353 56.3714 53.0986 56.505 53.0211L57.5299 52.4295C57.9361 52.195 58.0755 51.675 57.841 51.2688C57.606 50.8621 57.0865 50.7232 56.6803 50.9577L55.6554 51.5498C55.2492 51.7843 55.1098 52.3038 55.3443 52.71C55.5019 52.9826 55.7873 53.1353 56.0811 53.1353Z" fill="#DCA3A3"/>
<path d="M54.1205 25.4619C54.1205 25.0882 54.0157 24.792 53.806 24.5732C53.601 24.3499 53.25 24.1449 52.7533 23.958C52.2566 23.7712 51.8282 23.5866 51.4681 23.4043C51.1081 23.2174 50.7982 23.0055 50.5385 22.7686C50.2832 22.527 50.0827 22.2445 49.9369 21.9209C49.7956 21.5973 49.725 21.2122 49.725 20.7656C49.725 19.9954 49.9711 19.3643 50.4633 18.8721C50.9554 18.3799 51.6094 18.0928 52.4252 18.0107V16.5479H53.5189V18.0312C54.3256 18.1452 54.9567 18.4824 55.4125 19.043C55.8682 19.599 56.0961 20.3213 56.0961 21.21H54.1205C54.1205 20.6631 54.0066 20.2552 53.7787 19.9863C53.5554 19.7129 53.2546 19.5762 52.8763 19.5762C52.5026 19.5762 52.2133 19.6833 52.0082 19.8975C51.8031 20.1071 51.7006 20.3988 51.7006 20.7725C51.7006 21.1188 51.8008 21.3968 52.0013 21.6064C52.2019 21.8161 52.5733 22.0303 53.1156 22.249C53.6625 22.4678 54.1114 22.6751 54.4623 22.8711C54.8132 23.0625 55.1094 23.2812 55.351 23.5273C55.5925 23.7689 55.7771 24.0469 55.9047 24.3613C56.0323 24.6712 56.0961 25.0335 56.0961 25.4482C56.0961 26.223 55.8545 26.8519 55.3715 27.335C54.8884 27.818 54.223 28.1029 53.3754 28.1895V29.5498H52.2885V28.1963C51.3542 28.096 50.6296 27.7656 50.1146 27.2051C49.6042 26.64 49.349 25.8903 49.349 24.9561H51.3246C51.3246 25.4984 51.4522 25.9154 51.7074 26.207C51.9672 26.4941 52.3386 26.6377 52.8217 26.6377C53.2227 26.6377 53.5394 26.5329 53.7719 26.3232C54.0043 26.109 54.1205 25.8219 54.1205 25.4619Z" fill="#FF4C4C"/>
<path d="M5.01465 50.169C5.01465 49.822 4.91732 49.547 4.72266 49.3438C4.53223 49.1365 4.20638 48.946 3.74512 48.7725C3.28385 48.599 2.88607 48.4277 2.55176 48.2584C2.21745 48.0849 1.92969 47.8881 1.68848 47.668C1.4515 47.4438 1.2653 47.1814 1.12988 46.8809C0.998698 46.5805 0.933105 46.2229 0.933105 45.8082C0.933105 45.093 1.16162 44.5069 1.61865 44.0499C2.07568 43.5929 2.68294 43.3263 3.44043 43.2501V41.8917H4.45605V43.2691C5.20508 43.3749 5.79118 43.6881 6.21436 44.2086C6.63753 44.7249 6.84912 45.3956 6.84912 46.2208H5.01465C5.01465 45.713 4.90885 45.3342 4.69727 45.0846C4.48991 44.8306 4.21061 44.7037 3.85938 44.7037C3.51237 44.7037 3.24365 44.8031 3.05322 45.002C2.86279 45.1967 2.76758 45.4675 2.76758 45.8145C2.76758 46.1361 2.86068 46.3943 3.04688 46.5889C3.23307 46.7836 3.57796 46.9825 4.08154 47.1856C4.58936 47.3888 5.00619 47.5813 5.33203 47.7633C5.65788 47.941 5.93294 48.1441 6.15723 48.3726C6.38151 48.5969 6.5529 48.8551 6.67139 49.1471C6.78988 49.4348 6.84912 49.7712 6.84912 50.1563C6.84912 50.8757 6.62484 51.4597 6.17627 51.9083C5.7277 52.3568 5.10986 52.6213 4.32275 52.7017V53.9649H3.31348V52.7081C2.44596 52.615 1.77311 52.3082 1.29492 51.7877C0.820964 51.2629 0.583984 50.5668 0.583984 49.6993H2.41846C2.41846 50.2029 2.53695 50.5901 2.77393 50.8609C3.01514 51.1275 3.36003 51.2608 3.80859 51.2608C4.18099 51.2608 4.4751 51.1635 4.69092 50.9688C4.90674 50.7699 5.01465 50.5033 5.01465 50.169Z" fill="#FF4C4C"/>
</g>
<defs>
<clipPath id="clip0">
<rect width="58" height="58" fill="white"/>
</clipPath>
</defs>
</svg>
