<svg width="58" height="58" viewBox="0 0 58 58" fill="none" xmlns="http://www.w3.org/2000/svg">
<g clip-path="url(#clip0)">
<path d="M5.27264 39.5455V42.1818H7.90897C9.36498 42.1818 10.5453 43.3621 10.5453 44.8181C10.5453 46.2741 11.7256 47.4544 13.1816 47.4544H15.8181C17.2741 47.4544 18.4544 48.6348 18.4544 50.0908C18.4544 51.5468 17.2741 52.7271 15.8181 52.7271C14.3621 52.7271 13.1817 53.9074 13.1817 55.3634C13.1817 56.8194 14.3621 57.9997 15.8181 57.9997H52.7272C55.6393 57.9997 58 55.6391 58 52.727C58 49.8149 55.6394 47.4542 52.7272 47.4542H50.0909C48.6348 47.4546 47.4545 46.2743 47.4545 44.8182C47.4545 43.3622 48.6348 42.1819 50.0908 42.1819H55.3635V39.5455H5.27264Z" fill="#D33437"/>
<path d="M13.182 21.091L31.5429 2.72998C35.1829 -0.910055 41.0846 -0.910055 44.7247 2.72998C48.3648 6.37002 48.3648 12.2717 44.7247 15.9119L36.9093 23.7273L34.273 21.091L42.0884 13.2755C44.2724 11.0915 44.2724 7.55045 42.0884 5.36643C39.9044 3.18241 36.3633 3.18241 34.1793 5.36643L15.8183 23.7273L13.182 21.091Z" fill="#DDD6F1"/>
<path d="M34.2723 36.9092H55.3629C56.8189 36.9092 57.9992 38.0895 57.9992 39.5455V39.5456C57.9992 41.0016 56.8189 42.1819 55.3629 42.1819H34.2723C32.8163 42.1819 31.636 41.0016 31.636 39.5456V39.5455C31.636 38.0895 32.8163 36.9092 34.2723 36.9092Z" fill="#6E3131"/>
<path d="M44.8181 39.5455H3.95439C3.22639 39.5455 2.63617 40.1357 2.63617 40.8637C2.63617 41.5917 3.22639 42.1819 3.95439 42.1819H13.9009C14.8027 42.1819 15.6999 42.6098 16.1198 43.4078C16.5753 44.2754 17.4745 44.8186 18.4544 44.8182H44.818C46.274 44.8168 47.4531 43.6351 47.4516 42.1791C47.4501 40.7252 46.2719 39.547 44.8181 39.5455Z" fill="#6F3131"/>
<path d="M47.4544 10.5454C53.2785 10.5454 57.9999 17.6275 57.9999 26.3636C57.9999 35.0997 53.2785 42.1818 47.4544 42.1818H21.0908C26.9149 42.1818 31.6362 35.0997 31.6362 26.3636C31.6362 17.6275 26.9149 10.5454 21.0908 10.5454H47.4544Z" fill="#F1EEF9"/>
<path d="M44.8181 26.3636C44.8181 17.6274 40.0969 10.5454 34.2727 10.5454H21.0908C26.915 10.5454 31.6362 17.6274 31.6362 26.3636C31.6362 35.0998 26.915 42.1818 21.0908 42.1818H34.2727C40.0968 42.1818 44.8181 35.0998 44.8181 26.3636Z" fill="#FF4346"/>
<path d="M53.1794 39.6367C53.0319 39.5924 52.8807 39.5619 52.7276 39.5455H29.0003C27.5443 39.5455 26.364 40.7257 26.364 42.1817V42.1818H47.4548C49.567 42.1818 51.5298 41.2409 53.1794 39.6367Z" fill="#BB2626"/>
<path d="M21.0912 42.1823C26.9151 42.1823 31.6362 35.1003 31.6362 26.3641C31.6362 17.628 26.9151 10.5459 21.0912 10.5459C15.2673 10.5459 10.5461 17.628 10.5461 26.3641C10.5461 35.1003 15.2673 42.1823 21.0912 42.1823Z" fill="#F1EEF9"/>
<path d="M21.0911 39.5463C25.4592 39.5463 29.0002 33.6445 29.0002 26.3641C29.0002 19.0838 25.4592 13.1819 21.0911 13.1819C16.723 13.1819 13.182 19.0838 13.182 26.3641C13.182 33.6445 16.723 39.5463 21.0911 39.5463Z" fill="#CDC2EA"/>
<path d="M25.0454 37.7174C27.2294 37.7174 28.9999 32.6343 28.9999 26.3641C28.9999 20.0939 27.2294 15.0108 25.0454 15.0108C22.8613 15.0108 21.0908 20.0939 21.0908 26.3641C21.0908 32.6343 22.8613 37.7174 25.0454 37.7174Z" fill="#BBACE2"/>
<path d="M28.6801 26.3636C27.1969 26.3636 25.7744 26.9528 24.7256 28.0017L22.7289 29.9983C21.6801 31.0471 20.2575 31.6364 18.7743 31.6364H18.1347C16.6515 31.6364 15.229 32.2256 14.1801 33.2744L12.1835 35.2711C11.1346 36.3199 9.71212 36.9092 8.22892 36.9092H2.63632C1.18031 36.9092 0 38.0895 0 39.5455C0 41.0015 1.18031 42.1818 2.63632 42.1818H15.8182C23.0983 42.1818 29.0001 36.2801 29.0001 28.9999V26.3636H28.6801Z" fill="#D33437"/>
<path d="M29.0001 13.1819H44.8183C46.2743 13.1819 47.4546 12.0016 47.4546 10.5455H26.3636C26.3636 12.0014 27.5441 13.1819 29.0001 13.1819Z" fill="#FBFAFD"/>
<path d="M47.4547 10.5454H46.1934C45.9777 11.5782 45.4675 12.5264 44.7247 13.2754L37.4552 20.5449C36.7272 21.2729 36.7272 22.4531 37.4552 23.1811V23.1812C38.1833 23.9092 39.3636 23.9092 40.0916 23.1812L47.361 15.9117C48.7565 14.5163 49.5454 12.7802 49.8626 10.9759C49.0903 10.6971 48.276 10.5515 47.4547 10.5454Z" fill="#CABFE9"/>
<path d="M42.1418 15.8585L37.4552 20.545C36.7272 21.273 36.7272 22.4532 37.4552 23.1812V23.1813C38.1833 23.9093 39.3636 23.9093 40.0916 23.1813L43.7652 19.5077C43.3622 18.2344 42.8176 17.0104 42.1418 15.8585Z" fill="#8C3C7A"/>
<path d="M27.8869 34.2727H24.0383C22.2318 34.2727 20.5804 35.2934 19.7726 36.909C18.9647 38.5248 17.3134 39.5455 15.5069 39.5455H3.95439C3.22639 39.5455 2.63617 40.1357 2.63617 40.8637C2.63617 41.5917 3.22639 42.1819 3.95439 42.1819H15.818C21.0556 42.1791 25.794 39.0739 27.8869 34.2727Z" fill="#6F3131"/>
<path d="M42.088 13.2754L34.8186 20.5449C34.0906 21.2729 34.0906 22.4532 34.8186 23.1812C35.5466 23.9092 36.7269 23.9092 37.4549 23.1812L44.7244 15.9117C46.8177 13.8117 47.7818 10.8379 47.319 7.90909H43.5218C44.0338 9.82556 43.4877 11.8698 42.088 13.2754Z" fill="#DDD6F1"/>
<path d="M50.0911 47.4546H29.0003C27.5443 47.4546 26.364 48.6349 26.364 50.0909C26.364 51.5469 27.5443 52.7272 29.0003 52.7272H39.5457C41.0017 52.7272 42.182 53.9076 42.182 55.3636C42.182 56.8196 43.3623 57.9999 44.8183 57.9999H52.7274C55.6395 57.9999 58.0002 55.6393 58.0002 52.7271C58.0002 49.8151 55.6396 47.4543 52.7274 47.4543L50.0911 47.4546Z" fill="#B52D30"/>
<path d="M17.136 52.7274H27.6818C28.4098 52.7274 29.0001 53.3176 29.0001 54.0456C29.0001 54.7736 28.4098 55.3638 27.6818 55.3638H17.136C16.408 55.3638 15.8178 54.7736 15.8178 54.0456C15.8178 53.3175 16.4079 52.7274 17.136 52.7274Z" fill="#B52D30"/>
<path d="M24.2739 31.0899L25.8183 29.5455C26.5463 28.8175 27.7266 28.8175 28.4546 29.5455C29.1826 30.2736 29.1826 31.4539 28.4546 32.1819L26.9102 33.7262C26.1822 34.4543 25.0019 34.4543 24.2739 33.7262C23.5459 32.9984 23.5459 31.8179 24.2739 31.0899Z" fill="#B52D30"/>
<path d="M17.1364 36.9088C17.8644 36.9088 18.4546 36.3186 18.4546 35.5906C18.4546 34.8625 17.8644 34.2723 17.1364 34.2723C16.4084 34.2723 15.8182 34.8625 15.8182 35.5906C15.8182 36.3186 16.4084 36.9088 17.1364 36.9088Z" fill="#B52D30"/>
<path d="M29.0001 13.1819H40.0974C38.4281 11.519 36.4269 10.5455 34.2727 10.5455H26.3636C26.3636 12.0014 27.5441 13.1819 29.0001 13.1819Z" fill="#B91D1D"/>
<path d="M29.0003 39.5455C27.5443 39.5455 26.364 40.7257 26.364 42.1817V42.1818H34.2731C36.4272 42.1818 38.4284 41.2082 40.0977 39.5455H29.0003Z" fill="#AE2121"/>
</g>
<defs>
<clipPath id="clip0">
<rect width="58" height="58" fill="white"/>
</clipPath>
</defs>
</svg>
