<svg width="214" height="58" viewBox="0 0 214 58" fill="none" xmlns="http://www.w3.org/2000/svg">
<g clip-path="url(#clip0)">
<path d="M120.786 16.947L111.169 15.5876L106.887 7.12561L102.605 15.5876L92.9873 16.947L99.9541 23.6081L98.3226 32.9197L106.887 28.5017L115.451 32.9197L113.82 23.6081L120.786 16.947Z" fill="#6941DA"/>
<path d="M113.446 44.712C115.553 46.1055 117.218 48.1446 118.102 50.6257L114.907 51.7811C113.718 48.3826 110.489 46.1059 106.887 46.1059C103.284 46.1059 100.056 48.3826 98.8663 51.7811L95.6719 50.6257C96.5556 48.1446 98.2207 46.1055 100.328 44.712C92.5115 41.3136 87.0059 31.9342 87.0059 20.6172H90.4043C90.4043 26.8025 92.2053 32.3418 95.1962 36.3181C98.1526 40.2941 102.265 42.707 106.887 42.707C116.13 42.707 123.369 33.0215 123.369 20.6172H126.768C126.768 31.9342 121.262 41.3136 113.446 44.712Z" fill="#442F7F"/>
<path d="M113.446 44.7121C115.553 46.1055 117.218 48.1446 118.102 50.6257L114.907 51.7811C113.718 48.3826 110.489 46.1059 106.887 46.1059V42.7075C116.13 42.7075 123.369 33.0215 123.369 20.6176H126.768C126.768 31.9343 121.262 41.3136 113.446 44.7121Z" fill="#231D35"/>
<path d="M122.885 46.2267C121.546 46.2267 118.349 46.1471 113.808 41.1291C116.893 37.72 119.68 36.0314 122.885 36.0314C124.223 36.0314 127.42 36.1128 131.963 41.1291C128.876 44.5381 126.088 46.2267 122.885 46.2267Z" fill="#513995"/>
<path d="M121.064 33.4229C121.637 28.862 122.951 25.879 125.574 24.0409C126.672 23.2736 129.288 21.5075 135.887 23.0085C135.314 27.5716 134.049 30.555 131.424 32.3927C128.287 34.5898 124.528 34.2225 121.064 33.4229Z" fill="#513995"/>
<path d="M124.105 22.685C122.32 18.4453 121.968 15.2057 123.322 12.302C123.887 11.0887 125.311 8.22611 131.778 6.23041C133.562 10.4683 133.914 13.7083 132.561 16.6116C131.995 17.8249 130.571 20.6866 124.105 22.685Z" fill="#513995"/>
<path d="M90.8838 46.2267C89.5447 46.2267 86.3481 46.1471 81.8066 41.1291C84.8918 37.72 87.6791 36.0314 90.8838 36.0314C92.2223 36.0314 95.4194 36.1128 99.9622 41.1291C96.8748 44.5381 94.0871 46.2267 90.8838 46.2267Z" fill="#6941DA"/>
<path d="M82.2295 32.3927C81.1325 31.6249 78.7292 29.7235 77.8867 23.0085C82.3644 21.9898 85.5646 22.204 88.1905 24.0408C89.287 24.8086 91.8593 26.7078 92.7023 33.4229C92.3478 33.4556 86.5784 35.4363 82.2295 32.3927Z" fill="#6941DA"/>
<path d="M89.6621 22.685C85.2689 21.3269 82.5599 19.5149 81.2058 16.6116C80.6403 15.3982 79.3628 12.4675 81.989 6.23041C86.3818 7.5858 89.0917 9.39875 90.4453 12.302C91.0108 13.5154 92.2879 16.4474 89.6621 22.685Z" fill="#6941DA"/>
<path d="M113.819 23.6081L115.451 32.9197L106.887 28.5017V7.12561L111.169 15.5876L120.786 16.947L113.819 23.6081Z" fill="#513995"/>
</g>
<path d="M64.7991 25.8214L55.1817 24.462L50.8995 16L46.6174 24.462L37 25.8214L43.9668 32.4825L42.3353 41.7941L50.8995 37.3761L59.4638 41.7941L57.8323 32.4825L64.7991 25.8214Z" fill="#6941DA"/>
<path d="M57.8322 32.4825L59.4637 41.7941L50.8994 37.3761V16L55.1815 24.462L64.799 25.8214L57.8322 32.4825Z" fill="#513995"/>
<path d="M27.7991 25.8214L18.1817 24.462L13.8995 16L9.61742 24.462L0 25.8214L6.96681 32.4825L5.33529 41.7941L13.8995 37.3761L22.4638 41.7941L20.8323 32.4825L27.7991 25.8214Z" fill="#6941DA"/>
<path d="M20.8322 32.4825L22.4637 41.7941L13.8994 37.3761V16L18.1815 24.462L27.799 25.8214L20.8322 32.4825Z" fill="#513995"/>
<path d="M176.799 25.8214L167.182 24.462L162.9 16L158.617 24.462L149 25.8214L155.967 32.4825L154.335 41.7941L162.9 37.3761L171.464 41.7941L169.832 32.4825L176.799 25.8214Z" fill="#6941DA"/>
<path d="M169.832 32.4825L171.464 41.7941L162.899 37.3761V16L167.182 24.462L176.799 25.8214L169.832 32.4825Z" fill="#513995"/>
<path d="M213.799 25.8214L204.182 24.462L199.9 16L195.617 24.462L186 25.8214L192.967 32.4825L191.335 41.7941L199.9 37.3761L208.464 41.7941L206.832 32.4825L213.799 25.8214Z" fill="#6941DA"/>
<path d="M206.832 32.4825L208.464 41.7941L199.899 37.3761V16L204.182 24.462L213.799 25.8214L206.832 32.4825Z" fill="#513995"/>
<defs>
<clipPath id="clip0">
<rect width="58" height="58" fill="white" transform="translate(78)"/>
</clipPath>
</defs>
</svg>
