<svg width="58" height="58" viewBox="0 0 58 58" fill="none" xmlns="http://www.w3.org/2000/svg">
<g clip-path="url(#clip0)">
<path d="M24.5591 42.9252C25.9921 42.9252 27.3123 43.6459 28.0907 44.8533C28.1098 44.8831 28.142 44.9022 28.1773 44.9048C28.1802 44.905 28.1831 44.9052 28.186 44.9052C28.2183 44.9052 28.2493 44.8913 28.2708 44.8669C29.4376 43.547 31.1151 42.7901 32.8731 42.7901C33.4721 42.7901 34.0507 42.8778 34.5985 43.0385L32.5768 37.8564H25.4236L23.3799 43.095C23.7543 42.9851 24.1497 42.9252 24.5591 42.9252Z" fill="#D9EAFC"/>
<path d="M26.3561 37.8564H25.4236L23.3799 43.095C23.698 43.0018 24.0319 42.9471 24.3761 42.9319L26.3561 37.8564Z" fill="#AEC1ED"/>
<path d="M22.3831 48.2798C22.3877 48.3097 22.4039 48.3365 22.4282 48.3544C22.4477 48.3688 22.4713 48.3764 22.4952 48.3764C22.501 48.3764 22.5071 48.3759 22.5129 48.375C22.9174 48.3107 23.3235 48.2781 23.72 48.2781C25.657 48.2781 27.5047 49.0059 28.9231 50.3274C28.9448 50.3477 28.9726 50.3578 29.0003 50.3578C29.0281 50.3578 29.0558 50.3477 29.0776 50.3274C30.4959 49.0059 32.3437 48.2781 34.2807 48.2781C34.6771 48.2781 35.0833 48.3107 35.4877 48.375C35.4937 48.3759 35.4996 48.3764 35.5055 48.3764C35.5294 48.3764 35.553 48.3688 35.5725 48.3544C35.5968 48.3365 35.613 48.3097 35.6176 48.2798C35.8269 46.8708 36.3572 45.5363 37.1527 44.3717C36.0337 43.3213 34.5293 42.6768 32.8732 42.6768C31.0067 42.6768 29.3321 43.4953 28.1861 44.7918C27.4185 43.6011 26.0815 42.8119 24.5594 42.8119C23.0993 42.8119 21.8097 43.5381 21.0293 44.6484C21.7237 45.746 22.1902 46.981 22.3831 48.2798Z" fill="#AEC1ED"/>
<path d="M22.4951 48.2632C21.8134 43.6742 17.8579 40.1533 13.0793 40.1533C9.76184 40.1533 6.8419 41.8507 5.1377 44.4237C7.74702 48.8062 11.5296 52.4072 16.0517 54.797C16.5353 51.4477 19.161 48.7929 22.4951 48.2632Z" fill="#445EA0"/>
<path d="M14.0299 41.3239C16.4578 41.3239 18.6833 42.185 20.4218 43.6163C18.6758 41.5019 16.0357 40.1533 13.0793 40.1533C9.76184 40.1533 6.8419 41.8507 5.1377 44.4237C5.36279 44.8017 5.59728 45.1736 5.83959 45.5397C7.66557 42.988 10.6527 41.3239 14.0299 41.3239Z" fill="#293D7C"/>
<path d="M44.9207 40.1533C40.142 40.1533 36.1866 43.6743 35.5049 48.2632C38.839 48.7929 41.4647 51.4477 41.9483 54.797C46.4703 52.4072 50.253 48.8061 52.8623 44.4237C51.1581 41.8507 48.2381 40.1533 44.9207 40.1533Z" fill="#445EA0"/>
<path d="M45.4976 40.171C45.3071 40.1597 45.1152 40.1533 44.9217 40.1533C40.143 40.1533 36.1876 43.6743 35.5059 48.2632C35.8611 48.3197 36.2077 48.4017 36.5451 48.5046C37.4924 44.1683 41.0544 40.8106 45.4976 40.171Z" fill="#293D7C"/>
<path d="M34.2809 48.165C32.24 48.165 30.3846 48.9553 29.0006 50.2448C27.6166 48.9552 25.7612 48.165 23.7203 48.165C19.8195 48.165 16.5927 51.0476 16.0518 54.7986C19.9178 56.8418 24.3236 58.0005 29.0006 58.0005C33.6776 58.0005 38.0834 56.8418 41.9494 54.7986C41.4085 51.0476 38.1817 48.165 34.2809 48.165Z" fill="#293D7C"/>
<path d="M25.3392 49.1284C26.408 49.1284 27.428 49.3363 28.3615 49.7131C27.0675 48.7424 25.4615 48.165 23.7194 48.165C19.8185 48.165 16.5917 51.0476 16.0508 54.7986C16.5065 55.0394 16.9699 55.2676 17.4402 55.4832C18.2339 51.8497 21.4674 49.1284 25.3392 49.1284Z" fill="#1A2B63"/>
<path d="M31.5525 37.8564H29.8398L30.0584 39.5852C30.1172 40.0508 30.5429 40.3801 31.0078 40.3216C31.4732 40.2627 31.803 39.8376 31.7441 39.3722L31.5525 37.8564Z" fill="#AEC1ED"/>
<path d="M26.4482 37.8566L25.999 41.4113C25.9402 41.8768 26.2698 42.3019 26.7354 42.3607C26.7716 42.3653 26.8075 42.3675 26.843 42.3675C27.2648 42.3674 27.6307 42.0536 27.6849 41.6243L28.1612 37.8564H26.4482V37.8566Z" fill="#AEC1ED"/>
<path d="M20.29 22.1709C20.29 21.2471 20.3246 20.3258 20.3894 19.4111C17.6639 20.946 15.7861 24.3653 15.7861 28.3239C15.7861 30.4146 16.306 32.4085 17.2894 34.0899C17.3817 34.2478 17.5488 34.3381 17.7223 34.3381C17.7858 34.3381 17.85 34.3261 17.9117 34.3008C19.2042 33.7725 20.5853 33.5011 22.0175 33.4897C20.8866 30.0088 20.29 26.1215 20.29 22.1709Z" fill="#EF5350"/>
<path d="M17.0705 28.3239C17.0705 25.0542 18.3523 22.1538 20.3339 20.378C20.3491 20.055 20.3667 19.7326 20.3894 19.4111C17.6639 20.946 15.7861 24.3653 15.7861 28.3239C15.7861 30.4146 16.306 32.4085 17.2894 34.0899C17.3817 34.2478 17.5488 34.3381 17.7223 34.3381C17.7858 34.3381 17.85 34.3261 17.9117 34.3008C18.1247 34.2137 18.3411 34.1362 18.5587 34.0632C17.5853 32.3873 17.0705 30.4036 17.0705 28.3239Z" fill="#B7092B"/>
<path d="M37.6106 19.4111C37.6754 20.3259 37.7101 21.2472 37.7101 22.1709C37.7101 26.1213 37.1134 30.0087 35.9824 33.4897C37.4148 33.5011 38.7958 33.7725 40.0882 34.3008C40.1499 34.3261 40.2143 34.3381 40.2776 34.3381C40.4513 34.3381 40.6182 34.2477 40.7106 34.0899C41.6941 32.4085 42.2138 30.4146 42.2138 28.3239C42.2139 24.3653 40.3362 20.946 37.6106 19.4111Z" fill="#EF5350"/>
<path d="M24.6621 34.791V37.4026C24.6621 37.7141 24.917 37.969 25.2285 37.969H32.7711C33.0826 37.969 33.3375 37.7141 33.3375 37.4026V34.791H24.6621Z" fill="#EF5350"/>
<path d="M26.5887 37.4026V34.791H24.6621V37.4026C24.6621 37.7141 24.917 37.969 25.2285 37.969H27.1551C26.8436 37.969 26.5887 37.7141 26.5887 37.4026Z" fill="#B7092B"/>
<path d="M35.8941 10.2314H22.1067C20.8432 13.8738 20.1768 17.9734 20.1768 22.1712C20.1768 26.535 20.9005 30.8244 22.2696 34.5755C22.3419 34.7733 22.5299 34.9049 22.7405 34.9049H35.2603C35.4709 34.9049 35.659 34.7733 35.7312 34.5755C37.1003 30.8244 37.824 26.535 37.824 22.1712C37.8242 17.9734 37.1577 13.8739 35.8941 10.2314Z" fill="#EEF6FF"/>
<path d="M23.8751 34.5755C22.5058 30.8244 21.7822 26.535 21.7822 22.1712C21.7822 17.9734 22.4486 13.8738 23.7122 10.2314H22.1067C20.8432 13.8738 20.1768 17.9734 20.1768 22.1712C20.1768 26.535 20.9005 30.8244 22.2696 34.5755C22.3419 34.7733 22.53 34.9049 22.7405 34.9049H24.346C24.1354 34.9049 23.9473 34.7733 23.8751 34.5755Z" fill="#D9EAFC"/>
<path d="M25.7354 10.2314V12.1112C25.7354 12.4228 25.9902 12.6776 26.3018 12.6776H31.6987C32.0102 12.6776 32.2651 12.4228 32.2651 12.1112V10.2314H25.7354Z" fill="#EA2A3D"/>
<path d="M27.0197 12.1112V10.2314H25.7354V12.1112C25.7354 12.4228 25.9902 12.6776 26.3018 12.6776H27.5861C27.2746 12.6776 27.0197 12.4228 27.0197 12.1112Z" fill="#B7092B"/>
<path d="M29.0004 0C28.8886 0 28.7769 0.0372695 28.6849 0.111695C26.1545 2.16084 24.023 5.26928 22.5212 9.10101C22.3615 9.50871 22.2114 9.92446 22.0674 10.3446H35.9333C35.7894 9.92446 35.6393 9.50871 35.4795 9.10101C33.9778 5.26928 31.8464 2.16084 29.3158 0.111695C29.2239 0.0372695 29.1122 0 29.0004 0Z" fill="#EF5350"/>
<path d="M29.8031 0.524266C29.6424 0.382551 29.4801 0.244687 29.3159 0.111695C29.2239 0.0372695 29.1122 0 29.0004 0C28.8886 0 28.7769 0.0372695 28.6849 0.111695C26.1545 2.16084 24.023 5.26928 22.5212 9.10101C22.3615 9.50871 22.2114 9.92446 22.0674 10.3446H23.6728C23.8168 9.92446 23.9669 9.50871 24.1266 9.10101C25.5311 5.51782 27.4861 2.56775 29.8031 0.524266Z" fill="#B7092B"/>
<path d="M29.0003 26.276C32.1923 26.276 34.7799 23.6884 34.7799 20.4964C34.7799 17.3044 32.1923 14.7168 29.0003 14.7168C25.8083 14.7168 23.2207 17.3044 23.2207 20.4964C23.2207 23.6884 25.8083 26.276 29.0003 26.276Z" fill="#445EA0"/>
<path d="M28.9998 24.2037C31.0476 24.2037 32.7076 22.5437 32.7076 20.4959C32.7076 18.4481 31.0476 16.7881 28.9998 16.7881C26.952 16.7881 25.292 18.4481 25.292 20.4959C25.292 22.5437 26.952 24.2037 28.9998 24.2037Z" fill="#69CDFF"/>
<path d="M26.6513 20.4959C26.6513 22.3115 27.9564 23.8213 29.6795 24.1406C29.459 24.1814 29.2321 24.2038 28.9998 24.2038C26.9519 24.2038 25.292 22.5437 25.292 20.4959C25.292 18.4481 26.952 16.7881 28.9998 16.7881C29.232 16.7881 29.459 16.8105 29.6795 16.8513C27.9564 17.1706 26.6513 18.6803 26.6513 20.4959Z" fill="#52BBEF"/>
<path d="M12.4761 20.2474C12.3462 20.2474 12.2291 20.1692 12.1793 20.0491C11.5469 18.5222 11.0806 18.056 9.55371 17.4236C9.43363 17.3738 9.35547 17.2567 9.35547 17.1268C9.35547 16.9968 9.43375 16.8797 9.55371 16.83C11.0807 16.1973 11.5469 15.731 12.1793 14.2042C12.2291 14.0841 12.3462 14.0059 12.4761 14.0059C12.6061 14.0059 12.7232 14.0841 12.7729 14.2042C13.4055 15.731 13.8718 16.1973 15.3987 16.83C15.5188 16.8797 15.597 16.9968 15.597 17.1268C15.597 17.2567 15.5188 17.3739 15.3987 17.4236C13.8718 18.0559 13.4055 18.5222 12.7729 20.0491C12.7232 20.1692 12.6061 20.2474 12.4761 20.2474Z" fill="#FFD00D"/>
<path d="M12.8215 19.4077C12.1891 17.8807 11.7228 17.4146 10.1959 16.7821C10.1205 16.751 10.0617 16.693 10.0282 16.6221C9.88166 16.6907 9.72533 16.7596 9.55371 16.8307C9.43363 16.8805 9.35547 16.9976 9.35547 17.1275C9.35547 17.2575 9.43375 17.3747 9.55371 17.4243C11.0806 18.0568 11.5469 18.5229 12.1793 20.0498C12.2291 20.1699 12.3462 20.2482 12.4761 20.2482C12.6061 20.2482 12.7232 20.1699 12.7729 20.0498C12.844 19.8782 12.913 19.7219 12.9815 19.5754C12.9107 19.542 12.8528 19.4831 12.8215 19.4077Z" fill="#FFAF10"/>
<path d="M46.6122 22.8153C46.4981 22.8153 46.3951 22.7466 46.3514 22.641C45.7955 21.2988 45.3856 20.8891 44.0435 20.3332C43.938 20.2896 43.8691 20.1865 43.8691 20.0723C43.8691 19.958 43.9379 19.8552 44.0435 19.8114C45.3857 19.2553 45.7955 18.8455 46.3514 17.5034C46.3951 17.3979 46.4981 17.3291 46.6122 17.3291C46.7264 17.3291 46.8294 17.3979 46.8731 17.5034C47.4291 18.8456 47.839 19.2553 49.1812 19.8114C49.2867 19.8552 49.3555 19.958 49.3555 20.0723C49.3555 20.1865 49.2867 20.2895 49.1811 20.3332C47.839 20.8891 47.4291 21.2988 46.8731 22.641C46.8295 22.7464 46.7265 22.8153 46.6122 22.8153Z" fill="white"/>
<path d="M46.915 22.0765C46.359 20.7343 45.9493 20.3246 44.607 19.7686C44.5407 19.7412 44.4889 19.6903 44.4596 19.6279C44.3308 19.6882 44.1933 19.7488 44.0425 19.8113C43.937 19.8551 43.8682 19.9579 43.8682 20.0722C43.8682 20.1864 43.9369 20.2894 44.0425 20.3331C45.3848 20.889 45.7945 21.2987 46.3504 22.6409C46.3941 22.7464 46.4971 22.8152 46.6113 22.8152C46.7255 22.8152 46.8284 22.7464 46.8722 22.6409C46.9346 22.4901 46.9952 22.3526 47.0556 22.2238C46.9934 22.1945 46.9425 22.1428 46.915 22.0765Z" fill="#D9EAFC"/>
<path d="M43.6669 10.8828C43.5338 10.8828 43.4139 10.8026 43.3629 10.6797C42.7151 9.11573 42.2377 8.63825 40.6737 7.99062C40.5508 7.93976 40.4707 7.81968 40.4707 7.68669C40.4707 7.55347 40.5509 7.43362 40.6737 7.38264C42.2378 6.73468 42.7153 6.25719 43.3629 4.69346C43.4139 4.57044 43.5338 4.49023 43.6669 4.49023C43.8 4.49023 43.92 4.57044 43.971 4.69346C44.6188 6.25731 45.0963 6.73479 46.6603 7.38264C46.7832 7.43362 46.8633 7.55347 46.8633 7.68669C46.8633 7.81968 46.7831 7.93976 46.6602 7.99062C45.0962 8.63825 44.6188 9.11585 43.9709 10.6797C43.92 10.8026 43.8 10.8828 43.6669 10.8828Z" fill="#FF9518"/>
<path d="M44.0198 10.0219C43.372 8.45809 42.8945 7.98061 41.3306 7.33286C41.2533 7.30092 41.1931 7.24156 41.1588 7.16895C41.0088 7.23929 40.8485 7.30987 40.6727 7.38259C40.5498 7.43357 40.4697 7.55342 40.4697 7.68664C40.4697 7.81963 40.5499 7.93971 40.6727 7.99058C42.2367 8.63832 42.7143 9.1158 43.3619 10.6796C43.4129 10.8026 43.5328 10.8828 43.666 10.8828C43.7991 10.8828 43.919 10.8026 43.97 10.6796C44.0428 10.5038 44.1134 10.3437 44.1837 10.1937C44.111 10.1595 44.0518 10.0992 44.0198 10.0219Z" fill="#EF8318"/>
</g>
<defs>
<clipPath id="clip0">
<rect width="58" height="58" fill="white"/>
</clipPath>
</defs>
</svg>
