<svg width="140" height="58" viewBox="0 0 140 58" fill="none" xmlns="http://www.w3.org/2000/svg">
<g clip-path="url(#clip0)">
<path d="M83.7864 16.947L74.169 15.5876L69.8869 7.12561L65.6047 15.5876L55.9873 16.947L62.9541 23.6081L61.3226 32.9197L69.8869 28.5017L78.4511 32.9197L76.8196 23.6081L83.7864 16.947Z" fill="#FDBF00"/>
<path d="M76.4456 44.712C78.5528 46.1055 80.2179 48.1446 81.1016 50.6257L77.9072 51.7811C76.7177 48.3826 73.4892 46.1059 69.8868 46.1059C66.2843 46.1059 63.0558 48.3826 61.8663 51.7811L58.6719 50.6257C59.5556 48.1446 61.2207 46.1055 63.3279 44.712C55.5115 41.3136 50.0059 31.9342 50.0059 20.6172H53.4043C53.4043 26.8025 55.2053 32.3418 58.1962 36.3181C61.1526 40.2941 65.2648 42.707 69.8868 42.707C79.1303 42.707 86.3692 33.0215 86.3692 20.6172H89.7677C89.7677 31.9342 84.262 41.3136 76.4456 44.712Z" fill="#FF9F00"/>
<path d="M76.4455 44.7121C78.5528 46.1055 80.2179 48.1446 81.1016 50.6257L77.9071 51.7811C76.7177 48.3826 73.4892 46.1059 69.8867 46.1059V42.7075C79.1302 42.7075 86.3692 33.0215 86.3692 20.6176H89.7676C89.7676 31.9343 84.262 41.3136 76.4455 44.7121Z" fill="#FF7816"/>
<path d="M85.8847 46.2267C84.5457 46.2267 81.3491 46.1471 76.8076 41.1291C79.8928 37.72 82.6801 36.0314 85.8847 36.0314C87.2233 36.0314 90.4204 36.1128 94.9632 41.1291C91.8758 44.5381 89.088 46.2267 85.8847 46.2267Z" fill="#FF9F00"/>
<path d="M84.0645 33.4229C84.6371 28.862 85.9513 25.879 88.5745 24.0409C89.6719 23.2736 92.2875 21.5075 98.8866 23.0085C98.314 27.5716 97.0489 30.555 94.424 32.3927C91.287 34.5898 87.5279 34.2225 84.0645 33.4229Z" fill="#FF9F00"/>
<path d="M87.1048 22.685C85.3202 18.4453 84.968 15.2057 86.3216 12.302C86.8871 11.0887 88.3111 8.22611 94.7779 6.23041C96.5621 10.4683 96.9143 13.7083 95.5611 16.6116C94.9951 17.8249 93.5707 20.6866 87.1048 22.685Z" fill="#FF9F00"/>
<path d="M53.8838 46.2267C52.5447 46.2267 49.3481 46.1471 44.8066 41.1291C47.8918 37.72 50.6791 36.0314 53.8838 36.0314C55.2223 36.0314 58.4194 36.1128 62.9622 41.1291C59.8748 44.5381 57.0871 46.2267 53.8838 46.2267Z" fill="#FDBF00"/>
<path d="M45.2295 32.3927C44.1325 31.6249 41.7292 29.7235 40.8867 23.0085C45.3644 21.9898 48.5646 22.204 51.1905 24.0408C52.287 24.8086 54.8593 26.7078 55.7023 33.4229C55.3478 33.4556 49.5784 35.4363 45.2295 32.3927Z" fill="#FDBF00"/>
<path d="M52.6621 22.685C48.2689 21.3269 45.5599 19.5149 44.2058 16.6116C43.6403 15.3982 42.3628 12.4675 44.989 6.23041C49.3818 7.5858 52.0917 9.39875 53.4453 12.302C54.0108 13.5154 55.2879 16.4474 52.6621 22.685Z" fill="#FDBF00"/>
<path d="M76.8195 23.6081L78.451 32.9197L69.8867 28.5017V7.12561L74.1688 15.5876L83.7863 16.947L76.8195 23.6081Z" fill="#FF9F00"/>
</g>
<path d="M27.7991 25.8214L18.1817 24.462L13.8995 16L9.61742 24.462L0 25.8214L6.96681 32.4825L5.33529 41.7941L13.8995 37.3761L22.4638 41.7941L20.8323 32.4825L27.7991 25.8214Z" fill="#FDBF00"/>
<path d="M20.8322 32.4825L22.4637 41.7941L13.8994 37.3761V16L18.1815 24.462L27.799 25.8214L20.8322 32.4825Z" fill="#FF9F00"/>
<path d="M139.799 25.8214L130.182 24.462L125.9 16L121.617 24.462L112 25.8214L118.967 32.4825L117.335 41.7941L125.9 37.3761L134.464 41.7941L132.832 32.4825L139.799 25.8214Z" fill="#FDBF00"/>
<path d="M132.832 32.4825L134.464 41.7941L125.899 37.3761V16L130.182 24.462L139.799 25.8214L132.832 32.4825Z" fill="#FF9F00"/>
<defs>
<clipPath id="clip0">
<rect width="58" height="58" fill="white" transform="translate(41)"/>
</clipPath>
</defs>
</svg>
