<svg width="58" height="58" viewBox="0 0 58 58" fill="none" xmlns="http://www.w3.org/2000/svg">
<g clip-path="url(#clip0)">
<path d="M42.7864 16.947L33.169 15.5876L28.8869 7.12561L24.6047 15.5876L14.9873 16.947L21.9541 23.6081L20.3226 32.9197L28.8869 28.5017L37.4511 32.9197L35.8196 23.6081L42.7864 16.947Z" fill="#B2B2B2"/>
<path d="M35.4456 44.7121C37.5528 46.1055 39.2179 48.1446 40.1016 50.6257L36.9072 51.7811C35.7177 48.3827 32.4892 46.106 28.8868 46.106C25.2843 46.106 22.0558 48.3827 20.8663 51.7811L17.6719 50.6257C18.5556 48.1446 20.2207 46.1055 22.3279 44.7121C14.5115 41.3136 9.00586 31.9343 9.00586 20.6172H12.4043C12.4043 26.8025 14.2053 32.3418 17.1962 36.3182C20.1526 40.2941 24.2648 42.7071 28.8868 42.7071C38.1303 42.7071 45.3692 33.0215 45.3692 20.6172H48.7677C48.7677 31.9343 43.262 41.3136 35.4456 44.7121Z" fill="#8A8A8A"/>
<path d="M35.4455 44.7121C37.5528 46.1055 39.2179 48.1446 40.1016 50.6257L36.9071 51.7811C35.7177 48.3826 32.4892 46.1059 28.8867 46.1059V42.7075C38.1302 42.7075 45.3692 33.0215 45.3692 20.6176H48.7676C48.7676 31.9343 43.262 41.3136 35.4455 44.7121Z" fill="#303030"/>
<path d="M44.8847 46.2268C43.5457 46.2268 40.3491 46.1471 35.8076 41.1291C38.8928 37.72 41.6801 36.0314 44.8847 36.0314C46.2233 36.0314 49.4204 36.1129 53.9632 41.1291C50.8758 44.5382 48.088 46.2268 44.8847 46.2268Z" fill="#6C6C6C"/>
<path d="M43.0645 33.4229C43.6371 28.862 44.9513 25.879 47.5745 24.0409C48.6719 23.2736 51.2875 21.5075 57.8866 23.0085C57.314 27.5716 56.0489 30.555 53.424 32.3927C50.287 34.5898 46.5279 34.2225 43.0645 33.4229Z" fill="#6C6C6C"/>
<path d="M46.1048 22.685C44.3202 18.4453 43.968 15.2057 45.3216 12.302C45.8871 11.0887 47.3111 8.22611 53.7779 6.23041C55.5621 10.4683 55.9143 13.7083 54.5611 16.6116C53.9951 17.8249 52.5707 20.6866 46.1048 22.685Z" fill="#6C6C6C"/>
<path d="M12.8838 46.2267C11.5447 46.2267 8.34808 46.1471 3.80664 41.129C6.89179 37.72 9.67914 36.0314 12.8838 36.0314C14.2223 36.0314 17.4194 36.1128 21.9622 41.129C18.8748 44.5381 16.0871 46.2267 12.8838 46.2267Z" fill="#B2B2B2"/>
<path d="M4.22947 32.3927C3.1325 31.6249 0.72925 29.7235 -0.113281 23.0084C4.36443 21.9898 7.56464 22.204 10.1905 24.0408C11.287 24.8086 13.8593 26.7078 14.7023 33.4228C14.3478 33.4556 8.57842 35.4362 4.22947 32.3927Z" fill="#B2B2B2"/>
<path d="M11.6621 22.685C7.26888 21.3269 4.55986 19.5149 3.20579 16.6116C2.64027 15.3982 1.36275 12.4675 3.98902 6.23041C8.38178 7.5858 11.0917 9.39875 12.4453 12.302C13.0108 13.5154 14.2879 16.4474 11.6621 22.685Z" fill="#B2B2B2"/>
<path d="M35.8195 23.6081L37.451 32.9197L28.8867 28.5017V7.12561L33.1688 15.5876L42.7863 16.947L35.8195 23.6081Z" fill="#6C6C6C"/>
</g>
<defs>
<clipPath id="clip0">
<rect width="58" height="58" fill="white"/>
</clipPath>
</defs>
</svg>
