<svg width="58" height="58" viewBox="0 0 58 58" fill="none" xmlns="http://www.w3.org/2000/svg">
<path d="M22.2325 6.88999L1.07318 43.2437C-1.96244 48.4592 1.80289 55 7.84067 55H50.1593C56.1971 55 59.9624 48.459 56.9268 43.2437L35.7677 6.88999C32.7488 1.70334 25.2514 1.70334 22.2325 6.88999Z" fill="#FF4346"/>
<path d="M50.1595 55H29V3C31.6294 3 34.2588 4.29781 35.7679 6.89025L56.9275 43.2433C59.9616 48.4584 56.1975 55 50.1595 55Z" fill="#9F3234"/>
<path d="M49.7235 51H8.27664C6.73033 51 5.3467 50.2028 4.57569 48.8676C3.80452 47.5323 3.80833 45.9402 4.58586 44.6085L25.3093 9.11484C26.0824 7.79051 27.462 7 28.9999 7C30.5378 7 31.9176 7.79051 32.6907 9.11484L53.4141 44.6085C54.1917 45.9401 54.1955 47.5323 53.4243 48.8676C52.6533 50.2028 51.2698 51 49.7235 51ZM28.9999 8.86241C28.1353 8.86241 27.3599 9.30681 26.9254 10.0511L6.20192 45.5447C5.76486 46.2933 5.76279 47.1883 6.19636 47.9388C6.62976 48.6892 7.40729 49.1374 8.27664 49.1374H49.7235C50.5927 49.1374 51.3704 48.6892 51.8038 47.9388C52.2372 47.1881 52.2351 46.2932 51.7982 45.5447L31.0746 10.0513C30.6401 9.30681 29.8645 8.86241 28.9999 8.86241Z" fill="#1B1B1B"/>
<path d="M53.4134 44.6094L32.6905 9.11438C31.9168 7.79131 30.538 7 29 7V8.86274C29.8642 8.86274 30.6395 9.30746 31.0748 10.0513L51.7979 45.5447C52.2348 46.2933 52.2364 47.1891 51.8026 47.9392C51.3705 48.6894 50.5921 49.1373 49.7231 49.1373H29.0002V51H49.7231C51.2688 51 52.6526 50.2039 53.4247 48.8682C54.1952 47.5325 54.192 45.9404 53.4134 44.6094Z" fill="#1B1B1B"/>
<path d="M27 35.3179V19H31V35.3179H27ZM27 45V39.5245H31V45H27Z" fill="#1B1B1B"/>
<path d="M29 39.5238V45H31V39.5238H29ZM29 19V35.3178H31V19H29Z" fill="black"/>
</svg>
