<svg width="20" height="18" viewBox="0 0 20 18" fill="none" xmlns="http://www.w3.org/2000/svg">
<path d="M11.919 17.4446L8.67384 11.9735H6.10009C6.0918 11.9985 6.03792 12.2322 5.93846 12.6746C5.82241 13.1754 5.6815 13.7763 5.51571 14.4774C5.34993 15.1702 5.20073 15.8045 5.06811 16.3804C4.93548 16.9479 4.85259 17.2943 4.81944 17.4195H0.666626L4.06099 3.33501C4.71582 1.48211 5.89701 0.555664 7.60455 0.555664H15.7361C16.8883 0.555664 17.8208 0.993849 18.5337 1.87022C19.2465 2.73824 19.4827 3.74398 19.2424 4.88743C19.2424 4.88743 19.1802 5.13365 19.0559 5.62609C18.9398 6.11852 18.803 6.69442 18.6456 7.35379C18.4881 8.01315 18.343 8.62661 18.2104 9.19416C18.0032 10.0038 17.5721 10.6715 16.9173 11.1973C16.2625 11.7148 15.504 11.9735 14.6419 11.9735H13.1251L16.3578 17.4446H11.919ZM14.6419 7.70433C14.6419 7.70433 14.8782 6.80293 15.3507 5.00011C15.3755 4.84987 15.3382 4.71633 15.2388 4.59948C15.1393 4.47429 15.015 4.41169 14.8658 4.41169H8.45003C8.35885 4.41169 8.26353 4.44925 8.16406 4.52437C8.06459 4.60783 7.99828 4.70799 7.96513 4.82483C7.96513 4.82483 7.72474 5.90152 7.24398 8.05488H14.1322C14.3891 8.05488 14.5591 7.93803 14.6419 7.70433Z" fill="white"/>
</svg>
