<svg width="181" height="193" viewBox="0 0 181 193" fill="none" xmlns="http://www.w3.org/2000/svg" style="" class="">
<path stroke="#D3C334" stroke-opacity="0.4" stroke-width="6" d="M3,90.5A87.5,87.5 0,1,1 178,90.5A87.5,87.5 0,1,1 3,90.5" class="QMKZuBwu_0"></path>
<path stroke="#D3C334" stroke-opacity="0.1" stroke-width="4" d="M22,91A69,69 0,1,1 160,91A69,69 0,1,1 22,91" class="QMKZuBwu_1"></path>
<path d="M51.45 183.896C51.45 185.216 51.03 186.266 50.19 187.046C49.35 187.826 48.276 188.216 46.968 188.216C45.336 188.216 43.872 187.652 42.576 186.524C42.468 186.404 42.468 186.278 42.576 186.146L43.458 185.12C43.578 185 43.704 185 43.836 185.12C44.364 185.504 44.85 185.786 45.294 185.966C45.75 186.146 46.308 186.236 46.968 186.236C47.676 186.236 48.24 186.032 48.66 185.624C49.092 185.204 49.308 184.61 49.308 183.842C49.308 182.39 48.462 181.664 46.77 181.664C46.398 181.664 46.02 181.706 45.636 181.79C45.504 181.826 45.396 181.772 45.312 181.628L44.97 180.89C44.91 180.758 44.934 180.632 45.042 180.512L46.806 178.586C47.574 177.77 48.084 177.266 48.336 177.074H43.458C43.29 177.074 43.206 176.984 43.206 176.804V175.4C43.206 175.22 43.29 175.13 43.458 175.13H50.802C50.97 175.13 51.054 175.22 51.054 175.4V176.444C51.054 176.552 51.012 176.66 50.928 176.768L47.67 180.224L47.688 180.26C48.696 180.236 49.572 180.554 50.316 181.214C51.072 181.862 51.45 182.756 51.45 183.896ZM66.3208 186.902C65.1928 187.778 63.8128 188.216 62.1808 188.216C60.7408 188.216 59.5528 187.826 58.6168 187.046C57.6808 186.266 57.2128 185.126 57.2128 183.626V179.522C57.2128 178.022 57.6808 176.882 58.6168 176.102C59.5528 175.31 60.7288 174.914 62.1448 174.914C63.5608 174.914 64.8448 175.316 65.9968 176.12C66.1288 176.216 66.1468 176.336 66.0508 176.48L65.2048 177.704C65.1208 177.848 64.9948 177.872 64.8268 177.776C64.0468 177.236 63.1528 176.966 62.1448 176.966C61.2808 176.966 60.6028 177.194 60.1108 177.65C59.6308 178.106 59.3908 178.736 59.3908 179.54V183.572C59.3908 184.388 59.6308 185.024 60.1108 185.48C60.6028 185.936 61.2868 186.164 62.1628 186.164C63.2908 186.164 64.2868 185.852 65.1508 185.228C65.3068 185.12 65.4268 185.144 65.5108 185.3L66.3568 186.524C66.4528 186.68 66.4408 186.806 66.3208 186.902ZM70.4567 182.456V186.02H76.2347C76.4147 186.02 76.5047 186.104 76.5047 186.272V187.73C76.5047 187.91 76.4147 188 76.2347 188H68.5307C68.3627 188 68.2787 187.91 68.2787 187.73V175.4C68.2787 175.22 68.3627 175.13 68.5307 175.13H75.9827C76.1627 175.13 76.2527 175.22 76.2527 175.4V176.858C76.2527 177.026 76.1627 177.11 75.9827 177.11H70.4567V180.476H75.5147C75.6947 180.476 75.7847 180.566 75.7847 180.746V182.186C75.7847 182.366 75.6947 182.456 75.5147 182.456H70.4567ZM80.7156 188H79.0776C78.9096 188 78.8256 187.91 78.8256 187.73V175.4C78.8256 175.22 78.9096 175.13 79.0776 175.13H81.0396C81.1836 175.13 81.2796 175.196 81.3276 175.328L83.5236 179.414C83.9796 180.266 84.4896 181.322 85.0536 182.582H85.1256C85.6896 181.322 86.1996 180.266 86.6556 179.414L88.8336 175.328C88.9056 175.196 89.0076 175.13 89.1396 175.13H91.0836C91.2636 175.13 91.3536 175.22 91.3536 175.4V187.73C91.3536 187.91 91.2636 188 91.0836 188H89.4456C89.2776 188 89.1936 187.91 89.1936 187.73V184.112C89.1936 182.696 89.2416 180.812 89.3376 178.46L89.2836 178.442C88.9236 179.222 88.3836 180.332 87.6636 181.772L86.0796 184.85C86.0196 184.982 85.9176 185.048 85.7736 185.048H84.4056C84.2616 185.048 84.1596 184.982 84.0996 184.85L82.5156 181.772C81.7956 180.332 81.2556 179.222 80.8956 178.442L80.8416 178.46C80.9376 180.812 80.9856 182.696 80.9856 184.112V187.73C80.9856 187.91 80.8956 188 80.7156 188ZM97.4259 171.872C97.6419 172.088 97.7499 172.364 97.7499 172.7C97.7499 173.036 97.6419 173.312 97.4259 173.528C97.2099 173.744 96.9339 173.852 96.5979 173.852C96.2619 173.852 95.9859 173.744 95.7699 173.528C95.5539 173.312 95.4459 173.036 95.4459 172.7C95.4459 172.364 95.5539 172.088 95.7699 171.872C95.9859 171.656 96.2619 171.548 96.5979 171.548C96.9339 171.548 97.2099 171.656 97.4259 171.872ZM101.17 171.872C101.398 172.088 101.512 172.364 101.512 172.7C101.512 173.036 101.398 173.312 101.17 173.528C100.954 173.744 100.678 173.852 100.342 173.852C100.006 173.852 99.7299 173.744 99.5139 173.528C99.2979 173.312 99.1899 173.036 99.1899 172.7C99.1899 172.364 99.2979 172.088 99.5139 171.872C99.7299 171.656 100.006 171.548 100.342 171.548C100.678 171.548 100.954 171.656 101.17 171.872ZM96.4899 182.456V186.02H102.268C102.448 186.02 102.538 186.104 102.538 186.272V187.73C102.538 187.91 102.448 188 102.268 188H94.5639C94.3959 188 94.3119 187.91 94.3119 187.73V175.4C94.3119 175.22 94.3959 175.13 94.5639 175.13H102.016C102.196 175.13 102.286 175.22 102.286 175.4V176.858C102.286 177.026 102.196 177.11 102.016 177.11H96.4899V180.476H101.548C101.728 180.476 101.818 180.566 101.818 180.746V182.186C101.818 182.366 101.728 182.456 101.548 182.456H96.4899ZM105.111 175.13H109.665C111.081 175.13 112.185 175.52 112.977 176.3C113.781 177.08 114.183 178.154 114.183 179.522C114.183 180.914 113.781 182 112.977 182.78C112.185 183.548 111.081 183.932 109.665 183.932H107.019V187.73C107.019 187.91 106.935 188 106.767 188H105.111C104.943 188 104.859 187.91 104.859 187.73V175.4C104.859 175.22 104.943 175.13 105.111 175.13ZM107.019 181.916H109.413C110.289 181.916 110.931 181.724 111.339 181.34C111.759 180.944 111.969 180.338 111.969 179.522C111.969 178.706 111.759 178.106 111.339 177.722C110.931 177.338 110.289 177.146 109.413 177.146H107.019V181.916ZM118.14 188H116.484C116.316 188 116.232 187.91 116.232 187.73V175.4C116.232 175.22 116.316 175.13 116.484 175.13H118.14C118.308 175.13 118.392 175.22 118.392 175.4V180.62L122.892 175.292C123 175.184 123.108 175.13 123.216 175.13H125.322C125.442 175.13 125.514 175.166 125.538 175.238C125.574 175.298 125.556 175.37 125.484 175.454L120.714 180.872L125.88 187.676C125.952 187.772 125.97 187.85 125.934 187.91C125.898 187.97 125.826 188 125.718 188H123.612C123.456 188 123.348 187.946 123.288 187.838L119.292 182.456L118.392 183.428V187.73C118.392 187.91 118.308 188 118.14 188ZM136.951 188H135.313C135.145 188 135.061 187.91 135.061 187.73V183.608C135.061 182.168 135.115 180.518 135.223 178.658L135.169 178.64C134.593 179.864 133.951 181.046 133.243 182.186L129.841 187.82C129.769 187.94 129.667 188 129.535 188H127.717C127.537 188 127.447 187.91 127.447 187.73V175.4C127.447 175.22 127.537 175.13 127.717 175.13H129.337C129.517 175.13 129.607 175.22 129.607 175.4V179.792C129.607 181.52 129.553 183.146 129.445 184.67L129.499 184.688C129.835 184.052 130.435 182.966 131.299 181.43L134.809 175.31C134.893 175.19 135.001 175.13 135.133 175.13H136.951C137.119 175.13 137.203 175.22 137.203 175.4V187.73C137.203 187.91 137.119 188 136.951 188Z" fill="#C1C1C1" class="QMKZuBwu_2"></path>
<style data-made-with="vivus-instant">.QMKZuBwu_0{stroke-dasharray:550 552;stroke-dashoffset:551;animation:QMKZuBwu_draw 1920ms ease-in 0ms forwards;}.QMKZuBwu_1{stroke-dasharray:434 436;stroke-dashoffset:435;animation:QMKZuBwu_draw 1920ms ease-in 40ms forwards;}.QMKZuBwu_2{stroke-dasharray:536 538;stroke-dashoffset:537;animation:QMKZuBwu_draw 1920ms ease-in 80ms forwards;}@keyframes QMKZuBwu_draw{100%{stroke-dashoffset:0;}}@keyframes QMKZuBwu_fade{0%{stroke-opacity:1;}89.0909090909091%{stroke-opacity:1;}100%{stroke-opacity:0;}}</style></svg>
