<svg width="50" height="50" viewBox="0 0 50 50" fill="none" xmlns="http://www.w3.org/2000/svg">
<path d="M25.0242 19.0728C23.5643 19.0728 22.1971 19.6392 21.1619 20.6743C20.1316 21.7095 19.5604 23.0767 19.5604 24.5366C19.5604 25.9966 20.1316 27.3638 21.1619 28.3989C22.1971 29.4292 23.5643 30.0005 25.0242 30.0005C26.4842 30.0005 27.8514 29.4292 28.8865 28.3989C29.9168 27.3638 30.4881 25.9966 30.4881 24.5366C30.4881 23.0767 29.9168 21.7095 28.8865 20.6743C28.3809 20.1648 27.7791 19.7609 27.1161 19.4859C26.4531 19.211 25.742 19.0706 25.0242 19.0728V19.0728ZM45.1561 30.5718L41.9627 27.8423C42.1141 26.9146 42.1922 25.9673 42.1922 25.0249C42.1922 24.0825 42.1141 23.1304 41.9627 22.2075L45.1561 19.478C45.3973 19.2715 45.5699 18.9965 45.6511 18.6894C45.7322 18.3824 45.7179 18.058 45.6102 17.7593L45.5662 17.6323C44.6874 15.1748 43.3705 12.8968 41.6795 10.9087L41.5916 10.8062C41.3863 10.5647 41.1126 10.3911 40.8066 10.3083C40.5007 10.2255 40.1768 10.2374 39.8777 10.3423L35.9129 11.7534C34.4481 10.5522 32.8172 9.60498 31.0496 8.9458L30.283 4.80029C30.2252 4.488 30.0737 4.2007 29.8487 3.97655C29.6237 3.75241 29.3358 3.60203 29.0233 3.54541L28.8914 3.521C26.3524 3.06201 23.6766 3.06201 21.1375 3.521L21.0057 3.54541C20.6932 3.60203 20.4053 3.75241 20.1802 3.97655C19.9552 4.2007 19.8037 4.488 19.7459 4.80029L18.9744 8.96533C17.2236 9.62977 15.5926 10.5747 14.1453 11.7632L10.1512 10.3423C9.85218 10.2365 9.52809 10.2243 9.22195 10.3071C8.91582 10.39 8.64215 10.564 8.43731 10.8062L8.34942 10.9087C6.66139 12.8989 5.34488 15.1763 4.4627 17.6323L4.41876 17.7593C4.19903 18.3696 4.37969 19.0532 4.87286 19.478L8.10528 22.2368C7.95391 23.1548 7.88067 24.0923 7.88067 25.02C7.88067 25.9575 7.95391 26.895 8.10528 27.8032L4.88262 30.562C4.64139 30.7685 4.46874 31.0436 4.38762 31.3506C4.30651 31.6576 4.32077 31.982 4.42852 32.2808L4.47247 32.4077C5.35626 34.8638 6.65997 37.1343 8.35919 39.1314L8.44708 39.2339C8.65242 39.4753 8.9261 39.6489 9.23205 39.7317C9.538 39.8145 9.86186 39.8027 10.1609 39.6978L14.1551 38.2769C15.6102 39.4731 17.2313 40.4204 18.9842 41.0747L19.7557 45.2397C19.8135 45.552 19.965 45.8393 20.19 46.0635C20.415 46.2876 20.7029 46.438 21.0154 46.4946L21.1473 46.519C23.7113 46.9805 26.3371 46.9805 28.9012 46.519L29.033 46.4946C29.3455 46.438 29.6334 46.2876 29.8584 46.0635C30.0835 45.8393 30.2349 45.552 30.2928 45.2397L31.0594 41.0942C32.827 40.4302 34.4578 39.4878 35.9227 38.2866L39.8875 39.6978C40.1865 39.8035 40.5106 39.8158 40.8167 39.7329C41.1229 39.6501 41.3965 39.476 41.6014 39.2339L41.6893 39.1314C43.3885 37.1245 44.6922 34.8638 45.576 32.4077L45.6199 32.2808C45.8299 31.6753 45.6492 30.9966 45.1561 30.5718ZM25.0242 33.1206C20.283 33.1206 16.4402 29.2778 16.4402 24.5366C16.4402 19.7954 20.283 15.9526 25.0242 15.9526C29.7654 15.9526 33.6082 19.7954 33.6082 24.5366C33.6082 29.2778 29.7654 33.1206 25.0242 33.1206Z" fill="white"/>
</svg>
