<svg width="91" height="534" viewBox="0 0 91 534" fill="none" xmlns="http://www.w3.org/2000/svg">
<path opacity="0.2" d="M84.8728 526.304C84.8728 530.09 81.7142 532.25 80.1349 532.856C78.3126 532.856 72.1897 532.856 62.2765 532.856C49.8849 532.856 44.4181 533.584 43.3247 531.764C42.124 529.766 44.4181 530.308 54.2584 523.393C64.0987 516.477 66.5731 512.109 65.8442 508.833C65.1153 505.557 65.1153 504.101 65.8442 500.097C66.5731 496.093 61.1831 480.442 57.903 472.434C54.6229 464.426 46.9693 426.936 46.2403 412.012C45.5114 397.089 49.5205 392.357 50.9783 387.989C52.4361 383.621 40.409 304.272 39.3157 286.8C38.2223 269.329 42.303 236.779 46.9693 222.374C50.9783 209.999 47.6982 158.676 42.9602 160.86C38.2223 163.044 31.9536 182.409 33.1199 187.068C34.5777 192.891 33.1199 205.631 32.391 211.455C31.6621 217.279 26.1952 232.566 25.8307 236.206C25.4663 239.846 18.1771 259.865 17.0838 262.413C15.9904 264.961 18.1771 268.965 19.2705 272.605C20.1452 275.517 20.3639 281.34 20.3639 283.888C21.0762 285.753 21.7169 291.277 21.8217 292.988C21.9624 295.286 21.4573 299.176 21.0928 299.176C20.8012 299.176 20.3639 299.54 19.9994 298.448C19.635 297.356 19.0518 295.682 18.1771 293.352C17.0838 290.44 14.1681 287.164 12.7103 287.164C11.544 287.164 11.2524 289.348 11.2524 290.076C11.3739 292.017 12.1215 296.992 13.8037 300.632C15.9904 305.364 18.641 310.145 20.7283 311.188C22.9151 312.279 23.2795 315.555 22.5506 315.919C21.9675 316.211 18.9061 314.342 17.4482 313.371C16.1119 312.279 12.5645 309.222 9.06571 305.728C5.56692 302.233 2.50548 294.808 1.41211 291.532V282.068C1.41211 275.638 1.33923 262.122 1.04766 259.501C0.683202 256.225 2.50549 223.466 3.2344 212.183C3.96332 200.899 9.79462 190.707 9.79462 189.251C9.79462 187.796 9.06571 175.056 9.79462 167.412C10.3778 161.297 14.897 146.665 17.0838 140.113C17.0838 139.142 17.0838 134.872 17.0838 125.554C17.0838 113.906 18.1771 105.534 22.9151 97.1626C26.7054 90.4652 34.5777 86.9709 44.7825 85.151C49.399 82.4817 63.533 79.4661 69.2011 73.1394C75.3969 66.2236 76.1258 64.0397 74.668 62.9477C73.2102 61.8557 72.4813 61.1277 71.7523 59.6718C71.0234 58.2158 71.0234 55.6679 70.2945 54.212C69.5656 52.756 66.2855 45.8402 65.5566 42.2004C64.9734 39.2885 64.8277 32.3727 67.0144 34.5566C66.6499 30.1888 67.0873 19.7787 68.8367 13.0813C70.4985 6.71938 86.3328 0.806658 90.7063 1.00485" stroke="white" stroke-width="2"/>
</svg>
