<svg width="75" height="537" viewBox="0 0 75 537" fill="none" xmlns="http://www.w3.org/2000/svg">
<path opacity="0.2" d="M74.7022 1.02642C63.8435 0.583144 58.1125 5.82853 56.6044 8.50663C54.493 6.29027 53.3085 5.70976 50.8955 5.70976C48.965 5.70976 47.0527 7.4908 46.6505 8.50663C45.5446 7.6755 43.9579 6.26385 41.2212 4.62802C38.4844 2.99218 36.0714 3.26922 35.1885 3.79688C34.3057 4.32454 30.1425 7.00217 27.9494 9.89187C24.0256 15.0619 22.2868 19.6671 24.3298 25.6834C25.6129 29.462 30.6862 33.9683 30.6862 33.9683C30.6862 33.9683 40.3384 46.4354 38.8081 50.8945C37.2779 55.3537 34.3842 55.6043 31.569 55.8813C33.3788 56.4354 33.982 56.9895 38.2049 56.4354C42.4277 55.8813 44.5391 51.7256 45.7456 46.7388C46.7109 42.7494 44.2154 40.9473 42.1261 39.2586C40.0367 37.5699 40.9195 33.7442 41.5228 33.1636C42.1261 32.5831 45.1424 28.4539 46.9522 26.5146C48.4 24.9631 46.9522 21.8048 46.9522 21.8048C46.9522 21.8048 47.4951 22.4143 49.6669 22.6359C51.8386 22.8575 49.9906 35.9076 49.9906 35.9076C49.9906 35.9076 48.784 34.5224 48.1587 35.1029C47.5333 35.6834 49.4255 48.4565 52.0799 49.7863C54.7343 51.1161 52.0014 49.9446 52.102 49.7599C52.102 51.5145 58.7158 60.314 58.7158 60.314L62.0337 66.686C62.0337 66.686 61.7321 75.8285 41.2212 81.3694C34.7864 83.3087 20.8912 89.5145 16.789 98.8232C15.2809 105.842 12.0836 123.536 11.3597 138.164C10.4548 156.449 4.42215 199.113 3.81889 215.182C3.21563 231.251 5.62868 250.09 4.42215 255.354C3.21563 260.617 -0.157451 268.745 1.40584 277.24C2.78525 284.736 6.53357 292.478 10.1531 294.971C13.0488 296.966 14.1749 297.834 14.376 298.018C15.6046 297.161 14.3157 293.586 12.8678 291.369C11.058 288.599 8.87113 286.064 8.94662 282.227C8.98587 280.232 10.1531 277.24 10.1531 277.24C10.1531 277.24 12.3852 277.406 12.8678 280.288C13.3504 283.169 13.1915 287.187 13.4711 288.045C13.7506 288.902 13.8934 288.931 14.376 289.153C14.9792 289.43 16.789 288.045 16.789 285.551C16.789 283.058 16.9985 276.261 16.789 270.314C16.4949 261.962 14.6776 252.306 14.9792 248.982C15.2809 245.657 17.9956 228.203 20.4086 220.446C22.8217 212.689 29.4576 189.694 29.1559 183.322C28.8543 176.95 31.569 155.34 32.7755 151.462C33.7407 148.359 34.7864 145.367 35.1885 144.259C38.3054 151.277 44.1168 168.361 42.4277 180.551C40.3163 195.789 30.9973 209.479 27.0445 228.757C21.2843 256.851 17.2113 273.084 23.7266 301.897C25.1342 310.393 29.0353 330.1 33.3788 340.96C35.7918 346.04 40.7989 359.799 41.5228 374.206C42.1261 378.639 43.0913 388.391 42.1261 391.937C38.607 397.662 33.2581 414.322 40.0146 435.156C44.6397 450.578 54.1913 483.361 55.3978 491.119C56.906 500.815 58.1431 500.86 57.8109 507.187C57.6737 509.801 56.6146 511.233 56.906 513.836C57.0667 515.272 57.8109 517.438 57.8109 517.438C57.8109 517.438 50.2701 525.583 47.8571 527.135C44.8408 529.074 42.1261 530.459 41.5228 532.953C41.0402 534.947 41.3217 535.815 41.5228 536L69.8982 535.974" stroke="white" stroke-width="2"/>
</svg>
