<?xml version="1.0" standalone="no"?>
<!DOCTYPE svg PUBLIC "-//W3C//DTD SVG 1.1//EN" "http://www.w3.org/Graphics/SVG/1.1/DTD/svg11.dtd" >
<svg xmlns="http://www.w3.org/2000/svg">
<metadata>
<json>
<![CDATA[
{
	"fontFamily": "newbarbershopicons",
	"majorVersion": 1,
	"minorVersion": 0,
	"description": "Font generated by IcoMoon.",
	"version": "Version 1.0",
	"fontId": "newbarbershopicons",
	"psName": "newbarbershopicons",
	"subFamily": "Regular",
	"fullName": "newbarbershopicons"
}
]]>
</json>
</metadata>
<defs>
<font id="newbarbershopicons" horiz-adv-x="1024">
<font-face units-per-em="1024" ascent="960" descent="-64" />
<missing-glyph horiz-adv-x="1024" />
<glyph unicode="&#x20;" horiz-adv-x="512" d="" />
<glyph unicode="&#xe900;" glyph-name="updown" data-tags="updown" horiz-adv-x="725" d="M362.523 959.912l362.477-356.558-80.526-79.19-215.535 212.020v-577.525h-113.912v596.043l-234.456-230.493-80.57 79.19 362.524 356.514zM362.523-63.912l362.477 356.558-80.526 79.191-215.535-212.021v577.525h-113.912v-596.043l-234.456 230.494-80.571-79.191 362.524-356.514z" />
<glyph unicode="&#xe901;" glyph-name="ban" data-tags="ban" d="M512 960c-282.309 0-512-229.671-512-512s229.691-512 512-512c282.309 0 512 229.671 512 512s-229.691 512-512 512zM512-24.619c-260.588 0-472.615 212.030-472.615 472.619s212.027 472.615 472.615 472.615c260.588 0 472.619-212.027 472.619-472.615s-212.030-472.619-472.619-472.619zM703.149 639.142c-7.7 7.7-20.145 7.7-27.844 0l-163.308-163.309-163.308 163.309c-7.7 7.7-20.145 7.7-27.844 0s-7.7-20.145 0-27.845l163.308-163.309-163.308-163.309c-7.7-7.7-7.7-20.145 0-27.845 3.84-3.84 8.881-5.769 13.922-5.769s10.083 1.929 13.922 5.769l163.308 163.309 163.308-163.309c3.84-3.84 8.881-5.769 13.922-5.769s10.082 1.929 13.922 5.769c7.7 7.7 7.7 20.145 0 27.845l-163.307 163.309 163.307 163.309c7.7 7.7 7.7 20.145 0 27.845z" />
<glyph unicode="&#xe902;" glyph-name="leftright" data-tags="leftright" horiz-adv-x="1446" d="M0 448.031l503.586 511.948 111.844-113.732-299.447-304.415h815.67v-160.883h-841.823l325.538-331.135-111.844-113.794-503.523 512.012zM1445.999 448.031l-503.586 511.948-111.846-113.732 299.449-304.415h-815.67v-160.883h841.823l-325.539-331.135 111.846-113.794 503.523 512.012z" />
<glyph unicode="&#xe903;" glyph-name="palette" data-tags="palette" d="M987.412 795.4h-950.842c-20.196 0-36.571-16.374-36.571-36.577v-621.709c0-20.193 16.374-36.567 36.571-36.567h950.86c20.196 0 36.57 16.374 36.57 36.567v621.709c-0.015 20.203-16.389 36.577-36.588 36.577zM138.276 154.258c-41.034 0-74.278 33.267-74.278 74.278s33.26 74.278 74.278 74.278c41.011 0 74.297-33.267 74.297-74.278s-33.26-74.278-74.297-74.278zM138.276 373.693c-41.034 0-74.278 33.249-74.278 74.276 0 41.021 33.26 74.281 74.278 74.281 41.011 0 74.297-33.26 74.297-74.281 0-41.024-33.26-74.276-74.297-74.276zM138.276 593.111c-41.034 0-74.297 33.26-74.297 74.276 0 41.012 33.26 74.272 74.297 74.272s74.271-33.26 74.271-74.272c0-41.016-33.234-74.276-74.271-74.276zM321.132 154.258c-41.037 0-74.28 33.267-74.28 74.278s33.258 74.278 74.28 74.278c41.021 0 74.278-33.267 74.278-74.278s-33.239-74.278-74.278-74.278zM321.132 373.693c-41.037 0-74.28 33.249-74.28 74.276 0 41.021 33.258 74.281 74.28 74.281s74.278-33.26 74.278-74.281c0-41.024-33.239-74.276-74.278-74.276zM321.132 593.111c-41.037 0-74.28 33.26-74.28 74.276 0 41.012 33.258 74.272 74.28 74.272s74.278-33.26 74.278-74.272c0-41.016-33.239-74.276-74.278-74.276zM504 154.258c-41.039 0-74.281 33.267-74.281 74.278s33.26 74.278 74.281 74.278c41.011 0 74.276-33.267 74.276-74.278s-33.265-74.278-74.276-74.278zM504 373.693c-41.039 0-74.281 33.249-74.281 74.276 0 41.021 33.26 74.281 74.281 74.281 41.011 0 74.276-33.26 74.276-74.281 0-41.024-33.265-74.276-74.276-74.276zM504 593.111c-41.039 0-74.281 33.26-74.281 74.276 0 41.012 33.26 74.272 74.281 74.272 41.011 0 74.276-33.26 74.276-74.272 0-41.016-33.265-74.276-74.276-74.276zM686.845 154.258c-41.027 0-74.276 33.267-74.276 74.278s33.265 74.278 74.276 74.278c41.029 0 74.314-33.267 74.314-74.278s-33.285-74.278-74.314-74.278zM612.57 447.974c0 41.037 33.249 74.281 74.276 74.281 41.011 0 74.278-33.262 74.278-74.281 0-41.029-33.267-74.278-74.278-74.278-41.027-0.003-74.276 33.249-74.276 74.278zM686.845 593.111c-41.027 0-74.276 33.26-74.276 74.276 0 41.012 33.265 74.272 74.276 74.272 41.029 0 74.314-33.26 74.314-74.272 0-41.016-33.285-74.276-74.314-74.276zM959.995 195.018c0-20.193-23.462-36.572-52.419-36.572h-26.214c-28.946 0-52.396 16.379-52.396 36.572v499.807c0 20.203 23.447 36.58 52.396 36.58h26.214c28.956 0 52.419-16.377 52.419-36.58v-499.807zM929.999 637.279c-18.099 59.855-24.737 50.796-27.085 67.322-0.737 5.421-19.656 5.405-20.009-0.084-0.973-14.834-8.535-21.496-20.749-50.498-13.458-31.921-10.962-56.684 0-67.389h-3.904v-143.38c-2.985-2.849-4.877-6.835-4.877-11.295v-238.894h82.22v238.894c0 4.475-1.91 8.445-4.892 11.295v142.674c6.131 7.309 8.097 22.241-0.704 51.356zM913.541 458.926h-38.126v110.559h38.126v-110.559zM138.283 724.55c-31.489 0-57.133-25.624-57.133-57.117s25.625-57.116 57.133-57.116c31.492 0 57.111 25.623 57.111 57.116 0.026 31.493-25.602 57.117-57.111 57.117zM686.838 724.55c-31.475 0-57.114-25.624-57.114-57.117s25.641-57.116 57.114-57.116c31.506 0 57.149 25.623 57.149 57.116-0.031 31.493-25.644 57.117-57.149 57.117zM504.018 505.101c-31.493 0-57.119-25.628-57.119-57.119 0-31.488 25.626-57.114 57.119-57.114 31.488 0 57.114 25.626 57.114 57.114 0 31.491-25.626 57.119-57.114 57.119zM321.142 285.65c-31.493 0-57.116-25.628-57.116-57.116 0-31.491 25.623-57.114 57.116-57.114 31.491 0 57.116 25.623 57.116 57.114 0 31.488-25.623 57.116-57.116 57.116zM686.838 285.65c-31.475 0-57.114-25.628-57.114-57.116 0-31.491 25.641-57.114 57.114-57.114 31.506 0 57.149 25.623 57.149 57.114 0 31.488-25.644 57.116-57.149 57.116z" />
<glyph unicode="&#xe904;" glyph-name="makeup" data-tags="makeup" d="M511.99 383.639c-23.547 0-46.367 3.067-68.352 8.261-12.234-1.853-21.637-12.314-21.637-25.050 0-10.145 5.972-18.816 14.546-22.899 24.264 3.871 49.446 6.113 75.459 6.113 26.017 0 51.182-2.26 75.461-6.113 8.571 4.099 14.541 12.787 14.541 22.899 0 12.754-9.411 23.214-21.624 25.050-22.016-5.194-44.836-8.261-68.393-8.261zM512.003-63.98c169.969 0 307.756 88.937 307.756 198.638 0 92.493-98.081 169.984-230.671 192.118-22.244 3.702-45.396 5.885-69.294 6.264-2.616 0.067-5.174 0.259-7.79 0.259-2.614 0-5.187-0.228-7.788-0.259-23.908-0.376-47.055-2.563-69.294-6.264-132.593-22.131-230.671-99.625-230.671-192.118 0-109.701 137.789-198.638 307.752-198.638zM512.003 298.775c141.985 0 257.098-74.296 257.098-165.934 0-91.64-115.113-128.722-257.098-128.722-141.983 0-257.089 37.082-257.089 128.722 0 91.638 115.106 165.934 257.089 165.934zM512.015 37.693c52.426 0 223.524 6.866 223.524 95.148 0 71.752-102.359 132.36-223.524 132.36s-223.516-60.608-223.516-132.36c0-88.282 171.092-95.148 223.516-95.148zM445.028 408.835c19.909-4.9 40.614-7.767 61.949-8.146 1.687-0.033 3.338-0.261 5.033-0.261 1.697 0 3.348 0.228 5.036 0.261 21.34 0.379 42.030 3.246 61.947 8.146 122.115 30.052 212.805 139.983 212.805 271.378 0 154.525-125.263 279.788-279.788 279.788s-279.785-125.262-279.785-279.788c0-131.395 90.696-241.311 212.803-271.378zM512.010 898.040c120.084 0 217.82-97.722 217.82-217.81 0-120.11-97.702-217.828-217.82-217.828-120.108 0-217.825 97.718-217.825 217.828 0 120.088 97.738 217.81 217.825 217.81zM560.087 741.283c14.587 17.9 26.296 37.354 35.54 58.509 6.426 14.721-15.276 27.566-21.734 12.705-8.33-19.017-18.46-37.278-31.608-53.412-10.202-12.455 7.521-30.39 17.802-17.802zM598.415 707.432c14.789 24.428 23.836 51.37 32.064 78.543 4.705 15.582-19.602 22.196-24.294 6.705-7.588-25.182-15.8-49.91-29.507-72.54-8.425-13.936 13.345-26.577 21.737-12.708z" />
<glyph unicode="&#xe905;" glyph-name="lips" data-tags="lips" d="M298.675 63.982c0.038-33.935 13.535-66.47 37.532-90.468 23.997-23.995 56.532-37.494 90.468-37.532h170.668c33.935 0.038 66.47 13.537 90.465 37.532 23.997 23.997 37.496 56.532 37.535 90.468v42.668h-426.668v-42.668zM682.675 448h-341.332c-11.318 0-22.17-4.495-30.172-12.498-8-8-12.495-18.852-12.495-30.17v-213.332h426.668v213.332c0 11.318-4.495 22.17-12.498 30.17-8.003 8.003-18.854 12.498-30.17 12.498zM682.657 575.982c0 11.318-4.495 22.17-12.495 30.172-8.003 8-18.854 12.495-30.17 12.495h-256c-11.318 0-22.17-4.495-30.17-12.495-8.003-8.003-12.498-18.854-12.498-30.172v-85.332h341.332v85.332zM640 869.622c0 14.545-3.72 28.848-10.803 41.552s-17.295 23.386-29.668 31.032c-12.372 7.647-26.496 12.004-41.027 12.657s-28.987-2.417-41.994-8.921l-85.335-42.667c-14.208-7.044-26.158-17.927-34.496-31.417s-12.728-29.045-12.677-44.903v-165.631h256v208.297z" />
<glyph unicode="&#xe906;" glyph-name="eyes" data-tags="eyes" d="M222.374 631.649c-122.617 0-222.374-99.756-222.374-222.362 0-122.609 99.757-222.387 222.374-222.387s222.385 99.779 222.385 222.387c0 122.627-99.768 222.362-222.385 222.362zM222.374 268.836c-77.444 0-140.44 62.996-140.44 140.439 0 77.445 63.007 140.442 140.44 140.442 77.443 0 140.452-63.020 140.452-140.442 0-77.443-63.009-140.439-140.452-140.439zM131.675 480.090c-30.416-39.442-27.812-93.906 3.537-130.173-11.124 37.038-4.951 78.697 20.47 111.642 25.432 32.957 64.154 49.482 102.811 48.11-43.030 21.135-96.391 9.828-126.818-29.578zM801.636 631.649c-122.619 0-222.385-99.756-222.385-222.374 0-122.616 99.766-222.385 222.385-222.385 122.616 0 222.374 99.779 222.374 222.385 0 122.639-99.758 222.374-222.374 222.374zM801.636 268.836c-77.455 0-140.452 62.996-140.452 140.439 0 77.445 63.007 140.442 140.452 140.442 77.443 0 140.429-63.007 140.429-140.429 0-77.455-62.986-140.452-140.429-140.452zM765.499 509.66c38.659 1.372 77.391-15.153 102.822-48.11 25.434-32.945 31.585-74.614 20.47-111.642 31.34 36.278 33.953 90.744 3.528 130.173-30.428 39.419-83.789 50.724-126.82 29.578z" />
<glyph unicode="&#xe907;" glyph-name="body" data-tags="body" d="M973.809 494.336c-2.097 3.983-2.65 8.599-1.554 12.964l18.286 73.142c13.238 53.030 10.368 216.394-170.368 270.63-133.796 40.046-183.662 81.627-201.49 102.839-5.693 4.007-12.495 6.136-19.456 6.089h-174.446c-6.973 0.045-13.783-2.097-19.474-6.126-17.792-21.175-67.658-62.756-201.473-102.82-180.736-54.217-183.607-217.599-170.35-270.629l18.286-73.142c1.075-4.37 0.516-8.98-1.573-12.964-48.412-108.383-62.451-228.997-40.229-345.6 1.3-7.923 7.524-14.126 15.451-15.398l76.105-10.788c8.036-1.213 15.894 3.090 19.2 10.514 25.985 57.157 48.642 115.768 67.858 175.544-1.152 6.546-2.341 13.146-3.657 20.242-6.51 35.968-14.628 80.75-22.802 153.8-19.054 171.338 74.386 266.972 78.373 270.958 7.165 6.941 18.57 6.858 25.635-0.186 7.063-7.044 7.178-18.449 0.256-25.634-1.114-1.134-84.918-88.193-67.93-241.097 8.046-71.79 16.037-115.896 22.455-151.332 1.573-8.686 3.072-16.896 4.462-24.942 6.841-39.089 10.115-78.72 9.783-118.4 0.626-54.531-2.122-109.046-8.229-163.238-1.426-14.902-3.072-32.036-4.955-52.68-0.955-10.258 2.448-20.447 9.377-28.070 6.929-7.626 16.745-11.986 27.048-12.012h507.246c10.296 0.033 20.104 4.39 27.028 12.012 6.925 7.619 10.327 17.8 9.377 28.052-1.828 20.68-3.546 37.832-4.974 52.736-6.095 54.177-8.845 108.682-8.228 163.2-0.325 39.601 2.936 79.15 9.746 118.162 1.426 8.228 2.926 16.456 4.498 25.234 6.42 35.42 14.41 79.488 22.438 151.204 17.134 154.040-67.054 240.184-67.896 241.043-6.93 7.175-6.83 18.58 0.223 25.633 7.055 7.053 18.46 7.153 25.633 0.223 3.986-3.986 97.426-99.621 78.392-270.939-8.174-72.978-16.274-117.724-22.802-153.6-1.28-7.096-2.47-13.752-3.658-20.37 19.213-59.75 41.884-118.333 67.894-175.452 3.244-7.468 11.092-11.83 19.146-10.642l76.178 10.806c7.941 1.27 14.18 7.48 15.488 15.416 22.216 116.618 8.143 237.243-40.32 345.618zM588.803 824.685c6.060 8.079 17.521 9.716 25.6 3.657 26.258-18.741 61.517-18.741 87.772 0 8.079 6.060 19.54 4.422 25.6-3.657s4.421-19.541-3.658-25.6c-19.779-14.037-43.4-21.647-67.656-21.796-23.155-0.008-45.663 7.657-64 21.796-3.881 2.91-6.446 7.242-7.13 12.043-0.686 4.801 0.563 9.678 3.471 13.558zM731.433 539.428c0-10.099-8.187-18.286-18.286-18.286h-36.572c-10.099 0-18.286 8.187-18.286 18.286s8.187 18.286 18.286 18.286h36.572c10.099 0 18.286-8.187 18.286-18.286zM296.233 824.685c6.060 8.079 17.521 9.716 25.6 3.657 26.225-18.836 61.545-18.836 87.77 0 5.228 3.92 12.147 4.754 18.156 2.187s10.189-8.143 10.972-14.629c0.781-6.486-1.958-12.896-7.183-16.816-18.342-14.132-40.845-21.796-64-21.796-24.256 0.149-47.877 7.759-67.658 21.796-3.878 2.91-6.444 7.242-7.13 12.043s0.563 9.678 3.474 13.558zM310.861 557.714h36.572c10.099 0 18.284-8.187 18.284-18.286s-8.184-18.286-18.284-18.286h-36.572c-10.099 0-18.286 8.187-18.286 18.286s8.187 18.286 18.286 18.286zM267.615 480.42c53.028-43.52 106.678-43.538 159.616 0 5.051 4.147 11.93 5.286 18.048 2.988 6.116-2.299 10.542-7.688 11.61-14.134 1.068-6.449-1.385-12.974-6.436-17.124-28.46-25.334-64.934-39.828-103.020-40.942-38.085 1.108-74.56 15.598-103.023 40.924l23.204 28.288zM586.427 155.428h23.57c20.511-0.52 39.767 9.843 50.632 27.246 4.948 8.806 16.1 11.932 24.906 6.984s11.935-16.097 6.986-24.904c-17.231-29.051-48.758-46.584-82.524-45.898h-23.57c-20.088-0.013-39.69 6.167-56.138 17.702v-42.972c2.486-28.618 27.487-49.938 56.138-47.872h23.57c20.511-0.52 39.767 9.843 50.632 27.246 4.948 8.806 16.1 11.932 24.906 6.984s11.935-16.097 6.986-24.904c-17.231-29.051-48.758-46.584-82.524-45.898h-23.57c-28.749-0.269-56.087 12.434-74.424 34.578-18.335-22.144-45.673-34.847-74.422-34.578h-23.57c-33.769-0.686-65.295 16.847-82.524 45.898-3.2 5.696-3.121 12.667 0.212 18.289 3.333 5.619 9.411 9.037 15.946 8.96 6.533-0.077 12.531-3.633 15.731-9.329 10.867-17.403 30.124-27.766 50.634-27.246h23.57c28.652-2.066 53.652 19.254 56.136 47.872v42.972c-16.445-11.535-36.047-17.715-56.136-17.702h-23.57c-33.769-0.686-65.295 16.847-82.524 45.898-3.2 5.696-3.121 12.667 0.212 18.289 3.333 5.619 9.411 9.037 15.946 8.96 6.533-0.077 12.531-3.633 15.731-9.329 10.867-17.403 30.124-27.766 50.634-27.246h23.57c28.652-2.066 53.652 19.254 56.136 47.872v42.972c-16.445-11.535-36.047-17.715-56.136-17.702h-23.57c-33.769-0.686-65.295 16.847-82.524 45.898-3.2 5.696-3.121 12.669 0.212 18.289 3.333 5.622 9.411 9.037 15.946 8.96 6.533-0.077 12.531-3.633 15.731-9.329 10.867-17.403 30.124-27.766 50.634-27.246h23.57c28.652-2.066 53.652 19.254 56.136 47.872v61.842c0 10.099 8.187 18.286 18.286 18.286s18.286-8.187 18.286-18.286v-61.842c2.486-28.618 27.487-49.938 56.138-47.872h23.57c20.511-0.52 39.767 9.843 50.632 27.246 4.948 8.806 16.1 11.935 24.906 6.986s11.935-16.1 6.986-24.906c-17.231-29.051-48.758-46.584-82.524-45.898h-23.57c-20.088-0.013-39.69 6.167-56.138 17.702v-42.972c2.486-28.618 27.487-49.938 56.138-47.872zM756.372 480.402c7.808 6.413 19.336 5.284 25.748-2.524 6.413-7.805 5.281-19.333-2.524-25.746-28.462-25.326-64.94-39.816-103.022-40.924-38.083 1.108-74.56 15.598-103.022 40.924l23.204 28.288c52.956-43.52 106.68-43.538 159.616-0.018z" />
<glyph unicode="&#xe908;" glyph-name="eyebrows" data-tags="eyebrows" d="M1020.833 581.030c-135.247 270.494-430.651 277.048-567.923 242.73l-430.145-107.035c-17.162-4.27-26.892-22.374-21.076-39.012l42.96-122.89c15.732-46.797 66.395-72.484 113.765-56.696 0.28 0.095 0.558 0.189 0.836 0.292l321.398 117.791c165.138 60.524 354.947 32.707 495.35-72.596 11.128-8.348 26.54-7.946 37.222 0.968 10.683 8.916 13.834 24.005 7.613 36.449zM913.999 411.599c-47.322-28.314-127.414-116.82-263.137-155.54-0.31-0.069-0.62-0.108-0.929-0.184-1.070-0.269-2.107-0.596-3.118-0.97-38.81-10.698-82.115-17.306-130.435-17.306-165.663 0-257.533 77.028-350.957 116.833-14.82 7.406-32.84 1.4-40.25-13.417-7.41-14.82-1.402-32.84 13.416-40.248 14.582-6.157 29.52-13.537 45.086-21.581l-48.706-73.060c-9.19-13.786-5.464-32.412 8.322-41.6 13.744-9.165 32.381-5.509 41.602 8.32l52.265 78.395c28.503-14.587 59.55-29.338 94.392-41.772l-22.377-89.503c-4.017-16.074 5.755-32.364 21.829-36.38 16.028-4.004 32.348 5.706 36.378 21.827l21.727 86.907c28.454-6.802 59.282-11.689 92.918-13.699v-91.021c0-16.568 13.409-30.001 29.978-30.001s29.998 13.432 29.998 30.001v90.624c31.421 1.477 62.659 5.655 93.32 12.401l21.847-87.386c4.045-16.172 20.406-25.823 36.38-21.827 16.074 4.017 25.846 20.306 21.829 36.378l-22.205 88.822c32.986 11.049 64.94 25.162 95.342 42.132l50.819-76.229c9.231-13.847 27.878-17.469 41.6-8.317 13.786 9.188 17.513 27.814 8.323 41.6l-49.994 74.993c11.763 8.361 8.44 6.177 110.74 82.803 13.253 9.943 15.941 28.746 5.998 41.999-9.938 13.258-28.741 15.946-41.999 6.006z" />
<glyph unicode="&#xe909;" glyph-name="beard" data-tags="beard" d="M980.582 804.277l-60.001-30c-10.166-5.098-16.581-15.468-16.581-26.836v-45.176c0-179.503-127.391-348.253-280.965-440.39-28.708-17.257-66.386-11.251-89.531 12.567-11.251 11.602-31.757 11.602-43.008 0-23.117-23.818-60.731-29.88-89.531-12.567-153.575 92.137-280.965 260.887-280.965 440.39v45.176c0 11.368-6.416 21.738-16.582 26.836l-60 30c-20.174 10.056-43.418-4.786-43.418-26.836v-135.176c0-287.666 226.238-539.678 504.381-612.802 2.491-0.673 5.041-0.996 7.619-0.996s5.125 0.323 7.619 0.996c278.144 73.124 504.381 325.135 504.381 612.802v135.176c0 22.038-23.291 36.928-43.418 26.836zM678.812 688.592c59.287 7.078 103.188 59.534 103.188 119.242v29.666c0 16.582-13.42 30-30.001 30s-30.001-13.418-30.001-30c0-16.552-13.448-30-30.001-30-8.73 0-14.999 3.574-18.752 6.562-44.762 35.948-87.859 53.438-131.804 53.438h-58.888c-43.945 0-87.040-17.49-131.807-53.438-3.748-2.988-10.017-6.562-18.747-6.562-16.553 0-30.001 13.448-30.001 30 0 16.582-13.42 30-30.001 30s-30-13.418-30-30v-29.666c0-59.708 43.901-112.164 103.188-119.242 44.132-5.27 80.333 8.614 113.257 41.096 8.732 8.614 27.366 17.812 53.555 17.812s44.823-9.2 53.555-17.812c32.924-32.482 69.125-46.366 113.257-41.096zM464 523.505l-38.994-51.973c-23.875-31.816-23.875-76.229 0-108.019l30.428-40.576c15.78 12.723 35.709 20.216 56.556 20.216s40.773-7.493 56.561-20.219l30.423 40.55c23.875 31.816 23.875 76.229 0 108.017l-38.966 52.004c-22.912 30.528-73.155 30.528-96.008 0z" />
<glyph unicode="&#xe90a;" glyph-name="hair" data-tags="hair" d="M104.443 48.056c-30.407 43.21-48.78 131.904-63.984 141.473-15.172 9.636-23.206 94.328-16.004 115.133 7.202 20.741-19.973 58.35-23.974 89.526-4.001 31.178 18.309 60.849 17.604 74.355-0.704 13.476-8.77 103.898 25.574 172.652 18.117 36.233 70.354 93.463 123.903 118.269 47.916 22.214 98.424 13.668 101.499 19.205 6.464 11.715 44.042 84.693 70.351 76.723-36.009-35.177-30.374-75.123-30.374-75.123s120.701 79.924 217.431 75.123c96.696-4.801 290.985-128.672 297.321-132.705 6.369-4.001-14.372 39.978-51.18 87.926 36.777-1.6 95.127-115.101 102.328-121.502s12.004-0.8 0 47.98c24.742-3.201 35.177-70.354 47.98-94.328 12.741-24.006 49.518-24.774 46.349-115.102 55.918-3.2 64.015-167.048 46.346-198.223-7.232-107.131-25.19-151.974-43.146-193.457-17.989-41.482-41.577-95.928-41.577-95.928s5.504 176.781-24.776 306.125c-21.253 90.678-70.034 145.572-107.93 153.477-91.96 19.174-273.349 4.035-294.090-21.573-46.541-16.963-274.405 60.849-321.392 23.974-27.527-21.606-59.599-103.675-59.119-167.849 0.384-45.261 28.775-36.746 30.376-81.526 0.896-24.837-23.398-40.873-36.745-79.956-10.723-31.24-10.659-82.708-12.771-124.669z" />
<glyph unicode="&#xe90b;" glyph-name="stackshare-use" data-tags="stackshare-use" horiz-adv-x="1159" d="M454.347 391.431h-124.759c-13.335-37.733-39.581-69.536-74.098-89.788-34.518-20.252-75.084-27.651-114.527-20.884-39.444 6.764-75.226 27.255-101.021 57.855-25.796 30.597-39.944 69.327-39.944 109.346s14.148 78.75 39.944 109.346c25.796 30.599 61.578 51.091 101.021 57.855 39.444 6.766 80.009-0.63 114.527-20.884 34.516-20.252 60.762-52.055 74.098-89.788h124.759l195.815 339.172h179.196c13.315 37.739 39.545 69.556 74.053 89.825s75.068 27.687 114.516 20.942c39.446-6.745 75.24-27.219 101.050-57.803s39.977-69.307 39.997-109.327c0.023-40.020-14.106-78.758-39.89-109.367-25.78-30.61-61.551-51.119-100.992-57.905-39.44-6.783-80.011 0.594-114.536 20.829-34.528 20.235-60.791 52.026-74.143 89.751h-114.019l-163.142-282.587 163.198-282.701h113.962c13.335 37.733 39.581 69.536 74.098 89.788 34.516 20.254 75.081 27.651 114.524 20.884 39.446-6.764 75.228-27.255 101.022-57.852 25.797-30.599 39.943-69.329 39.943-109.349s-14.146-78.75-39.943-109.346c-25.794-30.599-61.577-51.091-101.022-57.855-39.443-6.766-80.008 0.634-114.524 20.884s-60.762 52.055-74.098 89.788h-179.252l-195.815 339.172z" />
<glyph unicode="&#xe90c;" glyph-name="emotion-use" data-tags="emotion-use" d="M512-64c-282.778 0-512 229.222-512 512s229.222 512 512 512c282.778 0 512-229.222 512-512s-229.222-512-512-512zM256 396.8c0-67.896 26.972-133.010 74.98-181.020 48.010-48.008 113.124-74.98 181.020-74.98s133.010 26.972 181.020 74.98c48.008 48.010 74.98 113.124 74.98 181.020h-102.4c0-40.737-16.182-79.805-44.989-108.611-28.805-28.808-67.873-44.989-108.611-44.989s-79.805 16.182-108.611 44.989c-28.808 28.805-44.989 67.873-44.989 108.611h-102.4zM307.2 499.2c20.367 0 39.903 8.092 54.305 22.495s22.495 33.938 22.495 54.305c0 20.367-8.092 39.903-22.495 54.305s-33.938 22.495-54.305 22.495c-20.367 0-39.903-8.092-54.306-22.495s-22.494-33.938-22.494-54.305c0-20.367 8.091-39.903 22.494-54.305s33.938-22.495 54.306-22.495zM716.8 499.2c20.367 0 39.903 8.092 54.305 22.495s22.495 33.938 22.495 54.305c0 20.367-8.092 39.903-22.495 54.305s-33.938 22.495-54.305 22.495c-20.367 0-39.903-8.092-54.305-22.495s-22.495-33.938-22.495-54.305c0-20.367 8.092-39.903 22.495-54.305s33.938-22.495 54.305-22.495z" />
<glyph unicode="&#xe90d;" glyph-name="shirt-line" data-tags="shirt-line" d="M565.895 43.791h323.368v215.579h-215.579v107.789h215.579v431.157h-107.789v-269.473l-215.579 86.232v-571.284zM458.105 43.791v571.284l-215.579-86.232v269.473h-107.789v-754.525h323.368zM242.527 906.105v53.895h538.947v-53.895h161.684c14.293 0 28-5.678 38.109-15.786s15.786-23.816 15.786-38.109v-862.315c0-14.293-5.678-28-15.786-38.109s-23.816-15.786-38.109-15.786h-862.315c-14.294 0-28.002 5.678-38.109 15.786s-15.786 23.816-15.786 38.109v862.315c0 14.294 5.678 28.002 15.786 38.109s23.816 15.786 38.109 15.786h161.684zM512 690.527l188.631 161.684h-377.263l188.631-161.684z" />
<glyph unicode="&#xe90e;" glyph-name="emotion" data-tags="emotion" d="M512-64c-282.777 0-512 229.223-512 512s229.223 512 512 512c282.777 0 512-229.223 512-512s-229.223-512-512-512zM512 38.401c108.634 0 212.815 43.154 289.631 119.969s119.969 180.997 119.969 289.631c0 108.634-43.154 212.815-119.969 289.631s-180.997 119.97-289.631 119.97c-108.634 0-212.815-43.154-289.631-119.97s-119.969-180.997-119.969-289.631c0-108.634 43.154-212.815 119.969-289.631s180.997-119.969 289.631-119.969zM256.001 396.8h102.4c0-40.738 16.182-79.806 44.989-108.611 28.805-28.807 67.873-44.989 108.611-44.989s79.806 16.182 108.611 44.989c28.807 28.805 44.989 67.873 44.989 108.611h102.4c0-67.896-26.972-133.010-74.98-181.020-48.011-48.007-113.124-74.98-181.020-74.98s-133.010 26.972-181.020 74.98c-48.007 48.011-74.98 113.124-74.98 181.020zM307.2 499.2c-20.368 0-39.902 8.092-54.305 22.495s-22.495 33.938-22.495 54.305c0 20.37 8.092 39.902 22.495 54.305s33.938 22.495 54.305 22.495c20.37 0 39.902-8.092 54.305-22.495s22.495-33.935 22.495-54.305c0-20.368-8.092-39.902-22.495-54.305s-33.935-22.495-54.305-22.495zM716.8 499.2c-20.368 0-39.902 8.092-54.305 22.495s-22.495 33.938-22.495 54.305c0 20.37 8.092 39.902 22.495 54.305s33.938 22.495 54.305 22.495c20.37 0 39.902-8.092 54.305-22.495s22.495-33.935 22.495-54.305c0-20.368-8.092-39.902-22.495-54.305s-33.935-22.495-54.305-22.495z" />
<glyph unicode="&#xe90f;" glyph-name="stackshare" data-tags="stackshare" d="M401.426 398.023h-110.227c-11.783-33.338-34.972-61.436-65.47-79.328-30.495-17.893-66.337-24.429-101.184-18.453s-66.462 24.081-89.254 51.114c-22.79 27.032-35.291 61.251-35.291 96.609s12.501 69.577 35.291 96.611c22.79 27.032 54.405 45.137 89.254 51.112 34.849 5.979 70.689-0.557 101.184-18.453 30.497-17.893 53.685-45.992 65.47-79.328h110.227l173.005 299.665h158.322c11.765 33.345 34.937 61.452 65.426 79.362 30.487 17.907 66.323 24.463 101.178 18.504 34.851-5.959 66.475-24.049 89.279-51.071s35.32-61.235 35.338-96.594c0.019-35.358-12.463-69.582-35.243-96.628-22.778-27.046-54.381-45.163-89.226-51.162-34.847-5.992-70.69 0.525-101.193 18.403-30.506 17.878-53.709 45.966-65.506 79.296h-100.737l-144.139-249.67 144.188-249.771h100.686c11.781 33.338 34.972 61.436 65.466 79.328s66.337 24.429 101.184 18.453c34.851-5.977 66.462-24.081 89.255-51.112 22.791-27.034 35.29-61.254 35.29-96.611s-12.499-69.577-35.29-96.609c-22.791-27.034-54.404-45.139-89.255-51.114-34.849-5.979-70.688 0.56-101.184 18.453s-53.685 45.992-65.466 79.328h-158.373l-173.005 299.665zM874.096 198.247c-13.246 0-25.951-5.261-35.319-14.63-9.364-9.364-14.627-22.069-14.627-35.317s5.261-25.947 14.627-35.317c9.366-9.366 22.069-14.63 35.319-14.63 13.244 0 25.947 5.261 35.317 14.63 9.364 9.366 14.63 22.069 14.63 35.317s-5.263 25.951-14.63 35.317c-9.366 9.366-22.069 14.63-35.317 14.63zM149.908 497.909c-13.245 0-25.948-5.261-35.317-14.63-9.365-9.364-14.63-22.069-14.63-35.317s5.261-25.947 14.63-35.317c9.366-9.366 22.069-14.63 35.317-14.63s25.948 5.261 35.317 14.63c9.364 9.366 14.63 22.069 14.63 35.317s-5.263 25.951-14.63 35.317c-9.366 9.366-22.070 14.63-35.317 14.63zM874.096 797.575c-13.246 0-25.951-5.261-35.319-14.63-9.364-9.364-14.627-22.069-14.627-35.317s5.261-25.947 14.627-35.317c9.366-9.366 22.069-14.63 35.319-14.63 13.244 0 25.947 5.261 35.317 14.63 9.364 9.366 14.63 22.069 14.63 35.317s-5.263 25.951-14.63 35.317c-9.366 9.366-22.069 14.63-35.317 14.63z" />
<glyph unicode="&#xe910;" glyph-name="shirt-line-use" data-tags="shirt-line-use" horiz-adv-x="970" d="M215.579 906.105v-377.263l269.474 134.737 269.474-134.737v377.263h161.684c14.293 0 28.001-5.678 38.109-15.785s15.786-23.816 15.786-38.109v-862.316c0-14.293-5.678-28.001-15.786-38.109s-23.816-15.786-38.109-15.786h-862.316c-14.294 0-28.002 5.678-38.109 15.786s-15.785 23.816-15.785 38.109v862.316c0 14.294 5.678 28.002 15.785 38.109s23.816 15.785 38.109 15.785h161.684zM485.053 690.526l-242.526 269.474h485.053l-242.526-269.474zM538.947 516.123l-53.895 26.947-53.895-26.947v-472.333h107.789v472.333zM646.737 367.158v-107.789h215.579v107.789h-215.579z" />
<glyph unicode="&#xe911;" glyph-name="paint-brush" data-tags="paint-brush" d="M107.79 852.21v-161.684h754.526v161.684h-754.526zM53.896 959.999h862.316c14.293 0 28-5.678 38.109-15.786s15.786-23.816 15.786-38.109v-269.473c0-14.293-5.678-28-15.786-38.109s-23.816-15.786-38.109-15.786h-862.316c-14.294 0-28.002 5.678-38.109 15.786s-15.786 23.816-15.786 38.109v269.473c0 14.294 5.678 28.002 15.786 38.109s23.816 15.786 38.109 15.786zM161.685 474.947h323.368c14.293 0 28-5.678 38.109-15.786s15.786-23.816 15.786-38.109v-161.684h53.895v-323.368h-215.579v323.368h53.895v107.789h-323.368c-14.294 0-28.002 5.678-38.109 15.786s-15.786 23.816-15.786 38.109v107.789h107.789v-53.895zM793.977 381.601l95.286 95.286 95.286-95.286c18.839-18.844 31.669-42.851 36.864-68.987s2.525-53.223-7.672-77.843c-10.2-24.616-27.47-45.659-49.626-60.462-22.156-14.805-48.206-22.705-74.852-22.705s-52.695 7.901-74.852 22.705c-22.156 14.802-39.427 35.846-49.626 60.462-10.197 24.619-12.868 51.706-7.672 77.843s18.025 50.144 36.864 68.987z" />
<glyph unicode="&#xe912;" glyph-name="paint-brush-use" data-tags="paint-brush-use" d="M53.895 960h862.316c14.293 0 28.001-5.678 38.109-15.785s15.786-23.816 15.786-38.109v-269.474c0-14.293-5.678-28.001-15.786-38.109s-23.816-15.786-38.109-15.786h-862.316c-14.294 0-28.002 5.678-38.109 15.786s-15.785 23.816-15.785 38.109v269.474c0 14.294 5.678 28.002 15.785 38.109s23.816 15.785 38.109 15.785zM161.684 474.947h323.368c14.293 0 28.001-5.678 38.109-15.786s15.786-23.816 15.786-38.109v-161.684h53.895v-323.368h-215.579v323.368h53.895v107.789h-323.368c-14.294 0-28.002 5.678-38.109 15.786s-15.785 23.816-15.785 38.109v107.789h107.789v-53.895zM793.977 381.602l95.286 95.286 95.286-95.286c18.839-18.844 31.669-42.852 36.864-68.988s2.525-53.224-7.672-77.843c-10.2-24.616-27.47-45.66-49.626-60.462-22.156-14.805-48.206-22.706-74.852-22.706s-52.696 7.901-74.852 22.706c-22.156 14.802-39.427 35.845-49.626 60.462-10.197 24.619-12.867 51.707-7.672 77.843s18.025 50.144 36.864 68.988z" />
<glyph unicode="&#xe913;" glyph-name="shuffle" data-tags="shuffle" d="M1012.48 216.599l-192 160c-9.536 8-22.848 9.6-34.048 4.416-11.264-5.312-18.432-16.576-18.432-28.992v-96h-53.568c-44.416 0-84.992 22.528-108.544 60.16l-207.232 331.52c-47.040 75.328-128.192 120.321-217.088 120.321h-181.568v-128.001h181.568c44.416 0 84.992-22.528 108.544-60.16l207.232-331.52c47.104-75.328 128.256-120.32 217.088-120.32h53.568v-96c0-12.416 7.168-23.68 18.432-28.992 4.288-1.984 8.96-3.008 13.568-3.008 7.36 0 14.656 2.496 20.48 7.424l192 160c7.36 6.080 11.52 15.104 11.52 24.576s-4.16 18.496-11.52 24.576zM1012.48 728.599l-192 160.001c-9.536 7.936-22.848 9.6-34.048 4.352-11.264-5.184-18.432-16.512-18.432-28.928v-96h-53.568c-88.896 0-170.048-44.993-217.088-120.321l-11.584-18.56 75.456-120.768 44.672 71.488c23.552 37.632 64.128 60.16 108.544 60.16h53.568v-96c0-12.416 7.168-23.744 18.432-28.992 4.288-1.984 8.96-3.008 13.568-3.008 7.36 0 14.656 2.56 20.48 7.424l192 160c7.36 6.080 11.52 15.104 11.52 24.576s-4.16 18.496-11.52 24.576zM334.784 387.671l-44.608-71.488c-23.552-37.632-64.192-60.16-108.608-60.16h-181.568v-128h181.568c88.832 0 169.984 44.992 217.088 120.32l11.584 18.56-75.456 120.768z" />
<glyph unicode="&#xe914;" glyph-name="file-chart" data-tags="file-chart" d="M716.8 960l255.999-255.999v-717.209c-0.013-13.476-5.376-26.394-14.91-35.917s-22.457-14.874-35.932-14.874h-819.916c-13.446 0.095-26.316 5.473-35.828 14.976-9.512 9.505-14.905 22.369-15.013 35.814v922.419c0 28.057 22.784 50.79 50.842 50.79h614.758zM460.8 703.999v-512h102.4v512h-102.4zM665.6 499.2v-307.2h102.4v307.2h-102.4zM256.001 396.8v-204.8h102.4v204.8h-102.4z" />
<glyph unicode="&#xe915;" glyph-name="left-arr" data-tags="left-arr" horiz-adv-x="1303" d="M563.014 93.137l-96.070-93.836c-14.895-17.873-30.534-18.618-46.918-2.234l-377.577 361.937c-11.916 14.895-17.873 28.3-17.873 40.215v78.196c0 11.916 5.958 25.321 17.873 40.215l377.577 379.811c16.384 16.384 32.023 16.384 46.918 0l96.070-93.836c16.384-16.384 16.384-32.023 0-46.918l-223.418-210.013h924.951c22.342 0 33.513-11.171 33.513-33.513v-149.69c0-22.342-11.171-33.513-33.513-33.513h-918.249l214.481-189.905c17.873-14.895 18.618-30.534 2.234-46.918z" />
<glyph unicode="&#xe916;" glyph-name="right-arr" data-tags="right-arr" horiz-adv-x="1303" d="M740.259 93.137l96.070-93.836c14.895-17.873 30.534-18.618 46.918-2.234l377.577 361.937c11.916 14.895 17.873 28.3 17.873 40.215v78.196c0 11.916-5.958 25.321-17.873 40.215l-377.577 379.811c-16.384 16.384-32.023 16.384-46.918 0l-96.070-93.836c-16.384-16.384-16.384-32.023 0-46.918l223.418-210.013h-924.951c-22.342 0-33.513-11.171-33.513-33.513v-149.69c0-22.342 11.171-33.513 33.513-33.513h918.249l-214.481-189.905c-17.873-14.895-18.618-30.534-2.234-46.918z" />
<glyph unicode="&#xe917;" glyph-name="top-arr" data-tags="top-arr" horiz-adv-x="805" d="M123.465 517.632l-73.728 75.483c-14.043 11.703-14.629 23.991-1.756 36.864l284.38 296.668c11.703 9.362 22.235 14.043 31.598 14.043h61.44c9.362 0 19.895-4.681 31.598-14.043l298.423-296.668c12.873-12.873 12.873-25.161 0-36.864l-73.728-75.483c-12.873-12.873-25.161-12.873-36.864 0l-165.010 175.543v-726.747c0-17.554-8.777-26.331-26.331-26.331h-117.614c-17.554 0-26.331 8.777-26.331 26.331v721.481l-149.211-168.521c-11.703-14.043-23.991-14.629-36.864-1.755z" />
<glyph unicode="&#xe918;" glyph-name="bottom-arr" data-tags="bottom-arr" horiz-adv-x="805" d="M123.465 378.368l-73.728-75.483c-14.043-11.703-14.629-23.991-1.756-36.864l284.38-296.667c11.703-9.362 22.235-14.043 31.598-14.043h61.44c9.362 0 19.895 4.681 31.598 14.043l298.423 296.667c12.873 12.873 12.873 25.161 0 36.864l-73.728 75.483c-12.873 12.873-25.161 12.873-36.864 0l-165.010-175.543v726.747c0 17.554-8.777 26.331-26.331 26.331h-117.614c-17.554 0-26.331-8.777-26.331-26.331v-721.481l-149.211 168.521c-11.703 14.043-23.991 14.629-36.864 1.755z" />
</font>
</defs>
</svg>
