<svg width="99" height="14" viewBox="0 0 99 14" fill="none" xmlns="http://www.w3.org/2000/svg">
<path fill-rule="evenodd" clip-rule="evenodd" d="M33.5761 2.61726C33.5 2.80103 33.5 3.034 33.5 3.49994V10.4999C33.5 10.9659 33.5 11.1989 33.5761 11.3826C33.6776 11.6277 33.8723 11.8223 34.1173 11.9238C34.3011 11.9999 34.5341 11.9999 35 11.9999C35.4659 11.9999 35.6989 11.9999 35.8827 11.9238C36.1277 11.8223 36.3224 11.6277 36.4239 11.3826C36.5 11.1989 36.5 10.9659 36.5 10.4999V3.49994C36.5 3.034 36.5 2.80103 36.4239 2.61726C36.3224 2.37223 36.1277 2.17755 35.8827 2.07606C35.6989 1.99994 35.4659 1.99994 35 1.99994C34.5341 1.99994 34.3011 1.99994 34.1173 2.07606C33.8723 2.17755 33.6776 2.37223 33.5761 2.61726ZM29 5.49994C29 5.034 29 4.80103 29.0761 4.61726C29.1776 4.37223 29.3723 4.17755 29.6173 4.07606C29.8011 3.99994 30.0341 3.99994 30.5 3.99994C30.9659 3.99994 31.1989 3.99994 31.3827 4.07606C31.6277 4.17755 31.8224 4.37223 31.9239 4.61726C32 4.80103 32 5.034 32 5.49994V10.4999C32 10.9659 32 11.1989 31.9239 11.3826C31.8224 11.6277 31.6277 11.8223 31.3827 11.9238C31.1989 11.9999 30.9659 11.9999 30.5 11.9999C30.0341 11.9999 29.8011 11.9999 29.6173 11.9238C29.3723 11.8223 29.1776 11.6277 29.0761 11.3826C29 11.1989 29 10.9659 29 10.4999V5.49994ZM24.5761 6.61726C24.5 6.80103 24.5 7.034 24.5 7.49994V10.4999C24.5 10.9659 24.5 11.1989 24.5761 11.3826C24.6776 11.6277 24.8723 11.8223 25.1173 11.9238C25.3011 11.9999 25.5341 11.9999 26 11.9999C26.4659 11.9999 26.6989 11.9999 26.8827 11.9238C27.1277 11.8223 27.3224 11.6277 27.4239 11.3826C27.5 11.1989 27.5 10.9659 27.5 10.4999V7.49994C27.5 7.034 27.5 6.80103 27.4239 6.61726C27.3224 6.37223 27.1277 6.17755 26.8827 6.07606C26.6989 5.99994 26.4659 5.99994 26 5.99994C25.5341 5.99994 25.3011 5.99994 25.1173 6.07606C24.8723 6.17755 24.6776 6.37223 24.5761 6.61726ZM20.0761 8.11726C20 8.30103 20 8.534 20 8.99994V10.4999C20 10.9659 20 11.1989 20.0761 11.3826C20.1776 11.6277 20.3723 11.8223 20.6173 11.9238C20.8011 11.9999 21.0341 11.9999 21.5 11.9999C21.9659 11.9999 22.1989 11.9999 22.3827 11.9238C22.6277 11.8223 22.8224 11.6277 22.9239 11.3826C23 11.1989 23 10.9659 23 10.4999V8.99994C23 8.534 23 8.30103 22.9239 8.11726C22.8224 7.87223 22.6277 7.67755 22.3827 7.57606C22.1989 7.49994 21.9659 7.49994 21.5 7.49994C21.0341 7.49994 20.8011 7.49994 20.6173 7.57606C20.3723 7.67755 20.1776 7.87223 20.0761 8.11726Z" fill="#1E262F"/>
<path d="M44.0168 10.9999V3.84564H43.9875L41.7785 5.41595V4.12689L44.0051 2.54486H45.3V10.9999H44.0168ZM52.7059 9.97455C52.1395 10.7636 51.3523 11.1581 50.3445 11.1581C49.3367 11.1581 48.5457 10.7656 47.9715 9.98041C47.4012 9.19135 47.116 8.11908 47.116 6.76361C47.116 5.41986 47.4031 4.35541 47.9773 3.57025C48.5516 2.78119 49.3406 2.38666 50.3445 2.38666C51.3484 2.38666 52.1355 2.77924 52.7059 3.56439C53.2762 4.34564 53.5613 5.4101 53.5613 6.75775C53.5613 8.11322 53.2762 9.18549 52.7059 9.97455ZM48.9441 9.18353C49.2762 9.76556 49.743 10.0566 50.3445 10.0566C50.9461 10.0566 51.4109 9.76556 51.7391 9.18353C52.0711 8.5976 52.2371 7.79095 52.2371 6.76361C52.2371 5.74799 52.0691 4.94916 51.7332 4.36713C51.4012 3.78119 50.9383 3.48822 50.3445 3.48822C49.7508 3.48822 49.2859 3.78119 48.95 4.36713C48.6141 4.95306 48.4461 5.75189 48.4461 6.76361C48.4461 7.79095 48.6121 8.5976 48.9441 9.18353ZM60.0824 9.97455C59.516 10.7636 58.7289 11.1581 57.7211 11.1581C56.7133 11.1581 55.9223 10.7656 55.348 9.98041C54.7777 9.19135 54.4926 8.11908 54.4926 6.76361C54.4926 5.41986 54.7797 4.35541 55.3539 3.57025C55.9281 2.78119 56.7172 2.38666 57.7211 2.38666C58.725 2.38666 59.5121 2.77924 60.0824 3.56439C60.6527 4.34564 60.9379 5.4101 60.9379 6.75775C60.9379 8.11322 60.6527 9.18549 60.0824 9.97455ZM56.3207 9.18353C56.6527 9.76556 57.1195 10.0566 57.7211 10.0566C58.3227 10.0566 58.7875 9.76556 59.1156 9.18353C59.4477 8.5976 59.6137 7.79095 59.6137 6.76361C59.6137 5.74799 59.4457 4.94916 59.1098 4.36713C58.7777 3.78119 58.3148 3.48822 57.7211 3.48822C57.1273 3.48822 56.6625 3.78119 56.3266 4.36713C55.9906 4.95306 55.8227 5.75189 55.8227 6.76361C55.8227 7.79095 55.9887 8.5976 56.3207 9.18353ZM64.8047 3.00189C65.1367 3.38861 65.3027 3.90619 65.3027 4.55463C65.3027 5.20306 65.1367 5.72064 64.8047 6.10736C64.4727 6.49408 64.0293 6.68744 63.4746 6.68744C62.916 6.68744 62.4707 6.49408 62.1387 6.10736C61.8066 5.72064 61.6406 5.20306 61.6406 4.55463C61.6406 3.90619 61.8066 3.38861 62.1387 3.00189C62.4707 2.61517 62.916 2.42181 63.4746 2.42181C64.0293 2.42181 64.4727 2.61517 64.8047 3.00189ZM63.4746 5.86127C63.7051 5.86127 63.8887 5.74408 64.0254 5.5097C64.1621 5.27533 64.2305 4.95502 64.2305 4.54877C64.2305 4.14642 64.1621 3.82806 64.0254 3.59369C63.8887 3.35931 63.7051 3.24213 63.4746 3.24213C63.2402 3.24213 63.0547 3.35931 62.918 3.59369C62.7812 3.82806 62.7129 4.14642 62.7129 4.54877C62.7129 4.95502 62.7812 5.27533 62.918 5.5097C63.0547 5.74408 63.2402 5.86127 63.4746 5.86127ZM63.4219 10.9999H62.2617L65.5312 6.52924L68.4434 2.54486H69.5977L66.416 6.90424L63.4219 10.9999ZM70.2188 8.96674C70.2188 9.61517 70.0527 10.1328 69.7207 10.5195C69.3926 10.9062 68.9492 11.0995 68.3906 11.0995C67.832 11.0995 67.3867 10.9062 67.0547 10.5195C66.7266 10.1328 66.5625 9.61517 66.5625 8.96674C66.5625 8.31439 66.7266 7.79486 67.0547 7.40814C67.3867 7.02142 67.832 6.82806 68.3906 6.82806C68.9492 6.82806 69.3926 7.02142 69.7207 7.40814C70.0527 7.79486 70.2188 8.31439 70.2188 8.96674ZM67.834 9.92181C67.9707 10.1523 68.1562 10.2675 68.3906 10.2675C68.625 10.2675 68.8086 10.1523 68.9414 9.92181C69.0781 9.68744 69.1465 9.36713 69.1465 8.96088C69.1465 8.55463 69.0781 8.23627 68.9414 8.0058C68.8086 7.77142 68.625 7.65424 68.3906 7.65424C68.1562 7.65424 67.9707 7.77142 67.834 8.0058C67.7012 8.23627 67.6348 8.55463 67.6348 8.96088C67.6348 9.36713 67.7012 9.68744 67.834 9.92181Z" fill="#3D444B"/>
<g opacity="0.4">
<mask id="path-3-inside-1_1905_1688" fill="white">
<path fill-rule="evenodd" clip-rule="evenodd" d="M77.6775 1.99994H91.2775C92.2041 1.99994 92.8389 2.00072 93.3307 2.0409C93.8108 2.08012 94.0659 2.15186 94.249 2.24517C94.6724 2.46089 95.0166 2.8051 95.2323 3.22846C95.3256 3.4116 95.3974 3.66667 95.4366 4.14678C95.4768 4.63855 95.4775 5.27335 95.4775 6.19994V7.79994C95.4775 8.72653 95.4768 9.36132 95.4366 9.8531C95.3974 10.3332 95.3256 10.5883 95.2323 10.7714C95.0166 11.1948 94.6724 11.539 94.249 11.7547C94.0659 11.848 93.8108 11.9198 93.3307 11.959C92.8389 11.9992 92.2041 11.9999 91.2775 11.9999H77.6775C76.751 11.9999 76.1162 11.9992 75.6244 11.959C75.1443 11.9198 74.8892 11.848 74.7061 11.7547C74.2827 11.539 73.9385 11.1948 73.7228 10.7714C73.6295 10.5883 73.5577 10.3332 73.5185 9.8531C73.4783 9.36132 73.4775 8.72652 73.4775 7.79994V6.19994C73.4775 5.27335 73.4783 4.63855 73.5185 4.14678C73.5577 3.66667 73.6295 3.4116 73.7228 3.22846C73.9385 2.8051 74.2827 2.46089 74.7061 2.24517C74.8892 2.15186 75.1443 2.08012 75.6244 2.0409C76.1162 2.00072 76.751 1.99994 77.6775 1.99994ZM72.4775 6.19994C72.4775 4.37977 72.4775 3.46968 72.8318 2.77447C73.1434 2.16294 73.6405 1.66576 74.2521 1.35417C74.9473 0.999939 75.8574 0.999939 77.6775 0.999939H91.2775C93.0977 0.999939 94.0078 0.999939 94.703 1.35417C95.3145 1.66576 95.8117 2.16294 96.1233 2.77447C96.4775 3.46968 96.4775 4.37977 96.4775 6.19994V7.79994C96.4775 9.62011 96.4775 10.5302 96.1233 11.2254C95.8117 11.8369 95.3145 12.3341 94.703 12.6457C94.0078 12.9999 93.0977 12.9999 91.2775 12.9999H77.6775C75.8574 12.9999 74.9473 12.9999 74.2521 12.6457C73.6405 12.3341 73.1434 11.8369 72.8318 11.2254C72.4775 10.5302 72.4775 9.62011 72.4775 7.79994V6.19994ZM98.9775 6.99994C98.9775 6.06802 98.3402 5.28497 97.4775 5.06295V8.93693C98.3402 8.71491 98.9775 7.93186 98.9775 6.99994Z"/>
</mask>
<path d="M93.3307 2.0409L93.2493 3.03758L93.3307 2.0409ZM94.249 2.24517L93.795 3.13618L93.795 3.13618L94.249 2.24517ZM95.2323 3.22846L96.1233 2.77447L96.1233 2.77447L95.2323 3.22846ZM95.4366 4.14678L94.4399 4.22821V4.22821L95.4366 4.14678ZM95.4366 9.8531L94.4399 9.77167V9.77167L95.4366 9.8531ZM95.2323 10.7714L96.1233 11.2254L96.1233 11.2254L95.2323 10.7714ZM94.249 11.7547L93.795 10.8637L93.795 10.8637L94.249 11.7547ZM93.3307 11.959L93.4121 12.9557L93.3307 11.959ZM75.6244 11.959L75.5429 12.9557L75.5429 12.9557L75.6244 11.959ZM74.7061 11.7547L75.1601 10.8637L75.1601 10.8637L74.7061 11.7547ZM73.7228 10.7714L72.8318 11.2254L72.8318 11.2254L73.7228 10.7714ZM73.5185 9.8531L74.5152 9.77167V9.77167L73.5185 9.8531ZM73.5185 4.14678L74.5152 4.22821L73.5185 4.14678ZM73.7228 3.22846L74.6138 3.68245L74.6138 3.68245L73.7228 3.22846ZM74.7061 2.24517L75.1601 3.13618L75.1601 3.13618L74.7061 2.24517ZM75.6244 2.0409L75.7058 3.03758H75.7058L75.6244 2.0409ZM72.8318 2.77447L73.7228 3.22846L72.8318 2.77447ZM74.2521 1.35417L74.7061 2.24517L74.2521 1.35417ZM94.703 1.35417L95.157 0.463161V0.463161L94.703 1.35417ZM96.1233 2.77447L95.2323 3.22846V3.22846L96.1233 2.77447ZM96.1233 11.2254L95.2323 10.7714L96.1233 11.2254ZM94.703 12.6457L94.249 11.7547L94.703 12.6457ZM74.2521 12.6457L74.7061 11.7547H74.7061L74.2521 12.6457ZM72.8318 11.2254L71.9408 11.6794L71.9408 11.6794L72.8318 11.2254ZM97.4775 5.06295L97.7268 4.09451L96.4775 3.77297V5.06295H97.4775ZM97.4775 8.93693H96.4775V10.2269L97.7268 9.90537L97.4775 8.93693ZM91.2775 0.999939H77.6775V2.99994H91.2775V0.999939ZM93.4121 1.04422C92.8701 0.999931 92.1872 0.999939 91.2775 0.999939V2.99994C92.221 2.99994 92.8078 3.0015 93.2493 3.03758L93.4121 1.04422ZM94.703 1.35417C94.3552 1.17693 93.9537 1.08846 93.4121 1.04422L93.2493 3.03758C93.668 3.07178 93.7766 3.12679 93.795 3.13618L94.703 1.35417ZM96.1233 2.77447C95.8117 2.16294 95.3145 1.66576 94.703 1.35417L93.795 3.13618C94.0302 3.25602 94.2215 3.44725 94.3413 3.68245L96.1233 2.77447ZM96.4333 4.06535C96.389 3.52382 96.3005 3.12231 96.1233 2.77447L94.3413 3.68245C94.3507 3.70089 94.4057 3.80953 94.4399 4.22821L96.4333 4.06535ZM96.4775 6.19994C96.4775 5.29026 96.4775 4.60739 96.4333 4.06534L94.4399 4.22821C94.476 4.66972 94.4775 5.25644 94.4775 6.19994H96.4775ZM96.4775 7.79994V6.19994H94.4775V7.79994H96.4775ZM96.4333 9.93453C96.4775 9.39249 96.4775 8.70961 96.4775 7.79994H94.4775C94.4775 8.74344 94.476 9.33016 94.4399 9.77167L96.4333 9.93453ZM96.1233 11.2254C96.3005 10.8776 96.389 10.4761 96.4333 9.93453L94.4399 9.77167C94.4057 10.1904 94.3507 10.299 94.3413 10.3174L96.1233 11.2254ZM94.703 12.6457C95.3145 12.3341 95.8117 11.8369 96.1233 11.2254L94.3413 10.3174C94.2215 10.5526 94.0302 10.7439 93.795 10.8637L94.703 12.6457ZM93.4121 12.9557C93.9537 12.9114 94.3552 12.8229 94.703 12.6457L93.795 10.8637C93.7766 10.8731 93.668 10.9281 93.2493 10.9623L93.4121 12.9557ZM91.2775 12.9999C92.1872 12.9999 92.8701 12.9999 93.4121 12.9557L93.2493 10.9623C92.8078 10.9984 92.221 10.9999 91.2775 10.9999V12.9999ZM77.6775 12.9999H91.2775V10.9999H77.6775V12.9999ZM75.5429 12.9557C76.085 12.9999 76.7679 12.9999 77.6775 12.9999V10.9999C76.734 10.9999 76.1473 10.9984 75.7058 10.9623L75.5429 12.9557ZM74.2521 12.6457C74.5999 12.8229 75.0014 12.9114 75.5429 12.9557L75.7058 10.9623C75.2871 10.9281 75.1785 10.8731 75.1601 10.8637L74.2521 12.6457ZM72.8318 11.2254C73.1434 11.8369 73.6405 12.3341 74.2521 12.6457L75.1601 10.8637C74.9248 10.7439 74.7336 10.5526 74.6138 10.3174L72.8318 11.2254ZM72.5218 9.93453C72.5661 10.4761 72.6545 10.8776 72.8318 11.2254L74.6138 10.3174C74.6044 10.299 74.5494 10.1904 74.5152 9.77167L72.5218 9.93453ZM72.4775 7.79994C72.4775 8.70961 72.4775 9.39249 72.5218 9.93453L74.5152 9.77167C74.4791 9.33016 74.4775 8.74344 74.4775 7.79994H72.4775ZM72.4775 6.19994V7.79994H74.4775V6.19994H72.4775ZM72.5218 4.06535C72.4775 4.60739 72.4775 5.29026 72.4775 6.19994H74.4775C74.4775 5.25644 74.4791 4.66972 74.5152 4.22821L72.5218 4.06535ZM72.8318 2.77447C72.6545 3.12231 72.5661 3.52382 72.5218 4.06535L74.5152 4.22821C74.5494 3.80952 74.6044 3.70089 74.6138 3.68245L72.8318 2.77447ZM74.2521 1.35417C73.6405 1.66576 73.1434 2.16294 72.8318 2.77447L74.6138 3.68245C74.7336 3.44725 74.9248 3.25602 75.1601 3.13618L74.2521 1.35417ZM75.5429 1.04422C75.0014 1.08846 74.5999 1.17693 74.2521 1.35417L75.1601 3.13618C75.1785 3.12679 75.2871 3.07178 75.7058 3.03758L75.5429 1.04422ZM77.6775 0.999939C76.7679 0.999939 76.085 0.999931 75.5429 1.04422L75.7058 3.03758C76.1473 3.0015 76.734 2.99994 77.6775 2.99994V0.999939ZM71.9408 2.32048C71.6798 2.83255 71.5745 3.38013 71.5251 3.98391C71.4768 4.57602 71.4775 5.30635 71.4775 6.19994H73.4775C73.4775 5.27335 73.4783 4.63855 73.5185 4.14678C73.5577 3.66667 73.6295 3.4116 73.7228 3.22846L71.9408 2.32048ZM73.7981 0.463161C72.9984 0.870623 72.3482 1.52079 71.9408 2.32048L73.7228 3.22846C73.9385 2.8051 74.2827 2.46089 74.7061 2.24517L73.7981 0.463161ZM77.6775 -6.10352e-05C76.784 -6.10352e-05 76.0536 -0.000838757 75.4615 0.0475386C74.8577 0.0968699 74.3102 0.202246 73.7981 0.463161L74.7061 2.24517C74.8892 2.15186 75.1443 2.08012 75.6244 2.0409C76.1162 2.00072 76.751 1.99994 77.6775 1.99994V-6.10352e-05ZM91.2775 -6.10352e-05H77.6775V1.99994H91.2775V-6.10352e-05ZM95.157 0.463161C94.6449 0.202246 94.0973 0.0968699 93.4936 0.0475386C92.9015 -0.000838757 92.1711 -6.10352e-05 91.2775 -6.10352e-05V1.99994C92.2041 1.99994 92.8389 2.00072 93.3307 2.0409C93.8108 2.08012 94.0659 2.15186 94.249 2.24517L95.157 0.463161ZM97.0143 2.32048C96.6069 1.52079 95.9567 0.870623 95.157 0.463161L94.249 2.24517C94.6724 2.46089 95.0166 2.8051 95.2323 3.22846L97.0143 2.32048ZM97.4775 6.19994C97.4775 5.30635 97.4783 4.57602 97.4299 3.98391C97.3806 3.38013 97.2752 2.83255 97.0143 2.32048L95.2323 3.22846C95.3256 3.4116 95.3974 3.66667 95.4366 4.14678C95.4768 4.63855 95.4775 5.27335 95.4775 6.19994H97.4775ZM97.4775 7.79994V6.19994H95.4775V7.79994H97.4775ZM97.0143 11.6794C97.2752 11.1673 97.3806 10.6198 97.4299 10.016C97.4783 9.42385 97.4775 8.69352 97.4775 7.79994H95.4775C95.4775 8.72653 95.4768 9.36132 95.4366 9.8531C95.3974 10.3332 95.3256 10.5883 95.2323 10.7714L97.0143 11.6794ZM95.157 13.5367C95.9567 13.1293 96.6069 12.4791 97.0143 11.6794L95.2323 10.7714C95.0166 11.1948 94.6724 11.539 94.249 11.7547L95.157 13.5367ZM91.2775 13.9999C92.1711 13.9999 92.9015 14.0007 93.4936 13.9523C94.0973 13.903 94.6449 13.7976 95.157 13.5367L94.249 11.7547C94.0659 11.848 93.8108 11.9198 93.3307 11.959C92.8389 11.9992 92.2041 11.9999 91.2775 11.9999V13.9999ZM77.6775 13.9999H91.2775V11.9999H77.6775V13.9999ZM73.7981 13.5367C74.3102 13.7976 74.8577 13.903 75.4615 13.9523C76.0536 14.0007 76.784 13.9999 77.6775 13.9999V11.9999C76.751 11.9999 76.1162 11.9992 75.6244 11.959C75.1443 11.9198 74.8892 11.848 74.7061 11.7547L73.7981 13.5367ZM71.9408 11.6794C72.3482 12.4791 72.9984 13.1293 73.7981 13.5367L74.7061 11.7547C74.2827 11.539 73.9385 11.1948 73.7228 10.7714L71.9408 11.6794ZM71.4775 7.79994C71.4775 8.69352 71.4768 9.42385 71.5251 10.016C71.5745 10.6198 71.6798 11.1673 71.9408 11.6794L73.7228 10.7714C73.6295 10.5883 73.5577 10.3332 73.5185 9.8531C73.4783 9.36132 73.4775 8.72652 73.4775 7.79994H71.4775ZM71.4775 6.19994V7.79994H73.4775V6.19994H71.4775ZM97.2283 6.03138C97.6598 6.14245 97.9775 6.53535 97.9775 6.99994H99.9775C99.9775 5.60069 99.0205 4.42749 97.7268 4.09451L97.2283 6.03138ZM98.4775 8.93693V5.06295H96.4775V8.93693H98.4775ZM97.9775 6.99994C97.9775 7.46453 97.6598 7.85743 97.2283 7.96849L97.7268 9.90537C99.0205 9.57239 99.9775 8.39919 99.9775 6.99994H97.9775Z" fill="#1E262F" mask="url(#path-3-inside-1_1905_1688)"/>
</g>
<rect x="74.4775" y="2.99994" width="20" height="8" rx="1.5" fill="#1E262F"/>
</svg>
