<?xml version="1.0" standalone="no"?>
<!DOCTYPE svg PUBLIC "-//W3C//DTD SVG 1.1//EN" "http://www.w3.org/Graphics/SVG/1.1/DTD/svg11.dtd" >
<svg xmlns="http://www.w3.org/2000/svg">
<metadata>Generated by IcoMoon</metadata>
<defs>
<font id="hudevoicon" horiz-adv-x="1024">
<font-face units-per-em="1024" ascent="960" descent="-64" />
<missing-glyph horiz-adv-x="1024" />
<glyph unicode="&#x20;" horiz-adv-x="512" d="" />
<glyph unicode="&#xe900;" glyph-name="ammo" horiz-adv-x="731" d="M321.168 72.529v512.002c0 9.439-6.935 17.066-15.514 17.066h-279.276c-8.581 0-15.514-7.63-15.514-17.066v-512.002c0-9.443 6.936-17.064 15.514-17.064v-17.072c-8.581 0-15.514-7.629-15.514-17.064v-68.265c0-9.443 6.936-17.064 15.514-17.064h279.276c8.58 0 15.514 7.629 15.514 17.064v68.265c0 9.435-6.935 17.064-15.514 17.064v17.064c8.579 0 15.514 7.629 15.514 17.072zM41.898 635.727h248.244c8.58 0 15.514 7.63 15.514 17.066v17.066c0 112.196-48.734 219.376-130.328 286.723-5.523 4.557-13.095 4.557-18.618 0-81.595-67.347-130.329-174.525-130.329-286.723v-17.066c0.002-9.436 6.936-17.066 15.516-17.066zM720.137 72.529v512.002c0 9.439-6.935 17.066-15.514 17.066h-279.276c-8.58 0-15.514-7.63-15.514-17.066v-512.002c0-9.443 6.935-17.064 15.514-17.064v-17.072c-8.58 0-15.514-7.629-15.514-17.064v-68.265c0-9.443 6.935-17.064 15.514-17.064h279.276c8.58 0 15.514 7.629 15.514 17.064v68.265c0 9.435-6.935 17.064-15.514 17.064v17.064c8.579 0 15.514 7.629 15.514 17.072zM440.866 635.727h248.244c8.58 0 15.514 7.63 15.514 17.066v17.066c0 112.196-48.734 219.376-130.328 286.723-5.523 4.557-13.095 4.557-18.618 0-81.595-67.347-130.328-174.525-130.328-286.723v-17.066c0.001-9.436 6.935-17.066 15.516-17.066z" />
<glyph unicode="&#xe901;" glyph-name="bank" horiz-adv-x="1317" d="M125.355 959.999c-58.306 0-105.574-54.882-105.574-122.583v-429.038h116.132v122.583h1045.178v-429.041h-580.656v-122.578h591.21c58.31 0 105.573 54.882 105.573 122.578v735.498c0 67.7-47.263 122.583-105.573 122.583h-1066.291zM1181.092 837.417v-183.874h-1045.178v183.874h1045.178zM19.781 101.926v122.581h266.275l-75.073 79.243 82.117 86.679 215.254-227.213-215.254-227.216-82.117 86.685 75.073 79.242h-266.275z" />
<glyph unicode="&#xe902;" glyph-name="bel" d="M350.642 371.55l84.833 84.83 84.83-84.83-84.83-84.834-84.833 84.834zM562.852 329.114l-106.057-106.057c-5.858-5.858-13.538-8.789-21.21-8.789-7.676 0-15.356 2.931-21.212 8.789l-127.268 127.266c-11.715 11.712-11.715 30.707 0 42.423l106.056 106.057-21.212 21.21c-16.966 16.967-39.564 26.31-63.632 26.31s-46.666-9.343-63.632-26.31l-200.803-200.802c-28.267-28.267-43.836-65.929-43.836-106.052s15.568-77.79 43.834-106.057l127.268-127.266c28.268-28.267 65.932-43.836 106.056-43.836s77.788 15.569 106.056 43.836l200.8 200.798c16.969 16.964 26.308 39.565 26.308 63.633s-9.34 46.665-26.308 63.633l-21.21 21.214zM615.17 848.079c-11.712 11.715-30.703 11.715-42.423 0l-98.982-98.985c-5.628-5.626-8.789-13.255-8.789-21.21s3.162-15.587 8.789-21.21l296.956-296.954c5.858-5.858 13.534-8.789 21.21-8.789s15.356 2.931 21.21 8.789l98.987 98.982c11.712 11.712 11.712 30.708 0 42.423l-296.956 296.954zM1015.183 772.932l-178.082 178.271c-5.628 5.629-13.257 8.795-21.214 8.797-0.004 0-0.004 0-0.009 0-7.957 0-15.586-3.16-21.21-8.787l-98.893-98.892 220.599-220.597 98.799 98.796c11.703 11.711 11.712 30.697 0.009 42.412zM480.834 544.056c-11.716-11.712-11.716-30.708 0-42.424l84.843-84.843c5.858-5.862 13.534-8.789 21.21-8.789s15.356 2.931 21.21 8.789l35.358 35.349-127.27 127.267-35.349-35.35z" />
<glyph unicode="&#xe903;" glyph-name="clock" d="M474.302 959.038c-74.305-7.116-130.787-22.912-192.516-53.843-49.040-24.573-88.928-53.737-131.043-95.812-45.039-45-73.297-84.517-100.236-140.18-31.577-65.243-47.536-130.164-50.17-204.104-3.041-85.34 14.524-166.561 52.526-242.91 26.772-53.777 54.278-91.824 97.878-135.39 44.082-44.043 82.335-71.544 136.3-97.992 37.654-18.454 61.967-27.438 100.139-37.006 100.1-25.089 200.919-20.269 298.278 14.251 26.653 9.449 74.564 32.615 97.274 47.024 120.531 76.499 204.868 197.842 232.112 333.966 7.533 37.621 9.153 55.501 9.153 101.048 0 45.545-1.622 63.431-9.153 101.051-26.505 132.425-107.173 251.344-222.1 327.414-26.192 17.332-82.279 45.239-110.154 54.8-40.817 14.003-82.813 23.047-125.173 26.957-20.406 1.883-66.793 2.289-83.121 0.726zM576.447 887.238c96.689-14.505 180.031-56.577 249.424-125.912 69.768-69.703 111.264-152.164 126.401-251.204 4.818-31.494 4.818-92.566 0-124.065-11.799-77.204-39.737-144.088-86.068-206.091-18.244-24.411-61.054-67.181-85.481-85.408-80.816-60.285-168.437-89.509-268.368-89.509-99.742 0-187.725 29.383-267.918 89.475-92.635 69.41-153.964 173.368-171.985 291.533-4.845 31.773-4.866 92.791-0.040 124.065 22.944 148.721 111.795 270.784 244.674 336.13 51.332 25.245 98.185 38.040 164.231 44.858 15.702 1.621 74.457-0.77 95.129-3.872zM501.654 753.392c-9.359-3.411-16.071-9.455-20.23-18.204-2.726-5.748-3.112-24.387-3.112-150.518v-143.956l4.505-8.221c3.482-6.354 24.525-24.2 92.626-78.558 48.47-38.691 90.556-71.594 93.53-73.137 2.975-1.536 9.824-2.799 15.224-2.799 24.309 0 39.936 26.192 29.133 48.822-2.429 5.092-25.014 24.275-85.078 72.26l-81.767 65.325-0.546 134.57-0.54 134.57-5.609 7.348c-9.62 12.6-24.491 17.473-38.138 12.496z" />
<glyph unicode="&#xe904;" glyph-name="close" d="M0.003 755.201l204.8 204.8 819.195-819.195-204.8-204.8-819.195 819.195zM819.197 959.995l204.8-204.8-819.195-819.195-204.8 204.8 819.195 819.195z" />
<glyph unicode="&#xe905;" glyph-name="donate" d="M282.304 958.828c-198.675-18.8-324.33-127.182-269.163-232.164 32.095-61.074 120.185-107.291 237.217-124.451 40.613-5.956 120.524-6.477 161.085-1.049 154.399 20.66 258.351 95.368 252.697 181.606-5.508 84.024-105.655 152.415-253.698 173.253-25.588 3.6-102.039 5.276-128.138 2.805zM0.031 614.952c0.034-34.339 2.823-48.905 13.11-68.481 37.568-71.495 153.565-122.778 292.733-129.423l28.24-1.347 7.78 16.823c15.096 32.639 36.441 64.559 63.35 94.735 11.532 12.934 13.218 15.625 9.164 14.622-13.070-3.237-69.949-5.89-102.072-4.763-121.688 4.271-224.729 36.849-294.817 93.211l-17.519 14.087 0.030-29.463zM658.061 594.386c-112.096-13.028-210.661-82.504-259.734-183.084-35.328-72.408-43.116-155.459-21.847-232.987 42.269-154.069 192.482-256.954 351.305-240.613 147.725 15.198 265.022 124.588 292.638 272.912 4.77 25.616 4.77 85.45 0 111.066-18.669 100.282-76.45 182.080-164.104 232.318-57.172 32.767-132.242 48.060-198.257 40.387zM724.783 443.678v-32.694l10.434-4.845c25.535-11.857 49.492-47.799 49.605-74.423l0.022-5.503h-30.030c-25.708 0-30.030 0.442-30.030 3.083 0 1.692-1.816 6.64-4.031 10.984-4.533 8.882-16.071 15.964-26.004 15.964s-21.466-7.082-25.999-15.964c-2.22-4.344-4.031-10.677-4.031-14.067 0-15.177 15.193-30.036 30.704-30.036 22.436 0 45.67-9.997 62.486-26.883 36.034-36.201 35.63-91.583-0.938-127.262-6.225-6.069-16.007-13.21-21.752-15.877l-10.434-4.851v-65.385h-60.066v65.385l-10.439 4.851c-25.535 11.857-49.486 47.794-49.605 74.418l-0.022 5.508h30.030c25.708 0 30.036-0.442 30.036-3.083 0-1.698 1.811-6.64 4.031-10.984 4.533-8.882 16.066-15.964 25.999-15.964 15.236 0 30.036 14.794 30.036 30.030 0 15.603-14.826 30.030-30.86 30.030-21.914 0-45.261 10.111-62.275 26.969-36.104 35.765-35.716 91.47 0.884 127.175 6.219 6.069 16.007 13.215 21.747 15.883l10.439 4.845v65.387h60.066v-32.693zM0.031 434.853c0.034-34.626 2.809-48.973 13.352-69.038 8.974-17.074 30.447-40.437 51.625-56.174 18.684-13.878 59.672-34.401 88.317-44.215 38.966-13.35 89.39-23.374 132.983-26.435l19.021-1.337 0.264 34.767c0.197 25.702 1.376 40.987 4.525 58.611 2.343 13.113 3.792 24.307 3.22 24.878s-12.518 1.8-26.549 2.732c-110.415 7.34-206.694 40.561-272.273 93.95l-14.516 11.819 0.030-29.557zM0.031 254.662c0.034-34.439 2.815-48.985 13.11-68.576 38.513-73.297 158.098-124.718 301.304-129.568 19.329-0.658 38.391-0.582 42.362 0.162l7.218 1.358-14.766 28.559c-13.266 25.659-32.821 76.687-32.891 85.827-0.030 3.805-4.973 4.71-36.065 6.613-28.394 1.741-70.794 8.413-101.693 16.007-66.298 16.292-120.446 41.822-164.093 77.355l-14.516 11.819 0.030-29.556z" />
<glyph unicode="&#xe906;" glyph-name="engine" d="M1010.424 466.333l-114.905 87.235c-10.394 7.888-24.307 9.227-36.002 3.398-11.657-5.777-19.042-17.687-19.042-30.726v-53.376h-33.993v53.948c0 18.948-15.36 34.312-34.3 34.312h-68.291v127.399c0 18.953-15.364 34.313-34.308 34.313h-106.696v36.414h28.723c18.944 0 34.308 15.364 34.308 34.309s-15.364 34.302-34.308 34.302h-221.63c-18.942 0-34.305-15.357-34.305-34.302s15.363-34.309 34.305-34.309h28.744v-36.414h-132.624c-18.946 0-34.309-15.36-34.309-34.313v-66.963h-66.998c-18.949 0-34.309-15.36-34.309-34.306v-78.48h-61.877v97.339c0 18.945-15.36 34.305-34.306 34.305-18.945 0.004-34.302-15.36-34.302-34.302v-358.831c0-18.944 15.357-34.3 34.306-34.3 18.945 0 34.306 15.36 34.306 34.3v97.343h61.88v-80.451c0-18.948 15.36-34.308 34.309-34.308h86.269l121.033-149.055c6.515-8.017 16.3-12.676 26.629-12.676h373.46c18.944 0 34.3 15.369 34.3 34.308v45.329h33.993v-45.329c0-13.402 7.795-25.562 19.964-31.168 4.587-2.108 9.481-3.136 14.336-3.136 8.043 0 15.983 2.829 22.332 8.265l114.913 98.482c7.603 6.528 11.972 16.038 11.972 26.052v238.078c-0.009 10.714-5.035 20.83-13.577 27.315z" />
<glyph unicode="&#xe907;" glyph-name="fuel" d="M855.041 833.735h-4.978v22.107c0 57.434-46.723 104.158-104.158 104.158h-160.898c-57.432 0-104.156-46.724-104.156-104.158v-22.107h-61.865c-10.106 0-19.795-4.014-26.949-11.158l-206.573-206.578c-7.144-7.149-11.158-16.838-11.158-26.949v-597.061c0-30.868 25.115-55.99 55.992-55.99h624.748c30.874 0 55.996 25.116 55.996 55.99v785.76c-0.011 30.872-25.128 55.987-56.001 55.987zM557.060 855.842c0 15.406 12.542 27.945 27.948 27.945h160.892c15.406 0 27.944-12.539 27.944-27.945v-22.107h-216.784v22.107zM180.313 687.827c-10.106 0-19.8 4.014-26.949 11.163l-29.246 29.251c-14.882 14.882-14.882 39.011 0 53.888l110.509 110.509c7.149 7.144 16.838 11.158 26.949 11.158 10.106 0 19.8-4.014 26.949-11.163l29.245-29.251c14.882-14.882 14.882-39.011 0-53.888l-110.509-110.509c-7.154-7.144-16.843-11.158-26.949-11.158z" />
<glyph unicode="&#xe908;" glyph-name="inv" d="M144.738 955.529c-6.857-3.83-17.54-18.746-74.435-103.926-39.086-58.517-67.312-102.725-68.571-107.402-1.491-5.542-1.981-121.863-1.617-384.050l0.52-376.1 5.244-11.187c6.665-14.214 17.398-24.954 31.611-31.616l11.18-5.248h926.658l11.181 5.248c14.214 6.662 24.947 17.402 31.61 31.616l5.248 11.187 0.518 376.1c0.365 262.187-0.128 378.508-1.619 384.050-1.254 4.676-29.485 48.884-68.57 107.402-56.896 85.181-67.578 100.096-74.432 103.926l-8.006 4.471h-718.514l-8.006-4.471zM409.369 890.493c-0.584-3.029-5.406-31.857-10.716-64.067l-9.655-58.561h-297.304l85.067 128.021 233.667 0.112-1.059-5.506zM558.767 837.439c5.31-32.21 10.131-61.038 10.716-64.067l1.059-5.505h-117.083l1.059 5.505c0.584 3.029 5.405 31.857 10.716 64.067l9.655 58.561h74.225l9.655-58.561zM889.773 831.876l42.534-64.010h-297.306l-9.655 58.561c-5.309 32.207-10.131 61.037-10.716 64.067l-1.059 5.506 233.666-0.112 42.534-64.011zM383.908 620.515c0-92.082 0.004-92.122 12.858-101.928 12.491-9.53 17.887-8.907 68.835 7.951l46.362 15.338 46.727-15.42c50.75-16.751 54.429-17.204 67.466-8.3 14.036 9.586 13.934 8.853 13.934 102.026v83.619h320.23v-704.733h-896.64v704.733h320.228v-83.284zM576.045 645.939v-57.862l-29.521 9.764c-16.237 5.37-31.773 9.762-34.525 9.762s-18.287-4.392-34.525-9.762l-29.521-9.764v115.722h128.091v-57.86zM146.639 252.544c-13.253-5.837-20.873-21.171-18.036-36.294 1.753-9.357 11.742-20.416 20.824-23.066 4.89-1.427 41.66-1.933 110.749-1.523 100.852 0.589 103.565 0.71 108.954 4.736 10.501 7.846 13.778 14.24 13.778 26.899 0 12.666-3.277 19.059-13.778 26.906-5.398 4.038-7.954 4.141-110.957 4.576-84.594 0.365-106.636-0.077-111.533-2.234zM146.639 124.429c-13.267-5.882-20.873-21.19-18.036-36.314 1.751-9.344 11.734-20.41 20.824-23.085 4.698-1.382 27.162-1.933 62.717-1.523 52.3 0.589 55.706 0.858 60.92 4.755 10.502 7.846 13.776 14.246 13.776 26.906s-3.277 19.053-13.776 26.899c-5.24 3.917-8.462 4.154-62.921 4.602-44.68 0.358-58.752-0.134-63.503-2.24z" />
<glyph unicode="&#xe909;" glyph-name="key" d="M393.249 583.808c-35.094 35.094-92.186 35.094-127.28 0l-222.108-222.109c-58.48-58.479-58.48-153.651 0-212.13l169.706-169.707c58.48-58.483 153.652-58.483 212.132 0l222.106 222.106c35.093 35.093 35.093 92.186 0 127.279l-254.556 254.561zM298.419 107.141c-11.722-11.725-30.7-11.725-42.426 0l-84.852 84.851c-11.726 11.729-11.726 30.703 0 42.428 11.722 11.725 30.7 11.725 42.426 0l84.852-84.851c11.726-11.729 11.726-30.703 0-42.428zM887.937 951.214l-42.428-42.426c-11.708-11.704-30.724-11.704-42.428 0-11.721 11.726-30.699 11.726-42.428 0l-96.849-96.852c-11.729-11.726-11.729-30.7 0-42.426 11.703-11.704 11.703-30.722 0-42.426-11.703-11.708-30.724-11.708-42.428 0-11.725 11.722-30.703 11.722-42.428 0l-122.069-122.066 212.139-212.135 122.065 122.065c11.721 11.725 11.721 30.704 0 42.43-11.708 11.704-11.708 30.722 0 42.426 11.703 11.704 30.72 11.704 42.428 0 11.725-11.726 30.699-11.726 42.423 0l96.853 96.852c11.725 11.726 11.725 30.704 0 42.426-11.703 11.704-11.703 30.722 0 42.43l42.423 42.426c5.636 5.632 8.789 13.256 8.789 21.21v84.856c0 16.57-13.427 29.996-29.999 29.996h-84.855c-7.953 0-15.578-3.15-21.21-8.786z" />
<glyph unicode="&#xe90a;" glyph-name="left" d="M438.2 40.869c6.129 5.968 9.569 14.165 9.536 22.716l0.001 166.667c0 12.999 10.54 23.541 23.541 23.541h521.178c17.425 0 31.545 14.12 31.545 31.545v324.383c0 17.422-14.12 31.543-31.545 31.543h-521.178c-13.001 0-23.541 10.54-23.541 23.541v167.135c0.328 17.419-13.524 31.805-30.941 32.134-8.72 0.166-17.119-3.288-23.202-9.536l-384.176-384.176c-5.937-5.844-9.322-13.798-9.417-22.129-0.031-8.495 3.363-16.64 9.417-22.599l384.176-384.174c12.154-12.481 32.124-12.749 44.606-0.592z" />
<glyph unicode="&#xe90b;" glyph-name="light" d="M639.323 924.97c-3.712 20.31-21.376 35.030-41.984 35.030-329.385 0-597.333-229.674-597.333-512 0-282.283 267.946-512 597.333-512 20.608 0 38.272 14.763 41.984 35.072l4.395 24.107c52.139 306.731 52.096 611.583-0.085 906.153l-4.309 23.638zM810.66 789.346h170.667c23.595 0 42.667 19.114 42.667 42.666s-19.068 42.668-42.667 42.668h-170.667c-23.59 0-42.662-19.114-42.662-42.666s19.072-42.668 42.662-42.668zM981.327 618.682h-170.667c-23.59 0-42.662-19.114-42.662-42.666s19.072-42.666 42.662-42.666h170.667c23.595 0 42.667 19.114 42.667 42.666s-19.068 42.666-42.667 42.666zM981.327 362.684h-170.667c-23.59 0-42.662-19.115-42.662-42.667s19.072-42.667 42.662-42.667h170.667c23.595 0 42.667 19.115 42.667 42.667s-19.068 42.667-42.667 42.667zM981.327 106.684h-170.667c-23.59 0-42.662-19.115-42.662-42.667s19.072-42.667 42.662-42.667h170.667c23.595 0 42.667 19.115 42.667 42.667s-19.068 42.667-42.667 42.667z" />
<glyph unicode="&#xe90c;" glyph-name="lobby" horiz-adv-x="951" d="M448.511 959.305c-65.947-8.083-119.017-32.145-164.724-74.687-101.031-94.035-111.846-246.382-25.129-353.994 83.416-103.516 235.763-132.702 352.828-67.59 103.421 57.522 156.813 169.236 134.687 281.805-20.404 103.821-107.235 188.486-215.216 209.849-20.543 4.065-66.124 6.616-82.447 4.616zM253.357 405.488c-91.894-15.572-176.191-70.631-228.762-149.42-11.107-16.644-24.523-44.853-24.523-51.553 0-13.173 39.486-66.772 76.816-104.272 91.208-91.626 203.647-146.227 333.215-161.829 26.977-3.248 102.188-3.211 128.718 0.066 104.999 12.954 198.42 50.805 279.236 113.13 25.029 19.31 74.394 68.506 93.762 93.447 21.877 28.175 39.109 55.201 39.109 61.338 0 5.947-11.732 30.607-21.819 45.862-35.445 53.598-84.846 97.175-140.317 123.767-40.477 19.406-90.921 32.884-116.401 31.108-8.899-0.622-14.585-2.499-22.879-7.55-30.022-18.286-39.435-23.382-56.158-30.4-41.196-17.285-83.299-24.896-128.235-23.172-57.378 2.2-105.419 17.059-153.35 47.435-10.428 6.61-21.531 12.569-24.673 13.244-3.143 0.674-7.115 1.511-8.828 1.859-1.712 0.351-12.924-1.028-24.913-3.060z" />
<glyph unicode="&#xe90d;" glyph-name="micro" d="M840.079 430.71c0 19.963-16.184 36.147-36.142 36.147-19.963 0-36.147-16.183-36.147-36.147-0.020-141.266-114.56-255.77-255.828-255.749-141.238 0.020-255.729 114.514-255.75 255.749 0 19.963-16.183 36.147-36.146 36.147s-36.145-16.183-36.145-36.147c0.19-167.122 125.848-307.456 291.935-326.031v-96.389h-131.448c-19.962 0-36.145-16.179-36.145-36.142s16.183-36.147 36.145-36.147h335.19c19.958 0 36.142 16.184 36.142 36.147s-16.184 36.142-36.142 36.142h-131.451v96.389c166.088 18.575 291.743 158.909 291.932 326.031zM511.998 960c-111.323 0-201.571-90.246-201.571-201.572v-326.392c0.132-111.273 90.302-201.441 201.571-201.574 111.27 0.133 201.438 90.301 201.571 201.574v326.392c0 111.326-90.245 201.572-201.571 201.572z" />
<glyph unicode="&#xe90e;" glyph-name="mini-rado" horiz-adv-x="473" d="M319.008 959.376c-8.152-1.446-16.16-7.058-20.101-14.088-3.062-5.461-3.482-11.667-2.922-43.188l0.653-36.811 18.116-15.617-1.093-248.389-102.706-0.963-0.872 30.199c-1.018 35.159-2.428 38.988-16.644 45.171-15.376 6.69-30.047 3.466-41.058-9.018-3.53-4.002-4.241-8.82-5.233-35.529l-1.149-30.897-34.481 1.037-1.083 30.618c-1.151 32.558-2.136 35.93-12.284 42.046-13.297 8.013-30.751 6.573-42.137-3.478l-6.203-5.475-0.666-31.226c-0.751-35.161 0.279-33.3-18.484-33.369-9.884-0.035-20.476-4.938-25.951-12.009-3.645-4.708-3.868-17.354-4.422-250.889-0.321-135.259 0.198-270.334 1.153-300.156l1.738-54.233 7.358-10.358c8.569-12.060 23.772-24.292 36.875-29.664 16.384-6.711 38.029-7.499 189.658-6.947l144.682 0.536 12.275 4.198c8.711 2.977 16.833 7.948 27.966 17.109 25.012 20.59 22.815 0.764 24.876 224.543 0.973 105.499 2.345 195.869 3.052 200.822 1.070 7.512 2.379 9.603 7.882 12.607 3.628 1.982 8.509 6.753 10.847 10.603 3.896 6.41 4.245 10.438 4.143 47.839-0.105 38.25-0.405 41.324-4.73 48.501-2.541 4.213-7.773 9.238-11.629 11.163l-7.011 3.501-1.387 19.175c-0.762 10.545-1.389 24.925-1.394 31.953-0.009 14.722-4.16 22.296-15.399 28.095-5.548 2.864-10.767 3.586-26.085 3.611-10.533 0.017-21.304 0.521-23.938 1.117l-4.788 1.086v247.454l6.579 4.117c11.233 7.029 12.572 12.46 12.567 50.985-0.002 38.147-1.355 43.302-13.322 50.73-5.047 3.132-9.569 3.705-31.917 4.036-14.32 0.214-28.419-0.034-31.33-0.549zM329.988 511.257c1.958-0.664 5.069-3.901 6.916-7.193 2.84-5.068 3.356-14.917 3.356-64.165v-58.177l-13.601-11.878h-99.66c-78.672 0-101.101 0.51-106.506 2.422-13.575 4.803-13.231 3.006-13.231 68.866 0 75.622-3.155 69.625 37.461 71.208 35.711 1.392 180.465 0.547 185.265-1.083zM320.19 211.019c13.116-5.578 15.161-21.624 3.577-28.054-5.103-2.832-14.278-3.192-94.057-3.694-48.621-0.306-92.526-0.047-97.568 0.577-11.518 1.423-18.259 9.079-16.539 18.783 2.034 11.482 6.726 13.472 34.796 14.767 43.571 2.010 163.419 0.33 169.79-2.379zM326.613 135.146c2.824-2.773 5.134-7.073 5.134-9.539 0-6.821-5.911-15.061-12.271-17.109-8.082-2.599-100.195-4.175-150.133-2.568-39.25 1.26-42.565 1.631-47.666 5.348-4.336 3.159-5.524 5.727-5.692 12.335-0.247 9.665 3.17 13.525 13.914 15.73 3.935 0.803 48.649 1.331 99.365 1.158l92.216-0.299 5.133-5.057zM299.777 69.146c20.327-1.426 22.712-1.985 27.13-6.325 6.685-6.585 6.207-14.021-1.367-21.197l-6.206-5.884-91.142-0.551c-61.618-0.37-93.723 0.087-99.108 1.418-16.163 4.001-19.516 22.528-5.283 29.184 2.606 1.221 12.877 2.733 22.825 3.356 27.741 1.757 128.132 1.749 153.151 0z" />
<glyph unicode="&#xe90f;" glyph-name="person" horiz-adv-x="853" d="M382.554 957.441c-54.606-8.591-103.393-34.483-141.632-75.166-41.949-44.629-63.688-96.165-66.678-158.066-4.175-86.456 38.217-169.104 111.307-217.008 35.95-23.56 70.624-35.523 112.623-38.853 77.844-6.172 144.224 18.315 197.81 72.975 42.42 43.268 64.113 90.347 69.396 150.601 7.056 80.489-23.206 155.45-83.872 207.75-39.125 33.733-75.227 50.393-124.972 57.677-23.898 3.5-52.088 3.534-73.983 0.090zM200.951 463.867c-90.424-9.558-153.084-74.495-182.304-188.931-19.484-76.307-24.495-168.001-11.921-218.13 10.102-40.277 43.414-81.143 82.001-100.599 17.528-8.841 42.569-16.171 63.448-18.577 12.372-1.425 106.808-1.911 287.366-1.476l268.94 0.631 16.996 4.676c63.096 17.331 106.4 59.639 122.159 119.347 8.211 31.104 7.153 105.114-2.325 163.595-21.077 130.007-74.255 208.060-158.374 232.457-19.234 5.577-53.642 9.82-63.842 7.869-9.758-1.865-23.398-9.16-54.19-28.974-32.8-21.106-37.347-23.51-61.91-32.719-28.448-10.665-51.924-15.161-79.172-15.165-28.162-0.002-49.696 3.858-78.1 13.998-26.822 9.576-27.983 10.189-69.872 36.815-22.089 14.041-38.432 23.034-44.926 24.719-11.099 2.882-11.098 2.882-33.972 0.464z" />
<glyph unicode="&#xe910;" glyph-name="phone" horiz-adv-x="559" d="M50.392 958.493c-24.188-6.16-43.32-28.302-48.194-55.776-2.627-14.806-2.627-894.976 0-909.783 4.038-22.761 17.804-41.928 37.037-51.563l10.718-5.371h459.096l10.719 5.371c19.233 9.635 32.996 28.802 37.036 51.563 2.625 14.806 2.625 894.976 0 909.783-4.040 22.76-17.804 41.925-37.036 51.563l-10.719 5.371-225.8 0.319c-127.949 0.182-228.858-0.459-232.857-1.476zM354.455 906.565c1.424-2.847 1.424-5.166 0-8.013-1.953-3.901-3.924-4.007-74.954-4.007s-73.001 0.106-74.954 4.007c-1.424 2.847-1.424 5.166 0 8.013 1.953 3.901 3.924 4.007 74.954 4.007s73.001-0.106 74.954-4.007zM513.731 456.839v-393.635h-468.462v787.27h468.462v-393.635zM290.154 37.036c6.463-2.611 15.010-11.041 18.559-18.302 5.935-12.144 2.022-30.804-8.428-40.206-21.355-19.209-52.639-3.389-52.639 26.619 0 22.77 22.777 39.857 42.509 31.888z" />
<glyph unicode="&#xe911;" glyph-name="prise-right" horiz-adv-x="512" d="M512 448l-512 512 343.55-512-343.55-512 512 512z" />
<glyph unicode="&#xe912;" glyph-name="radio" horiz-adv-x="614" d="M572.503 929.974c0 16.582-13.445 30.026-30.029 30.026h-32.277c-16.582 0-30.025-13.443-30.025-30.026 0-11.57 6.554-21.592 16.142-26.607v-252.298h-214.42v35.885c0 16.582-13.444 30.026-30.025 30.026s-30.026-13.444-30.026-30.026v-35.885h-60.051v35.885c0 16.582-13.444 30.026-30.026 30.026s-30.025-13.444-30.025-30.026v-35.885h-30.218c-16.582 0-30.026-13.443-30.026-30.025v-538.74c0-80.799 65.504-146.304 146.306-146.304h222.443c80.802 0 146.308 65.505 146.308 146.304l-0.189 821.064c9.585 5.015 16.138 15.039 16.138 26.607zM229.679 81.178h-37.332c-16.582 0-30.025 13.445-30.025 30.029 0 16.579 13.444 30.024 30.025 30.024h37.332c16.582 0 30.026-13.445 30.026-30.024 0-16.584-13.444-30.029-30.026-30.029zM229.679 201.283h-37.332c-16.582 0-30.025 13.44-30.025 30.024s13.444 30.024 30.025 30.024h37.332c16.582 0 30.026-13.44 30.026-30.024s-13.444-30.024-30.026-30.024zM389.815 81.178h-37.332c-16.582 0-30.025 13.445-30.025 30.029 0 16.579 13.443 30.024 30.025 30.024h37.332c16.582 0 30.025-13.445 30.025-30.024 0-16.584-13.443-30.029-30.025-30.029zM389.815 201.283h-37.332c-16.582 0-30.025 13.44-30.025 30.024s13.443 30.024 30.025 30.024h37.332c16.582 0 30.025-13.44 30.025-30.024s-13.443-30.024-30.025-30.024zM435.732 351.411c0-16.584-13.443-30.029-30.025-30.029h-213.361c-16.582 0-30.026 13.445-30.026 30.029v124.652c0 16.582 13.444 30.026 30.026 30.026h213.361c16.582 0 30.025-13.444 30.025-30.026v-124.652zM222.371 446.039h153.31v-64.604h-153.31v64.604z" />
<glyph unicode="&#xe913;" glyph-name="right" d="M585.801 855.135c-6.133-5.967-9.569-14.166-9.54-22.72v-166.665c0-13.001-10.538-23.541-23.538-23.541h-521.18c-17.421 0-31.543-14.122-31.543-31.543v-324.383c0-17.425 14.122-31.545 31.543-31.545h521.18c13.001 0 23.538-10.542 23.538-23.541v-167.134c-0.324-17.419 13.528-31.807 30.942-32.137 8.721-0.165 17.118 3.288 23.205 9.535l384.176 384.177c5.934 5.844 9.318 13.798 9.415 22.129 0.028 8.495-3.362 16.64-9.415 22.599l-384.176 384.177c-12.157 12.48-32.125 12.745-44.607 0.591z" />
<glyph unicode="&#xe914;" glyph-name="shield" horiz-adv-x="948" d="M458.744 955.413c-4.504-2.476-16.469-11.993-26.587-21.155-86.082-77.95-186.095-116.541-316.375-122.072-42.803-1.819-49.028-3.703-58.512-17.716-4.832-7.14-4.927-8.072-6.501-64.388-2.263-81.021-0.5-211.494 3.407-252.126 10.942-113.764 34.735-201.549 74.377-274.399 55.446-101.894 141.667-180.26 257.738-234.257 35.626-16.57 79.686-33.3 87.707-33.3 3.43 0 18.239 4.552 32.905 10.12 95.571 36.27 173.84 86.212 233.702 149.124 90.264 94.867 136.687 210.825 153.218 382.71 3.907 40.632 5.67 171.105 3.407 252.126-1.574 56.318-1.669 57.251-6.501 64.388-9.482 14.011-15.707 15.895-58.512 17.716-131.861 5.603-235.033 46.126-321.536 126.307-24.018 22.261-35.441 25.983-51.935 16.922zM492.892 859.569c48.283-39.287 106.497-70.933 166.462-90.486 41.958-13.684 80.197-21.148 134.372-26.23 16.725-1.569 30.944-3.393 31.597-4.052 2.479-2.516 1.25-231.2-1.382-256.849-10.53-102.671-27.302-167.557-60.223-232.982-52.532-104.391-142.507-181.089-272.443-232.235l-17.279-6.802-17.279 6.802c-117.166 46.122-206.284 116.911-257.544 204.581-42.301 72.345-63.275 145.118-75.124 260.636-2.631 25.649-3.858 254.334-1.382 256.849 0.653 0.657 14.872 2.483 31.597 4.052 54.175 5.082 92.414 12.546 134.372 26.23 60.007 19.567 117.448 50.808 166.462 90.54 9.704 7.864 18.207 14.298 18.896 14.298s9.19-6.457 18.892-14.351zM606.313 579.739c-2.715-1.074-44.684-42.166-93.266-91.308l-88.327-89.357-41.025 41.243c-39.072 39.278-41.465 41.308-50.257 42.645-27.427 4.161-48.683-22.169-39.058-48.373 2.747-7.484 107.73-114.24 115.867-117.821 10.822-4.765 24.24-3.599 34.233 2.976 14.043 9.239 204.56 203.861 208.159 212.644 10.046 24.52-6.267 49.778-31.928 49.433-5.205-0.069-11.683-1.007-14.397-2.081z" />
<glyph unicode="&#xe915;" glyph-name="skull" horiz-adv-x="970" d="M641.669 155.499c-20.889-41.842-31.374-62.72-52.213-73.136-20.884-20.867-62.695-20.867-104.517-20.867-52.208 0-83.532 0-104.407 20.867-20.942 10.416-31.399 31.294-52.245 73.136 0 0-10.486 10.359-10.486 20.896l-41.81-10.535 31.388-104.363 62.66-52.315c20.846-52.213 62.689-73.182 114.897-73.182 20.886 0 52.278 10.564 62.69 20.97 20.941 10.485 41.824 31.334 52.281 52.213l62.658 52.315 31.374 104.363-41.79 10.535c-10.478-10.535-10.478-20.896-10.478-20.896zM756.698 865.915c-73.227 62.627-156.786 94.085-271.754 94.085-114.897 0-198.458-31.459-271.641-94.085-62.675-52.211-104.411-135.78-104.411-229.918 0-83.494 10.378-146.155 31.279-177.624 31.377-52.16 52.282-83.518 52.282-104.384l10.416-83.524 146.269-73.222 31.4-62.708c10.359 0 20.879 0 41.788-10.416 20.901 0 41.788 0 62.623 0 52.278 0 83.632 10.416 114.971 10.416l20.867 62.708 146.306 73.222 10.416 83.524c10.49 20.867 10.49 31.374 10.49 41.762 52.201 73.168 73.108 156.752 73.108 240.25 0 94.133-31.317 177.702-104.408 229.913zM328.291 353.985c-62.726 0-83.562 41.768-83.562 104.386 0 31.469 0 62.81 20.835 73.179 10.434 20.951 31.406 31.336 62.726 31.336 62.605 0 94.033-31.336 94.033-93.977 0-73.156-31.429-114.923-94.033-114.923zM516.375 239.086c-10.542 0-20.976 0-31.429 10.45-10.49-10.45-10.49-10.45-20.835-10.45-10.561 0-20.886 0-31.373 10.45-10.415 0-10.415 10.394-10.415 20.918 0 10.342 10.415 31.232 20.901 41.7 20.886 20.935 31.232 41.824 41.721 62.697 10.453-20.867 31.429-41.762 41.822-62.697 20.868-10.468 20.868-31.357 20.868-41.7 0-20.918-10.416-31.369-31.261-31.369zM652.159 353.985c-62.697 0-94.071 41.768-94.071 104.386 0 62.81 31.374 104.519 94.071 104.519 31.312 0 52.201-10.389 62.658-31.335 20.901-10.371 20.901-31.32 20.901-62.638-0.005-73.164-31.357-114.931-83.559-114.931z" />
<glyph unicode="&#xe916;" glyph-name="star" horiz-adv-x="1074" d="M519.937 957.503c-12.931-4.816-22.654-11.876-28.819-20.927-3.253-4.778-33.603-73.277-67.448-152.224-61.053-142.417-61.583-143.544-68.046-144.582-3.582-0.574-75.439-7.216-159.68-14.758-163.251-14.617-162.048-14.433-177.021-27.024-14.465-12.163-22.456-38.222-17.414-56.784 1.3-4.78 5.418-12.927 9.152-18.104s57.326-53.311 119.092-106.968c61.766-53.654 114.875-100.013 118.022-103.017l5.72-5.465-34.77-151.405c-22.712-98.895-34.832-155.751-34.948-163.935-0.315-22.168 11.129-40.543 31.386-50.4 14.797-7.207 32.683-7.749 46.915-1.436 5.241 2.319 58.138 33.158 117.549 68.522 59.413 35.364 118.036 70.251 130.276 77.528s23.633 13.756 25.318 14.399c1.79 0.684 58.077-31.592 135.179-77.513 72.663-43.277 136.364-80.587 141.559-82.926 14.108-6.334 32.015-5.792 46.833 1.426 20.256 9.857 31.701 28.232 31.386 50.4-0.115 8.185-12.236 65.046-34.946 163.935l-34.768 151.405 4.668 4.454c2.568 2.449 55.677 48.799 118.020 102.999 62.34 54.201 116.412 102.79 120.145 107.978 8.552 11.885 11.824 23.774 10.379 37.771-2.189 21.232-16.491 40.207-35.854 47.544-5.842 2.214-59.358 7.857-166.685 17.576-86.944 7.873-158.462 14.696-158.933 15.164s-28.864 66.117-63.099 145.89c-34.238 79.775-64.9 148.378-68.14 152.456-12.935 16.268-42.383 24.966-61.029 18.022z" />
<glyph unicode="&#xe917;" glyph-name="wallet" d="M688.666 947.708c54.38 15.536 111.059-15.95 126.59-70.328 2.617-9.149 3.944-18.617 3.944-28.132v-85.722h102.396c56.556 0 102.402-45.846 102.402-102.401v-614.398c0-56.556-45.846-102.402-102.402-102.402h-819.198c-56.554 0-102.4 45.846-102.4 102.402h1.367c-0.908 5.506-1.367 11.083-1.367 16.675v610.302c0 45.719 30.307 85.9 74.268 98.46l614.399 175.543zM416.774 46.727h504.825v614.398h-102.396v-102.401h102.396v-102.401h-102.396v-217.382c0-45.718-30.308-85.9-74.269-98.458l-328.161-93.757zM102.4 673.706v-610.303l614.4 175.547v610.3l-614.4-175.543zM614.398 558.725c0-28.277-22.924-51.199-51.198-51.199-28.28 0-51.202 22.924-51.202 51.199s22.92 51.2 51.202 51.2c28.274 0 51.198-22.924 51.198-51.2z" />
<glyph unicode="&#xe918;" glyph-name="war-left" horiz-adv-x="221" d="M0 448l221 511.064-148.29-511.064 148.29-511.064-221 511.064z" />
<glyph unicode="&#xe919;" glyph-name="war-person" horiz-adv-x="788" d="M393.845 452.777c105.093 0 190.296 103.484 190.296 231.139 0 127.657-27.973 231.141-190.296 231.141s-190.302-103.484-190.302-231.141c0-127.655 85.202-231.139 190.302-231.139zM34.412 99.856c-0.032 7.782-0.065 2.19 0 0v0zM753.265 93.775c0.102 2.135 0.035 14.785 0 0v0zM752.857 109.182c-3.525 222.381-32.568 285.746-254.813 325.856 0 0-31.285-39.864-104.202-39.864s-104.208 39.864-104.208 39.864c-219.82-39.673-250.629-102.098-254.68-318.625-0.332-17.684-0.486-18.613-0.545-16.565 0.013-3.844 0.030-10.957 0.030-23.363 0 0 52.911-106.661 359.404-106.661 306.487 0 359.404 106.661 359.404 106.661 0 7.971 0.006 13.517 0.013 17.282-0.059-1.268-0.178 1.197-0.402 15.415z" />
<glyph unicode="&#xe91a;" glyph-name="war-right" horiz-adv-x="221" d="M221.203 448l-221.405 512 148.562-512-148.562-512 221.405 512z" />
</font>
</defs>
</svg>
