<svg width="388" height="389" viewBox="0 0 388 389" fill="none" xmlns="http://www.w3.org/2000/svg">
<g opacity="0.6" filter="url(#filter0_f)">
<ellipse cx="194" cy="194.5" rx="124" ry="124.5" fill="white"/>
</g>
<g clip-path="url(#clip0)">
<path d="M205.051 122.991L202.598 103.123L209.779 102.244L212.233 122.112L205.051 122.991Z" fill="#6F7F8F"/>
<path d="M131.42 123.135L138.079 120.306L146.443 140.048L139.784 142.878L131.42 123.135Z" fill="#6F7F8F"/>
<path d="M286.981 188.592C293.627 213.393 289.596 238.574 277.719 259.207C265.854 279.827 246.162 295.9 221.465 302.518C219.746 302.978 218.028 303.388 216.305 303.745C193.3 308.53 170.247 304.231 151.093 293.136C130.49 281.206 114.409 261.415 107.764 236.613C101.122 211.825 105.151 186.655 117.014 166.026C128.052 146.831 145.869 131.571 168.199 124.209C169.869 123.656 171.562 123.152 173.281 122.692C197.987 116.072 223.089 120.152 243.677 132.086C264.266 144.021 280.339 163.804 286.981 188.592Z" fill="#E8F4F9"/>
<path d="M243.677 132.086L239.804 138.826L197.402 212.619L197.384 212.644L117.014 166.026C128.052 146.831 145.869 131.571 168.199 124.209C169.869 123.656 171.562 123.152 173.281 122.691C197.988 116.071 223.089 120.152 243.677 132.086Z" fill="#D4E3E8"/>
<path d="M277.719 259.207C265.854 279.827 246.163 295.9 221.466 302.517C219.746 302.978 218.028 303.388 216.305 303.744C193.3 308.53 170.248 304.231 151.093 293.136L197.36 212.63L197.373 212.602L277.719 259.207Z" fill="#D4E3E8"/>
<path d="M286.981 188.592C293.627 213.393 289.596 238.574 277.719 259.207C265.854 279.827 246.162 295.9 221.465 302.517C219.746 302.978 218.028 303.388 216.305 303.745C262.692 288.457 289.573 239.272 276.729 191.339C263.887 143.41 216.015 114.255 168.199 124.209C169.868 123.656 171.561 123.152 173.281 122.692C197.987 116.071 223.089 120.152 243.677 132.086C264.265 144.021 280.339 163.804 286.981 188.592Z" fill="#D4E3E8"/>
<path d="M270.996 255.307L277.719 259.207C265.854 279.827 246.162 295.9 221.465 302.517C219.746 302.978 218.028 303.388 216.305 303.745C241.187 295.543 260.454 277.588 270.996 255.307Z" fill="#B8CDD3"/>
<path d="M168.199 124.209C169.868 123.656 171.561 123.152 173.281 122.692C197.987 116.071 223.089 120.152 243.677 132.086L239.804 138.826C219.531 124.786 193.857 118.868 168.199 124.209Z" fill="#B8CDD3"/>
<path d="M248.906 42.5231L224.054 97.8288L149.497 117.806L175.98 58.8792C176.276 58.2131 176.854 57.7224 177.557 57.5338L246.076 39.1744C248.047 38.6463 249.745 40.6585 248.906 42.5231Z" fill="#F55C80"/>
<path d="M248.906 42.523L224.055 97.8288L210.015 101.591L236.887 41.6366L246.076 39.1744C248.047 38.6462 249.745 40.6585 248.906 42.523Z" fill="#CC5466"/>
<path d="M236.887 41.6368L209.931 101.613L200.9 104.033L227.847 44.059L236.887 41.6368Z" fill="#FDB8B5"/>
<path d="M199.608 51.6255L172.652 111.602L163.616 114.023L190.572 54.0465L199.608 51.6255Z" fill="#FDB8B5"/>
<path d="M265.816 194.263C275.979 232.193 253.574 271.148 215.773 281.276C214.208 281.696 212.637 282.061 211.071 282.366C174.799 289.512 138.671 267.3 128.928 230.942C119.188 194.588 139.368 157.283 174.354 145.336C175.863 144.816 177.405 144.348 178.971 143.928C216.772 133.8 255.654 156.337 265.816 194.263Z" fill="#B8CDD3"/>
<path d="M265.816 194.262C275.98 232.193 253.574 271.147 215.774 281.276C214.208 281.695 212.638 282.061 211.071 282.365C246.057 270.418 266.239 233.118 256.497 196.76C246.756 160.406 210.626 138.189 174.354 145.336C175.863 144.816 177.406 144.347 178.971 143.928C216.772 133.799 255.654 156.337 265.816 194.262Z" fill="#A5BABF"/>
<path d="M202.764 176.732C199.303 174.734 194.872 175.929 192.867 179.402L166.366 225.303C164.361 228.776 165.542 233.211 169.003 235.209C172.464 237.207 176.895 236.011 178.9 232.539L205.401 186.638C207.406 183.166 206.225 178.73 202.764 176.732Z" fill="#E8F4F9"/>
<path d="M225.743 189.999C222.282 188 217.851 189.196 215.846 192.668L189.345 238.569C187.34 242.042 188.52 246.477 191.981 248.475C195.442 250.474 199.874 249.278 201.878 245.806L228.379 199.905C230.384 196.432 229.204 191.997 225.743 189.999Z" fill="#E8F4F9"/>
<path d="M191.436 106.569L116.878 126.547L102.85 116.43L67.7487 91.1142C66.0696 89.8993 66.5463 87.2793 68.5407 86.7449L136.901 68.4279C137.665 68.2232 138.479 68.3712 139.122 68.8355L191.436 106.569Z" fill="#F55C80"/>
<path d="M191.436 106.569L116.878 126.547L102.85 116.43L144.053 105.39C151.984 103.265 153.866 92.8416 147.191 88.0257L124.589 71.7267L136.901 68.4279C137.665 68.2231 138.479 68.3712 139.123 68.8355L191.436 106.569Z" fill="#CC5466"/>
<path d="M140.038 120.341L131.002 122.762L116.974 112.645L77.6738 84.2976L86.7046 81.8778L126.009 110.224L140.038 120.341Z" fill="#FDB8B5"/>
<path d="M177.926 110.189L168.886 112.611L150.623 99.437L115.558 74.1465L124.589 71.7267L147.191 88.0257L177.926 110.189Z" fill="#FDB8B5"/>
<path d="M126.01 110.224L140.038 120.341L131.002 122.762L116.974 112.646L126.01 110.224Z" fill="#FB9E9E"/>
<path d="M177.927 110.189L168.887 112.611L150.623 99.4372C152.069 95.5696 151.092 90.8419 147.191 88.0259L177.927 110.189Z" fill="#FB9E9E"/>
<path d="M219.666 155.438C217.805 154.704 215.705 155.621 214.977 157.487C214.249 159.354 215.168 161.463 217.029 162.197C222.198 164.237 227.009 167.049 231.331 170.556C232.268 171.317 233.467 171.532 234.547 171.243C235.26 171.052 235.921 170.64 236.42 170.02C237.675 168.461 237.431 166.174 235.876 164.912C230.978 160.938 225.525 157.75 219.666 155.438Z" fill="#D4E3E8"/>
<path d="M150.035 173.558C145.86 178.662 142.545 184.38 140.182 190.553C139.466 192.424 140.399 194.527 142.265 195.249C143.007 195.537 143.785 195.563 144.499 195.372C145.578 195.082 146.509 194.296 146.94 193.169C149.025 187.721 151.95 182.676 155.634 178.173C156.901 176.624 156.675 174.336 155.128 173.061C153.583 171.786 151.303 172.008 150.035 173.558Z" fill="#D4E3E8"/>
<path d="M252.479 229.955C250.613 229.232 248.52 230.164 247.803 232.035C245.815 237.233 243.053 242.074 239.597 246.426C238.352 247.992 238.611 250.278 240.175 251.53C241.11 252.279 242.3 252.489 243.372 252.201C244.093 252.008 244.76 251.59 245.261 250.96C249.178 246.029 252.307 240.542 254.562 234.651C255.278 232.78 254.345 230.677 252.479 229.955Z" fill="#D4E3E8"/>
<path d="M178.441 263.288C172.999 261.23 167.943 258.323 163.414 254.647C161.858 253.386 159.58 253.624 158.325 255.184C157.07 256.743 157.313 259.029 158.869 260.292C164.002 264.457 169.732 267.752 175.9 270.084C176.635 270.362 177.404 270.385 178.108 270.196C179.197 269.905 180.133 269.107 180.559 267.968C181.26 266.091 180.312 263.995 178.441 263.288Z" fill="#D4E3E8"/>
<path d="M183.354 160.283C185.284 159.766 186.428 157.776 185.909 155.838C185.389 153.9 183.404 152.748 181.473 153.265C179.543 153.782 178.399 155.773 178.919 157.711C179.438 159.649 181.424 160.8 183.354 160.283Z" fill="#D4E3E8"/>
<path d="M165.225 168.749C167.155 168.232 168.299 166.242 167.78 164.304C167.26 162.366 165.275 161.214 163.344 161.731C161.414 162.248 160.271 164.239 160.79 166.177C161.309 168.115 163.295 169.267 165.225 168.749Z" fill="#D4E3E8"/>
<path d="M203.286 158.55C205.217 158.033 206.36 156.043 205.841 154.105C205.322 152.167 203.336 151.015 201.406 151.532C199.476 152.049 198.332 154.04 198.851 155.978C199.371 157.916 201.356 159.068 203.286 158.55Z" fill="#D4E3E8"/>
<path d="M213.272 271.939C215.202 271.422 216.346 269.431 215.826 267.493C215.307 265.555 213.322 264.404 211.391 264.921C209.461 265.438 208.317 267.428 208.837 269.366C209.356 271.304 211.342 272.456 213.272 271.939Z" fill="#D4E3E8"/>
<path d="M193.339 273.671C195.269 273.154 196.413 271.164 195.893 269.226C195.374 267.288 193.388 266.136 191.458 266.653C189.528 267.17 188.384 269.161 188.904 271.099C189.423 273.037 191.409 274.188 193.339 273.671Z" fill="#D4E3E8"/>
<path d="M231.4 263.473C233.33 262.956 234.474 260.966 233.955 259.028C233.436 257.09 231.45 255.938 229.52 256.455C227.59 256.972 226.446 258.963 226.965 260.901C227.484 262.839 229.47 263.99 231.4 263.473Z" fill="#D4E3E8"/>
<path d="M253.952 201.204C255.882 200.687 257.025 198.697 256.506 196.759C255.987 194.821 254.001 193.669 252.071 194.186C250.141 194.703 248.997 196.694 249.516 198.632C250.036 200.57 252.021 201.721 253.952 201.204Z" fill="#D4E3E8"/>
<path d="M245.478 182.995C247.409 182.478 248.552 180.487 248.033 178.549C247.514 176.611 245.528 175.46 243.598 175.977C241.668 176.494 240.524 178.484 241.043 180.422C241.563 182.36 243.548 183.512 245.478 182.995Z" fill="#D4E3E8"/>
<path d="M255.719 221.21C257.649 220.693 258.793 218.703 258.273 216.765C257.754 214.827 255.768 213.675 253.838 214.192C251.908 214.709 250.764 216.7 251.284 218.638C251.803 220.576 253.788 221.727 255.719 221.21Z" fill="#D4E3E8"/>
<path d="M142.746 231.002C144.677 230.484 145.82 228.494 145.301 226.556C144.782 224.618 142.796 223.466 140.866 223.983C138.936 224.501 137.792 226.491 138.311 228.429C138.831 230.367 140.816 231.519 142.746 231.002Z" fill="#D4E3E8"/>
<path d="M140.98 210.995C142.91 210.478 144.054 208.488 143.534 206.55C143.015 204.612 141.03 203.46 139.099 203.977C137.169 204.494 136.025 206.485 136.545 208.423C137.064 210.361 139.05 211.512 140.98 210.995Z" fill="#D4E3E8"/>
<path d="M151.219 249.211C153.149 248.694 154.293 246.704 153.774 244.766C153.254 242.828 151.269 241.676 149.339 242.193C147.408 242.71 146.265 244.7 146.784 246.638C147.303 248.576 149.289 249.728 151.219 249.211Z" fill="#D4E3E8"/>
<path d="M232.434 91.8213L106.618 125.534C104.688 126.051 103.544 128.041 104.063 129.979C104.583 131.917 106.568 133.069 108.498 132.552L234.314 98.8394C236.244 98.3222 237.388 96.3318 236.869 94.3939C236.349 92.456 234.364 91.3042 232.434 91.8213Z" fill="#A5BABF"/>
</g>
<defs>
<filter id="filter0_f" x="0" y="0" width="388" height="389" filterUnits="userSpaceOnUse" color-interpolation-filters="sRGB">
<feFlood flood-opacity="0" result="BackgroundImageFix"/>
<feBlend mode="normal" in="SourceGraphic" in2="BackgroundImageFix" result="shape"/>
<feGaussianBlur stdDeviation="35" result="effect1_foregroundBlur"/>
</filter>
<clipPath id="clip0">
<rect width="247" height="248" fill="white" transform="translate(38 94.9282) rotate(-15)"/>
</clipPath>
</defs>
</svg>
