<svg width="388" height="389" viewBox="0 0 388 389" fill="none" xmlns="http://www.w3.org/2000/svg">
<g opacity="0.6" filter="url(#filter0_f)">
<ellipse cx="194" cy="194.5" rx="124" ry="124.5" fill="#FFCB44"/>
</g>
<g clip-path="url(#clip0)">
<path d="M271.356 110.692L280.911 138.927C302.096 201.524 284.311 270.681 235.525 315.198C169.732 309.458 113.603 265.315 92.4186 202.718L82.8629 174.483C100.51 168.511 109.985 149.341 104.013 131.694L228.567 89.5415C234.539 107.189 253.709 116.664 271.356 110.692Z" fill="#FEE218"/>
<path opacity="0.3" d="M176.362 123.45C178.798 129.531 185.878 132.28 192.074 130.183L241.908 113.318C247.541 111.411 253.196 114.771 255.064 120.289C255.064 120.289 255.064 120.289 255.103 120.404C255.142 120.519 255.142 120.519 255.142 120.519C257.048 126.152 254.557 132.14 248.924 134.047L179.882 157.412C173.239 159.661 169.927 166.931 172.399 173.499C174.98 179.652 182.061 182.401 188.371 180.265L254.6 157.852C260.233 155.945 266.411 158.999 268.203 164.671L268.242 164.786L268.586 165.425C270.378 170.719 267.47 176.592 262.176 178.384L174.886 207.925C168.242 210.173 164.931 217.444 167.403 224.012C169.954 230.054 177.034 232.803 183.338 230.669L255.161 206.362C260.455 204.571 266.141 207.663 267.561 212.955L267.867 213.856C269.773 219.112 266.867 224.991 261.458 226.821L212.27 243.468C205.965 245.602 202.539 252.533 204.672 258.838C206.806 265.142 213.477 268.536 219.712 266.554L242.704 258.773C248.9 256.676 256.128 259.503 258.562 265.578C261.149 272.106 257.722 279.416 251.079 281.664L225.829 290.209C219.301 292.419 215.874 299.728 218.461 306.257C220.897 312.338 227.977 315.087 234.282 312.953L239.697 311.121C285.24 266.519 301.469 199.67 280.912 138.927L271.356 110.692C254.534 116.385 236.464 107.948 229.624 91.8634L183.734 107.394C177.2 109.605 173.743 116.804 176.362 123.45Z" fill="white"/>
<path d="M228.341 293.97C174.489 285.906 129.238 248.344 111.6 196.227L107.272 183.439C118.314 173.909 125.093 160.206 125.959 145.646L219.611 113.951C229.141 124.993 242.844 131.771 257.408 132.629L261.736 145.417C279.367 197.536 266.229 254.859 228.341 293.97Z" fill="#FDBC4B"/>
<path d="M107.273 183.439L111.601 196.227C127.226 242.397 164.529 277.091 210.275 290.029L228.031 284.02C232.929 282.362 235.999 277.325 234.634 272.428C233.15 267.18 227.589 264.287 222.518 266.003L189.027 277.338C183.867 279.084 178.306 276.191 176.822 270.943C175.457 266.046 178.586 260.889 183.394 259.262L227.922 244.193C232.699 242.476 235.216 237.235 233.56 232.343C231.905 227.452 226.52 224.785 221.622 226.442L168.527 244.411C164.326 245.833 159.763 243.572 158.463 239.437C156.559 233.81 158.935 230.113 162.765 228.817L233.443 204.897C238.341 203.239 241.411 198.203 240.135 193.275C238.562 188.057 233.09 185.134 227.93 186.881L160.135 209.824C156.261 211.135 151.778 209.617 149.947 204.208C148.377 199.865 150.75 195.064 155.124 193.583L206.563 176.175C211.461 174.518 214.531 169.481 213.225 164.464C211.651 159.246 206.18 156.323 201.02 158.069L147.394 176.218C143.02 177.698 138.661 175.175 137.181 170.802C137.187 170.8 137.116 170.631 137.122 170.629C135.672 166.345 137.574 161.604 141.947 160.124L180.65 147.026C185.458 145.399 188.534 140.36 187.169 135.463C185.655 130.125 180.124 127.322 175.054 129.038L125.961 145.652C125.093 160.205 118.314 173.909 107.273 183.439Z" fill="#F7B343"/>
<path d="M176.724 141.449L204.957 179.327L249.708 164.182L222.41 202.745L250.643 240.622L205.532 226.571L178.225 265.13L177.653 217.892L132.546 203.833L177.297 188.688L176.724 141.449Z" fill="#F3F3F3"/>
<path d="M176.724 141.449L197.283 202.198L204.957 179.327L176.724 141.449Z" fill="white"/>
<path d="M197.283 202.198L249.708 164.182L222.41 202.744L197.283 202.198Z" fill="white"/>
<path d="M197.283 202.198L250.643 240.622L205.532 226.571L197.283 202.198Z" fill="white"/>
<path d="M197.283 202.198L177.652 217.892L178.225 265.13L197.283 202.198Z" fill="white"/>
<path d="M132.546 203.833L177.297 188.688L197.283 202.198L132.546 203.833Z" fill="white"/>
</g>
<defs>
<filter id="filter0_f" x="0" y="0" width="388" height="389" filterUnits="userSpaceOnUse" color-interpolation-filters="sRGB">
<feFlood flood-opacity="0" result="BackgroundImageFix"/>
<feBlend mode="normal" in="SourceGraphic" in2="BackgroundImageFix" result="shape"/>
<feGaussianBlur stdDeviation="35" result="effect1_foregroundBlur"/>
</filter>
<clipPath id="clip0">
<rect width="215.978" height="215.978" fill="white" transform="translate(64 145.235) rotate(-18.6972)"/>
</clipPath>
</defs>
</svg>
