<svg width="894" height="344" viewBox="0 0 894 344" fill="none" xmlns="http://www.w3.org/2000/svg">
<path fill-rule="evenodd" clip-rule="evenodd" d="M674 54C701.614 54 724 31.6142 724 4H894V344H724C724 316.386 701.614 294 674 294C646.386 294 624 316.386 624 344H50C50 316.386 27.6142 294 0 294V265C7.1797 265 13 259.18 13 252C13 244.82 7.1797 239 0 239V226C7.1797 226 13 220.18 13 213C13 205.82 7.1797 200 0 200V187C7.1797 187 13 181.18 13 174C13 166.82 7.1797 161 0 161V148C7.1797 148 13 142.18 13 135C13 127.82 7.1797 122 0 122V109C7.1797 109 13 103.18 13 96C13 88.8203 7.1797 83 0 83V54C27.6142 54 50 31.6142 50 4H624C624 31.6142 646.386 54 674 54ZM674 265C681.18 265 687 259.18 687 252C687 244.82 681.18 239 674 239C666.82 239 661 244.82 661 252C661 259.18 666.82 265 674 265ZM674 226C681.18 226 687 220.18 687 213C687 205.82 681.18 200 674 200C666.82 200 661 205.82 661 213C661 220.18 666.82 226 674 226ZM674 187C681.18 187 687 181.18 687 174C687 166.82 681.18 161 674 161C666.82 161 661 166.82 661 174C661 181.18 666.82 187 674 187ZM674 148C681.18 148 687 142.18 687 135C687 127.82 681.18 122 674 122C666.82 122 661 127.82 661 135C661 142.18 666.82 148 674 148ZM674 109C681.18 109 687 103.18 687 96C687 88.8203 681.18 83 674 83C666.82 83 661 88.8203 661 96C661 103.18 666.82 109 674 109Z" fill="black"/>
<path fill-rule="evenodd" clip-rule="evenodd" d="M674 50C701.614 50 724 27.6142 724 0H894V340H724C724 312.386 701.614 290 674 290C646.386 290 624 312.386 624 340H50C50 312.386 27.6142 290 0 290V261C7.1797 261 13 255.18 13 248C13 240.82 7.1797 235 0 235V222C7.1797 222 13 216.18 13 209C13 201.82 7.1797 196 0 196V183C7.1797 183 13 177.18 13 170C13 162.82 7.1797 157 0 157V144C7.1797 144 13 138.18 13 131C13 123.82 7.1797 118 0 118V105C7.1797 105 13 99.1797 13 92C13 84.8203 7.1797 79 0 79V50C27.6142 50 50 27.6142 50 0H624C624 27.6142 646.386 50 674 50ZM674 261C681.18 261 687 255.18 687 248C687 240.82 681.18 235 674 235C666.82 235 661 240.82 661 248C661 255.18 666.82 261 674 261ZM674 222C681.18 222 687 216.18 687 209C687 201.82 681.18 196 674 196C666.82 196 661 201.82 661 209C661 216.18 666.82 222 674 222ZM674 183C681.18 183 687 177.18 687 170C687 162.82 681.18 157 674 157C666.82 157 661 162.82 661 170C661 177.18 666.82 183 674 183ZM674 144C681.18 144 687 138.18 687 131C687 123.82 681.18 118 674 118C666.82 118 661 123.82 661 131C661 138.18 666.82 144 674 144ZM674 105C681.18 105 687 99.1797 687 92C687 84.8203 681.18 79 674 79C666.82 79 661 84.8203 661 92C661 99.1797 666.82 105 674 105Z" fill="url(#paint0_linear)"/>
<rect x="819" y="262" width="69" height="2.76" transform="rotate(180 819 262)" fill="black"/>
<rect x="819" y="256.48" width="69" height="5.52" transform="rotate(180 819 256.48)" fill="black"/>
<rect x="819" y="248.2" width="69" height="5.52" transform="rotate(180 819 248.2)" fill="black"/>
<rect x="819" y="239.92" width="69" height="2.76" transform="rotate(180 819 239.92)" fill="black"/>
<rect x="819" y="231.64" width="69" height="2.76" transform="rotate(180 819 231.64)" fill="black"/>
<rect x="819" y="226.12" width="69" height="2.76" transform="rotate(180 819 226.12)" fill="black"/>
<rect x="819" y="220.6" width="69" height="2.76" transform="rotate(180 819 220.6)" fill="black"/>
<rect x="819" y="215.08" width="69" height="2.76" transform="rotate(180 819 215.08)" fill="black"/>
<rect x="819" y="209.56" width="69" height="2.76" transform="rotate(180 819 209.56)" fill="black"/>
<rect x="819" y="204.04" width="69" height="20.7" transform="rotate(180 819 204.04)" fill="black"/>
<rect x="819" y="180.58" width="69" height="4.14" transform="rotate(180 819 180.58)" fill="black"/>
<rect x="819" y="173.68" width="69" height="4.14" transform="rotate(180 819 173.68)" fill="black"/>
<rect x="819" y="166.78" width="69" height="4.14" transform="rotate(180 819 166.78)" fill="black"/>
<rect x="819" y="159.88" width="69" height="4.14" transform="rotate(180 819 159.88)" fill="black"/>
<rect x="819" y="154.36" width="69" height="2.76" transform="rotate(180 819 154.36)" fill="black"/>
<rect x="819" y="148.84" width="69" height="2.76" transform="rotate(180 819 148.84)" fill="black"/>
<rect x="819" y="143.32" width="69" height="2.76" transform="rotate(180 819 143.32)" fill="black"/>
<rect x="819" y="137.8" width="69" height="2.76" transform="rotate(180 819 137.8)" fill="black"/>
<rect x="819" y="132.28" width="69" height="53.82" transform="rotate(180 819 132.28)" fill="black"/>
<path d="M832.834 230.126C833.314 229.63 834.002 229.382 834.898 229.382C835.794 229.382 836.51 229.642 837.046 230.162C837.574 230.682 837.838 231.386 837.838 232.274C837.838 233.354 837.454 234.27 836.686 235.022C836.614 235.078 836.55 235.078 836.494 235.022L836.002 234.542C835.938 234.486 835.942 234.422 836.014 234.35C836.598 233.726 836.89 233.026 836.89 232.25C836.89 231.658 836.714 231.202 836.362 230.882C836.01 230.554 835.526 230.39 834.91 230.39C833.678 230.39 833.062 230.998 833.062 232.214C833.062 232.934 833.282 233.526 833.722 233.99C833.778 234.046 833.794 234.106 833.77 234.17L833.566 234.746C833.542 234.826 833.49 234.866 833.41 234.866L829.282 234.71C829.194 234.71 829.15 234.662 829.15 234.566L829.15 229.958C829.15 229.862 829.194 229.814 829.282 229.814L829.954 229.814C830.042 229.814 830.086 229.862 830.086 229.958L830.086 233.81L832.654 233.906C832.294 233.41 832.114 232.818 832.114 232.13C832.114 231.29 832.354 230.622 832.834 230.126ZM832.834 215.772C833.314 215.276 834.002 215.028 834.898 215.028C835.794 215.028 836.51 215.288 837.046 215.808C837.574 216.328 837.838 217.032 837.838 217.92C837.838 219 837.454 219.916 836.686 220.668C836.614 220.724 836.55 220.724 836.494 220.668L836.002 220.188C835.938 220.132 835.942 220.068 836.014 219.996C836.598 219.372 836.89 218.672 836.89 217.896C836.89 217.304 836.714 216.848 836.362 216.528C836.01 216.2 835.526 216.036 834.91 216.036C833.678 216.036 833.062 216.644 833.062 217.86C833.062 218.58 833.282 219.172 833.722 219.636C833.778 219.692 833.794 219.752 833.77 219.816L833.566 220.392C833.542 220.472 833.49 220.512 833.41 220.512L829.282 220.356C829.194 220.356 829.15 220.308 829.15 220.212L829.15 215.604C829.15 215.508 829.194 215.46 829.282 215.46L829.954 215.46C830.042 215.46 830.086 215.508 830.086 215.604L830.086 219.456L832.654 219.552C832.294 219.056 832.114 218.464 832.114 217.776C832.114 216.936 832.354 216.268 832.834 215.772ZM832.834 191.283C833.314 190.787 834.002 190.539 834.898 190.539C835.794 190.539 836.51 190.799 837.046 191.319C837.574 191.839 837.838 192.543 837.838 193.431C837.838 194.511 837.454 195.427 836.686 196.179C836.614 196.235 836.55 196.235 836.494 196.179L836.002 195.699C835.938 195.643 835.942 195.579 836.014 195.507C836.598 194.883 836.89 194.183 836.89 193.407C836.89 192.815 836.714 192.359 836.362 192.039C836.01 191.711 835.526 191.547 834.91 191.547C833.678 191.547 833.062 192.155 833.062 193.371C833.062 194.091 833.282 194.683 833.722 195.147C833.778 195.203 833.794 195.263 833.77 195.327L833.566 195.903C833.542 195.983 833.49 196.023 833.41 196.023L829.282 195.867C829.194 195.867 829.15 195.819 829.15 195.723L829.15 191.115C829.15 191.019 829.194 190.971 829.282 190.971L829.954 190.971C830.042 190.971 830.086 191.019 830.086 191.115L830.086 194.967L832.654 195.063C832.294 194.567 832.114 193.975 832.114 193.287C832.114 192.447 832.354 191.779 832.834 191.283ZM832.834 176.928C833.314 176.432 834.002 176.184 834.898 176.184C835.794 176.184 836.51 176.444 837.046 176.964C837.574 177.484 837.838 178.188 837.838 179.076C837.838 180.156 837.454 181.072 836.686 181.824C836.614 181.88 836.55 181.88 836.494 181.824L836.002 181.344C835.938 181.288 835.942 181.224 836.014 181.152C836.598 180.528 836.89 179.828 836.89 179.052C836.89 178.46 836.714 178.004 836.362 177.684C836.01 177.356 835.526 177.192 834.91 177.192C833.678 177.192 833.062 177.8 833.062 179.016C833.062 179.736 833.282 180.328 833.722 180.792C833.778 180.848 833.794 180.908 833.77 180.972L833.566 181.548C833.542 181.628 833.49 181.668 833.41 181.668L829.282 181.512C829.194 181.512 829.15 181.464 829.15 181.368L829.15 176.76C829.15 176.664 829.194 176.616 829.282 176.616L829.954 176.616C830.042 176.616 830.086 176.664 830.086 176.76L830.086 180.612L832.654 180.708C832.294 180.212 832.114 179.62 832.114 178.932C832.114 178.092 832.354 177.424 832.834 176.928ZM835.27 151.371C836.07 151.371 836.702 151.647 837.166 152.199C837.63 152.743 837.862 153.467 837.862 154.371C837.862 155.283 837.63 156.015 837.166 156.567C836.702 157.111 836.07 157.383 835.27 157.383C834.814 157.383 834.398 157.263 834.022 157.023C833.646 156.775 833.374 156.427 833.206 155.979C832.854 156.763 832.222 157.155 831.31 157.155C830.662 157.155 830.118 156.899 829.678 156.387C829.238 155.867 829.018 155.195 829.018 154.371C829.018 153.555 829.238 152.891 829.678 152.379C830.118 151.859 830.662 151.599 831.31 151.599C832.222 151.599 832.854 151.991 833.206 152.775C833.374 152.327 833.646 151.983 834.022 151.743C834.398 151.495 834.814 151.371 835.27 151.371ZM835.258 156.375C835.754 156.375 836.158 156.195 836.47 155.835C836.774 155.475 836.926 154.987 836.926 154.371C836.926 153.755 836.774 153.271 836.47 152.919C836.158 152.559 835.754 152.379 835.258 152.379C834.794 152.379 834.422 152.559 834.142 152.919C833.862 153.279 833.722 153.763 833.722 154.371C833.722 154.987 833.862 155.475 834.142 155.835C834.422 156.195 834.794 156.375 835.258 156.375ZM831.346 156.159C831.802 156.159 832.162 156.003 832.426 155.691C832.69 155.379 832.822 154.939 832.822 154.371C832.822 153.803 832.69 153.367 832.426 153.063C832.162 152.751 831.802 152.595 831.346 152.595C830.914 152.595 830.574 152.755 830.326 153.075C830.078 153.387 829.954 153.819 829.954 154.371C829.954 154.923 830.078 155.359 830.326 155.679C830.566 155.999 830.906 156.159 831.346 156.159ZM837.73 140.171L837.73 140.879C837.73 140.975 837.686 141.023 837.598 141.023L830.338 141.023L831.322 142.499C831.37 142.579 831.358 142.643 831.286 142.691L830.734 143.027C830.67 143.083 830.606 143.071 830.542 142.991L829.198 140.963C829.166 140.907 829.15 140.847 829.15 140.783L829.15 140.171C829.15 140.075 829.194 140.027 829.282 140.027L837.598 140.027C837.686 140.027 837.73 140.075 837.73 140.171ZM831.886 130.95C831.03 130.95 830.338 130.686 829.81 130.158C829.282 129.63 829.018 128.946 829.018 128.106C829.018 127.266 829.274 126.582 829.786 126.054C830.298 125.518 830.97 125.25 831.802 125.25L835.078 125.25C835.958 125.25 836.642 125.522 837.13 126.066C837.618 126.602 837.862 127.27 837.862 128.07C837.862 129.014 837.514 129.854 836.818 130.59C836.754 130.654 836.69 130.658 836.626 130.602L836.086 130.206C836.014 130.158 836.01 130.094 836.074 130.014C836.634 129.438 836.914 128.794 836.914 128.082C836.914 127.562 836.758 127.126 836.446 126.774C836.126 126.422 835.686 126.246 835.126 126.246L833.782 126.246C834.342 126.71 834.622 127.362 834.622 128.202C834.622 129.058 834.386 129.73 833.914 130.218C833.434 130.706 832.758 130.95 831.886 130.95ZM831.874 129.954C833.082 129.954 833.686 129.342 833.686 128.118C833.686 127.606 833.538 127.166 833.242 126.798C832.938 126.43 832.506 126.246 831.946 126.246L831.802 126.246C831.234 126.246 830.786 126.418 830.458 126.762C830.122 127.098 829.954 127.55 829.954 128.118C829.954 128.686 830.126 129.134 830.47 129.462C830.806 129.79 831.274 129.954 831.874 129.954ZM835.03 110.492C835.958 110.492 836.662 110.768 837.142 111.32C837.622 111.872 837.862 112.548 837.862 113.348C837.862 114.156 837.622 114.84 837.142 115.4C836.662 115.952 835.958 116.228 835.03 116.228L831.826 116.228C830.906 116.228 830.21 115.952 829.738 115.4C829.258 114.84 829.018 114.156 829.018 113.348C829.018 112.548 829.258 111.872 829.738 111.32C830.21 110.768 830.906 110.492 831.826 110.492L835.03 110.492ZM835.066 115.232C835.69 115.232 836.154 115.052 836.458 114.692C836.754 114.332 836.902 113.884 836.902 113.348C836.902 112.82 836.754 112.38 836.458 112.028C836.154 111.668 835.69 111.488 835.066 111.488L831.862 111.488C831.214 111.488 830.738 111.664 830.434 112.016C830.13 112.368 829.978 112.812 829.978 113.348C829.978 113.892 830.13 114.344 830.434 114.704C830.738 115.056 831.214 115.232 831.862 115.232L835.066 115.232Z" fill="black"/>
<rect x="63" y="67" width="576" height="216" rx="56" fill="black"/>
<rect x="63" y="73" width="576" height="216" rx="56" fill="#1D1D1D"/>
<defs>
<linearGradient id="paint0_linear" x1="447" y1="0" x2="447" y2="340" gradientUnits="userSpaceOnUse">
<stop stop-color="#EAEAEA"/>
<stop offset="0.563689" stop-color="#A4A4A4"/>
<stop offset="1" stop-color="#3D3D3D"/>
</linearGradient>
</defs>
</svg>
