<svg width="100" height="60" viewBox="0 0 100 60" fill="none" xmlns="http://www.w3.org/2000/svg">
<path d="M70.8327 26.2499H29.166V17.9166C29.166 17.3641 29.3855 16.8341 29.7762 16.4434C30.1669 16.0527 30.6968 15.8333 31.2493 15.8333H68.7494C69.3019 15.8333 69.8318 16.0527 70.2225 16.4434C70.6132 16.8341 70.8327 17.3641 70.8327 17.9166V26.2499Z" fill="#FF5959"/>
<path d="M70.8346 30.4167V51.2501C70.8346 51.8026 70.6151 52.3325 70.2244 52.7232C69.8337 53.1139 69.3038 53.3334 68.7513 53.3334H31.2513C30.6988 53.3334 30.1689 53.1139 29.7782 52.7232C29.3875 52.3325 29.168 51.8026 29.168 51.2501V30.4167H70.8346ZM56.2513 42.9167V47.0834H64.5846V42.9167H56.2513Z" fill="white"/>
<rect width="9.8995" height="9.8995" rx="1" transform="matrix(-0.707107 0.707107 0.707107 0.707107 11 6)" fill="#FF5959" fill-opacity="0.4"/>
<rect width="5.9397" height="5.9397" rx="1" transform="matrix(-0.707107 0.707107 0.707107 0.707107 11 8.80029)" fill="#FF5959"/>
<rect width="7.07107" height="7.07107" rx="1" transform="matrix(-0.707107 0.707107 0.707107 0.707107 90 46)" fill="#FF5959" fill-opacity="0.4"/>
<rect width="4.24264" height="4.24264" rx="1" transform="matrix(-0.707107 0.707107 0.707107 0.707107 90 48.0002)" fill="#FF5959"/>
</svg>
