<svg width="15" height="19" viewBox="0 0 15 19" fill="none" xmlns="http://www.w3.org/2000/svg">
<path d="M2.10417 12.5833H10.5833C10.7878 12.5833 10.9838 12.5021 11.1284 12.3576C11.273 12.213 11.3542 12.0169 11.3542 11.8125C11.3542 11.6081 11.273 11.412 11.1284 11.2674C10.9838 11.1229 10.7878 11.0417 10.5833 11.0417H4.41667C3.39448 11.0417 2.41416 10.6356 1.69136 9.91281C0.968563 9.19001 0.5625 8.20969 0.5625 7.1875C0.5625 6.16531 0.968563 5.18499 1.69136 4.46219C2.41416 3.7394 3.39448 3.33333 4.41667 3.33333H5.95833V0.25H9.04167V3.33333H12.8958V6.41667H4.41667C4.21223 6.41667 4.01616 6.49788 3.8716 6.64244C3.72705 6.787 3.64583 6.98306 3.64583 7.1875C3.64583 7.39194 3.72705 7.588 3.8716 7.73256C4.01616 7.87712 4.21223 7.95833 4.41667 7.95833H10.5833C11.6055 7.95833 12.5858 8.3644 13.3086 9.08719C14.0314 9.80999 14.4375 10.7903 14.4375 11.8125C14.4375 12.8347 14.0314 13.815 13.3086 14.5378C12.5858 15.2606 11.6055 15.6667 10.5833 15.6667H9.04167V18.75H5.95833V15.6667H2.10417V12.5833Z" fill="#FF5959"/>
</svg>
