<svg width="130" height="118" viewBox="0 0 130 118" fill="none" xmlns="http://www.w3.org/2000/svg">
<path d="M92.8701 66.471C94.9901 70.9287 91.9534 75.9578 89.4323 78.301C87.1405 80.4726 84.6768 81.0441 81.9266 81.7299C75.7386 83.273 70.7538 81.9585 67.6598 81.1013C64.0501 80.1298 60.9562 79.2725 60.3832 77.0437C59.9249 75.3292 61.0708 73.1575 62.6751 72.0145C66.6285 69.2142 70.9257 74.1862 76.2542 72.3003C82.1557 70.1857 82.0411 62.242 86.6821 61.9562C89.4323 61.7848 91.8961 64.4137 92.8701 66.471Z" fill="#481C23"/>
<path d="M129.198 98.4751C125.875 105.562 113.213 105.447 111.838 105.447C110.921 105.447 96.7114 105.219 94.4769 98.4751C93.732 96.3034 94.1904 93.2173 95.9666 91.4457C98.4876 88.9311 101.983 90.5885 111.838 91.5029C122.896 92.4744 128.453 91.2171 129.771 94.246C130.402 95.9034 129.542 97.675 129.198 98.4751Z" fill="#481C23"/>
<path d="M92.2422 69.2715V71.7861C92.2422 74.1864 90.6379 76.6438 87.4293 78.4726C80.9548 82.1873 70.4123 82.1873 63.9379 78.4726C60.672 76.5867 59.0104 74.1292 59.0104 71.6718V69.1572C59.0104 71.6147 60.6147 74.0721 63.9379 75.958C70.4696 79.6727 80.9548 79.6727 87.4293 75.958C90.6379 74.0721 92.2422 71.6718 92.2422 69.2715Z" fill="#EC8926"/>
<path d="M87.3713 62.4706C93.9031 66.1853 93.9031 72.2432 87.4286 75.9579C80.9542 79.6726 70.4117 79.6726 63.9372 75.9579C57.4054 72.2432 57.4055 66.1853 63.8799 62.4706C70.2971 58.7559 80.8396 58.7559 87.3713 62.4706Z" fill="#F8B617"/>
<path d="M82.8446 66.6425C84.1624 67.3854 84.7926 68.1855 84.8499 69.0428C84.9072 69.9 84.277 70.8144 83.0165 71.7859L84.4489 72.586L82.3862 73.7862L80.9538 72.9861C80.0943 73.4433 79.1776 73.8433 78.2036 74.1291C77.1723 74.4148 76.0836 74.6434 74.9377 74.7577L72.9897 72.0145C74.1356 71.9574 75.2242 71.7859 76.1409 71.5573C77.115 71.3287 77.9171 70.9859 78.6046 70.643C79.0057 70.4144 79.2922 70.1858 79.3495 69.9572C79.4641 69.7286 79.3495 69.5571 79.1203 69.4428C78.9484 69.3285 78.6619 69.3285 78.3182 69.3857C78.0317 69.4428 77.4014 69.6143 76.4847 69.9572L74.9377 70.5287C73.7344 70.9858 72.5313 71.2144 71.2708 71.1573C70.0675 71.1001 68.9789 70.8144 68.0621 70.2429C66.9735 69.6143 66.4579 68.9285 66.5152 68.0712C66.5152 67.214 67.0881 66.4139 68.234 65.6138L66.9162 64.8708L68.9789 63.6707L70.2967 64.4136C71.7291 63.6707 73.3334 63.1564 75.1096 62.8706L76.943 65.4995C75.0523 65.7281 73.6772 66.1281 72.875 66.5853C72.4739 66.8139 72.1875 67.0425 72.1302 67.2711C72.0156 67.4997 72.1302 67.6712 72.3593 67.8426C72.7031 68.0712 73.5626 67.8998 74.8231 67.3283C74.8804 67.3283 74.8804 67.3283 74.9377 67.2711L75.0523 67.214L76.4847 66.6425C77.7452 66.1281 78.8911 65.8996 80.037 65.8996C80.9538 65.8996 81.9851 66.1281 82.8446 66.6425Z" fill="#EC8923"/>
<path d="M67.3187 69.7287C67.5479 69.9002 67.777 70.0145 67.9489 70.1288C68.0635 70.1859 68.1781 70.2431 68.2927 70.3002C68.4073 70.3574 68.5219 70.4145 68.6365 70.4145C68.8656 70.5288 69.0949 70.586 69.3813 70.6431C69.6105 70.7003 69.8397 70.7575 70.1262 70.7575C70.3554 70.8146 70.6418 70.8146 70.871 70.8146C71.1002 70.8146 71.3867 70.8146 71.6159 70.8146L72.3607 70.7575L73.1056 70.6431L73.8505 70.4717C74.0796 70.4146 74.3088 70.3002 74.538 70.2431L75.9704 69.7287C76.1996 69.6716 76.4861 69.5573 76.7153 69.5002C76.9445 69.443 77.2309 69.3287 77.4601 69.2715C77.6893 69.2144 77.9758 69.1573 78.205 69.1001C78.3195 69.1001 78.4914 69.043 78.606 69.043C78.6633 69.043 78.7206 69.043 78.8352 69.043H78.9498C79.0071 69.043 79.0071 69.043 79.0644 69.1001H79.1217C79.1217 69.1001 79.179 69.1001 79.179 69.1572L79.2362 69.2144L79.1217 69.1001C79.2363 69.1573 79.2936 69.2144 79.4082 69.2715C79.4655 69.3287 79.5228 69.5002 79.5801 69.6145C79.5801 69.7288 79.58 69.843 79.5227 69.9573C79.4654 70.0716 79.4082 70.1288 79.3509 70.186C79.2936 70.2431 79.2363 70.3003 79.179 70.3574C79.1217 70.4145 79.0644 70.4717 78.9498 70.4717C78.8352 70.586 78.6633 70.6431 78.5487 70.7003C78.3768 70.7574 78.2622 70.8146 78.0903 70.8717C77.9184 70.9289 77.8039 70.9861 77.632 71.0432C77.3455 71.1575 77.059 71.2146 76.7153 71.3289C77.0018 71.2146 77.2882 71.0432 77.5747 70.9289C77.6893 70.8717 77.8612 70.8146 77.9758 70.7003C78.0904 70.6431 78.2622 70.5289 78.3768 70.4717C78.4914 70.3574 78.6633 70.3002 78.7206 70.2431C78.7779 70.1859 78.8352 70.1288 78.8925 70.1288C78.9498 70.0716 79.0071 70.0145 79.0071 69.9573C79.0644 69.9002 79.0644 69.8431 79.1217 69.7859C79.1217 69.7288 79.1217 69.7287 79.1217 69.6716C79.1217 69.6716 79.1217 69.6145 79.0644 69.6145C79.0644 69.6145 79.0071 69.5573 78.9498 69.5573L78.8352 69.443C78.8352 69.443 78.8352 69.5002 78.8925 69.5002L78.9498 69.5573H78.8925C78.8352 69.5573 78.7779 69.5573 78.7206 69.5573C78.606 69.5573 78.4914 69.6145 78.3768 69.6145C78.1476 69.6716 77.9185 69.7288 77.632 69.7859C77.4028 69.8431 77.1736 69.9573 76.8871 70.0145C76.6579 70.0716 76.4288 70.1859 76.1423 70.2431L75.3974 70.5288C75.1682 70.6431 74.939 70.7003 74.6526 70.7575C74.4234 70.8146 74.1369 70.9289 73.9077 70.986L73.1629 71.1575L72.3607 71.2718L71.5586 71.3289C71.2721 71.3289 71.0429 71.3289 70.7565 71.2718C70.47 71.2146 70.2408 71.2146 69.9543 71.1575C69.6678 71.1003 69.4386 71.0432 69.2094 70.9289C68.9802 70.8146 68.6938 70.7574 68.4646 70.586C68.2354 70.4717 68.0062 70.3574 67.777 70.186C67.6624 70.0717 67.4906 69.9002 67.3187 69.7287Z" fill="#FFD37D"/>
<path d="M66.5141 68.5855C66.3422 68.2998 66.2849 67.9569 66.2849 67.614L66.3422 67.3854C66.3422 67.3283 66.3996 67.2139 66.3996 67.1568C66.3996 67.0996 66.4568 66.9854 66.5141 66.9282C66.5714 66.8711 66.5714 66.7568 66.6287 66.6996C66.686 66.6425 66.686 66.5282 66.7433 66.471L66.9152 66.2424C66.9725 66.1853 67.0298 66.1281 67.0871 66.071L67.259 65.8995C67.3736 65.7852 67.4882 65.6709 67.6028 65.5566C67.7174 65.4423 67.8319 65.3852 68.0038 65.2709V65.7852C67.5454 65.4995 67.1444 65.2137 66.7433 64.928L66.4568 64.6994L66.7433 64.5851C67.0871 64.4708 67.3736 64.3565 67.7173 64.2422C67.4881 64.4708 67.2017 64.6994 66.9152 64.928V64.5851C67.3735 64.7565 67.8319 64.9851 68.2903 65.2709L68.6914 65.4995L68.3476 65.7852C68.233 65.8995 68.1184 65.9567 68.0038 66.071L67.66 66.3567L67.4881 66.5282C67.4308 66.5853 67.3736 66.6425 67.3163 66.6996L67.2017 66.871C67.1444 66.9282 67.0871 66.9854 67.0871 67.0425C66.9725 67.1568 66.9152 67.2711 66.8579 67.3854C66.8006 67.4426 66.8006 67.4997 66.7433 67.5569L66.686 67.7283C66.6287 67.8426 66.5714 68.014 66.5714 68.1283C66.5141 68.2426 66.4568 68.4141 66.5141 68.5855Z" fill="#FFD37D"/>
<path d="M73.6204 73.0431C74.0788 73.5574 74.5371 74.0717 74.9955 74.6432L74.8236 74.5861C75.0528 74.5289 75.3393 74.4718 75.5685 74.4718L76.3133 74.3003C76.8289 74.186 77.3446 74.0717 77.803 73.9574L78.1468 73.8431C78.2614 73.786 78.376 73.786 78.4906 73.7288C78.7197 73.6145 78.9489 73.5574 79.1781 73.4431C79.4073 73.3288 79.6365 73.2145 79.923 73.1573C80.1521 73.043 80.3813 72.9287 80.6678 72.8716L80.7824 72.8145L80.897 72.8716C81.3553 73.1573 81.8137 73.5003 82.2721 73.786H82.1575C82.5013 73.6146 82.9023 73.4431 83.2461 73.3288C82.9023 73.5574 82.6159 73.786 82.2721 74.0146L82.2148 74.0717L82.1575 74.0146C81.6419 73.786 81.1834 73.5574 80.6678 73.2716H80.897C80.6678 73.3859 80.4386 73.5003 80.2094 73.6146C79.9803 73.7289 79.751 73.8431 79.5218 73.9574C79.2927 74.0717 79.0062 74.186 78.777 74.3003C78.6624 74.3575 78.4905 74.3575 78.3759 74.4146L77.9749 74.5289C77.6884 74.5861 77.4592 74.6432 77.1727 74.7004C76.8862 74.7575 76.657 74.8147 76.3706 74.8147C76.0841 74.8718 75.8549 74.8718 75.5685 74.929C75.282 74.929 75.0528 74.9861 74.7663 74.9861H74.6517L74.5944 74.8718C74.3079 74.2432 73.9642 73.6717 73.6204 73.0431Z" fill="#FFD37D"/>
<path d="M90.2343 73.6724H90.5215V76.187H90.2343V73.6724Z" fill="#FFD37D"/>
<path d="M88.9179 74.9292H89.2051V77.4438H88.9179V74.9292Z" fill="#FFD37D"/>
<path d="M87.5429 76.1865H87.8301V78.7011H87.5429V76.1865Z" fill="#FFD37D"/>
<path d="M86.2245 76.7583H86.5117V79.2729H86.2245V76.7583Z" fill="#FFD37D"/>
<path d="M60.8417 73.6724H61.1289V76.187H60.8417V73.6724Z" fill="#FFD37D"/>
<path d="M59.9824 72.5288H60.2695V75.0434H59.9824V72.5288Z" fill="#FFD37D"/>
<path d="M84.3906 77.4438H84.6777V79.9584H84.3906V77.4438Z" fill="#FFD37D"/>
<path d="M82.7851 78.0151H83.0723V80.5297H82.7851V78.0151Z" fill="#FFD37D"/>
<path d="M81.4141 61.9566V64.6426C81.4141 67.2144 79.6952 69.8432 76.2574 71.7863C69.3246 75.7868 58.0945 75.7868 51.1617 71.7863C47.6666 69.7861 45.8904 67.1572 45.8904 64.5283V61.8423C45.8904 64.4712 47.6093 67.1 51.1044 69.1003C58.0372 73.1007 69.3246 73.1007 76.2001 69.1003C79.6952 67.1572 81.4141 64.5283 81.4141 61.9566Z" fill="#EC8926"/>
<path d="M76.1994 54.6987C83.1322 58.6992 83.1895 65.0999 76.2567 69.1004C69.3238 73.1008 58.0938 73.1008 51.1609 69.1004C44.2281 65.0999 44.1708 58.6992 51.1036 54.6987C57.9792 50.7554 69.2092 50.7554 76.1994 54.6987Z" fill="#F8B617"/>
<path d="M71.3846 59.1558C72.7597 59.9559 73.4472 60.8131 73.5045 61.7275C73.5618 62.6419 72.8742 63.6135 71.4991 64.6422L73.0462 65.4994L70.8116 66.7567L69.2646 65.8995C68.3479 66.4138 67.3738 66.8138 66.2852 67.0996C65.1966 67.3853 64.0507 67.6139 62.7902 67.7854L60.6702 64.8707C61.9307 64.7564 63.0766 64.585 64.0506 64.3564C65.082 64.1278 65.9414 63.7849 66.629 63.3277C67.0873 63.0991 67.3165 62.8134 67.4311 62.5848C67.5457 62.3562 67.4311 62.1847 67.1446 62.0133C66.9728 61.899 66.6863 61.899 66.2852 61.899C65.9414 61.9561 65.3112 62.1276 64.3371 62.5276L62.6756 63.1563C61.3578 63.6706 60.0972 63.8992 58.7794 63.8421C57.4616 63.7849 56.3157 63.442 55.3416 62.8705C54.1957 62.2419 53.68 61.4418 53.68 60.5274C53.68 59.613 54.3103 58.7558 55.5136 57.8985L54.0812 57.0984L56.2584 55.8411L57.6335 56.6412C59.1232 55.8411 60.8421 55.2696 62.7329 54.9839L64.681 57.7842C62.6756 58.07 61.1858 58.4129 60.3264 58.9844C59.868 59.2129 59.5816 59.4987 59.5243 59.7273C59.4097 59.9559 59.5242 60.1845 59.7534 60.2988C60.1545 60.5274 61.014 60.356 62.3891 59.7845C62.4464 59.7845 62.4464 59.7844 62.5037 59.7273L62.6182 59.6702L64.1653 59.0987C65.4831 58.5843 66.7436 58.2986 68.0041 58.2986C69.3792 58.3557 70.4678 58.6414 71.3846 59.1558Z" fill="#EC8923"/>
<path d="M54.7685 62.4704C54.9977 62.6419 55.2268 62.7561 55.456 62.8704C55.5706 62.9276 55.6852 62.9848 55.7998 63.0419C55.9144 63.0991 56.029 63.1562 56.2009 63.2134C56.4301 63.3277 56.7166 63.3848 56.9458 63.4419C57.2322 63.4991 57.4614 63.5563 57.7479 63.6134C58.0343 63.6706 58.2635 63.6705 58.55 63.6705C58.8365 63.6705 59.0657 63.6705 59.3522 63.6705L60.1543 63.6134L60.9565 63.4991L61.7013 63.3277C61.9305 63.2705 62.217 63.1562 62.4462 63.0991L63.9931 62.5847C64.2796 62.4704 64.5088 62.4133 64.7953 62.3561C65.0818 62.299 65.311 62.1847 65.5975 62.1275C65.8839 62.0704 66.1131 62.0132 66.3996 61.9561C66.5142 61.9561 66.6861 61.8989 66.858 61.8989C66.9153 61.8989 67.0299 61.8989 67.0872 61.8989H67.2017C67.259 61.8989 67.2591 61.8989 67.3164 61.9561H67.3736C67.3736 61.9561 67.4309 61.956 67.4309 62.0132L67.4882 62.0704L67.3736 61.9561C67.4882 62.0132 67.5455 62.0704 67.6601 62.1847C67.7174 62.299 67.832 62.4133 67.832 62.5276C67.832 62.6419 67.7747 62.8133 67.7174 62.8704C67.6601 62.9847 67.6028 63.0419 67.5456 63.0991C67.4883 63.1562 67.4309 63.2133 67.3164 63.2705C67.2591 63.3276 67.1444 63.3848 67.0872 63.4419C66.9153 63.5562 66.8006 63.6134 66.6288 63.6705C66.4569 63.7277 66.3423 63.7848 66.1704 63.842C65.9985 63.8991 65.8266 63.9563 65.712 64.0134C65.4256 64.1277 65.0818 64.1849 64.738 64.2992C65.0245 64.1277 65.3683 64.0134 65.6547 63.842C65.8266 63.7848 65.9413 63.6706 66.1131 63.6134C66.2277 63.5563 66.3996 63.4419 66.5142 63.3848C66.6288 63.2705 66.8006 63.2133 66.9152 63.0991C66.9725 63.0419 67.0299 62.9848 67.0872 62.9276C67.1444 62.8705 67.2018 62.8133 67.2591 62.7562C67.3164 62.699 67.3736 62.6418 67.3736 62.5847C67.3736 62.5275 67.3736 62.4704 67.3736 62.4704C67.3736 62.4704 67.3736 62.4133 67.3164 62.4133L67.2017 62.3561L67.0872 62.2418C67.0872 62.2418 67.0871 62.2989 67.1444 62.2989L67.2017 62.3561H67.1444C67.0871 62.3561 67.0299 62.3561 66.9726 62.3561C66.858 62.3561 66.7434 62.4133 66.5715 62.4133C66.3423 62.4704 66.0559 62.5276 65.8267 62.6419C65.5975 62.699 65.311 62.8133 65.0818 62.8704C64.8526 62.9847 64.5661 63.0419 64.3369 63.1562L63.5921 63.4419C63.3056 63.5562 63.0764 63.6134 62.7899 63.7277C62.5035 63.7848 62.2743 63.8991 61.9878 63.9563L61.1856 64.1277L60.3262 64.242L59.4667 64.2992C59.1803 64.2992 58.8938 64.2992 58.6073 64.242C58.3208 64.1849 58.0344 64.1849 57.8052 64.0706C57.5187 64.0134 57.2895 63.8991 57.003 63.842C56.7166 63.7277 56.4874 63.6134 56.2582 63.4991C56.029 63.3848 55.7425 63.2134 55.5706 63.0419C55.1696 62.8705 54.9404 62.6419 54.7685 62.4704Z" fill="#FFD37D"/>
<path d="M53.9093 61.2707C53.7374 60.985 53.6801 60.585 53.6801 60.2421L53.7374 59.9563C53.7374 59.842 53.7948 59.7849 53.7948 59.6706C53.7948 59.6134 53.852 59.4991 53.9093 59.4419C53.9666 59.3848 53.9666 59.2705 54.0239 59.2134C54.0812 59.1562 54.0812 59.0419 54.1385 58.9848L54.3104 58.7562C54.3677 58.699 54.425 58.6419 54.4823 58.5276L54.6542 58.3561C54.7688 58.2418 54.8834 58.1275 55.0552 58.0132C55.1698 57.8989 55.3417 57.7846 55.4563 57.7275L55.5136 58.2418C55.0553 57.9561 54.5969 57.6703 54.1385 57.3274L53.852 57.0988L54.1385 56.9845C54.4823 56.8702 54.826 56.6988 55.1698 56.5845C54.8833 56.8702 54.5969 57.0988 54.3104 57.2703V56.9274C54.826 57.156 55.2845 57.3846 55.8001 57.6132L56.2012 57.8418L55.8001 58.1847C55.6855 58.299 55.5709 58.3561 55.4563 58.4704L55.1125 58.7562L54.9407 58.9276C54.8834 58.9848 54.8261 59.0419 54.7688 59.0991L54.5969 59.2705C54.5396 59.3277 54.4823 59.3848 54.4823 59.4419C54.3677 59.5562 54.3104 59.6706 54.2531 59.842C54.1958 59.8991 54.1958 59.9563 54.1385 60.0706L54.0239 60.2992C53.9666 60.4706 53.9093 60.585 53.9093 60.7564C53.9093 60.9279 53.9093 61.0993 53.9093 61.2707Z" fill="#FFD37D"/>
<path d="M61.5292 66.0138C62.0448 66.5853 62.5032 67.0996 63.0188 67.7283L62.8469 67.614C63.1334 67.5569 63.4199 67.4997 63.6491 67.4425L64.4512 67.2711C64.9669 67.1568 65.5398 67.0425 66.0555 66.871L66.4566 66.7568C66.5712 66.6996 66.7431 66.6996 66.8577 66.6425C67.0868 66.5282 67.3734 66.471 67.6025 66.3567C67.8317 66.2424 68.1182 66.1281 68.4047 66.0138C68.6339 65.8995 68.9203 65.7852 69.2068 65.6709L69.3214 65.6138L69.436 65.6709C69.9517 66.0138 70.41 66.2996 70.9257 66.6425H70.7538C71.1549 66.471 71.556 66.2995 71.957 66.1281C71.6133 66.4138 71.2694 66.6424 70.9257 66.871L70.8684 66.9282L70.7538 66.871C70.2382 66.6424 69.6652 66.3567 69.1495 66.071H69.3787C69.1495 66.1853 68.863 66.3567 68.6338 66.471C68.4046 66.5853 68.1182 66.6996 67.889 66.871C67.6598 66.9853 67.3733 67.0996 67.0869 67.2139C66.9723 67.2711 66.8004 67.3283 66.6858 67.3283L66.2847 67.4425C65.9982 67.4997 65.7117 67.5569 65.4253 67.614C65.1388 67.6712 64.8523 67.7283 64.5658 67.7283C64.2793 67.7854 63.9929 67.7854 63.7064 67.8426C63.4199 67.8426 63.1334 67.8997 62.8469 67.8997H62.7324L62.6751 67.7854C62.274 67.3282 61.8729 66.6996 61.5292 66.0138Z" fill="#FFD37D"/>
<path d="M79.2354 66.6431H79.5801V69.3291H79.2354V66.6431Z" fill="#FFD37D"/>
<path d="M77.8038 68.0146H78.1484V70.7007H77.8038V68.0146Z" fill="#FFD37D"/>
<path d="M76.3682 69.3286H76.7129V72.0146H76.3682V69.3286Z" fill="#FFD37D"/>
<path d="M74.9366 70.0146H75.2812V72.7007H74.9366V70.0146Z" fill="#FFD37D"/>
<path d="M47.8351 66.6997H48.1797V69.3857H47.8351V66.6997Z" fill="#FFD37D"/>
<path d="M46.9191 65.4995H47.2637V68.1855H46.9191V65.4995Z" fill="#FFD37D"/>
<path d="M72.9894 70.7002H73.334V73.3862H72.9894V70.7002Z" fill="#FFD37D"/>
<path d="M71.2706 71.3291H71.6152V74.0151H71.2706V71.3291Z" fill="#FFD37D"/>
<path d="M130 91.9029V94.5889C130 97.1606 128.281 99.7895 124.843 101.733C117.911 105.733 106.68 105.733 99.7476 101.733C96.2525 99.7323 94.4764 97.1035 94.4764 94.4746V91.7886C94.4764 94.4175 96.1953 97.0463 99.6903 99.0466C106.623 103.047 117.91 103.047 124.786 99.0466C128.224 97.1035 129.943 94.5318 130 91.9029Z" fill="#EC8926"/>
<path d="M124.729 84.645C131.662 88.6454 131.719 95.0462 124.786 99.0467C117.853 103.047 106.623 103.047 99.6903 99.0467C92.7575 95.0462 92.7002 88.6454 99.633 84.645C106.509 80.7017 117.796 80.7017 124.729 84.645Z" fill="#F8B617"/>
<path d="M119.916 89.1021C121.291 89.9022 121.978 90.7594 122.036 91.6738C122.093 92.5882 121.405 93.5597 120.03 94.5884L121.577 95.4457L119.343 96.703L117.796 95.8457C116.879 96.3601 115.905 96.7601 114.816 97.0459C113.728 97.3316 112.582 97.5602 111.321 97.7316L109.201 94.817C110.462 94.7027 111.608 94.5313 112.582 94.3027C113.613 94.0741 114.473 93.7312 115.16 93.274C115.619 93.0454 115.848 92.7596 115.962 92.5311C116.077 92.3025 115.962 92.131 115.676 91.9596C115.504 91.8453 115.218 91.8452 114.816 91.8452C114.473 91.9024 113.842 92.0739 112.868 92.4739L111.207 93.1025C109.889 93.6169 108.628 93.8455 107.311 93.7883C105.993 93.7312 104.847 93.3883 103.873 92.8168C102.727 92.1882 102.211 91.3881 102.211 90.4737C102.211 89.5593 102.842 88.702 104.045 87.8448L102.612 87.0447L104.79 85.7874L106.165 86.5875C107.654 85.7874 109.373 85.2159 111.264 84.9302L113.212 87.7305C111.207 88.0162 109.717 88.3591 108.858 88.9306C108.399 89.1592 108.113 89.445 108.055 89.6736C107.941 89.9022 108.055 90.1308 108.285 90.2451C108.686 90.4737 109.545 90.3022 110.92 89.7307C110.978 89.7307 110.978 89.7307 111.035 89.6736L111.149 89.6164L112.696 89.0449C114.014 88.5306 115.275 88.2448 116.535 88.2448C117.91 88.302 118.999 88.5877 119.916 89.1021Z" fill="#EC8923"/>
<path d="M103.3 92.4167C103.529 92.5882 103.758 92.7025 103.987 92.8168C104.102 92.8739 104.216 92.9311 104.331 92.9882C104.446 93.0454 104.56 93.1025 104.732 93.1596C104.961 93.2739 105.248 93.3311 105.477 93.3883C105.763 93.4454 105.993 93.5025 106.279 93.5597C106.566 93.6168 106.795 93.6169 107.081 93.6169C107.368 93.6169 107.597 93.6169 107.883 93.6169L108.686 93.5597L109.488 93.4454L110.233 93.274C110.462 93.2168 110.748 93.1025 110.977 93.0454L112.524 92.531C112.811 92.4167 113.04 92.3596 113.327 92.3024C113.613 92.2453 113.842 92.131 114.129 92.0738C114.415 92.0167 114.644 91.9595 114.931 91.9024C115.045 91.9024 115.217 91.8452 115.389 91.8452C115.447 91.8452 115.561 91.8452 115.618 91.8452H115.733C115.79 91.8452 115.79 91.8452 115.848 91.9024H115.905C115.905 91.9024 115.962 91.9024 115.962 91.9595L116.02 92.0167L115.905 91.9024C116.019 91.9595 116.077 92.0167 116.191 92.131C116.249 92.2453 116.363 92.3596 116.363 92.4739C116.363 92.5882 116.306 92.7596 116.249 92.8168C116.191 92.9311 116.134 92.9882 116.077 93.0454C116.02 93.1025 115.962 93.1597 115.848 93.2168C115.79 93.274 115.676 93.3311 115.618 93.3883C115.447 93.5026 115.332 93.5597 115.16 93.6169C114.988 93.674 114.874 93.7312 114.702 93.7883C114.53 93.8455 114.358 93.9026 114.243 93.9598C113.957 94.0741 113.613 94.1312 113.269 94.2455C113.556 94.0741 113.9 93.9598 114.186 93.7883C114.358 93.7312 114.473 93.6168 114.644 93.5597C114.759 93.5025 114.931 93.3883 115.045 93.3311C115.16 93.2168 115.332 93.1597 115.447 93.0454C115.504 92.9882 115.561 92.931 115.618 92.8739C115.676 92.8167 115.733 92.7596 115.79 92.7025C115.848 92.6453 115.905 92.5882 115.905 92.531C115.905 92.4739 115.905 92.4167 115.905 92.4167C115.905 92.4167 115.905 92.3596 115.848 92.3596L115.733 92.3024L115.618 92.1881C115.618 92.1881 115.618 92.2453 115.676 92.2453L115.733 92.3024H115.676C115.618 92.3024 115.561 92.3024 115.504 92.3024C115.389 92.3024 115.275 92.3596 115.103 92.3596C114.874 92.4167 114.587 92.4739 114.358 92.5882C114.129 92.6453 113.842 92.7596 113.613 92.8168C113.384 92.9311 113.097 92.9882 112.868 93.1025L112.123 93.3883C111.837 93.5026 111.608 93.5597 111.321 93.674C111.035 93.7312 110.806 93.8455 110.519 93.9026L109.717 94.0741L108.857 94.1884L107.998 94.2455C107.712 94.2455 107.425 94.2455 107.139 94.1884C106.852 94.1312 106.566 94.1312 106.336 94.0169C106.05 93.9597 105.821 93.8455 105.534 93.7883C105.248 93.674 105.019 93.5597 104.789 93.4454C104.56 93.3311 104.274 93.1597 104.102 92.9882C103.701 92.8168 103.529 92.6453 103.3 92.4167Z" fill="#FFD37D"/>
<path d="M102.443 91.217C102.271 90.9313 102.213 90.5312 102.213 90.1883L102.271 89.9026C102.271 89.7883 102.328 89.7311 102.328 89.6168C102.328 89.5597 102.385 89.4454 102.443 89.3882C102.5 89.3311 102.5 89.2168 102.557 89.1596C102.614 89.1025 102.614 88.9882 102.672 88.931L102.844 88.7024C102.901 88.6453 102.958 88.5882 103.015 88.4739L103.187 88.3024C103.302 88.1881 103.417 88.0738 103.588 87.9595C103.703 87.8452 103.875 87.7309 103.99 87.6738L104.047 88.1881C103.588 87.9024 103.13 87.6166 102.672 87.2737L102.385 87.0451L102.672 86.9308C103.016 86.8165 103.359 86.6451 103.703 86.5308C103.417 86.8165 103.13 87.0451 102.844 87.2166V86.8736C103.359 87.1022 103.818 87.3308 104.333 87.5594L104.734 87.7881L104.333 88.1309C104.219 88.2452 104.104 88.3024 103.99 88.4167L103.646 88.7024L103.474 88.8739C103.417 88.931 103.359 88.9882 103.302 89.0454L103.13 89.2168C103.073 89.2739 103.015 89.3311 103.015 89.3882C102.901 89.5025 102.844 89.6168 102.786 89.7883C102.729 89.8454 102.729 89.9026 102.672 90.0169L102.557 90.2455C102.5 90.4169 102.443 90.5312 102.443 90.7027C102.443 90.8741 102.443 91.0456 102.443 91.217Z" fill="#FFD37D"/>
<path d="M110.119 95.9601C110.635 96.5316 111.093 97.046 111.609 97.6746L111.437 97.5603C111.723 97.5031 112.01 97.446 112.239 97.3888L113.041 97.2174C113.557 97.1031 114.13 96.9888 114.645 96.8174L115.046 96.703C115.161 96.6459 115.333 96.6459 115.448 96.5887C115.677 96.4744 115.963 96.4173 116.192 96.303C116.421 96.1887 116.708 96.0744 116.994 95.9601C117.224 95.8458 117.51 95.7315 117.797 95.6172L117.911 95.5601L118.026 95.6172C118.541 95.9601 119 96.2458 119.516 96.5887H119.344C119.745 96.4173 120.146 96.2459 120.547 96.0744C120.203 96.3602 119.859 96.5888 119.516 96.8174L119.458 96.8745L119.344 96.8174C118.828 96.5888 118.255 96.303 117.739 96.0172H117.969C117.739 96.1315 117.453 96.303 117.224 96.4173C116.994 96.5316 116.708 96.6459 116.479 96.8174C116.25 96.9317 115.963 97.0459 115.677 97.1602C115.562 97.2174 115.39 97.2745 115.276 97.2745L114.875 97.3888C114.588 97.446 114.302 97.5031 114.015 97.5603C113.729 97.6174 113.442 97.6746 113.156 97.6746C112.869 97.7317 112.583 97.7318 112.296 97.7889C112.01 97.7889 111.723 97.846 111.437 97.846H111.322L111.265 97.7317C110.806 97.2745 110.463 96.6459 110.119 95.9601Z" fill="#FFD37D"/>
<path d="M127.763 96.646H128.107V99.332H127.763V96.646Z" fill="#FFD37D"/>
<path d="M126.331 97.9609H126.676V100.647H126.331V97.9609Z" fill="#FFD37D"/>
<path d="M124.958 99.3325H125.303V102.019H124.958V99.3325Z" fill="#FFD37D"/>
<path d="M123.526 99.9609H123.871V102.647H123.526V99.9609Z" fill="#FFD37D"/>
<path d="M96.3683 96.646H96.7129V99.332H96.3683V96.646Z" fill="#FFD37D"/>
<path d="M95.507 95.4453H95.8516V98.1313H95.507V95.4453Z" fill="#FFD37D"/>
<path d="M121.577 100.646H121.922V103.333H121.577V100.646Z" fill="#FFD37D"/>
<path d="M119.8 101.333H120.145V104.019H119.8V101.333Z" fill="#FFD37D"/>
<path d="M66.3035 55.7883C70.9798 61.2627 71.0184 70.0216 66.3422 75.496C61.6659 80.9703 54.0911 80.9703 49.4149 75.496C44.7387 70.0216 44.7 61.2627 49.3763 55.7883C54.0139 50.3922 61.5886 50.3922 66.3035 55.7883Z" fill="#481C23" fill-opacity="0.2"/>
<path d="M12.9781 8.37956C12.9781 8.37956 11.1917 6.0803 18.914 4.06844C26.6363 2.05658 20.2971 1.76916 19.4902 1.42427C18.6834 1.07938 18.3377 -0.645045 27.5007 1.02192C36.6637 2.68889 39.6605 -1.10491 42.7724 0.332135C45.8844 1.76918 41.274 2.34399 39.4875 3.20622C37.701 4.06844 41.7927 3.83849 44.2132 3.43612C46.6336 3.03375 53.8372 3.43615 50.6676 4.18341C49.3421 4.47082 49.6879 5.10309 50.3795 5.16057C52.627 5.44798 52.3389 6.0803 50.9558 6.36771C49.5727 6.59763 46.5183 12.8057 46.5183 12.8057L19.8936 16.0821L12.9781 8.37956Z" fill="#C56B29"/>
<path d="M24.3876 23.6702C24.3876 23.6702 -2.46762 34.8791 0.183323 59.8261C1.9122 76.2659 15.0516 83.0487 15.0516 83.0487C15.0516 83.0487 20.5264 88.222 35.6253 86.8999C56.7751 85.0031 66.6873 66.264 63.1719 48.9621C63.1719 48.9621 59.3684 30.1656 41.561 23.9576C41.561 23.9576 51.5309 17.4047 52.0496 5.96582C52.0496 5.96582 45.3069 6.94301 45.3069 9.98953C45.3069 12.9786 37.6999 13.036 35.6829 9.75959C33.6658 6.54062 32.1675 8.38004 27.4419 11.3116C22.7163 14.2432 15.8585 13.266 20.2959 8.8399C24.7334 4.35633 18.7976 7.05796 15.6856 8.72493C14.4754 9.35723 13.7262 9.29974 13.3804 8.89737L24.3876 23.6702Z" fill="#EC8922"/>
<path d="M21.7404 23.957C21.7404 23.957 21.7404 24.072 21.7404 24.2444C21.7404 24.4169 21.798 24.7043 21.9709 24.9917C22.0861 25.2791 22.3167 25.624 22.6624 25.9114C23.0082 26.1988 23.4692 26.4288 23.9879 26.6012C24.5065 26.7737 25.0828 26.8886 25.7167 26.9461C26.3507 27.0036 27.0422 27.0036 27.7338 27.0036C28.4253 27.0036 29.1745 26.9461 29.9237 26.8886C30.3271 26.8886 30.6729 26.8311 31.0763 26.7736C31.4797 26.7162 31.8255 26.6587 32.2289 26.6012C32.978 26.4862 33.7849 26.3713 34.534 26.2563C35.2832 26.1413 36.0324 26.0264 36.724 25.8539C38.1647 25.5665 39.4901 25.3366 40.6427 25.1067C41.219 24.9917 41.7377 24.8767 42.1987 24.8193C42.6598 24.7043 43.0632 24.6468 43.4089 24.5894C44.1005 24.4744 44.5039 24.4169 44.5039 24.4169C44.5039 24.4169 44.1581 24.5894 43.5242 24.8768C42.8902 25.1642 41.9682 25.509 40.8732 25.9114C40.297 26.1413 39.7207 26.3138 39.0291 26.5437C38.3952 26.7736 37.7036 26.9461 36.9544 27.1185C36.2629 27.291 35.5138 27.4634 34.707 27.6359C33.9578 27.8083 33.1509 27.9233 32.3441 28.0382C31.9407 28.0957 31.5373 28.1532 31.1339 28.1532C30.7305 28.2107 30.3271 28.2107 29.9237 28.2682C29.5203 28.3256 29.1169 28.3257 28.7711 28.3257C28.3677 28.3257 28.0219 28.3257 27.6185 28.3257C26.8694 28.3257 26.1202 28.2107 25.4286 28.0382C24.7371 27.9233 24.1032 27.6933 23.5269 27.4059C22.9506 27.1185 22.4895 26.7737 22.1438 26.3138C21.798 25.9114 21.6251 25.4516 21.5675 25.1067C21.5098 24.7618 21.5098 24.4744 21.5675 24.3019C21.6827 24.0145 21.7404 23.957 21.7404 23.957Z" fill="#213047"/>
<path d="M22.9478 22.4629C22.9478 22.4629 22.9478 22.5778 22.9478 22.6928C22.9478 22.8652 23.0054 23.0952 23.1783 23.3251C23.5241 23.785 24.2733 24.1299 25.2529 24.3023C25.7716 24.3598 26.2902 24.4172 26.8665 24.4172C27.4428 24.4172 28.0768 24.4173 28.7107 24.3598C29.3446 24.3023 30.0362 24.3023 30.7277 24.2448C31.4193 24.1873 32.1108 24.1299 32.8024 24.0149C33.4939 23.9574 34.1854 23.8424 34.877 23.785C35.5685 23.67 36.2601 23.6125 36.894 23.555C37.5279 23.4975 38.1619 23.3826 38.7958 23.3251C39.3721 23.2676 39.9484 23.2101 40.4671 23.0952C40.9857 23.0377 41.5044 22.9802 41.9078 22.9227C42.3112 22.8653 42.7145 22.8652 43.0027 22.8078C43.6366 22.7503 43.9824 22.7503 43.9824 22.7503C43.9824 22.7503 43.6367 22.8652 43.0604 23.0952C42.4841 23.3251 41.6196 23.6125 40.5823 23.8999C40.0636 24.0724 39.4873 24.1873 38.911 24.3598C38.3347 24.5322 37.7009 24.6472 37.0093 24.8196C36.3754 24.9921 35.6838 25.107 34.9923 25.222C34.3007 25.337 33.6091 25.4519 32.86 25.5094C31.4192 25.6819 29.9786 25.7393 28.6531 25.6818C27.27 25.6244 26.0021 25.4519 24.9648 25.0496C24.4461 24.8771 23.9275 24.6472 23.5817 24.3598C23.1783 24.0724 22.9477 23.7275 22.8325 23.3826C22.7172 23.0377 22.7172 22.8078 22.7749 22.6353C22.8901 22.5204 22.9478 22.4629 22.9478 22.4629Z" fill="#213047"/>
<path d="M23.3498 42.638V45.5696C26.0583 47.2365 28.5364 49.4783 30.8416 52.2374L28.0754 57.9856C25.7702 54.9965 23.7532 53.0422 22.082 52.065C21.2175 51.6051 20.5836 51.3752 20.0649 51.4327C19.6039 51.4901 19.3157 51.8351 19.3157 52.3524C19.3157 53.1571 20.4107 54.4217 22.6582 56.0887C22.7159 56.1462 22.7735 56.2037 22.8311 56.2037L22.9464 56.3186L25.3668 58.2155C27.4414 59.825 29.0551 61.6644 30.2076 63.6188C31.3602 65.5732 31.8789 67.5275 31.8789 69.4819C31.8789 72.4135 31.1297 74.3104 29.6314 75.2301C28.133 76.1498 25.9431 75.9773 22.9464 74.7127V77.9892L18.797 75.6325V72.356C17.1258 71.3788 15.5699 70.1717 14.0139 68.7347C12.5155 67.2976 11.0748 65.6306 9.69169 63.7912L12.5731 57.7556C13.8986 59.6525 15.2241 61.3195 16.5496 62.6991C17.9327 64.0786 19.2581 65.1708 20.6412 65.918C21.448 66.3779 22.082 66.6078 22.6006 66.5504C23.0617 66.4929 23.2921 66.2055 23.2921 65.6306C23.2921 65.2283 23.0616 64.7684 22.6582 64.1936C22.3125 63.7337 21.3904 62.8715 19.8344 61.6644L17.2411 59.5951C15.2241 57.9856 13.6681 56.0887 12.5155 53.9619C11.4206 51.8351 10.8443 49.7082 10.8443 47.5814C10.8443 45.1672 11.5935 43.5577 13.0918 42.8104C14.5902 42.0057 16.6072 42.1781 19.1429 43.3278V40.2812L23.3498 42.638Z" fill="#213047"/>
<path d="M88.7754 96.8541L89.8597 96.4066C89.8597 96.4066 90.1962 96.1828 90.3458 96.5184C90.4953 96.8168 90.6075 97.6746 90.6075 97.6746L88.7754 96.8541Z" fill="#EC8922"/>
<path d="M70.756 114.494L70.1577 115.762C70.1577 115.762 70.1203 115.874 70.4195 115.762C70.6812 115.65 71.3916 115.24 71.3916 115.24L70.756 114.494Z" fill="#EC8922"/>
<path d="M70.8309 114.382L70.158 115.762C70.158 115.762 69.971 115.911 69.7093 115.65C69.4476 115.389 69.1484 114.867 69.1484 114.867L70.8309 114.382Z" fill="#FAB516"/>
<path d="M64.5123 71.4203C65.2975 70.9728 66.1948 71.2711 66.5314 72.0916L71.2424 83.3542C71.5789 84.1746 71.2423 85.2188 70.4572 85.6663L21.5523 113.86C20.3559 114.531 20.1315 114.979 20.2063 113.04L20.655 98.2342C20.6923 97.3392 21.328 96.2577 22.1131 95.8101L64.5123 71.4203Z" fill="#EC8922"/>
<path d="M33.4022 89.9553C33.1779 89.9553 32.9536 89.8434 32.8414 89.6196C32.6544 89.3213 32.7666 88.9111 33.0657 88.7246L47.8344 80.1844C48.1335 79.998 48.5448 80.1098 48.7317 80.4082C48.9187 80.7065 48.8065 81.1168 48.5074 81.3032L33.7387 89.8434C33.5892 89.918 33.477 89.9553 33.4022 89.9553Z" fill="white"/>
<path d="M89.1136 94.6914L89.9735 95.6983C89.9735 95.6983 90.4596 96.1458 89.7118 96.4442C88.8892 96.7798 88.5527 96.929 88.5527 96.929L89.1136 94.6914Z" fill="#FDC662"/>
<path d="M75.1292 105.842C75.5405 105.059 76.4753 104.015 77.2605 103.567L88.7389 96.8547C89.524 96.4071 90.3466 96.7428 90.6457 97.5632L91.9169 101.591C92.1787 102.449 91.7674 103.493 91.0196 103.94L71.4278 115.203C70.6426 115.651 70.3435 115.352 70.7547 114.569L75.1292 105.842Z" fill="#EC8922"/>
<path opacity="0.46" d="M7.64062 110.094L21.0633 118C38.4118 108.117 55.7978 98.2344 73.1463 88.3517C66.9397 84.6597 60.7331 80.9303 54.5265 77.2383C54.5265 77.2756 54.5265 77.2756 7.64062 110.094Z" fill="#481C23"/>
<path d="M5.13641 85.7783C4.01474 86.4496 3.60345 86.5615 4.23906 86.9344L19.3069 95.8475C20.092 96.295 21.3259 96.295 22.1111 95.8475L64.5102 71.383C65.2954 70.9355 65.2954 70.1897 64.5102 69.7422L50.0407 61.2766C49.2555 60.829 48.0217 60.829 47.2365 61.2766L5.13641 85.7783Z" fill="#FDC662"/>
<path d="M4.24046 86.9344C3.64224 86.5615 3.75442 86.8225 3.4553 88.1651L1.02501 101.553C0.875458 102.448 1.36152 103.53 2.14669 103.977L18.7848 113.86C19.8691 114.494 20.3178 115.203 20.243 113.077L20.6917 98.2716C20.729 97.3766 20.1308 96.2951 19.3457 95.8102L4.24046 86.9344Z" fill="#FAB516"/>
<path d="M20.6897 97.4515L14.5579 93.7967C14.2588 93.6103 14.1466 93.2 14.3336 92.9017C14.5205 92.6033 14.9318 92.4915 15.2309 92.6779L20.7271 95.9224L28.9153 91.2235C29.2144 91.037 29.6257 91.1489 29.8127 91.4472C29.9996 91.7456 29.8875 92.1558 29.5883 92.3423L20.6897 97.4515Z" fill="white"/>
<path opacity="0.32" d="M43.0127 73.0615L32.9551 78.9912L44.3587 83.0189L44.8448 100.472L69.9329 115.501L83.4303 108.304L65.2966 92.827L43.0127 73.0615Z" fill="#481C23"/>
<path d="M75.6533 105.245L68.9981 96.4069C68.7737 96.1086 68.8485 95.6983 69.1102 95.5119C69.4093 95.2881 69.8206 95.3627 70.0076 95.6238L75.9898 103.53L78.121 102.262C78.4201 102.076 78.8314 102.187 79.0183 102.486C79.2053 102.784 79.0931 103.194 78.794 103.381L75.6533 105.245Z" fill="white"/>
<path d="M83.8397 100.36C83.6154 100.36 83.3911 100.248 83.2789 100.024C83.092 99.7261 83.2041 99.3158 83.5032 99.1294L87.7656 96.6307C88.0647 96.4442 88.476 96.5561 88.6629 96.8545C88.8499 97.1528 88.7377 97.563 88.4386 97.7495L84.1762 100.248C84.0641 100.323 83.9519 100.36 83.8397 100.36Z" fill="white"/>
<path d="M73.4093 110.094C73.2971 110.094 73.2224 110.056 73.1102 110.019C72.7737 109.87 72.6615 109.46 72.8111 109.161L75.2414 104.127C75.3909 103.791 75.8022 103.679 76.1013 103.829C76.4378 103.978 76.55 104.388 76.4004 104.686L73.9701 109.721C73.8954 109.982 73.6336 110.094 73.4093 110.094Z" fill="white"/>
<path d="M32.0574 61.5748C31.2723 61.9478 31.0106 62.8801 31.5714 63.5887L69.0352 114.681C69.5587 115.389 70.3065 115.352 70.7178 114.531L75.0923 105.805C75.5035 105.022 75.3914 103.754 74.8305 103.045L41.4047 58.8151C40.8813 58.1066 39.7596 57.8455 38.9744 58.2184L32.0574 61.5748Z" fill="#FAB516"/>
<path d="M41.4046 58.8155C40.8812 58.1069 41.1055 57.2492 41.9281 56.9136L54.2665 51.879C55.089 51.5433 56.2107 51.8417 56.7715 52.5502L89.1504 94.729C89.7113 95.4376 89.5243 96.3699 88.7392 96.8547L77.2608 103.568C76.4756 104.015 75.4287 103.791 74.8678 103.083L41.4046 58.8155Z" fill="#FDC662"/>
<path d="M67.7631 94.3555C67.5762 94.3555 67.3518 94.2808 67.2396 94.0944L54.5274 77.2751C54.303 76.9767 54.3778 76.5665 54.6395 76.3801C54.9387 76.1563 55.3499 76.2309 55.5369 76.4919L68.2492 93.3112C68.4735 93.6096 68.3987 94.0198 68.137 94.2063C68.0248 94.2809 67.8753 94.3555 67.7631 94.3555Z" fill="white"/>
</svg>
