<?xml version="1.0" standalone="no"?>
<!DOCTYPE svg PUBLIC "-//W3C//DTD SVG 1.1//EN" "http://www.w3.org/Graphics/SVG/1.1/DTD/svg11.dtd" >
<svg xmlns="http://www.w3.org/2000/svg">
<metadata>Generated by IcoMoon</metadata>
<defs>
<font id="bortovoiicon" horiz-adv-x="1024">
<font-face units-per-em="1024" ascent="960" descent="-64" />
<missing-glyph horiz-adv-x="1024" />
<glyph unicode="&#x20;" horiz-adv-x="512" d="" />
<glyph unicode="&#xe900;" glyph-name="best" d="M490.329 797.469l-60.717-94.53c-3.488-5.43-8.887-9.354-15.13-10.993l-108.664-28.533c-18.144-4.764-25.272-26.704-13.394-41.223l71.14-86.96c4.087-4.991 6.149-11.344 5.78-17.784l-6.443-112.166c-1.076-18.732 17.588-32.29 35.067-25.48l104.683 40.79c6.012 2.344 12.689 2.344 18.7 0l104.686-40.79c17.48-6.811 36.144 6.748 35.067 25.48l-6.445 112.166c-0.366 6.439 1.695 12.791 5.78 17.784l71.144 86.96c11.875 14.519 4.75 36.459-13.394 41.223l-108.668 28.533c-6.244 1.64-11.643 5.563-15.13 10.993l-60.717 94.53c-10.139 15.783-33.207 15.783-43.346 0zM472.958 675.099l39.044 60.787 39.044-60.787c10.463-16.292 26.664-28.061 45.391-32.979l69.881-18.349-45.751-55.917c-12.261-14.986-18.448-34.030-17.335-53.364l4.141-72.128-67.317 26.227c-18.046 7.032-38.065 7.032-56.112 0l-67.317-26.227 4.141 72.128c1.113 19.334-5.075 38.377-17.335 53.364l-45.747 55.917 69.877 18.349c18.726 4.918 34.928 16.688 45.391 32.979zM898.372 573.63c0-148.264-83.513-277.027-206.065-341.808v-259.713c0-26.809-28.21-44.242-52.191-32.255l-128.116 64.060-128.118-64.060c-23.977-11.988-52.188 5.445-52.188 32.255v259.713c-122.552 64.781-206.065 193.546-206.065 341.808 0 213.386 172.984 386.37 386.37 386.37s386.37-172.984 386.37-386.37zM512.002 238.775c184.937 0 334.854 149.916 334.854 334.854 0 184.935-149.916 334.854-334.854 334.854-184.935 0-334.854-149.919-334.854-334.854 0-184.937 149.919-334.854 334.854-334.854zM512.002 187.26c45.159 0 88.51 7.748 128.79 21.987v-212.133l-112.666 56.333c-10.148 5.075-22.1 5.075-32.249 0l-112.666-56.333v212.133c40.28-14.239 83.631-21.987 128.79-21.987z" />
<glyph unicode="&#xe901;" glyph-name="check" d="M358.087 89.916c-12.864 0-25.729 4.924-35.529 14.72l-307.816 307.828c-19.656 19.647-19.656 51.413 0 71.060 19.647 19.647 51.404 19.647 71.060 0l272.285-272.285 580.122 580.11c19.644 19.647 51.405 19.647 71.057 0 19.644-19.656 19.644-51.412 0-71.069l-615.639-615.644c-9.801-9.796-22.675-14.72-35.54-14.72z" />
<glyph unicode="&#xe902;" glyph-name="complaints" d="M800.001-64h-576.001c-52.906 0-96 43.045-96 95.999v448.002c0 52.954 43.094 95.999 96 95.999h576.001c52.907 0 95.999-43.045 95.999-95.999v-448.002c0-52.954-43.092-95.999-95.999-95.999zM224 512.002c-17.625 0-32-14.336-32-32.001v-448.002c0-17.665 14.375-31.996 32-31.996h576.001c17.623 0 31.996 14.331 31.996 31.996v448.002c0 17.665-14.373 32.001-31.996 32.001h-576.001zM735.999 512.002c-17.665 0-31.996 14.331-31.996 31.996v160.001c0 105.86-86.142 192-192.002 192s-192-86.14-192-192v-160.001c0-17.665-14.336-31.996-32-31.996s-32 14.331-32 31.996v160.001c0 141.188 114.812 256 256 256 141.186 0 256-114.812 256-256v-160.001c0-17.665-14.336-31.996-32.001-31.996z" />
<glyph unicode="&#xe903;" glyph-name="copy" d="M736 960c-3.968 0-384 0-384 0-67.712 0-127.999-62.112-127.999-128.001l-36.993-0.864c-67.68 0-123.008-61.247-123.008-127.135v-640c0-65.888 60.288-128 128.001-128h479.999c67.712 0 128 62.112 128 128h32c67.712 0 128 62.112 128 128v511.231l-224 256.769zM672 0h-479.999c-33.6 0-64 31.392-64 64v640c0 32.607 27.361 62.944 60.961 62.944l35.039 1.055v-575.999c0-65.888 60.287-128 127.999-128h384c0-32.608-30.4-64-64-64zM896 192c0-32.608-30.4-64-64-64h-480c-33.6 0-63.999 31.392-63.999 64v639.999c0 32.607 30.399 63.999 63.999 63.999h320c-0.512-73.696 0-128.8 0-128.8 0-66.496 59.84-127.2 128-127.2 0 0 33.984 0 96 0v-447.999zM800 704c-34.080 0-64 61.919-64 95.135 0 0 0 33.665 0 95.873v0.064l160-191.072h-96zM736 511.423h-287.999c-17.664 0-32-14.304-32-31.967s14.336-31.968 32-31.968h287.999c17.664 0 32 14.305 32 31.968s-14.336 31.967-32 31.967zM736 351.583h-287.999c-17.664 0-32-14.304-32-31.967s14.336-31.968 32-31.968h287.999c17.664 0 32 14.304 32 31.968s-14.336 31.967-32 31.967z" />
<glyph unicode="&#xe904;" glyph-name="crime" d="M895.985 213.337h-43.857c-2.604 10.62-10.284 19.5-21.035 22.908-82.008 26.156-172.16 26.156-254.166 0-10.752-3.408-18.432-12.288-21.034-22.908h-87.766c-2.602 10.62-10.282 19.5-21.034 22.908-82.006 26.156-172.16 26.156-254.165 0-10.795-3.408-18.432-12.288-21.034-22.908h-43.904c-23.595 0-42.667-19.112-42.667-42.664s19.072-42.672 42.667-42.672h42.666v-8.572c0-52.611 38.826-96.944 92.33-105.515l78.208-12.456c6.016-0.98 12.032-1.456 18.048-1.456 26.581 0 52.352 9.347 72.661 26.668 23.808 20.312 37.419 49.54 37.419 80.26v21.073h85.334v-21.073c0-30.72 13.61-59.947 37.419-80.26 20.352-17.321 46.080-26.668 72.661-26.668 6.016 0 12.032 0.476 18.048 1.456l78.21 12.456c53.504 8.536 92.328 52.904 92.328 105.515v8.572h42.664c23.596 0 42.672 19.12 42.672 42.672s-19.076 42.664-42.672 42.664zM725.333 667.006v61.099c0 40.661-20.48 77.824-54.827 99.498-34.389 21.674-76.672 24.106-113.28 6.485l-13.227-3.797c0 36.224-29.44 65.706-65.622 65.706h-62.379c-64.726 0-117.333-52.736-117.333-117.546v-111.446c-176.128-27.007-298.666-86.144-298.666-155.008 0-94.25 229.248-170.667 512-170.667 282.748 0 512 76.416 512 170.667 0 68.864-122.536 128-298.666 155.008z" />
<glyph unicode="&#xe905;" glyph-name="crown" horiz-adv-x="939" d="M938.836 603.423c0 53.745-40.082 97.472-89.35 97.472s-89.342-43.727-89.342-97.472c0-25.837 9.279-49.346 24.38-66.805-26.86-32.777-65.859-53.465-109.232-53.465-70.207 0-129.010 54.144-143.237 126.155 16.428 17.685 26.63 42.234 26.63 69.337 0 53.745-40.082 97.472-89.35 97.472s-89.35-43.727-89.35-97.472c0-27.104 10.209-51.652 26.629-69.337-14.228-72.011-73.030-126.155-143.238-126.155-43.372 0-82.373 20.688-109.23 53.465 15.101 17.459 24.387 40.968 24.387 66.805 0 53.745-40.082 97.472-89.35 97.472s-89.35-43.727-89.35-97.472c0-46.58 30.111-85.608 70.207-95.19 9.506-85.595 29.645-193.602 72.242-267.074v-89.99c0-16.663 12.379-30.176 27.653-30.176h598.796c15.275 0 27.654 13.513 27.654 30.176v89.99c42.601 73.472 62.739 181.471 72.244 267.074 40.095 9.59 70.207 48.61 70.207 95.19zM815.45 603.423c0 20.475 15.267 37.138 34.034 37.138 18.772 0 34.043-16.663 34.043-37.138s-15.271-37.13-34.043-37.13c-18.768 0-34.034 16.655-34.034 37.13zM435.29 678.646c0 20.475 15.271 37.138 34.043 37.138s34.034-16.663 34.034-37.138c0-20.476-15.263-37.13-34.034-37.13s-34.043 16.655-34.043 37.13zM55.138 603.423c0 20.475 15.273 37.138 34.043 37.138s34.036-16.663 34.036-37.138c0-20.476-15.266-37.13-34.036-37.13s-34.043 16.655-34.043 37.13zM197.587 181.335v38.627h543.495v-38.627h-543.495zM753.536 280.307h-568.399c-29.107 53.864-45.821 129.532-55.406 197.822 35.627-34.406 82.437-55.312 133.645-55.312 91.928 0 169.687 67.395 193.982 159.262 3.918-0.578 7.913-0.899 11.976-0.899s8.058 0.32 11.976 0.899c24.295-91.867 102.053-159.262 193.981-159.262 51.222 0 98.062 20.923 133.689 55.359-9.577-68.283-26.292-143.945-55.444-197.869z" />
<glyph unicode="&#xe906;" glyph-name="decline" d="M52.667-64c-13.489 0-26.977 5.129-37.225 15.454-20.574 20.574-20.574 53.931 0 74.505l918.611 918.611c20.574 20.574 53.931 20.574 74.505 0s20.574-53.929 0-74.515l-918.601-918.601c-10.325-10.266-23.814-15.454-37.289-15.454zM971.343-64c-13.483 0-26.965 5.129-37.222 15.454l-918.679 918.601c-20.574 20.587-20.574 53.942 0 74.515s53.929 20.574 74.515 0l918.601-918.611c20.574-20.574 20.574-53.931 0-74.505-10.325-10.266-23.799-15.454-37.214-15.454z" />
<glyph unicode="&#xe907;" glyph-name="dots" d="M365.715 886.857c0-40.396-32.747-73.143-73.143-73.143s-73.143 32.747-73.143 73.143c0 40.396 32.747 73.143 73.143 73.143s73.143-32.747 73.143-73.143zM365.715 448c0-40.396-32.747-73.143-73.143-73.143s-73.143 32.747-73.143 73.143c0 40.396 32.747 73.143 73.143 73.143s73.143-32.747 73.143-73.143zM365.715 9.143c0-40.396-32.747-73.143-73.143-73.143s-73.143 32.747-73.143 73.143c0 40.396 32.747 73.143 73.143 73.143s73.143-32.747 73.143-73.143zM804.572 886.857c0-40.396-32.747-73.143-73.143-73.143s-73.143 32.747-73.143 73.143c0 40.396 32.747 73.143 73.143 73.143s73.143-32.747 73.143-73.143zM804.572 448c0-40.396-32.747-73.143-73.143-73.143s-73.143 32.747-73.143 73.143c0 40.396 32.747 73.143 73.143 73.143s73.143-32.747 73.143-73.143zM804.572 9.143c0-40.396-32.747-73.143-73.143-73.143s-73.143 32.747-73.143 73.143c0 40.396 32.747 73.143 73.143 73.143s73.143-32.747 73.143-73.143z" />
<glyph unicode="&#xe908;" glyph-name="exit" d="M32.030 479.969h405.324c17.664 0 32 14.332 32 31.996s-14.336 32-32 32h-405.324c-17.664 0-31.999-14.336-31.999-32s14.336-31.996 31.999-31.996zM192.025 319.969c8.195 0 16.382 3.119 22.617 9.382 12.5 12.51 12.5 32.772 0 45.274l-137.387 137.378 137.387 137.385c12.5 12.5 12.5 32.765 0 45.264-12.508 12.507-32.773 12.507-45.272 0l-159.995-159.995c-12.5-12.5-12.5-32.766 0-45.263l159.995-159.996c6.273-6.31 14.461-9.429 22.656-9.429zM682.674-63.985c9.131 0 17.796 1.284 26.453 3.972l256.764 85.542c34.935 12.203 58.108 44.757 58.108 81.148v767.975c0 47.061-38.272 85.333-85.333 85.333-9.126 0-17.788-1.281-26.453-3.969l-256.755-85.544c-34.944-12.203-58.108-44.756-58.108-81.146v-767.979c0-47.057 38.263-85.333 85.325-85.333zM938.667 895.989c11.733 0 21.333-9.601 21.333-21.335v-767.975c0-9.088-6.101-17.532-14.801-20.565l-255.565-85.158c-1.835-0.593-4.224-0.939-6.959-0.939-11.733 0-21.329 9.6-21.329 21.333v767.979c0 9.085 6.101 17.53 14.805 20.561l255.561 85.161c1.839 0.594 4.228 0.938 6.955 0.938zM373.354 618.63c17.664 0 31.999 14.335 31.999 31.999v191.994c0 29.398 23.928 53.334 53.326 53.334h479.988c17.664 0 31.996 14.336 31.996 31.999s-14.332 31.999-31.996 31.999h-479.988c-64.724 0-117.324-52.608-117.324-117.332v-191.994c0-17.664 14.336-31.999 31.999-31.999zM458.678 63.976h170.667c17.664 0 32 14.336 32 32s-14.336 32-32 32h-170.667c-29.397 0-53.325 23.936-53.325 53.333v191.996c0 17.66-14.336 31.996-31.999 31.996s-31.999-14.336-31.999-31.996v-191.996c0-64.725 52.6-117.333 117.323-117.333z" />
<glyph unicode="&#xe909;" glyph-name="fired" d="M605.814 447.994l398.728 398.736c25.944 25.936 25.944 67.872 0 93.808-25.936 25.936-67.877 25.936-93.813 0l-398.735-398.737-398.725 398.737c-25.948 25.936-67.871 25.936-93.808 0-25.948-25.936-25.948-67.872 0-93.808l398.725-398.736-398.725-398.736c-25.948-25.936-25.948-67.869 0-93.806 12.926-12.939 29.921-19.441 46.904-19.441s33.966 6.502 46.904 19.441l398.725 398.734 398.735-398.734c12.939-12.939 29.923-19.441 46.907-19.441s33.968 6.502 46.907 19.441c25.944 25.936 25.944 67.869 0 93.806l-398.728 398.736z" />
<glyph unicode="&#xe90a;" glyph-name="form" d="M870.401 883.199h-117.504c-6.4 6.4-69.12 69.376-69.376 69.376-4.94 4.463-11.269 7.086-17.92 7.424h-332.8c-3.368 0.019-6.709-0.626-9.828-1.9s-5.956-3.151-8.348-5.524l-69.12-69.376h-91.905c-27.158 0-53.205-10.788-72.408-29.992s-29.993-45.25-29.993-72.408v-742.401c0-27.156 10.788-53.202 29.993-72.407s45.25-29.993 72.408-29.993h716.801c27.156 0 53.202 10.788 72.407 29.993s29.993 45.251 29.993 72.407v742.401c0 27.158-10.788 53.205-29.993 72.408s-45.251 29.992-72.407 29.992zM671.744 892.158l39.936-40.192-107.52-236.289-59.136 44.289 126.72 232.192zM622.592 908.799l-112.384-204.801-130.816 204.801h243.201zM328.448 893.694l149.248-234.753-59.904-44.8-130.048 238.849 40.704 40.704zM921.601 38.397c0-13.578-5.396-26.604-14.996-36.204-9.6-9.605-22.625-14.996-36.204-14.996h-716.801c-13.579 0-26.602 5.392-36.204 14.996-9.601 9.6-14.996 22.625-14.996 36.204v742.401c0 13.579 5.394 26.602 14.996 36.204s22.625 14.996 36.204 14.996h87.297l146.176-268.288c1.76-3.23 4.196-6.043 7.141-8.246s6.331-3.746 9.928-4.524c3.595-0.778 7.318-0.772 10.907 0.019 3.594 0.791 6.973 2.346 9.912 4.56l87.040 65.28 87.040-65.28c3.072-2.293 6.616-3.868 10.373-4.608 3.763-0.74 7.639-0.626 11.351 0.331 3.707 0.959 7.158 2.737 10.086 5.204s5.268 5.563 6.846 9.055l121.089 266.497h111.616c13.578 0 26.604-5.394 36.204-14.996s14.996-22.625 14.996-36.204v-742.401zM512 422.398c28.278 0 51.201 22.922 51.201 51.201s-22.922 51.201-51.201 51.201c-28.278 0-51.201-22.922-51.201-51.201s22.922-51.201 51.201-51.201zM512 243.198c28.278 0 51.201 22.922 51.201 51.201s-22.922 51.201-51.201 51.201c-28.278 0-51.201-22.922-51.201-51.201s22.922-51.201 51.201-51.201zM512 63.997c28.278 0 51.201 22.922 51.201 51.201s-22.922 51.201-51.201 51.201c-28.278 0-51.201-22.922-51.201-51.201s22.922-51.201 51.201-51.201z" />
<glyph unicode="&#xe90b;" glyph-name="fractions" d="M490.46 953.478c13.043 8.695 30.034 8.695 43.081 0l462.605-308.407c31.969-21.309 16.878-71.139-21.538-71.139h-925.216c-38.419 0-53.507 49.829-21.539 71.139l462.607 308.407zM512.003 901.169l-407.647-271.764h815.289l-407.642 271.764zM965.377 598.917c-0.004 0.008-0.017 0.013-0.021 0.017l0.021-0.017zM844.836 157.888c-15.318 0-27.737 12.423-27.737 27.737v305.097c0 15.318 12.419 27.737 27.737 27.737 15.314 0 27.733-12.419 27.733-27.737v-305.097c0-15.314-12.419-27.737-27.733-27.737zM622.948 157.888c-15.318 0-27.737 12.423-27.737 27.737v305.097c0 15.318 12.419 27.737 27.737 27.737 15.314 0 27.733-12.419 27.733-27.737v-305.097c0-15.314-12.419-27.737-27.733-27.737zM401.058 157.888c-15.318 0-27.733 12.423-27.733 27.737v305.097c0 15.318 12.415 27.737 27.733 27.737s27.737-12.419 27.737-27.737v-305.097c0-15.314-12.419-27.737-27.737-27.737zM179.168 157.888c-15.318 0-27.736 12.423-27.736 27.737v305.097c0 15.318 12.418 27.737 27.736 27.737s27.736-12.419 27.736-27.737v-305.097c0-15.314-12.418-27.737-27.736-27.737zM40.487 19.208c0 45.952 37.254 83.208 83.208 83.208h776.611c45.952 0 83.208-37.257 83.208-83.208s-37.257-83.208-83.208-83.208h-776.611c-45.954 0-83.208 37.257-83.208 83.208zM123.696 46.945c-15.318 0-27.736-12.423-27.736-27.737s12.418-27.737 27.736-27.737h776.611c15.314 0 27.737 12.423 27.737 27.737s-12.423 27.737-27.737 27.737h-776.611z" />
<glyph unicode="&#xe90c;" glyph-name="gov" d="M0 709.339v-773.339h298.663v829.339l-298.663-56zM213.338 21.336h-128v85.328h128v-85.328zM213.338 192h-128v85.339h128v-85.339zM213.338 362.664h-128v85.337h128v-85.337zM213.338 533.339h-128v85.325h128v-85.325zM384 960v-1024h640v904l-640 120zM640 21.336h-128v85.328h128v-85.328zM640 192h-128v85.337h128v-85.337zM640 362.663h-128v85.337h128v-85.337zM640 533.337h-128v85.326h128v-85.326zM640 704h-128v85.337h128v-85.337zM896 21.336h-128v85.328h128v-85.328zM896 192h-128v85.337h128v-85.337zM896 362.663h-128v85.337h128v-85.337zM896 533.337h-128v85.326h128v-85.326z" />
<glyph unicode="&#xe90d;" glyph-name="loop" d="M1006.131 39.593l-196.803 196.803c59.643 78.080 92.355 172.785 92.37 272.72 0 120.433-46.909 233.666-132.081 318.824-85.156 85.158-198.374 132.063-318.824 132.063-120.433 0-233.666-46.905-318.824-132.063-175.798-175.812-175.798-461.865 0-637.65 85.158-85.171 198.391-132.076 318.824-132.076 99.939 0.010 194.643 32.727 272.723 92.37l196.803-196.803c11.837-11.853 27.377-17.777 42.906-17.777 15.524 0 31.068 5.924 42.906 17.777 23.7 23.69 23.7 62.121 0 85.811zM217.78 276.101c-128.478 128.476-128.463 337.537 0 466.029 62.239 62.224 144.996 96.506 233.014 96.506 88.035 0 170.774-34.282 233.013-96.506 62.239-62.239 96.522-144.997 96.522-233.014 0-88.032-34.284-170.776-96.522-233.015s-144.978-96.522-233.013-96.522c-88.017 0-170.775 34.284-233.014 96.522z" />
<glyph unicode="&#xe90e;" glyph-name="map" d="M1021.204 909.751l-364.52-950.305c-2.656-6.887-7.33-12.807-13.411-16.988-6.079-4.191-13.28-6.437-20.66-6.458h-2.564c-7.784 0.576-15.181 3.625-21.112 8.695s-10.086 11.909-11.859 19.509l-104.776 454.275-454.272 103.676c-7.534 1.86-14.283 6.064-19.273 12.007s-7.965 13.317-8.495 21.058c-0.53 7.743 1.413 15.452 5.548 22.019s10.247 11.652 17.458 14.521l950.31 365.615c6.653 2.665 13.951 3.318 20.975 1.876s13.471-4.912 18.542-9.983c5.070-5.070 8.538-11.518 9.984-18.543 1.436-7.025 0.782-14.317-1.875-20.976z" />
<glyph unicode="&#xe90f;" glyph-name="members" d="M512.001 476.443c-89.766 0-162.538 72.773-162.538 162.542s72.773 162.54 162.538 162.54c89.766 0 162.538-72.772 162.538-162.54s-72.773-162.542-162.538-162.542zM512.001 525.204c62.84 0 113.776 50.942 113.776 113.78s-50.937 113.777-113.776 113.777c-62.84 0-113.777-50.941-113.777-113.777s50.937-113.78 113.777-113.78zM292.572 533.333c0 67.326-54.578 121.905-121.905 121.905s-121.905-54.578-121.905-121.905c0-67.326 54.578-121.905 121.905-121.905s121.905 54.579 121.905 121.905zM243.81 533.333c0-40.394-32.747-73.143-73.143-73.143s-73.143 32.749-73.143 73.143c0 40.395 32.747 73.143 73.143 73.143s73.143-32.747 73.143-73.143zM0 118.856v97.524c0 94.257 76.41 170.666 170.666 170.666 59.725 0 112.285-30.681 142.78-77.136 35.112 74.41 110.822 125.898 198.555 125.898s163.44-51.488 198.553-125.898c30.496 46.456 83.056 77.136 142.78 77.136 94.257 0 170.666-76.41 170.666-170.666v-97.524c0-13.463-10.918-24.381-24.381-24.381h-975.239c-13.465 0-24.381 10.918-24.381 24.381zM48.763 216.381v-73.143h243.809v73.143c0 67.326-54.578 121.905-121.905 121.905s-121.905-54.579-121.905-121.905zM975.239 143.238v73.143c0 67.326-54.579 121.905-121.905 121.905s-121.905-54.579-121.905-121.905v-73.143h243.809zM682.667 143.238v73.143c0 94.257-76.41 170.666-170.666 170.666s-170.666-76.41-170.666-170.666v-73.143h341.334zM975.239 533.333c0 67.326-54.579 121.905-121.905 121.905s-121.905-54.578-121.905-121.905c0-67.326 54.579-121.905 121.905-121.905s121.905 54.579 121.905 121.905zM926.478 533.333c0-40.394-32.749-73.143-73.143-73.143s-73.143 32.749-73.143 73.143c0 40.395 32.749 73.143 73.143 73.143s73.143-32.747 73.143-73.143z" />
<glyph unicode="&#xe910;" glyph-name="neutral" d="M731.048 928.628l-550.531-891.842c-19.182-31.061-9.537-71.756 21.514-90.913 10.811-6.673 22.788-9.873 34.639-9.873 22.156 0 43.806 11.136 56.288 31.386l550.531 891.857c19.17 31.050 9.537 71.745-21.524 90.9-31.042 19.164-71.773 9.537-90.918-21.514z" />
<glyph unicode="&#xe911;" glyph-name="news" d="M977.994 637.2c-68.18 184.086-190.904 313.628-299.992 313.628-17.045 0-30.681-3.409-44.317-6.818-30.681-10.227-57.953-34.090-74.998-64.771-204.54-231.812-487.487-337.491-490.896-337.491-68.18-23.864-88.634-132.952-44.317-252.267 37.499-102.27 105.679-167.041 167.041-167.041 6.818 0 17.045 0 23.863 3.409s44.317 10.227 112.497 20.454l68.18-143.178c3.409-6.818 10.227-13.636 20.454-17.045l109.088-37.499c3.409 0 6.818-3.409 10.227-3.409 6.818 0 13.636 3.409 20.454 6.818 10.227 6.818 13.636 20.454 13.636 30.681l-23.863 194.313c85.225 6.818 180.677 10.227 276.129 3.409h6.818c13.636-3.409 27.272-6.818 40.908-6.818 17.045 0 30.681 3.409 44.317 6.818 57.953 20.454 98.861 85.225 109.088 177.268 6.818 81.816-6.818 184.087-44.317 279.539zM449.599 47.442l-51.135 112.497 78.407 10.227 17.045-136.36-44.317 13.636zM695.047 374.706c-23.863 37.499-47.726 81.816-68.18 136.36-17.045 51.136-30.681 98.862-34.090 146.588 10.227 0 23.863-10.227 37.499-20.454 23.863-23.863 47.726-61.362 61.362-102.271 27.272-78.407 20.454-139.769 3.409-160.223zM197.333 190.62c-3.409 0-3.409 0-3.409 0-23.863-6.818-74.998 37.499-109.088 122.724-30.681 85.225-17.045 156.814 3.409 163.632 10.227 3.409 231.812 85.226 432.943 269.312-3.409-78.407 10.227-170.45 40.908-259.085 37.499-98.861 88.634-180.677 146.587-238.63-265.902 3.409-501.123-54.544-511.35-57.953zM950.722 364.479c-6.818-64.771-30.681-105.679-64.771-119.315-6.818-3.409-13.636-3.409-20.454-3.409-37.499 0-81.816 27.272-129.542 81.816 47.726 40.908 57.953 132.951 20.454 235.222-20.454 51.135-47.726 95.452-78.407 126.133-27.272 27.272-57.953 40.908-88.634 40.908 0 13.636 0 23.863 3.409 34.090 6.818 64.771 30.681 105.679 64.771 119.315 6.818 3.409 13.636 3.409 20.454 3.409 68.18 0 173.859-102.27 235.221-269.311 34.090-85.226 47.726-177.269 37.499-248.858z" />
<glyph unicode="&#xe912;" glyph-name="parking" d="M970.699 510.106l-82.257 37.559-72.602 115.829c-20.983 33.574-57.916 53.928-97.574 53.718h-309.298c-35.882 0-69.876-16.577-91.698-45.114l-93.797-122.754-156.327-42.805c-39.659-10.914-67.148-47.215-67.148-88.341v-59.806c0-50.569 40.288-92.326 90.859-92.326h13.43c16.157-62.319 79.738-99.674 142.059-83.516 40.918 10.705 73.023 42.598 83.514 83.516h352.524c16.158-62.319 79.74-99.674 142.059-83.516 40.917 10.705 73.024 42.598 83.516 83.516h25.178c50.573 0 90.863 41.758 90.863 92.326v68.198c0.209 35.883-20.774 68.617-53.299 83.516zM216.968 221.158c-41.128 0-74.492 33.365-74.492 74.492 0 41.131 33.364 74.492 74.492 74.492s74.491-33.361 74.491-74.492c0.21-40.917-33.154-74.278-74.491-74.492zM795.066 221.158c-41.126 0-74.492 33.365-74.492 74.492 0 41.131 33.365 74.492 74.492 74.492s74.492-33.361 74.492-74.492c0.209-40.917-33.156-74.278-74.492-74.492zM933.135 308.032h-22.242c-6.925 64-64.627 110.165-128.627 103.031-54.349-5.875-97.156-48.892-103.031-103.031h-346.437c-6.924 64-64.629 110.165-128.629 103.031-54.348-5.875-97.154-48.892-103.029-103.031h-10.492c-27.489 0-48.892 22.874-48.892 50.359v59.806c-0.21 22.451 14.689 41.967 36.301 48.051l163.462 44.693c4.407 1.259 8.394 3.78 11.121 7.556l97.783 128.209c14.059 18.046 35.672 28.538 58.544 28.538h309.298c25.182 0.21 48.892-12.59 62.11-33.993l75.964-121.286c2.095-3.567 5.453-6.293 9.020-7.974l87.714-40.077c17.626-8.183 28.954-25.809 28.745-45.325v-68.198h0.209c0-27.486-21.402-50.359-48.892-50.359z" />
<glyph unicode="&#xe913;" glyph-name="person" d="M666.376 485.188c65.519 47.787 108.19 125.124 108.19 212.248 0 144.778-117.786 262.564-262.566 262.564-144.777 0-262.563-117.786-262.563-262.564 0-87.124 42.666-164.461 108.19-212.248-162.88-62.327-278.856-220.25-278.856-404.779 0-79.629 64.782-144.41 144.41-144.41h577.637c79.629 0 144.41 64.781 144.41 144.41 0 184.529-115.972 342.451-278.852 404.779zM328.206 697.436c0 101.344 82.45 183.794 183.793 183.794 101.346 0 183.795-82.45 183.795-183.794s-82.449-183.798-183.795-183.798c-101.343 0-183.793 82.454-183.793 183.798zM800.818 14.771h-577.637c-36.194 0-65.64 29.444-65.64 65.643 0 195.452 159.008 354.462 354.464 354.462 195.452 0 354.462-159.010 354.462-354.462-0.004-36.198-29.449-65.643-65.647-65.643z" />
<glyph unicode="&#xe914;" glyph-name="plus" d="M621.715 539.429c-10.098 0-18.286 8.188-18.286 18.286v402.286h-182.857v-402.286c0-10.098-8.188-18.286-18.286-18.286h-402.286v-182.857h402.286c10.098 0 18.286-8.188 18.286-18.286v-402.286h182.857v402.286c0 10.098 8.188 18.286 18.286 18.286h402.286v182.857h-402.286z" />
<glyph unicode="&#xe915;" glyph-name="question" d="M551.999 155.998h-80.001v80.001h80.001v-80.001zM551.999 389.712c77.344 18.713 130.931 88.879 127.877 168.233-3.319 86.404-74.216 156.667-161.39 159.93-46.574 1.757-90.561-14.925-123.812-46.944-32.678-31.482-50.674-73.711-50.674-118.931h80.001c0 23.281 9.289 45.056 26.16 61.306 17.457 16.813 40.64 25.532 65.326 24.631 45.633-1.718 82.728-38.202 84.451-83.070 1.599-41.81-27.255-78.756-68.637-87.838-34.922-7.662-59.302-37.836-59.302-73.381v-77.648h80.001v73.712zM874.039 85.96c96.705 96.701 149.961 225.284 149.961 362.040s-53.256 265.337-149.961 362.037c-96.701 96.706-225.284 149.963-362.040 149.963s-265.337-53.257-362.037-149.963c-96.706-96.7-149.963-225.281-149.963-362.037s53.257-265.339 149.963-362.040c96.7-96.705 225.281-149.961 362.037-149.961s265.339 53.256 362.040 149.961zM943.998 448c0-238.2-193.8-431.999-431.999-431.999s-431.999 193.8-431.999 431.999 193.801 431.999 431.999 431.999c238.2 0 431.999-193.801 431.999-431.999z" />
<glyph unicode="&#xe916;" glyph-name="rank" d="M485.053 852.21c0 44.648 36.196 80.842 80.842 80.842h134.737c44.646 0 80.842-36.195 80.842-80.842v-462.707c8.429 2.98 17.5 4.603 26.947 4.603h134.737c44.646 0 80.842-36.196 80.842-80.842v-269.473c0-44.646-36.196-80.842-80.842-80.842h-862.316c-44.648 0-80.842 36.196-80.842 80.842v431.157c0 44.646 36.195 80.842 80.842 80.842h134.737c9.448 0 18.519-1.622 26.947-4.603v139.339c0 44.648 36.195 80.842 80.842 80.842h134.737c9.447 0 18.518-1.621 26.947-4.6v85.442zM727.579 16.842v835.368c0 14.883-12.067 26.947-26.947 26.947h-134.737c-14.88 0-26.947-12.064-26.947-26.947v-835.368h188.631zM781.473 16.842h161.684c14.88 0 26.947 12.067 26.947 26.947v269.473c0 14.88-12.067 26.947-26.947 26.947h-134.737c-14.88 0-26.947-12.067-26.947-26.947v-296.421zM485.053 690.526c0 14.883-12.067 26.947-26.947 26.947h-134.737c-14.883 0-26.947-12.064-26.947-26.947v-673.683h188.631v673.683zM242.527 16.842v458.105c0 14.88-12.064 26.947-26.947 26.947h-134.737c-14.883 0-26.947-12.067-26.947-26.947v-431.157c0-14.88 12.064-26.947 26.947-26.947h161.684z" />
<glyph unicode="&#xe917;" glyph-name="settings" d="M979.031 366.61l-42.607 35.068c-29.175 24.022-29.124 68.67 0.009 92.645l42.598 35.068c30.31 24.958 38.067 67.754 18.432 101.764l-84.113 145.691c-19.635 34.009-60.587 48.689-97.351 34.917l-51.67-19.359c-35.392-13.256-74.032 9.103-80.234 46.322l-9.070 54.428c-6.456 38.732-39.642 66.846-78.91 66.846h-168.23c-39.27 0-72.458-28.114-78.912-66.848l-9.072-54.426c-6.214-37.286-44.907-59.556-80.232-46.324l-51.67 19.36c-36.766 13.772-77.71-0.911-97.348-34.917l-84.114-145.69c-19.634-34.006-11.882-76.804 18.436-101.764l42.598-35.068c29.184-24.024 29.126-68.668 0-92.644l-42.6-35.069c-30.316-24.96-38.070-67.757-18.436-101.763l84.116-145.692c19.636-34.002 60.572-48.688 97.348-34.915l51.668 19.354c35.398 13.265 74.030-9.105 80.232-46.319l9.073-54.426c6.455-38.733 39.643-66.85 78.912-66.85h168.23c39.268 0 72.456 28.117 78.91 66.85l9.070 54.426c6.211 37.274 44.902 59.558 80.234 46.319l51.672-19.354c36.774-13.781 77.716 0.905 97.351 34.913l84.113 145.694c19.635 34.006 11.878 76.803-18.432 101.762zM844.065 159.154l-51.67 19.358c-82.598 30.942-172.74-21.26-187.21-108.087l-9.070-54.426h-168.23l-9.072 54.426c-14.498 86.995-104.772 138.969-187.21 108.087l-51.67-19.358-84.114 145.691 42.598 35.069c68.098 56.060 67.956 160.228 0 216.172l-42.598 35.069 84.116 145.691 51.668-19.358c82.6-30.94 172.74 21.26 187.21 108.087l9.070 54.426h168.23l9.070-54.426c14.5-87.004 104.778-138.963 187.21-108.087l51.67 19.358 84.134-145.672c0 0-0.009-0.006-0.026-0.018l-42.59-35.068c-68.099-56.056-67.964-160.226-0.009-216.172l42.607-35.068-84.116-145.694zM511.999 645.334c-108.81 0-197.334-88.524-197.334-197.334s88.524-197.334 197.334-197.334c108.81 0 197.334 88.524 197.334 197.334s-88.524 197.334-197.334 197.334zM511.999 330.666c-64.698 0-117.334 52.636-117.334 117.334s52.636 117.334 117.334 117.334c64.698 0 117.334-52.636 117.334-117.334s-52.636-117.334-117.334-117.334z" />
<glyph unicode="&#xe918;" glyph-name="squads" d="M955.735 245.334h-38.4v141.269c0 61.12-58.389 114.731-124.949 114.731h-259.051v128.001h59.733c37.675 0.070 68.198 30.594 68.267 68.266v140.8c-0.068 37.674-30.592 68.196-68.267 68.266h-162.133c-37.673-0.070-68.195-30.594-68.265-68.266v-140.8c0.070-37.674 30.594-68.196 68.265-68.266h59.733v-128.001h-259.051c-66.56 0-124.95-53.611-124.95-114.731v-141.269h-38.4c-37.672-0.073-68.196-30.592-68.266-68.267v-119.467c0.070-37.675 30.594-68.194 68.266-68.267h119.466c37.674 0.073 68.196 30.596 68.266 68.267v119.467c-0.070 37.675-30.594 68.194-68.266 68.267h-38.4v141.269c0 41.259 43.434 72.064 82.282 72.064h259.049v-213.333h-38.4c-37.673-0.073-68.195-30.596-68.265-68.267v-119.467c0.070-37.675 30.594-68.194 68.265-68.267h119.467c37.675 0.073 68.198 30.596 68.267 68.267v119.467c-0.068 37.675-30.592 68.194-68.267 68.267h-38.4v213.333h259.051c38.848 0 82.283-30.805 82.283-72.064v-141.269h-38.4c-37.675-0.073-68.198-30.596-68.267-68.267v-119.467c0.068-37.675 30.596-68.194 68.267-68.267h119.467c37.675 0.073 68.194 30.596 68.267 68.267v119.467c-0.064 37.675-30.588 68.194-68.262 68.267zM187.734 202.668c14.138 0 25.6-11.46 25.6-25.6v-119.467c0-14.135-11.462-25.6-25.6-25.6h-119.468c-14.138 0-25.6 11.465-25.6 25.6v119.467c0 14.14 11.462 25.6 25.6 25.6h119.468zM571.734 202.668c14.14 0 25.6-11.46 25.6-25.6v-119.467c0-14.135-11.46-25.6-25.6-25.6h-119.467c-14.135 0-25.6 11.465-25.6 25.6v119.467c0 14.14 11.465 25.6 25.6 25.6h119.467zM430.934 672.002c-14.138 0-25.599 11.462-25.599 25.6v140.8c0 14.138 11.462 25.6 25.599 25.6h162.133c14.14 0 25.6-11.462 25.6-25.6v-140.8c0-14.138-11.46-25.6-25.6-25.6h-162.133zM981.335 57.6c0-14.135-11.46-25.6-25.6-25.6h-119.467c-14.135 0-25.6 11.465-25.6 25.6v119.467c0 14.14 11.465 25.6 25.6 25.6h119.467c14.14 0 25.6-11.46 25.6-25.6v-119.467z" />
<glyph unicode="&#xe919;" glyph-name="stats" d="M768 874.667c94.123 0 170.667-76.544 170.667-170.667v-512c0-94.123-76.544-170.667-170.667-170.667h-512c-94.123 0-170.667 76.544-170.667 170.667v512c0 94.123 76.544 170.667 170.667 170.667h512zM768 960h-512c-141.397 0-256-114.603-256-256v-512c0-141.397 114.603-256 256-256h512c141.397 0 256 114.603 256 256v512c0 141.397-114.603 256-256 256zM298.667 192c-23.552 0-42.667 19.072-42.667 42.667v256c0 23.552 19.115 42.667 42.667 42.667s42.667-19.115 42.667-42.667v-256c0-23.595-19.115-42.667-42.667-42.667zM512 192c-23.552 0-42.667 19.072-42.667 42.667v426.667c0 23.552 19.115 42.667 42.667 42.667s42.667-19.115 42.667-42.667v-426.667c0-23.595-19.115-42.667-42.667-42.667zM725.333 192c-23.595 0-42.667 19.072-42.667 42.667v256c0 23.552 19.072 42.667 42.667 42.667s42.667-19.115 42.667-42.667v-256c0-23.595-19.072-42.667-42.667-42.667z" />
<glyph unicode="&#xe91a;" glyph-name="stock" d="M996.531 742.074c0 12.991-7.846 24.696-19.861 29.634l-452.497 185.889c-7.799 3.204-16.546 3.204-24.346 0l-452.495-185.889c-12.016-4.936-19.863-16.643-19.863-29.634v-588.15c0-12.988 7.845-24.695 19.863-29.632l452.495-185.89c7.718-3.17 16.388-3.238 24.307 0.004 0.388 0.128-16.747-6.899 452.535 185.886 12.015 4.937 19.861 16.644 19.861 29.632v588.15zM512 588.126l-166.726 68.492 360.313 157.182 177.877-73.073-371.465-152.601zM91.543 691.585l143.846-59.094v-166.72c0-17.69 14.345-32.034 32.037-32.034s32.037 14.345 32.037 32.034v140.399l180.503-74.15v-516.186l-388.422 159.565v516.186zM512 893.329l111.061-45.624-360.316-157.182-122.21 50.205 371.465 152.6zM544.038 532.019l388.42 159.566v-516.186l-388.42-159.565v516.186z" />
<glyph unicode="&#xe91b;" glyph-name="tasks" d="M825.503 887.237h-39.685v49.516c0 12.84-10.149 23.247-22.676 23.247-12.516 0-22.676-10.407-22.676-23.247v-49.743h-457.844v49.743c0 12.84-10.151 23.247-22.677 23.247s-22.676-10.407-22.676-23.247v-49.743h-38.551c-62.609-0.027-113.357-52.049-113.385-116.232v-718.549c0.027-64.183 50.775-116.201 113.385-116.229h626.564c62.612 0.028 113.357 52.048 113.385 116.229v718.776c0 64.1-50.625 116.104-113.164 116.232zM893.538 52.468c-0.108-38.473-30.504-69.632-68.033-69.74h-626.785c-37.524 0.108-67.925 31.267-68.031 69.74v718.537c0.107 38.475 30.508 69.631 68.031 69.739h38.551v-36.032c0-12.84 10.151-23.245 22.676-23.245s22.677 10.407 22.677 23.245v36.032h457.844v-36.032c0-12.84 10.16-23.245 22.676-23.245 12.527 0 22.676 10.407 22.676 23.245v36.032h39.685c37.529-0.108 67.925-31.264 68.033-69.739v-718.537zM373.782 467.172l-83.675-81.823-38.551 39.521c-8.832 9.051-23.147 9.051-31.977 0-8.832-9.057-8.832-23.728 0-32.785l54.203-55.552c4.252-4.397 10.063-6.832 16.095-6.747 5.856-0.057 11.489 2.287 15.652 6.508l99.548 97.639c5.888 5.712 8.345 14.216 6.412 22.289-1.928 8.072-7.941 14.467-15.739 16.731-7.804 2.269-16.193 0.063-21.968-5.78zM788.771 424.875h-260.784c-12.527 0-22.676-10.405-22.676-23.245s10.149-23.251 22.676-23.251h260.784c12.527 0 22.676 10.411 22.676 23.251s-10.149 23.245-22.676 23.245zM373.782 699.639l-83.675-81.825-38.551 39.519c-8.832 9.053-23.147 9.053-31.977 0s-8.832-23.728 0-32.781l54.203-55.556c4.252-4.395 10.063-6.828 16.095-6.747 5.856-0.055 11.489 2.288 15.652 6.511l99.548 97.635c5.888 5.712 8.345 14.22 6.412 22.293-1.928 8.072-7.941 14.465-15.739 16.727-7.804 2.269-16.193 0.063-21.968-5.776zM788.771 657.333h-260.784c-12.527 0-22.676-10.407-22.676-23.247s10.149-23.247 22.676-23.247h260.784c12.527 0 22.676 10.407 22.676 23.247s-10.149 23.247-22.676 23.247zM373.782 234.717l-83.675-81.829-38.551 39.521c-8.832 9.051-23.147 9.051-31.977 0-8.832-9.057-8.832-23.728 0-32.78l54.203-55.557c4.252-4.397 10.063-6.827 16.095-6.747 5.856-0.057 11.489 2.287 15.652 6.508l99.548 97.639c5.888 5.712 8.345 14.216 6.412 22.289-1.928 8.079-7.941 14.467-15.739 16.731-7.804 2.269-16.193 0.063-21.968-5.775zM788.771 192.404h-260.784c-12.527 0-22.676-10.405-22.676-23.245 0-12.845 10.149-23.251 22.676-23.251h260.784c12.527 0 22.676 10.405 22.676 23.251 0 12.84-10.149 23.245-22.676 23.245z" />
<glyph unicode="&#xe91c;" glyph-name="time" d="M512 960c-281.22 0-512-230.78-512-512 0-281.222 230.78-512 512-512 281.222 0 512 230.778 512 512 0 281.22-230.778 512-512 512zM745.344 723.772c11.718 11.716 30.714 11.716 42.426 0 11.718-11.716 11.718-30.71 0-42.426-11.712-11.716-30.707-11.716-42.426 0-11.712 11.716-11.712 30.71 0 42.426zM482 808c0 16.582 13.418 30 30 30s30-13.418 30-30v-60c0-16.582-13.418-30-30-30s-30 13.418-30 30v60zM152 418c-16.582 0-30 13.418-30 30s13.418 30 30 30h60c16.582 0 30-13.418 30-30s-13.418-30-30-30h-60zM278.654 172.23c-11.716-11.718-30.71-11.718-42.426 0-11.716 11.712-11.716 30.707 0 42.426s30.71 11.718 42.426 0c11.716-11.718 11.716-30.714 0-42.426zM278.654 681.346c-11.716-11.716-30.71-11.716-42.426 0s-11.716 30.71 0 42.426c11.716 11.716 30.71 11.716 42.426 0s11.716-30.71 0-42.426zM542 88c0-16.582-13.418-30.003-30-30.003s-30 13.421-30 30.003v60c0 16.582 13.418 29.997 30 29.997s30-13.414 30-29.997v-60zM713.21 246.79c-11.718-11.718-30.701-11.718-42.419 0l-180.003 179.999c-5.624 5.624-8.788 13.242-8.788 21.21v180c0 16.582 13.418 30 30 30s30-13.418 30-30v-167.578l171.21-171.212c11.718-11.718 11.718-30.701 0-42.419zM787.77 172.23c-11.712-11.718-30.707-11.718-42.426 0-11.712 11.712-11.712 30.707 0 42.426 11.718 11.718 30.714 11.718 42.426 0 11.718-11.718 11.718-30.714 0-42.426zM902.003 448c0-16.582-13.421-30-30.003-30h-60c-16.582 0-29.997 13.418-29.997 30s13.414 30 29.997 30h60c16.582 0 30.003-13.418 30.003-30z" />
<glyph unicode="&#xe91d;" glyph-name="upgrade" d="M980.085 191.257c-91.648 91.649-85.636 85.843-88.218 87.747l-242.596 179.112 94.109 94.102c75.666-26.962 161.331-8.322 218.982 49.332 62.815 62.812 79.301 158.842 41.033 238.956-8.923 18.665-33.66 22.894-48.267 8.28l-77.583-77.582c-11.696-11.692-30.713-11.694-42.416 0-11.725 11.722-11.725 30.69 0 42.412l77.583 77.584c14.629 14.626 10.372 39.358-8.28 48.266-80.113 38.272-176.141 21.784-238.956-41.026-57.668-57.668-76.286-143.338-49.332-218.982l-108.536-108.526c-22.098 17.189 7.062-12.17-201.068 208.522l21.818 21.818c13.8 13.798 10.924 36.902-5.776 46.922l-160.628 96.378c-42.106 25.264-95.76 18.66-130.482-16.062-34.72-34.72-41.326-88.378-16.062-130.482l96.378-160.63c10.036-16.732 33.151-19.548 46.922-5.776l20.577 20.576c207.051-219.55 179.8-189.728 196.168-210.774 0.388-0.498 0.82-0.938 1.232-1.407l-96.241-96.234c-75.64 26.955-161.316 8.336-218.98-49.332-62.812-62.812-79.3-158.841-41.026-238.955 8.922-18.666 33.654-22.894 48.268-8.28l77.582 77.583c11.698 11.696 30.72 11.688 42.414 0 11.722-11.725 11.722-30.691 0-42.416l-77.586-77.583c-14.629-14.621-10.372-39.358 8.28-48.267 28.796-13.758 59.64-20.436 90.268-20.436 54.58 0 108.452 21.226 148.688 61.462 57.668 57.666 76.287 143.338 49.332 218.982l82.192 82.189 191.368-232.564c1.456-1.763-3.348 3.152 82.241-82.432 31.159-31.159 72.58-47.316 113.32-47.316 29.886 0 59.399 8.704 84.195 26.558 75.666 54.499 84.582 162.787 19.083 228.279zM201.736 715.816c-11.626 12.326-31.116 12.542-43.026 0.63l-15.254-15.252-76.614 127.694c-11.076 18.46-8.182 41.985 7.042 57.209 15.224 15.226 38.75 18.118 57.207 7.042l127.694-76.616-15.254-15.25c-11.47-11.47-11.742-29.982-0.612-41.782 239.144-253.578 201.526-215.42 221.942-231.3l-45.514-45.51c-15.73 20.228 20.795-19.662-217.612 233.134zM351.111 244.8c-8.988-8.989-11.334-22.662-5.854-34.131 27.338-57.227 15.554-125.82-29.316-170.693-28.748-28.745-67.228-43.915-106.224-43.908-7.014 0-14.042 0.49-21.036 1.477l42.432 42.437c35.162 35.16 35.168 92.072 0 127.232-35.079 35.079-92.16 35.079-127.239 0l-42.432-42.43c-6.496 45.868 8.516 93.338 42.432 127.257 44.872 44.874 113.464 56.652 170.688 29.318 11.468-5.478 25.142-3.136 34.134 5.854l364.021 363.995c8.988 8.988 11.333 22.664 5.856 34.134-27.338 57.222-15.554 125.818 29.316 170.688 33.925 33.92 81.388 48.93 127.255 42.432l-42.43-42.432c-16.998-16.993-26.353-39.588-26.353-63.62s9.355-46.623 26.353-63.62c35.079-35.080 92.16-35.078 127.239 0l42.43 42.432c6.495-45.87-8.514-93.34-42.43-127.256-44.873-44.872-113.467-56.654-170.693-29.318-11.461 5.478-25.141 3.134-34.131-5.854l-364.019-363.995zM532.363 341.215l74.018 74.013 75.438-55.696-90.13-90.13c-61.28 74.468-57.456 69.98-59.326 71.814zM925.945 11.654c-34.977-25.198-86.587-18.966-120.049 14.49l-79.261 79.265-96.656 117.46 100.636 100.634 123.819-91.418 83.237-83.237c38.049-38.049 35.599-103.117-11.725-137.194zM894.742 111.582l-119.962 119.965c-11.71 11.712-30.698 11.712-42.416 0-11.709-11.713-11.709-30.701 0-42.411l119.962-119.962c11.71-11.71 30.705-11.71 42.416 0s11.71 30.698 0 42.408z" />
<glyph unicode="&#xe91e;" glyph-name="warning" d="M1007.672 145.653l-391.396 735.293c-21.765 40.887-60.745 65.299-104.277 65.299s-82.517-24.413-104.277-65.299l-391.398-735.293c-21.765-40.892-21.765-89.708 0-130.6 21.767-40.887 60.745-65.297 104.277-65.297h782.793c43.532 0 82.512 24.411 104.277 65.297 21.772 40.892 21.772 89.708 0 130.6zM955.72 47.588c-10.923-20.52-30.487-32.768-52.327-32.768h-782.793c-21.844 0-41.404 12.248-52.324 32.768-10.92 20.515-10.92 45.011 0 65.524l391.401 735.297c10.923 20.516 30.481 32.764 52.321 32.764s41.404-12.248 52.321-32.764l391.401-735.297c10.917-20.515 10.917-45.011 0-65.524zM541.996 621.522h-59.995v-325.346h59.995v325.346zM511.999 231.101c-22.056 0-39.999-19.461-39.999-43.384 0-23.916 17.943-43.377 39.999-43.377 22.051 0 39.993 19.461 39.993 43.377 0 23.921-17.937 43.384-39.993 43.384z" />
<glyph unicode="&#xe91f;" glyph-name="wifi" d="M511.999 545.493c-121.431 0-232.507-61.753-297.106-165.167-15.642-25.058-8.024-58.051 17.033-73.718 25.036-15.62 58.052-8.021 73.715 17.058 44.914 71.914 122.076 114.841 206.358 114.841 84.287 0 161.427-42.927 206.36-114.841 10.146-16.265 27.584-25.186 45.41-25.186 9.69 0 19.469 2.633 28.288 8.128 25.054 15.646 32.674 48.64 17.033 73.718-64.579 103.414-175.635 165.167-297.089 165.167zM1015.874 509.143c-109.362 175.183-297.729 279.753-503.876 279.753-206.144 0-394.487-104.571-503.872-279.753-15.642-25.058-8.024-58.051 17.033-73.693 25.078-15.62 58.073-8.026 73.715 17.033 89.699 143.664 244.149 229.426 413.125 229.426 168.979 0 323.432-85.762 413.129-229.426 10.142-16.243 27.584-25.165 45.406-25.165 9.673 0 19.473 2.611 28.288 8.132 25.079 15.663 32.695 48.636 17.054 73.693zM511.999 107.103c48.619 0 88.033 39.411 88.033 88.029s-39.415 88.029-88.033 88.029c-48.614 0-88.028-39.411-88.028-88.029s39.415-88.029 88.028-88.029z" />
<glyph unicode="&#xe920;" glyph-name="list" d="M552 211.999c0-22.093-17.91-40.003-40.001-40.003h-236c-22.092 0-40 17.91-40 40.003s17.908 39.997 40 39.997h236c22.091 0 40.001-17.905 40.001-39.997zM1023.999 719.699v-468.368c0-61.414-23.916-119.153-67.343-162.575l-85.412-85.417c-43.423-43.423-101.161-67.338-162.575-67.338h-468.368c-132.822 0-240.3 107.489-240.3 240.297v543.402c0 132.822 107.49 240.3 240.3 240.3h543.402c132.823 0 240.297-107.49 240.297-240.3zM938.633 211.333h-109.967c-44.109 0-80-35.891-80-80v-109.967c24.724 6.799 47.386 19.922 66.007 38.543l85.417 85.417c18.621 18.621 31.744 41.283 38.543 66.007zM943.999 719.699c0 88.602-71.7 160.3-160.297 160.3h-543.402c-88.602 0-160.3-71.702-160.3-160.3v-543.402c0-88.602 71.702-160.297 160.3-160.297h428.366v115.333c0 88.223 71.777 160 160 160h115.333v428.366zM747.999 487.998h-472c-22.092 0-40-17.908-40-40s17.908-40.001 40-40.001h472c22.093 0 40.003 17.91 40.003 40.001s-17.91 40-40.003 40zM747.999 723.999h-472c-22.092 0-40-17.908-40-40s17.908-40 40-40h472c22.093 0 40.003 17.908 40.003 40s-17.91 40-40.003 40z" />
<glyph unicode="&#xe921;" glyph-name="police" d="M557.037 557.858v34.545l-45.018 29.501-45.018-29.501v-34.545c0-30.934 17.72-58.651 45.018-71.842 27.298 13.191 45.018 40.908 45.018 71.842zM907.76 322.753v0.708l116.241 122.539-81.033 216.891-16.512 3.3c-147.132 29.428-292.013 96.906-387.551 180.5l-26.906 23.546-26.905-23.544c-95.539-83.596-240.422-151.074-387.557-180.502l-16.505-3.3-81.032-216.891 116.238-122.539v-0.708h791.52zM406.509 557.849v67.218l105.492 69.127 105.492-69.127v-67.218c0-60.483-38.552-113.969-95.931-133.098l-9.561-3.186-9.561 3.186c-57.379 19.128-95.931 72.614-95.931 133.098zM116.251 262.279v-55.77c0-99.663 81.083-180.747 180.746-180.747h430.033c99.664 0 180.747 81.081 180.747 180.747v55.77h-791.525z" />
<glyph unicode="&#xe922;" glyph-name="shield" d="M941.117 696.339c-0.527 27.646-1.029 53.764-1.029 79.031 0 19.794-16.046 35.843-35.845 35.843-153.288 0-269.993 44.053-367.273 138.639-13.921 13.534-36.065 13.529-49.976 0-97.272-94.586-213.962-138.639-367.239-138.639-19.795 0-35.843-16.048-35.843-35.843 0-25.272-0.497-51.399-1.027-79.050-4.913-257.286-11.642-609.644 417.356-758.344 3.804-1.321 7.771-1.976 11.737-1.976 3.969 0 7.937 0.655 11.736 1.976 429.030 148.705 422.313 501.074 417.403 758.363zM511.983 9.876c-367.922 133.658-362.359 426.44-357.423 685.077 0.296 15.522 0.583 30.566 0.784 45.315 143.562 6.060 258.363 49.563 356.639 135.175 98.285-85.612 213.106-129.12 356.676-135.175 0.2-14.743 0.486-29.778 0.783-45.29 4.936-258.646 10.491-551.443-357.459-685.101zM635.407 572.51l-172.993-172.986-73.822 73.822c-13.998 13.993-36.693 13.993-50.686 0-13.998-14.003-13.998-36.691 0-50.69l99.165-99.164c6.996-6.999 16.172-10.496 25.343-10.496s18.346 3.497 25.343 10.496l198.333 198.327c14.003 13.998 14.003 36.694 0.005 50.686-13.993 13.998-36.69 14.003-50.688 0.005z" />
<glyph unicode="&#xe923;" glyph-name="star" d="M511.999 934.941l120.864-371.989h391.137l-316.435-229.9 120.87-371.993-316.435 229.902-316.433-229.902 120.866 371.993-316.433 229.9h391.133l120.866 371.989z" />
<glyph unicode="&#xe924;" glyph-name="Vector" d="M512 960c-198.433 0-359.87-161.438-359.87-359.87 0-72.072 21.126-141.323 61.164-200.76l298.706-463.37 298.706 463.37c40.038 59.437 61.164 128.688 61.164 200.76 0 198.432-161.437 359.87-359.869 359.87v0zM512 420.195c-99.217 0-179.935 80.719-179.935 179.935s80.718 179.935 179.935 179.935c99.216 0 179.934-80.719 179.934-179.935s-80.718-179.935-179.934-179.935z" />
<glyph unicode="&#xe925;" glyph-name="call" d="M424.53 360.451c-97.84 97.842-119.932 195.683-124.916 234.882-1.392 10.839 2.337 21.708 10.091 29.409l79.177 79.142c11.647 11.64 13.714 29.78 4.984 43.741l-126.065 195.751c-9.658 15.46-29.488 21.040-45.791 12.884l-202.379-95.312c-13.184-6.492-20.938-20.498-19.441-35.117 10.604-100.739 54.522-348.379 297.886-591.759s490.968-287.283 591.762-297.888c14.617-1.497 28.625 6.258 35.113 19.44l95.315 202.377c8.123 16.268 2.583 36.046-12.813 45.723l-195.75 126.031c-13.956 8.739-32.094 6.689-43.744-4.951l-79.14-79.176c-7.698-7.755-18.569-11.486-29.409-10.091-39.198 4.982-137.041 27.077-234.88 124.914z" />
<glyph unicode="&#xe926;" glyph-name="gos" d="M766.794 851.022l-527.609-211.027h-143.187c-52.906 0-95.999-43.094-95.999-95.999v-117.331c0-50.262 39.467-85.334 95.999-85.334h36.266l38.742-271.188c2.261-15.785 15.744-27.474 31.658-27.474h127.999c9.13 0 17.792 3.881 23.894 10.665 6.058 6.784 8.96 15.831 7.936 24.919l-25.174 223.823 429.436-171.774c3.881-1.536 7.895-2.304 11.904-2.304 6.272 0 12.585 1.879 17.961 5.504 8.791 5.975 14.039 15.872 14.039 26.496v661.328c0 10.624-5.248 20.523-14.039 26.496-8.832 5.974-20.009 7.168-29.824 3.2zM905.33 582.991l106.664 85.333c13.783 11.051 16.041 31.19 4.992 45.013-11.095 13.738-31.191 15.958-45.014 4.992l-106.664-85.333c-13.783-11.050-16.041-31.19-4.992-45.013 6.313-7.85 15.616-11.989 25.001-11.989 7.040 0 14.080 2.304 20.014 6.997zM905.33 355.667c-13.742 10.967-33.879 8.745-45.014-4.992-11.049-13.783-8.791-33.961 4.992-45.014l106.664-85.329c5.934-4.695 12.974-6.999 20.014-6.999 9.385 0 18.688 4.137 25.001 11.991 11.049 13.778 8.791 33.961-4.992 45.009l-106.664 85.334zM991.98 501.329h-106.664c-17.664 0-32-14.336-32-32s14.336-32 32-32h106.664c17.664 0 32 14.336 32 32s-14.336 32-32 32z" />
<glyph unicode="&#xe927;" glyph-name="info" d="M511.978 960c-282.732 0-511.978-229.246-511.978-511.978 0-282.735 229.246-512.022 511.978-512.022 282.735 0 512.022 229.286 512.022 512.022 0 282.732-229.286 511.978-512.022 511.978zM618.561 166.502c-26.353-10.4-47.332-18.291-63.066-23.75-15.691-5.466-33.939-8.192-54.7-8.192-31.901 0-56.737 7.802-74.421 23.36s-26.483 35.283-26.483 59.251c0 9.318 0.65 18.854 1.95 28.563 1.344 9.709 3.468 20.634 6.372 32.902l32.984 116.506c2.904 11.183 5.418 21.802 7.412 31.684 1.994 9.969 2.948 19.115 2.948 27.437 0 14.824-3.078 25.226-9.189 31.078-6.198 5.852-17.858 8.712-35.238 8.712-8.495 0-17.251-1.257-26.223-3.901-8.885-2.73-16.6-5.201-22.929-7.628l8.712 35.889c21.585 8.799 42.26 16.34 61.982 22.582 19.722 6.328 38.359 9.449 55.914 9.449 31.684 0 56.131-7.715 73.338-22.972 17.121-15.3 25.747-35.196 25.747-59.642 0-5.071-0.607-14-1.777-26.743-1.17-12.787-3.38-24.446-6.588-35.152l-32.812-116.162c-2.687-9.318-5.071-19.981-7.238-31.904-2.124-11.917-3.164-21.018-3.164-27.13 0-15.43 3.425-25.965 10.36-31.552 6.848-5.594 18.854-8.41 35.845-8.41 8.019 0 16.991 1.427 27.133 4.205 10.056 2.771 17.338 5.242 21.932 7.366l-8.799-35.846zM612.753 637.998c-15.3-14.217-33.721-21.325-55.263-21.325-21.498 0-40.050 7.108-55.48 21.325-15.343 14.217-23.102 31.511-23.102 51.709 0 20.155 7.802 37.492 23.102 51.839 15.43 14.39 33.982 21.542 55.48 21.542 21.542 0 40.006-7.152 55.263-21.542 15.3-14.347 22.973-31.684 22.973-51.839 0-20.242-7.672-37.492-22.973-51.709z" />
</font>
</defs>
</svg>
