<svg width="40" height="18" viewBox="0 0 40 18" fill="none" xmlns="http://www.w3.org/2000/svg">
<path d="M38.5543 3.11631C35.7191 1.57727 32.7403 0.500271 29.4516 0.610256C27.5681 0.673849 25.744 1.12903 23.9204 1.56316C22.9131 1.80252 21.9058 2.04618 20.9038 2.309C20.5982 2.38941 20.2976 2.42426 19.9999 2.43588C19.7025 2.42479 19.4018 2.38941 19.0965 2.309C18.0942 2.04618 17.0873 1.80252 16.0797 1.56316C14.2558 1.12941 12.432 0.673849 10.5484 0.610256C7.25939 0.500271 4.28072 1.57757 1.44575 3.11631C0.15542 3.81674 -0.180648 4.43826 0.0839819 5.5793C0.398701 6.93617 0.817975 8.27878 1.41935 9.53018C1.95329 10.642 2.53837 11.7352 3.19059 12.797C4.24692 14.5158 5.38872 16.0674 7.38265 16.7835C8.59287 17.2179 9.82776 17.4602 11.1086 17.3831C11.8221 17.3398 12.4685 17.0345 13.1055 16.7187C13.7382 16.4047 14.3846 16.1152 14.9536 15.691C15.5184 15.2696 16.1191 14.877 16.6095 14.3778C16.6095 14.3778 18.6381 12.4034 20 12.1C21.3627 12.4038 23.3906 14.3778 23.3906 14.3778C23.881 14.877 24.4817 15.2696 25.0471 15.691C25.6156 16.1152 26.2627 16.4043 26.895 16.7187C27.5316 17.0345 28.178 17.3397 28.892 17.3831C30.1728 17.4601 31.4075 17.2179 32.6179 16.7835C34.6117 16.0678 35.7541 14.5158 36.8096 12.797C37.462 11.7356 38.0467 10.6421 38.5808 9.53018C39.1818 8.27878 39.6011 6.93654 39.9162 5.5793C40.1805 4.43826 39.8443 3.81674 38.5543 3.11631ZM10.0328 10.7949C7.4731 9.92419 6.14527 7.0205 6.14527 7.0205C6.14527 7.0205 8.96779 5.52913 11.5275 6.39944C14.0872 7.26974 15.4145 10.1734 15.4145 10.1734C15.4145 10.1734 12.5921 11.6652 10.0328 10.7949ZM29.9674 10.7949C27.4078 11.6652 24.585 10.1735 24.585 10.1735C24.585 10.1735 25.913 7.26982 28.4729 6.39952C31.032 5.52921 33.8545 7.02058 33.8545 7.02058C33.8545 7.02058 32.5273 9.92419 29.9674 10.7949Z" fill="#A6B1BA"/>
</svg>
