<svg width="18" height="18" viewBox="0 0 18 18" fill="none" xmlns="http://www.w3.org/2000/svg">
<path d="M9.00321 0.213867C4.15968 0.213867 0.212522 4.15457 0.212524 8.99813C0.212525 13.8417 4.15967 17.7887 9.00321 17.7887C13.8468 17.7887 17.7874 13.8417 17.7874 8.99813C17.7874 8.7769 17.6995 8.56468 17.5431 8.40825C17.3866 8.25181 17.1745 8.16391 16.9532 8.16391C16.732 8.16391 16.5198 8.25181 16.3634 8.40825C16.207 8.56468 16.1191 8.7769 16.1191 8.99813C16.1191 12.9409 12.946 16.1221 9.00321 16.1221C5.06041 16.1221 1.87919 12.9409 1.87919 8.99813C1.87919 5.05529 5.06041 1.88059 9.00321 1.88056C10.9996 1.88056 12.7874 2.70416 14.0797 4.02246L12.3854 3.79947C12.2733 3.77673 12.1577 3.77732 12.0458 3.8012C11.9339 3.82507 11.8282 3.87174 11.7351 3.93826C11.6421 4.00478 11.5637 4.08976 11.5049 4.18788C11.4461 4.286 11.4081 4.3951 11.3933 4.50853C11.3785 4.62196 11.3873 4.73724 11.419 4.84716C11.4507 4.95707 11.5046 5.05928 11.5775 5.14743C11.6505 5.23558 11.7407 5.30782 11.8427 5.35956C11.9448 5.41131 12.0563 5.44143 12.1705 5.44818L15.6764 5.91042C15.8952 5.93759 16.1158 5.87706 16.29 5.74192C16.4642 5.60678 16.5777 5.4081 16.6058 5.18943L17.0664 1.68352C17.0835 1.56632 17.0754 1.4469 17.0427 1.33307C17.01 1.21923 16.9535 1.11363 16.8768 1.02338C16.8001 0.933127 16.705 0.860234 16.5979 0.809609C16.4909 0.758983 16.3742 0.731837 16.2558 0.729831C16.0486 0.72609 15.8473 0.799663 15.6915 0.936293C15.5356 1.07292 15.4362 1.26273 15.4127 1.46869L15.2353 2.82454C13.6431 1.2171 11.4405 0.213867 9.00321 0.213867Z" fill="#DA2640"/>
</svg>
