<svg width="60" height="60" viewBox="0 0 60 60" fill="none" xmlns="http://www.w3.org/2000/svg">
<rect opacity="0.8" x="1" y="1" width="58" height="58" rx="5" fill="url(#paint0_radial)" stroke="#1F8FB2" stroke-width="2"/>
<path d="M15.125 29.042V41.792C15.125 42.965 16.0791 43.917 17.25 43.917H27.875V29.042H15.125Z" fill="white"/>
<path d="M44.875 20.542H38.1515C38.6339 20.2127 39.0483 19.8854 39.3372 19.5922C41.0521 17.8688 41.0521 15.0638 39.3372 13.3404C37.6712 11.6617 34.7685 11.6659 33.1046 13.3404C32.1824 14.2648 29.7386 18.0282 30.0765 20.542H29.9235C30.2593 18.0282 27.8155 14.2648 26.8954 13.3404C25.2294 11.6659 22.3266 11.6659 20.6627 13.3404C18.95 15.0638 18.95 17.8688 20.6606 19.5922C20.9517 19.8854 21.3661 20.2127 21.8485 20.542H15.125C13.9541 20.542 13 21.4962 13 22.667V25.8546C13 26.4411 13.476 26.9171 14.0625 26.9171H27.875V22.667H32.125V26.9171H45.9375C46.524 26.9171 47 26.4411 47 25.8546V22.667C47 21.4962 46.048 20.542 44.875 20.542ZM27.7496 20.4719C27.7496 20.4719 27.6604 20.542 27.3565 20.542C25.8881 20.542 23.0852 19.0163 22.1694 18.094C21.279 17.1973 21.279 15.7353 22.1694 14.8385C22.6007 14.405 23.1724 14.167 23.7801 14.167C24.3857 14.167 24.9574 14.405 25.3888 14.8385C26.821 16.2793 28.2448 19.9598 27.7496 20.4719ZM32.6414 20.542C32.3396 20.542 32.2504 20.474 32.2504 20.4719C31.7553 19.9598 33.179 16.2793 34.6112 14.8385C35.4676 13.9737 36.9658 13.9694 37.8306 14.8385C38.7231 15.7353 38.7231 17.1973 37.8306 18.094C36.9148 19.0163 34.1119 20.542 32.6414 20.542Z" fill="white"/>
<path d="M32.125 29.042V43.917H42.75C43.923 43.917 44.875 42.965 44.875 41.792V29.042H32.125Z" fill="white"/>
<defs>
<radialGradient id="paint0_radial" cx="0" cy="0" r="1" gradientUnits="userSpaceOnUse" gradientTransform="translate(30 30) rotate(90) scale(30)">
<stop offset="0.65625" stop-color="#1F8FB2" stop-opacity="0.15"/>
<stop offset="0.989583" stop-color="#1F8FB2" stop-opacity="0"/>
</radialGradient>
</defs>
</svg>
