<svg width="81" height="81" viewBox="0 0 81 81" fill="none" xmlns="http://www.w3.org/2000/svg">
<rect opacity="0.8" x="1" y="1" width="79" height="79" rx="39.5" fill="url(#paint0_radial)" stroke="#1E7A98" stroke-width="2"/>
<g clip-path="url(#clip0)">
<path d="M56.6466 18.7496C54.1762 20.0439 54.1691 25.5253 54.1691 25.588L37.2269 29.6035L36.4684 29.2793L27.8305 25.5879C27.8305 25.5879 28.4575 12.2376 46.945 13.5343C49.0356 13.681 51.3545 14.0146 53.9254 14.5766L56.6466 18.7496Z" fill="#FF525D"/>
<path d="M38.3035 24.8935C38.6679 26.9261 37.8953 28.3281 36.4684 29.2793L27.8305 25.5879C27.8305 25.5879 28.4575 12.2376 46.945 13.5343C46.9449 13.5343 36.6436 15.645 38.3035 24.8935Z" fill="#EF4152"/>
<path d="M58.1263 19.2818C60.4132 19.2818 62.2672 17.4278 62.2672 15.1409C62.2672 12.8539 60.4132 11 58.1263 11C55.8393 11 53.9854 12.8539 53.9854 15.1409C53.9854 17.4278 55.8393 19.2818 58.1263 19.2818Z" fill="#FCF8F2"/>
<path d="M56.5876 15.1409C56.5876 13.3087 57.7779 11.7556 59.4271 11.2099C59.0177 11.0744 58.5804 11 58.1256 11C55.8387 11 53.9847 12.854 53.9847 15.1409C53.9847 17.4278 55.8387 19.2818 58.1256 19.2818C58.5804 19.2818 59.0177 19.2073 59.427 19.0719C57.7779 18.5263 56.5876 16.9731 56.5876 15.1409Z" fill="#E5E1DC"/>
<path d="M26.6606 44.7792C24.6599 44.7792 23.0379 43.1573 23.0379 41.1565C23.0379 39.1557 24.6599 37.5338 26.6606 37.5338H55.3396C57.3404 37.5338 58.9623 39.1557 58.9623 41.1565C58.9623 43.1573 57.3404 44.7792 55.3396 44.7792" fill="#EFC1AB"/>
<path d="M55.3393 38.2388V44.8655C55.3393 46.4698 55.1949 48.9768 54.7666 50.7964L27.233 50.7975C27.1207 50.3184 27.0272 49.7907 26.9514 49.2453C26.7384 47.719 26.6604 46.0485 26.6604 44.8654V38.2387C26.6604 37.0237 26.8119 35.8441 27.097 34.7177L30.793 32.852L41.3842 27.5043L54.9026 34.7178C55.1878 35.8442 55.3393 37.0238 55.3393 38.2388Z" fill="#FFDAC5"/>
<path d="M30.4277 50.7978H27.2333C26.805 48.9782 26.6607 46.4711 26.6607 44.8656V38.239C26.6607 37.0239 26.8121 35.8443 27.0972 34.718L30.0302 33.8283C29.9155 35.7342 29.8551 37.4747 29.8551 38.239V44.8656C29.8551 46.4711 29.9994 48.9782 30.4277 50.7978Z" fill="#EFC1AB"/>
<path d="M35.2026 45.1531C33.1759 46.3894 29.5935 48.0623 26.9516 49.2454C26.7386 47.7192 26.6605 46.0487 26.6605 44.8655V38.2389C26.6605 37.0239 26.812 35.8443 27.0971 34.7179L30.7931 32.8522L34.8773 34.2554C38.0717 34.2554 38.6869 43.0282 35.2026 45.1531Z" fill="#EFC1AB"/>
<path d="M55.3395 39.493V44.8656C55.3395 46.4699 55.1952 48.9769 54.7669 50.7966L27.2333 50.7977C26.805 48.9781 26.6607 46.471 26.6607 44.8655V39.4929C26.6607 39.4929 27.5989 46.3301 32.9537 46.3301H49.0464C54.4013 46.3302 55.3395 39.493 55.3395 39.493Z" fill="#E5E1DC"/>
<path d="M63.4131 69C62.8854 63.9079 60.5062 59.3375 56.9273 55.9136C56.0624 55.0854 55.1265 54.3247 54.1303 53.6408L41.1056 47.642L27.8698 53.6408C22.7528 57.157 19.2413 62.6775 18.587 69" fill="#FF525D"/>
<path d="M35.8555 53.6408L45.0663 49.4663L41.1055 47.6421L27.8697 53.6408C22.7528 57.1571 19.2413 62.6775 18.587 69.0001H26.5726C27.227 62.6775 30.7384 57.1571 35.8555 53.6408Z" fill="#EF4152"/>
<path d="M34.3481 42.8237C33.858 42.8237 33.4607 42.4264 33.4607 41.9363V40.6833C33.4607 40.1933 33.858 39.796 34.3481 39.796C34.8381 39.796 35.2354 40.1933 35.2354 40.6833V41.9363C35.2354 42.4264 34.8381 42.8237 34.3481 42.8237Z" fill="#313344"/>
<path d="M54.2491 52.3114C54.2361 52.5161 54.2195 52.7551 54.1947 53.0236C54.1463 53.5595 54.0681 54.2115 53.9463 54.9319C53.867 55.4005 53.7688 55.8962 53.6482 56.4084V56.4096C52.8721 59.6903 51.1423 63.6018 47.2889 64.6678L46.4394 62.4624L41.0006 67.699L35.7938 62.6838L35.563 62.4625L34.7124 64.6679C30.859 63.6019 29.1292 59.6905 28.3531 56.4097V56.4086C28.2325 55.8963 28.1343 55.3993 28.055 54.9308C28.0076 54.6468 27.9663 54.3723 27.9307 54.1121C27.8763 53.7146 27.8372 53.3491 27.8077 53.0249C27.7829 52.7551 27.7651 52.515 27.7521 52.3103L28.6761 51.9873L29.6841 51.6348L40.2789 47.9316L41.1059 47.643L41.7921 47.8866L52.2994 51.6194L54.2491 52.3114Z" fill="#FCF8F2"/>
<path d="M48.0618 42.8237C47.5718 42.8237 47.1745 42.4264 47.1745 41.9363V40.6833C47.1745 40.1933 47.5718 39.796 48.0618 39.796C48.5519 39.796 48.9492 40.1933 48.9492 40.6833V41.9363C48.9492 42.4264 48.5519 42.8237 48.0618 42.8237Z" fill="#313344"/>
<path d="M37.5738 44.6693C37.9808 43.156 39.3626 42.0416 41.0048 42.0416C42.647 42.0416 44.0289 43.156 44.4359 44.6693L41.001 49.7269L37.5738 44.6693Z" fill="#FF525D"/>
<path d="M54.1943 53.0232C54.1458 53.5591 54.0677 54.211 53.9459 54.9315C53.824 54.9847 53.701 55.0368 53.5767 55.0877C49.2133 56.8789 43.1463 57.3203 41.0014 52.2115C38.8551 57.3203 32.7894 56.8789 28.426 55.0877C28.3006 55.0356 28.1763 54.9836 28.0546 54.9304C27.9327 54.2122 27.8558 53.5603 27.8073 53.0244C28.4734 52.6743 29.0756 52.1856 29.6837 51.6342C30.3285 51.0498 30.9791 50.3943 31.7198 49.7625C32.6745 48.9497 33.7772 48.1758 35.2028 47.6375C37.3124 46.8437 38.8539 47.1418 39.9033 47.6967C40.0359 47.7664 40.1613 47.8446 40.2784 47.9309C40.5694 48.1391 40.8132 48.3912 41.0049 48.6716C41.2107 48.3723 41.4758 48.1048 41.7916 47.886C41.9194 47.796 42.0566 47.7145 42.2021 47.6423C43.2492 47.1229 44.7565 46.8697 46.7985 47.6375C48.1957 48.1641 49.2795 48.9165 50.2189 49.7127C50.9785 50.354 51.6411 51.0212 52.2989 51.6187C52.913 52.176 53.5212 52.6718 54.1943 53.0232Z" fill="#E5E1DC"/>
<path d="M35.7937 62.6838L35.5629 62.4626L34.7123 64.6679C30.8589 63.602 29.1291 59.6906 28.353 56.4097V56.4086C28.2324 55.8963 28.1341 55.3994 28.0549 54.9308C28.0075 54.6468 27.9662 54.3724 27.9306 54.1122C27.8762 53.7146 27.8371 53.3491 27.8076 53.0249C27.7828 52.7552 27.765 52.515 27.7519 52.3103L28.676 51.9873L33.5764 55.3084C33.5765 55.3083 32.4762 59.3664 35.7937 62.6838Z" fill="#E5E1DC"/>
<path d="M56.4106 51.0916C55.625 51.6358 54.6538 52.1599 53.5759 52.6036C49.2125 54.3937 43.1467 54.8362 41.0005 49.7263C39.9476 52.2357 37.9493 53.4058 35.6706 53.7359C33.3091 54.0766 30.6458 53.5147 28.4251 52.6036C27.3485 52.1599 26.3759 51.6359 25.5903 51.0916C26.0517 51.0916 26.4742 51.0301 26.8693 50.9164C28.7197 50.3911 29.9714 48.7702 31.7201 47.2783C32.6737 46.4655 33.7764 45.6905 35.2032 45.1534C37.3127 44.3584 38.8542 44.6576 39.9036 45.2125C40.3639 45.455 40.7354 45.7934 41.0051 46.1861C41.295 45.7661 41.6996 45.4064 42.2023 45.158C43.2494 44.6386 44.7567 44.3843 46.7987 45.1532C48.1948 45.6798 49.2786 46.4322 50.2179 47.2272C51.9997 48.7321 53.2597 50.3862 55.1302 50.9162C55.5269 51.0301 55.9493 51.0916 56.4106 51.0916Z" fill="#FCF8F2"/>
<path d="M32.202 38.8332C31.975 38.8332 31.7478 38.7467 31.5746 38.5732C31.2281 38.2267 31.2281 37.6649 31.5746 37.3184C32.3154 36.5777 33.3003 36.1697 34.3479 36.1697C35.3954 36.1697 36.3804 36.5777 37.1211 37.3184C37.4676 37.6649 37.4676 38.2268 37.1211 38.5732C36.7746 38.9198 36.2127 38.9198 35.8663 38.5732C35.4608 38.1677 34.9214 37.9443 34.3479 37.9443C33.7743 37.9443 33.235 38.1677 32.8295 38.5732C32.6561 38.7466 32.429 38.8332 32.202 38.8332Z" fill="#E5E1DC"/>
<path d="M50.2074 38.8333C49.9804 38.8333 49.7533 38.7468 49.5801 38.5733C49.1745 38.1678 48.6352 37.9444 48.0616 37.9444C47.4881 37.9444 46.9488 38.1678 46.5432 38.5733C46.1967 38.9199 45.6348 38.9199 45.2884 38.5733C44.9419 38.2268 44.9419 37.6649 45.2884 37.3185C46.0292 36.5778 47.0141 36.1699 48.0616 36.1699C49.1093 36.1699 50.0942 36.5778 50.8349 37.3185C51.1814 37.6651 51.1814 38.2269 50.8349 38.5733C50.6614 38.7467 50.4344 38.8333 50.2074 38.8333Z" fill="#FCF8F2"/>
<path d="M56.1992 27.617V32.8262C56.1992 33.9467 55.293 34.7677 54.1737 34.6767C47.7541 34.1514 41.3097 34.0106 34.8771 34.2555C32.525 34.3442 30.1742 34.485 27.8269 34.6767C26.7077 34.7677 25.8002 33.9467 25.8002 32.8262V27.617C25.8002 26.4965 26.7077 25.5004 27.8269 25.4092C30.4487 25.1951 33.0752 25.0448 35.7018 24.9585H35.7029C41.861 24.755 48.0286 24.9064 54.1737 25.4092C55.293 25.5004 56.1992 26.4966 56.1992 27.617Z" fill="#FCF8F2"/>
<path d="M34.8771 34.2554C32.525 34.3441 30.1742 34.4849 27.8269 34.6766C26.7077 34.7677 25.8002 33.9466 25.8002 32.8261V27.6169C25.8002 26.4964 26.7077 25.5003 27.8269 25.4092C30.4487 25.1951 33.0752 25.0447 35.7018 24.9584H35.7029C35.7029 24.9584 32.2044 28.69 34.8771 34.2554Z" fill="#E5E1DC"/>
<path d="M44.951 68.1132C44.5725 68.1132 44.2267 67.862 44.1091 67.5033C43.9889 67.137 44.1231 66.7217 44.4397 66.5C45.07 66.0588 45.962 66.6103 45.8245 67.3771C45.7495 67.7952 45.3785 68.1132 44.951 68.1132Z" fill="#FCF8F2"/>
<path d="M35.8548 53.6412L35.6702 53.7359C33.3088 54.0767 30.6455 53.5147 28.4248 52.6037C27.3482 52.1599 26.3756 51.6359 25.59 51.0916C26.0514 51.0916 26.4738 51.0301 26.869 50.9165C28.7194 50.3912 29.9711 48.7702 31.7198 47.2783C31.7198 47.2783 29.7298 49.9924 31.1803 51.8629C32.6308 53.7335 35.8548 53.6412 35.8548 53.6412Z" fill="#E8E3DD"/>
</g>
<defs>
<radialGradient id="paint0_radial" cx="0" cy="0" r="1" gradientUnits="userSpaceOnUse" gradientTransform="translate(40.5 40.5) rotate(90) scale(40.5)">
<stop offset="0.65625" stop-color="#1F8FB2" stop-opacity="0.15"/>
<stop offset="0.989583" stop-color="#1F8FB2" stop-opacity="0"/>
</radialGradient>
<clipPath id="clip0">
<path d="M12 11H70V42C70 56.9117 57.9117 69 43 69H39C24.0883 69 12 56.9117 12 42V11Z" fill="white"/>
</clipPath>
</defs>
</svg>
