<svg width="81" height="81" viewBox="0 0 81 81" fill="none" xmlns="http://www.w3.org/2000/svg">
<rect opacity="0.8" x="1" y="1" width="79" height="79" rx="39.5" fill="url(#paint0_radial)" stroke="#1E7A98" stroke-width="2"/>
<g clip-path="url(#clip0)">
<path d="M69.9782 31.4171C69.9782 31.4171 62.0713 26.4637 56.8824 21.1577C55.029 24.363 54.3478 30.0297 54.3478 30.0297H27.6513C27.6513 30.0297 26.9711 24.3631 25.1166 21.1577C19.9278 26.4637 12.0221 31.4171 12.0221 31.4171C16.0991 17.5809 27.5863 11 27.5863 11C33.6231 17.0369 34.088 23.5339 34.088 23.5339H47.9111C47.9111 23.5339 48.3759 17.0369 54.4129 11C54.4129 11 65.9012 17.5809 69.9782 31.4171Z" fill="#CCCCCC"/>
<path d="M30.7476 30.0297H27.6511C27.6511 30.0297 26.9709 24.363 25.1164 21.1576L27.0928 18.9399C27.0928 18.9399 29.4856 22.3097 30.7476 30.0297Z" fill="#B3B3B3"/>
<path d="M51.2512 30.0297H54.3477C54.3477 30.0297 55.0278 24.363 56.8824 21.1576L54.9059 18.9399C54.9059 18.9399 52.5131 22.3097 51.2512 30.0297Z" fill="#B3B3B3"/>
<path d="M57.1785 68.9999V65.7435C57.1785 60.7638 54.9288 56.3091 51.3896 53.3417H30.6097C27.0704 56.3091 24.8209 60.7638 24.8209 65.7435V68.9999" fill="#CCCCCC"/>
<path d="M36.4766 53.3419H30.6098C27.0704 56.3093 24.8209 60.7639 24.8209 65.7436V69H30.6877V65.7436C30.6877 60.7637 32.9372 56.309 36.4766 53.3419Z" fill="#B3B3B3"/>
<path d="M35.7489 55.7831C30.0699 54.2686 26.0267 50.1585 26.0267 43.7372V36.818C26.0267 28.5485 32.7309 21.8454 40.9993 21.8454C45.134 21.8454 48.8772 23.5206 51.5876 26.231C54.2967 28.9401 55.9731 32.6832 55.9731 36.818V43.7372C55.9731 50.1598 51.9298 54.2687 46.2496 55.7844" fill="#CCCCCC"/>
<path d="M35.7489 55.7832C36.4417 55.7832 36.6638 54.8565 36.0495 54.5364C32.1381 52.4977 29.5747 48.85 29.5747 43.7373V36.8181C29.5747 29.149 35.3413 22.8282 42.7734 21.9507C42.1914 21.8819 41.5995 21.8456 40.9991 21.8456C32.7309 21.8456 26.0265 28.5487 26.0265 36.8182V43.7374C26.0266 50.1585 30.0699 54.2686 35.7489 55.7832Z" fill="#B3B3B3"/>
<path d="M43.1477 53.0847H38.8513C33.957 53.0847 29.9893 49.1171 29.9893 44.2228V42.1272C29.9893 39.5552 32.0744 37.4702 34.6463 37.4702H47.3528C49.9247 37.4702 52.0098 39.5552 52.0098 42.1272V44.2228C52.0096 49.1171 48.042 53.0847 43.1477 53.0847Z" fill="#FFDAC5"/>
<path d="M32.6504 44.2228V42.1273C32.6504 39.5553 34.7355 37.4703 37.3074 37.4703H34.6463C32.0744 37.4703 29.9893 39.5553 29.9893 42.1273V44.2229C29.9893 49.1172 33.957 53.0848 38.8513 53.0848H41.5124C36.618 53.0847 32.6504 49.1171 32.6504 44.2228Z" fill="#EFC1AB"/>
<path d="M49.0129 47.7194C50.0907 47.7194 50.9645 47.1898 50.9645 46.5366C50.9645 45.8834 50.0907 45.3538 49.0129 45.3538C47.935 45.3538 47.0612 45.8834 47.0612 46.5366C47.0612 47.1898 47.935 47.7194 49.0129 47.7194Z" fill="#FCB997"/>
<path d="M32.9862 47.7194C34.0641 47.7194 34.9378 47.1898 34.9378 46.5366C34.9378 45.8834 34.0641 45.3538 32.9862 45.3538C31.9084 45.3538 31.0346 45.8834 31.0346 46.5366C31.0346 47.1898 31.9084 47.7194 32.9862 47.7194Z" fill="#FCB997"/>
<path d="M34.6713 44.6547C34.1813 44.6547 33.7842 44.2576 33.7842 43.7676V41.8415C33.7842 41.3516 34.1813 40.9544 34.6713 40.9544C35.1612 40.9544 35.5584 41.3516 35.5584 41.8415V43.7676C35.5584 44.2577 35.1612 44.6547 34.6713 44.6547Z" fill="#313344"/>
<path d="M47.7552 44.6547C47.2653 44.6547 46.8681 44.2576 46.8681 43.7676V41.8415C46.8681 41.3516 47.2653 40.9544 47.7552 40.9544C48.2452 40.9544 48.6423 41.3516 48.6423 41.8415V43.7676C48.6423 44.2577 48.2452 44.6547 47.7552 44.6547Z" fill="#313344"/>
<path d="M33.5391 31.6639H48.4599C49.995 31.6639 51.2395 32.9083 51.2395 34.4435V34.6905C51.2395 36.2256 49.9951 37.4701 48.4599 37.4701H33.5391C32.0041 37.4701 30.7596 36.2257 30.7596 34.6905V34.4435C30.7597 32.9084 32.0042 31.6639 33.5391 31.6639Z" fill="#FCF8F2"/>
<path d="M43.9958 37.4706H38.0023V41.0753H43.9958V37.4706Z" fill="white"/>
<path d="M41.4738 37.4706H40.5265V42.5896H41.4738V37.4706Z" fill="#FFDAC5"/>
<path d="M41.2133 50.0815C39.987 50.0815 38.7606 49.6147 37.8271 48.6812C37.4807 48.3348 37.4807 47.7731 37.8271 47.4266C38.1735 47.0802 38.7352 47.0802 39.0815 47.4266C40.2569 48.602 42.1696 48.602 43.345 47.4266C43.6914 47.0802 44.2532 47.0803 44.5995 47.4266C44.9459 47.7731 44.9459 48.3348 44.5995 48.6812C43.6659 49.6147 42.4395 50.0815 41.2133 50.0815Z" fill="#CE5B6C"/>
<path d="M41.8864 33.332H40.1122V37.4705H41.8864V33.332Z" fill="#CCCCCC"/>
<path d="M42.5537 31.6639H39.4456C38.7318 31.6639 38.2365 32.3753 38.4845 33.0448L38.5863 33.3197C38.9602 34.3292 39.9232 34.9993 40.9997 34.9993C42.0762 34.9993 43.0391 34.3292 43.413 33.3197L43.5149 33.0448C43.7627 32.3755 43.2675 31.6639 42.5537 31.6639Z" fill="#5C5E70"/>
<path d="M47.0693 58.0581L42.985 59.5652V60.0952C42.985 59.4162 42.4346 58.8658 41.7555 58.8658H40.2436C39.5646 58.8658 39.0141 59.4162 39.0141 60.0952V59.5652L34.9299 58.0581C34.0861 57.7468 33.1903 58.3711 33.1903 59.2703V62.4229C33.1903 63.3221 34.0861 63.9465 34.9299 63.6351L39.0141 62.128V61.598C39.0141 62.277 39.5645 62.8275 40.2436 62.8275H41.7555C42.4345 62.8275 42.9849 62.2771 42.9849 61.598V62.128L47.0692 63.6351C47.9129 63.9464 48.8087 63.3221 48.8087 62.4229V59.2703C48.8088 58.3711 47.913 57.7468 47.0693 58.0581Z" fill="#FF525D"/>
<path d="M38.4992 28.8451C38.0092 28.8451 37.6121 28.4479 37.6121 27.958V26.7225C37.6121 26.2326 38.0092 25.8354 38.4992 25.8354C38.9891 25.8354 39.3863 26.2326 39.3863 26.7225V27.958C39.3863 28.4479 38.9891 28.8451 38.4992 28.8451Z" fill="#313344"/>
<path d="M43.5005 28.8451C43.0105 28.8451 42.6134 28.4479 42.6134 27.958V26.7225C42.6134 26.2326 43.0105 25.8354 43.5005 25.8354C43.9904 25.8354 44.3876 26.2326 44.3876 26.7225V27.958C44.3876 28.4479 43.9904 28.8451 43.5005 28.8451Z" fill="#313344"/>
<path d="M43.1477 53.9718H38.8513C33.4757 53.9718 29.1022 49.5983 29.1022 44.2227V42.1271C29.1022 39.0701 31.5892 36.583 34.6463 36.583H47.3528C50.4098 36.583 52.8969 39.07 52.8969 42.1271V44.2227C52.8967 49.5983 48.5234 53.9718 43.1477 53.9718ZM34.6462 38.3572C32.5675 38.3572 30.8763 40.0484 30.8763 42.1271V44.2227C30.8763 48.6201 34.4539 52.1976 38.8512 52.1976H43.1476C47.5449 52.1976 51.1225 48.6201 51.1225 44.2227V42.1271C51.1225 40.0484 49.4313 38.3572 47.3526 38.3572H34.6462Z" fill="#B3B3B3"/>
</g>
<defs>
<radialGradient id="paint0_radial" cx="0" cy="0" r="1" gradientUnits="userSpaceOnUse" gradientTransform="translate(40.5 40.5) rotate(90) scale(40.5)">
<stop offset="0.65625" stop-color="#1F8FB2" stop-opacity="0.15"/>
<stop offset="0.989583" stop-color="#1F8FB2" stop-opacity="0"/>
</radialGradient>
<clipPath id="clip0">
<path d="M12 11H70V42C70 56.9117 57.9117 69 43 69H39C24.0883 69 12 56.9117 12 42V11Z" fill="white"/>
</clipPath>
</defs>
</svg>
