<svg width="81" height="81" viewBox="0 0 81 81" fill="none" xmlns="http://www.w3.org/2000/svg">
<path d="M41 72C58.6731 72 73 57.6731 73 40C73 22.3269 58.6731 8 41 8C23.3269 8 9 22.3269 9 40C9 57.6731 23.3269 72 41 72Z" fill="#DDA33C"/>
<path d="M41 72C58.6731 72 73 57.6731 73 40C73 22.3269 58.6731 8 41 8C23.3269 8 9 22.3269 9 40C9 57.6731 23.3269 72 41 72Z" fill="#DDA33C"/>
<path d="M72.9995 40C72.9995 57.673 58.6732 71.9994 41.0002 71.9994C28.8267 71.9994 18.2409 65.2019 12.8315 55.1943C18.6865 62.7193 27.8288 67.5597 38.1017 67.5597C55.7747 67.5597 70.101 53.2333 70.101 35.5589C70.101 30.0607 68.7143 24.8882 66.2715 20.3685C70.4887 25.7883 72.9995 32.6012 72.9995 40Z" fill="#BC802A"/>
<path d="M41.0001 66.525C55.6495 66.525 67.5251 54.6493 67.5251 40C67.5251 25.3506 55.6495 13.475 41.0001 13.475C26.3507 13.475 14.4751 25.3506 14.4751 40C14.4751 54.6493 26.3507 66.525 41.0001 66.525Z" fill="#FFCD43"/>
<path d="M41.0001 66.525C55.6495 66.525 67.5251 54.6493 67.5251 40C67.5251 25.3506 55.6495 13.475 41.0001 13.475C26.3507 13.475 14.4751 25.3506 14.4751 40C14.4751 54.6493 26.3507 66.525 41.0001 66.525Z" fill="#FFCD43"/>
<path d="M48.5113 48.6155C52.9368 46.4668 55.9101 42.4778 55.9101 37.9116C55.9101 31.0695 49.2348 25.5227 41.0003 25.5226H41.0002H41.0001C32.7656 25.5227 26.0903 31.0693 26.0903 37.9116C26.0903 42.4778 29.0637 46.4667 33.4891 48.6155C33.8771 48.8038 34.0701 49.2185 33.9483 49.609L33.1103 52.2973C33.023 52.4737 32.9748 52.6646 32.9748 52.8641C32.9748 53.7552 33.9288 54.4776 35.1057 54.4776C35.9898 54.4776 36.748 54.0698 37.0706 53.4892C37.3932 54.0698 38.1513 54.4776 39.0355 54.4776C39.9195 54.4776 40.6776 54.07 41.0002 53.4895C41.3228 54.07 42.081 54.4776 42.965 54.4776C43.8491 54.4776 44.6072 54.0698 44.9298 53.4892C45.2525 54.0698 46.0107 54.4776 46.8947 54.4776C48.0716 54.4776 49.0256 53.7552 49.0256 52.8641C49.0256 52.6646 48.9775 52.4737 48.8901 52.2973L48.0521 49.609C47.9303 49.2183 48.1233 48.8038 48.5113 48.6155Z" fill="#E8E8EA"/>
<path d="M48.0515 49.6088L48.8895 52.2974C48.9768 52.4735 49.0255 52.6643 49.0255 52.8644C49.0255 53.7555 48.0712 54.4773 46.8945 54.4773C46.4875 54.4773 46.1069 54.3909 45.7837 54.2404C46.4738 53.9129 46.9313 53.3314 46.9313 52.6686C46.9313 52.4395 46.8765 52.2196 46.7757 52.017L45.8119 48.9265C45.6725 48.4775 45.894 48.0004 46.3404 47.784C51.4285 45.3135 54.8474 40.7273 54.8474 35.4775C54.8474 34.5163 54.7328 33.5783 54.5148 32.6709C55.4093 34.2624 55.9095 36.0385 55.9095 37.9113C55.9095 42.4778 52.9362 46.467 48.5108 48.6153C48.1233 48.8041 47.93 49.218 48.0515 49.6088Z" fill="#D6D6D8"/>
<path d="M42.7067 46.8392C42.6087 45.8517 41.0002 44.8235 41.0002 44.8235H40.9995C40.9995 44.8235 39.391 45.8517 39.293 46.8392C39.2381 47.392 39.847 47.887 40.6855 47.9719C40.7841 47.9819 41.2156 47.9819 41.3142 47.9719C42.1527 47.887 42.7616 47.392 42.7067 46.8392Z" fill="#DDA33C"/>
<path d="M35.2261 44.2456C37.5992 44.2456 39.5229 42.3218 39.5229 39.9487C39.5229 37.5756 37.5992 35.6519 35.2261 35.6519C32.853 35.6519 30.9292 37.5756 30.9292 39.9487C30.9292 42.3218 32.853 44.2456 35.2261 44.2456Z" fill="#DDA33C"/>
<path d="M46.7734 44.2456C49.1465 44.2456 51.0703 42.3218 51.0703 39.9487C51.0703 37.5756 49.1465 35.6519 46.7734 35.6519C44.4003 35.6519 42.4766 37.5756 42.4766 39.9487C42.4766 42.3218 44.4003 44.2456 46.7734 44.2456Z" fill="#DDA33C"/>
<path d="M39.5233 39.949C39.5233 42.322 37.6001 44.2461 35.2271 44.2461C34.2873 44.2461 33.4167 43.9433 32.7095 43.4311C33.0968 43.5457 33.5065 43.6072 33.9315 43.6072C36.3045 43.6072 38.2286 41.684 38.2286 39.311C38.2286 37.8786 37.5273 36.6096 36.4498 35.8296C38.227 36.3556 39.5233 38.0008 39.5233 39.949Z" fill="#BC802A"/>
<path d="M51.0706 39.949C51.0706 42.322 49.1465 44.2461 46.7735 44.2461C45.8329 44.2461 44.9631 43.9433 44.2559 43.4311C44.6432 43.5457 45.0537 43.6072 45.4787 43.6072C47.8517 43.6072 49.775 41.684 49.775 39.311C49.775 37.8786 49.0746 36.6096 47.9962 35.8296C49.7742 36.3556 51.0706 38.0008 51.0706 39.949Z" fill="#BC802A"/>
<path d="M54.3159 56.691C53.0673 57.6885 51.7069 58.5455 50.2724 59.2382C49.7932 59.4698 49.5922 60.0459 49.8237 60.5254C49.9899 60.8697 50.3339 61.0704 50.6924 61.0704C50.8328 61.0704 50.9758 61.0395 51.1108 60.9743C52.6748 60.219 54.158 59.2847 55.5193 58.1972C55.9353 57.8649 56.003 57.2584 55.6707 56.8424C55.3383 56.4266 54.732 56.3585 54.3159 56.691Z" fill="#DDA33C"/>
<path d="M61.53 48.8133C61.0506 48.5818 60.4742 48.7832 60.2431 49.2627C59.5509 50.698 58.694 52.0595 57.6965 53.3092C57.3644 53.7252 57.4324 54.3317 57.8485 54.6638C58.0261 54.8057 58.2384 54.8745 58.4491 54.8745C58.7322 54.8745 59.0127 54.7503 59.203 54.5118C60.2904 53.1496 61.2245 51.6652 61.9793 50.1001C62.2107 49.6207 62.0096 49.0445 61.53 48.8133Z" fill="#DDA33C"/>
<path d="M62.3512 39.9489L62.3513 39.9999C62.3513 41.6036 62.1728 43.2021 61.8211 44.751C61.7031 45.2701 62.0283 45.7865 62.5476 45.9044C62.6193 45.9207 62.6912 45.9286 62.7619 45.9286C63.2019 45.9286 63.5994 45.6252 63.7009 45.178C64.0845 43.4892 64.2792 41.7471 64.2792 39.9929L64.279 39.949C64.279 39.4166 63.8476 38.9851 63.3152 38.9851C62.7827 38.985 62.3512 39.4165 62.3512 39.9489Z" fill="#DDA33C"/>
<path d="M61.8103 35.2016C61.9126 35.6479 62.3096 35.95 62.7488 35.95C62.8201 35.95 62.8929 35.942 62.9654 35.9252C63.4843 35.8061 63.8081 35.2889 63.689 34.7701C63.2995 33.0742 62.7169 31.42 61.9569 29.8532C61.7246 29.3744 61.1481 29.1741 60.669 29.4066C60.1899 29.6389 59.99 30.2155 60.2224 30.6945C60.919 32.1306 61.4533 33.6472 61.8103 35.2016Z" fill="#DDA33C"/>
<path d="M45.7631 60.8181C44.214 61.1709 42.6156 61.3501 41.0122 61.351C40.48 61.3512 40.0486 61.783 40.0488 62.3154C40.0491 62.8475 40.4806 63.2787 41.0127 63.2787C41.0128 63.2787 41.0131 63.2787 41.0132 63.2787C42.7601 63.2779 44.5021 63.0824 46.191 62.6976C46.7101 62.5794 47.035 62.0629 46.9168 61.5439C46.7988 61.0249 46.2811 60.6999 45.7631 60.8181Z" fill="#DDA33C"/>
<path d="M27.7004 56.7039C26.4524 55.7087 25.3139 54.5721 24.3169 53.3255C23.9842 52.9097 23.3777 52.8424 22.962 53.1747C22.5464 53.5074 22.4787 54.1139 22.8112 54.5296C23.8979 55.8881 25.1384 57.1269 26.4985 58.2112C26.6761 58.3529 26.8881 58.4215 27.0987 58.4215C27.382 58.4215 27.6627 58.2972 27.853 58.0585C28.185 57.6422 28.1165 57.0357 27.7004 56.7039Z" fill="#DDA33C"/>
<path d="M36.2608 60.8236C34.7051 60.4711 33.1868 59.941 31.7481 59.2482C31.2688 59.0171 30.6926 59.2187 30.4614 59.6985C30.2304 60.178 30.4319 60.7541 30.9116 60.9851C32.4809 61.7409 34.1373 62.3192 35.8347 62.7039C35.9063 62.7202 35.9781 62.728 36.0486 62.728C36.4888 62.728 36.8863 62.4244 36.9877 61.9769C37.1054 61.4576 36.7801 60.9412 36.2608 60.8236Z" fill="#DDA33C"/>
<path d="M20.1845 44.7745C20.066 44.2554 19.549 43.9303 19.0302 44.0495C18.5112 44.168 18.1866 44.6849 18.3052 45.2038C18.6926 46.9 19.2735 48.5549 20.0317 50.1228C20.1981 50.4668 20.5421 50.6673 20.9001 50.6673C21.041 50.6673 21.1838 50.6363 21.3191 50.5709C21.7983 50.3392 21.9991 49.7628 21.7672 49.2834C21.0721 47.8463 20.5396 46.3293 20.1845 44.7745Z" fill="#DDA33C"/>
<path d="M20.4601 31.21C20.5947 31.2747 20.737 31.3055 20.8771 31.3055C21.236 31.3055 21.5805 31.1041 21.7463 30.759C22.437 29.323 23.2922 27.9605 24.2883 26.7096C24.62 26.2932 24.5511 25.6868 24.1347 25.3551C23.7183 25.0235 23.1121 25.0925 22.7802 25.5087C21.6945 26.8722 20.7621 28.3576 20.009 29.9236C19.7783 30.4033 19.9802 30.9792 20.4601 31.21Z" fill="#DDA33C"/>
<path d="M27.063 23.5355C27.2743 23.5355 27.4872 23.4664 27.6649 23.324C28.9125 22.325 30.2719 21.4664 31.7057 20.772C32.1848 20.54 32.385 19.9635 32.153 19.4843C31.9208 19.005 31.3447 18.8049 30.8653 19.0369C29.302 19.7939 27.8199 20.7302 26.4602 21.819C26.0445 22.1518 25.9774 22.7584 26.3102 23.1739C26.5004 23.412 26.7804 23.5355 27.063 23.5355Z" fill="#DDA33C"/>
<path d="M18.6847 40.9835C19.2171 40.9835 19.6486 40.5464 19.6486 40.0141C19.6487 40.0094 19.6487 40.0047 19.6487 40C19.6487 38.4042 19.8253 36.8137 20.1737 35.2726C20.2911 34.7534 19.9653 34.2374 19.446 34.12C18.9265 34.0022 18.4107 34.3284 18.2933 34.8477C17.9136 36.528 17.7208 38.2615 17.7208 40.0001L17.7207 40.0255C17.7208 40.5576 18.1525 40.9835 18.6847 40.9835Z" fill="#DDA33C"/>
<path d="M54.2803 23.2806C55.5297 24.2743 56.6694 25.4098 57.6678 26.6552C57.8582 26.8927 58.1379 27.0162 58.4204 27.0162C58.6319 27.0162 58.8449 26.947 59.0227 26.8043C59.4379 26.4713 59.5048 25.8648 59.1718 25.4493C58.0838 24.0922 56.8418 22.8548 55.4804 21.772C55.0639 21.4403 54.4574 21.5096 54.1261 21.9262C53.7947 22.3428 53.8638 22.9493 54.2803 23.2806Z" fill="#DDA33C"/>
<path d="M35.9972 19.2117C36.0685 19.2117 36.141 19.2037 36.2132 19.1871C37.7614 18.8327 39.3596 18.6516 40.9635 18.6488C41.4959 18.6479 41.9266 18.2157 41.9257 17.6833C41.9249 17.1516 41.4935 16.7211 40.9619 16.7211C40.9614 16.7211 40.9607 16.7211 40.9602 16.7211C39.213 16.7241 37.471 16.9214 35.7831 17.3081C35.2641 17.4268 34.9399 17.9439 35.0587 18.4627C35.1607 18.9092 35.5579 19.2117 35.9972 19.2117Z" fill="#DDA33C"/>
<path d="M45.7154 19.1709C47.2719 19.5217 48.7908 20.05 50.2299 20.7412C50.3646 20.8058 50.5067 20.8364 50.6467 20.8364C51.0057 20.8364 51.3504 20.6348 51.5162 20.2895C51.7466 19.8095 51.5444 19.2338 51.0646 19.0033C49.4946 18.2494 47.8376 17.673 46.1394 17.2903C45.6196 17.1732 45.1041 17.4994 44.9872 18.0187C44.8701 18.538 45.1963 19.0539 45.7154 19.1709Z" fill="#DDA33C"/>
<rect opacity="0.8" x="1" y="1" width="79" height="79" rx="39.5" fill="url(#paint0_radial)" stroke="#FFAF36" stroke-width="2"/>
<defs>
<radialGradient id="paint0_radial" cx="0" cy="0" r="1" gradientUnits="userSpaceOnUse" gradientTransform="translate(40.5 40.5) rotate(90) scale(40.5)">
<stop offset="0.65625" stop-color="#FFAD31" stop-opacity="0.15"/>
<stop offset="0.989583" stop-color="#D29334" stop-opacity="0"/>
</radialGradient>
</defs>
</svg>
