<svg width="14" height="14" viewBox="0 0 14 14" fill="none" xmlns="http://www.w3.org/2000/svg">
<path d="M6.11035 0.733233C6.48221 0.00876093 7.51779 0.00876117 7.88965 0.733233L9.27158 3.42554C9.41096 3.69708 9.66672 3.8901 9.96608 3.94966L12.8956 4.53255C13.6537 4.68339 13.9613 5.6006 13.4475 6.17807L11.3328 8.5546C11.1419 8.76917 11.0524 9.05548 11.0872 9.34058L11.4756 12.5205C11.5725 13.3136 10.746 13.8944 10.0326 13.5345L7.45033 12.2321C7.1671 12.0893 6.8329 12.0893 6.54967 12.2321L3.96736 13.5345C3.25397 13.8943 2.42755 13.3136 2.52441 12.5205L2.91275 9.34058C2.94757 9.05548 2.85812 8.76917 2.66719 8.5546L0.552508 6.17807C0.0386646 5.6006 0.346303 4.68339 1.10443 4.53254L4.03392 3.94966C4.33328 3.8901 4.58904 3.69708 4.72842 3.42554L6.11035 0.733233Z" fill="#D33437"/>
</svg>
