<?xml version="1.0" standalone="no"?>
<!DOCTYPE svg PUBLIC "-//W3C//DTD SVG 20010904//EN"
 "http://www.w3.org/TR/2001/REC-SVG-20010904/DTD/svg10.dtd">
<svg version="1.0" xmlns="http://www.w3.org/2000/svg"
 width="180.000000pt" height="119.000000pt" viewBox="0 0 180.000000 119.000000"
 preserveAspectRatio="xMidYMid meet">

<g transform="translate(0.000000,119.000000) scale(0.100000,-0.100000)"
fill="#000000" stroke="none">
<path d="M854 1106 c-47 -47 -53 -67 -8 -23 22 20 44 37 49 37 13 -1 57 -40
78 -70 14 -20 17 -21 17 -7 0 22 -78 99 -98 96 -4 -1 -21 -15 -38 -33z"/>
<path d="M902 1066 c14 -10 15 -16 5 -29 -12 -16 -39 -18 -54 -3 -4 4 1 14 11
22 11 8 15 14 9 14 -15 0 -43 -34 -43 -53 0 -22 48 -57 78 -57 28 0 62 34 62
61 0 20 -45 59 -69 59 -14 -1 -14 -2 1 -14z"/>
<path d="M1752 1053 c-31 -46 -36 -59 -11 -33 40 42 52 60 41 60 -6 0 -19 -12
-30 -27z"/>
<path d="M47 1036 c37 -45 52 -46 17 -1 -14 19 -31 35 -36 35 -6 0 3 -15 19
-34z"/>
<path d="M1656 938 c-22 -31 -20 -97 4 -128 28 -37 35 -18 14 40 -15 41 -16
56 -7 80 13 36 10 38 -11 8z"/>
<path d="M136 919 c3 -19 -1 -55 -9 -81 -17 -53 -7 -63 20 -22 20 31 19 102
-2 123 -12 13 -14 10 -9 -20z"/>
<path d="M796 910 c3 -14 10 -29 15 -34 14 -16 10 6 -7 34 l-15 25 7 -25z"/>
<path d="M40 896 c0 -8 5 -18 10 -21 6 -3 10 1 10 9 0 8 -4 18 -10 21 -5 3
-10 -1 -10 -9z"/>
<path d="M1054 896 c-10 -6 -21 -14 -24 -17 -3 -3 -16 -13 -29 -22 -20 -13
-28 -14 -40 -4 -12 9 -13 9 -7 0 5 -9 0 -13 -13 -13 -14 0 -19 -5 -14 -16 6
-16 -24 -50 -44 -49 -7 0 -21 8 -32 17 -22 19 -31 14 -31 -18 0 -25 52 -74 78
-74 18 1 74 29 58 30 -6 0 -2 6 9 13 14 11 16 21 11 50 -6 33 -4 37 14 39 11
0 26 1 33 2 7 1 11 -9 9 -25 -2 -20 4 -32 26 -47 31 -23 64 -20 95 7 18 15 18
14 7 -9 -11 -25 -60 -56 -60 -39 0 5 -5 9 -12 9 -9 0 -9 -3 0 -12 12 -12 17
-48 7 -48 -3 0 -19 14 -35 30 -16 17 -34 30 -39 30 -18 0 -41 -44 -41 -80 0
-84 39 -148 110 -183 l35 -17 -28 0 c-16 0 -35 -7 -44 -15 -8 -8 -19 -12 -25
-9 -6 4 -9 1 -6 -7 3 -10 25 -15 67 -17 69 -3 82 -25 18 -30 -37 -3 -49 -16
-24 -25 10 -4 10 -6 0 -6 -7 -1 -13 -6 -13 -12 0 -5 5 -7 10 -4 6 3 10 -1 10
-9 0 -8 -6 -13 -13 -11 -7 3 -20 -10 -31 -29 -10 -19 -29 -37 -42 -40 -25 -7
-33 -26 -11 -26 18 0 67 48 67 66 0 10 6 14 14 11 7 -3 19 0 25 6 8 8 11 8 11
-2 0 -9 9 -12 24 -9 18 4 26 0 29 -14 3 -11 0 -18 -9 -18 -20 0 -17 -18 4 -23
9 -3 -1 -6 -23 -7 -49 -3 -109 -17 -80 -19 32 -2 -3 -21 -39 -21 -16 0 -27 -2
-24 -5 5 -6 89 -14 362 -35 71 -6 140 -13 153 -16 16 -4 23 -2 23 8 0 9 -16
19 -42 25 -25 6 -34 11 -20 12 28 1 29 28 0 37 -12 3 -28 13 -36 20 -11 12
-11 14 2 14 8 0 18 -4 21 -10 9 -15 64 -12 81 4 18 19 18 60 -1 76 -9 7 -14
24 -13 38 2 19 -2 25 -22 27 -36 5 -87 27 -73 32 6 2 35 0 65 -6 59 -11 84 -1
113 42 19 30 33 102 27 150 -7 60 -22 42 -22 -26 0 -71 -17 -97 -62 -97 -37 0
-54 24 -40 55 10 21 16 24 42 19 36 -8 38 2 8 59 -31 61 -39 115 -23 162 17
48 13 56 -11 19 -11 -16 -20 -52 -22 -90 l-4 -64 -32 35 c-18 19 -38 35 -45
35 -8 0 -11 8 -8 20 3 11 1 23 -4 26 -5 3 -8 0 -7 -7 2 -6 -3 -14 -10 -16 -8
-3 -10 1 -6 11 5 12 2 15 -9 10 -9 -3 -26 1 -39 10 -19 14 -20 16 -4 16 10 0
16 5 13 13 -2 6 -16 11 -31 9 -21 -2 -29 2 -33 17 -4 15 -14 21 -33 21 -18 0
-31 6 -34 18 -16 48 -110 76 -162 48z m81 -27 c15 -7 12 -8 -13 -3 -22 4 -41
0 -57 -10 -28 -18 -35 -20 -35 -7 0 10 46 29 70 30 8 0 24 -5 35 -10z m-12
-26 c9 -8 -12 -33 -27 -33 -20 0 -39 17 -32 29 8 12 49 15 59 4z m-62 -220
c-9 -16 -10 -16 -11 -1 0 9 3 25 7 35 7 16 8 17 11 1 2 -10 -1 -25 -7 -35z
m316 23 c-3 -7 -1 -18 5 -24 13 -13 -7 -52 -27 -52 -8 0 -15 -6 -16 -12 -1 -7
-5 5 -10 27 -9 35 -7 41 13 57 28 21 42 23 35 4z m39 -7 c19 -22 19 -22 -3 -8
-13 8 -23 17 -23 21 0 12 6 9 26 -13z m-308 -67 c14 -10 14 -12 2 -9 -19 5
-41 47 -32 61 4 6 9 0 10 -14 2 -13 11 -30 20 -38z m-44 12 c3 -8 2 -12 -4 -9
-6 3 -10 10 -10 16 0 14 7 11 14 -7z m354 -44 c-7 -10 -14 -18 -15 -16 -6 6 9
36 18 36 5 0 4 -9 -3 -20z m-208 -150 c0 -5 -7 -10 -15 -10 -8 0 -15 5 -15 10
0 6 7 10 15 10 8 0 15 -4 15 -10z m-48 -27 c-6 -2 -10 -9 -6 -14 3 -5 -2 -9
-10 -9 -9 0 -15 -4 -13 -9 1 -5 -1 -9 -5 -10 -23 -3 -28 1 -28 19 0 12 5 17
14 14 8 -3 17 -1 21 5 3 6 14 11 23 10 11 0 12 -2 4 -6z m308 -13 c11 -8 8 -9
-14 -6 -16 3 -31 8 -34 11 -10 9 33 5 48 -5z m-260 -21 c0 -5 -7 -9 -15 -9 -8
0 -15 7 -15 15 0 9 6 12 15 9 8 -4 15 -10 15 -15z m70 -5 c0 -8 -4 -12 -10 -9
-5 3 -10 10 -10 16 0 5 5 9 10 9 6 0 10 -7 10 -16z m223 -8 c7 -17 -1 -26 -24
-26 -21 0 -33 15 -24 30 9 15 42 12 48 -4z m-295 -55 c3 -8 -1 -12 -9 -9 -7 2
-15 10 -17 17 -3 8 1 12 9 9 7 -2 15 -10 17 -17z"/>
<path d="M1750 894 c0 -8 5 -12 10 -9 6 3 10 10 10 16 0 5 -4 9 -10 9 -5 0
-10 -7 -10 -16z"/>
<path d="M668 892 c-15 -2 -39 -17 -53 -33 -26 -31 -34 -56 -14 -43 8 4 9 0 4
-15 -5 -16 -3 -20 9 -15 9 3 16 2 16 -4 0 -6 -6 -12 -12 -15 -10 -3 -8 -10 5
-23 9 -10 17 -13 17 -7 0 6 -6 14 -12 16 -8 3 -7 6 4 6 9 1 20 -3 23 -9 18
-29 105 20 105 59 -1 45 -66 70 -116 45 l-29 -14 24 20 c32 28 65 25 127 -10
32 -19 55 -27 59 -20 3 5 1 10 -5 10 -7 0 -25 9 -41 21 -35 25 -74 36 -111 31z
m42 -51 c0 -13 -24 -31 -41 -31 -26 0 -35 21 -15 35 17 13 56 9 56 -4z"/>
<path d="M976 891 c-4 -7 -5 -15 -2 -18 9 -9 19 4 14 18 -4 11 -6 11 -12 0z"/>
<path d="M180 830 c0 -6 -13 -24 -30 -40 -34 -34 -38 -44 -12 -38 15 4 18 -1
18 -30 0 -20 5 -37 12 -40 7 -2 10 -7 7 -11 -2 -5 7 -6 20 -3 15 2 25 0 25 -7
0 -6 -4 -11 -9 -11 -6 0 -8 -10 -6 -22 4 -16 2 -19 -7 -10 -24 24 -29 10 -24
-65 4 -43 7 -113 9 -156 1 -54 5 -76 14 -73 6 3 29 8 50 12 l38 7 -27 -22
c-32 -26 -37 -67 -10 -87 25 -20 80 -17 109 6 14 11 29 17 34 14 5 -3 9 0 9 5
0 6 -7 11 -15 11 -18 0 -20 17 -3 22 6 2 12 15 13 29 1 18 -4 25 -24 30 l-26
7 28 1 c17 1 27 7 27 17 0 12 -9 15 -40 13 -21 -2 -42 -1 -45 3 -6 6 38 25 70
30 29 5 30 41 2 90 -36 62 -43 105 -21 129 17 19 48 24 78 13 23 -9 30 -67 16
-136 -7 -40 -8 -64 -2 -70 14 -14 207 10 247 29 17 9 38 23 49 32 64 57 77
211 17 211 -26 0 -32 -21 -25 -89 6 -54 5 -59 -21 -79 -52 -41 -160 -22 -160
28 0 22 5 25 42 28 70 5 73 24 13 84 -28 29 -54 65 -57 81 -7 32 -4 32 -53 7
-22 -11 -46 -20 -55 -20 -8 0 -15 -4 -15 -10 0 -5 -16 -7 -36 -5 -31 4 -35 3
-29 -14 4 -15 0 -20 -24 -23 -39 -6 -47 0 -55 39 -8 37 -67 93 -96 93 -11 0
-20 -5 -20 -10z m20 -40 c0 -5 -5 -10 -11 -10 -5 0 -7 5 -4 10 3 6 8 10 11 10
2 0 4 -4 4 -10z m79 -75 c0 -24 -11 -63 -29 -100 -36 -71 -36 -75 -7 -75 18
-1 19 -2 6 -10 -29 -17 -56 -1 -55 31 1 16 6 29 12 29 6 0 22 23 34 52 18 41
21 62 16 107 -6 53 -6 55 8 31 9 -14 15 -43 15 -65z m-59 30 c0 -8 5 -15 10
-15 6 0 10 -4 10 -9 0 -11 -38 -2 -46 10 -6 11 4 29 17 29 5 0 9 -7 9 -15z
m100 -89 c-14 -14 -24 0 -16 21 6 15 8 15 16 3 6 -9 5 -19 0 -24z m-44 -161
c-11 -8 -29 -15 -40 -15 -17 1 -15 4 9 15 40 18 55 18 31 0z m37 -182 c11 -11
-14 -33 -38 -33 -29 0 -38 10 -24 27 12 14 51 18 62 6z"/>
<path d="M1581 803 c-20 -25 -22 -35 -16 -92 7 -73 18 -103 28 -77 4 9 2 16
-3 16 -6 0 -10 4 -10 9 0 5 9 7 20 4 27 -7 50 19 50 56 0 17 3 30 8 30 18 -3
32 2 32 11 0 6 -6 10 -13 10 -7 0 -23 14 -35 30 -28 37 -32 37 -61 3z m27 -65
c-4 -27 -28 -36 -28 -10 0 20 8 32 22 32 5 0 8 -10 6 -22z"/>
<path d="M660 714 c0 -8 5 -12 10 -9 6 3 10 10 10 16 0 5 -4 9 -10 9 -5 0 -10
-7 -10 -16z"/>
<path d="M1701 699 c-15 -44 -15 -67 1 -51 10 10 21 82 12 82 -1 0 -7 -14 -13
-31z"/>
<path d="M94 664 c3 -9 6 -18 6 -20 0 -2 4 -4 9 -4 5 0 7 9 4 20 -3 11 -10 20
-15 20 -6 0 -7 -7 -4 -16z"/>
<path d="M382 628 c-23 -23 -12 -88 15 -88 8 0 11 -5 7 -11 -4 -7 0 -10 11 -7
10 1 23 11 29 20 9 14 6 21 -12 34 -14 10 -22 24 -20 36 4 25 -13 33 -30 16z"/>
<path d="M676 595 c-11 -8 -30 -15 -43 -15 -13 0 -23 -4 -23 -10 0 -20 57 -10
80 15 26 27 17 33 -14 10z"/>
<path d="M981 525 c11 -22 25 -45 30 -52 6 -7 6 -13 -1 -16 -6 -3 -5 -4 2 -3
24 5 18 31 -18 71 l-35 40 22 -40z"/>
<path d="M792 509 c-13 -16 -19 -29 -14 -29 10 0 46 49 40 55 -2 1 -13 -11
-26 -26z"/>
<path d="M1522 518 c3 -7 18 -14 34 -16 l29 -2 -25 14 c-31 19 -43 20 -38 4z"/>
<path d="M550 410 c-36 -3 -71 -10 -78 -14 -14 -9 -17 -172 -3 -180 5 -3 11
32 12 78 2 46 6 87 9 90 12 12 93 11 97 -2 3 -7 -1 -10 -11 -6 -11 4 -16 1
-16 -10 0 -24 29 -31 47 -13 13 13 14 19 4 31 -13 15 12 20 139 29 25 2 5 4
-45 4 -49 0 -119 -3 -155 -7z"/>
<path d="M928 404 c29 -21 28 -33 -5 -61 -41 -36 -111 -17 -100 27 5 21 5 21
-14 4 -10 -9 -19 -29 -19 -43 0 -32 25 -71 46 -71 8 0 14 -4 14 -10 0 -19 100
-11 139 10 90 51 62 131 -54 155 l-30 6 23 -17z"/>
<path d="M600 322 c0 -6 -23 -9 -55 -8 -47 2 -55 0 -55 -16 0 -13 8 -18 29
-18 16 0 32 6 35 13 5 10 7 10 12 0 8 -18 39 -16 54 2 12 14 15 14 30 0 16
-15 19 -14 34 1 22 22 5 44 -19 24 -12 -10 -15 -10 -15 1 0 10 -3 10 -12 1 -8
-8 -15 -9 -25 -1 -8 8 -13 8 -13 1z"/>
<path d="M1079 253 c-13 -16 -12 -17 3 -4 15 11 19 11 24 -4 5 -13 9 -14 15
-4 18 30 -20 40 -42 12z"/>
<path d="M572 240 c4 -21 52 -19 56 2 3 14 -3 17 -28 15 -21 -1 -30 -7 -28
-17z"/>
<path d="M780 251 c0 -14 38 -34 53 -27 7 2 5 5 -5 5 -9 1 -24 8 -32 17 -9 8
-16 11 -16 5z"/>
<path d="M362 230 c-11 -11 -32 -22 -46 -26 -14 -3 -43 -15 -63 -25 -21 -10
-44 -19 -53 -20 -10 0 -9 -3 5 -9 19 -8 19 -9 1 -9 -11 -1 -17 -4 -13 -7 12
-12 144 -6 230 10 48 9 183 21 300 26 l212 9 -262 -5 c-143 -2 -282 -7 -307
-10 -41 -6 -46 -5 -40 10 4 9 20 20 35 23 16 3 32 10 36 16 4 6 -2 8 -15 5
-28 -8 -28 0 0 11 12 4 17 11 11 14 -5 3 -19 -2 -31 -13z"/>
<path d="M445 120 c-131 -8 -234 -25 -248 -39 -42 -42 540 -72 1008 -52 285
12 418 32 392 57 -3 3 -52 12 -109 20 -121 17 -853 27 -1043 14z"/>
</g>
</svg>
