<?xml version="1.0" standalone="no"?>
<!DOCTYPE svg PUBLIC "-//W3C//DTD SVG 1.1//EN" "http://www.w3.org/Graphics/SVG/1.1/DTD/svg11.dtd" >
<svg xmlns="http://www.w3.org/2000/svg">
<metadata>Generated by IcoMoon</metadata>
<defs>
<font id="inv-item" horiz-adv-x="1024">
<font-face units-per-em="1024" ascent="960" descent="-64" />
<missing-glyph horiz-adv-x="1024" />
<glyph unicode="&#x20;" horiz-adv-x="512" d="" />
<glyph unicode="&#xe900;" glyph-name="diving-suit" d="M2460 4945 c-67 -19 -140 -65 -183 -115 -18 -22 -158 -299 -331 -659 -291 -605 -299 -621 -330 -626 -17 -3 -319 -48 -671 -100 -352 -52 -660 -100 -684 -106 -155 -43 -274 -214 -257 -371 13 -129 3 -116 564 -679 l514 -517 -117 -702 c-127 -760 -127 -757 -81 -856 58 -125 198 -214 336 -214 85 0 158 35 744 350 l596 321 596 -321 c586 -315 660 -350 744 -350 138 0 278 89 336 214 46 99 46 96 -81 856 l-118 702 515 516 c561 564 551 551 564 680 17 157 -102 328 -257 371 -24 6 -345 56 -713 111 -367 54 -670 101 -672 103 -2 2 -137 280 -300 618 -163 338 -307 629 -321 647 -33 44 -108 98 -163 117 -66 24 -165 28 -230 10z m405 -975 c281 -585 302 -623 350 -669 61 -58 111 -85 185 -100 53 -10 1327 -201 1346 -201 5 0 -223 -233 -507 -518 -563 -564 -555 -555 -566 -681 -3 -42 25 -233 112 -745 64 -378 115 -690 113 -691 -2 -2 -270 140 -596 316 -584 314 -657 349 -742 349 -85 0 -158 -35 -742 -349 -326 -176 -594 -318 -596 -316 -2 1 49 313 113 691 87 513 115 703 112 745 -11 126 -3 117 -566 681 -284 285 -511 518 -506 518 18 0 1291 191 1345 201 74 15 124 42 185 100 48 46 69 84 350 669 164 341 302 620 305 620 3 0 141 -279 305 -620z" />
<glyph unicode="&#xe902;" glyph-name="shorts" d="M274.286-64h165.929l53.5 696.268c0.741 9.518 8.679 16.866 18.232 16.866 9.545 0 17.491-7.348 18.232-16.866l53.607-696.268h165.929v842.607c-56.063 8.152-100.098 52.187-108.25 108.25h-38.036v-91.429c0-30.295-24.563-54.857-54.857-54.857h-36.571c-10.098 0-18.286 8.187-18.286 18.286v128h-111.179c-8.152-56.063-52.187-100.098-108.25-108.25zM274.286 960h219.429v-36.571h-219.429zM274.286 815.545c35.884 7.393 63.92 35.429 71.313 71.313h-71.313zM603.429 960h146.286v-36.571h-146.286zM749.714 886.857h-71.313c7.393-35.884 35.429-63.92 71.313-71.313zM530.286 960h36.571v-36.571h-36.571zM566.857 795.429v91.429h-36.571v-109.714h18.286c10.098 0 18.286 8.187 18.286 18.286z" />
<glyph unicode="&#xe903;" glyph-name="clock" d="M644.24 919.9c-3.88 23.24-23.78 40.1-47.34 40.1h-265.8c-23.56 0-43.46-16.86-47.34-40.1l-3.204-19.244c-0.406-2.436 1.474-4.656 3.946-4.656h358.998c2.472 0 4.352 2.22 3.946 4.658zM220.564 194.004c-2.804 2.694-7.406 0.252-6.71-3.574l22.226-122.288c3.8-20.94 22-36.14 43.28-36.14h369.28c21.28 0 39.48 15.2 43.28 36.14l22.226 122.29c0.696 3.826-3.906 6.268-6.71 3.574-135.99-130.596-350.72-130.76-486.872-0.002zM283.76-23.9c3.88-23.24 23.78-40.1 47.34-40.1h265.8c23.56 0 43.46 16.86 47.34 40.1l3.204 19.244c0.406 2.438-1.474 4.658-3.946 4.658h-358.996c-2.472 0-4.352-2.22-3.946-4.658zM836 528h-24.188c-2.56 0-4.438-2.366-3.894-4.868 10.514-48.186 11.036-99.7 0-150.262-0.546-2.502 1.33-4.87 3.89-4.87h24.192c24.3 0 44 19.7 44 44v72c0 24.3-19.7 44-44 44zM818.14 578.58c21.020 12.1 28.26 39.060 16.14 60.1l-20 34.64c-12.134 21.006-39.012 28.292-60.12 16.1l-18.416-10.638c-2.152-1.244-2.644-4.112-1.054-6.022 25.238-30.338 45.482-64.966 59.448-102.63 0.864-2.328 3.59-3.334 5.74-2.094zM818.16 317.42l-18.284 10.546c-2.15 1.24-4.876 0.234-5.738-2.094-13.966-37.67-34.216-72.302-59.458-102.644-1.584-1.904-1.092-4.764 1.044-6.016 19.316-11.32 26.608-16.552 40.376-16.552 15.178 0 29.992 7.844 38.18 22.020l20 34.66c12.12 21.020 4.88 47.98-16.12 60.080zM464 128c155.156 0 284.864 111.006 313.9 257.7 39.376 198.462-113.338 382.3-313.9 382.3-175.808 0-320-142.998-320-320 0-175.814 142.992-320 320-320zM464 720c149.982 0 272-122.020 272-272s-122.018-272-272-272-272 122.020-272 272 122.018 272 272 272zM255.452 432h-26.582c-2.332 0-4.194-1.99-4-4.314 9.784-116.164 102.652-209.032 218.816-218.816 2.324-0.196 4.314 1.668 4.314 4v26.582c0 8.522 6.432 15.964 14.936 16.514 9.318 0.602 17.064-6.778 17.064-15.966v-27.13c0-2.332 1.99-4.194 4.314-4 116.164 9.784 209.032 102.652 218.816 218.816 0.196 2.324-1.668 4.314-4 4.314h-26.582c-8.522 0-15.962 6.43-16.514 14.934-0.604 9.318 6.776 17.066 15.966 17.066h27.13c2.332 0 4.194 1.99 4 4.314-9.784 116.164-102.652 209.032-218.816 218.816-2.324 0.196-4.314-1.668-4.314-4v-26.582c0-8.522-6.432-15.964-14.936-16.514-9.318-0.602-17.064 6.778-17.064 15.966v27.13c0 2.332-1.99 4.194-4.314 4-116.164-9.784-209.032-102.652-218.816-218.816-0.196-2.324 1.668-4.314 4-4.314h27.13c9.19 0 16.57-7.748 15.966-17.066-0.552-8.504-7.992-14.934-16.514-14.934zM372.686 539.314c6.248 6.246 16.378 6.246 22.626 0l65.858-65.86c1.562-1.562 4.094-1.562 5.656 0l113.858 113.86c6.248 6.246 16.378 6.246 22.626 0 6.25-6.25 6.25-16.378 0-22.628l-128-128c-6.25-6.248-16.378-6.246-22.626 0l-80 80c-6.246 6.25-6.246 16.378 0.002 22.628zM707.436 701.998c2.804-2.694 7.406-0.252 6.71 3.574l-22.226 122.288c-3.8 20.94-22 36.14-43.28 36.14h-369.28c-21.28 0-39.48-15.2-43.28-36.14l-22.226-122.288c-0.696-3.826 3.906-6.268 6.71-3.574 135.992 130.592 350.72 130.754 486.872 0z" />
<glyph unicode="&#xe904;" glyph-name="jacket" d="M665.070 895.49l-106.4-189.142 176.906 117.932c-4.058 37.345-33.249 66.777-70.126 71.173l-0.38 0.037zM413.358 864h197.284l18 32h-233.284zM592.642 832h-161.284l80.642-143.364zM816 32h64v-32h-64zM144 32h64v-32h-64zM320 64h384v-32h-384zM358.93 895.49c-37.254-4.432-66.443-33.859-70.474-70.843l-0.032-0.357 176.898-117.932zM128 80c0.010-8.832 7.168-15.99 15.999-16h64.001c8.832 0.010 15.99 7.168 16 15.999v496.001c0 8.837 7.163 16 16 16s16-7.163 16-16v0-434.272c0.030-25.243 20.485-45.698 45.725-45.728h420.547c25.243 0.030 45.698 20.485 45.728 45.725v434.275c0 8.837 7.163 16 16 16s16-7.163 16-16v0-496c0.010-8.832 7.168-15.99 15.999-16h64.001c8.832 0.010 15.99 7.168 16 15.999v604.061c0 0.038 0 0.082 0 0.127 0 52.178-35.732 96.010-84.061 108.362l-0.775 0.168c-0.244 0.062-0.486 0.128-0.726 0.2l-45.51 13.684c-1.121-1.538-2.464-2.835-3.996-3.872l-0.056-0.036-200.876-133.922v-220.77c0-8.837-7.163-16-16-16s-16 7.163-16 16v0 199.438l-7.124-4.75c-2.494-1.684-5.568-2.688-8.876-2.688s-6.382 1.004-8.933 2.724l0.057-0.036-7.124 4.75v-199.438c0-8.837-7.163-16-16-16s-16 7.163-16 16v0 220.77l-200.876 133.918c-1.588 1.073-2.931 2.37-4.020 3.863l-0.032 0.045-45.51-13.68c-0.24-0.072-0.482-0.138-0.726-0.2-49.104-12.519-84.836-56.351-84.836-108.529 0-0.044 0-0.089 0-0.133v0.007z" />
<glyph unicode="&#xe905;" glyph-name="necklace" d="M1024 656.866c0 41.492-26.958 76.782-64.268 89.344v30.18c37.31 12.562 64.268 47.852 64.268 89.344 0 51.978-42.29 94.266-94.268 94.266s-94.266-42.288-94.266-94.266c0-41.49 26.956-76.782 64.266-89.344v-30.18c-37.31-12.562-64.266-47.852-64.266-89.344 0-41.49 26.956-76.782 64.266-89.344v-30.18c-37.31-12.562-64.266-47.852-64.266-89.344 0-37.868 22.456-70.572 54.742-85.55-2.238-9.918-4.87-19.746-7.884-29.456-2.818 0.254-5.666 0.406-8.55 0.406-51.978 0-94.266-42.288-94.266-94.266 0-20.154 6.378-38.836 17.192-54.176-6.934-7.498-14.16-14.724-21.66-21.658-15.34 10.814-34.020 17.192-54.174 17.192-51.978 0-94.268-42.288-94.268-94.266 0-2.884 0.15-5.732 0.406-8.55-9.71-3.016-19.538-5.646-29.456-7.884-14.978 32.286-47.682 54.742-85.55 54.742s-70.572-22.456-85.55-54.742c-9.918 2.238-19.746 4.87-29.456 7.884 0.254 2.818 0.406 5.666 0.406 8.55 0 51.978-42.29 94.266-94.268 94.266-20.154 0-38.834-6.378-54.174-17.192-7.5 6.934-14.726 14.16-21.66 21.658 10.814 15.34 17.192 34.022 17.192 54.176 0 51.978-42.288 94.266-94.266 94.266-2.884 0-5.732-0.15-8.552-0.406-3.014 9.71-5.646 19.538-7.884 29.456 32.286 14.976 54.742 47.68 54.742 85.55 0 41.49-26.956 76.782-64.266 89.344v30.18c37.31 12.562 64.266 47.852 64.266 89.344s-26.956 76.782-64.266 89.344v30.18c37.31 12.562 64.266 47.852 64.266 89.344 0.006 51.978-42.282 94.266-94.26 94.266s-94.268-42.288-94.268-94.266c0-41.49 26.958-76.782 64.268-89.344v-30.178c-37.31-12.564-64.268-47.854-64.268-89.346 0-41.49 26.958-76.782 64.268-89.344v-30.178c-37.31-12.562-64.268-47.854-64.268-89.344 0-44.936 31.614-82.604 73.762-91.994 3.362-16.048 7.612-31.92 12.72-47.5-18.75-17.242-30.524-41.954-30.524-69.372 0-51.98 42.29-94.268 94.268-94.268 9.896 0 19.436 1.542 28.404 4.382 10.898-12.15 22.466-23.718 34.618-34.618-2.84-8.968-4.382-18.508-4.382-28.404 0-51.978 42.288-94.266 94.266-94.266 27.418 0 52.132 11.774 69.374 30.522 15.58-5.108 31.45-9.36 47.5-12.72 9.388-42.148 47.058-73.762 91.994-73.762s82.606 31.614 91.996 73.762c16.048 3.36 31.92 7.612 47.5 12.72 17.242-18.748 41.956-30.522 69.374-30.522 51.978 0 94.266 42.288 94.266 94.266 0 9.896-1.542 19.436-4.382 28.404 12.154 10.9 23.72 22.468 34.618 34.618 8.968-2.84 18.508-4.382 28.404-4.382 51.978 0 94.268 42.288 94.268 94.268 0 27.418-11.774 52.132-30.524 69.372 5.108 15.58 9.358 31.45 12.72 47.5 42.146 9.39 73.76 47.058 73.76 91.994 0 41.49-26.958 76.782-64.268 89.344v30.178c37.31 12.564 64.268 47.854 64.268 89.344zM94.268 900c18.894 0 34.266-15.372 34.266-34.266s-15.372-34.266-34.266-34.266-34.268 15.37-34.268 34.266 15.374 34.266 34.268 34.266zM94.268 691.134c18.894 0 34.266-15.372 34.266-34.268 0-18.894-15.372-34.266-34.266-34.266s-34.268 15.372-34.268 34.266c0 18.896 15.374 34.268 34.268 34.268zM94.268 482.266c18.894 0 34.266-15.372 34.266-34.266s-15.372-34.266-34.266-34.266-34.268 15.372-34.268 34.266 15.374 34.266 34.268 34.266zM115.958 239.134c0 18.894 15.374 34.266 34.268 34.266s34.266-15.372 34.266-34.266c0-18.896-15.372-34.268-34.266-34.268s-34.268 15.372-34.268 34.268zM303.132 51.96c-18.894 0-34.266 15.372-34.266 34.266s15.372 34.266 34.266 34.266 34.268-15.372 34.268-34.266-15.372-34.266-34.268-34.266zM512-4c-18.894 0-34.268 15.372-34.268 34.266s15.374 34.266 34.268 34.266 34.268-15.372 34.268-34.266-15.374-34.266-34.268-34.266zM720.868 51.96c-18.894 0-34.268 15.372-34.268 34.266s15.374 34.266 34.268 34.266 34.266-15.372 34.266-34.266-15.372-34.266-34.266-34.266zM873.774 204.866c-18.894 0-34.266 15.372-34.266 34.268 0 18.894 15.372 34.266 34.266 34.266s34.268-15.372 34.268-34.266c0-18.896-15.374-34.268-34.268-34.268zM929.732 900c18.894 0 34.268-15.372 34.268-34.266s-15.374-34.266-34.268-34.266-34.266 15.372-34.266 34.266 15.372 34.266 34.266 34.266zM929.732 691.134c18.894 0 34.268-15.372 34.268-34.268 0-18.894-15.374-34.266-34.268-34.266s-34.266 15.372-34.266 34.266c0 18.896 15.372 34.268 34.266 34.268zM929.732 413.734c-18.894 0-34.266 15.372-34.266 34.266s15.372 34.266 34.266 34.266 34.268-15.372 34.268-34.266-15.374-34.266-34.268-34.266z" />
<glyph unicode="&#xe906;" glyph-name="glasses" d="M994 543.43h-31.232c-8.624 21.52-20.316 36.936-30.926 47.546-26.858 26.862-57.186 34.276-65.84 35.906-26.316 4.962-68.502 6.262-110.962 5.952-0.126 0.002-0.248 0.020-0.374 0.020-0.002 0-0.004 0-0.006 0l-476.648-0.096c-0.062 0-0.12-0.008-0.18-0.010-45.376 0.562-91.686-0.558-119.834-5.866-8.654-1.63-38.982-9.044-65.84-35.906-10.61-10.612-22.304-26.026-30.926-47.546h-31.232c-16.568 0-30-13.432-30-30s13.432-30 30-30h18.732c-0.194-3.862-0.3-7.826-0.3-11.904 0-129.402 86.968-198.016 167.774-207.006 8.424-0.938 16.848-1.4 25.24-1.4 54.832 0.002 108.18 19.756 149.384 55.938 32.512 28.546 70.324 78.946 85.396 164.374h71.548c15.072-85.426 52.884-135.828 85.396-164.374 41.208-36.184 94.548-55.938 149.384-55.938 8.388 0.002 16.82 0.462 25.24 1.4 80.804 8.99 167.774 77.604 167.774 207.006 0 4.078-0.106 8.042-0.3 11.904h18.732c16.568 0 30 13.432 30 30s-13.432 30-30 30zM541.48 543.43h-58.96c0.138 3.518 0.256 7.066 0.324 10.678 0.12 6.382-0.628 12.65-2.16 18.69l62.638 0.012c-1.534-6.044-2.286-12.316-2.164-18.704 0.066-3.61 0.184-7.158 0.322-10.676z" />
<glyph unicode="&#xe907;" glyph-name="cap" d="M289.543 293.137c73.291-15.849 148.136-23.366 223.116-22.413 74.98-0.953 149.825 6.564 223.116 22.413 64.501 15.618 104.357 40.567 104.357 70.18 0 300.801-94.621 373.415-189.344 373.415-63.081-0.101-124.032-33.366-157.195-51.418-8.316-4.564-14.604-8.012-17.545-9.026-19.472-7.302-47.159-3.042-76.164 1.42-20.656 3.747-41.583 5.816-62.574 6.186-81.843-0.71-154.457-48.376-152.124-320.577 0-30.425 39.857-54.663 104.357-70.18zM965.888 363.723c-31.807 14.987-65.173 26.416-99.489 34.076v-34.482c0-59.024-78.8-85.392-125.046-96.548-75.193-16.478-152.028-24.269-228.998-23.224-77.104-1.078-154.079 6.716-229.404 23.224-46.246 11.156-125.553 37.524-125.553 96.548 0 0.608 0 1.217 0 1.724 0 10.142 0 21.5 0 32.656-34.248-7.67-67.546-19.097-99.287-34.076-37.22-18.762-58.112-41.479-58.112-67.442 0-42.291 60.85-78.091 158.311-101.416 91.275-21.906 215.712-35.496 353.334-35.496s263.277 13.488 354.044 35.090c97.867 23.63 158.311 59.43 158.311 101.416 0 26.368-20.79 49.187-58.112 67.949z" />
<glyph unicode="&#xe908;" glyph-name="mask" d="M946.946 888.084c-5.994 2.936-150.102 71.916-434.946 71.916s-428.952-68.98-434.946-71.916c-10.284-5.038-16.804-15.49-16.804-26.942v-321.938c0-273.498 177.802-515.312 442.438-601.724 3.026-0.988 6.168-1.482 9.312-1.482s6.286 0.494 9.312 1.482c264.636 86.412 442.438 328.226 442.438 601.724v321.938c0 11.452-6.52 21.904-16.804 26.942zM210.75 641.916s53.95 73.416 120.5 73.416 120.5-73.416 120.5-73.416-53.95-73.416-120.5-73.416-120.5 73.416-120.5 73.416zM506 207c-103.14 0-186.75 83.61-186.75 186.75h373.5c0-103.14-83.61-186.75-186.75-186.75zM692.75 568.5c-66.55 0-120.5 73.416-120.5 73.416s53.95 73.416 120.5 73.416 120.5-73.416 120.5-73.416-53.95-73.416-120.5-73.416z" />
<glyph unicode="&#xe909;" glyph-name="Flashlight" d="M247.467 68.266l-127.999-127.996-119.469 119.469 127.999 128 8.535-8.536-8.535-8.534 102.402-102.403 8.535 8.536 8.535-8.536zM247.467 85.334l-102.402 102.402 25.602 25.601 102.402-102.402-25.602-25.601zM187.734 230.403l-8.535-8.534-8.535 8.534 401.068 401.069 8.536-8.534 8.534 8.534 102.402-102.402-8.534-8.536 8.534-8.534-401.069-401.069-8.534 8.536 8.534 8.534-102.401 102.402zM708.268 546.136l111.592 59.077-148.352 148.35-65.643-105.025 102.402-102.402zM842.175 617.026l11.159 5.911-25.604 25.601 34.132 34.132 25.604-25.601 54.612 54.612-162.132 162.131-54.612-54.612 25.604-25.602-34.132-34.132-25.604 25.602-6.566-10.503 157.539-157.54zM959.15 728.745l-6.828-6.825-162.128 162.131 6.824 6.824 162.132-162.131zM807.255 901.118l162.128-162.131 6.828 6.824-162.132 162.131-6.824-6.824zM1024 793.601l-37.546-37.545-162.128 162.131 37.543 37.545 162.132-162.131z" />
<glyph unicode="&#xe90a;" glyph-name="Pool-Cue" d="M426.065 312.88l-102.041-53.545 9.788 57.497 89.258 89.26-12.817-75.295 68.482 35.936-52.671-53.854zM297.683 280.703l-292.459-292.459c6.972-33.488 17.92-45.338 52.245-52.244l301.537 308.315-74.139-38.907 5.010 29.442 7.806 45.854zM449.412 384.72l96.382 50.578 431.302 440.994-41.912 41.912-475.984-475.984-9.788-57.5zM966.529 928.652l20.9-20.897 31.348 31.347-20.9 20.898-31.348-31.347z" />
<glyph unicode="&#xe90b;" glyph-name="Hammer" d="M61.522 114.205l77.928-77.928-34.179-61.523-105.271 105.272 61.522 34.179zM258.392 166.157l-105.271-105.269-66.991 66.991 105.271 105.269 9.571 28.711 220.11 220.112 38.282 19.139 229.682 229.684 66.991-66.993-229.682-229.682-19.139-38.28-220.112-220.112-28.711-9.571zM775.177 682.943c19.143 19.139 63.165 51.679 86.132 28.708l38.28-38.28 53.074 53.074-49.957 49.958 16.299 16.3c0 0-54.517 94.388-112.732 112.734-58.217 18.346-186.131 35.898-232.066-40.663 4.135 0.688 8.51 1.485 13.081 2.318 37.746 6.868 88.958 16.187 130.47-11.889 13.906-9.403 27.851-25.994 34.603-34.029v-0.001c1.753-2.085 3.022-3.594 3.677-4.251l-57.419-57.422 76.559-76.559zM997.632 733.137l-101.086-101.088c0.52-8.221 4.024-17.079 12.614-25.665 28.711-9.571 59.064 20.782 76.561 38.28s38.28 38.282 38.28 76.561c-8.401 8.401-17.598 11.702-26.368 11.914z" />
<glyph unicode="&#xe90c;" glyph-name="crowbar" d="M136.911 116.193c-26.807-26.807-44.223-131.299-49.58-180.193 14.939 31.014 71.093 101.236 99.816 129.956 177.536 180.238 502.775 503.823 646.082 646.386l-50.084 50.084-646.234-646.234zM792.718 772l50.109-50.109c29.224 29.071 49.533 49.28 57.571 57.316 57.444 57.444 41.899 92.135-13.361 147.394s-162.465 28.432-196.446 14.544c-27.186-11.11-87.033-50.193-86.874-56.733 12.386 0.101 29.625 1.691 49.305 3.509h0.002c60.785 5.61 144.877 13.371 181.356-13.975 32.534-24.387 8.098-51.108-1.872-62.006-0.545-0.596-1.048-1.145-1.493-1.644l-38.298-38.298zM317.013 271.175l421.249 421.249 5.024-5.024-421.251-421.249-5.022 5.024z" />
<glyph unicode="&#xe90d;" glyph-name="Nightstick" horiz-adv-x="1006" d="M109.167-7.893l14.465 14.466-62.056 62.055-14.465-14.464 62.056-62.057zM39.878 46.93l-3.616-3.615c0 0-13.991 3.419-21.8 0.103-7.363-3.127-14.465-14.464-14.465-14.464s27.896-27.212 43.804-43.805c17.257-18 40.154-40.152 40.154-40.152s11.338 7.101 14.465 14.464c3.317 7.809-0.103 21.801-0.103 21.801l3.616 3.615-62.056 62.055zM145.329 28.272l-14.465-14.466-62.056 62.055 14.465 14.466 62.056-62.055zM152.562 35.504l14.465 14.464-62.056 62.055-14.465-14.464 62.056-62.055zM188.724 71.666l-14.465-14.466-62.056 62.057 14.465 14.464 62.056-62.055zM195.956 78.899l14.465 14.464-62.056 62.057-14.465-14.466 62.056-62.055zM232.118 115.061l-14.464-14.464-62.055 62.055 14.465 14.464 62.055-62.055zM239.353 122.293l36.162 36.165 10.952-10.952 61.476 61.476-10.952 10.952 669.012 669.012c-15.049 36.329-28.841 50.076-62.055 62.056l-766.652-766.652 62.056-62.055zM301.068 132.905l-7.3 7.3 61.476 61.476 7.3-7.3-61.476-61.476zM308.369 125.604l7.3-7.3 61.476 61.478-7.3 7.299-61.476-61.476zM330.269 103.701l-7.3 7.3 61.478 61.478 7.3-7.3-61.478-61.478zM337.571 96.403l7.3-7.3 61.476 61.476-7.299 7.3-61.478-61.476zM359.473 74.501l-7.3 7.3 61.476 61.476 7.3-7.3-61.476-61.476zM366.774 67.199l7.3-7.3 61.476 61.476-7.3 7.3-61.476-61.476zM388.676 45.297l-7.3 7.3 61.476 61.476 7.3-7.299-61.476-61.478zM395.978 37.996l7.299-7.3 61.478 61.478-7.3 7.3-61.476-61.478zM428.829 5.144l-18.252 18.252 61.478 61.476 18.25-18.252-61.476-61.476z" />
<glyph unicode="&#xe90e;" glyph-name="Pipe-Wrench" d="M656.615 704.928l-23.443 23.445 4.689 4.687-9.378 9.378 42.197 42.197 32.821-32.821-46.886-46.886zM651.928 690.862l-28.132 28.132-107.839-107.837c8.693-18.441 16.737-26.796 37.508-37.508l84.396 84.394v-23.040l145.854 138.91 28.644 47.74 13.766 5.901 55.542 55.541 93.77-131.281c0 0 12.503 12.503 18.756 56.263s-5.514 138.581-75.018 150.036c-48.888 8.056-66.447-9.677-109.453-53.11-3.923-3.962-8.060-8.14-12.449-12.531l-28.134-28.132c-12.503 6.251-41.258 15.003-56.263 0-16.252-16.253-39.545-39.546-39.371-63.778l48.749-48.749-65.642-65.64-4.687 4.687zM833.196 819.040l-13.501-5.785-27.62-46.033-0.52-0.494-155.846-148.426-513.592-532.269-93.772-93.77c0 0 3.218-21.972 18.754-37.51 15.537-15.536 37.509-18.752 37.509-18.752l750.174 750.174 52.575 39.432-46.875 93.749-5.701-1.901-1.586 1.587zM853.192 823.591l44.951-89.896 11.657 8.743-46.886 84.394-9.721-3.241zM65.852-45.248l84.395 84.396-18.754 18.752-84.395-84.394 18.754-18.756zM909.799 929.981c5.179-5.179 5.177-13.577 0-18.754-5.179-5.178-13.577-5.179-18.756 0s-5.179 13.577 0 18.754c5.179 5.178 13.577 5.179 18.756 0z" />
<glyph unicode="&#xe90f;" glyph-name="Baseball-Bat" horiz-adv-x="1003" d="M4.775 40.298l33.869-53.486 0.616-0.403 51.015-33.493c-34-22.312-110.010 54.326-85.5 87.382zM9.699 45.285l33.925-53.573 51.937-34.097c13.624 15.991-0.425 38.146-0.425 38.146l1.622 1.621-48.291 48.292-1.622-1.621c0 0-21.248 13.472-37.145 1.234zM370.395 271.017l-24.618-24.616c-1.256 2.9-2.583 5.906-3.961 8.98-8.487 18.952-19.013 40.786-26.917 56.724l7.204 7.204 48.292-48.292zM380.053 280.677l106.24 106.24c0 0 117.551 81.817 188.336 140.043 140.058 115.213 328.378 328.379 328.378 328.379-21.224 48.843-39.515 70.549-91.753 91.753 0 0-210.51-190.546-328.378-328.379-59.343-69.392-144.875-183.504-144.875-183.504l-106.24-106.242 48.292-48.289zM331.846 250.917c2.015-4.504 3.906-8.819 5.611-12.834l-30.312-30.312c-1.256 2.898-2.583 5.906-3.961 8.98-8.489 18.952-19.013 40.784-26.917 56.724l30.477 30.477c7.637-15.483 17.259-35.527 25.101-53.033zM268.111 265.319c7.639-15.483 17.261-35.527 25.101-53.036 2.017-4.504 3.906-8.819 5.613-12.834l-30.314-30.312c-1.254 2.9-2.583 5.909-3.958 8.98-8.489 18.952-19.015 40.786-26.919 56.726l30.477 30.477zM229.88 130.505l30.312 30.312c-1.705 4.015-3.596 8.331-5.611 12.834-7.84 17.509-17.464 37.551-25.101 53.033l-30.477-30.477c7.903-15.938 18.431-37.772 26.917-56.724 1.378-3.074 2.704-6.079 3.961-8.98zM221.559 122.182l-30.313-30.312c-1.256 2.9-2.583 5.909-3.96 8.982-8.488 18.95-19.014 40.784-26.918 56.724l30.477 30.477c7.637-15.483 17.26-35.527 25.1-53.036 2.017-4.502 3.908-8.817 5.613-12.834zM152.614 53.238l30.312 30.312c-1.705 4.015-3.595 8.331-5.612 12.834-7.841 17.509-17.463 37.551-25.101 53.033l-30.477-30.477c7.903-15.938 18.43-37.772 26.918-56.724 1.377-3.074 2.704-6.079 3.96-8.98zM144.294 44.919l-30.312-30.314c-1.256 2.9-2.583 5.909-3.96 8.982-8.488 18.952-19.014 40.786-26.918 56.724l30.477 30.477c7.638-15.483 17.26-35.527 25.101-53.033 2.017-4.504 3.908-8.819 5.612-12.834zM52.33 49.537l48.291-48.292 5.040 5.039c-1.705 4.015-3.595 8.333-5.612 12.834-7.841 17.509-17.463 37.554-25.101 53.033l-22.618-22.616z" />
<glyph unicode="&#xe910;" glyph-name="Broken-Bottle" horiz-adv-x="1001" d="M166.048 200.258l-111.484-111.484 99.097-99.096 111.485 111.484c66.064 66.064 264.258 143.137 355.097 173.418l379.87 379.87c-33.031 6.608-184.43-74.322-214.711-115.613-39.637 52.853 88.086 258.753 156.903 355.098-145.34-132.128-176.171-93.591-173.418-57.806-13.213 39.639 22.023 99.097 41.291 123.87-33.031-6.607-85.335-30.279-107.355-41.291l-363.356-363.355c-19.818-99.098-123.872-278.021-173.42-355.097zM25.66 59.872l12.387 12.386 99.097-99.096-12.387-12.388-8.258-24.774h-16.516l-99.097 99.096v16.517l24.774 8.259z" />
<glyph unicode="&#xe911;" glyph-name="Knife" horiz-adv-x="1002" d="M355.264 179.157l22.38 22.382-91.939 91.939-22.382-22.382 91.942-91.939zM338.043 161.94l-91.939 91.939-22.382-22.382 91.942-91.939 22.38 22.382zM298.445 122.341l-91.938 91.939-22.382-22.382 91.938-91.939 22.382 22.382zM258.846 82.742l-22.382-22.382-91.938 91.939 22.382 22.382 91.938-91.939zM196.865 20.761l22.382 22.382-91.939 91.939-22.382-22.382 91.939-91.939zM179.65 3.544l-9.668-9.667c-12.081-46.406-43.617-57.92-57.875-57.876l-91.939 91.939c2.363 26.881 35.507 45.723 51.783 51.783l15.76 15.76 91.939-91.939zM428.896 252.793l-34.037-34.037-91.939 91.939 34.037 34.037-52.1 52.098 30.462 30.462 39.84-39.842 39.599 39.599 55.016-6.277-9.342 58.081 58.078-9.342-3.248 64.171 64.169-3.251-3.248 64.171 61.125-6.295-3.231 58.061 58.061-3.231 21.137 82.429 21.378 2.99 21.304 27.432 12.24-6.147 15.211 21.339 21.398-3.118 9.12 15.248 12.24-6.15 6.073 12.204 72.573 38.92c-3.515-14.257-8.583-23.91-11.568-28.016l-437.508-437.507 60.762-60.76-27.944-27.946 45.968-45.968-30.459-30.462-55.164 55.164zM912.504 846.679c-2.633-30.829-13.143-52.728-20.342-61.995l-0.462-0.601-0.537-0.534-420.888-420.89 43.438-43.438 430.024 430.024c23.33 31.502 60.141 117.754 20.749 210.755-1.667-26.157-14.597-80.057-51.983-113.322z" />
<glyph unicode="&#xe912;" glyph-name="Switchblade" d="M190.837 19.781l-46.545-83.78-139.637 139.637 83.782 46.545 102.4-102.402zM209.455 38.398l-102.4 102.402 288.581 288.58 102.402-102.398-288.583-288.584zM515.001 347.252c10.155 13.716 29.045 36.429 48.199 44.893 16.956 7.493 46.545 9.308 46.545 9.308l27.928-27.925 37.235 37.235-46.545 46.545 27.928 27.928v13.166h13.166l24.070 24.070 0.002 13.166h13.162l24.073 24.070v13.168l13.162-0.002 24.073 24.073v13.166h13.166l24.070 24.070 0.002 13.166h13.162l24.073 24.073v13.166l13.166-0.002 42.687 42.691 121.019 232.727-223.417-130.327-46.545-46.544-0.002-13.168-13.162 0.002-24.073-24.073v-13.166h-13.166l-24.070-24.070v-13.166h-13.166l-24.070-24.070-0.002-13.168-13.162 0.002-24.073-24.073v-13.166h-13.166l-24.070-24.070v-13.166h-13.166l-24.070-24.073-55.856 55.856-37.235-37.235 27.925-27.928c0 0 6.9-35.16 0-55.856-6.654-19.96-30.218-38.678-44.525-48.563l98.728-98.728z" />
<glyph unicode="&#xe913;" glyph-name="Antique-Cavalry-Dagger" d="M486.871 130.43l-186.026-186.026c-41.121-17.937-151.117-18.965-262.143 120.409-2.491 13.038-0.14 44.787 25.629 76.665 6.427-24.502 16.391-54.276 29.399-79.466 8.27-16.015 17.965-30.57 29.068-40.704 11.142-10.167 24.309-16.39 39.103-14.141 1.695 0.258 3.375 0.523 5.041 0.795 34.302-28.423 79.861-19.704 99.291-11.228l186.026 186.026-69.555 69.555-35.106-0.326c-14.042-0.133-25.799-31.597-29.922-47.311l-103.119-103.119c-2.953-2.953-14.141-10.664-35.27-17.881-19.187-6.555-20.798-42.376-18.883-64.219l-0.147-0.021c-9.813-1.491-19.441 2.385-29.002 11.11-9.599 8.761-18.513 21.894-26.477 37.32-13.9 26.921-24.313 59.634-30.412 84.778l0.259 0.26 203.743 203.743-52.166 52.168 35.432 35.432 60.863-60.86 73.523 73.526 104.332-104.332-73.523-73.526 113.024-113.027-35.432-35.435-8.694 8.694-8.859-8.856zM512.759 364.979l-104.332 104.332 49.863 49.866 47.519 0.441 0.232 24.824-22.694-0.211 19.239 19.237 47.516 0.444 0.232 24.821-22.692-0.211 19.237 19.237 47.516 0.444 0.232 24.824-22.692-0.213 19.237 19.237 47.516 0.444 0.232 24.824-22.692-0.213 19.237 19.237 47.516 0.444 0.232 24.824-22.692-0.213 19.237 19.237 47.516 0.444 0.234 24.824-22.694-0.211 19.237 19.237 47.519 0.441 0.232 24.824-21.882-0.204 236.151 150.013c-24.005-64.579-82.646-204.368-125.167-246.887l-348.135-348.138zM381.415 355.357c9.604-9.604 1.523-33.253-18.046-52.825-19.572-19.569-43.218-27.647-52.822-18.043s-1.526 33.253 18.043 52.822c19.572 19.569 43.221 27.65 52.825 18.046zM278.69 391.757c14.678 14.678 14.898 38.253 0.495 52.657-14.407 14.407-37.981 14.187-52.659-0.492-14.678-14.675-14.898-38.253-0.492-52.657 14.405-14.407 37.981-14.187 52.657 0.492zM539.529 130.925c14.678 14.678 14.898 38.255 0.492 52.659s-37.981 14.187-52.657-0.492c-14.678-14.678-14.898-38.253-0.492-52.659s37.981-14.183 52.657 0.492z" />
<glyph unicode="&#xe914;" glyph-name="Machete" d="M227.945 129.442c-30.008-30.006-55.371-126.815-64.302-171.468-28.578-21.434-88.95-46.081-101.81 26.792-12.771 72.364 110.78 217.647 175.471 282.635 15.029-9.985 32.83-24.048 47.096-40.075 12.723-14.298 22.021-29.443 24.785-44.26-27.295 0.321-55.527-27.909-81.241-53.624zM320.211 181.288c8.724-2.788 17.303-9.005 25.618-19.695l16.075 16.075c-10.717 10.717-26.792 37.51-5.358 58.944 2.392 2.392 8.857 8.144 18.692 16.674l-26.493 26.493 529.046 453.466c22.033 29.19 57.161 112.811 21.663 215.795l-103.518-37.268c-10.717-32.15-52.512-116.813-133.961-198.262-79.948-79.948-307.558-321.326-417.268-438.301 15.305-10.319 33.117-24.548 47.616-40.834 13.937-15.657 25.51-34.031 27.887-53.090zM383.289 260.24c88.542 76.247 366.942 308.906 514.459 431.838 41.083 48.227 105.025 169.326 32.151 267.922l-20.459-7.365c37.062-107.36 0.327-195.042-23.553-226.271l-0.339-0.442-521.202-446.742 18.941-18.941zM131.493 22.276c5.919-5.919 5.919-15.515 0-21.434s-15.515-5.919-21.433 0c-5.919 5.919-5.919 15.515 0 21.434 5.919 5.917 15.515 5.917 21.433 0zM174.361 86.576c5.919 5.919 5.919 15.515 0 21.434s-15.515 5.919-21.434 0c-5.919-5.919-5.919-15.515 0-21.434s15.515-5.919 21.434 0zM249.379 225.896c5.919-5.919 5.919-15.515 0-21.434s-15.515-5.919-21.434 0c-5.919 5.919-5.919 15.515 0 21.434s15.515 5.919 21.434 0zM828.089 868.908c5.919 5.919 5.919 15.515 0 21.434s-15.515 5.919-21.434 0c-5.917-5.919-5.917-15.515 0-21.434 5.919-5.918 15.515-5.919 21.434 0z" />
<glyph unicode="&#xe915;" glyph-name="Hatchet" d="M576.383 487.856l-74.707 74.71c12.509 14.196 30.272 34.462 47.978 55.034l78.237-78.237-51.508-51.508zM640.153 551.627l-79.178 79.178c-1.501-1.758-3.010-3.52-4.523-5.287l78.796-78.798 4.904 4.908zM647.512 558.985l-79.774 79.774c1.513 1.786 3.014 3.559 4.496 5.316l80.183-80.186-4.904-4.904zM670.81 582.286l-81.861 81.861c-3.147-3.837-6.498-7.882-10-12.073l80.825-80.825 11.037 11.037zM678.17 589.643l4.904 4.904-83.185 83.188c-1.372-1.743-2.822-3.566-4.348-5.464l82.628-82.628zM690.433 601.907l-84.149 84.15c1.598 2.147 2.972 4.063 4.094 5.715l84.962-84.96-4.908-4.904zM772.598 684.073c-7.417 7.417-19.072 11.539-32.339 15.442-1.225 0.361-2.471 0.722-3.728 1.085l-0.007 0.002c-5.142 1.49-10.439 3.025-15.113 4.747-5.747 2.116-11.819 4.941-16.261 9.382-4.026 4.028-6.278 9.528-7.635 14.663-1.399 5.297-2.103 11.191-2.404 16.923-0.492 9.46 0.082 19.224 0.905 26.602l-9.175 9.175c-24.233-24.873-58.92-62.144-70.977-81.092l86.834-86.834 69.901 69.903zM711.281 782.18l-42.923 42.922 79.713 79.713 30.659-30.659 3.065 3.066 98.11-98.108-9.199-9.197c53.96-53.959 124.679-108.326 153.294-128.767-29.433-68.677-119.15-134.76-160.328-159.219-24.47 6.219-58.545 67.616-72.678 97.901-14.717 24.527 6.132 79.711 18.394 104.239l-24.527 12.263c-10.979 10.978-26.916 16.054-39.71 19.816-1.325 0.39-2.615 0.765-3.871 1.13l-0.063 0.018-0.041 0.013-0.046 0.013-0.044 0.013-0.046 0.013c-5.075 1.471-9.596 2.783-13.637 4.273-5.176 1.908-8.301 3.682-9.991 5.372-0.879 0.878-2.103 2.939-3.133 6.835-0.987 3.735-1.588 8.342-1.85 13.391-0.528 10.094 0.339 20.861 1.302 27.601l0.613 4.293-3.065 3.066zM895.235 794.444l-9.199-9.198-98.108 98.108 9.199 9.198 98.108-98.108zM564.118 475.594l-73.947 73.947c-3.665-4.14-5.764-6.498-5.764-6.498l-374.036-374.036-110.371-73.581 104.24-104.24c10.22 2.044 36.79 36.791 36.79 36.791s30.659 55.184 42.922 67.449l380.166 380.168zM867.086 525.251c11.516 5.236 29.9 14.899 47.934 27.008 17.903 12.022 36.091 26.867 46.581 42.601 9.778 14.669 16.881 24.814 21.773 31.523 5.009 6.868 7.497 9.843 8.127 10.475l-8.584 8.584c-1.414-1.414-4.445-5.181-9.349-11.906-5.018-6.882-12.226-17.176-22.067-31.942-9.134-13.7-25.691-27.467-43.25-39.257-17.428-11.703-35.222-21.048-46.188-26.032l5.024-11.054z" />
<glyph unicode="&#xe916;" glyph-name="Battle-Axe" horiz-adv-x="832" d="M116.525-36.11l-87.837 50.712-18.278-16.209c20.774-61.381 45.46-68.959 101.216-58.438l4.898 23.935zM520.688 648.47l-395.903-664.812-83.094 47.975 414.968 739.685-9.722 36.285 45.155 78.213 50.609-29.219 15.938 27.604 36.806-21.25-1.425-23.716 82.813-47.812 107.392-34.698c-24.752-68.499-68.604-129.562-115.551-179.354-33.307-35.326-67.935-64.728-97.888-86.838l-17.563 65.54c9.676 2.592 37.244 17.755 70.104 57.673s-7.049 94.042-31.111 116.111l-43.543-11.666c-11.611-3.112-3.194-26.785 2.468-38.23l-29.029-7.777c-11.611-3.112-5.785-17.109-1.422-23.717zM684.134 562.794c48.299 51.23 94.299 114.969 120.324 187.396l17.133-5.536c-0.518-1.812-0.98-3.642-1.475-5.604-3.344-13.247-8.167-32.348-41.486-90.054-24.675-42.74-83.633-91.797-135.012-126.016 13.479 12.294 27.105 25.592 40.515 39.816zM485.548 895.728l-47.812-82.813-7.257-1.945-4.601 2.656 55.781 96.616 3.889-14.514zM475.113 920.156l-69.012 39.844 11.668-43.542-42.58-10 16.015-36.008-43.54-11.667 69.010-39.844 58.438 101.216zM465.479 680.346c10.164-5.869 13.646-18.865 7.777-29.029-5.867-10.164-18.863-13.646-29.026-7.777-10.164 5.867-13.646 18.863-7.779 29.026 5.869 10.164 18.865 13.646 29.029 7.779zM537.006 761.735c5.869 10.164 2.384 23.159-7.777 29.028-10.164 5.868-23.159 2.386-29.029-7.778s-2.384-23.159 7.779-29.028c10.164-5.868 23.159-2.386 29.026 7.778z" />
<glyph unicode="&#xe917;" glyph-name="Golf-Club" horiz-adv-x="1003" d="M113.243-55.699l-19.439-8.3-38.992 38.994 8.298 19.438 4.599 4.598 10.444-10.442 8.794 8.792-10.444 10.444 26.382 26.383 10.444-10.444 8.794 8.794-10.444 10.444 26.382 26.383 10.444-10.444 8.794 8.794-10.443 10.442 26.383 26.383 10.444-10.442 8.794 8.794-10.444 10.442 26.383 26.383 10.442-10.444 8.794 8.794-10.442 10.444 26.381 26.383 10.444-10.444 8.794 8.794-10.444 10.444 0.263 0.263 19.441 8.298 5.57-5.57 27.419 27.419 27.851-27.851-27.419-27.419 5.57-5.57-8.298-19.441-189.537-189.534zM342.16 195.5l514.78 514.777-27.851 27.851-514.78-514.777 27.851-27.851zM861.554 714.895l-27.851 27.851 25.392 25.392 27.851-27.851-25.392-25.392zM948.082 801.42c1.464 38.6-11.558 124.355-75.371 158.581-23.467-1.186-68.342-14.868-60.096-60.097l89.125-89.125-33.41-33.409 27.851-27.852 51.9 51.9zM106.791-22.462l-8.794-8.794 19.843-19.845 8.794 8.794-19.843 19.845zM95.742 6.174l19.844-19.845 8.794 8.794-19.844 19.845-8.794-8.794zM139.711 50.146l-8.794-8.794 19.845-19.845 8.794 8.794-19.844 19.845zM166.093 76.525l19.845-19.842 8.794 8.794-19.845 19.842-8.794-8.794zM210.063 120.497l-8.794-8.794 19.845-19.845 8.794 8.794-19.845 19.845zM236.445 146.878l19.845-19.845 8.794 8.794-19.845 19.845-8.794-8.794zM141.967 12.715l-8.794-8.794 19.843-19.845 8.794 8.794-19.843 19.845zM168.349 39.094l19.843-19.842 8.794 8.794-19.844 19.842-8.794-8.794zM212.319 83.066l-8.794-8.794 19.845-19.842 8.794 8.794-19.845 19.842zM238.702 109.447l19.842-19.845 8.794 8.794-19.842 19.845-8.794-8.794zM282.67 153.417l-8.794-8.794 19.845-19.842 8.794 8.794-19.845 19.842z" />
<glyph unicode="&#xe918;" glyph-name="SNS-Pistol-Mk-II" horiz-adv-x="1536" d="M573.028-64h-425.559c-7.789 19.471-9.875 49.041-8.738 81.535h89.786l195.729 391.455-117.384 117.385c8.445 23.842 13.492 41.016 13.492 47.964 0 24.701-37.166 61.611-68.355 87.314h1145.549v-20.82h-79.791l-26.595-26.597c-13.298-4.433-79.795-13.299-79.795-13.299s-57.626-141.855-66.49-212.778h-385.663c-74.474 0-155.149-301.438-186.183-452.157zM356.618 699.803h-131.476l-11.179 100.611c0 0-28.4 11.816-39.896 26.597-7.13 9.167-13.299 26.597-13.299 26.597l26.597 53.195c0 0 58.231-22.497 79.792 0 14.815 15.46 13.299 53.195 13.299 53.195h119.688l26.597-53.195h678.234l53.196 53.195h132.987v-66.494h106.387v-74.014h-35.623v-38.156h35.623v-81.535h-893.878l47.226 47.225-26.979 26.98-74.207-74.205h-39.132l60.524 60.524-26.98 26.98-87.504-87.504zM181.354 93.843h-35.491c4.47 31.746 10.188 61.099 14.903 81.53 31.178 70.151 80.631 184.162 116.226 272.951l54.4-54.402-150.039-300.077zM1078.382 454.646h-279.274c0 0-39.898 53.196-39.898 79.795l53.192 79.791h292.574c0 0 12.22-66.679 0-106.391-6.834-22.195-26.595-53.196-26.595-53.196zM1149.146 906.805l26.6 39.896h93.089v-39.896h-119.69zM417.715 108.883c22.034 0 39.896 17.856 39.896 39.893 0 22.033-17.862 39.898-39.896 39.898s-39.896-17.865-39.896-39.898c0-22.037 17.862-39.893 39.896-39.893zM564.002 441.352c0-22.037-17.86-39.898-39.894-39.898s-39.897 17.861-39.897 39.898c0 22.033 17.862 39.893 39.897 39.893s39.894-17.861 39.894-39.893zM1111.395 959.998v-57.232h38.156v57.232h133.542v-114.464h-972.946l-19.077 76.31 76.31 38.156h57.232v-57.232h38.156v57.232h190.773v-57.232h38.156v57.232h190.772v-57.232h38.156v57.232h190.777z" />
<glyph unicode="&#xe919;" glyph-name="SNS-Pistol" horiz-adv-x="1536" d="M962.199 906.803h-450.626l28.34-28.338h393.948l28.338 28.338zM431.018 906.803h-4.273l-26.597 53.195h-119.687c0 0 1.517-37.734-13.299-53.195-21.56-22.497-79.792 0-79.792 0l-26.597-53.195c0 0 6.169-17.431 13.299-26.597 11.497-14.781 39.895-26.597 39.895-26.597l11.179-100.61h131.475l87.504 87.504 26.98-26.98-60.524-60.524h39.132l74.207 74.205 26.978-26.98-47.226-47.225h893.876v81.534h-35.623v38.154h35.623v74.014h-106.387v66.494h-132.987l-53.196-53.195h-34.859l-104.648-104.647h-457.165l-90.967 90.967 13.68 13.68zM1397.547 661.649h-1145.546c31.19-25.702 68.354-62.612 68.354-87.313 0-6.948-5.047-24.122-13.492-47.964l117.383-117.384-195.728-391.453h-89.786c-1.137-32.494 0.95-62.064 8.737-81.534h425.557c31.034 150.719 111.71 452.156 186.182 452.156h385.662c8.864 70.923 66.49 212.777 66.49 212.777s66.498 8.865 79.794 13.299l26.595 26.597h79.791v20.819zM160.773 175.375c31.178 70.151 80.631 184.16 116.226 272.949l54.4-54.402-150.039-300.076h-35.491c4.47 31.746 10.188 61.097 14.903 81.529zM799.11 454.647h279.272c0 0 19.762 31 26.595 53.196 12.22 39.713 0 106.391 0 106.391h-292.573l-53.192-79.791c0-26.599 39.898-79.793 39.898-79.793zM1175.746 946.699l-26.6-39.895h119.69v39.895h-93.089zM417.719 108.886c22.034 0 39.895 17.856 39.895 39.893 0 22.033-17.862 39.898-39.895 39.898s-39.895-17.865-39.895-39.898c0-22.037 17.862-39.893 39.895-39.893zM564.004 441.353c0-22.037-17.86-39.898-39.894-39.898s-39.897 17.861-39.897 39.898c0 22.033 17.862 39.893 39.897 39.893s39.894-17.861 39.894-39.893z" />
<glyph unicode="&#xe91a;" glyph-name="Heavy-Pistol" horiz-adv-x="1536" d="M189.161 804.977c-6.897 3.982-9.262 12.803-5.28 19.701l11.514 19.942h-18.725l-28.845-43.268 14.423-43.268c0 0 60.173-23.659 72.113-57.69 7.459-21.258 0-57.69 0-57.69h-86.534l86.534-115.38-173.070-447.094c12.188-6.097 26.381-13.106 41.93-20.686l186.997 445.914 228.415-76.139-203.979-466.229c33.394-13.639 61.449-23.706 78.356-27.091 33.654 134.61 109.612 406.714 144.224 418.254s177.877 4.806 245.184 0l72.11 173.070h72.114v57.69h28.846v-57.69h57.689v57.69h28.846v-57.69h57.689v57.69h28.846v-57.69h57.689v57.69h28.846v-57.69h57.689v57.69h28.846v-57.69h43.268l14.421 28.845h115.382v129.803h-201.917v28.844h201.917v100.959h-43.268v57.69h-158.649v-28.845h-447.094v-86.534h-201.917v86.534h-14.421v72.113l-28.846 43.268h-86.534l-72.113-86.534h-72.113v-28.845h-121.038l-19.84-34.365c-3.983-6.899-12.803-9.262-19.701-5.28zM796.837 844.62h-144.224v-57.69h144.224v57.69zM440.457 394.569l-178.879-408.868c-34.873 15.361-71.892 32.481-106.298 48.805l167.45 399.306 117.728-39.244zM594.921 411.946h158.649c0 0 34.575 91.33 14.421 144.227-4.482 11.768-14.421 28.844-14.421 28.844h-173.070l-14.421-57.69c0 0-24.083-45.067-14.425-72.114 8.039-22.504 43.268-43.268 43.268-43.268z" />
<glyph unicode="&#xe91b;" glyph-name="Pistol" horiz-adv-x="1536" d="M91.232 14.568h334.578l136.871 319.369h334.578l60.838 182.501h425.827v60.832h91.249v52.768h-1383.94v8.066h-15.207v-45.623l30.417-30.417h91.249l15.207-76.040c0.897-4.485-141.569-316.171-212.914-471.453h91.249zM136.856 676.583v22.352l-60.832 60.832v30.416h152.081l60.832 60.832h395.413l30.416-30.416h43.129l-13.959-13.959 32.913-32.913 30.416 30.416 30.416-30.416 45.622 45.623-1.245 1.25h471.45v60.832h91.249v-60.832h91.249v-121.665h-60.83v-22.352h-1338.316zM593.101 394.776h258.536l45.622 152.078h-258.533l-45.626-152.078zM319.355 766.912h334.576v46.546h-334.576v-46.546zM1353.505 600.543h-395.407v-46.546h395.407v46.546zM1338.292 820.599l30.417 30.416h45.626v-30.416h-76.045z" />
<glyph unicode="&#xe91c;" glyph-name="Vintage-Pistol" horiz-adv-x="1536" d="M60.817 44.68h-60.833l106.456 433.195-91.249 104.563v59.752h60.833v29.876h-60.833v44.813l45.625 29.876 8.69 14.937h432.346v29.876h699.571l30.417 29.876h121.665l30.417-29.876h15.209l60.835-59.752h76.039v-89.626h-45.626v14.937h-401.71l-91.248-89.626h-24.119l-228.12-194.191h-212.916c-10.137-4.982-39.539-20.912-76.039-44.816-36.5-23.9-55.762-199.168-60.835-283.816h-334.577zM86.887 791.568l34.761 59.752h121.665l60.833-59.752h-217.258zM1444.758 567.502l12.167 59.752h-355.656l-60.83-59.752h404.32zM517.063 418.124h182.495c0 0 65.516 23.859 76.042 59.752 8.382 28.586-15.209 74.688-15.209 74.688l-60.835 29.876h-167.29c0 0-10.37-17.727-15.204-29.876-19.481-48.893 0-134.439 0-134.439zM593.102 731.817l76.039-74.689h152.081l76.042 74.689h-304.164zM1353.506 776.63v29.876h-121.665v-29.876h121.665zM212.898 462.936h-21.923l-126.734-373.444h231.414l126.731 373.444h-209.488zM148.642 149.244h103.167l86.181 253.943h-103.167l-86.179-253.943z" />
<glyph unicode="&#xe91d;" glyph-name="modifications" d="M1002.736 764.313l-111.944 140.442c-10.574 13.267-26.615 20.996-43.581 20.996h-578.578c-16.964 0-33.006-7.729-43.58-20.994l-111.942-140.443c-11.694-14.672-21.263-42.028-21.263-62.678v-102.873c8.892 13.988 21.887 24.488 37.471 29.86 0.872 11.756 4.436 23.157 10.531 33.537 10.56 17.988 27.499 30.778 47.69 36.030 7.238 1.891 13.866 2.747 20.492 2.747 26.696 0 50.887-13.58 65.052-34.913 4.218 0.734 8.475 1.115 12.748 1.115 13.109 0 25.494-3.602 36.286-9.813l62.005 16.127c7.771 2.028 15.755 3.047 23.757 3.047 42.885 0 80.372-29.007 91.177-70.55l121.52-467.049c6.34-24.365 2.803-49.74-9.936-71.458-12.747-21.718-33.198-37.159-57.566-43.5l-54.234-14.108h455.493c38.476 0 69.667 31.191 69.667 69.664l-0.003 624.022c0 18.763-9.567 46.118-21.261 60.791zM149.692 765.501l37.071 46.51h252.931l24.959 41.037h-245.179l27.369 34.337c5.317 6.671 13.26 10.498 21.79 10.498h578.578c8.534 0 16.475-3.827 21.791-10.498l27.37-34.337h-249.546l13.932-41.037h268.323l37.072-46.51h-816.461zM160.999 593.9l-15.636-4.067c-16.653-4.333-26.642-21.346-22.31-37.999l0.159-0.609c4.334-16.656 21.347-26.644 38.002-22.311l132.604 34.497c16.656 4.333 26.642 21.346 22.311 38.002l-0.161 0.609c-4.333 16.656-21.346 26.644-37.999 22.311l-15.636-4.067c-8.354-2.174-16.891 2.838-19.065 11.191l-0.134 0.509c-5.048 19.403-24.867 31.039-44.27 25.992l-0.812-0.211c-19.402-5.050-31.038-24.869-25.991-44.269l0.134-0.509c2.17-8.359-2.841-16.896-11.197-19.070zM203.741 637.539c8.411 2.188 17.005-2.858 19.192-11.267 2.189-8.411-2.856-17.004-11.269-19.193-8.411-2.186-17.003 2.858-19.192 11.267-2.187 8.411 2.858 17.007 11.269 19.193zM399.167 157.19c1.46-5.609-1.905-11.337-7.51-12.797l-192.918-50.185c-5.607-1.46-11.336 1.905-12.795 7.513l-2.642 10.149c-1.459 5.612 1.904 11.34 7.513 12.797l192.917 50.185c5.609 1.46 11.337-1.905 12.794-7.51l2.642-10.152zM422.695 358.441l2.642-10.152c1.46-5.609-1.905-11.337-7.513-12.794l-263.99-68.678c-5.609-1.46-11.336 1.905-12.795 7.51l-2.642 10.155c-1.459 5.609 1.904 11.334 7.513 12.791l263.991 68.678c5.609 1.46 11.337-1.902 12.794-7.51zM394.053 426.873l-263.991-68.675c-5.608-1.457-11.336 1.905-12.795 7.51l-2.642 10.155c-1.459 5.609 1.904 11.334 7.513 12.791l263.989 68.678c5.609 1.46 11.337-1.905 12.797-7.51l2.642-10.155c1.457-5.606-1.905-11.334-7.513-12.794zM388.19 241.058l-213.224-55.472c-5.609-1.457-11.336 1.908-12.795 7.513l-2.642 10.155c-1.459 5.609 1.904 11.334 7.513 12.794l213.223 55.466c5.609 1.46 11.337-1.905 12.794-7.51l2.642-10.152c1.463-5.609-1.902-11.337-7.51-12.794zM580.114 128.377l-121.505 467.061c-7.294 28.037-35.937 44.854-63.977 37.56l-61.914-16.109c1.463-3.022 2.68-6.214 3.558-9.585 7.396-28.438-9.351-56.964-37.18-64.205l-130.654-33.988c-26.671-6.94-55.388 6.794-64.341 32.859-1.686 4.909-2.598 9.842-2.859 14.702l-61.979-16.124c-28.038-7.294-44.853-35.937-37.56-63.974l121.504-467.061c7.295-28.040 35.937-44.857 63.975-37.56l355.375 92.45c28.037 7.294 44.851 35.934 37.557 63.974zM173.973 22.721l-105.656 406.139 355.373 92.45 105.656-406.139-355.373-92.45z" />
<glyph unicode="&#xe91e;" glyph-name="Pistol-50" horiz-adv-x="1536" d="M108.6-56.249h372.365l31.032 418.913h248.24l62.068 46.545 31.028 77.578v77.578h31.032v-15.516h558.548v15.516h62.060l31.032 31.031v248.245h-31.032v93.092h-155.151l-62.060-62.062h-434.431l-15.513 31.032h-29.15l14.574-14.574-32.913-32.913-31.032 31.032-31.032-31.032-31.028 31.032-31.032-31.032-31.032 31.032-31.028-31.032-31.032 31.032-31.032-31.032-31.028 31.032-31.032-31.032-31.032 31.032-31.032-31.032-31.031 31.032-31.031-31.032-46.545 46.545 0.941 0.941h-46.545l-46.545 46.545h-93.092v-62.060l-124.122-77.576c0 0 46.733-31.404 62.060-62.060 21.678-43.355 0-124.122 0-124.122s10.763-8.387 15.516-15.515c13.443-20.166 0-62.062 0-62.062s45.257 2.97 62.060-15.515c3.828-4.211 6.218-9.575 7.575-15.513h271.976l-151.704-512.004h-226.118c2.33-36.81 5.18-62.063 5.18-62.063h62.060zM46.539 207.515c13.194 72.952 55.224 168.714 78.029 217.214h169.938l-96.539-325.822h-159.565c0.164 37.572 2.277 76.207 8.138 108.608zM511.997 595.393h248.24c18.585-96.545 6.857-129.249-15.513-186.185-113.802-10.202-169.094-10.868-248.24 0 2.207 74.773 4.34 116.217 15.513 186.185zM1442.913 610.909h-558.548v93.092h558.548v-93.092zM1473.945 859.152h-155.154l46.545 62.062h108.608v-62.062zM170.662 238.546c17.138 0 31.031 13.887 31.031 31.028 0 17.135-13.892 31.032-31.031 31.032s-31.031-13.896-31.031-31.032c0-17.139 13.893-31.028 31.031-31.028z" />
<glyph unicode="&#xe91f;" glyph-name="Pistol-Mk-II" horiz-adv-x="1536" d="M158.096 909.072c-4.158-7.2-1.693-16.415 5.513-20.575s16.415-1.693 20.575 5.513l20.713 35.877h1090.147v30.113h165.653v-60.237h45.173v-105.413h-806.944l64.65 64.647-21.301 21.294-85.939-85.941h-77.876l64.65 64.647-21.295 21.294-85.939-85.941h-77.876l64.645 64.647-21.295 21.294-85.939-85.941h-77.877l64.65 64.647-21.298 21.294-85.939-85.941h-23.881v-30.113h1234.83v-135.527h-120.471l-15.062-30.113h-45.173v60.237h-30.12v-60.237h-60.235v60.237h-30.113v-60.237h-60.235v60.237h-30.113v-60.237h-60.241v60.237h-30.113v-60.237h-60.235v60.237h-30.113v-60.237h-75.296l-75.296-180.706c-70.276 5.024-219.864 12.050-256.004 0-36.137-12.044-115.45-296.162-150.586-436.705-60.237 12.050-256.002 105.413-346.355 150.591l180.705 466.827-90.351 120.475h90.351c0 0 7.787 38.041 0 60.237-12.465 35.533-75.296 60.237-75.296 60.237l-15.062 45.176 30.113 45.176h19.551l-12.020-20.825zM752.922 478.124h-165.65c0 0-36.788 21.673-45.178 45.173-10.086 28.242 15.059 75.296 15.059 75.296l15.062 60.237h180.705c0 0 10.381-17.826 15.059-30.113 21.042-55.23-15.059-150.586-15.059-150.586zM346.331 312.479c0-33.265-26.969-60.235-60.237-60.235s-60.237 26.969-60.237 60.235c0 33.27 26.974 60.241 60.237 60.241s60.237-26.969 60.237-60.241zM361.391 312.479c0-41.579-33.708-75.295-75.296-75.295s-75.296 33.707-75.296 75.295c0 41.583 33.708 75.296 75.296 75.296s75.296-33.707 75.296-75.296zM30.095-3.759l92.026 180.705 239.265-75.296-92.026-165.65-239.265 60.235z" />
<glyph unicode="&#xe920;" glyph-name="Combat-Pistol" horiz-adv-x="1536" d="M514-63.998h-416.964c0 0-21.65 151.464 0 244.429 26.224 112.609 143.781 258.805 143.781 258.805s-5.675 66.911-28.756 100.649c-13.453 19.66-43.134 43.133-43.134 43.133v97.558h1279.647v-68.801h-86.268v-57.513h-373.83v-172.536h-402.586l-14.381-172.539-57.51-86.268v-186.919zM1448.573 721.82h-1279.647v19.354c0 0 47.105 29.72 43.134 57.513s-57.512 43.133-57.512 43.133v57.512c0 0 96.887-61.618 143.781-28.756 30.845 21.616 43.134 86.268 43.134 86.268s36.205 7.102 57.512 0c30.133-10.044 57.513-57.513 57.513-57.513h116.149l83.698-83.695h264.566l83.698 83.695h242.684v43.134h86.264l57.518-71.892h57.51v-148.757zM673.417 856.885l-42.446 42.449h315.293l-42.446-42.449h-230.4zM930.963 439.235h-287.562l-14.376 100.649 14.376 71.892h287.562v-172.539zM403.731 836.846h-86.269v-41.247h86.269v41.247zM1266.415 931.246v-28.756h86.268l-36.973 28.756h-49.294zM303.085 126.074c23.823 0 43.134 19.314 43.134 43.137 0 23.82-19.311 43.133-43.134 43.133s-43.133-19.314-43.133-43.133c0-23.826 19.311-43.137 43.133-43.137z" />
<glyph unicode="&#xe921;" glyph-name="Stun-Gun" horiz-adv-x="1536" d="M166.372 652.803h311.486c12.090 0 19.49-8.081 23.213-14.757 3.615-6.486 5.571-14.43 6.77-22.073 2.441-15.618 2.58-36.213 1.572-57.833-1.677-35.858-6.666-77.348-11.58-110.139h56.827l41.352-55.138 120.783-30.197c39.822 0 129.706 3.417 170.669 17.069 40.961 13.655 73.958 39.822 85.336 51.2h108.792c9.063 11.354 20.262 25.725 32.145 41.141 23.834 30.926 50.24 65.852 67.276 88.568l27.311-20.48c-17.1-22.794-43.598-57.842-67.55-88.924-5.412-7.025-10.701-13.859-15.729-20.306h58.949c9.063 11.354 20.265 25.725 32.145 41.141 23.834 30.926 50.245 65.852 67.28 88.568l27.306-20.48c-17.1-22.794-43.598-57.842-67.55-88.924-5.412-7.025-10.701-13.859-15.729-20.306h58.949c9.068 11.354 20.265 25.725 32.148 41.141 23.831 30.926 50.24 65.852 67.276 88.568l27.306-20.48c-17.096-22.794-43.593-57.842-67.55-88.924-5.408-7.025-10.701-13.859-15.726-20.306h120.826l85.331 34.136v127.63h-34.133v128.37l34.133 17.067v42.666h-1075.215v-76.801h-350.534l-7.868-17.067c13.367 0 39.819-13.086 63.985-34.133zM187.722 738.138h-61.732l19.668 42.666h42.063v-42.666zM1524.628 797.871h-440.892v76.801h162.134l68.267 51.2h119.467v-68.267l34.133-17.067 56.891-42.666zM1066.665 874.672v-76.801h-477.872v72.526l145.317 4.275h332.555zM571.726 869.896v-72.025h-418.197l27.911 60.547 390.286 11.48zM385.692 898.573l-27.3 27.299h-145.857l-15.137-32.838 188.294 5.538zM197.137 618.669h275.22c0.566-1.799 1.199-4.394 1.761-7.971 1.892-12.114 2.178-29.921 1.194-50.968-1.943-41.733-8.658-92.209-14.289-125.991l-3.314-19.872h79.88l31.010-41.352-193.145-402.387c-79.645 17.069-252.589 54.613-307.203 68.267-54.614 13.652-68.267 51.2-68.267 68.267 51.2 108.091 163.842 341.336 204.803 409.603 21.797 36.327 12.663 72.656-7.65 102.4zM648.528 430.933c-68.267 0-85.331 68.267-85.331 102.403v51.2h409.603l-34.136-102.403c-13.652-40.958-51.2-51.2-68.267-51.2h-221.867zM238.922 72.529c28.277 0 51.2 22.926 51.2 51.2 0 28.278-22.923 51.205-51.2 51.205s-51.2-22.926-51.2-51.205c0-28.274 22.923-51.2 51.2-51.2z" />
<glyph unicode="&#xe922;" glyph-name="AP-Pistol" horiz-adv-x="1536" d="M362.136 79.604h-362.152v74.929c0 0 170.151 196.796 224.785 349.665 5.189 14.525 12.489 37.463 12.489 37.463h-99.904c0 0-7.944 36.327-24.977 49.951-4.235 3.387-8.343 4.794-12.444 6.197-4.143 1.418-8.277 2.832-12.534 6.288-15.098 12.269-7.382 31.319 0.287 50.242 3.674 9.068 7.337 18.11 8.468 26.358l66.175 41.36v67.517c0.464-0.074 0.926-0.15 1.389-0.224 23.363-3.768 45.953-7.415 73.54 2.069 20.625 7.091 49.951 24.977 49.951 24.977h1136.404l24.977-49.951 12.489-12.489h-1161.38v-62.44c0-20.691 16.776-37.463 37.463-37.463h137.367c20.69 0 37.463 16.775 37.463 37.463v37.463h24.977v-12.489c0-20.691 16.776-37.463 37.463-37.463h149.856c20.69 0 37.463 16.775 37.463 37.463v12.489h649.374v-99.904h24.977v99.904h99.904v-99.904h-49.951l-33.299-49.951h-578.611v-12.489h-12.489v-87.417c0-39.96-49.951-66.605-74.929-74.929h-312.199c-37.463-62.44-99.904-212.296-99.904-212.296s-4.167-83.251-12.489-112.39zM137.352 792.911v-57.011l-50.449-31.53c-12.501 8.972-36.963 12.123-36.963 12.123s-16.403 44.398 0 62.44c9.327 10.26 20.136 10.613 32.435 11.012 5.537 0.18 11.376 0.369 17.52 1.478 13.53 2.441 25.817 2.483 37.463 1.494zM886.63 554.147h549.471l-24.977-37.463h-524.495v37.463zM324.671 691.514c0-6.896 5.594-12.489 12.489-12.489h137.367c6.896 0 12.489 5.592 12.489 12.489v37.463h-162.345v-37.463zM561.944 716.489c0-6.896 5.594-12.489 12.489-12.489h149.856c6.896 0 12.489 5.592 12.489 12.489v12.489h-174.83v-12.489zM624.382 566.636c-27.59 0-49.951-22.362-49.951-49.951v-49.951c0-27.59 22.362-49.951 49.951-49.951h149.856c27.59 0 49.951 22.362 49.951 49.951v49.951c0 27.588-22.362 49.951-49.951 49.951h-149.856zM949.070 716.489h-74.929v-74.929h74.929v74.929zM974.044 716.489v-74.929h74.929v74.929h-74.929zM1148.877 716.489h-74.929v-74.929h74.929v74.929zM1173.852 716.489v-74.929h74.929v74.929h-74.929zM1348.685 716.489h-74.929v-74.929h74.929v74.929zM324.671 416.78c13.793 0 24.977 11.183 24.977 24.977s-11.183 24.977-24.977 24.977c-13.793 0-24.977-11.183-24.977-24.977s11.181-24.977 24.977-24.977zM249.742 241.948c0 13.793-11.181 24.977-24.977 24.977s-24.977-11.183-24.977-24.977c0-13.793 11.181-24.977 24.977-24.977s24.977 11.183 24.977 24.977z" />
<glyph unicode="&#xe923;" glyph-name="Double-Action-Revolver" horiz-adv-x="1536" d="M348.265 63.997c-11.907 113.119-7.145 339.356 107.167 339.356-2.979-23.814 7.142-71.445 71.44-71.445 47.629 0 146.46 8.931 160.748 44.65-5.955 29.767-7.145 89.304 35.722 89.304h98.232v98.234c0 11.909 5.36 35.722 26.791 35.722v35.722h285.775l26.791 44.651h375.076v107.165h-8.928v44.651c0 0-33.31-9.171-53.584-17.861-14.336-6.144-35.719-17.861-35.719-17.861h-62.517l-53.581-17.861h-473.312l-17.859 8.93h-44.653l-35.719 17.861h-160.748l-44.65 8.93c0 0-35.642-10.766-53.584 0-8.457 5.075-17.859 17.861-17.859 17.861l-26.791-17.861c0 0 30.583-30.836 17.859-44.651-12.045-13.082-44.65 8.93-44.65 8.93s-4.598-46.184-26.794-53.583c-9.923-3.308-26.788 0-26.788 0l-35.722 17.861h-53.583l17.861-26.791h17.861c17.861 0 53.584-17.861 53.584-17.861v-44.651c-11.907-2.976-39.293-14.288-53.584-35.722-14.286-21.432-62.512 0-62.512 0 8.928-23.813 16.073-78.587-26.792-107.164-53.581-35.722-223.26-428.66-223.26-446.52h348.284zM473.293 394.424c-14.288 28.576 17.859 59.533 35.722 71.44 54.072 27.037 108.146 8.031 138.985-2.81 9.908-3.479 17.417-6.122 21.764-6.122 17.859 0 0-71.44-8.931-80.373s-98.235-35.719-133.957-35.719c-29.165 0-34.516 11.904-45.22 35.719-2.406 5.354-5.085 11.306-8.361 17.862zM747.771 751.639h22.589v-62.512h-22.589v62.512zM747.771 617.684h22.589v-71.442h-22.589v71.442zM496.932 730.363h192.004v-158.121h-192.004v22.589h169.415v45.176h-105.634v22.589h105.634v45.178h-169.415v22.589zM461.677 683.249c6.356 8.472 14.976 13.232 23.961 13.232v-90.354c-8.985 0-17.606 4.76-23.961 13.232-6.351 8.472-9.923 19.964-9.923 31.945s3.572 23.472 9.923 31.945zM1072.941 730.363h-214.593v22.589h214.593v-22.589zM1411.771 730.363h-237.179v22.589h237.179v-22.589zM293.633 402.827c-24.951 0-45.176 20.228-45.176 45.178s20.225 45.178 45.176 45.178c24.951 0 45.176-20.228 45.176-45.178s-20.225-45.178-45.176-45.178z" />
<glyph unicode="&#xe924;" glyph-name="Heavy-Revolver-Mk-II" horiz-adv-x="1536" d="M260.237 750.156l0.317-0.818c6.296-16.334 10.656-30.987 11.718-41.684 0.536-5.402 0.089-8.529-0.431-10.004l-0.075-0.201c-13.592-4.562-36.14-13.548-60.967-23.873l1.043 1.245c6.132 7.307 11.163 13.302 10.38 23.481-0.929 12.084-9.741 17.151-19.733 22.896v0c-2.601 1.496-5.283 3.038-7.926 4.761-23.066 15.044-69.147 13.829-69.147 13.829v27.659c0 0 60.512 10.584 96.806 0 12.188-3.554 26.85-11.016 38.015-17.294zM139.743 613.059c45.887 20.103 114.009 49.232 141.199 58.295 8.834 2.945 14.316 9.536 16.982 17.1 2.453 6.953 2.589 14.715 1.869 21.933-1.443 14.541-6.936 32.042-13.434 48.898-2.732 7.095-5.732 14.282-8.82 21.336v42.146h41.488l13.829-27.659h69.148l27.657-13.829h912.733c0 0 27.080 4.661 41.488 13.829 12.888 8.201 27.66 27.659 27.66 27.659h69.145l27.66-27.659 27.657-13.829v-110.634c0 0-46.099-59.926-69.145-69.147h-139.264v41.488h-27.66v-41.488h-41.488v41.488h-27.657v-41.488h-27.66v41.488h-27.657v-41.488h-41.488v41.488h-27.66v-41.488h-400.079v-13.829l-13.827-13.829v-55.316l-13.83-13.829h-55.316c-9.219-27.659-33.191-88.507-55.316-110.634-27.657-27.66-96.806-27.66-152.122-27.66-44.254 0-64.534 46.099-69.145 69.148l-27.66-13.83c0 0-1.667-25.37 0-41.488 2.289-22.149 13.829-55.316 13.829-55.316l-27.659-41.488 13.829-55.316v-27.657c0 0-30.851-11.349-41.488-27.66-14.751-22.617 0-69.145 0-69.145-9.219-4.611-44.254-16.595-110.634-27.66-66.381-11.061-138.293 13.83-165.951 27.66-13.829 124.463 124.463 414.878 138.293 442.537 9.611 19.221 2.523 57.229 0.497 66.879zM637.101 753.62h-235.099v-41.636c-10.941-1.017-21.287-7.266-29.093-17.675-8.561-11.412-13.365-26.888-13.365-43.027s4.805-31.616 13.365-43.027c7.806-10.409 18.15-16.658 29.093-17.675v-44.402h248.924v207.44h-13.827zM407.535 573.839v152.122h215.736v-62.231h-138.293v-27.659h138.293v-62.231h-215.736zM526.467 407.888c22.127 22.127 36.877 46.099 41.488 55.313v41.489l-41.488 13.829-96.806 13.829c-9.219 0-30.425-5.531-41.488-27.659-13.83-27.659-13.83-55.316 0-69.147l27.657-27.657c27.66-9.219 88.509-22.13 110.636 0zM1480.688 781.279v27.659h-69.145v-27.659h69.145zM1327.595 753.62v13.829h-580.83v-55.316h580.83v13.829h0.968v27.659h-0.968zM387.204 546.182c0 15.275-12.381 27.659-27.657 27.659s-27.66-12.383-27.66-27.659c0-15.275 12.384-27.659 27.66-27.659s27.657 12.383 27.657 27.659zM1382.912 725.962v-27.659c0-7.638 6.195-13.829 13.83-13.829 7.638 0 13.83 6.192 13.83 13.829v27.659c0 7.638-6.192 13.829-13.83 13.829-7.635 0-13.83-6.192-13.83-13.829zM1452.058 739.791c-7.638 0-13.83-6.192-13.83-13.829v-27.659c0-7.638 6.192-13.829 13.83-13.829s13.83 6.192 13.83 13.829v27.659c0 7.638-6.192 13.829-13.83 13.829zM1493.546 725.962v-27.659c0-7.638 6.192-13.829 13.83-13.829 7.635 0 13.83 6.192 13.83 13.829v27.659c0 7.638-6.195 13.829-13.83 13.829-7.638 0-13.83-6.192-13.83-13.829z" />
<glyph unicode="&#xe925;" glyph-name="Heavy-Revolver" horiz-adv-x="1536" d="M222.222 767.45c-36.293 10.584-96.805 0-96.805 0v-27.659c0 0 46.081 1.214 69.146-13.829 2.643-1.724 5.324-3.266 7.926-4.761v0c9.992-5.745 18.803-10.812 19.733-22.896 0.783-10.178-4.248-16.173-10.38-23.481l-1.044-1.245c24.827 10.325 47.375 19.311 60.967 23.873l0.075 0.201c0.519 1.473 0.968 4.602 0.431 10.004-1.062 10.697-5.423 25.35-11.718 41.684l-0.317 0.818c-11.165 6.278-25.826 13.739-38.015 17.294zM139.247 546.18c9.611 19.221 2.523 57.229 0.497 66.878 45.887 20.103 114.009 49.234 141.198 58.295 8.834 2.945 14.316 9.536 16.982 17.1 2.453 6.953 2.589 14.715 1.869 21.933-1.443 14.541-6.936 32.042-13.434 48.898-2.732 7.095-5.732 14.282-8.82 21.336v42.146h41.488l13.829-27.659h69.148l27.657-13.829h912.734c0 0 27.080 4.661 41.488 13.829 12.888 8.201 27.66 27.659 27.66 27.659h69.145l27.66-27.659 27.657-13.829v-110.634c0 0-46.099-59.927-69.145-69.146h-760.614v-13.829l-13.827-13.829v-55.316l-13.83-13.829h-55.316c-9.219-27.659-33.191-88.507-55.316-110.634-27.657-27.66-96.805-27.66-152.123-27.66-44.254 0-64.534 46.099-69.145 69.148l-27.66-13.83c0 0-1.667-25.37 0-41.488 2.289-22.149 13.829-55.316 13.829-55.316l-27.659-41.488 13.829-55.316v-27.657c0 0-30.851-11.349-41.488-27.66-14.751-22.617 0-69.145 0-69.145-9.219-4.611-44.254-16.595-110.634-27.66-66.38-11.061-138.293 13.83-165.95 27.66-13.829 124.463 124.463 414.879 138.293 442.536zM402.004 753.62v-41.636c-10.941-1.017-21.287-7.266-29.093-17.675-8.561-11.412-13.365-26.888-13.365-43.027s4.805-31.616 13.365-43.027c7.806-10.409 18.15-16.658 29.093-17.675v-44.402h248.924v207.439h-248.924zM623.272 573.839v62.231h-138.293v27.659h138.293v62.231h-215.737v-152.123h215.737zM415.832 407.887c27.66-9.219 88.509-22.13 110.636 0 22.127 22.127 36.877 46.099 41.488 55.313v41.489l-41.488 13.829-96.805 13.829c-9.219 0-30.425-5.531-41.488-27.659-13.83-27.659-13.83-55.316 0-69.146l27.657-27.657zM1411.545 781.279h69.145v27.659h-69.145v-27.659zM761.565 725.961h152.123v27.659h-152.123v-27.659zM969.005 725.961h152.123v27.659h-152.123v-27.659zM1176.445 725.961h152.12v27.659h-152.12v-27.659zM359.546 518.521c15.275 0 27.657 12.383 27.657 27.659s-12.381 27.659-27.657 27.659c-15.275 0-27.66-12.383-27.66-27.659s12.384-27.659 27.66-27.659zM1396.742 739.791c-7.635 0-13.83-6.192-13.83-13.829v-27.659c0-7.638 6.195-13.829 13.83-13.829 7.638 0 13.83 6.192 13.83 13.829v27.659c0 7.638-6.192 13.829-13.83 13.829zM1438.228 725.961v-27.659c0-7.638 6.192-13.829 13.83-13.829s13.83 6.192 13.83 13.829v27.659c0 7.638-6.192 13.829-13.83 13.829s-13.83-6.192-13.83-13.829zM1507.376 739.791c-7.638 0-13.83-6.192-13.83-13.829v-27.659c0-7.638 6.192-13.829 13.83-13.829 7.635 0 13.83 6.192 13.83 13.829v27.659c0 7.638-6.195 13.829-13.83 13.829z" />
<glyph unicode="&#xe926;" glyph-name="Machine-Pistol" horiz-adv-x="1536" d="M877.509 800.323l-37.46-37.403-19.574 19.538 17.892 17.864h-43.888l-37.457-37.403-19.574 19.538 17.892 17.864h-43.888l-37.46-37.403-19.571 19.538 17.892 17.864h-49.622l-27.675 27.633-41.516-41.45h-166.054l-27.678 13.817h-55.351l-69.19 55.267h-41.513l-41.515-69.083-27.677-13.817-41.513-96.717v-4.145h848.271v128.495h-53.771zM950.655 662.159v-9.672h-867.645v-87.045h69.19c18.45-18.423 52.585-58.030 41.515-69.083-1.623-1.62-5.147-4.95-10.128-9.654l-0.014-0.014c-37.519-35.436-157.538-148.802-169.751-197.581-11.070-44.213-13.838-128.957-13.838-165.799l207.571-82.9c-13.838 23.025-33.212 77.373 0 110.532 14.388 14.366 33.765 45.335 55.25 79.666 40.499 64.72 88.476 141.398 124.644 141.398h221.408v27.633h290.6v165.799h41.512v55.267h41.516v-27.633h512.008v69.083h41.512v96.717h-41.512v55.267h-41.516l-41.512 41.45-27.678-41.45h-401.3v-27.633h-31.826v-124.349zM899.453 372.011v-13.817h-27.678v-124.349h-179.891v124.349h-27.678v13.817h235.248zM982.481 703.609v27.633h83.028v-27.633h-83.028zM1245.404 703.609h-83.028v27.633h83.028v-27.633zM1356.109 703.609v27.633h83.028v-27.633h-83.028zM1356.109 648.342h-83.031v27.633h83.031v-27.633zM1079.346 648.342v27.633h83.031v-27.633h-83.031zM1162.377 758.874h-83.031v27.633h83.031v-27.633zM1273.078 758.874v27.633h83.031v-27.633h-83.031zM553.5 399.643h-124.539c-66.424 11.052-27.678 96.717 0 138.167 36.898 0 121.773-2.763 166.054-13.817s-9.222-87.508-41.516-124.349zM359.768 717.424c0-15.261-12.39-27.633-27.674-27.633s-27.677 12.372-27.677 27.633 12.39 27.633 27.677 27.633c15.285 0 27.674-12.372 27.674-27.633zM138.361 220.028c-15.285 0-27.677 12.372-27.677 27.633s12.392 27.633 27.677 27.633c15.285 0 27.677-12.372 27.677-27.633s-12.392-27.633-27.677-27.633z" />
<glyph unicode="&#xe927;" glyph-name="Flare-Gun" horiz-adv-x="1536" d="M311.445-3.34c-29.73-9.908-210.585 28.905-297.296 49.549-10.655 5.328-14.838 19.482-14.078 39.989l32.419-6.645 8.19 23.382-37.934 7.776c0.692 4.155 1.509 8.463 2.441 12.914l39.878-8.174 8.19 23.382-42.335 8.678c1.107 4.143 2.286 8.372 3.537 12.689l43.178-8.85 8.19 23.378-44.101 9.041c1.343 4.128 2.736 8.316 4.178 12.551l44.306-9.080 8.19 23.382-44.252 9.071c37.703 103.445 98.649 229.31 141.034 309.62-59.459 19.82-49.549 99.098-49.549 99.098l198.198 49.549c89.187 19.82 111.485 123.873 111.485 173.422 59.461 0 82.584 33.034 86.712 49.549h1003.373c0 0 10.607-88.975 10.607-148.648s-10.607-148.648-10.607-148.648h-495.494v-123.872h-99.098c0 0-82.945-172.215-185.811-198.198-92.148-23.276-235.357 61.936-235.357 61.936l-148.648-272.52c0 0-19.82-64.414-49.549-74.326zM745.003 355.891c-56.252-17.306-148.648 24.777-148.648 24.777s-37.163 99.098 74.322 123.872c111.485 24.776 173.94-6.272 161.034-74.322-8.312-43.819-46.937-62.086-86.709-74.326zM967.972 516.924c13.68 0 24.773 11.094 24.773 24.777s-11.091 24.774-24.773 24.774c-13.685 0-24.777-11.091-24.777-24.774s11.091-24.777 24.777-24.777zM571.579 541.701c0-13.683-11.091-24.777-24.777-24.777-13.68 0-24.773 11.094-24.773 24.777s11.091 24.774 24.773 24.774c13.685 0 24.777-11.091 24.777-24.774zM497.253 393.054c13.685 0 24.777 11.091 24.777 24.777 0 13.68-11.091 24.773-24.777 24.773-13.68 0-24.773-11.091-24.773-24.773 0-13.685 11.091-24.777 24.773-24.777zM447.701 665.575c0-13.683-11.091-24.774-24.773-24.774s-24.773 11.091-24.773 24.774c0 13.683 11.091 24.774 24.773 24.774s24.773-11.093 24.773-24.774zM966.193 863.771h-346.846v-24.774h334.459v-99.098h-212.043v-24.774h212.043v-99.098h-334.459v-24.774h359.232v45.434c7.029 4.908 13.494 11.909 19.023 20.753 11.612 18.584 18.138 43.792 18.138 70.074s-6.528 51.49-18.138 70.074c-5.531 8.844-11.997 15.843-19.023 20.751v45.434h-12.387zM644.123 826.61c-19.716 0-38.618-10.44-52.555-29.025s-21.771-43.792-21.771-70.074c0-26.282 7.833-51.49 21.771-70.074s32.84-29.025 52.555-29.025v198.197zM385.774 702.741c19.823 69.37-49.549 94.969-86.709 99.098l37.162 86.71c-19.82-49.55 90.84-86.71 148.646-99.098-41.293-57.808-118.917-156.080-99.098-86.71zM323.828 789.451c27.365 0 49.549 22.184 49.549 49.549s-22.184 49.55-49.549 49.55c-27.365 0-49.549-22.184-49.549-49.55s22.184-49.549 49.549-49.549z" />
<glyph unicode="&#xe928;" glyph-name="SMG-Mk-II" horiz-adv-x="1536" d="M223.408 126.835l13.964 27.924-13.964 55.858c18.618 41.891 61.441 125.673 83.782 125.673s18.62 37.236 13.964 55.858l27.927 13.962c32.583-23.271 111.709-64.232 167.564-41.891 55.858 22.341 107.056 55.853 125.676 69.82h41.891v-41.891l27.929 13.962 101.646-304.946 162.764 58.127c-35.727 79.273-91.446 211.26-110.808 288.71l41.891 13.962-30.044 80.115-59.525 59.525h-658.694l-21.128-21.126c19.94-14.861 35.937-36.132 29.307-62.656-6.459-25.832-36.815-60.631-68.962-97.479-37.358-42.821-77.134-88.417-84.64-125.942-11.171-55.853-13.964-79.128-13.964-83.782l223.42-83.782zM885.49 573.675h88.095l69.82 41.891h338.998v41.891h97.749v97.746h-97.749v83.782l-55.853 69.82h-27.929v-41.891h-61.19l-24.065-48.136-24.98 12.489 17.822 35.646h-38.595l-24.065-48.136-24.98 12.489 17.826 35.646h-38.595l-24.069-48.136-24.98 12.489 17.826 35.646h-38.595l-24.069-48.136-24.98 12.489 17.826 35.646h-38.595l-24.069-48.136-24.975 12.489 17.822 35.646h-38.595l-24.065-48.136-24.98 12.489 17.822 35.646h-38.595l-24.065-48.136-24.98 12.489 17.822 35.646h-38.592l-24.069-48.136-24.98 12.489 17.826 35.646h-38.595l-24.069-48.136-24.98 12.489 17.826 35.646h-38.595l-24.069-48.136-24.975 12.489 17.822 35.646h-38.595l-24.069-48.136-24.975 12.489 17.822 35.646h-47.225l-41.891-27.927h-119.891l-41.891-41.891h-159.386v-195.493c4.686-1.56 10.077-3.701 15.756-6.387l34.316 34.314h681.832l55.853-55.855zM822.622 74.66l1.229-3.683 41.894 13.967 41.891-97.749 97.744 41.891-41.891 83.782 27.929 13.967c-1.041 2.228-2.117 4.547-3.234 6.959l-165.563-59.132zM259.515 838.986l-13.964-13.964h-119.891l55.855 55.856h27.929l41.891-41.891h8.18zM69.807 727.277l-13.964-13.964v-111.709h13.964v125.673zM1051.142 587.638l-35.109-21.066 31.238-20.825h307.202l27.929 27.929v13.964h-331.261zM1508.076 671.42v69.82h27.929v-69.82h-27.929zM377.011 420.073v97.749h181.531v-83.782c-11.175-33.515-125.676-23.274-181.531-13.967zM911.721 695.26l55.858 55.855 19.749-19.748-55.853-55.856-19.754 19.748zM981.541 695.26l55.858 55.855 19.749-19.748-55.858-55.856-19.749 19.748zM1107.214 751.115l19.754-19.748-55.858-55.856-19.749 19.748 55.853 55.855zM1177.034 751.115l19.754-19.748-55.858-55.856-19.749 19.748 55.853 55.855zM1191.001 695.26l55.853 55.855 19.749-19.748-55.853-55.856-19.749 19.748zM1260.818 695.26l55.858 55.855 19.749-19.748-55.853-55.856-19.754 19.748z" />
<glyph unicode="&#xe929;" glyph-name="Micro-SMG" horiz-adv-x="1536" d="M782.064 693.923v-50.356h147.739v50.356h-147.739zM668.328 693.923l-5.864 5.855h-123.114v-29.276h-35.177v-23.421h-46.901v-11.711h-422.112l-35.176-46.843v-210.789l58.627-11.712c0 0-48.979 138.655 0 199.080 8.15 10.053 23.45 23.421 23.45 23.421h375.211v-11.711h70.354v-35.132h187.605v-46.841c0 0 42.992-15.617 46.901-35.134s9.381-60.895 0-70.263c-9.381-9.368-11.724-42.938-11.724-58.553v-85.486h175.881v144.040h152.431v70.263h211.055v23.421h23.453l23.45 23.421v23.421h17.589v105.396h-41.038v93.684h-46.901l-23.453-46.843h-164.152v58.553h-35.177l-46.901-46.843h-50.419v-66.749h-180.571v66.749h-97.32zM650.74 711.488h-111.39v40.987h70.351l41.038-40.987zM1365.987 529.975h11.724v105.396h-11.724v-105.396zM1389.44 529.975h11.724v105.396h-11.724v-105.396zM1412.889 529.975v105.396h17.589v-105.396h-17.589zM1453.927 553.396v58.552h82.078v-58.552h-82.078zM785.582 143.526h128.981v85.486h-128.981v-85.486zM1113.892 506.552c-6.476 0-11.724 5.244-11.724 11.711s5.25 11.711 11.724 11.711 11.724-5.243 11.724-11.711c0-6.467-5.25-11.711-11.724-11.711zM1313.223 518.264c0-6.467-5.252-11.711-11.724-11.711-6.476 0-11.727 5.244-11.727 11.711s5.252 11.711 11.727 11.711c6.473 0 11.724-5.243 11.724-11.711zM773.856 339.092h128.978v-16.395h-128.978v16.395zM902.835 275.854h-128.978v16.394h128.978v-16.394zM1166.658 600.237h11.724v-93.685h-11.724v93.685zM1190.108 600.237h11.724v-93.685h-11.724v93.685zM1213.556 600.237h11.727v-93.685h-11.727v93.685zM1237.009 600.237h11.724v-93.685h-11.724v93.685zM1260.459 600.237h11.727v-93.685h-11.727v93.685zM1154.931 576.816v-70.264h-11.724v70.264h11.724zM926.287 412.869v81.975h128.978c18.761 0 7.818-54.65 0-81.975h-128.978zM1254.598 670.501l23.45 35.132h23.453v-35.132h-46.901z" />
<glyph unicode="&#xe92a;" glyph-name="SMG" horiz-adv-x="1536" d="M712.988 686.989l19.424-19.509h312.453l19.424 19.509h-351.3zM632.785 686.989l-19.424 19.509h-97.12v-101.13c4.578 0.144 10.569 0.272 17.825 0.387 16.988 0.267 41.113 0.462 70.693 0.597 59.173 0.269 140.291 0.296 230.052 0.171 175.472-0.24 384.034-1.053 526.378-1.748v43.195h-19.424v58.529h-116.544l-9.714-19.509h-123.75l-38.848-39.019h-328.542l-38.848 39.019h-52.733zM487.105 686.989h-38.848c-16.188-6.504-48.562-27.314-48.562-58.529h-291.359v-48.773h291.359c3.24-13.007 15.539-42.92 38.848-58.529 14.795-9.905 38.187-15.095 58.273-17.565v193.152l-9.711-9.755zM525.952 501.65c-2.768 0-6.050 0.081-9.714 0.261v83.937c4.481 0.147 10.563 0.279 18.131 0.399 16.875 0.266 40.913 0.461 70.477 0.596 59.113 0.269 140.184 0.296 229.933 0.171 175.483-0.24 384.073-1.053 526.406-1.748v-93.37h-349.634v-87.793h-9.714l9.821-25.361h-136.076v7.133l106.831 71.536v44.24h-19.424v-33.798l-109.773-73.505h-6.773l-9.711-9.753h-9.714l-9.711-19.511h-135.969v29.264h-19.424l-48.562-117.056v-48.772h-19.424l-135.969 48.772c25.901 48.775 83.526 152.174 106.834 175.585s3.237 42.271-9.714 48.773h-29.135zM915.353 370.938h11.046c8.151-27.731 20.988-69.164 33.759-105.895 6.534-18.797 13.085-36.456 19.008-50.444 2.961-6.99 5.799-13.155 8.439-18.131l0.435-0.809-15.333-6.158c-15.182 15.248-43.963 124.857-57.353 181.438zM940.58 370.938h44.092c8.151-27.731 20.988-69.164 33.759-105.895 6.416-18.45 12.845-35.804 18.678-49.667l-36.348-14.601c-0.369 0.656-0.753 1.359-1.154 2.115-2.384 4.488-5.049 10.256-7.928 17.054-5.753 13.587-12.191 30.926-18.687 49.604-12.096 34.793-24.278 73.915-32.414 101.392zM998.852 370.938h15.831l55.142-142.418-20.088-8.073c-5.697 13.512-12.057 30.651-18.474 49.099-12.096 34.793-24.278 73.915-32.414 101.392zM1419.46 530.914v146.321h-38.848v-146.321h38.848zM1438.885 550.423h29.135v68.282h-29.135v-68.282zM1487.444 560.177h48.562v48.773h-48.562v-48.773zM508.528 585.45c-0.279-0.036-0.224-0.045 0.038 0.005l-0.038-0.005zM1244.643 540.668v19.509h-67.985v-19.509h67.985zM1341.765 540.668v19.509h-58.273v-19.509h58.273zM1030.979 521.159v19.509h-19.424v-19.509h19.424zM88.911 638.216l-9.713 9.755h-48.56c-12.95-48.773-36.906-154.126-29.136-185.339s16.187-58.529 19.425-68.284c0 58.427 13.898 172.114 67.984 184.279v59.59zM700.769 404.102h106.831c6.477 22.761 13.599 68.284-9.711 68.284h-106.834c-6.474-19.509-13.595-60.479 9.714-68.284zM563.285 296.8c10.728 0 19.424 8.736 19.424 19.511s-8.697 19.508-19.424 19.508c-10.728 0-19.424-8.733-19.424-19.508s8.697-19.511 19.424-19.511zM621.556 394.347c0 10.778-8.697 19.511-19.424 19.511s-19.424-8.733-19.424-19.511c0-10.775 8.697-19.508 19.424-19.508s19.424 8.733 19.424 19.508zM1223.703 677.234l19.424 19.509h77.697v-29.264h-97.12v9.755z" />
<glyph unicode="&#xe92b;" glyph-name="Mini-SMG" horiz-adv-x="1536" d="M902.074 865.263h-38.359l39.829-39.827-17.108-17.103-56.931 56.932h-38.359l39.829-39.827-17.108-17.103-56.931 56.932h-38.359l39.829-39.827-17.108-17.103-56.931 56.932h-38.359l39.829-39.827-17.108-17.103-56.931 56.932h-38.359l39.829-39.827-17.108-17.103-56.931 56.932h-38.359l39.829-39.827-17.108-17.103-56.931 56.932h-55.464l-12.093 12.095h-120.947l-12.095-12.095h-72.568c-29.027 0-44.347-24.189-48.379-36.284v-169.325h72.568v-48.379h89.283l24.189 48.379h829.913v-66.52l36.284 18.141h84.662v36.284h24.191v-229.801h181.419v229.801h48.377v84.662h-48.377v48.379h-24.191v-48.379h-108.853v48.379c0 38.702-40.316 64.504-60.471 72.568h-205.61l-24.191 24.189h-84.662l-12.093-12.095h-31.277l39.829-39.827-17.108-17.103-56.931 56.932zM-0.016 115.393l60.474-48.377v-24.191h36.284v12.093h36.284v-24.188l36.284-12.096 12.095 24.191h72.568v72.568l65.998 117.332c-1.56 3.621-3.116 7.359-4.659 11.22-18.179 45.443-43.664 52.87-49.244 52.87v24.191h157.231v24.188h169.323c38.705 0 56.443 32.252 60.475 48.382v108.853h24.173c-0.003 0-0.003 0-0.003 0l0.095 0.008c0.225 0.018 0.863 0.066 2.112 0.195 1.568 0.167 3.675 0.422 6.302 0.762 5.243 0.671 12.347 1.655 20.903 2.882 17.093 2.45 39.808 5.841 64.639 9.621 41.149 6.26 88.044 13.559 124.693 19.316l-1.020 3.5h84.662l60.475 48.379h96.755v48.379h-790.773l-24.189-48.379h-104.232l-48.379-12.095c8.063-28.222 24.189-94.337 24.189-133.042s-88.694-112.883-133.041-145.137l-60.474-181.419zM335.011 259.458l21.011 37.355h-44.864c8.513-9.221 16.773-21.461 23.853-37.355zM774.957 491.978c42.358 6.444 90.782 13.985 127.883 19.814l64.516-221.191-196.633-53.625-63.882 244.881 3.269 0.465c17.199 2.468 39.992 5.874 64.848 9.656zM783.029 215.257l191.098 52.118 5.526-18.941-181.419-48.382-15.203 15.203zM1354.588 647.559h84.665v-181.419h-84.665v181.419zM1269.926 816.884h-157.23v24.189h157.23c10.976 0 27.671-1.689 42.086-7.158 13.794-5.234 30.482-16.11 30.482-36.796v-185.846h-24.191v185.846c0 4.803-3.473 9.854-14.87 14.178-10.784 4.091-24.324 5.585-33.509 5.585zM423.299 490.326h193.514c8.063-24.188 19.35-74.985 0-84.662s-40.316-12.093-48.377-12.093h-145.137v96.755z" />
<glyph unicode="&#xe92c;" glyph-name="Marksman-Pistol" horiz-adv-x="1536" d="M74.652 130.202c34.135 0 106.668 14.126 138.67 21.186-1.581 3.924-3.41 8.832-5.202 14.18-33.221 3.342-72.619 7.55-108.35 11.852-24.981 3.009-48.263 6.072-66.418 8.925-9.068 1.428-16.97 2.816-23.216 4.142-1.983 0.422-3.939 0.864-5.796 1.332l-4.355-8.649c10.667-17.654 40.534-52.966 74.668-52.966zM201.926 187.491c-2.688 12.275-3.438 23.321 0.729 27.458 8.534 8.475 17.777 31.779 21.333 42.373s-10.667 42.373-10.667 42.373c0 0 31.029 6.74 42.668 21.186 5.82 7.221 7.721 12.41 10.665 21.186 6.587 19.625 0 52.966 0 52.966 17.778 0 57.601 4.238 74.67 21.186 2.574 2.559 4.698 5.145 6.434 7.725-9.743 41.761-25.911 94.885-47.222 138.323-12.519 25.514-26.441 46.909-41.288 60.784-2.217 2.072-4.427 3.951-6.629 5.64-8.121-1.656-16.436-2.553-24.323-2.975-8.856-0.474-17.579-0.369-25.515 0.069l-42.793-18.888c0 0 4.536-45.547 0-74.154-12.581-79.35-117.335-169.492-117.335-169.492l-21.333-137.713-7.17-14.243c0.147-0.032 0.296-0.063 0.446-0.096 5.712-1.211 13.194-2.535 22.094-3.933 17.778-2.793 40.763-5.823 65.65-8.819 32.621-3.927 68.347-7.778 99.59-10.962zM252.434 653.859c-5.735 7.146-17.489 20.784-28.446 27.194-21.833 12.771-64.002 10.593-64.002 10.593v31.779h64.002l42.667-21.186 3.954 1.682c4.166-6.189 8.451-14.919 9.773-23.426 1.428-9.18-0.575-16.848-8.975-22.409-4.082-2.702-9.084-4.869-14.726-6.561-1.4 0.825-2.814 1.604-4.245 2.333zM319.712 571.551c-12.447 25.367-26.99 48.479-43.642 64.818 2.501 1.229 4.899 2.589 7.167 4.091 17.201 11.388 20.532 28.439 18.225 43.27-1.667 10.727-6.264 20.886-10.994 28.646l50.854 21.644h1088.015l10.667 31.779 96.002-31.779v-21.186h-42.667v-10.593h42.667v-127.119l-128.002-8.381v93.127h-821.347c-1.826 0-4.694-0.245-7.55-1.967-2.931-1.766-4.428-4.226-5.192-5.742-0.596-1.182-1.101-2.562-1.415-3.408l-0.104-0.281c-0.384-1.031-0.789-2.099-1.356-3.368-2.183-4.877-7.532-14.426-23.93-30.71-21.003-20.858-21.279-48.662-12.638-72.751 6.29-17.534 17.592-34.24 30.848-47.255v-25.196c0-21.186-21.332-52.966-42.667-74.154-17.066-16.949-56.891-21.186-74.667-21.186l-21.335-52.966-32-21.186h-10.667c0 17.654 10.667 95.34 10.667 95.34s-15.731 35.707-31.112 53.896c-10.161 38.981-24.984 84.204-43.832 122.619zM1386.671 565.342l-809.201-52.987c-9.822 10.389-18.17 23.225-22.898 36.394-7.002 19.52-5.501 37.621 7.628 50.66 17.736 17.613 24.833 29.252 28.34 37.087 0.353 0.786 0.659 1.515 0.93 2.184h795.201v-73.338zM458.656 543.34c-25.599 0-46.223-28.248-53.332-42.373 0-16.949 21.332-56.5 32-74.154 10.667 3.533 36.266 10.593 53.335 10.593 17.066 0 28.443 28.247 32 42.373l-10.667 52.966c-7.11 3.531-27.734 10.593-53.335 10.593zM1312.005 617.494h-682.677l64.003-52.966-85.336-31.779 640.011 42.373-21.335 10.593 85.336 31.779zM618.659 702.239v10.593h-192.003v-10.593h192.003zM1173.336 702.239h192.003v10.593h-192.003v-10.593zM682.662 702.239h405.338v10.593h-405.338v-10.593z" />
<glyph unicode="&#xe92d;" glyph-name="Double-Barrel-Shotgun" horiz-adv-x="1536" d="M478.609 671.068c-1.007 12.524-0.438 26.387 0.819 39.016-7.179-4.304-15.077-8.838-23.232-13.239v-201.765c37.103-30.236-13.794-98.644-87.787-90.468-63.209 6.986-102.421 14.555-114.128 17.466 43.838 32.702 137.955 91.434 184.357 81.583v184.165c-20.030-9.722-39.716-17.154-52.672-17.154-28.094 0-58.528 17.465-70.232 26.196l8.78-52.393c-104.226-34.557-313.288-169.973-324.528-436.692l131.391-34.85c23.411 69.857 75.499 211.32 96.568 218.306 11.064 3.669 25.229-1.911 43.144-8.964 24.725-9.741 56.594-22.296 97.321-17.232 70.229 8.732 131.681 43.664 131.681 61.129 0 13.971-5.852 58.214-8.778 78.591 71.476 4.989 175.838 12.117 275.648 18.633 3.123 12.194 5.28 24.132 5.28 33.761v69.857h-263.369c-11.27 0-18.777 6.788-23.196 15.191-4.235 8.049-6.224 18.437-7.065 28.865zM789.795 627.011v-69.857c0-9.845-1.815-21.201-4.472-32.564 126.069 8.18 241.041 15.099 267.841 15.099 49.163 0 213.621 11.643 289.705 17.463 2.436 1.617 5.553 3.816 8.781 6.3v63.557h-561.855zM1369.205 627.011v-43.661h35.115v43.661h-35.115zM496.111 672.46c-1.28 15.888 0.276 34.74 2.492 49.624l1.487 0.983h35.115v-78.591h-26.336c-2.775 0-5.217 1.218-7.64 5.822-2.607 4.959-4.346 12.582-5.12 22.163zM552.764 644.476v78.591h983.243v-78.591h-983.243zM937.105 548.422l-112.194 52.393h509.181l-69.043-40.303-327.945-12.090zM508.87 530.957c9.698 0 17.559 7.818 17.559 17.465s-7.86 17.465-17.559 17.465c-9.698 0-17.559-7.82-17.559-17.465s7.86-17.465 17.559-17.465zM596.657 583.351c0-9.645-7.86-17.465-17.555-17.465-9.698 0-17.559 7.82-17.559 17.465s7.86 17.465 17.559 17.465c9.695 0 17.555-7.82 17.555-17.465zM719.564 530.957c9.698 0 17.559 7.818 17.559 17.465s-7.86 17.465-17.559 17.465c-9.698 0-17.559-7.82-17.559-17.465s7.86-17.465 17.559-17.465zM279.614 523.526l1.071 8.514 8.78 69.859 17.421-2.168-7.709-61.343 52.912-7.518-2.483-17.291-69.992 9.947zM245.57 566.97l-9.851-78.372 69.992-9.947 2.483 17.291-52.912 7.518 7.709 61.343-17.421 2.168z" />
<glyph unicode="&#xe92e;" glyph-name="Musket" horiz-adv-x="1536" d="M373.149 340.054c-80.633 31.015-227.303 4.302-311.286-18.248l-13.305 117.003c1.488 0.704 2.972 1.386 4.451 2.042 9.663 4.286 18.548 7.223 25.773 8.198 7.488 1.010 11.261-0.315 13.011-1.926 19.307-17.769 36.851-24.837 44.698-26.072l4.589-0.722 19.46 21.146c8.945-5.547 20.349-12.483 30.82-18.57 6.519-3.789 12.758-7.298 17.847-9.947 2.54-1.32 4.884-2.477 6.888-3.359 1.743-0.768 4.031-1.698 6.123-2.028l0.042-0.005 0.080-0.014 0.042-0.008 0.042-0.005 0.042-0.008 0.042-0.006 0.086-0.014 0.044-0.005 0.042-0.008 0.264-0.042 0.135-0.021 0.047-0.009 0.045-0.008 0.092-0.014 0.047-0.008 0.047-0.009 0.047-0.008 0.048-0.008 0.047-0.008 0.048-0.009 0.096-0.014 0.048-0.009 0.048-0.008 0.048-0.009 0.051-0.008 0.048-0.009 0.050-0.008 0.050-0.009 0.051-0.008 0.050-0.009 0.051-0.008 0.053-0.009 0.050-0.009 0.053-0.008 0.102-0.018 0.053-0.008 0.212-0.035 0.053-0.008 0.324-0.053 0.615-0.096 0.057-0.011 0.231-0.035 0.057-0.011 0.059-0.009 0.057-0.009 0.059-0.011 0.119-0.017 0.059-0.011 0.119-0.018 0.059-0.011 0.060-0.009 0.060-0.011 0.059-0.009 0.060-0.011 0.060-0.009 0.060-0.011 0.063-0.009 0.060-0.011 0.060-0.009 0.125-0.021 0.060-0.009 0.063-0.011 0.063-0.009 0.125-0.021 0.065-0.009 0.189-0.032 0.065-0.009 0.063-0.011 0.194-0.032 0.065-0.009 0.194-0.032 31.345-4.916 40.771 25.149h20.628c22.377 22.379 43.555 39.347 62.659 52.069h93.548c4.793 0 8.678 3.885 8.678 8.678s-3.885 8.678-8.678 8.678h-64c6.878 3.488 13.319 6.353 19.25 8.678h634.862v-26.034c-97.194 0-254.558-11.571-321.089-17.357h-156.206v-8.678h-69.425c0-34.712-34.712-43.39-52.069-43.39-7.914 0-14.024 7.218-19.976 14.249-7.1 8.387-13.973 16.506-23.414 11.786-13.884-6.942-40.498-66.532-52.069-95.46zM32.069 430.213l12.866-113.135c-3.581-1.041-6.996-2.064-10.23-3.059-20.828-5.987-31.82 14.861-34.712 26.034v70.378l0.401-0.549c8.249 6.006 19.563 13.487 31.676 20.331zM29.949 448.852c-10.818-5.778-21.231-12.216-29.957-18.083v22.098c0 27.266 16.731 34.453 25.553 34.706l4.404-38.722zM225.622 487.581h-182.609l3.483-30.632c10.158 4.47 20.564 8.031 29.966 9.3 9.303 1.256 19.625 0.51 27.084-6.356 13.467-12.393 25.161-18.218 31.484-20.507l22.5 24.449 6.113-3.84c9.273-5.825 23.606-14.625 36.44-22.086 6.428-3.735 12.398-7.088 17.136-9.554 2.376-1.236 4.35-2.201 5.867-2.868 1.049-0.462 1.628-0.666 1.85-0.744 0.074-0.026 0.108-0.038 0.107-0.041l-0.006-0.002 0.168-0.024 0.044-0.006 0.042-0.006 0.044-0.006 0.042-0.006 0.044-0.006 0.044-0.008 0.089-0.014 0.27-0.044 30.217-4.751 25.86 15.951-12.884 25.767h-34.712l-8.678 26.034zM1084.753 478.904h17.357v26.034h-17.357v-26.034zM1119.465 504.936v-26.034h81.488c0.341 4.487 0.131 8.997-0.924 12.951-1.086 4.067-2.943 7.128-5.631 9.224-2.669 2.081-6.983 3.86-14.189 3.86h-60.746zM467.457 522.293h-1.272c-1.334 2.738-3.333 5.759-6.252 8.678-6.942 6.942 8.678 37.606 17.357 52.069l17.357-17.357 34.712-17.357v17.357h17.357v-17.357h871.28v-43.39h-112.97l-13.017-26.034h-73.657c0.329 5.748-0.032 11.747-1.547 17.423-1.809 6.782-5.373 13.482-11.726 18.438-6.374 4.971-14.714 7.53-24.863 7.53h-712.756zM1417.992 487.581h-102.246l-4.34-8.678h106.586v8.678zM1428.405 478.904v8.678h12.149v-8.678h-12.149zM1428.405 504.936v43.39h12.149v-43.39h-12.149zM1457.91 504.936v43.39h78.103v-43.39h-78.103zM1457.91 487.581v-8.678h60.746v8.678h-60.746zM503.321 452.869h-60.746l8.678-26.034h34.712c13.884 0 17.357 17.357 17.357 26.034z" />
<glyph unicode="&#xe92f;" glyph-name="Sawed-Off-Shotgun" horiz-adv-x="1536" d="M798.366 518.345v96.727h199.596v-35.172h-173.56v-17.588h173.56v-43.967h-199.596zM1015.322 623.865h43.391v-140.693h-34.713c-3.453 0-6.315 0.644-8.678 1.773v138.921zM1006.644 632.658h-208.276v87.934h607.466c55.54 0 80.997-11.724 86.782-17.586v-70.346h-86.782v8.793h-399.188v-8.793zM1336.408 623.865v-140.693h26.033v140.693h-26.033zM1388.477 503.945v119.921h-8.678v-130.028c2.741 3.279 5.688 6.728 8.678 10.107zM1405.832 615.072h56.881v-87.934h-48.203c-1.833 0-4.919-2.046-8.678-5.324v93.256zM1319.053 623.865v-140.693h-26.036v140.693h26.036zM1275.662 623.865v-140.693h-26.036v140.693h26.036zM1232.271 623.865v-140.693h-26.036v140.693h26.036zM1188.881 623.865v-140.693h-26.033v140.693h26.033zM1145.49 623.865v-140.693h-26.033v140.693h26.033zM1102.099 623.865v-140.693h-26.033v140.693h26.033zM1509.969 527.138c8.678 5.862 26.036 22.863 26.036 43.967 0 17.015-10.83 34.029-23.177 43.967h-32.76v-87.934h29.901zM781.011 720.591h-407.87c-60.746-17.586-187.445-58.036-208.273-79.14h-60.746c-5.786-2.931-17.357-14.070-17.357-35.172v-105.52c0-2.933 10.415-8.793 52.069-8.793v-26.379l-8.549-14.076 53.821-54.533-65.942-133.638h-102.157l-16.022-26.378 164.884-61.555c11.571 5.861 32.976 19.346 26.034 26.381s-14.463 20.517-17.357 26.378c23.141 49.831 72.896 151.247 86.781 158.281l17.357 8.796h138.849c20.25 26.379 60.746 82.657 60.746 96.726h303.733v228.627zM26.688 280.925l94.248 155.187 42.053-42.61-55.55-112.578h-80.751zM303.719 500.759h112.815c11.57-20.519 27.771-63.313 0-70.346-27.768-7.035-86.782-8.793-112.815-8.793-2.894 20.519-6.942 65.071 0 79.141zM309.767 650.245h167.512v-17.588h-162.254l-52.070-35.172h-117.865l-15.378-46.747-16.466 5.561 19.334 58.772h125.12l52.067 35.172zM538.025 685.419h173.563c9.587 0 17.355-7.874 17.355-17.588v-52.76c0-9.713-7.769-17.588-17.355-17.588h-173.563c-9.584 0-17.355 7.874-17.355 17.588v52.76c0 9.713 7.772 17.588 17.355 17.588z" />
<glyph unicode="&#xe930;" glyph-name="Pump-Shotgun-Mk-II" horiz-adv-x="1536" d="M1459.204 584.534h17.067v17.067h8.532l17.067-17.067v-119.468h-85.336v17.067h-59.734v20.601l-56.2 56.2h-263.072l-17.067-17.067h-158.599v34.133h-17.067v-102.403h-153.602l-42.668-68.266h-102.402c-8.532-11.378-29.013-39.254-42.665-59.734-13.655-20.48-17.067-42.668-17.067-51.2l-76.801 42.668c19.911 28.445 61.441 87.040 68.269 93.867 8.532 8.534 8.532 34.133 8.532 42.667 0 6.827-17.067-8.534-25.601-17.067h-42.668v81.069l8.535 12.8h68.266c6.828 6.827 82.489 25.601 119.469 34.134l8.532 17.067h17.067v-17.067h17.067v17.067h34.133v-17.067h17.067v17.067h34.133v-17.067h17.067v17.067h34.133v-17.067h17.067v17.067h34.133v-17.067h17.067v17.067h34.133v-17.067h17.067v17.067h34.133v-17.067h17.067v17.067h34.133v-17.067h17.067v17.067h34.133v-17.067h17.067v17.067h34.133v-17.067h17.067v17.067h34.133v-17.067h17.067v17.067h34.133v-17.067h17.067v17.067h34.133v-17.067h17.067v17.067h34.133v-17.067h17.067v17.067h34.133v-17.067h17.067v17.067h34.133v-17.067h17.067v17.067h34.133v-17.067zM1003.397 524.8l-22.067-22.065v-12.068h-119.466v34.133h141.534zM401.057 524.8h-59.735v-51.202h59.735v51.202zM324.256 439.465l-136.536-34.134-110.934-102.402c-2.202-2.202-8.156-6.108-17.067-7.763v246.699h3.753l60.682-68.267h200.103v-34.133zM131.818 490.667l-45.512 51.2h237.95v-51.2h-192.438zM42.652 296.363v245.504h-17.067v-136.535h-8.534v-85.335c4.512-6.767 14.747-18.9 25.601-23.634zM-0.016 456.533v42.668c0 8.151 4.055 18.734 8.534 27.756v-73.59c-3.024 2.334-6.24 3.165-8.534 3.165zM1518.938 573.156l17.067-5.69v-85.335l-17.067-11.378v102.402zM1006.93 456.533h332.805v39.133l-46.201 46.202h-248.936l-46.201-46.202v-30.599c0-6.827 5.688-8.534 8.532-8.534zM580.26 473.6c-9.426 0-17.067-7.641-17.067-17.067v-17.067c0-9.426 7.641-17.067 17.067-17.067h51.2c9.426 0 17.066 7.641 17.066 17.067v17.067c0 9.426-7.64 17.067-17.066 17.067h-51.2zM1365.336 524.8h51.2v17.067h-51.2v-17.067zM1433.603 524.8v-34.133h17.067v34.133h-17.067zM1476.271 490.667h17.066v34.133h-17.066v-34.133zM605.861 550.401c-4.713 0-8.535-3.821-8.535-8.534s3.822-8.534 8.535-8.534h153.602c4.71 0 8.532 3.821 8.532 8.534s-3.822 8.534-8.532 8.534h-153.602z" />
<glyph unicode="&#xe931;" glyph-name="Pump-Shotgun" horiz-adv-x="1536" d="M1336.407 580.647h-17.355v-8.558h-17.358v8.558h-17.355v-8.558h-17.358v8.558h-17.355v-8.558h-17.358v8.558h-17.355v-8.558h-17.358v8.558h-17.355v-8.558h-17.358v8.558h-17.355v-8.558h-17.358v8.558h-17.355v-8.558h-17.358v8.558h-17.355v-8.558h-17.358v8.558h-17.355v-8.558h-17.358v8.558h-17.355v-8.558h-17.358v8.558h-17.355v-8.558h-17.358v8.558h-17.355v-8.558h-17.358v8.558h-17.355v-8.558h-17.358v8.558h-17.355v-94.137h123.567l26.997 59.905h341.662l20.247-59.905h51.601v94.137h-78.103v-8.558h-17.358v8.558zM516.498 486.51l-2.604 3.212c-8.709 10.736-23.127 34.644-31.022 65.251h-48.986l-26.033-25.674v-67.499c2.295-0.596 5.15-0.965 8.678-0.965h52.067l8.681 8.558h8.678l-86.782-136.928 95.46-42.788c2.895 5.705 8.678 20.538 8.678 34.23 0 13.694 28.929 57.053 43.393 77.021h104.137c14.46 17.115 43.39 54.77 43.39 68.462h156.204v17.115h-333.936zM524.99 503.625c-7.203 9.914-17.585 28.328-24.149 51.347h2.472c48.599 20.538 95.46 25.674 112.818 25.674l17.355 25.674h52.070v-25.674h164.882v-77.020h-325.446zM390.498 469.395h-26.034v-8.558h-34.712v59.905h60.748v-51.347zM312.395 443.72h-52.069l-199.596-145.484h-34.712c-2.894 39.935-8.678 124.944-8.678 145.484 0 6.582-1.188 15.686-2.994 25.674h298.049v-25.674zM10.879 486.51h60.953l-14.463 42.79h-57.385c2.906-10.028 7.269-26.387 10.895-42.79zM75.663 529.3l8.678-25.673h171.34l17.355 25.673h-197.374zM293.9 529.3l-28.928-42.79h47.425v42.79h-18.495zM1475.256 460.837h-26.034v119.811h8.681l26.033 25.674h34.712v-25.674h17.358v-42.79h-60.748v-77.020zM1492.614 520.742h26.033v-34.232h-26.033v34.232zM1347.507 529.3l17.514-51.811-11.258-16.653h-26.034v68.462h19.778zM1310.373 529.3v-68.462h-26.033v68.462h26.033zM1240.949 460.837h26.034v68.462h-26.034v-68.462zM1223.593 529.3v-68.462h-26.034v68.462h26.034zM1154.168 460.837h26.034v68.462h-26.034v-68.462zM1136.811 529.3v-68.462h-26.033v68.462h26.033zM1067.386 460.837h26.034v68.462h-26.034v-68.462zM1050.031 529.3v-68.462h-34.712l-7.089 20.969 21.407 47.495h20.396zM121.477 452.278c-27.77 0-40.498-22.82-43.391-34.232v-51.347c11.571 8.558 38.183 27.384 52.069 34.232s46.283 37.085 60.746 51.347h-69.424zM572.737 460.837h78.104c0-14.264-3.471-42.79-17.358-42.79h-60.748v42.79zM616.129 554.974c-4.794 0-8.681-3.831-8.681-8.558s3.887-8.558 8.681-8.558h138.849c4.791 0 8.678 3.831 8.678 8.558s-3.887 8.558-8.678 8.558h-138.849z" />
<glyph unicode="&#xe932;" glyph-name="Advanced-Rifle" horiz-adv-x="1536" d="M-0.016 652.156l38.887 38.887h9.722v-311.094h-19.443l-29.165 19.443v252.764zM155.53 379.949l58.33 48.608h136.103l29.165-29.165c0.554-11.078 1.43-24.329 2.657-38.887h36.23v-19.443h-34.449c0.626-6.345 1.313-12.848 2.063-19.443h32.385v-19.443h-30.015c0.842-6.465 1.74-12.963 2.703-19.443h27.312v-19.443h-24.222c1.121-6.578 2.307-13.079 3.563-19.443h20.658v-19.443h-16.493c1.571-6.752 3.23-13.26 4.985-19.443h11.508v-19.443h-5.265c4.49-12.228 9.474-22.275 14.985-29.165l165.269 38.887c-16.202 61.573-46.664 190.546-38.887 213.877l68.051 97.216h165.269c5.547-11.094 7.296-43.075-21.567-91.068l28.443-28.437-13.751-13.751-25.532 25.536c-2.051-2.931-4.209-5.912-6.48-8.939-2.25-3.002-4.451-5.94-6.602-8.816l23.198-23.196-13.751-13.751-21.186 21.191c-4.649-6.263-9.017-12.171-13.107-17.727l18.879-18.876-13.751-13.751-16.76 16.763c-19.377-26.564-30.621-42.664-34.694-48.773 19.443-16.202 64.163-48.608 87.495-48.608s29.165 12.963 29.165 19.443c19.443 45.367 62.219 136.103 77.773 136.103h194.434l10.29 10.29-93.177 135.534h-332.029l-68.051-48.608h-278.732l-48.608 38.887h-181.303v-145.824h87.495zM1083.921 413.945l-96.934 140.993h-348.487l-68.051-48.608h-265.682l-48.608 38.887h-188.122v145.824h427.753l43.993-18.854 39.475-39.476h56.663l29.165 29.165h5.694l29.165 77.773h48.608l-9.722-58.33 29.165 29.165h291.65v-38.887h-38.887l-9.722-19.443h12.672l21.543-58.33h354.651v-9.722h136.103v-68.051h-136.103c-9.722-32.408-33.054-97.216-48.608-97.216s-25.922 19.443-29.165 29.165l-17.891-0.812-31.743 63.488-17.391-8.694 27.881-55.762-26.273-1.194-32.825 65.65-17.391-8.694 28.961-57.922-26.273-1.194-33.903 67.81-17.391-8.694 30.042-60.082-26.273-1.196-34.986 69.973-17.391-8.694 31.121-62.24-32.147-1.464-24.333-24.333zM587.311 652.156l-9.722 9.722h59.998l-9.722-9.722h-40.555zM1058.798 613.269h341.106v38.887h-355.467l14.361-38.887zM806.882 681.321l-38.887-38.887h165.269l38.887 38.887h-165.269zM1011.038 418.837h-116.66c-23.331 7.778-3.243 48.608 9.722 68.051 12.963 0 46.664-1.944 77.773-9.722s32.408-42.128 29.165-58.33zM136.087 622.991c-10.739 0-19.443-8.705-19.443-19.443s8.705-19.443 19.443-19.443h174.991v-19.443h155.548v58.33h-330.537zM418.011 584.101c5.369 0 9.722 4.353 9.722 9.722s-4.353 9.722-9.722 9.722c-5.369 0-9.722-4.353-9.722-9.722s4.353-9.722 9.722-9.722z" />
<glyph unicode="&#xe933;" glyph-name="Assault-Rifle-Mk-II" horiz-adv-x="1536" d="M518.392 654.403l-19.2 19.2h-9.6l-19.2-19.2h-28.8l-19.2-19.2h262.474l8.229 19.2h-174.702zM700.018 621.821l-2.493-5.819h-294.336l-9.6-9.6h-153.602v-76.801h134.402v-9.6h48.001l9.6-9.6h9.6v-9.6h38.401l-28.8-28.8h-19.2l-38.401-76.801c6.399-9.6 28.8-30.72 67.201-38.401h19.2c6.399 35.2 23.040 107.522 38.401 115.202s25.599 9.6 28.8 9.6c-3.201-6.399 0-19.2 38.401-19.2h67.201c-3.201 9.6-5.76 28.8 9.6 28.8h144.002v38.401h48.001v76.801h19.2v-86.401h67.201v9.6h259.204v9.6h297.604v19.2h38.401v38.401h-28.8v76.801h-38.401v-48.001l-28.8-28.8h-134.402v48.001h-105.602l-28.8 28.8h-19.2v-28.8h-19.2v28.8h-19.2v-28.8h-19.2v28.8h-19.2v-28.8h-19.2v28.8h-19.2v-28.8h-19.2v28.8h-19.2v-28.8h-19.2v28.8h-28.8l-9.6-9.6-9.6 9.6h-201.603l-12.923-12.923-16.655-38.86zM682.481 472c1.163-13.746 3.569-30.312 7.722-48.001h73.192l73.345-104.778-32.787-65.579 31.245-31.245 67.201 96.001c-32.868 32.87-96.433 106.479-104.706 153.602h-115.211zM695.319 404.799h58.076l61.057-87.225-24.813-49.622-40.846 40.846c-26.628 26.628-43.364 62.204-53.476 96.001zM220.787 596.802h-9.6v28.8h-134.402l-9.6-9.6h-38.401l-9.6-9.6h-19.2v-57.601l9.6-9.6v-115.202h86.401v28.8h-35.72l-12.281 36.842v55.492l26.534 13.268h146.269v38.401zM121.804 539.201c-10.371-14.909-20.309-35.144-25.818-48.001v-19.2h-21.881l-6.92 20.759v40.51l11.867 5.933h42.752zM1219.202 616.002h57.601c5.301 0 9.6-4.298 9.6-9.6s-4.298-9.6-9.6-9.6h-57.601c-5.301 0-9.6 4.298-9.6 9.6s4.298 9.6 9.6 9.6zM1478.406 553.602h-268.804v9.6h268.804v-9.6zM633.594 529.601c0-16.001-3.84-48.001-19.2-48.001h-57.601c-3.201 9.6-9.6 32.64-9.6 48.001h86.401zM988.799 568.002h-67.201v19.2h67.201v-19.2zM1065.6 568.002v19.2h57.601v-19.2h-57.601zM1468.806 606.402l19.2 48.001h9.6v-48.001h-28.8zM489.591 462.4c-5.301 0-9.6 4.299-9.6 9.6s4.298 9.6 9.6 9.6c5.301 0 9.6-4.299 9.6-9.6s-4.298-9.6-9.6-9.6zM95.986 606.402c0-5.303-4.298-9.6-9.6-9.6s-9.6 4.298-9.6 9.6c0 5.303 4.298 9.6 9.6 9.6s9.6-4.298 9.6-9.6zM600.817 596.802h199.956l-28.8-28.8h-172.803l-9.6-9.6h-199.956l28.8 28.8h172.803l9.6 9.6z" />
<glyph unicode="&#xe934;" glyph-name="Assault-Rifle" horiz-adv-x="1536" d="M801.807 612.228v48.302h-63.622l-38.642-38.642h-277.716l-6.44-7.728v-88.876h67.624l-28.982-28.982h-33.098c-18.906-41.664-40.644-97.57-34.526-115.926 7.728-23.186 61.184-28.982 86.944-28.982 12.882 38.642 40.574 115.926 48.302 115.926s16.1-12.882 19.322-19.322h86.944l9.66-19.322h28.982l4.67 4.67-14.144 70.72 18.945 3.789 18.186-90.934c26.963-66.058 81.25-173.116 136.569-200.774l67.624 106.266c-35.42 28.982-106.266 108.198-106.266 193.21h48.302v71.314l-38.642 19.322v5.97zM396.066 602.568v-77.284h-183.55l-9.66-9.66h-28.982l-154.568-125.586h-19.322v212.53h396.081zM821.128 618.198v61.654h318.797v-38.642h173.89l9.66-48.302h115.926l28.982 28.982v57.964h38.642v-86.944h28.982v-48.302h-28.982l-9.66-19.322h-347.778l-9.66-28.982h-212.53l-9.66-9.66h-57.964v112.236l-38.642 19.322zM454.030 660.53l-16.1-19.322h253.611l19.322 19.322h-256.833zM28.967 573.586v-125.586l135.248 86.944v48.302h-125.586l-9.66-9.66zM1468.382 612.228h28.982v48.302h-9.66l-19.322-48.302zM975.697 621.888h48.302v19.322h-48.302v-19.322zM1043.319 621.888h57.964v19.322h-57.964v-19.322zM995.017 534.944h19.322v57.964h-19.322v-57.964zM1072.301 534.944h19.322v57.964h-19.322v-57.964zM879.091 583.246v-19.322h67.624v19.322h-67.624zM1139.925 554.266h338.117v19.322h-338.117v-19.322zM637.579 525.284c3.222-16.101 3.864-48.302-19.322-48.302h-77.284v48.302h96.604zM502.332 534.944l19.322 48.302c38.642-6.44 117.858-21.252 125.586-28.982s3.222-16.101 0-19.322h-144.908zM1139.925 612.228c0-5.336 4.326-9.66 9.66-9.66h135.248c5.336 0 9.66 4.325 9.66 9.66s-4.326 9.66-9.66 9.66h-135.248c-5.336 0-9.66-4.325-9.66-9.66zM222.178 544.604c5.336 0 9.66 4.325 9.66 9.66s-4.326 9.66-9.66 9.66c-5.334 0-9.66-4.325-9.66-9.66s4.326-9.66 9.66-9.66zM347.764 554.266c0 5.336-4.326 9.66-9.66 9.66s-9.66-4.325-9.66-9.66c0-5.336 4.326-9.66 9.66-9.66s9.66 4.325 9.66 9.66zM1033.659 534.944h19.322v57.964h-19.322v-57.964z" />
<glyph unicode="&#xe935;" glyph-name="Assault-Shotgun" horiz-adv-x="1536" d="M26.094 370.093c6.752-4.514 20.9-11.505 33.35-11.015l-22.044 210.109h-19.934c-6.615-2.886-19.326-12.119-17.256-25.968l25.884-173.126zM76.309 363.709c37.174 9.768 196.126 36.472 277.651 49.664h181.19c-2.877-8.657-10.355-27.701-17.256-34.625s-60.395-72.137-86.281-103.876c-2.877-5.769-5.177-17.313 8.628-17.313s57.52-17.313 77.653-25.968c8.628 0 25.884 1.731 25.884 8.657v34.625l60.395 77.907h138.048v-95.22l17.256 3.462v126.383h17.256v-122.921l34.511 6.926v115.995h17.256v-112.533l25.884 5.193v107.338h17.256v-103.876l43.139 8.657v103.876h-163.933v67.208l-13.959 28.011h-29.18v-51.938h-163.933v69.299c-73.722 0.816-146.183 11.799-174.254 17.432l-1.775 0.356-60.883 42.758h-252.116l21.558-205.479zM931.816 413.375v77.907h97.152l-46.592-77.907h-50.561zM1049.092 491.282h14.387l-46.592-77.907h-14.387l46.592 77.907zM1083.604 491.282h14.387l-46.592-77.907h-14.387l46.592 77.907zM1118.115 491.282h149.129c-2.966-25.716-6.971-61.966-10.257-95.22h-161.011l-17.256 17.313h-7.194l46.592 77.907zM1274.327 396.062h71.86l17.256 17.313h25.884v159.277l-25.884 5.193v17.313h-25.883l-25.884 17.313v51.938h-25.884v-69.251h-592.217l-11.747 17.313h-60.395c-8.628 17.313-31.061 51.938-51.77 51.938-20.706 0-25.883-46.168-25.883-69.251l-51.77-17.313h-103.534l-55.096-6.143 41.296-29.001c29.636-5.795 104.016-16.794 177.733-16.794h8.628v-69.251h129.42v51.938h57.101l20.552-41.239v-53.981h146.45v95.22h372.083l-1.136-9.668c-3.005-25.635-7.526-66.097-11.18-102.865zM1536.006 517.251v51.938h-129.42v-51.938h129.42zM1406.586 430.687h25.883v60.595h-25.883v-60.595zM621.431 413.375h94.909c5.751-14.426 13.805-43.282 0-43.282h-94.909v43.282zM776.738 534.563h-51.77v17.313h51.77v-17.313zM793.994 534.563v17.313h51.767v-17.313h-51.767zM914.786 534.563h-51.767v17.313h51.767v-17.313zM932.042 534.563v17.313h51.767v-17.313h-51.767zM1139.116 534.563h-51.767v17.313h51.767v-17.313zM1156.372 534.563v17.313h51.767v-17.313h-51.767zM1277.163 534.563h-51.767v17.313h51.767v-17.313zM1346.187 534.563h-51.767v17.313h51.767v-17.313zM310.822 456.657c0-9.561-7.727-17.313-17.256-17.313s-17.256 7.751-17.256 17.313c0 9.561 7.727 17.313 17.256 17.313s17.256-7.751 17.256-17.313zM431.613 439.343c-9.53 0-17.256 7.751-17.256 17.313s7.727 17.313 17.256 17.313c9.533 0 17.256-7.751 17.256-17.313s-7.724-17.313-17.256-17.313zM517.894 283.529c0-9.563-7.724-17.313-17.256-17.313-9.53 0-17.253 7.751-17.253 17.313s7.724 17.313 17.253 17.313c9.533 0 17.256-7.751 17.256-17.313zM103.747 387.405c-9.531 0-17.256 7.751-17.256 17.313s7.725 17.313 17.256 17.313 17.256-7.751 17.256-17.313c0-9.563-7.725-17.313-17.256-17.313zM552.408 543.22c0 9.561 7.724 17.313 17.253 17.313h103.537c9.53 0 17.256-7.752 17.256-17.313s-7.727-17.313-17.256-17.313h-103.537c-9.53 0-17.253 7.752-17.253 17.313z" />
<glyph unicode="&#xe936;" glyph-name="Bullpup-Rifle-Mk-II" horiz-adv-x="1536" d="M250.916 325.849l-26.152 26.15h-113.556l-28.802-28.802h-15.222v307.209l67.202-19.2h326.408l57.6 105.603h19.2v57.601h48.001v-48.001h63.225l16.388-16.388 13.578 13.577-2.813 2.811h11.247l16.385-16.388 13.578 13.577-2.813 2.811h11.247l16.388-16.388 13.578 13.577-2.813 2.811h11.247l16.388-16.388 13.578 13.577-2.813 2.811h11.247l16.385-16.388 13.578 13.577-2.813 2.811h11.247l16.388-16.388 13.578 13.577-2.813 2.811h11.247l16.388-16.388 13.578 13.577-2.813 2.811h11.247l16.385-16.388 13.578 13.577-2.813 2.811h11.247l16.388-16.388 13.578 13.577-2.813 2.811h11.247l16.388-16.388 13.578 13.577-2.813 2.811h11.247l16.385-16.388 13.578 13.577-2.813 2.811h11.247l16.388-16.388 13.578 13.577-2.813 2.811h11.247l16.388-16.388 13.578 13.577-2.816 2.811h11.25l16.385-16.388 13.578 13.577-2.813 2.811h5.625l38.399-38.401v-86.402h28.802v-28.801h38.399v-19.2h115.203v9.6h134.405v-9.6h-76.8v-19.2h76.8v-19.2h-76.8v-19.2h76.8v-9.599h-134.405v9.599h-115.203v-48.004l-9.599-19.2h-24.002v48.004h-9.599v-48.004h-9.602v48.004h-9.599v-48.004h-9.599v48.004h-9.602v-48.004h-9.599v48.004h-9.602v-48.004h-9.599v48.004h-9.599v-48.004h-9.602v48.004h-9.599v-48.004h-9.602v48.004h-9.599v-48.004h-9.602v48.004h-9.599v-48.004h-9.599v48.004h-9.602v-48.004h-9.599v48.004h-9.602v-48.004h-9.599v48.004h-9.599v-48.004h-9.602v48.004h-9.599v-48.004h-9.602v48.004h-9.599v-48.004h-9.599v48.004h-9.602v-48.004h-9.599v48.004h-9.602v-48.004h-9.599v48.004h-9.602v-48.004h-9.599v48.004h-9.599v-48.004h-14.4l-19.2 19.2c0-15.36-12.801-44.8-19.2-57.597h-124.802v9.599h-28.802c-7.679 0-15.999-102.402-19.2-153.605-15.36 0-70.401 12.801-96.002 19.2 6.401 32.002 23.042 103.684 38.402 134.405s0 44.8-9.599 47.998h-259.208v-19.2c0-8.331 11.721-29.471 28.802-55.788v-34.052l54.181-54.753 7.431 1.071c16.179-21.896 31.754-42.352 43.989-58.081l-76.8-105.604c-3.201 3.201-17.28 15.36-48.001 38.402s-102.402 131.205-134.403 182.405l-8.273-16.548zM226.415 323.197h-116.853l9.602 9.602h97.649l9.602-9.602zM47.985 320.719v309.687h-28.801l-19.2-19.2v-278.407c5.247-5.247 21.247-13.505 48.001-12.080zM931.206 496.003h57.6v19.2h-57.6v-19.2zM1056.009 496.003v19.2h-57.6v-19.2h57.6zM1065.61 496.003h57.6v19.2h-57.6v-19.2zM1190.412 515.203h-57.6v-19.2h57.6v19.2zM936.007 544.004h9.599v19.2h-9.599v-19.2zM955.205 563.204v-19.2h9.602v19.2h-9.602zM974.407 544.004h9.602v19.2h-9.602v-19.2zM993.607 563.204v-19.2h9.602v19.2h-9.602zM1012.808 544.004h9.599v19.2h-9.599v-19.2zM1032.010 563.204v-19.2h9.599v19.2h-9.599zM1051.21 544.004h9.599v19.2h-9.599v-19.2zM1070.407 563.204v-19.2h9.602v19.2h-9.602zM1089.609 544.004h9.602v19.2h-9.602v-19.2zM1108.81 563.204v-19.2h9.599v19.2h-9.599zM1128.010 544.004h9.599v19.2h-9.599v-19.2zM1147.212 563.204v-19.2h9.599v19.2h-9.599zM1166.413 544.004h9.599v19.2h-9.599v-19.2zM1185.61 563.204v-19.2h9.602v19.2h-9.602zM1204.812 544.004h9.602v19.2h-9.602v-19.2zM652.799 668.807v-67.202h508.813v67.202h-508.813zM547.196 659.207h76.803v19.2h-76.803v-19.2zM825.603 563.204h57.603v19.2h-57.603v-19.2zM239.99 467.202h124.803v19.2h-124.803v-19.2zM652.799 457.6h67.202v19.2h-67.202v-19.2zM768.002 419.201c23.042-7.682 67.202-9.602 86.404-9.602 9.599 19.2 24.959 57.603 9.599 57.603h-115.203c-3.201-12.801-3.842-40.322 19.2-48.001zM201.589 582.405v-48.001h182.403v48.001h-182.403z" />
</font>
</defs>
</svg>
